ply
format ascii 1.0
comment VCGLIB generated
element vertex 160
property float x
property float y
property float z
property float nx
property float ny
property float nz
property uchar red
property uchar green
property uchar blue
property uchar alpha
element face 0
property list uchar int vertex_indices
end_header
3.79649 1.27961 3.25815 0 0 0 128 0 128 255
3.83541 1.44071 3.33952 0 0 0 128 0 128 255
3.83147 1.51599 3.35745 0 0 0 128 0 128 255
3.85646 1.43894 3.35814 0 0 0 128 0 128 255
3.85265 1.53314 3.38159 0 0 0 128 0 128 255
3.79961 1.73555 3.39124 0 0 0 128 0 128 255
3.80189 1.73313 3.39262 0 0 0 128 0 128 255
3.86718 1.53037 3.394 0 0 0 128 0 128 255
3.79884 1.75732 3.39676 0 0 0 128 0 128 255
3.79414 1.79882 3.40434 0 0 0 128 0 128 255
3.92638 1.42424 3.41744 0 0 0 128 0 128 255
3.93577 1.3968 3.41813 0 0 0 128 0 128 255
3.93715 1.39723 3.41951 0 0 0 128 0 128 255
4.19526 0.610422 3.42917 0 0 0 128 0 128 255
4.20959 0.634848 3.44916 0 0 0 128 0 128 255
3.87797 1.73504 3.46227 0 0 0 128 0 128 255
4.06779 1.18463 3.47744 0 0 0 128 0 128 255
3.87409 1.81978 3.48295 0 0 0 128 0 128 255
3.87518 1.82117 3.48433 0 0 0 128 0 128 255
3.87902 1.82343 3.48847 0 0 0 128 0 128 255
4.08543 1.19857 3.49743 0 0 0 128 0 128 255
4.19539 0.861009 3.50088 0 0 0 128 0 128 255
4.09476 1.18578 3.50226 0 0 0 128 0 128 255
4.15394 1.03142 3.51192 0 0 0 128 0 128 255
3.92538 1.76777 3.51467 0 0 0 128 0 128 255
3.84074 2.04411 3.51674 0 0 0 128 0 128 255
3.86067 2.00006 3.52226 0 0 0 128 0 128 255
3.9238 1.81864 3.52778 0 0 0 128 0 128 255
4.13845 1.15549 3.53329 0 0 0 128 0 128 255
4.26027 0.768198 3.53329 0 0 0 128 0 128 255
4.13734 1.16143 3.53398 0 0 0 128 0 128 255
3.93986 1.80378 3.53812 0 0 0 128 0 128 255
4.26676 0.776529 3.54157 0 0 0 128 0 128 255
4.13441 1.20454 3.54364 0 0 0 128 0 128 255
4.18989 1.03539 3.5457 0 0 0 128 0 128 255
3.95272 1.80153 3.54915 0 0 0 128 0 128 255
4.28517 0.768691 3.55605 0 0 0 128 0 128 255
3.96041 1.80604 3.55743 0 0 0 128 0 128 255
4.14529 1.22788 3.56019 0 0 0 128 0 128 255
3.94736 1.8596 3.56088 0 0 0 128 0 128 255
4.1708 1.17091 3.56708 0 0 0 128 0 128 255
3.98182 1.81278 3.5788 0 0 0 128 0 128 255
3.88749 2.11752 3.58018 0 0 0 128 0 128 255
3.97763 1.85025 3.5857 0 0 0 128 0 128 255
4.01619 1.73973 3.58915 0 0 0 128 0 128 255
4.18187 1.22261 3.59191 0 0 0 128 0 128 255
3.90611 2.1066 3.59397 0 0 0 128 0 128 255
4.01002 1.77867 3.59466 0 0 0 128 0 128 255
4.00231 1.80559 3.59535 0 0 0 128 0 128 255
3.95626 1.98819 3.6057 0 0 0 128 0 128 255
3.95665 1.98936 3.60639 0 0 0 128 0 128 255
3.91819 2.12613 3.61052 0 0 0 128 0 128 255
3.92306 2.14443 3.62018 0 0 0 128 0 128 255
3.93855 2.12414 3.62845 0 0 0 128 0 128 255
4.04309 1.81109 3.63397 0 0 0 128 0 128 255
3.92671 2.19799 3.6388 0 0 0 128 0 128 255
3.91118 2.28117 3.64845 0 0 0 128 0 128 255
4.15456 1.54843 3.66017 0 0 0 128 0 128 255
4.20512 1.39975 3.66362 0 0 0 128 0 128 255
4.34553 0.953309 3.66362 0 0 0 128 0 128 255
4.05567 1.88213 3.66569 0 0 0 128 0 128 255
4.18433 1.48756 3.66983 0 0 0 128 0 128 255
4.20953 1.40743 3.66983 0 0 0 128 0 128 255
4.35244 0.955482 3.67052 0 0 0 128 0 128 255
3.93729 2.30196 3.6781 0 0 0 128 0 128 255
4.20499 1.46051 3.68086 0 0 0 128 0 128 255
4.03724 2.0252 3.68982 0 0 0 128 0 128 255
4.08594 1.87278 3.69051 0 0 0 128 0 128 255
4.16374 1.62784 3.6912 0 0 0 128 0 128 255
4.08979 1.87504 3.69465 0 0 0 128 0 128 255
4.15568 1.67038 3.69603 0 0 0 128 0 128 255
4.15718 1.66561 3.69603 0 0 0 128 0 128 255
3.96173 2.29182 3.69741 0 0 0 128 0 128 255
4.03224 2.06765 3.69741 0 0 0 128 0 128 255
4.13621 1.74917 3.70086 0 0 0 128 0 128 255
4.15031 1.70434 3.70086 0 0 0 128 0 128 255
4.03738 2.06822 3.70224 0 0 0 128 0 128 255
3.95227 2.36537 3.70982 0 0 0 128 0 128 255
4.11027 1.86786 3.7112 0 0 0 128 0 128 255
4.11126 1.86712 3.71189 0 0 0 128 0 128 255
4.19014 1.62357 3.71396 0 0 0 128 0 128 255
4.11141 1.8787 3.71534 0 0 0 128 0 128 255
4.15639 1.74294 3.71741 0 0 0 128 0 128 255
4.05765 2.06411 3.71948 0 0 0 128 0 128 255
4.05855 2.06125 3.71948 0 0 0 128 0 128 255
4.38469 1.02433 3.71948 0 0 0 128 0 128 255
4.11175 1.89453 3.72017 0 0 0 128 0 128 255
4.16951 1.72295 3.72361 0 0 0 128 0 128 255
4.15892 1.77833 3.72982 0 0 0 128 0 128 255
4.45794 0.832469 3.7312 0 0 0 128 0 128 255
3.98743 2.34289 3.73534 0 0 0 128 0 128 255
4.13643 1.87399 3.73672 0 0 0 128 0 128 255
4.18339 1.73676 3.74016 0 0 0 128 0 128 255
4.21754 1.64267 3.7443 0 0 0 128 0 128 255
4.21874 1.63885 3.7443 0 0 0 128 0 128 255
4.47155 0.839894 3.74568 0 0 0 128 0 128 255
4.17719 1.78303 3.74775 0 0 0 128 0 128 255
4.08967 2.0637 3.74844 0 0 0 128 0 128 255
4.11805 1.97828 3.74982 0 0 0 128 0 128 255
4.21706 1.66348 3.74982 0 0 0 128 0 128 255
4.06473 2.1502 3.75051 0 0 0 128 0 128 255
4.12562 1.96389 3.75258 0 0 0 128 0 128 255
4.18241 1.78572 3.75327 0 0 0 128 0 128 255
4.13129 1.95309 3.75464 0 0 0 128 0 128 255
4.2291 1.64211 3.75464 0 0 0 128 0 128 255
4.11725 2.00738 3.7574 0 0 0 128 0 128 255
4.11764 2.00855 3.75809 0 0 0 128 0 128 255
4.11794 2.0076 3.75809 0 0 0 128 0 128 255
4.23235 1.64628 3.75878 0 0 0 128 0 128 255
4.18383 1.80294 3.75947 0 0 0 128 0 128 255
4.2031 1.75134 3.76223 0 0 0 128 0 128 255
4.12428 2.00435 3.76292 0 0 0 128 0 128 255
4.04474 2.26447 3.76499 0 0 0 128 0 128 255
4.11852 2.03713 3.76706 0 0 0 128 0 128 255
4.01 2.38458 3.76775 0 0 0 128 0 128 255
4.01513 2.38515 3.77257 0 0 0 128 0 128 255
4.14064 1.98853 3.77326 0 0 0 128 0 128 255
4.14509 1.98888 3.7774 0 0 0 128 0 128 255
4.20768 1.81883 3.78568 0 0 0 128 0 128 255
4.13516 2.0518 3.78636 0 0 0 128 0 128 255
4.13255 2.06251 3.78705 0 0 0 128 0 128 255
4.0625 2.29731 3.7905 0 0 0 128 0 128 255
4.04933 2.35607 3.79533 0 0 0 128 0 128 255
4.0671 2.30924 3.79809 0 0 0 128 0 128 255
4.1452 2.06334 3.79878 0 0 0 128 0 128 255
4.2227 1.81936 3.79947 0 0 0 128 0 128 255
4.13218 2.10957 3.80016 0 0 0 128 0 128 255
4.25819 1.70892 3.80016 0 0 0 128 0 128 255
4.21037 1.8658 3.80154 0 0 0 128 0 128 255
4.21212 1.87473 3.80567 0 0 0 128 0 128 255
4.22922 1.82036 3.80567 0 0 0 128 0 128 255
4.00857 2.5267 3.80705 0 0 0 128 0 128 255
4.22505 1.8505 3.8105 0 0 0 128 0 128 255
4.26286 1.7303 3.8105 0 0 0 128 0 128 255
4.08292 2.30478 3.81119 0 0 0 128 0 128 255
4.23144 1.83259 3.81119 0 0 0 128 0 128 255
4.23273 1.8309 3.81188 0 0 0 128 0 128 255
4.0853 2.30448 3.81326 0 0 0 128 0 128 255
4.06229 2.38006 3.81395 0 0 0 128 0 128 255
4.27952 1.71353 3.82084 0 0 0 128 0 128 255
4.09896 2.29725 3.8236 0 0 0 128 0 128 255
4.06974 2.39498 3.82498 0 0 0 128 0 128 255
4.21832 1.93224 3.82774 0 0 0 128 0 128 255
4.23422 1.88168 3.82774 0 0 0 128 0 128 255
4.29663 1.68327 3.82774 0 0 0 128 0 128 255
4.23491 1.8819 3.82843 0 0 0 128 0 128 255
4.07656 2.39503 3.83119 0 0 0 128 0 128 255
4.30156 1.68691 3.83326 0 0 0 128 0 128 255
4.27252 1.7889 3.83601 0 0 0 128 0 128 255
4.22199 1.95436 3.83739 0 0 0 128 0 128 255
4.09388 2.3858 3.84429 0 0 0 128 0 128 255
4.30385 1.73271 3.84843 0 0 0 128 0 128 255
4.12459 2.31474 3.85187 0 0 0 128 0 128 255
4.29474 1.79065 3.8567 0 0 0 128 0 128 255
4.12511 2.35893 3.86498 0 0 0 128 0 128 255
4.12709 2.35746 3.86635 0 0 0 128 0 128 255
4.31478 1.79695 3.8767 0 0 0 128 0 128 255
4.1584 2.41239 3.91049 0 0 0 128 0 128 255
4.16508 2.42497 3.92014 0 0 0 128 0 128 255
4.40584 1.80672 3.9622 0 0 0 128 0 128 255
