ply
format ascii 1.0
comment VCGLIB generated
element vertex 51
property float x
property float y
property float z
property float nx
property float ny
property float nz
property uchar red
property uchar green
property uchar blue
property uchar alpha
element face 0
property list uchar int vertex_indices
end_header
1.66473 0.397158 4.20425 0 0 0 0 128 0 255
1.64554 0.440151 4.18644 0 0 0 0 128 0 255
1.61876 0.884542 3.94378 0 0 0 0 128 0 255
1.63445 0.434507 4.19373 0 0 0 0 128 0 255
1.62423 0.4305 4.19976 0 0 0 0 128 0 255
1.58858 0.717138 4.04898 0 0 0 0 128 0 255
1.57496 0.724836 4.04959 0 0 0 0 128 0 255
1.58685 0.382877 4.24092 0 0 0 0 128 0 255
1.56459 0.764395 4.03101 0 0 0 0 128 0 255
1.55956 0.590906 4.13135 0 0 0 0 128 0 255
1.54978 0.777468 4.02904 0 0 0 0 128 0 255
1.55471 0.652351 4.09811 0 0 0 0 128 0 255
1.56085 0.372946 4.25621 0 0 0 0 128 0 255
1.54635 0.648981 4.10308 0 0 0 0 128 0 255
1.53612 0.786053 4.02918 0 0 0 0 128 0 255
1.53211 0.379799 4.2628 0 0 0 0 128 0 255
1.52182 0.377552 4.26789 0 0 0 0 128 0 255
1.49154 0.340429 4.30059 0 0 0 0 128 0 255
1.47906 0.419008 4.25969 0 0 0 0 128 0 255
1.47335 0.326145 4.31562 0 0 0 0 128 0 255
1.4467 0.576439 4.18111 0 0 0 0 128 0 255
1.44483 0.347708 4.31366 0 0 0 0 128 0 255
1.42648 0.623175 4.16189 0 0 0 0 128 0 255
1.43933 0.325855 4.3284 0 0 0 0 128 0 255
1.42937 0.429245 4.27216 0 0 0 0 128 0 255
1.43134 0.352779 4.31572 0 0 0 0 128 0 255
1.41117 0.377691 4.30876 0 0 0 0 128 0 255
1.39517 0.586056 4.19469 0 0 0 0 128 0 255
1.3806 0.574768 4.20657 0 0 0 0 128 0 255
1.37303 0.365797 4.32986 0 0 0 0 128 0 255
1.3455 0.424536 4.30611 0 0 0 0 128 0 255
1.3445 0.42552 4.30591 0 0 0 0 128 0 255
1.33192 0.394114 4.32881 0 0 0 0 128 0 255
1.31183 0.361889 4.35503 0 0 0 0 128 0 255
1.29404 0.645105 4.19863 0 0 0 0 128 0 255
1.30553 0.355728 4.36097 0 0 0 0 128 0 255
1.29189 0.382475 4.35056 0 0 0 0 128 0 255
1.26361 0.571444 4.25216 0 0 0 0 128 0 255
1.25784 0.592985 4.24199 0 0 0 0 128 0 255
1.20897 0.745863 4.17321 0 0 0 0 128 0 255
1.22217 0.361465 4.38904 0 0 0 0 128 0 255
1.21187 0.378296 4.38314 0 0 0 0 128 0 255
1.19713 0.371428 4.39272 0 0 0 0 128 0 255
1.18685 0.351042 4.40847 0 0 0 0 128 0 255
1.15079 0.581648 4.28886 0 0 0 0 128 0 255
1.14301 0.625153 4.26687 0 0 0 0 128 0 255
1.13502 0.653944 4.25344 0 0 0 0 128 0 255
1.13452 0.625319 4.27 0 0 0 0 128 0 255
1.10948 0.754484 4.20588 0 0 0 0 128 0 255
1.09508 0.602345 4.29814 0 0 0 0 128 0 255
1.08904 0.688242 4.25132 0 0 0 0 128 0 255
