ply
format ascii 1.0
comment VCGLIB generated
element vertex 608
property float x
property float y
property float z
property float nx
property float ny
property float nz
property uchar red
property uchar green
property uchar blue
property uchar alpha
element face 0
property list uchar int vertex_indices
end_header
-1.10686 0.0859328 4.31589 0 0 0 128 128 128 255
-0.98431 1.22865 4.4314 0 0 0 128 128 128 255
-1.10172 0.103002 4.30311 0 0 0 128 128 128 255
-1.09035 0.152231 4.28638 0 0 0 128 128 128 255
-1.0894 0.14377 4.27971 0 0 0 128 128 128 255
-1.08875 0.143912 4.27782 0 0 0 128 128 128 255
-0.964524 1.27973 4.39015 0 0 0 128 128 128 255
-0.965976 1.2591 4.38597 0 0 0 128 128 128 255
-0.96608 1.25811 4.38586 0 0 0 128 128 128 255
-1.06826 0.195954 4.2454 0 0 0 128 128 128 255
-1.07364 0.140654 4.23833 0 0 0 128 128 128 255
-1.07224 0.137911 4.23439 0 0 0 128 128 128 255
-1.06551 0.107399 4.21134 0 0 0 128 128 128 255
-1.02331 0.491119 4.25056 0 0 0 128 128 128 255
-1.06494 0.089836 4.205 0 0 0 128 128 128 255
-1.02557 0.455668 4.24399 0 0 0 128 128 128 255
-1.0153 0.500616 4.23949 0 0 0 128 128 128 255
-1.02944 0.330868 4.21462 0 0 0 128 128 128 255
-1.00218 0.570231 4.2379 0 0 0 128 128 128 255
-0.992847 0.59044 4.22932 0 0 0 128 128 128 255
-0.967944 0.816867 4.25289 0 0 0 128 128 128 255
-1.00259 0.48671 4.21613 0 0 0 128 128 128 255
-0.965974 0.808119 4.24784 0 0 0 128 128 128 255
-1.02427 0.235865 4.18167 0 0 0 128 128 128 255
-0.931431 1.05758 4.26438 0 0 0 128 128 128 255
-0.960178 0.771955 4.231 0 0 0 128 128 128 255
-1.02149 0.170029 4.1616 0 0 0 128 128 128 255
-0.984641 0.497303 4.19493 0 0 0 128 128 128 255
-0.968033 0.649551 4.21111 0 0 0 128 128 128 255
-1.0005 0.340152 4.17665 0 0 0 128 128 128 255
-0.977968 0.512278 4.19043 0 0 0 128 128 128 255
-0.954783 0.683411 4.20343 0 0 0 128 128 128 255
-0.973351 0.506471 4.18373 0 0 0 128 128 128 255
-0.949787 0.699291 4.20147 0 0 0 128 128 128 255
-0.966334 0.535213 4.18246 0 0 0 128 128 128 255
-0.948272 0.681554 4.19581 0 0 0 128 128 128 255
-0.962818 0.523423 4.17601 0 0 0 128 128 128 255
-1.00103 0.152746 4.134 0 0 0 128 128 128 255
-1.00279 0.135942 4.13213 0 0 0 128 128 128 255
-0.92018 0.890201 4.21252 0 0 0 128 128 128 255
-0.941134 0.690525 4.19028 0 0 0 128 128 128 255
-0.915218 0.904068 4.2105 0 0 0 128 128 128 255
-0.948101 0.590715 4.1756 0 0 0 128 128 128 255
-0.936398 0.6955 4.18656 0 0 0 128 128 128 255
-0.909859 0.941639 4.21327 0 0 0 128 128 128 255
-0.909667 0.936701 4.21202 0 0 0 128 128 128 255
-0.958318 0.473097 4.16039 0 0 0 128 128 128 255
-0.9349 0.682664 4.18232 0 0 0 128 128 128 255
-0.990519 0.138997 4.12038 0 0 0 128 128 128 255
-0.861071 1.3588 4.25484 0 0 0 128 128 128 255
-0.8701 1.25897 4.24234 0 0 0 128 128 128 255
-0.964186 0.355482 4.14104 0 0 0 128 128 128 255
-0.884922 1.08993 4.22078 0 0 0 128 128 128 255
-0.928282 0.676741 4.17476 0 0 0 128 128 128 255
-0.968531 0.293206 4.13205 0 0 0 128 128 128 255
-0.891026 1.01777 4.21138 0 0 0 128 128 128 255
-0.928059 0.664877 4.17208 0 0 0 128 128 128 255
-0.887513 1.00885 4.20637 0 0 0 128 128 128 255
-0.92299 0.67079 4.16872 0 0 0 128 128 128 255
-0.917241 0.711309 4.1719 0 0 0 128 128 128 255
-0.895952 0.907026 4.19304 0 0 0 128 128 128 255
-0.920226 0.675718 4.16728 0 0 0 128 128 128 255
-0.933789 0.5393 4.15143 0 0 0 128 128 128 255
-0.867135 1.16006 4.21925 0 0 0 128 128 128 255
-0.880901 1.02167 4.20318 0 0 0 128 128 128 255
-0.893349 0.903047 4.18997 0 0 0 128 128 128 255
-0.872446 1.05126 4.20196 0 0 0 128 128 128 255
-0.921112 0.572813 4.14741 0 0 0 128 128 128 255
-0.930967 0.478906 4.13695 0 0 0 128 128 128 255
-0.872206 1.03146 4.19785 0 0 0 128 128 128 255
-0.915933 0.607389 4.14999 0 0 0 128 128 128 255
-0.931444 0.452184 4.13208 0 0 0 128 128 128 255
-0.915309 0.583618 4.14484 0 0 0 128 128 128 255
-0.860009 1.09563 4.20062 0 0 0 128 128 128 255
-0.867937 1.01259 4.19076 0 0 0 128 128 128 255
-0.865013 1.02541 4.19096 0 0 0 128 128 128 255
-0.89953 0.681382 4.15142 0 0 0 128 128 128 255
-0.934664 0.331423 4.11124 0 0 0 128 128 128 255
-0.844274 1.17754 4.20426 0 0 0 128 128 128 255
-0.936804 0.295805 4.10607 0 0 0 128 128 128 255
-0.905819 0.58344 4.1375 0 0 0 128 128 128 255
-0.819258 1.39298 4.22646 0 0 0 128 128 128 255
-0.865964 0.940233 4.17545 0 0 0 128 128 128 255
-0.89864 0.628857 4.14077 0 0 0 128 128 128 255
-0.886735 0.734608 4.15196 0 0 0 128 128 128 255
-0.863315 0.950081 4.17537 0 0 0 128 128 128 255
-0.887174 0.722727 4.15005 0 0 0 128 128 128 255
-0.922504 0.362856 4.10822 0 0 0 128 128 128 255
-0.8152 1.35423 4.21632 0 0 0 128 128 128 255
-0.849028 1.02405 4.17897 0 0 0 128 128 128 255
-0.918022 0.358774 4.10431 0 0 0 128 128 128 255
-0.82894 1.17617 4.19309 0 0 0 128 128 128 255
-0.813591 1.31453 4.20794 0 0 0 128 128 128 255
-0.853321 0.912139 4.16146 0 0 0 128 128 128 255
-0.90975 0.366464 4.10014 0 0 0 128 128 128 255
-0.912962 0.327887 4.09529 0 0 0 128 128 128 255
-0.817826 1.21847 4.19338 0 0 0 128 128 128 255
-0.846864 0.933753 4.16113 0 0 0 128 128 128 255
-0.885452 0.566033 4.12018 0 0 0 128 128 128 255
-0.818408 1.18079 4.18703 0 0 0 128 128 128 255
-0.842239 0.937565 4.15888 0 0 0 128 128 128 255
-0.834546 1.00278 4.16561 0 0 0 128 128 128 255
-0.836707 0.97408 4.16189 0 0 0 128 128 128 255
-0.829427 1.03534 4.16819 0 0 0 128 128 128 255
-0.829282 1.02045 4.16549 0 0 0 128 128 128 255
-0.898242 0.35516 4.09088 0 0 0 128 128 128 255
-0.891839 0.391638 4.0934 0 0 0 128 128 128 255
-0.889944 0.40149 4.09399 0 0 0 128 128 128 255
-0.870516 0.578397 4.11318 0 0 0 128 128 128 255
-0.88867 0.405411 4.09392 0 0 0 128 128 128 255
-0.892612 0.367848 4.08973 0 0 0 128 128 128 255
-0.850258 0.763212 4.13326 0 0 0 128 128 128 255
-0.849571 0.753258 4.13115 0 0 0 128 128 128 255
-0.883492 0.430021 4.09515 0 0 0 128 128 128 255
-0.891721 0.335056 4.08358 0 0 0 128 128 128 255
-0.863807 0.576141 4.10895 0 0 0 128 128 128 255
-0.801381 1.15434 4.17237 0 0 0 128 128 128 255
-0.846359 0.717384 4.12323 0 0 0 128 128 128 255
-0.845692 0.71537 4.12252 0 0 0 128 128 128 255
-0.793734 1.19372 4.17484 0 0 0 128 128 128 255
-0.843686 0.709323 4.12042 0 0 0 128 128 128 255
-0.888188 0.285259 4.07319 0 0 0 128 128 128 255
-0.814903 0.975189 4.14956 0 0 0 128 128 128 255
-0.844052 0.697422 4.11862 0 0 0 128 128 128 255
-0.791151 1.18467 4.17195 0 0 0 128 128 128 255
-0.84421 0.670613 4.11424 0 0 0 128 128 128 255
-0.841349 0.672467 4.11306 0 0 0 128 128 128 255
-0.882267 0.274062 4.06824 0 0 0 128 128 128 255
-0.882889 0.268131 4.06758 0 0 0 128 128 128 255
-0.84196 0.649648 4.10961 0 0 0 128 128 128 255
-0.878 0.297701 4.06997 0 0 0 128 128 128 255
-0.809891 0.938202 4.14085 0 0 0 128 128 128 255
-0.821218 0.804625 4.12464 0 0 0 128 128 128 255
-0.845699 0.57134 4.09866 0 0 0 128 128 128 255
-0.868209 0.356837 4.07477 0 0 0 128 128 128 255
-0.837788 0.629572 4.10427 0 0 0 128 128 128 255
-0.870568 0.317208 4.06948 0 0 0 128 128 128 255
-0.799683 0.949615 4.13776 0 0 0 128 128 128 255
-0.834984 0.604584 4.09891 0 0 0 128 128 128 255
-0.835563 0.581753 4.09552 0 0 0 128 128 128 255
-0.769566 1.18459 4.16142 0 0 0 128 128 128 255
-0.831256 0.570586 4.09182 0 0 0 128 128 128 255
-0.762788 1.17924 4.15761 0 0 0 128 128 128 255
-0.763411 1.17331 4.15695 0 0 0 128 128 128 255
-0.782826 0.979516 4.13498 0 0 0 128 128 128 255
-0.853929 0.27555 4.05542 0 0 0 128 128 128 255
-0.795229 0.826088 4.11635 0 0 0 128 128 128 255
-0.858403 0.224095 4.04931 0 0 0 128 128 128 255
-0.758312 1.16904 4.15417 0 0 0 128 128 128 255
-0.7938 0.822026 4.11514 0 0 0 128 128 128 255
-0.746301 1.26581 4.16419 0 0 0 128 128 128 255
-0.848176 0.286153 4.05472 0 0 0 128 128 128 255
-0.801421 0.588694 4.08279 0 0 0 128 128 128 255
-0.828891 0.29987 4.04963 0 0 0 128 128 128 255
-0.78044 0.752538 4.09972 0 0 0 128 128 128 255
-0.759156 0.937262 4.11965 0 0 0 128 128 128 255
-0.765956 0.836181 4.10714 0 0 0 128 128 128 255
-0.793432 0.565269 4.07667 0 0 0 128 128 128 255
-0.710279 1.32121 4.15965 0 0 0 128 128 128 255
-0.722727 1.20259 4.14644 0 0 0 128 128 128 255
-0.721032 1.20048 4.14562 0 0 0 128 128 128 255
-0.76674 0.746625 4.09449 0 0 0 128 128 128 255
-0.814749 0.279988 4.04224 0 0 0 128 128 128 255
-0.741284 0.970877 4.1189 0 0 0 128 128 128 255
-0.740018 0.973775 4.11894 0 0 0 128 128 128 255
-0.812713 0.271875 4.0405 0 0 0 128 128 128 255
-0.76964 0.673135 4.08491 0 0 0 128 128 128 255
-0.810511 0.283668 4.04154 0 0 0 128 128 128 255
-0.769385 0.65718 4.08259 0 0 0 128 128 128 255
-0.714069 1.17508 4.14 0 0 0 128 128 128 255
-0.714484 1.17113 4.13956 0 0 0 128 128 128 255
-0.699598 1.29455 4.15277 0 0 0 128 128 128 255
-0.697807 1.30239 4.15339 0 0 0 128 128 128 255
-0.697157 1.29935 4.15279 0 0 0 128 128 128 255
-0.73317 0.928447 4.11073 0 0 0 128 128 128 255
-0.735359 0.879792 4.10457 0 0 0 128 128 128 255
-0.703896 1.17034 4.13669 0 0 0 128 128 128 255
-0.731838 0.885501 4.10449 0 0 0 128 128 128 255
-0.688858 1.28577 4.14883 0 0 0 128 128 128 255
-0.787507 0.317805 4.04035 0 0 0 128 128 128 255
-0.722534 0.92763 4.10804 0 0 0 128 128 128 255
-0.729588 0.860412 4.10056 0 0 0 128 128 128 255
-0.740575 0.727724 4.08512 0 0 0 128 128 128 255
-0.742923 0.696015 4.08138 0 0 0 128 128 128 255
-0.785142 0.293698 4.03658 0 0 0 128 128 128 255
-0.712969 0.962753 4.11067 0 0 0 128 128 128 255
-0.739629 0.70871 4.08237 0 0 0 128 128 128 255
-0.743259 0.674113 4.07852 0 0 0 128 128 128 255
-0.721831 0.840853 4.09628 0 0 0 128 128 128 255
-0.735109 0.714326 4.08219 0 0 0 128 128 128 255
-0.671893 1.30734 4.14804 0 0 0 128 128 128 255
-0.709548 0.94852 4.10808 0 0 0 128 128 128 255
-0.714735 0.899095 4.10257 0 0 0 128 128 128 255
-0.681602 1.20545 4.1365 0 0 0 128 128 128 255
-0.72268 0.814004 4.0929 0 0 0 128 128 128 255
-0.78046 0.263413 4.03159 0 0 0 128 128 128 255
-0.740955 0.621087 4.07104 0 0 0 128 128 128 255
-0.739473 0.607005 4.06892 0 0 0 128 128 128 255
-0.738183 0.609888 4.06906 0 0 0 128 128 128 255
-0.772266 0.275695 4.03167 0 0 0 128 128 128 255
-0.73446 0.626528 4.07057 0 0 0 128 128 128 255
-0.693958 1.00306 4.11233 0 0 0 128 128 128 255
-0.767401 0.303208 4.03439 0 0 0 128 128 128 255
-0.760508 0.359469 4.04049 0 0 0 128 128 128 255
-0.729548 0.64506 4.07213 0 0 0 128 128 128 255
-0.69113 0.963921 4.10685 0 0 0 128 128 128 255
-0.696213 0.915485 4.10145 0 0 0 128 128 128 255
-0.666811 1.14834 4.12666 0 0 0 128 128 128 255
-0.68237 0.962153 4.10539 0 0 0 128 128 128 255
-0.698136 0.792944 4.08629 0 0 0 128 128 128 255
-0.696571 0.769852 4.08324 0 0 0 128 128 128 255
-0.697401 0.761944 4.08236 0 0 0 128 128 128 255
-0.736716 0.387304 4.04064 0 0 0 128 128 128 255
-0.652374 1.17199 4.1278 0 0 0 128 128 128 255
-0.723847 0.490916 4.05196 0 0 0 128 128 128 255
-0.676274 0.915695 4.09895 0 0 0 128 128 128 255
-0.697747 0.711077 4.07616 0 0 0 128 128 128 255
-0.671653 0.950201 4.10269 0 0 0 128 128 128 255
-0.694579 0.731744 4.07836 0 0 0 128 128 128 255
-0.72352 0.455954 4.04765 0 0 0 128 128 128 255
-0.688609 0.7791 4.08354 0 0 0 128 128 128 255
-0.695861 0.690939 4.07353 0 0 0 128 128 128 255
-0.630083 1.29868 4.14104 0 0 0 128 128 128 255
-0.735684 0.29239 4.02897 0 0 0 128 128 128 255
-0.723905 0.3951 4.04033 0 0 0 128 128 128 255
-0.721092 0.40282 4.04102 0 0 0 128 128 128 255
-0.646138 1.10752 4.11943 0 0 0 128 128 128 255
-0.691101 0.669524 4.07057 0 0 0 128 128 128 255
-0.692968 0.651732 4.06859 0 0 0 128 128 128 255
-0.728134 0.316632 4.03127 0 0 0 128 128 128 255
-0.684137 0.716782 4.0757 0 0 0 128 128 128 255
-0.731025 0.269982 4.02594 0 0 0 128 128 128 255
-0.711153 0.449793 4.0459 0 0 0 128 128 128 255
-0.630433 1.19987 4.1293 0 0 0 128 128 128 255
-0.630537 1.19888 4.12919 0 0 0 128 128 128 255
-0.633634 1.15025 4.12366 0 0 0 128 128 128 255
-0.687887 0.633268 4.06609 0 0 0 128 128 128 255
-0.724489 0.265354 4.02501 0 0 0 128 128 128 255
-0.671449 0.732519 4.07685 0 0 0 128 128 128 255
-0.631451 1.10409 4.1182 0 0 0 128 128 128 255
-0.69778 0.462463 4.0467 0 0 0 128 128 128 255
-0.623282 1.15322 4.12357 0 0 0 128 128 128 255
-0.710816 0.29995 4.02849 0 0 0 128 128 128 255
-0.602872 1.31899 4.14195 0 0 0 128 128 128 255
-0.626091 1.07858 4.11514 0 0 0 128 128 128 255
-0.703007 0.288162 4.02705 0 0 0 128 128 128 255
-0.63115 0.896242 4.09484 0 0 0 128 128 128 255
-0.581591 1.33976 4.1443 0 0 0 128 128 128 255
-0.622566 0.949305 4.10082 0 0 0 128 128 128 255
-0.630035 0.878133 4.09289 0 0 0 128 128 128 255
-0.646839 0.717997 4.07506 0 0 0 128 128 128 255
-0.693727 0.271198 4.0253 0 0 0 128 128 128 255
-0.596805 1.15646 4.12401 0 0 0 128 128 128 255
-0.64301 0.70659 4.07395 0 0 0 128 128 128 255
-0.612556 0.987215 4.10525 0 0 0 128 128 128 255
-0.630027 0.811155 4.08568 0 0 0 128 128 128 255
-0.665236 0.466063 4.0473 0 0 0 128 128 128 255
-0.667 0.449259 4.04542 0 0 0 128 128 128 255
-0.593289 1.14208 4.12263 0 0 0 128 128 128 255
-0.68167 0.299888 4.02884 0 0 0 128 128 128 255
-0.620096 0.87706 4.09316 0 0 0 128 128 128 255
-0.611471 0.940106 4.10029 0 0 0 128 128 128 255
-0.637034 0.686942 4.07216 0 0 0 128 128 128 255
-0.622867 0.812371 4.08619 0 0 0 128 128 128 255
-0.585405 1.15022 4.12394 0 0 0 128 128 128 255
-0.636338 0.664865 4.06989 0 0 0 128 128 128 255
-0.609931 0.906936 4.09692 0 0 0 128 128 128 255
-0.643897 0.573703 4.05988 0 0 0 128 128 128 255
-0.611889 0.869152 4.09285 0 0 0 128 128 128 255
-0.563744 1.30881 4.14197 0 0 0 128 128 128 255
-0.640403 0.578312 4.06062 0 0 0 128 128 128 255
-0.640507 0.577323 4.06051 0 0 0 128 128 128 255
-0.611819 0.841139 4.08997 0 0 0 128 128 128 255
-0.670947 0.277698 4.02722 0 0 0 128 128 128 255
-0.647699 0.480115 4.04994 0 0 0 128 128 128 255
-0.611486 0.806093 4.08642 0 0 0 128 128 128 255
-0.650991 0.39146 4.04063 0 0 0 128 128 128 255
-0.552589 1.30053 4.14219 0 0 0 128 128 128 255
-0.626862 0.59277 4.06337 0 0 0 128 128 128 255
-0.644857 0.411761 4.04333 0 0 0 128 128 128 255
-0.619022 0.638884 4.06885 0 0 0 128 128 128 255
-0.586811 0.936306 4.10209 0 0 0 128 128 128 255
-0.651748 0.317508 4.03318 0 0 0 128 128 128 255
-0.616992 0.610627 4.06633 0 0 0 128 128 128 255
-0.636909 0.420836 4.04519 0 0 0 128 128 128 255
-0.632915 0.449386 4.0485 0 0 0 128 128 128 255
-0.576743 0.975147 4.10719 0 0 0 128 128 128 255
-0.650082 0.276282 4.02936 0 0 0 128 128 128 255
-0.626899 0.468686 4.0512 0 0 0 128 128 128 255
-0.635717 0.384664 4.04185 0 0 0 128 128 128 255
-0.638621 0.356986 4.03876 0 0 0 128 128 128 255
-0.648061 0.267033 4.02875 0 0 0 128 128 128 255
-0.633185 0.361337 4.04 0 0 0 128 128 128 255
-0.638842 0.297954 4.0331 0 0 0 128 128 128 255
-0.52957 1.3108 4.14638 0 0 0 128 128 128 255
-0.514746 1.43313 4.16034 0 0 0 128 128 128 255
-0.514446 1.41708 4.1589 0 0 0 128 128 128 255
-0.567305 0.903928 4.10193 0 0 0 128 128 128 255
-0.564044 0.925553 4.10452 0 0 0 128 128 128 255
-0.563066 0.925432 4.10469 0 0 0 128 128 128 255
-0.608535 0.454421 4.05299 0 0 0 128 128 128 255
-0.610133 0.401539 4.04789 0 0 0 128 128 128 255
-0.618392 0.313439 4.03829 0 0 0 128 128 128 255
-0.579102 0.66905 4.07831 0 0 0 128 128 128 255
-0.619727 0.272539 4.03436 0 0 0 128 128 128 255
-0.62066 0.263643 4.03337 0 0 0 128 128 128 255
-0.548557 0.922595 4.10741 0 0 0 128 128 128 255
-0.579329 0.619991 4.07393 0 0 0 128 128 128 255
-0.596445 0.456889 4.05577 0 0 0 128 128 128 255
-0.606507 0.361005 4.04509 0 0 0 128 128 128 255
-0.561727 0.769002 4.09098 0 0 0 128 128 128 255
-0.5721 0.670153 4.07997 0 0 0 128 128 128 255
-0.49309 1.40435 4.1622 0 0 0 128 128 128 255
-0.570683 0.664959 4.07985 0 0 0 128 128 128 255
-0.599106 0.394112 4.04969 0 0 0 128 128 128 255
-0.518406 1.1351 4.13292 0 0 0 128 128 128 255
-0.591299 0.431169 4.05477 0 0 0 128 128 128 255
-0.592409 0.411272 4.0528 0 0 0 128 128 128 255
-0.554931 0.759095 4.09178 0 0 0 128 128 128 255
-0.602515 0.296352 4.0405 0 0 0 128 128 128 255
-0.604279 0.279548 4.03863 0 0 0 128 128 128 255
-0.566046 0.625265 4.07764 0 0 0 128 128 128 255
-0.586275 0.432509 4.05617 0 0 0 128 128 128 255
-0.551261 0.747583 4.09177 0 0 0 128 128 128 255
-0.565991 0.607216 4.07614 0 0 0 128 128 128 255
-0.557024 0.637086 4.08108 0 0 0 128 128 128 255
-0.510114 1.07486 4.13011 0 0 0 128 128 128 255
-0.57391 0.466936 4.06241 0 0 0 128 128 128 255
-0.582892 0.362884 4.05138 0 0 0 128 128 128 255
-0.470245 1.39027 4.16724 0 0 0 128 128 128 255
-0.569933 0.440322 4.06145 0 0 0 128 128 128 255
-0.571991 0.411525 4.05854 0 0 0 128 128 128 255
-0.534009 0.764286 4.09812 0 0 0 128 128 128 255
-0.583905 0.28882 4.04517 0 0 0 128 128 128 255
-0.46344 1.41841 4.17158 0 0 0 128 128 128 255
-0.497969 1.08021 4.13422 0 0 0 128 128 128 255
-0.501794 1.03461 4.12945 0 0 0 128 128 128 255
-0.514554 0.913022 4.11591 0 0 0 128 128 128 255
-0.568794 0.38701 4.05764 0 0 0 128 128 128 255
-0.499074 1.04225 4.13092 0 0 0 128 128 128 255
-0.521563 0.809688 4.10566 0 0 0 128 128 128 255
-0.509832 0.912358 4.11741 0 0 0 128 128 128 255
-0.529438 0.725533 4.09661 0 0 0 128 128 128 255
-0.571324 0.299092 4.05009 0 0 0 128 128 128 255
-0.562916 0.37013 4.05833 0 0 0 128 128 128 255
-0.554093 0.445121 4.06702 0 0 0 128 128 128 255
-0.544745 0.488931 4.0736 0 0 0 128 128 128 255
-0.516633 0.747782 4.10277 0 0 0 128 128 128 255
-0.500037 0.89691 4.11973 0 0 0 128 128 128 255
-0.553771 0.384869 4.06271 0 0 0 128 128 128 255
-0.454813 1.30983 4.16642 0 0 0 128 128 128 255
-0.480024 1.06059 4.13902 0 0 0 128 128 128 255
-0.5459 0.423867 4.06847 0 0 0 128 128 128 255
-0.53928 0.460033 4.07359 0 0 0 128 128 128 255
-0.48182 0.998626 4.13394 0 0 0 128 128 128 255
-0.551963 0.312337 4.05826 0 0 0 128 128 128 255
-0.556423 0.269832 4.05352 0 0 0 128 128 128 255
-0.556734 0.266866 4.05319 0 0 0 128 128 128 255
-0.514733 0.658173 4.09715 0 0 0 128 128 128 255
-0.516289 0.643346 4.0955 0 0 0 128 128 128 255
-0.503646 0.754909 4.1083 0 0 0 128 128 128 255
-0.475976 1.00077 4.13644 0 0 0 128 128 128 255
-0.538112 0.408661 4.0705 0 0 0 128 128 128 255
-0.484114 0.896564 4.126 0 0 0 128 128 128 255
-0.532247 0.437902 4.07492 0 0 0 128 128 128 255
-0.532783 0.423925 4.07376 0 0 0 128 128 128 255
-0.471391 1.00008 4.13832 0 0 0 128 128 128 255
-0.49658 0.724723 4.10925 0 0 0 128 128 128 255
-0.542326 0.288797 4.06071 0 0 0 128 128 128 255
-0.537007 0.313092 4.06464 0 0 0 128 128 128 255
-0.540949 0.275529 4.06045 0 0 0 128 128 128 255
-0.527414 0.38695 4.07369 0 0 0 128 128 128 255
-0.525265 0.398672 4.07542 0 0 0 128 128 128 255
-0.498116 0.648621 4.10367 0 0 0 128 128 128 255
-0.41848 1.39875 4.18763 0 0 0 128 128 128 255
-0.50209 0.602022 4.0989 0 0 0 128 128 128 255
-0.521657 0.398112 4.07705 0 0 0 128 128 128 255
-0.515778 0.445419 4.08275 0 0 0 128 128 128 255
-0.519098 0.413787 4.07922 0 0 0 128 128 128 255
-0.455581 1.00166 4.14556 0 0 0 128 128 128 255
-0.491369 0.660629 4.10758 0 0 0 128 128 128 255
-0.497593 0.60132 4.10097 0 0 0 128 128 128 255
-0.515746 0.428333 4.08171 0 0 0 128 128 128 255
-0.50873 0.486513 4.08863 0 0 0 128 128 128 255
-0.509663 0.477617 4.08764 0 0 0 128 128 128 255
-0.458665 0.954919 4.14123 0 0 0 128 128 128 255
-0.466134 0.883747 4.1333 0 0 0 128 128 128 255
-0.490408 0.652439 4.10754 0 0 0 128 128 128 255
-0.495179 0.606969 4.10248 0 0 0 128 128 128 255
-0.496464 0.586069 4.10059 0 0 0 128 128 128 255
-0.507092 0.415902 4.08525 0 0 0 128 128 128 255
-0.512486 0.364501 4.07953 0 0 0 128 128 128 255
-0.449433 0.897145 4.14261 0 0 0 128 128 128 255
-0.497461 0.439472 4.09164 0 0 0 128 128 128 255
-0.454117 0.835571 4.13671 0 0 0 128 128 128 255
-0.491834 0.467708 4.09623 0 0 0 128 128 128 255
-0.497874 0.393283 4.08891 0 0 0 128 128 128 255
-0.456965 0.774698 4.13188 0 0 0 128 128 128 255
-0.506305 0.296122 4.07908 0 0 0 128 128 128 255
-0.449319 0.830754 4.13911 0 0 0 128 128 128 255
-0.387913 1.3908 4.20298 0 0 0 128 128 128 255
-0.50562 0.260803 4.07764 0 0 0 128 128 128 255
-0.443944 0.831863 4.14226 0 0 0 128 128 128 255
-0.438419 0.8762 4.1477 0 0 0 128 128 128 255
-0.421084 1.00002 4.16408 0 0 0 128 128 128 255
-0.486021 0.381226 4.09517 0 0 0 128 128 128 255
-0.427289 0.93266 4.1571 0 0 0 128 128 128 255
-0.444094 0.772524 4.13927 0 0 0 128 128 128 255
-0.487125 0.354245 4.09321 0 0 0 128 128 128 255
-0.472648 0.45943 4.10705 0 0 0 128 128 128 255
-0.480013 0.389247 4.09924 0 0 0 128 128 128 255
-0.428428 0.856366 4.15288 0 0 0 128 128 128 255
-0.467536 0.483703 4.11137 0 0 0 128 128 128 255
-0.45508 0.594268 4.12423 0 0 0 128 128 128 255
-0.472294 0.422124 4.10561 0 0 0 128 128 128 255
-0.476029 0.386538 4.10164 0 0 0 128 128 128 255
-0.486195 0.289665 4.09086 0 0 0 128 128 128 255
-0.369072 1.38957 4.21444 0 0 0 128 128 128 255
-0.42986 0.810308 4.14993 0 0 0 128 128 128 255
-0.447495 0.642264 4.13122 0 0 0 128 128 128 255
-0.472391 0.405026 4.1048 0 0 0 128 128 128 255
-0.488055 0.255763 4.08818 0 0 0 128 128 128 255
-0.366062 1.41018 4.21729 0 0 0 128 128 128 255
-0.481933 0.306029 4.09433 0 0 0 128 128 128 255
-0.367929 1.38433 4.21497 0 0 0 128 128 128 255
-0.451642 0.586615 4.12613 0 0 0 128 128 128 255
-0.400399 1.06688 4.18017 0 0 0 128 128 128 255
-0.46482 0.444966 4.11147 0 0 0 128 128 128 255
-0.395957 1.07716 4.18356 0 0 0 128 128 128 255
-0.464646 0.406666 4.11003 0 0 0 128 128 128 255
-0.446815 0.568631 4.12864 0 0 0 128 128 128 255
-0.390085 1.10128 4.18853 0 0 0 128 128 128 255
-0.434068 0.68216 4.14185 0 0 0 128 128 128 255
-0.476302 0.271787 4.09673 0 0 0 128 128 128 255
-0.361692 1.35602 4.21805 0 0 0 128 128 128 255
-0.383804 1.13741 4.19428 0 0 0 128 128 128 255
-0.43121 0.68567 4.14398 0 0 0 128 128 128 255
-0.463282 0.372169 4.10964 0 0 0 128 128 128 255
-0.408842 0.883073 4.16713 0 0 0 128 128 128 255
-0.414547 0.828706 4.16107 0 0 0 128 128 128 255
-0.431663 0.665604 4.14291 0 0 0 128 128 128 255
-0.461767 0.370884 4.11067 0 0 0 128 128 128 255
-0.405358 0.900569 4.17025 0 0 0 128 128 128 255
-0.370554 1.21659 4.20662 0 0 0 128 128 128 255
-0.471487 0.254785 4.09951 0 0 0 128 128 128 255
-0.404738 0.875263 4.1698 0 0 0 128 128 128 255
-0.450381 0.440325 4.12136 0 0 0 128 128 128 255
-0.451937 0.425498 4.11971 0 0 0 128 128 128 255
-0.376034 1.14102 4.2 0 0 0 128 128 128 255
-0.459747 0.343304 4.11116 0 0 0 128 128 128 255
-0.435227 0.561464 4.13666 0 0 0 128 128 128 255
-0.466451 0.263927 4.10352 0 0 0 128 128 128 255
-0.457431 0.326744 4.11234 0 0 0 128 128 128 255
-0.371071 1.10379 4.20256 0 0 0 128 128 128 255
-0.43995 0.447433 4.12947 0 0 0 128 128 128 255
-0.457689 0.2784 4.11064 0 0 0 128 128 128 255
-0.413236 0.694407 4.1576 0 0 0 128 128 128 255
-0.411786 0.677993 4.15828 0 0 0 128 128 128 255
-0.390162 0.87653 4.18102 0 0 0 128 128 128 255
-0.405053 0.727118 4.16502 0 0 0 128 128 128 255
-0.435008 0.419246 4.13265 0 0 0 128 128 128 255
-0.43694 0.393395 4.13041 0 0 0 128 128 128 255
-0.349144 1.22259 4.2234 0 0 0 128 128 128 255
-0.424662 0.502968 4.14326 0 0 0 128 128 128 255
-0.433375 0.419935 4.13401 0 0 0 128 128 128 255
-0.44475 0.304131 4.12176 0 0 0 128 128 128 255
-0.340949 1.27849 4.23157 0 0 0 128 128 128 255
-0.385451 0.854422 4.18434 0 0 0 128 128 128 255
-0.399144 0.72394 4.16981 0 0 0 128 128 128 255
-0.343407 1.24769 4.22879 0 0 0 128 128 128 255
-0.44517 0.277979 4.1208 0 0 0 128 128 128 255
-0.354373 1.13584 4.21699 0 0 0 128 128 128 255
-0.356109 1.11197 4.21498 0 0 0 128 128 128 255
-0.422706 0.477354 4.14431 0 0 0 128 128 128 255
-0.402348 0.66403 4.16576 0 0 0 128 128 128 255
-0.419153 0.503893 4.14792 0 0 0 128 128 128 255
-0.444775 0.259735 4.12073 0 0 0 128 128 128 255
-0.329191 1.35385 4.24324 0 0 0 128 128 128 255
-0.395995 0.717258 4.17235 0 0 0 128 128 128 255
-0.403983 0.641144 4.16387 0 0 0 128 128 128 255
-0.404146 0.625027 4.1634 0 0 0 128 128 128 255
-0.422714 0.448086 4.14369 0 0 0 128 128 128 255
-0.358435 1.03168 4.21136 0 0 0 128 128 128 255
-0.335683 1.22695 4.23513 0 0 0 128 128 128 255
-0.396782 0.644731 4.17029 0 0 0 128 128 128 255
-0.427065 0.34902 4.13804 0 0 0 128 128 128 255
-0.372391 0.862886 4.19595 0 0 0 128 128 128 255
-0.37654 0.823347 4.19155 0 0 0 128 128 128 255
-0.377988 0.802437 4.1899 0 0 0 128 128 128 255
-0.390851 0.679864 4.17625 0 0 0 128 128 128 255
-0.330164 1.25106 4.24055 0 0 0 128 128 128 255
-0.379956 0.776586 4.18771 0 0 0 128 128 128 255
-0.417507 0.411681 4.14775 0 0 0 128 128 128 255
-0.339295 1.14286 4.23056 0 0 0 128 128 128 255
-0.408278 0.485516 4.15735 0 0 0 128 128 128 255
-0.307874 1.42824 4.26373 0 0 0 128 128 128 255
-0.350301 1.02394 4.2187 0 0 0 128 128 128 255
-0.379865 0.742222 4.18733 0 0 0 128 128 128 255
-0.429346 0.27071 4.13482 0 0 0 128 128 128 255
-0.330288 1.20765 4.23986 0 0 0 128 128 128 255
-0.361313 0.905022 4.20685 0 0 0 128 128 128 255
-0.348877 1.01657 4.21997 0 0 0 128 128 128 255
-0.331981 1.17062 4.23783 0 0 0 128 128 128 255
-0.347157 1.01216 4.22159 0 0 0 128 128 128 255
-0.370705 0.787775 4.1966 0 0 0 128 128 128 255
-0.420393 0.314286 4.14387 0 0 0 128 128 128 255
-0.423298 0.286609 4.14079 0 0 0 128 128 128 255
-0.40961 0.382725 4.15505 0 0 0 128 128 128 255
-0.319804 1.23169 4.25031 0 0 0 128 128 128 255
-0.39939 0.446221 4.16572 0 0 0 128 128 128 255
-0.356104 0.84527 4.21161 0 0 0 128 128 128 255
-0.325688 1.12175 4.24386 0 0 0 128 128 128 255
-0.32044 1.16509 4.24941 0 0 0 128 128 128 255
-0.356217 0.810905 4.21144 0 0 0 128 128 128 255
-0.397449 0.411402 4.16769 0 0 0 128 128 128 255
-0.312387 1.20881 4.25797 0 0 0 128 128 128 255
-0.387801 0.490179 4.17794 0 0 0 128 128 128 255
-0.313282 1.18068 4.25707 0 0 0 128 128 128 255
-0.39052 0.438173 4.17512 0 0 0 128 128 128 255
-0.391576 0.3959 4.17418 0 0 0 128 128 128 255
-0.390714 0.397726 4.17514 0 0 0 128 128 128 255
-0.356847 0.682494 4.21143 0 0 0 128 128 128 255
-0.359612 0.64364 4.20865 0 0 0 128 128 128 255
-0.389044 0.350744 4.17757 0 0 0 128 128 128 255
-0.305009 1.14534 4.26684 0 0 0 128 128 128 255
-0.355304 0.653759 4.21365 0 0 0 128 128 128 255
-0.354157 0.65855 4.21497 0 0 0 128 128 128 255
-0.37034 0.504345 4.19779 0 0 0 128 128 128 255
-0.299174 1.17029 4.27352 0 0 0 128 128 128 255
-0.364422 0.548526 4.20428 0 0 0 128 128 128 255
-0.380816 0.38018 4.1871 0 0 0 128 128 128 255
-0.38704 0.32087 4.1805 0 0 0 128 128 128 255
-0.377397 0.406719 4.19085 0 0 0 128 128 128 255
-0.331496 0.814213 4.24019 0 0 0 128 128 128 255
-0.360333 0.509993 4.21032 0 0 0 128 128 128 255
-0.329994 0.787459 4.24283 0 0 0 128 128 128 255
-0.335596 0.73408 4.23689 0 0 0 128 128 128 255
-0.329507 0.786321 4.24352 0 0 0 128 128 128 255
-0.377224 0.331613 4.19288 0 0 0 128 128 128 255
-0.370618 0.388796 4.20006 0 0 0 128 128 128 255
-0.336314 0.681478 4.23754 0 0 0 128 128 128 255
-0.362455 0.432377 4.2098 0 0 0 128 128 128 255
-0.355655 0.491537 4.21721 0 0 0 128 128 128 255
-0.364991 0.402572 4.2073 0 0 0 128 128 128 255
-0.349635 0.537697 4.224 0 0 0 128 128 128 255
-0.351502 0.519904 4.22202 0 0 0 128 128 128 255
-0.321321 0.796382 4.25446 0 0 0 128 128 128 255
-0.355818 0.462122 4.21806 0 0 0 128 128 128 255
-0.367021 0.355365 4.20617 0 0 0 128 128 128 255
-0.355757 0.440765 4.21901 0 0 0 128 128 128 255
-0.371317 0.292491 4.2025 0 0 0 128 128 128 255
-0.362671 0.369444 4.2119 0 0 0 128 128 128 255
-0.366206 0.319572 4.20886 0 0 0 128 128 128 255
-0.313586 0.815647 4.26495 0 0 0 128 128 128 255
-0.324556 0.705775 4.25355 0 0 0 128 128 128 255
-0.313019 0.810407 4.26605 0 0 0 128 128 128 255
-0.354201 0.417974 4.22235 0 0 0 128 128 128 255
-0.347211 0.474021 4.23028 0 0 0 128 128 128 255
-0.302121 0.872481 4.27976 0 0 0 128 128 128 255
-0.344646 0.451926 4.2355 0 0 0 128 128 128 255
-0.349543 0.385105 4.23151 0 0 0 128 128 128 255
-0.345833 0.41051 4.23607 0 0 0 128 128 128 255
-0.31421 0.706911 4.26994 0 0 0 128 128 128 255
-0.333645 0.511882 4.24996 0 0 0 128 128 128 255
-0.351488 0.341861 4.23103 0 0 0 128 128 128 255
-0.346996 0.370086 4.23679 0 0 0 128 128 128 255
-0.339758 0.419911 4.24585 0 0 0 128 128 128 255
-0.297096 0.816992 4.29183 0 0 0 128 128 128 255
-0.328009 0.522421 4.25903 0 0 0 128 128 128 255
-0.299524 0.789168 4.28962 0 0 0 128 128 128 255
-0.341328 0.390805 4.24525 0 0 0 128 128 128 255
-0.30963 0.688195 4.27926 0 0 0 128 128 128 255
-0.320153 0.583268 4.26846 0 0 0 128 128 128 255
-0.326792 0.501627 4.26292 0 0 0 128 128 128 255
-0.342248 0.354342 4.24652 0 0 0 128 128 128 255
-0.344945 0.328641 4.24365 0 0 0 128 128 128 255
-0.328197 0.483688 4.26181 0 0 0 128 128 128 255
-0.321579 0.511192 4.27205 0 0 0 128 128 128 255
-0.296449 0.746308 4.29913 0 0 0 128 128 128 255
-0.304541 0.669206 4.29055 0 0 0 128 128 128 255
-0.291361 0.769165 4.30711 0 0 0 128 128 128 255
-0.298806 0.685699 4.30055 0 0 0 128 128 128 255
-0.332312 0.366416 4.26499 0 0 0 128 128 128 255
-0.285006 0.804876 4.31656 0 0 0 128 128 128 255
-0.327338 0.393376 4.27257 0 0 0 128 128 128 255
-0.330139 0.366687 4.2696 0 0 0 128 128 128 255
-0.299349 0.652075 4.30322 0 0 0 128 128 128 255
-0.284231 0.788202 4.32022 0 0 0 128 128 128 255
-0.289625 0.7368 4.3145 0 0 0 128 128 128 255
-0.279911 0.821525 4.32578 0 0 0 128 128 128 255
-0.290803 0.717733 4.31422 0 0 0 128 128 128 255
-0.318397 0.454794 4.28493 0 0 0 128 128 128 255
-0.319974 0.43587 4.28375 0 0 0 128 128 128 255
-0.325783 0.380514 4.27759 0 0 0 128 128 128 255
-0.28486 0.762777 4.32201 0 0 0 128 128 128 255
-0.322826 0.400988 4.28172 0 0 0 128 128 128 255
-0.329361 0.338713 4.27478 0 0 0 128 128 128 255
-0.282295 0.783394 4.32523 0 0 0 128 128 128 255
-0.326901 0.358341 4.2779 0 0 0 128 128 128 255
-0.292289 0.673104 4.31667 0 0 0 128 128 128 255
-0.293637 0.660254 4.31524 0 0 0 128 128 128 255
-0.314249 0.44914 4.29546 0 0 0 128 128 128 255
-0.316324 0.42937 4.29326 0 0 0 128 128 128 255
-0.276867 0.787491 4.33783 0 0 0 128 128 128 255
-0.289523 0.666894 4.3244 0 0 0 128 128 128 255
-0.289149 0.643043 4.32929 0 0 0 128 128 128 255
-0.311153 0.416973 4.30887 0 0 0 128 128 128 255
-0.286125 0.633478 4.33966 0 0 0 128 128 128 255
