ply
format ascii 1.0
comment VCGLIB generated
element vertex 448
property float x
property float y
property float z
property float nx
property float ny
property float nz
property uchar red
property uchar green
property uchar blue
property uchar alpha
element face 0
property list uchar int vertex_indices
end_header
2.67062 0.792027 4.02499 0 0 0 128 128 0 255
2.67598 0.334072 4.02896 0 0 0 128 128 0 255
2.6752 0.351136 4.04587 0 0 0 128 128 0 255
2.66439 0.353305 4.11491 0 0 0 128 128 0 255
1.95464 0.902868 4.08197 0 0 0 128 128 0 255
1.95328 0.6036 4.02852 0 0 0 128 128 0 255
1.95358 0.575576 4.02264 0 0 0 128 128 0 255
1.9537 0.571551 4.01666 0 0 0 128 128 0 255
1.95062 0.842514 4.0115 0 0 0 128 128 0 255
1.95739 0.269555 4.01295 0 0 0 128 128 0 255
1.95377 0.595511 4.00656 0 0 0 128 128 0 255
1.95685 0.337527 4.00667 0 0 0 128 128 0 255
1.95133 0.811487 4.00364 0 0 0 128 128 0 255
1.95127 0.821482 4.0026 0 0 0 128 128 0 255
1.9521 0.76148 4.00086 0 0 0 128 128 0 255
1.95524 0.499497 4.00098 0 0 0 128 128 0 255
1.95122 0.859458 3.99645 0 0 0 128 128 0 255
1.95134 0.868447 3.99342 0 0 0 128 128 0 255
1.95477 0.591462 3.99261 0 0 0 128 128 0 255
1.9575 0.475432 3.98018 0 0 0 128 128 0 255
1.95676 0.549424 3.97887 0 0 0 128 128 0 255
1.95834 0.471416 3.97425 0 0 0 128 128 0 255
1.95891 0.498399 3.9682 0 0 0 128 128 0 255
1.96084 0.361405 3.96681 0 0 0 128 128 0 255
1.96225 0.374385 3.9579 0 0 0 128 128 0 255
1.96205 0.40738 3.95677 0 0 0 128 128 0 255
1.95768 0.934322 3.9457 0 0 0 128 128 0 255
1.96491 0.337367 3.94728 0 0 0 128 128 0 255
1.96518 0.389357 3.94316 0 0 0 128 128 0 255
1.96224 0.659334 3.94103 0 0 0 128 128 0 255
1.9598 0.926309 3.93697 0 0 0 128 128 0 255
1.95993 0.91531 3.93701 0 0 0 128 128 0 255
1.96719 0.380347 3.93543 0 0 0 128 128 0 255
1.96591 0.532333 3.93284 0 0 0 128 128 0 255
1.968 0.376344 3.93254 0 0 0 128 128 0 255
1.97016 0.214355 3.93227 0 0 0 128 128 0 255
1.96841 0.385341 3.93057 0 0 0 128 128 0 255
1.96859 0.415336 3.92851 0 0 0 128 128 0 255
1.96879 0.444332 3.92647 0 0 0 128 128 0 255
1.96859 0.508325 3.92427 0 0 0 128 128 0 255
1.97131 0.373333 3.92101 0 0 0 128 128 0 255
1.97388 0.229342 3.91876 0 0 0 128 128 0 255
1.9751 0.362328 3.90963 0 0 0 128 128 0 255
1.97634 0.511315 3.90051 0 0 0 128 128 0 255
1.97783 0.657305 3.89147 0 0 0 128 128 0 255
1.9807 0.47632 3.89039 0 0 0 128 128 0 255
1.98292 0.548319 3.88269 0 0 0 128 128 0 255
1.98695 0.91831 3.86295 0 0 0 128 128 0 255
2.00609 0.171407 3.84675 0 0 0 128 128 0 255
2.04523 1.20563 3.77353 0 0 0 128 128 0 255
2.05192 1.17068 3.76724 0 0 0 128 128 0 255
2.05336 1.04769 3.76777 0 0 0 128 128 0 255
2.06157 1.08376 3.75927 0 0 0 128 128 0 255
2.06775 0.557797 3.76152 0 0 0 128 128 0 255
2.0727 0.385833 3.75954 0 0 0 128 128 0 255
2.07647 0.508865 3.75434 0 0 0 128 128 0 255
2.07929 0.396885 3.7535 0 0 0 128 128 0 255
2.08003 0.397891 3.75284 0 0 0 128 128 0 255
2.0828 0.550916 3.7483 0 0 0 128 128 0 255
2.08789 0.445956 3.74557 0 0 0 128 128 0 255
2.09438 0.42701 3.74067 0 0 0 128 128 0 255
2.08779 1.05497 3.73737 0 0 0 128 128 0 255
2.10087 0.554068 3.7341 0 0 0 128 128 0 255
2.10359 0.391088 3.73421 0 0 0 128 128 0 255
2.10415 0.412093 3.73353 0 0 0 128 128 0 255
2.10361 0.527091 3.73246 0 0 0 128 128 0 255
2.10488 0.4191 3.73292 0 0 0 128 128 0 255
2.10492 0.485101 3.73205 0 0 0 128 128 0 255
2.10557 0.499107 3.73141 0 0 0 128 128 0 255
2.09991 1.05007 3.72847 0 0 0 128 128 0 255
2.10696 0.450118 3.73104 0 0 0 128 128 0 255
2.10715 0.43412 3.73111 0 0 0 128 128 0 255
2.10785 0.513128 3.72962 0 0 0 128 128 0 255
2.10884 1.06215 3.7222 0 0 0 128 128 0 255
2.11684 0.381204 3.72512 0 0 0 128 128 0 255
2.10885 1.13215 3.72135 0 0 0 128 128 0 255
2.11767 0.524215 3.72286 0 0 0 128 128 0 255
2.11981 0.413231 3.72279 0 0 0 128 128 0 255
2.11312 1.05419 3.7195 0 0 0 128 128 0 255
2.12139 0.494248 3.72083 0 0 0 128 128 0 255
2.12157 0.550251 3.72005 0 0 0 128 128 0 255
2.12346 0.389263 3.72074 0 0 0 128 128 0 255
2.12338 1.04928 3.7132 0 0 0 128 128 0 255
2.13094 0.405332 3.71596 0 0 0 128 128 0 255
2.13172 0.412339 3.71542 0 0 0 128 128 0 255
2.13456 0.53837 3.71236 0 0 0 128 128 0 255
2.13497 0.503372 3.71251 0 0 0 128 128 0 255
2.13674 0.426386 3.71234 0 0 0 128 128 0 255
2.12879 1.17734 3.70863 0 0 0 128 128 0 255
2.1424 0.46544 3.70876 0 0 0 128 128 0 255
2.14865 0.383497 3.70629 0 0 0 128 128 0 255
2.14807 0.508496 3.70529 0 0 0 128 128 0 255
2.14855 0.467499 3.70546 0 0 0 128 128 0 255
2.1493 0.554509 3.70417 0 0 0 128 128 0 255
2.15023 0.551518 3.70373 0 0 0 128 128 0 255
2.15284 0.48154 3.70313 0 0 0 128 128 0 255
2.15475 0.394556 3.70305 0 0 0 128 128 0 255
2.14956 1.06553 3.69885 0 0 0 128 128 0 255
2.15021 1.08654 3.69832 0 0 0 128 128 0 255
2.15156 1.04855 3.69805 0 0 0 128 128 0 255
2.15935 0.538605 3.69937 0 0 0 128 128 0 255
2.15054 1.36555 3.6954 0 0 0 128 128 0 255
2.15436 1.04057 3.69679 0 0 0 128 128 0 255
2.17096 0.55872 3.69392 0 0 0 128 128 0 255
2.17292 0.391733 3.69463 0 0 0 128 128 0 255
2.16575 1.15869 3.69056 0 0 0 128 128 0 255
2.17323 0.521741 3.69329 0 0 0 128 128 0 255
2.18284 0.412832 3.69034 0 0 0 128 128 0 255
2.18305 0.394834 3.69041 0 0 0 128 128 0 255
2.19018 0.423907 3.68743 0 0 0 128 128 0 255
2.1906 0.38791 3.68758 0 0 0 128 128 0 255
2.19291 0.270929 3.68774 0 0 0 128 128 0 255
2.19144 0.555925 3.68583 0 0 0 128 128 0 255
2.20102 0.303013 3.6846 0 0 0 128 128 0 255
2.20252 0.256026 3.68449 0 0 0 128 128 0 255
2.1903 1.37695 3.67936 0 0 0 128 128 0 255
2.2019 0.551033 3.68228 0 0 0 128 128 0 255
2.20501 0.287053 3.68341 0 0 0 128 128 0 255
2.19678 1.068 3.67975 0 0 0 128 128 0 255
2.2062 0.266065 3.68319 0 0 0 128 128 0 255
2.19794 1.05001 3.67952 0 0 0 128 128 0 255
2.1987 1.06702 3.67915 0 0 0 128 128 0 255
2.20522 0.512065 3.68152 0 0 0 128 128 0 255
2.20773 0.298082 3.68244 0 0 0 128 128 0 255
2.20038 1.08604 3.67846 0 0 0 128 128 0 255
2.20681 0.539083 3.68081 0 0 0 128 128 0 255
2.21128 0.484127 3.67988 0 0 0 128 128 0 255
2.21395 0.257145 3.68085 0 0 0 128 128 0 255
2.20474 1.12209 3.67686 0 0 0 128 128 0 255
2.21173 0.527134 3.67941 0 0 0 128 128 0 255
2.20713 1.08211 3.67646 0 0 0 128 128 0 255
2.20714 1.08111 3.67647 0 0 0 128 128 0 255
2.20863 1.03612 3.67638 0 0 0 128 128 0 255
2.21457 0.531164 3.67855 0 0 0 128 128 0 255
2.21566 0.520175 3.67832 0 0 0 128 128 0 255
2.21586 0.503176 3.67839 0 0 0 128 128 0 255
2.21003 1.16315 3.67502 0 0 0 128 128 0 255
2.21127 1.05715 3.67548 0 0 0 128 128 0 255
2.21719 0.553193 3.67764 0 0 0 128 128 0 255
2.2186 0.433202 3.67815 0 0 0 128 128 0 255
2.22053 0.269215 3.67886 0 0 0 128 128 0 255
2.22181 0.489239 3.67686 0 0 0 128 128 0 255
2.21958 0.761228 3.67544 0 0 0 128 128 0 255
2.22518 0.284265 3.67748 0 0 0 128 128 0 255
2.22511 0.537276 3.67565 0 0 0 128 128 0 255
2.22871 0.313304 3.67636 0 0 0 128 128 0 255
2.2257 0.735292 3.67407 0 0 0 128 128 0 255
2.22706 0.702305 3.67398 0 0 0 128 128 0 255
2.22955 0.490321 3.67489 0 0 0 128 128 0 255
2.21993 1.39126 3.67079 0 0 0 128 128 0 255
2.22919 0.686327 3.67358 0 0 0 128 128 0 255
2.2257 1.06631 3.67172 0 0 0 128 128 0 255
2.23264 0.558358 3.67367 0 0 0 128 128 0 255
2.22783 1.05033 3.67134 0 0 0 128 128 0 255
2.2313 0.755353 3.6726 0 0 0 128 128 0 255
2.22855 1.23835 3.66988 0 0 0 128 128 0 255
2.23949 0.557432 3.67217 0 0 0 128 128 0 255
2.24062 0.544443 3.67202 0 0 0 128 128 0 255
2.24131 0.73546 3.6706 0 0 0 128 128 0 255
2.24752 0.290506 3.67232 0 0 0 128 128 0 255
2.24593 0.760512 3.66956 0 0 0 128 128 0 255
2.24689 0.678518 3.66991 0 0 0 128 128 0 255
2.25322 0.307569 3.67114 0 0 0 128 128 0 255
2.24512 1.08052 3.66765 0 0 0 128 128 0 255
2.24648 1.04853 3.66762 0 0 0 128 128 0 255
2.24598 1.17553 3.6669 0 0 0 128 128 0 255
2.25239 0.71358 3.66872 0 0 0 128 128 0 255
2.25328 0.721591 3.66852 0 0 0 128 128 0 255
2.2607 0.258649 3.67019 0 0 0 128 128 0 255
2.26635 0.282713 3.66919 0 0 0 128 128 0 255
2.26491 0.489708 3.66817 0 0 0 128 128 0 255
2.26397 0.653706 3.66733 0 0 0 128 128 0 255
2.26518 0.719723 3.66678 0 0 0 128 128 0 255
2.26767 0.50774 3.66769 0 0 0 128 128 0 255
2.27208 0.385782 3.66784 0 0 0 128 128 0 255
2.27166 0.505784 3.6672 0 0 0 128 128 0 255
2.27596 0.308822 3.66782 0 0 0 128 128 0 255
2.27296 0.733811 3.66577 0 0 0 128 128 0 255
2.27826 0.451856 3.66677 0 0 0 128 128 0 255
2.27847 0.518862 3.66639 0 0 0 128 128 0 255
2.27902 0.471865 3.66659 0 0 0 128 128 0 255
2.28158 0.253882 3.66752 0 0 0 128 128 0 255
2.27142 1.20282 3.66336 0 0 0 128 128 0 255
2.28081 0.403882 3.66678 0 0 0 128 128 0 255
2.28221 0.284891 3.66729 0 0 0 128 128 0 255
2.28439 0.268915 3.66717 0 0 0 128 128 0 255
2.28224 0.536905 3.66594 0 0 0 128 128 0 255
2.28302 0.554915 3.66577 0 0 0 128 128 0 255
2.28337 0.524918 3.6659 0 0 0 128 128 0 255
2.28495 0.390928 3.66648 0 0 0 128 128 0 255
2.28547 0.430936 3.66622 0 0 0 128 128 0 255
2.28591 0.393939 3.66638 0 0 0 128 128 0 255
2.27889 1.0759 3.66337 0 0 0 128 128 0 255
2.28705 0.381952 3.66635 0 0 0 128 128 0 255
2.27996 1.06991 3.66332 0 0 0 128 128 0 255
2.28312 1.05594 3.66316 0 0 0 128 128 0 255
2.28407 1.05996 3.66308 0 0 0 128 128 0 255
2.29094 0.560006 3.66516 0 0 0 128 128 0 255
2.29258 0.505022 3.66533 0 0 0 128 128 0 255
2.28491 1.24298 3.66211 0 0 0 128 128 0 255
2.28691 1.07299 3.66284 0 0 0 128 128 0 255
2.28731 1.03899 3.66299 0 0 0 128 128 0 255
2.29076 0.745015 3.66425 0 0 0 128 128 0 255
2.29507 0.463048 3.6654 0 0 0 128 128 0 255
2.29894 0.389088 3.66557 0 0 0 128 128 0 255
2.29992 0.306095 3.66592 0 0 0 128 128 0 255
2.30094 0.304107 3.66588 0 0 0 128 128 0 255
2.29812 0.714098 3.66405 0 0 0 128 128 0 255
2.3041 0.290143 3.66583 0 0 0 128 128 0 255
2.29616 1.05109 3.66253 0 0 0 128 128 0 255
2.30653 0.253169 3.66592 0 0 0 128 128 0 255
2.30153 0.76414 3.6637 0 0 0 128 128 0 255
2.30746 0.25918 3.66587 0 0 0 128 128 0 255
2.30665 0.498184 3.66479 0 0 0 128 128 0 255
2.30127 1.04115 3.66245 0 0 0 128 128 0 255
2.3102 0.281213 3.6657 0 0 0 128 128 0 255
2.31057 0.250215 3.66584 0 0 0 128 128 0 255
2.30714 1.05222 3.66234 0 0 0 128 128 0 255
2.31473 0.406274 3.66511 0 0 0 128 128 0 255
2.30777 1.08423 3.6622 0 0 0 128 128 0 255
2.31791 0.306305 3.66554 0 0 0 128 128 0 255
2.32141 0.263344 3.66575 0 0 0 128 128 0 255
2.31893 0.559332 3.66449 0 0 0 128 128 0 255
2.32225 0.277354 3.6657 0 0 0 128 128 0 255
2.31387 1.0753 3.6623 0 0 0 128 128 0 255
2.31427 1.04131 3.66244 0 0 0 128 128 0 255
2.31511 1.05532 3.6624 0 0 0 128 128 0 255
2.32525 0.27739 3.66576 0 0 0 128 128 0 255
2.32747 0.428425 3.66523 0 0 0 128 128 0 255
2.33005 0.549464 3.66487 0 0 0 128 128 0 255
2.33167 0.411474 3.66546 0 0 0 128 128 0 255
2.32776 0.829454 3.66371 0 0 0 128 128 0 255
2.3311 0.714486 3.66431 0 0 0 128 128 0 255
2.32734 1.11947 3.66263 0 0 0 128 128 0 255
2.33557 0.419521 3.66563 0 0 0 128 128 0 255
2.3385 0.254546 3.66639 0 0 0 128 128 0 255
2.33884 0.480565 3.66562 0 0 0 128 128 0 255
2.33935 0.437568 3.6658 0 0 0 128 128 0 255
2.33977 0.401571 3.66595 0 0 0 128 128 0 255
2.3366 0.756555 3.6645 0 0 0 128 128 0 255
2.3329 1.15654 3.66286 0 0 0 128 128 0 255
2.34303 0.463614 3.66598 0 0 0 128 128 0 255
2.34299 0.551619 3.66569 0 0 0 128 128 0 255
2.34592 0.302639 3.66675 0 0 0 128 128 0 255
2.34171 1.08464 3.66384 0 0 0 128 128 0 255
2.34572 0.743665 3.6653 0 0 0 128 128 0 255
2.34509 1.05168 3.66428 0 0 0 128 128 0 255
2.35508 0.285749 3.66767 0 0 0 128 128 0 255
2.3473 1.20171 3.66408 0 0 0 128 128 0 255
2.35253 0.756749 3.66598 0 0 0 128 128 0 255
2.35485 0.558764 3.66683 0 0 0 128 128 0 255
2.36047 0.249813 3.66839 0 0 0 128 128 0 255
2.35572 0.822792 3.66618 0 0 0 128 128 0 255
2.36331 0.261848 3.66871 0 0 0 128 128 0 255
2.36138 0.509841 3.66778 0 0 0 128 128 0 255
2.36213 0.530852 3.66782 0 0 0 128 128 0 255
2.3634 0.42286 3.66829 0 0 0 128 128 0 255
2.36479 0.303869 3.6688 0 0 0 128 128 0 255
2.35675 1.07282 3.66564 0 0 0 128 128 0 255
2.3568 1.06882 3.66565 0 0 0 128 128 0 255
2.36278 0.559862 3.66783 0 0 0 128 128 0 255
2.35666 1.16483 3.66538 0 0 0 128 128 0 255
2.36354 0.747884 3.66745 0 0 0 128 128 0 255
2.36713 0.441908 3.66876 0 0 0 128 128 0 255
2.3644 0.758895 3.66755 0 0 0 128 128 0 255
2.36772 0.559923 3.66855 0 0 0 128 128 0 255
2.36791 0.543924 3.66862 0 0 0 128 128 0 255
2.36673 0.728922 3.66798 0 0 0 128 128 0 255
2.36787 0.715935 3.66819 0 0 0 128 128 0 255
2.37156 0.737983 3.66874 0 0 0 128 128 0 255
2.37673 0.298017 3.67063 0 0 0 128 128 0 255
2.37951 0.313053 3.67108 0 0 0 128 128 0 255
2.37768 0.552046 3.67023 0 0 0 128 128 0 255
2.37897 0.442055 3.6707 0 0 0 128 128 0 255
2.38019 0.422069 3.67097 0 0 0 128 128 0 255
2.38152 0.393083 3.67127 0 0 0 128 128 0 255
2.38322 0.248095 3.67189 0 0 0 128 128 0 255
2.38405 0.261106 3.67202 0 0 0 128 128 0 255
2.38274 0.540109 3.67121 0 0 0 128 128 0 255
2.38579 0.280129 3.67232 0 0 0 128 128 0 255
2.38676 0.281142 3.67251 0 0 0 128 128 0 255
2.37697 1.19808 3.66877 0 0 0 128 128 0 255
2.38473 0.537134 3.67161 0 0 0 128 128 0 255
2.38359 0.718132 3.67103 0 0 0 128 128 0 255
2.38849 0.301165 3.67282 0 0 0 128 128 0 255
2.38883 0.272167 3.67294 0 0 0 128 128 0 255
2.38405 0.762141 3.67104 0 0 0 128 128 0 255
2.39121 0.319201 3.67335 0 0 0 128 128 0 255
2.38431 1.15617 3.6704 0 0 0 128 128 0 255
2.3885 0.7992 3.67193 0 0 0 128 128 0 255
2.39451 0.28824 3.67412 0 0 0 128 128 0 255
2.38437 1.23418 3.67028 0 0 0 128 128 0 255
2.38776 0.945201 3.67152 0 0 0 128 128 0 255
2.3942 0.397244 3.67387 0 0 0 128 128 0 255
2.3945 0.455252 3.67384 0 0 0 128 128 0 255
2.39289 0.675247 3.67312 0 0 0 128 128 0 255
2.39773 0.263279 3.67489 0 0 0 128 128 0 255
2.38967 1.03223 3.67182 0 0 0 128 128 0 255
2.39749 0.532296 3.67442 0 0 0 128 128 0 255
2.4009 0.40733 3.67543 0 0 0 128 128 0 255
2.39448 1.03629 3.67297 0 0 0 128 128 0 255
2.40317 0.296351 3.67614 0 0 0 128 128 0 255
2.40117 0.549344 3.6753 0 0 0 128 128 0 255
2.40343 0.439365 3.67601 0 0 0 128 128 0 255
2.40595 0.390394 3.67672 0 0 0 128 128 0 255
2.40585 0.481399 3.67658 0 0 0 128 128 0 255
2.40852 0.253417 3.67756 0 0 0 128 128 0 255
2.40079 1.07638 3.67455 0 0 0 128 128 0 255
2.40232 1.02839 3.67501 0 0 0 128 128 0 255
2.40627 0.774426 3.67637 0 0 0 128 128 0 255
2.41087 0.546469 3.67788 0 0 0 128 128 0 255
2.41139 0.502472 3.67807 0 0 0 128 128 0 255
2.41263 0.39648 3.67852 0 0 0 128 128 0 255
2.4143 0.254492 3.67913 0 0 0 128 128 0 255
2.40555 1.08144 3.67586 0 0 0 128 128 0 255
2.4059 1.05144 3.67598 0 0 0 128 128 0 255
2.41313 0.43649 3.67862 0 0 0 128 128 0 255
2.40535 1.18044 3.67571 0 0 0 128 128 0 255
2.41338 0.496498 3.67864 0 0 0 128 128 0 255
2.40788 1.04647 3.67656 0 0 0 128 128 0 255
2.4109 1.03451 3.67745 0 0 0 128 128 0 255
2.41663 0.546544 3.67955 0 0 0 128 128 0 255
2.41764 0.46055 3.67991 0 0 0 128 128 0 255
2.41774 0.452551 3.67995 0 0 0 128 128 0 255
2.40996 1.19651 3.67705 0 0 0 128 128 0 255
2.41121 1.08951 3.67751 0 0 0 128 128 0 255
2.41505 0.762539 3.67891 0 0 0 128 128 0 255
2.41908 0.419566 3.68038 0 0 0 128 128 0 255
2.41951 0.383569 3.68053 0 0 0 128 128 0 255
2.41141 1.23553 3.67746 0 0 0 128 128 0 255
2.42111 0.409592 3.681 0 0 0 128 128 0 255
2.42136 0.4696 3.68104 0 0 0 128 128 0 255
2.42163 0.528607 3.68109 0 0 0 128 128 0 255
2.42357 0.525633 3.6817 0 0 0 128 128 0 255
2.4258 0.416654 3.68248 0 0 0 128 128 0 255
2.42518 0.550656 3.68221 0 0 0 128 128 0 255
2.42568 0.507659 3.6824 0 0 0 128 128 0 255
2.42035 1.04263 3.68041 0 0 0 128 128 0 255
2.42895 0.552706 3.68346 0 0 0 128 128 0 255
2.42478 1.06869 3.6819 0 0 0 128 128 0 255
2.43377 0.383756 3.68516 0 0 0 128 128 0 255
2.43367 0.552768 3.6851 0 0 0 128 128 0 255
2.43724 0.409804 3.68638 0 0 0 128 128 0 255
2.43768 0.53182 3.68654 0 0 0 128 128 0 255
2.43939 0.386831 3.68717 0 0 0 128 128 0 255
2.44294 0.40388 3.68849 0 0 0 128 128 0 255
2.43728 1.04385 3.68646 0 0 0 128 128 0 255
2.43446 1.36384 3.68545 0 0 0 128 128 0 255
2.44588 0.549931 3.68967 0 0 0 128 128 0 255
2.44151 1.07991 3.68814 0 0 0 128 128 0 255
2.4479 0.535957 3.69047 0 0 0 128 128 0 255
2.45064 0.381981 3.6915 0 0 0 128 128 0 255
2.45113 0.497997 3.69176 0 0 0 128 128 0 255
2.45252 0.380007 3.69227 0 0 0 128 128 0 255
2.45421 0.550043 3.69308 0 0 0 128 128 0 255
2.45692 0.398068 3.69412 0 0 0 128 128 0 255
2.45769 0.410079 3.69447 0 0 0 128 128 0 255
2.45806 0.535094 3.69473 0 0 0 128 128 0 255
2.45929 0.430103 3.69518 0 0 0 128 128 0 255
2.46096 0.522133 3.696 0 0 0 128 128 0 255
2.45621 1.08111 3.69442 0 0 0 128 128 0 255
2.45887 1.08715 3.69565 0 0 0 128 128 0 255
2.48004 0.280376 3.70479 0 0 0 128 128 0 255
2.47292 1.03734 3.70246 0 0 0 128 128 0 255
2.48172 0.2884 3.70567 0 0 0 128 128 0 255
2.47484 1.02537 3.70344 0 0 0 128 128 0 255
2.48452 0.427451 3.7074 0 0 0 128 128 0 255
2.47898 1.04843 3.70568 0 0 0 128 128 0 255
2.48573 0.548479 3.7083 0 0 0 128 128 0 255
2.48765 0.385492 3.709 0 0 0 128 128 0 255
2.48245 1.20049 3.70793 0 0 0 128 128 0 255
2.48387 1.0795 3.70845 0 0 0 128 128 0 255
2.49287 0.387566 3.71191 0 0 0 128 128 0 255
2.49508 0.273587 3.71289 0 0 0 128 128 0 255
2.49462 0.38659 3.7129 0 0 0 128 128 0 255
2.49361 0.54659 3.71272 0 0 0 128 128 0 255
2.49609 0.408613 3.71381 0 0 0 128 128 0 255
2.49665 0.434623 3.7142 0 0 0 128 128 0 255
2.49812 0.309633 3.71474 0 0 0 128 128 0 255
2.4899 1.08259 3.71193 0 0 0 128 128 0 255
2.4901 1.06559 3.712 0 0 0 128 128 0 255
2.49051 1.03059 3.71215 0 0 0 128 128 0 255
2.49804 0.389639 3.7149 0 0 0 128 128 0 255
2.4996 0.549676 3.71626 0 0 0 128 128 0 255
2.50027 0.49268 3.71651 0 0 0 128 128 0 255
2.5076 0.447782 3.72091 0 0 0 128 128 0 255
2.50787 0.424784 3.72101 0 0 0 128 128 0 255
2.50918 0.384799 3.72171 0 0 0 128 128 0 255
2.50891 0.479804 3.72185 0 0 0 128 128 0 255
2.50906 0.466805 3.7219 0 0 0 128 128 0 255
2.50975 0.550823 3.72263 0 0 0 128 128 0 255
2.51119 0.428832 3.72315 0 0 0 128 128 0 255
2.5107 0.541835 3.72321 0 0 0 128 128 0 255
2.51366 0.289855 3.72429 0 0 0 128 128 0 255
2.51399 0.403871 3.7249 0 0 0 128 128 0 255
2.51469 0.485889 3.72566 0 0 0 128 128 0 255
2.51557 0.410894 3.72598 0 0 0 128 128 0 255
2.51792 0.42293 3.72761 0 0 0 128 128 0 255
2.52293 0.416003 3.73106 0 0 0 128 128 0 255
2.52411 0.523031 3.73235 0 0 0 128 128 0 255
2.52443 0.496033 3.73246 0 0 0 128 128 0 255
2.52637 0.400052 3.73346 0 0 0 128 128 0 255
2.52745 0.30806 3.73385 0 0 0 128 128 0 255
2.51934 1.06701 3.73119 0 0 0 128 128 0 255
2.52681 0.500069 3.73421 0 0 0 128 128 0 255
2.52447 1.04109 3.73487 0 0 0 128 128 0 255
2.53285 1.06622 3.74152 0 0 0 128 128 0 255
2.54105 0.435276 3.74485 0 0 0 128 128 0 255
2.53702 1.04128 3.74478 0 0 0 128 128 0 255
2.54607 0.40235 3.7488 0 0 0 128 128 0 255
2.54633 0.445358 3.74926 0 0 0 128 128 0 255
2.54711 0.44437 3.7499 0 0 0 128 128 0 255
2.54857 0.384387 3.75081 0 0 0 128 128 0 255
2.54848 0.457392 3.75114 0 0 0 128 128 0 255
2.55397 0.375469 3.75543 0 0 0 128 128 0 255
2.54927 1.02946 3.75529 0 0 0 128 128 0 255
2.5537 1.02853 3.75936 0 0 0 128 128 0 255
2.56373 0.54464 3.76556 0 0 0 128 128 0 255
2.56899 0.521722 3.77058 0 0 0 128 128 0 255
2.56945 0.542731 3.77119 0 0 0 128 128 0 255
2.57696 0.259821 3.77671 0 0 0 128 128 0 255
2.57625 0.378823 3.77692 0 0 0 128 128 0 255
2.56951 1.06979 3.77541 0 0 0 128 128 0 255
2.57636 0.544844 3.77839 0 0 0 128 128 0 255
2.62673 0.905784 3.85303 0 0 0 128 128 0 255
2.64062 0.90007 3.8819 0 0 0 128 128 0 255
2.64149 0.892088 3.88378 0 0 0 128 128 0 255
2.64322 0.907129 3.88834 0 0 0 128 128 0 255
2.64451 0.891155 3.8912 0 0 0 128 128 0 255
2.6509 0.872301 3.90819 0 0 0 128 128 0 255
2.65596 0.751402 3.92014 0 0 0 128 128 0 255
2.6617 0.381469 3.92653 0 0 0 128 128 0 255
2.66211 0.415488 3.92927 0 0 0 128 128 0 255
2.65808 1.03353 3.93921 0 0 0 128 128 0 255
2.66189 0.728562 3.94149 0 0 0 128 128 0 255
2.66638 0.422613 3.9467 0 0 0 128 128 0 255
2.66902 0.386688 3.95763 0 0 0 128 128 0 255
2.67019 0.407737 3.96542 0 0 0 128 128 0 255
2.67062 0.39875 3.96743 0 0 0 128 128 0 255
2.6717 0.383787 3.97342 0 0 0 128 128 0 255
2.67289 0.421859 3.98616 0 0 0 128 128 0 255
2.67405 0.443946 4.003 0 0 0 128 128 0 255
2.67412 0.45296 4.00596 0 0 0 128 128 0 255
2.67443 0.438976 4.00901 0 0 0 128 128 0 255
2.67446 0.454003 4.01494 0 0 0 128 128 0 255
2.67061 0.792008 4.02049 0 0 0 128 128 0 255
2.67452 0.459034 4.02192 0 0 0 128 128 0 255
2.676 0.334048 4.02346 0 0 0 128 128 0 255
