ply
format ascii 1.0
comment VCGLIB generated
element vertex 531
property float x
property float y
property float z
property float nx
property float ny
property float nz
property uchar red
property uchar green
property uchar blue
property uchar alpha
element face 0
property list uchar int vertex_indices
end_header
4.18548 0.642871 3.37703 0 0 0 0 128 0 255
4.16597 0.611411 3.39219 0 0 0 0 128 0 255
4.1633 0.626493 3.39472 0 0 0 0 128 0 255
4.16134 0.639554 3.39662 0 0 0 0 128 0 255
4.1585 0.648638 3.39914 0 0 0 0 128 0 255
4.11989 0.845811 3.43516 0 0 0 0 128 0 255
4.11506 0.811935 3.43832 0 0 0 0 128 0 255
4.10371 0.931305 3.45033 0 0 0 0 128 0 255
4.09603 0.988545 3.45791 0 0 0 0 128 0 255
4.08959 0.925702 3.4617 0 0 0 0 128 0 255
4.09176 1.02968 3.46233 0 0 0 0 128 0 255
4.07715 0.650945 3.46549 0 0 0 0 128 0 255
4.06954 0.656162 3.47181 0 0 0 0 128 0 255
4.0665 0.658249 3.47434 0 0 0 0 128 0 255
4.07275 1.15227 3.48066 0 0 0 0 128 0 255
4.07215 1.15829 3.48129 0 0 0 0 128 0 255
4.04184 0.855027 3.49898 0 0 0 0 128 0 255
4.04942 1.17694 3.50024 0 0 0 0 128 0 255
4.04895 1.26999 3.50277 0 0 0 0 128 0 255
4.03854 1.17625 3.50909 0 0 0 0 128 0 255
4.01637 1.87116 3.54321 0 0 0 0 128 0 255
3.97842 1.02489 3.55458 0 0 0 0 128 0 255
3.97756 1.02192 3.55522 0 0 0 0 128 0 255
3.97676 1.02094 3.55585 0 0 0 0 128 0 255
3.96973 1.10117 3.56343 0 0 0 0 128 0 255
3.98781 1.82095 3.56533 0 0 0 0 128 0 255
3.9474 0.532574 3.56848 0 0 0 0 128 0 255
3.98751 2.00203 3.56975 0 0 0 0 128 0 255
3.96123 1.10241 3.57038 0 0 0 0 128 0 255
3.98587 2.02608 3.57164 0 0 0 0 128 0 255
3.95955 1.39858 3.57859 0 0 0 0 128 0 255
3.94854 1.03774 3.57923 0 0 0 0 128 0 255
3.9318 0.529015 3.58112 0 0 0 0 128 0 255
3.94221 1.00591 3.58365 0 0 0 0 128 0 255
3.94173 0.988918 3.58365 0 0 0 0 128 0 255
3.94476 1.12289 3.58428 0 0 0 0 128 0 255
3.94152 1.00893 3.58428 0 0 0 0 128 0 255
3.94109 1.02095 3.58491 0 0 0 0 128 0 255
3.93481 1.10016 3.59186 0 0 0 0 128 0 255
3.95957 2.00082 3.5925 0 0 0 0 128 0 255
3.92975 1.11331 3.59629 0 0 0 0 128 0 255
3.94678 1.7961 3.59818 0 0 0 0 128 0 255
3.95113 2.00406 3.59945 0 0 0 0 128 0 255
3.92409 1.13248 3.60134 0 0 0 0 128 0 255
3.91676 1.01063 3.6045 0 0 0 0 128 0 255
3.91737 1.14167 3.60703 0 0 0 0 128 0 255
3.91612 1.1247 3.60766 0 0 0 0 128 0 255
3.90731 1.03291 3.61271 0 0 0 0 128 0 255
3.90407 1.11003 3.61714 0 0 0 0 128 0 255
3.88348 0.602414 3.62219 0 0 0 0 128 0 255
3.88946 0.977395 3.62598 0 0 0 0 128 0 255
3.88943 0.976395 3.62598 0 0 0 0 128 0 255
3.88627 0.974484 3.62851 0 0 0 0 128 0 255
3.91866 2.28109 3.6323 0 0 0 0 128 0 255
3.89174 1.82367 3.64368 0 0 0 0 128 0 255
3.86909 1.10702 3.64557 0 0 0 0 128 0 255
3.86735 1.10007 3.64684 0 0 0 0 128 0 255
3.86615 1.0851 3.64747 0 0 0 0 128 0 255
3.87803 1.96912 3.65821 0 0 0 0 128 0 255
3.87249 1.96527 3.66263 0 0 0 0 128 0 255
3.87171 1.96529 3.66326 0 0 0 0 128 0 255
3.87157 1.9603 3.66326 0 0 0 0 128 0 255
3.83604 0.761822 3.66453 0 0 0 0 128 0 255
3.8345 0.761866 3.66579 0 0 0 0 128 0 255
3.83444 0.759866 3.66579 0 0 0 0 128 0 255
3.83675 1.19698 3.67401 0 0 0 0 128 0 255
3.86225 2.12363 3.67464 0 0 0 0 128 0 255
3.83079 1.01407 3.67464 0 0 0 0 128 0 255
3.85628 1.96773 3.6759 0 0 0 0 128 0 255
3.82754 0.95414 3.6759 0 0 0 0 128 0 255
3.8274 0.949142 3.6759 0 0 0 0 128 0 255
3.83274 1.19209 3.67716 0 0 0 0 128 0 255
3.83139 1.17212 3.6778 0 0 0 0 128 0 255
3.82326 0.885234 3.6778 0 0 0 0 128 0 255
3.82506 0.976219 3.67843 0 0 0 0 128 0 255
3.8539 2.10285 3.68096 0 0 0 0 128 0 255
3.82184 0.99932 3.68159 0 0 0 0 128 0 255
3.81875 0.890363 3.68159 0 0 0 0 128 0 255
3.81594 0.818414 3.68222 0 0 0 0 128 0 255
3.81525 0.821435 3.68285 0 0 0 0 128 0 255
3.81309 0.772477 3.68348 0 0 0 0 128 0 255
3.8498 2.09497 3.68412 0 0 0 0 128 0 255
3.84946 2.08297 3.68412 0 0 0 0 128 0 255
3.81511 0.89847 3.68475 0 0 0 0 128 0 255
3.84783 2.08002 3.68538 0 0 0 0 128 0 255
3.82206 1.19839 3.68601 0 0 0 0 128 0 255
3.84682 2.09905 3.68664 0 0 0 0 128 0 255
3.84676 2.09705 3.68664 0 0 0 0 128 0 255
3.82123 1.19642 3.68664 0 0 0 0 128 0 255
3.82055 1.17243 3.68664 0 0 0 0 128 0 255
3.82683 1.42135 3.68727 0 0 0 0 128 0 255
3.80573 0.786691 3.6898 0 0 0 0 128 0 255
3.80524 0.796709 3.69043 0 0 0 0 128 0 255
3.80342 0.759745 3.69107 0 0 0 0 128 0 255
3.81486 1.19059 3.6917 0 0 0 0 128 0 255
3.80877 0.975681 3.6917 0 0 0 0 128 0 255
3.81134 1.09366 3.69233 0 0 0 0 128 0 255
3.81125 1.09066 3.69233 0 0 0 0 128 0 255
3.80504 0.871744 3.69233 0 0 0 0 128 0 255
3.80402 0.835759 3.69233 0 0 0 0 128 0 255
3.8019 0.760789 3.69233 0 0 0 0 128 0 255
3.80589 0.983765 3.69423 0 0 0 0 128 0 255
3.80452 0.962796 3.69486 0 0 0 0 128 0 255
3.80825 1.14876 3.69612 0 0 0 0 128 0 255
3.79893 0.874919 3.69738 0 0 0 0 128 0 255
3.79876 0.868921 3.69738 0 0 0 0 128 0 255
3.80413 1.1949 3.70054 0 0 0 0 128 0 255
3.79146 0.74808 3.70054 0 0 0 0 128 0 255
3.80412 1.22191 3.70118 0 0 0 0 128 0 255
3.79063 0.746102 3.70118 0 0 0 0 128 0 255
3.80162 1.21598 3.70307 0 0 0 0 128 0 255
3.80062 1.208 3.7037 0 0 0 0 128 0 255
3.7951 1.0681 3.70497 0 0 0 0 128 0 255
3.79288 1.09918 3.70749 0 0 0 0 128 0 255
3.79559 1.22215 3.70813 0 0 0 0 128 0 255
3.78766 0.942265 3.70813 0 0 0 0 128 0 255
3.78748 0.963279 3.70876 0 0 0 0 128 0 255
3.7913 1.18026 3.71065 0 0 0 0 128 0 255
3.78881 1.09229 3.71065 0 0 0 0 128 0 255
3.78589 0.989334 3.71065 0 0 0 0 128 0 255
3.78138 0.857409 3.71129 0 0 0 0 128 0 255
3.78871 1.19834 3.71318 0 0 0 0 128 0 255
3.78803 1.17435 3.71318 0 0 0 0 128 0 255
3.7949 1.47127 3.71444 0 0 0 0 128 0 255
3.78404 1.19747 3.71697 0 0 0 0 128 0 255
3.77511 0.882597 3.71697 0 0 0 0 128 0 255
3.77957 1.17659 3.72013 0 0 0 0 128 0 255
3.78476 1.41454 3.7214 0 0 0 0 128 0 255
3.77818 1.20964 3.72203 0 0 0 0 128 0 255
3.77367 1.05071 3.72203 0 0 0 0 128 0 255
3.78106 1.42064 3.72455 0 0 0 0 128 0 255
3.76199 0.747915 3.72455 0 0 0 0 128 0 255
3.77051 1.07581 3.72519 0 0 0 0 128 0 255
3.77028 1.06781 3.72519 0 0 0 0 128 0 255
3.7828 1.53664 3.72582 0 0 0 0 128 0 255
3.76084 0.761953 3.72582 0 0 0 0 128 0 255
3.77887 1.45272 3.72708 0 0 0 0 128 0 255
3.76973 1.15786 3.72771 0 0 0 0 128 0 255
3.75493 0.745114 3.73024 0 0 0 0 128 0 255
3.75625 0.819106 3.73087 0 0 0 0 128 0 255
3.75761 0.94912 3.73277 0 0 0 0 128 0 255
3.75705 0.929128 3.73277 0 0 0 0 128 0 255
3.75114 0.748222 3.7334 0 0 0 0 128 0 255
3.76878 1.42499 3.73466 0 0 0 0 128 0 255
3.77484 1.72094 3.73656 0 0 0 0 128 0 255
3.74776 0.820347 3.73782 0 0 0 0 128 0 255
3.78975 2.32876 3.73846 0 0 0 0 128 0 255
3.76407 1.42313 3.73846 0 0 0 0 128 0 255
3.748 0.856355 3.73846 0 0 0 0 128 0 255
3.74521 0.812416 3.73972 0 0 0 0 128 0 255
3.7871 2.34484 3.74098 0 0 0 0 128 0 255
3.74557 0.934455 3.74225 0 0 0 0 128 0 255
3.73885 0.861616 3.74604 0 0 0 0 128 0 255
3.76276 1.73229 3.74667 0 0 0 0 128 0 255
3.74646 1.15752 3.74667 0 0 0 0 128 0 255
3.77899 2.33207 3.7473 0 0 0 0 128 0 255
3.76198 1.73231 3.7473 0 0 0 0 128 0 255
3.77796 2.32309 3.74793 0 0 0 0 128 0 255
3.75307 1.44545 3.74793 0 0 0 0 128 0 255
3.73134 0.760789 3.74983 0 0 0 0 128 0 255
3.73472 0.934763 3.75109 0 0 0 0 128 0 255
3.74687 1.3906 3.75172 0 0 0 0 128 0 255
3.74086 1.17869 3.75172 0 0 0 0 128 0 255
3.72584 0.648899 3.75172 0 0 0 0 128 0 255
3.7382 1.13975 3.75299 0 0 0 0 128 0 255
3.73179 0.940848 3.75362 0 0 0 0 128 0 255
3.73005 0.906884 3.75425 0 0 0 0 128 0 255
3.76977 2.33533 3.75488 0 0 0 0 128 0 255
3.76915 2.31334 3.75488 0 0 0 0 128 0 255
3.75175 1.69959 3.75488 0 0 0 0 128 0 255
3.76891 2.33236 3.75552 0 0 0 0 128 0 255
3.72603 0.846974 3.75615 0 0 0 0 128 0 255
3.7197 0.651074 3.75678 0 0 0 0 128 0 255
3.72985 1.06395 3.75804 0 0 0 0 128 0 255
3.73168 1.15594 3.75868 0 0 0 0 128 0 255
3.72765 1.04101 3.75931 0 0 0 0 128 0 255
3.71938 0.831156 3.7612 0 0 0 0 128 0 255
3.73444 1.38995 3.76183 0 0 0 0 128 0 255
3.74863 1.91776 3.76247 0 0 0 0 128 0 255
3.71705 0.831222 3.7631 0 0 0 0 128 0 255
3.7166 0.815228 3.7631 0 0 0 0 128 0 255
3.72002 0.963191 3.76373 0 0 0 0 128 0 255
3.72202 1.06117 3.76436 0 0 0 0 128 0 255
3.71043 0.652338 3.76436 0 0 0 0 128 0 255
3.71852 0.965234 3.76499 0 0 0 0 128 0 255
3.72799 1.38113 3.76689 0 0 0 0 128 0 255
3.71898 1.06326 3.76689 0 0 0 0 128 0 255
3.71135 0.794368 3.76689 0 0 0 0 128 0 255
3.70695 0.666442 3.76752 0 0 0 0 128 0 255
3.70664 0.655446 3.76752 0 0 0 0 128 0 255
3.72842 1.45115 3.76815 0 0 0 0 128 0 255
3.7188 1.16631 3.76942 0 0 0 0 128 0 255
3.70457 0.664508 3.76942 0 0 0 0 128 0 255
3.71076 0.937443 3.77068 0 0 0 0 128 0 255
3.73515 1.90714 3.77321 0 0 0 0 128 0 255
3.71955 1.38437 3.77384 0 0 0 0 128 0 255
3.73391 1.91818 3.77447 0 0 0 0 128 0 255
3.70759 1.04458 3.77574 0 0 0 0 128 0 255
3.70744 1.06659 3.77637 0 0 0 0 128 0 255
3.70464 0.967628 3.77637 0 0 0 0 128 0 255
3.69829 0.907784 3.78016 0 0 0 0 128 0 255
3.69599 0.826817 3.78016 0 0 0 0 128 0 255
3.70406 1.13871 3.78079 0 0 0 0 128 0 255
3.69791 0.921801 3.78079 0 0 0 0 128 0 255
3.72522 1.91242 3.78142 0 0 0 0 128 0 255
3.69347 0.819886 3.78205 0 0 0 0 128 0 255
3.68495 0.656061 3.78521 0 0 0 0 128 0 255
3.68475 0.649064 3.78521 0 0 0 0 128 0 255
3.68449 0.640068 3.78521 0 0 0 0 128 0 255
3.6947 1.13698 3.78837 0 0 0 0 128 0 255
3.67753 0.613254 3.79027 0 0 0 0 128 0 255
3.69841 1.37697 3.7909 0 0 0 0 128 0 255
3.69158 1.13607 3.7909 0 0 0 0 128 0 255
3.67758 0.642264 3.7909 0 0 0 0 128 0 255
3.68676 1.04817 3.7928 0 0 0 0 128 0 255
3.67374 0.616363 3.79343 0 0 0 0 128 0 255
3.68645 1.1192 3.79469 0 0 0 0 128 0 255
3.70582 1.82994 3.79532 0 0 0 0 128 0 255
3.6723 0.647416 3.79532 0 0 0 0 128 0 255
3.68425 1.15128 3.79722 0 0 0 0 128 0 255
3.67671 0.994431 3.79975 0 0 0 0 128 0 255
3.67432 0.910464 3.79975 0 0 0 0 128 0 255
3.67367 0.887474 3.79975 0 0 0 0 128 0 255
3.66553 0.6276 3.80038 0 0 0 0 128 0 255
3.66474 0.599611 3.80038 0 0 0 0 128 0 255
3.66305 0.594657 3.80164 0 0 0 0 128 0 255
3.67056 0.914573 3.80291 0 0 0 0 128 0 255
3.66169 0.601698 3.80291 0 0 0 0 128 0 255
3.66905 0.888605 3.80354 0 0 0 0 128 0 255
3.66744 0.831628 3.80354 0 0 0 0 128 0 255
3.67444 1.16056 3.80543 0 0 0 0 128 0 255
3.65915 0.648789 3.80606 0 0 0 0 128 0 255
3.66883 1.01766 3.8067 0 0 0 0 128 0 255
3.66731 1.01871 3.80796 0 0 0 0 128 0 255
3.66141 0.837801 3.80859 0 0 0 0 128 0 255
3.66885 1.12771 3.80922 0 0 0 0 128 0 255
3.66058 0.835824 3.80922 0 0 0 0 128 0 255
3.66564 1.04176 3.80986 0 0 0 0 128 0 255
3.66287 0.998824 3.81112 0 0 0 0 128 0 255
3.65448 0.702943 3.81112 0 0 0 0 128 0 255
3.6672 1.17877 3.81175 0 0 0 0 128 0 255
3.65419 0.719958 3.81175 0 0 0 0 128 0 255
3.6561 0.841953 3.81302 0 0 0 0 128 0 255
3.64992 0.624041 3.81302 0 0 0 0 128 0 255
3.64969 0.616044 3.81302 0 0 0 0 128 0 255
3.66319 1.14687 3.81428 0 0 0 0 128 0 255
3.66097 1.09592 3.81491 0 0 0 0 128 0 255
3.65618 0.926985 3.81491 0 0 0 0 128 0 255
3.65032 0.802101 3.81681 0 0 0 0 128 0 255
3.65723 1.12804 3.8187 0 0 0 0 128 0 255
3.65188 0.939112 3.8187 0 0 0 0 128 0 255
3.65051 0.918142 3.81933 0 0 0 0 128 0 255
3.64531 0.762227 3.81997 0 0 0 0 128 0 255
3.64092 0.607289 3.81997 0 0 0 0 128 0 255
3.64803 0.940221 3.82186 0 0 0 0 128 0 255
3.651 1.07219 3.82249 0 0 0 0 128 0 255
3.63827 0.623371 3.82249 0 0 0 0 128 0 255
3.63782 0.607377 3.82249 0 0 0 0 128 0 255
3.66963 1.83897 3.82502 0 0 0 0 128 0 255
3.64897 1.11026 3.82502 0 0 0 0 128 0 255
3.6452 0.977316 3.82502 0 0 0 0 128 0 255
3.66925 1.88 3.82628 0 0 0 0 128 0 255
3.64655 1.07932 3.82628 0 0 0 0 128 0 255
3.6421 0.922382 3.82628 0 0 0 0 128 0 255
3.64181 0.994419 3.82818 0 0 0 0 128 0 255
3.66479 1.8321 3.82881 0 0 0 0 128 0 255
3.64104 0.994441 3.82881 0 0 0 0 128 0 255
3.637 0.87951 3.82944 0 0 0 0 128 0 255
3.6333 0.803584 3.83071 0 0 0 0 128 0 255
3.66163 1.83019 3.83134 0 0 0 0 128 0 255
3.64093 1.1275 3.83197 0 0 0 0 128 0 255
3.63736 1.00155 3.83197 0 0 0 0 128 0 255
3.63161 0.79863 3.83197 0 0 0 0 128 0 255
3.62411 0.588758 3.83324 0 0 0 0 128 0 255
3.65515 1.82037 3.83639 0 0 0 0 128 0 255
3.62145 0.631851 3.83639 0 0 0 0 128 0 255
3.63459 1.12268 3.83703 0 0 0 0 128 0 255
3.63199 1.03071 3.83703 0 0 0 0 128 0 255
3.61869 0.588912 3.83766 0 0 0 0 128 0 255
3.64418 1.51556 3.83829 0 0 0 0 128 0 255
3.62607 0.876818 3.83829 0 0 0 0 128 0 255
3.62604 0.875819 3.83829 0 0 0 0 128 0 255
3.61924 0.635915 3.83829 0 0 0 0 128 0 255
3.63171 1.15777 3.84019 0 0 0 0 128 0 255
3.64122 1.52065 3.84082 0 0 0 0 128 0 255
3.62565 1.02589 3.84208 0 0 0 0 128 0 255
3.62235 0.936948 3.84271 0 0 0 0 128 0 255
3.6097 0.600171 3.84524 0 0 0 0 128 0 255
3.61717 0.891076 3.84587 0 0 0 0 128 0 255
3.60523 0.579289 3.8484 0 0 0 0 128 0 255
3.61137 0.823213 3.84903 0 0 0 0 128 0 255
3.61057 0.822236 3.84966 0 0 0 0 128 0 255
3.61249 0.91722 3.8503 0 0 0 0 128 0 255
3.61215 0.905224 3.8503 0 0 0 0 128 0 255
3.61602 1.06918 3.85093 0 0 0 0 128 0 255
3.64406 2.08579 3.85156 0 0 0 0 128 0 255
3.61444 1.06822 3.85219 0 0 0 0 128 0 255
3.60942 0.891296 3.85219 0 0 0 0 128 0 255
3.60146 0.610409 3.85219 0 0 0 0 128 0 255
3.61279 1.11929 3.85472 0 0 0 0 128 0 255
3.61247 1.1083 3.85472 0 0 0 0 128 0 255
3.60634 0.919394 3.85535 0 0 0 0 128 0 255
3.63812 2.09497 3.85661 0 0 0 0 128 0 255
3.60898 1.09439 3.85725 0 0 0 0 128 0 255
3.60507 0.956446 3.85725 0 0 0 0 128 0 255
3.63626 2.08401 3.85788 0 0 0 0 128 0 255
3.60613 1.04845 3.85851 0 0 0 0 128 0 255
3.5995 0.869568 3.85977 0 0 0 0 128 0 255
3.59793 0.868613 3.86104 0 0 0 0 128 0 255
3.59448 0.801683 3.8623 0 0 0 0 128 0 255
3.60133 1.0706 3.86293 0 0 0 0 128 0 255
3.59815 0.958642 3.86293 0 0 0 0 128 0 255
3.61549 1.59741 3.86356 0 0 0 0 128 0 255
3.59996 1.10465 3.86483 0 0 0 0 128 0 255
3.59406 0.923744 3.86546 0 0 0 0 128 0 255
3.61153 1.59452 3.86672 0 0 0 0 128 0 255
3.58914 0.804836 3.86672 0 0 0 0 128 0 255
3.58519 0.692903 3.86736 0 0 0 0 128 0 255
3.61249 1.79257 3.87051 0 0 0 0 128 0 255
3.5901 1.00289 3.87051 0 0 0 0 128 0 255
3.58269 0.796015 3.87178 0 0 0 0 128 0 255
3.58266 0.877049 3.87367 0 0 0 0 128 0 255
3.58748 1.102 3.87494 0 0 0 0 128 0 255
3.57575 0.688169 3.87494 0 0 0 0 128 0 255
3.58674 1.10302 3.87557 0 0 0 0 128 0 255
3.5864 1.09103 3.87557 0 0 0 0 128 0 255
3.57744 0.775156 3.87557 0 0 0 0 128 0 255
3.5736 0.694232 3.87683 0 0 0 0 128 0 255
3.58433 1.10009 3.87747 0 0 0 0 128 0 255
3.58427 1.09809 3.87747 0 0 0 0 128 0 255
3.58229 1.11015 3.87936 0 0 0 0 128 0 255
3.57678 1.02527 3.88189 0 0 0 0 128 0 255
3.56903 0.779396 3.88252 0 0 0 0 128 0 255
3.57812 1.12728 3.88315 0 0 0 0 128 0 255
3.57463 1.00433 3.88315 0 0 0 0 128 0 255
3.57506 1.10135 3.88505 0 0 0 0 128 0 255
3.57188 1.07143 3.88694 0 0 0 0 128 0 255
3.56599 0.863516 3.88694 0 0 0 0 128 0 255
3.59203 1.86418 3.88884 0 0 0 0 128 0 255
3.59118 1.83419 3.88884 0 0 0 0 128 0 255
3.56732 0.99253 3.88884 0 0 0 0 128 0 255
3.56696 1.03456 3.8901 0 0 0 0 128 0 255
3.56614 1.00557 3.8901 0 0 0 0 128 0 255
3.588 1.83128 3.89137 0 0 0 0 128 0 255
3.56645 1.0986 3.892 0 0 0 0 128 0 255
3.57593 1.48748 3.89326 0 0 0 0 128 0 255
3.55285 0.700823 3.89389 0 0 0 0 128 0 255
3.59209 2.11228 3.89453 0 0 0 0 128 0 255
3.55451 0.78681 3.89453 0 0 0 0 128 0 255
3.5904 2.10732 3.89579 0 0 0 0 128 0 255
3.57163 1.4726 3.89642 0 0 0 0 128 0 255
3.55057 0.729899 3.89642 0 0 0 0 128 0 255
3.54817 0.699955 3.89769 0 0 0 0 128 0 255
3.55669 1.02785 3.89832 0 0 0 0 128 0 255
3.58355 2.08451 3.90084 0 0 0 0 128 0 255
3.55215 0.976954 3.90084 0 0 0 0 128 0 255
3.56651 1.51076 3.90148 0 0 0 0 128 0 255
3.58108 2.07958 3.90274 0 0 0 0 128 0 255
3.5607 1.46991 3.90527 0 0 0 0 128 0 255
3.54907 1.08709 3.9059 0 0 0 0 128 0 255
3.57703 2.1007 3.90653 0 0 0 0 128 0 255
3.5454 0.985148 3.90653 0 0 0 0 128 0 255
3.54204 0.921218 3.90779 0 0 0 0 128 0 255
3.55712 1.50803 3.90906 0 0 0 0 128 0 255
3.57773 2.28976 3.91032 0 0 0 0 128 0 255
3.57546 2.2368 3.91095 0 0 0 0 128 0 255
3.53734 0.892339 3.91095 0 0 0 0 128 0 255
3.53635 0.857353 3.91095 0 0 0 0 128 0 255
3.56207 1.792 3.91159 0 0 0 0 128 0 255
3.53566 0.860374 3.91159 0 0 0 0 128 0 255
3.56046 1.81706 3.91348 0 0 0 0 128 0 255
3.5501 1.47921 3.91411 0 0 0 0 128 0 255
3.53556 0.99343 3.91475 0 0 0 0 128 0 255
3.5355 0.991431 3.91475 0 0 0 0 128 0 255
3.53471 0.963442 3.91475 0 0 0 0 128 0 255
3.52956 0.836537 3.91601 0 0 0 0 128 0 255
3.56367 2.06706 3.91664 0 0 0 0 128 0 255
3.52856 0.965617 3.9198 0 0 0 0 128 0 255
3.56312 2.23915 3.92106 0 0 0 0 128 0 255
3.52682 0.958664 3.92106 0 0 0 0 128 0 255
3.54001 1.45149 3.9217 0 0 0 0 128 0 255
3.55865 2.21827 3.92422 0 0 0 0 128 0 255
3.55374 2.23641 3.92865 0 0 0 0 128 0 255
3.53166 1.45773 3.92865 0 0 0 0 128 0 255
3.53123 1.46974 3.92928 0 0 0 0 128 0 255
3.51274 0.845017 3.92991 0 0 0 0 128 0 255
3.54576 2.06457 3.93117 0 0 0 0 128 0 255
3.53654 1.76671 3.93181 0 0 0 0 128 0 255
3.54262 2.03565 3.93307 0 0 0 0 128 0 255
3.52281 1.41896 3.93496 0 0 0 0 128 0 255
3.52948 1.70889 3.93623 0 0 0 0 128 0 255
3.53169 2.03296 3.94192 0 0 0 0 128 0 255
3.52162 1.76013 3.94381 0 0 0 0 128 0 255
3.51956 1.68716 3.94381 0 0 0 0 128 0 255
3.49818 0.960476 3.94444 0 0 0 0 128 0 255
3.49707 0.921492 3.94444 0 0 0 0 128 0 255
3.49461 0.91656 3.94634 0 0 0 0 128 0 255
3.49381 0.888571 3.94634 0 0 0 0 128 0 255
3.49919 1.10551 3.94697 0 0 0 0 128 0 255
3.49459 1.05262 3.9495 0 0 0 0 128 0 255
3.52107 2.01425 3.95013 0 0 0 0 128 0 255
3.51984 2.02529 3.95139 0 0 0 0 128 0 255
3.49154 1.08171 3.95266 0 0 0 0 128 0 255
3.48161 0.840898 3.95518 0 0 0 0 128 0 255
3.48249 0.926907 3.95645 0 0 0 0 128 0 255
3.4777 0.840008 3.95834 0 0 0 0 128 0 255
3.51073 2.05956 3.95961 0 0 0 0 128 0 255
3.4771 0.928061 3.96087 0 0 0 0 128 0 255
3.49354 1.56285 3.96214 0 0 0 0 128 0 255
3.47875 1.04106 3.96214 0 0 0 0 128 0 255
3.47266 0.826146 3.96214 0 0 0 0 128 0 255
3.49096 1.4989 3.96277 0 0 0 0 128 0 255
3.47803 1.04308 3.96277 0 0 0 0 128 0 255
3.47494 0.934124 3.96277 0 0 0 0 128 0 255
3.47272 1.04723 3.96719 0 0 0 0 128 0 255
3.46497 0.910397 3.97035 0 0 0 0 128 0 255
3.48454 1.71016 3.97288 0 0 0 0 128 0 255
3.46249 0.932476 3.97288 0 0 0 0 128 0 255
3.45977 0.918548 3.97477 0 0 0 0 128 0 255
3.47731 1.70137 3.97856 0 0 0 0 128 0 255
3.45535 1.00871 3.98046 0 0 0 0 128 0 255
3.45529 1.00671 3.98046 0 0 0 0 128 0 255
3.473 1.71349 3.98235 0 0 0 0 128 0 255
3.45305 1.00977 3.98235 0 0 0 0 128 0 255
3.44417 0.805945 3.98488 0 0 0 0 128 0 255
3.47768 2.04249 3.98615 0 0 0 0 128 0 255
3.44188 0.80701 3.98678 0 0 0 0 128 0 255
3.4475 1.05995 3.98804 0 0 0 0 128 0 255
3.45608 1.44486 3.98994 0 0 0 0 128 0 255
3.44142 1.03712 3.99246 0 0 0 0 128 0 255
3.45544 1.55893 3.9931 0 0 0 0 128 0 255
3.4407 1.03914 3.9931 0 0 0 0 128 0 255
3.44309 1.58829 4.00384 0 0 0 0 128 0 255
3.43652 1.43842 4.00573 0 0 0 0 128 0 255
3.41954 0.839656 4.00573 0 0 0 0 128 0 255
3.42383 1.04562 4.007 0 0 0 0 128 0 255
3.43354 1.41549 4.00763 0 0 0 0 128 0 255
3.43157 1.37353 4.00826 0 0 0 0 128 0 255
3.43672 1.58247 4.00889 0 0 0 0 128 0 255
3.43667 1.58047 4.00889 0 0 0 0 128 0 255
3.4292 1.34459 4.00952 0 0 0 0 128 0 255
3.42642 1.32866 4.01142 0 0 0 0 128 0 255
3.41539 0.966825 4.01205 0 0 0 0 128 0 255
3.44859 2.2474 4.01458 0 0 0 0 128 0 255
3.4225 1.38179 4.01584 0 0 0 0 128 0 255
3.40737 0.930037 4.01774 0 0 0 0 128 0 255
3.40789 1.00305 4.019 0 0 0 0 128 0 255
3.40574 0.927083 4.019 0 0 0 0 128 0 255
3.40367 1.01818 4.02279 0 0 0 0 128 0 255
3.43592 2.21074 4.02406 0 0 0 0 128 0 255
3.41596 1.61607 4.02659 0 0 0 0 128 0 255
3.3957 0.98339 4.02848 0 0 0 0 128 0 255
3.4011 1.28336 4.03101 0 0 0 0 128 0 255
3.38759 0.806548 4.03101 0 0 0 0 128 0 255
3.38658 0.798574 4.03164 0 0 0 0 128 0 255
3.42044 2.0201 4.03227 0 0 0 0 128 0 255
3.40661 1.61433 4.03417 0 0 0 0 128 0 255
3.39628 1.27749 4.0348 0 0 0 0 128 0 255
3.3952 1.26652 4.03543 0 0 0 0 128 0 255
3.42231 2.25014 4.03606 0 0 0 0 128 0 255
3.40446 1.6204 4.03606 0 0 0 0 128 0 255
3.38146 0.836734 4.0367 0 0 0 0 128 0 255
3.38118 0.826738 4.0367 0 0 0 0 128 0 255
3.41978 2.27022 4.03859 0 0 0 0 128 0 255
3.38013 0.871786 4.03859 0 0 0 0 128 0 255
3.39616 1.46457 4.03922 0 0 0 0 128 0 255
3.39471 1.4406 4.03985 0 0 0 0 128 0 255
3.4134 2.20938 4.04238 0 0 0 0 128 0 255
3.41284 2.24441 4.04365 0 0 0 0 128 0 255
3.38865 1.44578 4.04491 0 0 0 0 128 0 255
3.38817 1.42878 4.04491 0 0 0 0 128 0 255
3.36986 0.783041 4.04491 0 0 0 0 128 0 255
3.37485 1.041 4.0468 0 0 0 0 128 0 255
3.36936 0.902103 4.04807 0 0 0 0 128 0 255
3.38416 1.47892 4.04933 0 0 0 0 128 0 255
3.3704 1.04813 4.0506 0 0 0 0 128 0 255
3.38087 1.445 4.05123 0 0 0 0 128 0 255
3.36276 0.806252 4.05123 0 0 0 0 128 0 255
3.36477 0.904234 4.05186 0 0 0 0 128 0 255
3.36409 0.880244 4.05186 0 0 0 0 128 0 255
3.40071 2.22675 4.05312 0 0 0 0 128 0 255
3.36344 0.912275 4.05312 0 0 0 0 128 0 255
3.3604 0.914362 4.05565 0 0 0 0 128 0 255
3.39072 2.01094 4.05628 0 0 0 0 128 0 255
3.36212 1.00235 4.05628 0 0 0 0 128 0 255
3.38928 2.01499 4.05755 0 0 0 0 128 0 255
3.37577 1.5932 4.05881 0 0 0 0 128 0 255
3.35527 1.3897 4.07082 0 0 0 0 128 0 255
3.3388 0.808932 4.07082 0 0 0 0 128 0 255
3.34032 0.889921 4.07145 0 0 0 0 128 0 255
3.34938 1.2368 4.07208 0 0 0 0 128 0 255
3.33351 0.759062 4.07397 0 0 0 0 128 0 255
3.33276 0.787095 4.07524 0 0 0 0 128 0 255
3.36179 2.00276 4.07966 0 0 0 0 128 0 255
3.32674 0.766257 4.07966 0 0 0 0 128 0 255
3.32506 0.816324 4.08219 0 0 0 0 128 0 255
3.32429 0.789335 4.08219 0 0 0 0 128 0 255
3.3242 0.813348 4.08282 0 0 0 0 128 0 255
3.32371 0.796354 4.08282 0 0 0 0 128 0 255
3.36136 2.17884 4.08408 0 0 0 0 128 0 255
3.34087 1.53817 4.08598 0 0 0 0 128 0 255
3.32848 1.26541 4.08977 0 0 0 0 128 0 255
3.35452 2.21105 4.0904 0 0 0 0 128 0 255
3.31813 0.927566 4.0904 0 0 0 0 128 0 255
3.31581 0.927631 4.0923 0 0 0 0 128 0 255
3.31201 0.793685 4.0923 0 0 0 0 128 0 255
3.31103 0.78671 4.09293 0 0 0 0 128 0 255
3.31075 0.858747 4.09483 0 0 0 0 128 0 255
3.30247 0.757941 4.09925 0 0 0 0 128 0 255
3.30332 0.842951 4.10051 0 0 0 0 128 0 255
3.32093 1.60076 4.10367 0 0 0 0 128 0 255
3.29821 0.8541 4.10494 0 0 0 0 128 0 255
3.28794 0.765356 4.11125 0 0 0 0 128 0 255
3.28067 0.891613 4.1201 0 0 0 0 128 0 255
3.31447 2.11114 4.12073 0 0 0 0 128 0 255
3.27715 0.849696 4.122 0 0 0 0 128 0 255
3.29778 1.74147 4.12579 0 0 0 0 128 0 255
3.2873 1.91884 4.13842 0 0 0 0 128 0 255
3.24164 0.909726 4.15233 0 0 0 0 128 0 255
3.21122 0.903585 4.17697 0 0 0 0 128 0 255
3.19494 1.01309 4.19277 0 0 0 0 128 0 255
3.16775 1.31198 4.22183 0 0 0 0 128 0 255
3.16667 1.274 4.22183 0 0 0 0 128 0 255
3.12164 1.21725 4.25722 0 0 0 0 128 0 255
3.09596 1.29601 4.27996 0 0 0 0 128 0 255
3.09901 1.59504 4.28439 0 0 0 0 128 0 255
3.08707 1.44732 4.2907 0 0 0 0 128 0 255
3.07731 1.51363 4.30018 0 0 0 0 128 0 255
3.07545 1.58471 4.30334 0 0 0 0 128 0 255
3.06999 1.61087 4.3084 0 0 0 0 128 0 255
3.01906 1.61932 4.3501 0 0 0 0 128 0 255
