ply
format ascii 1.0
comment VCGLIB generated
element vertex 544
property float x
property float y
property float z
property float nx
property float ny
property float nz
property uchar red
property uchar green
property uchar blue
property uchar alpha
element face 0
property list uchar int vertex_indices
end_header
0.543997 0.110946 4.28892 0 0 0 0 128 128 255
0.731306 0.129856 4.29021 0 0 0 0 128 128 255
0.727502 0.146551 4.2924 0 0 0 0 128 128 255
0.580576 0.141491 4.29266 0 0 0 0 128 128 255
0.575392 0.145214 4.29318 0 0 0 0 128 128 255
0.712092 0.154747 4.29356 0 0 0 0 128 128 255
0.71604 0.155929 4.29369 0 0 0 0 128 128 255
0.574679 0.160071 4.29511 0 0 0 0 128 128 255
0.689215 0.172513 4.29601 0 0 0 0 128 128 255
0.529496 0.204566 4.30117 0 0 0 0 128 128 255
0.531399 0.206643 4.30142 0 0 0 0 128 128 255
1.05518 0.286364 4.30851 0 0 0 0 128 128 255
1.05899 0.290518 4.30903 0 0 0 0 128 128 255
0.942028 0.307744 4.31199 0 0 0 0 128 128 255
1.25862 0.323918 4.31212 0 0 0 0 128 128 255
0.410448 0.286224 4.31251 0 0 0 0 128 128 255
1.28716 0.334221 4.31328 0 0 0 0 128 128 255
1.34704 0.338086 4.31341 0 0 0 0 128 128 255
1.56474 0.349518 4.31354 0 0 0 0 128 128 255
0.406025 0.294947 4.31367 0 0 0 0 128 128 255
1.09918 0.329179 4.3138 0 0 0 0 128 128 255
1.40083 0.343644 4.3138 0 0 0 0 128 128 255
0.403933 0.296833 4.31392 0 0 0 0 128 128 255
1.36083 0.342718 4.31392 0 0 0 0 128 128 255
1.3478 0.343086 4.31405 0 0 0 0 128 128 255
1.55257 0.352905 4.31405 0 0 0 0 128 128 255
1.71738 0.360808 4.31405 0 0 0 0 128 128 255
1.17196 0.335647 4.31418 0 0 0 0 128 128 255
1.44264 0.348627 4.31418 0 0 0 0 128 128 255
1.70834 0.361368 4.31418 0 0 0 0 128 128 255
1.55547 0.35503 4.31431 0 0 0 0 128 128 255
1.37762 0.347495 4.31444 0 0 0 0 128 128 255
1.63233 0.359709 4.31444 0 0 0 0 128 128 255
1.48246 0.353515 4.31457 0 0 0 0 128 128 255
1.19174 0.340567 4.3147 0 0 0 0 128 128 255
1.4884 0.354792 4.3147 0 0 0 0 128 128 255
1.68912 0.36541 4.31483 0 0 0 0 128 128 255
1.69711 0.365794 4.31483 0 0 0 0 128 128 255
1.73407 0.367566 4.31483 0 0 0 0 128 128 255
0.942886 0.331612 4.31508 0 0 0 0 128 128 255
1.45425 0.357126 4.31521 0 0 0 0 128 128 255
1.71195 0.369484 4.31521 0 0 0 0 128 128 255
1.70092 0.369947 4.31534 0 0 0 0 128 128 255
1.09457 0.341864 4.31547 0 0 0 0 128 128 255
1.21738 0.348746 4.3156 0 0 0 0 128 128 255
1.50805 0.362684 4.3156 0 0 0 0 128 128 255
1.45301 0.362031 4.31586 0 0 0 0 128 128 255
1.57288 0.367778 4.31586 0 0 0 0 128 128 255
1.26713 0.355103 4.31611 0 0 0 0 128 128 255
0.995397 0.343065 4.31624 0 0 0 0 128 128 255
1.27698 0.358553 4.3165 0 0 0 0 128 128 255
1.19503 0.355616 4.31663 0 0 0 0 128 128 255
1.21595 0.357613 4.31676 0 0 0 0 128 128 255
1.28383 0.36186 4.31689 0 0 0 0 128 128 255
1.22685 0.360121 4.31702 0 0 0 0 128 128 255
1.15184 0.358509 4.31727 0 0 0 0 128 128 255
1.72018 0.385763 4.31727 0 0 0 0 128 128 255
1.70515 0.386035 4.3174 0 0 0 0 128 128 255
1.11569 0.360747 4.31779 0 0 0 0 128 128 255
1.4543 0.376984 4.31779 0 0 0 0 128 128 255
0.948833 0.353739 4.31792 0 0 0 0 128 128 255
1.22043 0.368748 4.31818 0 0 0 0 128 128 255
1.57697 0.386838 4.31831 0 0 0 0 128 128 255
1.05333 0.366692 4.31895 0 0 0 0 128 128 255
1.62449 0.398052 4.31947 0 0 0 0 128 128 255
1.47161 0.391714 4.31959 0 0 0 0 128 128 255
1.71733 0.403497 4.31959 0 0 0 0 128 128 255
0.950023 0.370674 4.32011 0 0 0 0 128 128 255
1.62924 0.403244 4.32011 0 0 0 0 128 128 255
1.6272 0.404139 4.32024 0 0 0 0 128 128 255
1.37644 0.393107 4.32037 0 0 0 0 128 128 255
1.56508 0.405131 4.32075 0 0 0 0 128 128 255
1.3752 0.398012 4.32101 0 0 0 0 128 128 255
1.47704 0.403888 4.32114 0 0 0 0 128 128 255
1.49088 0.40753 4.32153 0 0 0 0 128 128 255
1.18518 0.393864 4.32166 0 0 0 0 128 128 255
1.23308 0.397153 4.32178 0 0 0 0 128 128 255
1.29101 0.399931 4.32178 0 0 0 0 128 128 255
1.44679 0.408394 4.32191 0 0 0 0 128 128 255
1.47076 0.409543 4.32191 0 0 0 0 128 128 255
1.17895 0.398529 4.3223 0 0 0 0 128 128 255
1.5695 0.417257 4.3223 0 0 0 0 128 128 255
1.22985 0.401962 4.32243 0 0 0 0 128 128 255
1.37268 0.408812 4.32243 0 0 0 0 128 128 255
1.60441 0.419924 4.32243 0 0 0 0 128 128 255
1.11493 0.397444 4.32256 0 0 0 0 128 128 255
1.0969 0.397573 4.32269 0 0 0 0 128 128 255
1.54824 0.422194 4.32307 0 0 0 0 128 128 255
1.68708 0.428852 4.32307 0 0 0 0 128 128 255
1.29449 0.411019 4.3232 0 0 0 0 128 128 255
1.48921 0.421349 4.32333 0 0 0 0 128 128 255
1.23441 0.411116 4.32359 0 0 0 0 128 128 255
1.40217 0.420154 4.32372 0 0 0 0 128 128 255
1.68884 0.4339 4.32372 0 0 0 0 128 128 255
0.983558 0.402066 4.32398 0 0 0 0 128 128 255
1.45302 0.424577 4.32398 0 0 0 0 128 128 255
1.45397 0.425616 4.3241 0 0 0 0 128 128 255
1.50791 0.428202 4.3241 0 0 0 0 128 128 255
1.56185 0.430789 4.3241 0 0 0 0 128 128 255
1.49787 0.428714 4.32423 0 0 0 0 128 128 255
1.70454 0.44061 4.32449 0 0 0 0 128 128 255
1.04625 0.410036 4.32462 0 0 0 0 128 128 255
1.46743 0.437182 4.32552 0 0 0 0 128 128 255
1.64922 0.4459 4.32552 0 0 0 0 128 128 255
1.33064 0.450479 4.3281 0 0 0 0 128 128 255
1.34624 0.459169 4.32913 0 0 0 0 128 128 255
0.525087 0.421779 4.32939 0 0 0 0 128 128 255
1.34315 0.461007 4.32939 0 0 0 0 128 128 255
0.444277 0.436767 4.33184 0 0 0 0 128 128 255
1.21387 0.484591 4.33325 0 0 0 0 128 128 255
1.34163 0.492703 4.33351 0 0 0 0 128 128 255
1.17173 0.486542 4.33377 0 0 0 0 128 128 255
0.448511 0.452855 4.3339 0 0 0 0 128 128 255
1.07275 0.483781 4.33403 0 0 0 0 128 128 255
1.0795 0.489069 4.33467 0 0 0 0 128 128 255
1.15741 0.492805 4.33467 0 0 0 0 128 128 255
1.15941 0.492901 4.33467 0 0 0 0 128 128 255
1.04944 0.489613 4.33493 0 0 0 0 128 128 255
1.05938 0.491083 4.33506 0 0 0 0 128 128 255
1.08526 0.494309 4.33532 0 0 0 0 128 128 255
1.05524 0.493863 4.33544 0 0 0 0 128 128 255
1.06209 0.497169 4.33583 0 0 0 0 128 128 255
1.15137 0.514357 4.33751 0 0 0 0 128 128 255
1.40094 0.529303 4.33789 0 0 0 0 128 128 255
1.08512 0.518129 4.33841 0 0 0 0 128 128 255
1.26467 0.531704 4.33905 0 0 0 0 128 128 255
1.2865 0.535729 4.33944 0 0 0 0 128 128 255
1.42434 0.542339 4.33944 0 0 0 0 128 128 255
1.33825 0.542182 4.33995 0 0 0 0 128 128 255
1.39914 0.546094 4.34008 0 0 0 0 128 128 255
1.09144 0.532332 4.34021 0 0 0 0 128 128 255
1.48994 0.552434 4.34034 0 0 0 0 128 128 255
1.56185 0.555882 4.34034 0 0 0 0 128 128 255
1.29911 0.544276 4.34047 0 0 0 0 128 128 255
1.20113 0.541563 4.34073 0 0 0 0 128 128 255
1.42772 0.555407 4.34111 0 0 0 0 128 128 255
1.53355 0.561475 4.34124 0 0 0 0 128 128 255
1.55049 0.56328 4.34137 0 0 0 0 128 128 255
1.24978 0.549853 4.3415 0 0 0 0 128 128 255
1.42354 0.559178 4.34163 0 0 0 0 128 128 255
1.51044 0.563345 4.34163 0 0 0 0 128 128 255
1.2407 0.551403 4.34176 0 0 0 0 128 128 255
1.54935 0.566203 4.34176 0 0 0 0 128 128 255
1.20859 0.552842 4.34215 0 0 0 0 128 128 255
1.27951 0.556242 4.34215 0 0 0 0 128 128 255
1.34344 0.559308 4.34215 0 0 0 0 128 128 255
1.34021 0.564117 4.34279 0 0 0 0 128 128 255
1.56495 0.574894 4.34279 0 0 0 0 128 128 255
1.25126 0.560844 4.34292 0 0 0 0 128 128 255
1.42306 0.569083 4.34292 0 0 0 0 128 128 255
1.11637 0.555369 4.34305 0 0 0 0 128 128 255
1.5268 0.577036 4.34331 0 0 0 0 128 128 255
1.54174 0.578745 4.34343 0 0 0 0 128 128 255
1.12117 0.55957 4.34356 0 0 0 0 128 128 255
1.54759 0.582004 4.34382 0 0 0 0 128 128 255
1.09596 0.563326 4.34421 0 0 0 0 128 128 255
1.10286 0.565642 4.34446 0 0 0 0 128 128 255
1.38744 0.581274 4.34472 0 0 0 0 128 128 255
1.4204 0.582854 4.34472 0 0 0 0 128 128 255
1.53413 0.591286 4.34511 0 0 0 0 128 128 255
0.477293 0.541601 4.34524 0 0 0 0 128 128 255
1.27923 0.583035 4.34562 0 0 0 0 128 128 255
1.10029 0.577432 4.34601 0 0 0 0 128 128 255
1.46483 0.595906 4.34614 0 0 0 0 128 128 255
1.41469 0.597473 4.34666 0 0 0 0 128 128 255
1.29464 0.595687 4.34717 0 0 0 0 128 128 255
1.19866 0.59307 4.34743 0 0 0 0 128 128 255
1.41636 0.604502 4.34756 0 0 0 0 128 128 255
1.26644 0.599299 4.34782 0 0 0 0 128 128 255
1.10857 0.592721 4.34794 0 0 0 0 128 128 255
0.486237 0.563872 4.34807 0 0 0 0 128 128 255
1.10353 0.593472 4.34807 0 0 0 0 128 128 255
1.55101 0.61493 4.34807 0 0 0 0 128 128 255
0.473204 0.56424 4.3482 0 0 0 0 128 128 255
0.489186 0.565006 4.3482 0 0 0 0 128 128 255
1.2563 0.601791 4.3482 0 0 0 0 128 128 255
1.28827 0.603324 4.3482 0 0 0 0 128 128 255
1.19832 0.600004 4.34833 0 0 0 0 128 128 255
1.49774 0.619326 4.34898 0 0 0 0 128 128 255
1.21088 0.609541 4.34949 0 0 0 0 128 128 255
1.55449 0.626018 4.34949 0 0 0 0 128 128 255
1.33165 0.617318 4.34975 0 0 0 0 128 128 255
1.45251 0.623113 4.34975 0 0 0 0 128 128 255
1.33155 0.619299 4.35001 0 0 0 0 128 128 255
1.27952 0.618789 4.35026 0 0 0 0 128 128 255
0.465262 0.583715 4.35078 0 0 0 0 128 128 255
1.437 0.633291 4.35117 0 0 0 0 128 128 255
0.484003 0.589578 4.35142 0 0 0 0 128 128 255
0.480959 0.590424 4.35155 0 0 0 0 128 128 255
0.493659 0.59699 4.35233 0 0 0 0 128 128 255
0.46964 0.61768 4.35516 0 0 0 0 128 128 255
1.13716 0.68543 4.3598 0 0 0 0 128 128 255
1.14016 0.685574 4.3598 0 0 0 0 128 128 255
1.61633 0.714364 4.36057 0 0 0 0 128 128 255
1.3845 0.705233 4.36083 0 0 0 0 128 128 255
1.4674 0.709208 4.36083 0 0 0 0 128 128 255
1.18168 0.6965 4.36096 0 0 0 0 128 128 255
1.5163 0.712546 4.36096 0 0 0 0 128 128 255
1.21959 0.699311 4.36109 0 0 0 0 128 128 255
1.54912 0.717098 4.36135 0 0 0 0 128 128 255
1.29336 0.705827 4.36147 0 0 0 0 128 128 255
1.34131 0.708126 4.36147 0 0 0 0 128 128 255
1.26035 0.705237 4.3616 0 0 0 0 128 128 255
1.56986 0.723057 4.36199 0 0 0 0 128 128 255
0.931542 0.693441 4.36212 0 0 0 0 128 128 255
0.945526 0.694111 4.36212 0 0 0 0 128 128 255
0.991473 0.696315 4.36212 0 0 0 0 128 128 255
1.24718 0.708576 4.36212 0 0 0 0 128 128 255
1.51887 0.721604 4.36212 0 0 0 0 128 128 255
1.02325 0.701809 4.36264 0 0 0 0 128 128 255
1.13811 0.707318 4.36264 0 0 0 0 128 128 255
0.932303 0.698441 4.36276 0 0 0 0 128 128 255
1.51259 0.72726 4.36289 0 0 0 0 128 128 255
1.17693 0.712157 4.36302 0 0 0 0 128 128 255
1.3717 0.721497 4.36302 0 0 0 0 128 128 255
1.1569 0.71219 4.36315 0 0 0 0 128 128 255
1.07994 0.709492 4.36328 0 0 0 0 128 128 255
1.02491 0.708839 4.36354 0 0 0 0 128 128 255
1.21369 0.717891 4.36354 0 0 0 0 128 128 255
1.33056 0.723495 4.36354 0 0 0 0 128 128 255
1.64919 0.738775 4.36354 0 0 0 0 128 128 255
1.66318 0.739445 4.36354 0 0 0 0 128 128 255
1.66817 0.739685 4.36354 0 0 0 0 128 128 255
0.93492 0.706509 4.36379 0 0 0 0 128 128 255
1.34645 0.726243 4.36379 0 0 0 0 128 128 255
1.62313 0.73951 4.36379 0 0 0 0 128 128 255
1.27748 0.723928 4.36392 0 0 0 0 128 128 255
0.945765 0.710007 4.36418 0 0 0 0 128 128 255
0.928737 0.710184 4.36431 0 0 0 0 128 128 255
1.0106 0.715102 4.36444 0 0 0 0 128 128 255
0.672935 0.699903 4.36457 0 0 0 0 128 128 255
1.20528 0.726423 4.3647 0 0 0 0 128 128 255
1.41504 0.736481 4.3647 0 0 0 0 128 128 255
1.39601 0.736562 4.36483 0 0 0 0 128 128 255
1.5768 0.745231 4.36483 0 0 0 0 128 128 255
1.00941 0.719016 4.36495 0 0 0 0 128 128 255
1.13027 0.724812 4.36495 0 0 0 0 128 128 255
1.64568 0.749527 4.36495 0 0 0 0 128 128 255
1.03233 0.721108 4.36508 0 0 0 0 128 128 255
1.61566 0.74908 4.36508 0 0 0 0 128 128 255
0.924409 0.716926 4.36521 0 0 0 0 128 128 255
0.942341 0.718779 4.36534 0 0 0 0 128 128 255
1.3279 0.737267 4.36534 0 0 0 0 128 128 255
0.925313 0.718955 4.36547 0 0 0 0 128 128 255
0.992236 0.722164 4.36547 0 0 0 0 128 128 255
1.33784 0.738736 4.36547 0 0 0 0 128 128 255
1.33884 0.738784 4.36547 0 0 0 0 128 128 255
1.17598 0.731968 4.3656 0 0 0 0 128 128 255
1.37375 0.741451 4.3656 0 0 0 0 128 128 255
1.27082 0.737508 4.36573 0 0 0 0 128 128 255
1.5055 0.749755 4.36586 0 0 0 0 128 128 255
1.01202 0.727084 4.36599 0 0 0 0 128 128 255
0.949 0.726048 4.36624 0 0 0 0 128 128 255
0.922982 0.725793 4.36637 0 0 0 0 128 128 255
1.41142 0.749215 4.36637 0 0 0 0 128 128 255
1.31444 0.746549 4.36663 0 0 0 0 128 128 255
1.17346 0.742768 4.36702 0 0 0 0 128 128 255
1.43016 0.755077 4.36702 0 0 0 0 128 128 255
1.07448 0.740007 4.36727 0 0 0 0 128 128 255
1.61585 0.765967 4.36727 0 0 0 0 128 128 255
1.12337 0.743344 4.3674 0 0 0 0 128 128 255
0.665565 0.728341 4.36831 0 0 0 0 128 128 255
0.742334 0.735001 4.36869 0 0 0 0 128 128 255
0.748327 0.735288 4.36869 0 0 0 0 128 128 255
0.647396 0.731441 4.36882 0 0 0 0 128 128 255
0.729778 0.746312 4.37024 0 0 0 0 128 128 255
-0.0556525 0.715598 4.37114 0 0 0 0 128 128 255
0.668515 0.750324 4.37114 0 0 0 0 128 128 255
0.723357 0.754939 4.3714 0 0 0 0 128 128 255
0.736057 0.761505 4.37217 0 0 0 0 128 128 255
0.67703 0.76066 4.37243 0 0 0 0 128 128 255
0.660906 0.762866 4.37282 0 0 0 0 128 128 255
0.705807 0.766011 4.37294 0 0 0 0 128 128 255
0.746665 0.769956 4.3732 0 0 0 0 128 128 255
0.70966 0.769175 4.37333 0 0 0 0 128 128 255
0.243053 0.749778 4.37372 0 0 0 0 128 128 255
1.65324 0.821371 4.37423 0 0 0 0 128 128 255
0.716891 0.785406 4.37539 0 0 0 0 128 128 255
0.715702 0.78932 4.37591 0 0 0 0 128 128 255
0.525872 0.78121 4.37604 0 0 0 0 128 128 255
1.04218 0.807954 4.37629 0 0 0 0 128 128 255
1.18697 0.81589 4.37642 0 0 0 0 128 128 255
0.704477 0.793746 4.37655 0 0 0 0 128 128 255
1.06906 0.811229 4.37655 0 0 0 0 128 128 255
1.7243 0.842649 4.37655 0 0 0 0 128 128 255
1.09198 0.813321 4.37668 0 0 0 0 128 128 255
1.13988 0.81661 4.37681 0 0 0 0 128 128 255
1.25375 0.822071 4.37681 0 0 0 0 128 128 255
1.4755 0.832704 4.37681 0 0 0 0 128 128 255
1.69924 0.843433 4.37681 0 0 0 0 128 128 255
0.0201205 0.763908 4.37694 0 0 0 0 128 128 255
0.0231171 0.764052 4.37694 0 0 0 0 128 128 255
0.711326 0.797053 4.37694 0 0 0 0 128 128 255
1.52639 0.836137 4.37694 0 0 0 0 128 128 255
0.995952 0.811694 4.37707 0 0 0 0 128 128 255
1.0429 0.813945 4.37707 0 0 0 0 128 128 255
1.13879 0.818544 4.37707 0 0 0 0 128 128 255
1.24067 0.823429 4.37707 0 0 0 0 128 128 255
1.4774 0.834781 4.37707 0 0 0 0 128 128 255
0.711231 0.799034 4.3772 0 0 0 0 128 128 255
1.41138 0.833601 4.37733 0 0 0 0 128 128 255
1.58118 0.841743 4.37733 0 0 0 0 128 128 255
0.99481 0.814618 4.37745 0 0 0 0 128 128 255
1.33528 0.833923 4.37784 0 0 0 0 128 128 255
1.67688 0.850303 4.37784 0 0 0 0 128 128 255
1.4471 0.840278 4.37797 0 0 0 0 128 128 255
1.51298 0.844429 4.3781 0 0 0 0 128 128 255
1.69776 0.85329 4.3781 0 0 0 0 128 128 255
0.0206444 0.773861 4.37823 0 0 0 0 128 128 255
0.500094 0.796852 4.37823 0 0 0 0 128 128 255
0.878658 0.815005 4.37823 0 0 0 0 128 128 255
1.25822 0.833206 4.37823 0 0 0 0 128 128 255
0.0166016 0.77466 4.37836 0 0 0 0 128 128 255
0.877565 0.816938 4.37849 0 0 0 0 128 128 255
1.37999 0.841031 4.37849 0 0 0 0 128 128 255
1.11524 0.829328 4.37861 0 0 0 0 128 128 255
1.65363 0.855145 4.37861 0 0 0 0 128 128 255
1.0233 0.825912 4.37874 0 0 0 0 128 128 255
1.16814 0.832857 4.37874 0 0 0 0 128 128 255
1.40686 0.844305 4.37874 0 0 0 0 128 128 255
1.60663 0.853884 4.37874 0 0 0 0 128 128 255
0.916377 0.821778 4.37887 0 0 0 0 128 128 255
1.02525 0.826999 4.37887 0 0 0 0 128 128 255
1.16609 0.833752 4.37887 0 0 0 0 128 128 255
1.65453 0.857174 4.37887 0 0 0 0 128 128 255
0.875377 0.820804 4.379 0 0 0 0 128 128 255
0.963276 0.825019 4.379 0 0 0 0 128 128 255
1.1191 0.832491 4.379 0 0 0 0 128 128 255
1.21798 0.837233 4.379 0 0 0 0 128 128 255
1.10207 0.832668 4.37913 0 0 0 0 128 128 255
1.07106 0.832173 4.37926 0 0 0 0 128 128 255
1.32976 0.844579 4.37926 0 0 0 0 128 128 255
0.708426 0.815777 4.37939 0 0 0 0 128 128 255
1.45357 0.851509 4.37939 0 0 0 0 128 128 255
1.55745 0.85649 4.37939 0 0 0 0 128 128 255
0.883178 0.82515 4.37952 0 0 0 0 128 128 255
1.01103 0.831281 4.37952 0 0 0 0 128 128 255
1.51046 0.855229 4.37952 0 0 0 0 128 128 255
1.55141 0.857193 4.37952 0 0 0 0 128 128 255
1.65329 0.862079 4.37952 0 0 0 0 128 128 255
0.873142 0.825661 4.37965 0 0 0 0 128 128 255
1.09489 0.836294 4.37965 0 0 0 0 128 128 255
1.56035 0.858615 4.37965 0 0 0 0 128 128 255
1.2157 0.843081 4.37977 0 0 0 0 128 128 255
0.919993 0.829894 4.3799 0 0 0 0 128 128 255
0.970934 0.832336 4.3799 0 0 0 0 128 128 255
1.11777 0.839377 4.3799 0 0 0 0 128 128 255
1.50132 0.85777 4.3799 0 0 0 0 128 128 255
1.60116 0.86355 4.38003 0 0 0 0 128 128 255
0.97279 0.835404 4.38029 0 0 0 0 128 128 255
1.07068 0.840098 4.38029 0 0 0 0 128 128 255
1.49219 0.86031 4.38029 0 0 0 0 128 128 255
0.520262 0.814697 4.38042 0 0 0 0 128 128 255
0.874855 0.8317 4.38042 0 0 0 0 128 128 255
1.60002 0.866474 4.38042 0 0 0 0 128 128 255
-0.0761003 0.787092 4.38055 0 0 0 0 128 128 255
0.528205 0.81607 4.38055 0 0 0 0 128 128 255
0.534198 0.816358 4.38055 0 0 0 0 128 128 255
0.547184 0.81698 4.38055 0 0 0 0 128 128 255
0.52616 0.816965 4.38068 0 0 0 0 128 128 255
0.529157 0.817109 4.38068 0 0 0 0 128 128 255
0.919708 0.835837 4.38068 0 0 0 0 128 128 255
1.02559 0.840914 4.38068 0 0 0 0 128 128 255
0.962611 0.838887 4.38081 0 0 0 0 128 128 255
0.246291 0.807516 4.38119 0 0 0 0 128 128 255
0.530822 0.824138 4.38158 0 0 0 0 128 128 255
0.0233099 0.801787 4.38184 0 0 0 0 128 128 255
0.536721 0.847256 4.38454 0 0 0 0 128 128 255
0.674183 0.86179 4.38557 0 0 0 0 128 128 255
0.881089 0.889582 4.38789 0 0 0 0 128 128 255
0.872956 0.89217 4.38828 0 0 0 0 128 128 255
0.876381 0.904248 4.38983 0 0 0 0 128 128 255
0.88404 0.911565 4.39073 0 0 0 0 128 128 255
0.887036 0.911708 4.39073 0 0 0 0 128 128 255
0.928893 0.915701 4.39099 0 0 0 0 128 128 255
0.921759 0.918338 4.39137 0 0 0 0 128 128 255
0.923281 0.928339 4.39266 0 0 0 0 128 128 255
0.560081 0.923829 4.39434 0 0 0 0 128 128 255
1.00847 0.968165 4.3973 0 0 0 0 128 128 255
0.932321 0.969477 4.39794 0 0 0 0 128 128 255
0.796195 1.0106 4.40413 0 0 0 0 128 128 255
0.102659 0.984297 4.40503 0 0 0 0 128 128 255
0.812701 1.02132 4.40542 0 0 0 0 128 128 255
0.811607 1.02326 4.40568 0 0 0 0 128 128 255
0.892419 1.02912 4.40593 0 0 0 0 128 128 255
0.123208 0.994217 4.40619 0 0 0 0 128 128 255
0.805234 1.03089 4.40671 0 0 0 0 128 128 255
0.406359 1.01872 4.40761 0 0 0 0 128 128 255
0.403268 1.02055 4.40787 0 0 0 0 128 128 255
0.15541 1.01165 4.40825 0 0 0 0 128 128 255
0.510716 1.03464 4.40903 0 0 0 0 128 128 255
0.790062 1.05499 4.40993 0 0 0 0 128 128 255
0.795818 1.06023 4.41057 0 0 0 0 128 128 255
0.812799 1.06104 4.41057 0 0 0 0 128 128 255
0.508006 1.0494 4.41096 0 0 0 0 128 128 255
0.517805 1.05384 4.41148 0 0 0 0 128 128 255
0.800385 1.06938 4.41173 0 0 0 0 128 128 255
0.831159 1.07483 4.41225 0 0 0 0 128 128 255
0.499255 1.06487 4.41302 0 0 0 0 128 128 255
0.827878 1.08063 4.41302 0 0 0 0 128 128 255
0.493072 1.06854 4.41354 0 0 0 0 128 128 255
0.833586 1.08686 4.41379 0 0 0 0 128 128 255
-0.0500646 1.05838 4.4156 0 0 0 0 128 128 255
0.830923 1.10063 4.4156 0 0 0 0 128 128 255
-0.11147 1.06537 4.41689 0 0 0 0 128 128 255
-0.0525372 1.06819 4.41689 0 0 0 0 128 128 255
1.04316 1.12173 4.41702 0 0 0 0 128 128 255
1.08311 1.12364 4.41702 0 0 0 0 128 128 255
1.06399 1.1257 4.4174 0 0 0 0 128 128 255
0.832161 1.11657 4.41766 0 0 0 0 128 128 255
1.09053 1.13591 4.41856 0 0 0 0 128 128 255
1.24226 1.14517 4.41882 0 0 0 0 128 128 255
1.07132 1.13995 4.41921 0 0 0 0 128 128 255
1.05429 1.14013 4.41934 0 0 0 0 128 128 255
-0.0455439 1.08938 4.41959 0 0 0 0 128 128 255
1.01481 1.14916 4.42075 0 0 0 0 128 128 255
0.836919 1.14261 4.42101 0 0 0 0 128 128 255
1.19903 1.16991 4.4223 0 0 0 0 128 128 255
0.847384 1.15404 4.42243 0 0 0 0 128 128 255
1.15104 1.1686 4.42243 0 0 0 0 128 128 255
1.00853 1.17566 4.42423 0 0 0 0 128 128 255
1.0561 1.18589 4.42526 0 0 0 0 128 128 255
0.729283 1.17419 4.42578 0 0 0 0 128 128 255
0.902182 1.22219 4.43093 0 0 0 0 128 128 255
0.933099 1.22466 4.43106 0 0 0 0 128 128 255
1.20431 1.2476 4.43235 0 0 0 0 128 128 255
1.21278 1.25892 4.43377 0 0 0 0 128 128 255
0.0739928 1.2063 4.43403 0 0 0 0 128 128 255
0.0799384 1.20758 4.43416 0 0 0 0 128 128 255
0.0928761 1.20919 4.43428 0 0 0 0 128 128 255
1.02542 1.26185 4.43532 0 0 0 0 128 128 255
0.983377 1.26182 4.43557 0 0 0 0 128 128 255
1.01624 1.26538 4.43583 0 0 0 0 128 128 255
1.15875 1.27917 4.43673 0 0 0 0 128 128 255
1.23266 1.28271 4.43673 0 0 0 0 128 128 255
0.515439 1.24931 4.43686 0 0 0 0 128 128 255
1.01087 1.27307 4.43686 0 0 0 0 128 128 255
1.1587 1.28016 4.43686 0 0 0 0 128 128 255
0.327608 1.2413 4.43699 0 0 0 0 128 128 255
1.02871 1.2769 4.43725 0 0 0 0 128 128 255
0.998646 1.27745 4.43751 0 0 0 0 128 128 255
0.499078 1.25647 4.43789 0 0 0 0 128 128 255
1.04046 1.28243 4.43789 0 0 0 0 128 128 255
1.03032 1.28492 4.43828 0 0 0 0 128 128 255
1.03313 1.28903 4.43879 0 0 0 0 128 128 255
1.19157 1.30457 4.43983 0 0 0 0 128 128 255
1.10357 1.30234 4.44008 0 0 0 0 128 128 255
1.09639 1.30596 4.4406 0 0 0 0 128 128 255
1.04716 1.30956 4.44137 0 0 0 0 128 128 255
1.20199 1.31698 4.44137 0 0 0 0 128 128 255
1.14049 1.32595 4.44292 0 0 0 0 128 128 255
1.13535 1.32868 4.4433 0 0 0 0 128 128 255
1.10558 1.34413 4.4455 0 0 0 0 128 128 255
1.1021 1.35389 4.44678 0 0 0 0 128 128 255
1.10995 1.35724 4.44717 0 0 0 0 128 128 255
0.505885 1.34416 4.44923 0 0 0 0 128 128 255
1.11409 1.37531 4.44949 0 0 0 0 128 128 255
1.2849 1.3835 4.44949 0 0 0 0 128 128 255
1.10387 1.37979 4.45013 0 0 0 0 128 128 255
1.04688 1.37805 4.45026 0 0 0 0 128 128 255
1.11576 1.38234 4.45039 0 0 0 0 128 128 255
1.11362 1.38522 4.45078 0 0 0 0 128 128 255
0.3035 1.34736 4.45091 0 0 0 0 128 128 255
1.08146 1.38765 4.45129 0 0 0 0 128 128 255
1.05326 1.39126 4.45194 0 0 0 0 128 128 255
0.302977 1.35826 4.45233 0 0 0 0 128 128 255
1.13084 1.40193 4.45284 0 0 0 0 128 128 255
1.15956 1.40827 4.45349 0 0 0 0 128 128 255
1.20946 1.41166 4.45361 0 0 0 0 128 128 255
1.01649 1.40637 4.45413 0 0 0 0 128 128 255
0.985385 1.40786 4.45452 0 0 0 0 128 128 255
1.21964 1.42902 4.4558 0 0 0 0 128 128 255
0.999845 1.41948 4.45593 0 0 0 0 128 128 255
1.02172 1.42251 4.45619 0 0 0 0 128 128 255
0.987526 1.42583 4.45684 0 0 0 0 128 128 255
1.21389 1.44463 4.45787 0 0 0 0 128 128 255
0.958846 1.43935 4.45877 0 0 0 0 128 128 255
1.0037 1.44349 4.45903 0 0 0 0 128 128 255
1.33313 1.46326 4.45954 0 0 0 0 128 128 255
0.957372 1.44921 4.46006 0 0 0 0 128 128 255
1.04513 1.4564 4.46044 0 0 0 0 128 128 255
0.982153 1.45437 4.46057 0 0 0 0 128 128 255
1.05497 1.45985 4.46083 0 0 0 0 128 128 255
1.2028 1.46693 4.46083 0 0 0 0 128 128 255
0.984913 1.45946 4.46122 0 0 0 0 128 128 255
0.950714 1.46279 4.46186 0 0 0 0 128 128 255
0.952569 1.46586 4.46225 0 0 0 0 128 128 255
1.20704 1.48302 4.46289 0 0 0 0 128 128 255
0.987149 1.47546 4.46328 0 0 0 0 128 128 255
0.997614 1.48688 4.4647 0 0 0 0 128 128 255
1.2059 1.50679 4.46599 0 0 0 0 128 128 255
0.0621657 1.45294 4.46611 0 0 0 0 128 128 255
1.3367 1.51406 4.46611 0 0 0 0 128 128 255
1.33661 1.51604 4.46637 0 0 0 0 128 128 255
0.0650687 1.47592 4.46908 0 0 0 0 128 128 255
0.413288 1.50056 4.47011 0 0 0 0 128 128 255
0.797751 1.52098 4.47037 0 0 0 0 128 128 255
1.17689 1.54809 4.47153 0 0 0 0 128 128 255
0.77416 1.53275 4.47204 0 0 0 0 128 128 255
0.717655 1.54196 4.47359 0 0 0 0 128 128 255
0.757514 1.54585 4.47385 0 0 0 0 128 128 255
0.735206 1.55173 4.47475 0 0 0 0 128 128 255
0.775589 1.56558 4.47629 0 0 0 0 128 128 255
0.756613 1.58552 4.479 0 0 0 0 128 128 255
0.766506 1.58798 4.47926 0 0 0 0 128 128 255
0.484451 1.60325 4.483 0 0 0 0 128 128 255
0.440408 1.62397 4.48596 0 0 0 0 128 128 255
0.427376 1.62434 4.48609 0 0 0 0 128 128 255
0.48374 1.63896 4.48763 0 0 0 0 128 128 255
0.699255 1.65425 4.48828 0 0 0 0 128 128 255
0.427377 1.64519 4.48879 0 0 0 0 128 128 255
0.428186 1.6492 4.48931 0 0 0 0 128 128 255
0.689648 1.6667 4.48995 0 0 0 0 128 128 255
0.414203 1.66938 4.49202 0 0 0 0 128 128 255
0.419007 1.67358 4.49253 0 0 0 0 128 128 255
0.416297 1.68834 4.49446 0 0 0 0 128 128 255
0.497109 1.6942 4.49472 0 0 0 0 128 128 255
0.671908 1.70258 4.49472 0 0 0 0 128 128 255
1.30238 1.74969 4.49691 0 0 0 0 128 128 255
1.3 1.75752 4.49794 0 0 0 0 128 128 255
0.697881 1.74553 4.50013 0 0 0 0 128 128 255
1.22742 1.78879 4.50245 0 0 0 0 128 128 255
1.19783 1.80028 4.50413 0 0 0 0 128 128 255
1.22357 1.80648 4.50477 0 0 0 0 128 128 255
1.17457 1.80512 4.5049 0 0 0 0 128 128 255
1.20659 1.82651 4.50748 0 0 0 0 128 128 255
1.20787 1.84146 4.50941 0 0 0 0 128 128 255
0.646327 1.81851 4.50993 0 0 0 0 128 128 255
0.898037 1.83058 4.50993 0 0 0 0 128 128 255
0.483466 1.81169 4.51006 0 0 0 0 128 128 255
0.960443 1.84449 4.51135 0 0 0 0 128 128 255
1.17073 1.8645 4.51263 0 0 0 0 128 128 255
1.22034 1.87383 4.51354 0 0 0 0 128 128 255
0.952548 1.86298 4.51379 0 0 0 0 128 128 255
0.954546 1.86307 4.51379 0 0 0 0 128 128 255
1.15208 1.87751 4.51444 0 0 0 0 128 128 255
1.12882 1.88235 4.51521 0 0 0 0 128 128 255
1.14071 1.8849 4.51547 0 0 0 0 128 128 255
0.992599 1.88376 4.51624 0 0 0 0 128 128 255
1.14937 1.89227 4.51637 0 0 0 0 128 128 255
1.11812 1.89673 4.51714 0 0 0 0 128 128 255
0.759345 1.90434 4.52037 0 0 0 0 128 128 255
0.785032 1.93238 4.52385 0 0 0 0 128 128 255
0.823939 1.93524 4.52397 0 0 0 0 128 128 255
