ply
format ascii 1.0
comment VCGLIB generated
element vertex 568
property float x
property float y
property float z
property float nx
property float ny
property float nz
property uchar red
property uchar green
property uchar blue
property uchar alpha
element face 0
property list uchar int vertex_indices
end_header
0.10835 1.57602 3.662 0 0 0 255 255 0 255
0.134701 1.54021 3.59835 0 0 0 255 255 0 255
0.143596 1.53276 3.58672 0 0 0 255 255 0 255
0.135373 1.5408 3.54463 0 0 0 255 255 0 255
0.226973 1.52441 3.737 0 0 0 255 255 0 255
0.231296 1.51108 3.71254 0 0 0 255 255 0 255
0.237526 1.50983 3.71567 0 0 0 255 255 0 255
0.146315 1.53415 3.53156 0 0 0 255 255 0 255
0.165993 1.51744 3.56358 0 0 0 255 255 0 255
0.235756 1.49404 3.66792 0 0 0 255 255 0 255
0.160067 1.52393 3.53504 0 0 0 255 255 0 255
0.179128 1.50976 3.55714 0 0 0 255 255 0 255
0.179973 1.51827 3.4992 0 0 0 255 255 0 255
0.255083 1.47555 3.58191 0 0 0 255 255 0 255
0.26038 1.47447 3.5575 0 0 0 255 255 0 255
0.410634 1.54588 3.81438 0 0 0 255 255 0 255
0.423348 1.51249 3.76347 0 0 0 255 255 0 255
0.426218 1.52896 3.78854 0 0 0 255 255 0 255
0.195176 1.52394 3.45454 0 0 0 255 255 0 255
0.440094 1.51495 3.76191 0 0 0 255 255 0 255
0.437213 1.55781 3.82206 0 0 0 255 255 0 255
0.440964 1.5506 3.81256 0 0 0 255 255 0 255
0.420033 1.58425 3.85271 0 0 0 255 255 0 255
0.201336 1.52628 3.44098 0 0 0 255 255 0 255
0.442898 1.48048 3.67993 0 0 0 255 255 0 255
0.474862 1.54718 3.79471 0 0 0 255 255 0 255
0.47809 1.50111 3.71185 0 0 0 255 255 0 255
0.470464 1.49023 3.68862 0 0 0 255 255 0 255
0.470155 1.48835 3.68293 0 0 0 255 255 0 255
0.495625 1.51589 3.73061 0 0 0 255 255 0 255
0.218638 1.51931 3.43687 0 0 0 255 255 0 255
0.240332 1.5006 3.46043 0 0 0 255 255 0 255
0.488312 1.5941 3.83959 0 0 0 255 255 0 255
0.517353 1.52073 3.72048 0 0 0 255 255 0 255
0.493208 1.60543 3.84724 0 0 0 255 255 0 255
0.518364 1.58075 3.80984 0 0 0 255 255 0 255
0.529457 1.53154 3.73012 0 0 0 255 255 0 255
0.265904 1.49023 3.46542 0 0 0 255 255 0 255
0.545883 1.53099 3.70928 0 0 0 255 255 0 255
0.234523 1.52115 3.41814 0 0 0 255 255 0 255
0.556626 1.56614 3.76022 0 0 0 255 255 0 255
0.39686 1.46074 3.54596 0 0 0 255 255 0 255
0.229819 1.52818 3.40883 0 0 0 255 255 0 255
0.519091 1.49656 3.64266 0 0 0 255 255 0 255
0.275043 1.49207 3.45263 0 0 0 255 255 0 255
0.562086 1.58073 3.77461 0 0 0 255 255 0 255
0.541075 1.50995 3.65442 0 0 0 255 255 0 255
0.560076 1.52886 3.68145 0 0 0 255 255 0 255
0.26144 1.50475 3.43137 0 0 0 255 255 0 255
0.571586 1.60003 3.78825 0 0 0 255 255 0 255
0.537184 1.50334 3.63168 0 0 0 255 255 0 255
0.574838 1.60596 3.79151 0 0 0 255 255 0 255
0.406211 1.46352 3.52843 0 0 0 255 255 0 255
0.577085 1.60588 3.78922 0 0 0 255 255 0 255
0.500747 1.48294 3.58859 0 0 0 255 255 0 255
0.49547 1.48083 3.58165 0 0 0 255 255 0 255
0.577673 1.53314 3.65681 0 0 0 255 255 0 255
0.538203 1.50084 3.60805 0 0 0 255 255 0 255
0.249239 1.52664 3.39729 0 0 0 255 255 0 255
0.576796 1.66146 3.83645 0 0 0 255 255 0 255
0.570999 1.67368 3.84857 0 0 0 255 255 0 255
0.618265 1.6281 3.76575 0 0 0 255 255 0 255
0.426388 1.47018 3.50467 0 0 0 255 255 0 255
0.324325 1.48584 3.44337 0 0 0 255 255 0 255
0.528806 1.49519 3.56131 0 0 0 255 255 0 255
0.262749 1.52352 3.39429 0 0 0 255 255 0 255
0.283118 1.51127 3.40516 0 0 0 255 255 0 255
0.264962 1.52954 3.38332 0 0 0 255 255 0 255
0.267559 1.5287 3.38327 0 0 0 255 255 0 255
0.547289 1.7224 3.88681 0 0 0 255 255 0 255
0.398615 1.47716 3.46438 0 0 0 255 255 0 255
0.28009 1.52006 3.39108 0 0 0 255 255 0 255
0.301821 1.50574 3.40742 0 0 0 255 255 0 255
0.288287 1.51768 3.39142 0 0 0 255 255 0 255
0.666295 1.6316 3.67964 0 0 0 255 255 0 255
0.569464 1.51972 3.53971 0 0 0 255 255 0 255
0.406525 1.48169 3.45325 0 0 0 255 255 0 255
0.349402 1.49258 3.4221 0 0 0 255 255 0 255
0.571723 1.74572 3.87895 0 0 0 255 255 0 255
0.421702 1.48362 3.4535 0 0 0 255 255 0 255
0.474562 1.48884 3.47516 0 0 0 255 255 0 255
0.423893 1.48441 3.45226 0 0 0 255 255 0 255
0.615308 1.55389 3.54567 0 0 0 255 255 0 255
0.425811 1.48623 3.44816 0 0 0 255 255 0 255
0.338258 1.50121 3.40601 0 0 0 255 255 0 255
0.461966 1.49032 3.4591 0 0 0 255 255 0 255
0.350829 1.49811 3.41041 0 0 0 255 255 0 255
0.383812 1.49081 3.42583 0 0 0 255 255 0 255
0.280202 1.5387 3.36288 0 0 0 255 255 0 255
0.289471 1.53074 3.37048 0 0 0 255 255 0 255
0.280242 1.53937 3.36195 0 0 0 255 255 0 255
0.27949 1.54119 3.3598 0 0 0 255 255 0 255
0.362623 1.49666 3.41255 0 0 0 255 255 0 255
0.682952 1.63318 3.60601 0 0 0 255 255 0 255
0.374524 1.49628 3.41342 0 0 0 255 255 0 255
0.694899 1.71016 3.71134 0 0 0 255 255 0 255
0.449093 1.49327 3.44224 0 0 0 255 255 0 255
0.497584 1.50207 3.4595 0 0 0 255 255 0 255
0.366217 1.49976 3.40633 0 0 0 255 255 0 255
0.700932 1.71336 3.69873 0 0 0 255 255 0 255
0.699006 1.72076 3.71049 0 0 0 255 255 0 255
0.701166 1.71899 3.70339 0 0 0 255 255 0 255
0.506285 1.5071 3.45551 0 0 0 255 255 0 255
0.38578 1.49823 3.41033 0 0 0 255 255 0 255
0.488028 1.50269 3.44818 0 0 0 255 255 0 255
0.273428 1.56088 3.338 0 0 0 255 255 0 255
0.384957 1.49907 3.40858 0 0 0 255 255 0 255
0.667201 1.61015 3.54959 0 0 0 255 255 0 255
0.461848 1.49941 3.43548 0 0 0 255 255 0 255
0.639312 1.77949 3.8293 0 0 0 255 255 0 255
0.701756 1.7382 3.71696 0 0 0 255 255 0 255
0.658725 1.60193 3.5321 0 0 0 255 255 0 255
0.706742 1.73065 3.69835 0 0 0 255 255 0 255
0.701736 1.74268 3.71993 0 0 0 255 255 0 255
0.396107 1.50159 3.40517 0 0 0 255 255 0 255
0.499872 1.51058 3.44014 0 0 0 255 255 0 255
0.387624 1.50396 3.39955 0 0 0 255 255 0 255
0.365147 1.51041 3.38707 0 0 0 255 255 0 255
0.45467 1.50504 3.41879 0 0 0 255 255 0 255
0.400376 1.50456 3.40032 0 0 0 255 255 0 255
0.678433 1.63023 3.52814 0 0 0 255 255 0 255
0.41284 1.50489 3.40248 0 0 0 255 255 0 255
0.715755 1.75457 3.69021 0 0 0 255 255 0 255
0.342106 1.5206 3.37237 0 0 0 255 255 0 255
0.483896 1.5121 3.42318 0 0 0 255 255 0 255
0.403524 1.50703 3.39645 0 0 0 255 255 0 255
0.708713 1.77515 3.72015 0 0 0 255 255 0 255
0.710859 1.68378 3.57276 0 0 0 255 255 0 255
0.69786 1.65959 3.54595 0 0 0 255 255 0 255
0.582282 1.55233 3.45342 0 0 0 255 255 0 255
0.708852 1.67989 3.56257 0 0 0 255 255 0 255
0.689817 1.64852 3.52964 0 0 0 255 255 0 255
0.718337 1.70278 3.58859 0 0 0 255 255 0 255
0.347732 1.52439 3.36612 0 0 0 255 255 0 255
0.562546 1.54659 3.43527 0 0 0 255 255 0 255
0.486599 1.51867 3.41215 0 0 0 255 255 0 255
0.347682 1.52497 3.36529 0 0 0 255 255 0 255
0.719846 1.78381 3.69385 0 0 0 255 255 0 255
0.674249 1.63388 3.49702 0 0 0 255 255 0 255
0.534165 1.53524 3.42299 0 0 0 255 255 0 255
0.436852 1.51401 3.39375 0 0 0 255 255 0 255
0.43233 1.51463 3.39105 0 0 0 255 255 0 255
0.681736 1.64954 3.48918 0 0 0 255 255 0 255
0.495048 1.52721 3.40274 0 0 0 255 255 0 255
0.676148 1.6458 3.47802 0 0 0 255 255 0 255
0.397856 1.52025 3.37358 0 0 0 255 255 0 255
0.331444 1.54123 3.34544 0 0 0 255 255 0 255
0.631539 1.6032 3.44441 0 0 0 255 255 0 255
0.371396 1.52616 3.36269 0 0 0 255 255 0 255
0.397764 1.52191 3.37105 0 0 0 255 255 0 255
0.495978 1.53212 3.39509 0 0 0 255 255 0 255
0.414386 1.52264 3.37307 0 0 0 255 255 0 255
0.734423 1.75943 3.57024 0 0 0 255 255 0 255
0.646061 1.62544 3.43772 0 0 0 255 255 0 255
0.589785 1.58135 3.41161 0 0 0 255 255 0 255
0.707447 1.70335 3.48938 0 0 0 255 255 0 255
0.629593 1.61401 3.42396 0 0 0 255 255 0 255
0.661674 1.64866 3.43725 0 0 0 255 255 0 255
0.502358 1.54447 3.38039 0 0 0 255 255 0 255
0.44567 1.53272 3.36769 0 0 0 255 255 0 255
0.432838 1.53162 3.36489 0 0 0 255 255 0 255
0.425175 1.53252 3.36144 0 0 0 255 255 0 255
0.731774 1.76369 3.52669 0 0 0 255 255 0 255
0.463017 1.53725 3.36845 0 0 0 255 255 0 255
0.731559 1.76493 3.52359 0 0 0 255 255 0 255
0.727786 1.75514 3.51255 0 0 0 255 255 0 255
0.728408 1.7573 3.51347 0 0 0 255 255 0 255
0.637868 1.63313 3.41273 0 0 0 255 255 0 255
0.617361 1.61519 3.4033 0 0 0 255 255 0 255
0.525266 1.55809 3.37797 0 0 0 255 255 0 255
0.416176 1.53518 3.35562 0 0 0 255 255 0 255
0.410272 1.53534 3.3542 0 0 0 255 255 0 255
0.70518 1.71594 3.46621 0 0 0 255 255 0 255
0.726709 1.75789 3.50395 0 0 0 255 255 0 255
0.718341 1.74021 3.48587 0 0 0 255 255 0 255
0.344599 1.55224 3.33069 0 0 0 255 255 0 255
0.315406 1.5738 3.31228 0 0 0 255 255 0 255
0.724162 1.75353 3.4965 0 0 0 255 255 0 255
0.356845 1.54862 3.33401 0 0 0 255 255 0 255
0.615272 1.62036 3.39419 0 0 0 255 255 0 255
0.690513 1.70098 3.44199 0 0 0 255 255 0 255
0.726154 1.76534 3.49468 0 0 0 255 255 0 255
0.649945 1.65543 3.40761 0 0 0 255 255 0 255
0.577174 1.595 3.37844 0 0 0 255 255 0 255
0.718544 1.75146 3.4765 0 0 0 255 255 0 255
0.599228 1.61187 3.38355 0 0 0 255 255 0 255
0.365558 1.5495 3.33277 0 0 0 255 255 0 255
0.425779 1.54253 3.34834 0 0 0 255 255 0 255
0.675448 1.69022 3.41965 0 0 0 255 255 0 255
0.708807 1.73985 3.45535 0 0 0 255 255 0 255
0.670119 1.6851 3.41414 0 0 0 255 255 0 255
0.707149 1.73782 3.45232 0 0 0 255 255 0 255
0.721178 1.76643 3.47481 0 0 0 255 255 0 255
0.722141 1.77018 3.4758 0 0 0 255 255 0 255
0.636971 1.6544 3.38868 0 0 0 255 255 0 255
0.449885 1.54882 3.34787 0 0 0 255 255 0 255
0.713765 1.75768 3.4571 0 0 0 255 255 0 255
0.361258 1.55562 3.32594 0 0 0 255 255 0 255
0.720732 1.77419 3.46878 0 0 0 255 255 0 255
0.678666 1.70679 3.41209 0 0 0 255 255 0 255
0.680475 1.71073 3.41256 0 0 0 255 255 0 255
0.346844 1.56432 3.31743 0 0 0 255 255 0 255
0.719555 1.77718 3.46353 0 0 0 255 255 0 255
0.74015 1.86024 3.55827 0 0 0 255 255 0 255
0.735474 1.89308 3.60821 0 0 0 255 255 0 255
0.71842 1.78338 3.45737 0 0 0 255 255 0 255
0.686634 1.7325 3.40976 0 0 0 255 255 0 255
0.504368 1.57535 3.3427 0 0 0 255 255 0 255
0.641931 1.67854 3.3751 0 0 0 255 255 0 255
0.649667 1.68785 3.3789 0 0 0 255 255 0 255
0.734939 1.8993 3.60075 0 0 0 255 255 0 255
0.678004 1.72469 3.39877 0 0 0 255 255 0 255
0.677967 1.72638 3.3977 0 0 0 255 255 0 255
0.709687 1.77886 3.43603 0 0 0 255 255 0 255
0.674584 1.72352 3.39364 0 0 0 255 255 0 255
0.674354 1.72943 3.38989 0 0 0 255 255 0 255
0.735195 1.90184 3.57799 0 0 0 255 255 0 255
0.643438 1.69533 3.36532 0 0 0 255 255 0 255
0.554841 1.61523 3.33734 0 0 0 255 255 0 255
0.663162 1.72002 3.37773 0 0 0 255 255 0 255
0.662478 1.72094 3.37621 0 0 0 255 255 0 255
0.698374 1.77907 3.41123 0 0 0 255 255 0 255
0.362372 1.57158 3.30941 0 0 0 255 255 0 255
0.643992 1.70455 3.36035 0 0 0 255 255 0 255
0.610817 1.66983 3.34445 0 0 0 255 255 0 255
0.645884 1.70855 3.36045 0 0 0 255 255 0 255
0.702464 1.79193 3.41585 0 0 0 255 255 0 255
0.608683 1.67174 3.34094 0 0 0 255 255 0 255
0.583897 1.64954 3.33322 0 0 0 255 255 0 255
0.582822 1.6539 3.32908 0 0 0 255 255 0 255
0.634489 1.70885 3.34642 0 0 0 255 255 0 255
0.48183 1.5886 3.31784 0 0 0 255 255 0 255
0.672164 1.75866 3.3733 0 0 0 255 255 0 255
0.670606 1.75639 3.37182 0 0 0 255 255 0 255
0.670975 1.75798 3.37178 0 0 0 255 255 0 255
0.672884 1.76509 3.37216 0 0 0 255 255 0 255
0.578334 1.65775 3.32259 0 0 0 255 255 0 255
0.674838 1.77133 3.37312 0 0 0 255 255 0 255
0.698652 1.81326 3.40447 0 0 0 255 255 0 255
0.448846 1.58299 3.31084 0 0 0 255 255 0 255
0.664615 1.7684 3.35937 0 0 0 255 255 0 255
0.540506 1.63718 3.30938 0 0 0 255 255 0 255
0.649496 1.75279 3.34493 0 0 0 255 255 0 255
0.674066 1.78984 3.36735 0 0 0 255 255 0 255
0.648524 1.75368 3.34346 0 0 0 255 255 0 255
0.71523 1.97012 3.58956 0 0 0 255 255 0 255
0.660049 1.77204 3.35228 0 0 0 255 255 0 255
0.642305 1.75093 3.3371 0 0 0 255 255 0 255
0.668696 1.79353 3.35904 0 0 0 255 255 0 255
0.663125 1.78611 3.35297 0 0 0 255 255 0 255
0.651782 1.76951 3.3426 0 0 0 255 255 0 255
0.574612 1.68001 3.30581 0 0 0 255 255 0 255
0.716183 1.90935 3.46575 0 0 0 255 255 0 255
0.678672 1.81525 3.37053 0 0 0 255 255 0 255
0.715504 1.91094 3.46474 0 0 0 255 255 0 255
0.631197 1.7477 3.32604 0 0 0 255 255 0 255
0.5718 1.68194 3.30263 0 0 0 255 255 0 255
0.704265 1.87544 3.4203 0 0 0 255 255 0 255
0.689376 1.84237 3.38708 0 0 0 255 255 0 255
0.454344 1.60039 3.29722 0 0 0 255 255 0 255
0.572915 1.68681 3.30084 0 0 0 255 255 0 255
0.714635 1.91971 3.46857 0 0 0 255 255 0 255
0.710927 1.90458 3.44776 0 0 0 255 255 0 255
0.689763 1.8476 3.38808 0 0 0 255 255 0 255
0.578731 1.69456 3.30125 0 0 0 255 255 0 255
0.68374 1.83698 3.37767 0 0 0 255 255 0 255
0.684147 1.83922 3.37838 0 0 0 255 255 0 255
0.654472 1.78913 3.34144 0 0 0 255 255 0 255
0.713899 1.93496 3.48011 0 0 0 255 255 0 255
0.688057 1.85157 3.38556 0 0 0 255 255 0 255
0.712175 1.97337 3.54085 0 0 0 255 255 0 255
0.698753 1.87797 3.40967 0 0 0 255 255 0 255
0.569351 1.69206 3.29556 0 0 0 255 255 0 255
0.482163 1.62122 3.29083 0 0 0 255 255 0 255
0.695047 1.87205 3.40112 0 0 0 255 255 0 255
0.711013 1.94876 3.48554 0 0 0 255 255 0 255
0.68868 1.86708 3.3888 0 0 0 255 255 0 255
0.56114 1.69195 3.28992 0 0 0 255 255 0 255
0.70863 1.93909 3.46687 0 0 0 255 255 0 255
0.709236 1.96402 3.50072 0 0 0 255 255 0 255
0.708861 1.9616 3.49515 0 0 0 255 255 0 255
0.707917 1.94547 3.47108 0 0 0 255 255 0 255
0.43041 1.60331 3.28856 0 0 0 255 255 0 255
0.707623 1.97358 3.51123 0 0 0 255 255 0 255
0.70803 1.96207 3.49249 0 0 0 255 255 0 255
0.706357 1.96728 3.49392 0 0 0 255 255 0 255
0.461004 1.62825 3.27833 0 0 0 255 255 0 255
0.691929 2.01395 3.53504 0 0 0 255 255 0 255
0.64216 1.83856 3.32359 0 0 0 255 255 0 255
0.689461 2.01867 3.53671 0 0 0 255 255 0 255
0.514428 1.69034 3.26421 0 0 0 255 255 0 255
0.690149 1.96998 3.44727 0 0 0 255 255 0 255
0.586278 1.76901 3.28077 0 0 0 255 255 0 255
0.586182 1.77278 3.27992 0 0 0 255 255 0 255
0.52403 1.70504 3.26254 0 0 0 255 255 0 255
0.512506 1.69741 3.26021 0 0 0 255 255 0 255
0.566915 1.76536 3.2682 0 0 0 255 255 0 255
0.432046 1.64136 3.26245 0 0 0 255 255 0 255
0.514335 1.71306 3.25483 0 0 0 255 255 0 255
0.664826 1.93074 3.37282 0 0 0 255 255 0 255
0.663528 1.92736 3.36938 0 0 0 255 255 0 255
0.675056 2.03947 3.52701 0 0 0 255 255 0 255
0.518513 1.72321 3.25317 0 0 0 255 255 0 255
0.374395 1.62251 3.26796 0 0 0 255 255 0 255
0.506201 1.72203 3.24811 0 0 0 255 255 0 255
0.500643 1.71786 3.24724 0 0 0 255 255 0 255
0.490867 1.71099 3.2459 0 0 0 255 255 0 255
0.665191 2.05373 3.52842 0 0 0 255 255 0 255
0.607542 1.85325 3.29135 0 0 0 255 255 0 255
0.392245 1.63686 3.25958 0 0 0 255 255 0 255
0.609743 1.8598 3.29376 0 0 0 255 255 0 255
0.38578 1.63749 3.25876 0 0 0 255 255 0 255
0.489285 1.72424 3.24077 0 0 0 255 255 0 255
0.373803 1.63178 3.26186 0 0 0 255 255 0 255
0.66169 2.01957 3.44181 0 0 0 255 255 0 255
0.562321 1.8163 3.25857 0 0 0 255 255 0 255
0.60314 1.8771 3.29042 0 0 0 255 255 0 255
0.565512 1.82775 3.26017 0 0 0 255 255 0 255
0.569667 1.84692 3.2631 0 0 0 255 255 0 255
0.45962 1.72524 3.23117 0 0 0 255 255 0 255
0.562909 1.83934 3.2586 0 0 0 255 255 0 255
0.460441 1.73474 3.22859 0 0 0 255 255 0 255
0.467056 1.74476 3.22775 0 0 0 255 255 0 255
0.43069 1.71304 3.22868 0 0 0 255 255 0 255
0.41317 1.70057 3.23044 0 0 0 255 255 0 255
0.57478 1.87645 3.26923 0 0 0 255 255 0 255
0.572369 1.87616 3.26758 0 0 0 255 255 0 255
0.4444 1.73245 3.22535 0 0 0 255 255 0 255
0.471894 1.75974 3.22574 0 0 0 255 255 0 255
0.571549 1.88153 3.26785 0 0 0 255 255 0 255
0.567889 1.88105 3.26539 0 0 0 255 255 0 255
0.388318 1.6909 3.23188 0 0 0 255 255 0 255
0.433722 1.73622 3.22215 0 0 0 255 255 0 255
0.454277 1.75672 3.22161 0 0 0 255 255 0 255
0.442158 1.74523 3.22149 0 0 0 255 255 0 255
0.38067 1.6916 3.23121 0 0 0 255 255 0 255
0.406074 1.71625 3.22404 0 0 0 255 255 0 255
0.535668 1.85556 3.24417 0 0 0 255 255 0 255
0.487354 1.79976 3.22467 0 0 0 255 255 0 255
0.450478 1.76449 3.21915 0 0 0 255 255 0 255
0.596633 1.96443 3.31289 0 0 0 255 255 0 255
0.413404 1.73325 3.21977 0 0 0 255 255 0 255
0.374104 1.69802 3.22849 0 0 0 255 255 0 255
0.525972 1.85531 3.23944 0 0 0 255 255 0 255
0.47945 1.80218 3.22187 0 0 0 255 255 0 255
0.480563 1.80613 3.22191 0 0 0 255 255 0 255
0.593444 1.97061 3.3133 0 0 0 255 255 0 255
0.447981 1.77354 3.21698 0 0 0 255 255 0 255
0.616504 2.04996 3.40243 0 0 0 255 255 0 255
0.418186 1.74718 3.21683 0 0 0 255 255 0 255
0.397584 1.72786 3.21962 0 0 0 255 255 0 255
0.615745 2.05905 3.41321 0 0 0 255 255 0 255
0.61281 2.04163 3.3877 0 0 0 255 255 0 255
0.42409 1.75766 3.21539 0 0 0 255 255 0 255
0.596063 1.99316 3.32875 0 0 0 255 255 0 255
0.594268 1.99357 3.32738 0 0 0 255 255 0 255
0.471475 1.81545 3.21859 0 0 0 255 255 0 255
0.606193 2.07765 3.42627 0 0 0 255 255 0 255
0.396557 1.74404 3.2152 0 0 0 255 255 0 255
0.583422 1.99133 3.31659 0 0 0 255 255 0 255
0.519893 1.88481 3.23992 0 0 0 255 255 0 255
0.401155 1.75206 3.21373 0 0 0 255 255 0 255
0.471929 1.82848 3.21834 0 0 0 255 255 0 255
0.458651 1.81368 3.21521 0 0 0 255 255 0 255
0.600176 2.09169 3.44103 0 0 0 255 255 0 255
0.511141 1.88097 3.23554 0 0 0 255 255 0 255
0.372371 1.7285 3.2182 0 0 0 255 255 0 255
0.577586 1.99424 3.31363 0 0 0 255 255 0 255
0.408343 1.7676 3.21138 0 0 0 255 255 0 255
0.428815 1.79494 3.21042 0 0 0 255 255 0 255
0.517011 1.90356 3.24207 0 0 0 255 255 0 255
0.382374 1.74916 3.21314 0 0 0 255 255 0 255
0.501172 1.88504 3.23212 0 0 0 255 255 0 255
0.437158 1.80905 3.21073 0 0 0 255 255 0 255
0.390745 1.76494 3.21032 0 0 0 255 255 0 255
0.369391 1.74308 3.21428 0 0 0 255 255 0 255
0.50062 1.89381 3.23336 0 0 0 255 255 0 255
0.450269 1.83306 3.21272 0 0 0 255 255 0 255
0.357873 1.73209 3.21728 0 0 0 255 255 0 255
0.344099 1.71461 3.22325 0 0 0 255 255 0 255
0.441259 1.82559 3.21085 0 0 0 255 255 0 255
0.571459 2.05456 3.35611 0 0 0 255 255 0 255
0.358701 1.74769 3.21328 0 0 0 255 255 0 255
0.310935 1.6583 3.2513 0 0 0 255 255 0 255
0.555302 2.05524 3.3429 0 0 0 255 255 0 255
0.341183 1.74358 3.2151 0 0 0 255 255 0 255
0.360375 1.76937 3.20887 0 0 0 255 255 0 255
0.320138 1.71267 3.22631 0 0 0 255 255 0 255
0.308566 1.63785 3.2635 0 0 0 255 255 0 255
0.414852 1.83965 3.20653 0 0 0 255 255 0 255
0.504267 1.96661 3.25622 0 0 0 255 255 0 255
0.345722 1.76018 3.21114 0 0 0 255 255 0 255
0.302519 1.66164 3.2511 0 0 0 255 255 0 255
0.340648 1.7604 3.21143 0 0 0 255 255 0 255
0.369714 1.80124 3.20476 0 0 0 255 255 0 255
0.373511 1.81214 3.20405 0 0 0 255 255 0 255
0.312293 1.72734 3.22278 0 0 0 255 255 0 255
0.31597 1.74058 3.21858 0 0 0 255 255 0 255
0.348272 1.79235 3.2061 0 0 0 255 255 0 255
0.358389 1.82204 3.2037 0 0 0 255 255 0 255
0.28926 1.64383 3.26407 0 0 0 255 255 0 255
0.296788 1.73153 3.22431 0 0 0 255 255 0 255
0.362238 1.85215 3.20401 0 0 0 255 255 0 255
0.41133 1.92322 3.21728 0 0 0 255 255 0 255
0.290947 1.74873 3.22106 0 0 0 255 255 0 255
0.394445 1.91729 3.2142 0 0 0 255 255 0 255
0.361064 1.87107 3.2055 0 0 0 255 255 0 255
0.296439 1.77552 3.21469 0 0 0 255 255 0 255
0.294325 1.77138 3.21579 0 0 0 255 255 0 255
0.318266 1.81986 3.20691 0 0 0 255 255 0 255
0.407911 1.9554 3.22655 0 0 0 255 255 0 255
0.42894 1.99231 3.24495 0 0 0 255 255 0 255
0.29872 1.60576 3.28797 0 0 0 255 255 0 255
0.313742 1.8219 3.20748 0 0 0 255 255 0 255
0.410759 1.97567 3.23467 0 0 0 255 255 0 255
0.287066 1.77907 3.21611 0 0 0 255 255 0 255
0.275742 1.62937 3.27703 0 0 0 255 255 0 255
0.28454 1.61667 3.28339 0 0 0 255 255 0 255
0.407843 1.9797 3.23602 0 0 0 255 255 0 255
0.282499 1.77802 3.21732 0 0 0 255 255 0 255
0.419615 2.01243 3.25375 0 0 0 255 255 0 255
0.358127 1.91928 3.21379 0 0 0 255 255 0 255
0.263678 1.63587 3.27664 0 0 0 255 255 0 255
0.281559 1.80504 3.21448 0 0 0 255 255 0 255
0.362369 1.96335 3.22713 0 0 0 255 255 0 255
0.273134 1.81991 3.21576 0 0 0 255 255 0 255
0.244449 1.74181 3.23608 0 0 0 255 255 0 255
0.338467 1.94227 3.22111 0 0 0 255 255 0 255
0.351557 1.96677 3.22876 0 0 0 255 255 0 255
0.2826 1.84498 3.21342 0 0 0 255 255 0 255
0.321356 1.91604 3.21584 0 0 0 255 255 0 255
0.262272 1.80474 3.21962 0 0 0 255 255 0 255
0.293459 1.59036 3.30207 0 0 0 255 255 0 255
0.373691 2.01762 3.25255 0 0 0 255 255 0 255
0.35798 1.98728 3.23713 0 0 0 255 255 0 255
0.316799 1.91435 3.21606 0 0 0 255 255 0 255
0.345361 1.9748 3.2323 0 0 0 255 255 0 255
0.402518 2.12478 3.34672 0 0 0 255 255 0 255
0.321117 1.94607 3.22415 0 0 0 255 255 0 255
0.228673 1.73017 3.24554 0 0 0 255 255 0 255
0.262915 1.84689 3.21865 0 0 0 255 255 0 255
0.306071 1.9398 3.22449 0 0 0 255 255 0 255
0.244071 1.80925 3.22515 0 0 0 255 255 0 255
0.349633 2.03185 3.26152 0 0 0 255 255 0 255
0.299658 1.93757 3.22499 0 0 0 255 255 0 255
0.25858 1.8547 3.22034 0 0 0 255 255 0 255
0.362828 2.10321 3.31943 0 0 0 255 255 0 255
0.22502 1.77933 3.23573 0 0 0 255 255 0 255
0.229275 1.83144 3.22991 0 0 0 255 255 0 255
0.208389 1.74261 3.25109 0 0 0 255 255 0 255
0.255121 1.92504 3.23294 0 0 0 255 255 0 255
0.239179 1.88761 3.2305 0 0 0 255 255 0 255
0.253677 1.92351 3.23301 0 0 0 255 255 0 255
0.250541 1.92334 3.23402 0 0 0 255 255 0 255
0.199842 1.78102 3.24708 0 0 0 255 255 0 255
0.215024 1.8489 3.23632 0 0 0 255 255 0 255
0.1962 1.78705 3.24807 0 0 0 255 255 0 255
0.297956 2.08917 3.31445 0 0 0 255 255 0 255
0.28533 2.10289 3.33245 0 0 0 255 255 0 255
0.274365 2.08388 3.31665 0 0 0 255 255 0 255
0.193303 1.8582 3.24747 0 0 0 255 255 0 255
0.205858 1.90962 3.24911 0 0 0 255 255 0 255
0.163199 1.71773 3.28588 0 0 0 255 255 0 255
0.141567 1.7531 3.2901 0 0 0 255 255 0 255
0.152271 1.66875 3.31898 0 0 0 255 255 0 255
0.130378 1.80856 3.28916 0 0 0 255 255 0 255
0.144367 1.67957 3.31906 0 0 0 255 255 0 255
0.140693 1.68615 3.31845 0 0 0 255 255 0 255
0.157549 2.13188 3.49845 0 0 0 255 255 0 255
0.120863 1.81289 3.29691 0 0 0 255 255 0 255
0.146823 1.65279 3.33464 0 0 0 255 255 0 255
0.107826 1.81237 3.30896 0 0 0 255 255 0 255
0.113324 1.93608 3.32333 0 0 0 255 255 0 255
0.112876 1.96038 3.33512 0 0 0 255 255 0 255
0.122361 1.68316 3.33755 0 0 0 255 255 0 255
0.104747 1.94789 3.33754 0 0 0 255 255 0 255
0.0950083 1.82224 3.32139 0 0 0 255 255 0 255
0.150156 1.62332 3.35616 0 0 0 255 255 0 255
0.108305 2.03939 3.40442 0 0 0 255 255 0 255
0.106503 2.07874 3.47166 0 0 0 255 255 0 255
0.105848 2.0778 3.47108 0 0 0 255 255 0 255
0.103561 2.08415 3.49401 0 0 0 255 255 0 255
0.1383 1.63201 3.36011 0 0 0 255 255 0 255
0.0958295 1.98897 3.3734 0 0 0 255 255 0 255
0.0947973 2.03655 3.42275 0 0 0 255 255 0 255
0.0909425 1.98752 3.37893 0 0 0 255 255 0 255
0.0937088 2.04757 3.44062 0 0 0 255 255 0 255
0.156968 1.60229 3.37093 0 0 0 255 255 0 255
0.0889395 1.99117 3.3847 0 0 0 255 255 0 255
0.0833861 1.93192 3.35538 0 0 0 255 255 0 255
0.0839912 1.7768 3.33984 0 0 0 255 255 0 255
0.0907304 2.0207 3.41039 0 0 0 255 255 0 255
0.088985 1.99824 3.39067 0 0 0 255 255 0 255
0.150358 1.60926 3.37012 0 0 0 255 255 0 255
0.083463 1.94495 3.36157 0 0 0 255 255 0 255
0.0844503 1.98664 3.38758 0 0 0 255 255 0 255
0.0827307 1.97997 3.38487 0 0 0 255 255 0 255
0.0765226 2.00652 3.41938 0 0 0 255 255 0 255
0.0724382 1.99511 3.41487 0 0 0 255 255 0 255
0.071795 2.00543 3.42714 0 0 0 255 255 0 255
0.137269 1.61299 3.38051 0 0 0 255 255 0 255
0.0960073 1.68273 3.36812 0 0 0 255 255 0 255
0.12897 1.62271 3.3798 0 0 0 255 255 0 255
0.0627434 1.804 3.36238 0 0 0 255 255 0 255
0.0581909 1.96981 3.41803 0 0 0 255 255 0 255
0.0570312 1.95351 3.40743 0 0 0 255 255 0 255
0.121921 1.62631 3.3847 0 0 0 255 255 0 255
0.0621166 1.78197 3.36737 0 0 0 255 255 0 255
0.055431 1.9646 3.419 0 0 0 255 255 0 255
0.0925114 1.67762 3.37656 0 0 0 255 255 0 255
0.0560839 1.81271 3.37112 0 0 0 255 255 0 255
0.0634488 1.76514 3.37017 0 0 0 255 255 0 255
0.0499466 1.94698 3.41621 0 0 0 255 255 0 255
0.0493073 1.9095 3.39644 0 0 0 255 255 0 255
0.101371 1.6531 3.38519 0 0 0 255 255 0 255
0.0451494 1.94493 3.42449 0 0 0 255 255 0 255
0.0526639 1.78362 3.38138 0 0 0 255 255 0 255
0.0468564 1.81835 3.38526 0 0 0 255 255 0 255
0.0395455 1.93597 3.43017 0 0 0 255 255 0 255
0.0378403 1.91538 3.42123 0 0 0 255 255 0 255
0.0443249 1.81241 3.39008 0 0 0 255 255 0 255
0.0426741 1.80889 3.39337 0 0 0 255 255 0 255
0.0332761 2.00059 3.57138 0 0 0 255 255 0 255
0.061332 1.70397 3.40508 0 0 0 255 255 0 255
0.0315957 1.80963 3.41433 0 0 0 255 255 0 255
0.0696302 1.68156 3.40873 0 0 0 255 255 0 255
0.0685615 1.68154 3.41065 0 0 0 255 255 0 255
0.0859775 1.64787 3.41423 0 0 0 255 255 0 255
0.0206874 1.83465 3.43715 0 0 0 255 255 0 255
0.075161 1.65908 3.42109 0 0 0 255 255 0 255
0.0212098 1.81994 3.4364 0 0 0 255 255 0 255
0.0137753 1.87932 3.46494 0 0 0 255 255 0 255
0.012438 1.85517 3.46173 0 0 0 255 255 0 255
0.0153781 1.81652 3.45203 0 0 0 255 255 0 255
0.0395636 1.71787 3.43852 0 0 0 255 255 0 255
0.00652817 1.81684 3.48029 0 0 0 255 255 0 255
0.0841359 1.61951 3.45768 0 0 0 255 255 0 255
0.0833601 1.62027 3.45817 0 0 0 255 255 0 255
0.0680512 1.6408 3.4609 0 0 0 255 255 0 255
0.07993 1.62243 3.46266 0 0 0 255 255 0 255
-0.00462762 1.86028 3.54995 0 0 0 255 255 0 255
0.0111216 1.88554 3.67861 0 0 0 255 255 0 255
0.00541845 1.78151 3.49811 0 0 0 255 255 0 255
0.0655071 1.63633 3.47584 0 0 0 255 255 0 255
-0.00241861 1.80576 3.52794 0 0 0 255 255 0 255
0.033238 1.68694 3.49325 0 0 0 255 255 0 255
0.0198153 1.7086 3.51599 0 0 0 255 255 0 255
0.0497639 1.64826 3.50592 0 0 0 255 255 0 255
0.00988054 1.73168 3.53316 0 0 0 255 255 0 255
0.0449101 1.6558 3.50867 0 0 0 255 255 0 255
0.0349146 1.6732 3.51399 0 0 0 255 255 0 255
0.0540662 1.64036 3.50772 0 0 0 255 255 0 255
-0.00257075 1.81677 3.63077 0 0 0 255 255 0 255
0.0563342 1.63567 3.51069 0 0 0 255 255 0 255
-0.00387752 1.78916 3.5927 0 0 0 255 255 0 255
-0.00265369 1.79557 3.61823 0 0 0 255 255 0 255
0.0468108 1.64807 3.52117 0 0 0 255 255 0 255
-0.00228992 1.78988 3.61592 0 0 0 255 255 0 255
-0.0014644 1.78619 3.61945 0 0 0 255 255 0 255
0.0636577 1.62158 3.5207 0 0 0 255 255 0 255
0.0671525 1.61508 3.52697 0 0 0 255 255 0 255
0.00325298 1.76202 3.62649 0 0 0 255 255 0 255
0.0166964 1.78164 3.69755 0 0 0 255 255 0 255
0.0101967 1.72586 3.60921 0 0 0 255 255 0 255
0.016053 1.75786 3.68226 0 0 0 255 255 0 255
0.0130557 1.75005 3.66484 0 0 0 255 255 0 255
0.0708188 1.60567 3.55353 0 0 0 255 255 0 255
0.0197229 1.70075 3.61924 0 0 0 255 255 0 255
