ply
format ascii 1.0
comment VCGLIB generated
element vertex 249
property float x
property float y
property float z
property float nx
property float ny
property float nz
property uchar red
property uchar green
property uchar blue
property uchar alpha
element face 0
property list uchar int vertex_indices
end_header
1.94611 0.602156 4.03057 0 0 0 255 255 0 255
1.94827 0.574941 4.02485 0 0 0 255 255 0 255
1.94867 0.571682 4.019 0 0 0 255 255 0 255
1.9474 0.593199 4.00898 0 0 0 255 255 0 255
1.97321 0.270166 4.01532 0 0 0 255 255 0 255
1.98425 0.129709 4.02099 0 0 0 255 255 0 255
1.96803 0.338799 4.01007 0 0 0 255 255 0 255
1.95554 0.500089 4.00142 0 0 0 255 255 0 255
1.98109 0.172451 4.01697 0 0 0 255 255 0 255
1.9485 0.591668 3.99608 0 0 0 255 255 0 255
1.9594 0.475543 3.98569 0 0 0 255 255 0 255
1.9538 0.549201 3.9812 0 0 0 255 255 0 255
1.96956 0.362697 3.98214 0 0 0 255 255 0 255
1.96143 0.471178 3.97502 0 0 0 255 255 0 255
1.96041 0.497871 3.96784 0 0 0 255 255 0 255
1.96709 0.412227 3.97191 0 0 0 255 255 0 255
1.97015 0.375348 3.97268 0 0 0 255 255 0 255
1.99168 0.125082 3.97475 0 0 0 255 255 0 255
1.97169 0.389894 3.95926 0 0 0 255 255 0 255
1.97681 0.336005 3.95792 0 0 0 255 255 0 255
1.97461 0.379687 3.95099 0 0 0 255 255 0 255
1.97586 0.376596 3.94727 0 0 0 255 255 0 255
1.97542 0.385533 3.94588 0 0 0 255 255 0 255
1.96435 0.530904 3.93801 0 0 0 255 255 0 255
1.97409 0.416306 3.94056 0 0 0 255 255 0 255
1.97382 0.445022 3.93248 0 0 0 255 255 0 255
1.96982 0.507695 3.92664 0 0 0 255 255 0 255
1.9966 0.225568 3.92581 0 0 0 255 255 0 255
1.97669 0.512255 3.90564 0 0 0 255 255 0 255
1.98335 0.479227 3.89699 0 0 0 255 255 0 255
1.98076 0.547852 3.88731 0 0 0 255 255 0 255
2.08279 0.386671 3.77226 0 0 0 255 255 0 255
2.07108 0.556021 3.7629 0 0 0 255 255 0 255
2.0872 0.397817 3.76713 0 0 0 255 255 0 255
2.08788 0.398842 3.76643 0 0 0 255 255 0 255
2.08163 0.508473 3.7593 0 0 0 255 255 0 255
2.08222 0.550448 3.75413 0 0 0 255 255 0 255
2.0934 0.447002 3.75653 0 0 0 255 255 0 255
2.10047 0.42731 3.75317 0 0 0 255 255 0 255
2.11047 0.391766 3.74949 0 0 0 255 255 0 255
2.11073 0.419756 3.74641 0 0 0 255 255 0 255
2.1112 0.413781 3.7467 0 0 0 255 255 0 255
2.10479 0.527418 3.73958 0 0 0 255 255 0 255
2.10805 0.485592 3.74156 0 0 0 255 255 0 255
2.11201 0.434803 3.74397 0 0 0 255 255 0 255
2.10778 0.49957 3.74033 0 0 0 255 255 0 255
2.11241 0.45081 3.74207 0 0 0 255 255 0 255
2.10999 0.513661 3.73739 0 0 0 255 255 0 255
2.12441 0.414384 3.73769 0 0 0 255 255 0 255
2.11915 0.525085 3.73029 0 0 0 255 255 0 255
2.13048 0.390684 3.73614 0 0 0 255 255 0 255
2.12317 0.49529 3.73064 0 0 0 255 255 0 255
2.12137 0.551182 3.72642 0 0 0 255 255 0 255
2.13683 0.407989 3.73064 0 0 0 255 255 0 255
2.13808 0.41405 3.72934 0 0 0 255 255 0 255
2.14132 0.428211 3.72617 0 0 0 255 255 0 255
2.13618 0.53893 3.71897 0 0 0 255 255 0 255
2.14624 0.466461 3.72003 0 0 0 255 255 0 255
2.14704 0.467503 3.71951 0 0 0 255 255 0 255
2.15525 0.38494 3.7225 0 0 0 255 255 0 255
2.1522 0.469777 3.71664 0 0 0 255 255 0 255
2.14998 0.509659 3.7143 0 0 0 255 255 0 255
2.16151 0.396276 3.71834 0 0 0 255 255 0 255
2.15006 0.554667 3.71038 0 0 0 255 255 0 255
2.15565 0.482965 3.71379 0 0 0 255 255 0 255
2.15119 0.551728 3.71008 0 0 0 255 255 0 255
2.17903 0.393255 3.71053 0 0 0 255 255 0 255
2.17165 0.558887 3.70035 0 0 0 255 255 0 255
2.17553 0.521098 3.70177 0 0 0 255 255 0 255
2.18894 0.396834 3.70618 0 0 0 255 255 0 255
2.18847 0.414814 3.70496 0 0 0 255 255 0 255
2.19973 0.270414 3.71181 0 0 0 255 255 0 255
2.19702 0.389312 3.70369 0 0 0 255 255 0 255
2.19516 0.42522 3.70164 0 0 0 255 255 0 255
2.21023 0.256037 3.70899 0 0 0 255 255 0 255
2.20839 0.303953 3.70605 0 0 0 255 255 0 255
2.21322 0.266226 3.70718 0 0 0 255 255 0 255
2.19251 0.556137 3.69278 0 0 0 255 255 0 255
2.21546 0.298385 3.70405 0 0 0 255 255 0 255
2.22149 0.257732 3.70506 0 0 0 255 255 0 255
2.20334 0.55181 3.68961 0 0 0 255 255 0 255
2.20636 0.512972 3.69145 0 0 0 255 255 0 255
2.20817 0.539107 3.68906 0 0 0 255 255 0 255
2.21332 0.485392 3.69133 0 0 0 255 255 0 255
2.21301 0.526407 3.68856 0 0 0 255 255 0 255
2.23188 0.284413 3.70004 0 0 0 255 255 0 255
2.2176 0.504684 3.68879 0 0 0 255 255 0 255
2.21654 0.530639 3.6873 0 0 0 255 255 0 255
2.2174 0.519685 3.68782 0 0 0 255 255 0 255
2.21661 0.554665 3.68564 0 0 0 255 255 0 255
2.24232 0.312121 3.69544 0 0 0 255 255 0 255
2.22574 0.537249 3.68452 0 0 0 255 255 0 255
2.2323 0.490638 3.68605 0 0 0 255 255 0 255
2.25188 0.289736 3.6947 0 0 0 255 255 0 255
2.23489 0.557886 3.68115 0 0 0 255 255 0 255
2.22197 0.736211 3.67248 0 0 0 255 255 0 255
2.25829 0.308192 3.6922 0 0 0 255 255 0 255
2.24084 0.557291 3.68001 0 0 0 255 255 0 255
2.24283 0.544413 3.68043 0 0 0 255 255 0 255
2.26511 0.258601 3.69399 0 0 0 255 255 0 255
2.2315 0.752887 3.66966 0 0 0 255 255 0 255
2.27012 0.282978 3.69162 0 0 0 255 255 0 255
2.24176 0.735584 3.66906 0 0 0 255 255 0 255
2.24938 0.676043 3.67146 0 0 0 255 255 0 255
2.27993 0.309707 3.68858 0 0 0 255 255 0 255
2.26687 0.490029 3.67989 0 0 0 255 255 0 255
2.28527 0.25401 3.69109 0 0 0 255 255 0 255
2.24681 0.759978 3.66695 0 0 0 255 255 0 255
2.27593 0.38653 3.68467 0 0 0 255 255 0 255
2.28583 0.285095 3.68924 0 0 0 255 255 0 255
2.28707 0.269161 3.69 0 0 0 255 255 0 255
2.25343 0.713386 3.6688 0 0 0 255 255 0 255
2.26943 0.508239 3.67853 0 0 0 255 255 0 255
2.25487 0.7205 3.66823 0 0 0 255 255 0 255
2.27355 0.506534 3.67817 0 0 0 255 255 0 255
2.28353 0.404105 3.68282 0 0 0 255 255 0 255
2.28079 0.451979 3.68045 0 0 0 255 255 0 255
2.28122 0.472042 3.67931 0 0 0 255 255 0 255
2.28744 0.392373 3.68309 0 0 0 255 255 0 255
2.28919 0.395506 3.68276 0 0 0 255 255 0 255
2.2902 0.38256 3.68338 0 0 0 255 255 0 255
2.28048 0.520062 3.67677 0 0 0 255 255 0 255
2.2883 0.4325 3.68084 0 0 0 255 255 0 255
2.28321 0.53629 3.67568 0 0 0 255 255 0 255
2.28506 0.52541 3.67613 0 0 0 255 255 0 255
2.30214 0.306321 3.68652 0 0 0 255 255 0 255
2.30321 0.305399 3.6865 0 0 0 255 255 0 255
2.30733 0.252618 3.689 0 0 0 255 255 0 255
2.2848 0.554438 3.67461 0 0 0 255 255 0 255
2.30885 0.258742 3.68858 0 0 0 255 255 0 255
2.30059 0.390345 3.68222 0 0 0 255 255 0 255
2.31162 0.248933 3.68893 0 0 0 255 255 0 255
2.27488 0.732996 3.66591 0 0 0 255 255 0 255
2.31113 0.28095 3.6873 0 0 0 255 255 0 255
2.29465 0.505094 3.67662 0 0 0 255 255 0 255
2.31807 0.307524 3.6857 0 0 0 255 255 0 255
2.32157 0.26271 3.68783 0 0 0 255 255 0 255
2.32247 0.276805 3.68711 0 0 0 255 255 0 255
2.30823 0.498117 3.67656 0 0 0 255 255 0 255
2.32546 0.277036 3.68706 0 0 0 255 255 0 255
2.29196 0.745322 3.66481 0 0 0 255 255 0 255
2.33837 0.252994 3.68824 0 0 0 255 255 0 255
2.32877 0.427585 3.68005 0 0 0 255 255 0 255
2.31959 0.558122 3.67389 0 0 0 255 255 0 255
2.30459 0.763348 3.66419 0 0 0 255 255 0 255
2.33292 0.412884 3.68085 0 0 0 255 255 0 255
2.34545 0.303658 3.68621 0 0 0 255 255 0 255
2.33736 0.420254 3.68073 0 0 0 255 255 0 255
2.33132 0.54904 3.67486 0 0 0 255 255 0 255
2.3401 0.436508 3.6802 0 0 0 255 255 0 255
2.35489 0.285379 3.68757 0 0 0 255 255 0 255
2.35875 0.248613 3.68939 0 0 0 255 255 0 255
2.34305 0.462804 3.6793 0 0 0 255 255 0 255
2.3618 0.260888 3.68913 0 0 0 255 255 0 255
2.34317 0.55101 3.67573 0 0 0 255 255 0 255
2.36243 0.304036 3.68745 0 0 0 255 255 0 255
2.33341 0.714577 3.66827 0 0 0 255 255 0 255
2.3305 0.828599 3.66355 0 0 0 255 255 0 255
2.33815 0.756067 3.66724 0 0 0 255 255 0 255
2.37486 0.298055 3.6891 0 0 0 255 255 0 255
2.35657 0.558141 3.67703 0 0 0 255 255 0 255
2.38077 0.260462 3.69129 0 0 0 255 255 0 255
2.36763 0.441792 3.68282 0 0 0 255 255 0 255
2.37757 0.314322 3.68887 0 0 0 255 255 0 255
2.38317 0.280714 3.6909 0 0 0 255 255 0 255
2.36241 0.559638 3.67782 0 0 0 255 255 0 255
2.38415 0.280797 3.69105 0 0 0 255 255 0 255
2.34895 0.744952 3.66918 0 0 0 255 255 0 255
2.38583 0.271919 3.69163 0 0 0 255 255 0 255
2.36676 0.541965 3.67913 0 0 0 255 255 0 255
2.38654 0.301051 3.69072 0 0 0 255 255 0 255
2.38907 0.319314 3.69053 0 0 0 255 255 0 255
2.35679 0.758658 3.67004 0 0 0 255 255 0 255
2.35604 0.81875 3.66793 0 0 0 255 255 0 255
2.37776 0.55294 3.68074 0 0 0 255 255 0 255
2.40065 0.297261 3.69347 0 0 0 255 255 0 255
2.40406 0.253443 3.69555 0 0 0 255 255 0 255
2.3826 0.541332 3.68209 0 0 0 255 255 0 255
2.39378 0.397928 3.68889 0 0 0 255 255 0 255
2.36839 0.748642 3.67267 0 0 0 255 255 0 255
2.38486 0.53752 3.68268 0 0 0 255 255 0 255
2.37197 0.727901 3.67408 0 0 0 255 255 0 255
2.40886 0.254867 3.69652 0 0 0 255 255 0 255
2.39594 0.458281 3.68753 0 0 0 255 255 0 255
2.40273 0.408747 3.69057 0 0 0 255 255 0 255
2.40704 0.391081 3.69211 0 0 0 255 255 0 255
2.39705 0.531584 3.68569 0 0 0 255 255 0 255
2.40488 0.481143 3.68907 0 0 0 255 255 0 255
2.40048 0.549944 3.68606 0 0 0 255 255 0 255
2.38936 0.717423 3.67864 0 0 0 255 255 0 255
2.4091 0.501584 3.68968 0 0 0 255 255 0 255
2.38963 0.763582 3.67752 0 0 0 255 255 0 255
2.41495 0.438932 3.69292 0 0 0 255 255 0 255
2.41922 0.38416 3.69552 0 0 0 255 255 0 255
2.41156 0.494788 3.69054 0 0 0 255 255 0 255
2.41477 0.465995 3.69219 0 0 0 255 255 0 255
2.41578 0.453049 3.6928 0 0 0 255 255 0 255
2.40951 0.545752 3.68868 0 0 0 255 255 0 255
2.42095 0.411399 3.69534 0 0 0 255 255 0 255
2.42201 0.422529 3.69538 0 0 0 255 255 0 255
2.42343 0.416642 3.69595 0 0 0 255 255 0 255
2.40388 0.679637 3.68377 0 0 0 255 255 0 255
2.41532 0.545284 3.69044 0 0 0 255 255 0 255
2.41949 0.528619 3.69213 0 0 0 255 255 0 255
2.42302 0.507883 3.69373 0 0 0 255 255 0 255
2.42252 0.55097 3.69263 0 0 0 255 255 0 255
2.43355 0.409558 3.69934 0 0 0 255 255 0 255
2.43549 0.384661 3.70052 0 0 0 255 255 0 255
2.42549 0.525166 3.69417 0 0 0 255 255 0 255
2.40898 0.773402 3.68337 0 0 0 255 255 0 255
2.42716 0.55241 3.69418 0 0 0 255 255 0 255
2.43997 0.388093 3.70198 0 0 0 255 255 0 255
2.43286 0.551948 3.69624 0 0 0 255 255 0 255
2.447 0.382741 3.70462 0 0 0 255 255 0 255
2.44793 0.40691 3.70453 0 0 0 255 255 0 255
2.45436 0.396492 3.70722 0 0 0 255 255 0 255
2.45549 0.429715 3.70715 0 0 0 255 255 0 255
2.44818 0.535365 3.70253 0 0 0 255 255 0 255
2.45092 0.547676 3.70351 0 0 0 255 255 0 255
2.47546 0.280149 3.71781 0 0 0 255 255 0 255
2.47673 0.287301 3.71829 0 0 0 255 255 0 255
2.45838 0.534364 3.70698 0 0 0 255 255 0 255
2.48545 0.384531 3.72149 0 0 0 255 255 0 255
2.48875 0.387882 3.72318 0 0 0 255 255 0 255
2.48971 0.386977 3.72369 0 0 0 255 255 0 255
2.49576 0.388608 3.72696 0 0 0 255 255 0 255
2.49322 0.432517 3.72537 0 0 0 255 255 0 255
2.49508 0.408616 3.7265 0 0 0 255 255 0 255
2.48508 0.548127 3.72037 0 0 0 255 255 0 255
2.48956 0.54659 3.72293 0 0 0 255 255 0 255
2.49633 0.493086 3.72699 0 0 0 255 255 0 255
2.50332 0.425549 3.73122 0 0 0 255 255 0 255
2.50659 0.383723 3.73321 0 0 0 255 255 0 255
2.49795 0.54949 3.72795 0 0 0 255 255 0 255
2.50423 0.479871 3.73178 0 0 0 255 255 0 255
2.50919 0.427181 3.73481 0 0 0 255 255 0 255
2.51044 0.411248 3.73557 0 0 0 255 255 0 255
2.51358 0.403553 3.73754 0 0 0 255 255 0 255
2.51386 0.421661 3.73777 0 0 0 255 255 0 255
2.51562 0.485127 3.73918 0 0 0 255 255 0 255
2.53172 0.497984 3.75089 0 0 0 255 255 0 255
2.53276 0.505136 3.75177 0 0 0 255 255 0 255
2.53898 0.435516 3.75569 0 0 0 255 255 0 255
2.5438 0.383821 3.75876 0 0 0 255 255 0 255
2.55079 0.374584 3.76422 0 0 0 255 255 0 255
2.55642 0.544126 3.77275 0 0 0 255 255 0 255
2.57147 0.379079 3.78266 0 0 0 255 255 0 255
2.56659 0.542377 3.78267 0 0 0 255 255 0 255
2.57168 0.521904 3.78725 0 0 0 255 255 0 255
