ply
format ascii 1.0
comment VCGLIB generated
element vertex 206
property float x
property float y
property float z
property float nx
property float ny
property float nz
property uchar red
property uchar green
property uchar blue
property uchar alpha
element face 0
property list uchar int vertex_indices
end_header
-3.23696 -2.56025 8.63538 0 0 0 255 255 255 255
-2.89351 -1.03496 6.42171 0 0 0 255 255 255 255
-3.173 -2.54339 8.50349 0 0 0 255 255 255 255
0.714541 -0.719284 4.56127 0 0 0 255 255 255 255
-2.89221 -1.01585 6.39628 0 0 0 255 255 255 255
-3.16856 -2.50283 8.50786 0 0 0 255 255 255 255
-1.0311 -0.590925 5.59758 0 0 0 255 255 255 255
-1.81066 -2.65705 8.72546 0 0 0 255 255 255 255
-2.61669 0.505303 5.99813 0 0 0 255 255 255 255
-2.6233 0.482712 6.01799 0 0 0 255 255 255 255
-2.64057 0.430297 6.08497 0 0 0 255 255 255 255
-2.31485 -0.023946 5.96144 0 0 0 255 255 255 255
-2.19834 0.100909 5.8757 0 0 0 255 255 255 255
-2.11101 0.495223 5.98027 0 0 0 255 255 255 255
-2.62355 0.481364 6.01848 0 0 0 255 255 255 255
-2.33461 0.0749594 6.03482 0 0 0 255 255 255 255
-2.33158 0.0374939 5.7854 0 0 0 255 255 255 255
-2.61484 0.507675 5.98501 0 0 0 255 255 255 255
-2.56658 1.68969 6.04889 0 0 0 255 255 255 255
-2.7252 1.44857 6.08214 0 0 0 255 255 255 255
-2.65116 1.59279 6.01644 0 0 0 255 255 255 255
-2.54361 1.59081 6.08487 0 0 0 255 255 255 255
-2.65331 1.58884 6.03883 0 0 0 255 255 255 255
-2.71913 1.42322 6.09854 0 0 0 255 255 255 255
-2.54543 1.57981 6.07671 0 0 0 255 255 255 255
-2.65683 1.55087 6.04162 0 0 0 255 255 255 255
-2.67256 1.52338 6.0702 0 0 0 255 255 255 255
-2.59005 1.2337 6.08158 0 0 0 255 255 255 255
-2.64967 1.59108 6.02464 0 0 0 255 255 255 255
-3.03742 1.08778 6.7252 0 0 0 255 255 255 255
-2.4188 1.17612 6.19548 0 0 0 255 255 255 255
-2.61342 1.13083 6.12397 0 0 0 255 255 255 255
-2.20117 1.3408 6.18914 0 0 0 255 255 255 255
-2.71522 1.44477 6.15651 0 0 0 255 255 255 255
-3.02788 1.09804 6.71503 0 0 0 255 255 255 255
-2.60959 1.13631 6.11594 0 0 0 255 255 255 255
-2.30846 1.30528 6.21163 0 0 0 255 255 255 255
-2.70189 1.41246 6.1427 0 0 0 255 255 255 255
-2.71785 1.45365 6.10588 0 0 0 255 255 255 255
-2.70489 1.40875 6.14121 0 0 0 255 255 255 255
-0.729287 -0.312424 4.54639 0 0 0 255 255 255 255
-0.651639 -0.383018 4.4613 0 0 0 255 255 255 255
-0.708065 -0.40222 4.59937 0 0 0 255 255 255 255
-0.721977 -0.421338 4.5843 0 0 0 255 255 255 255
-0.673384 -0.413951 4.4626 0 0 0 255 255 255 255
-0.712766 -0.385833 4.62877 0 0 0 255 255 255 255
-0.698606 -0.360507 4.58419 0 0 0 255 255 255 255
-0.700222 -0.255986 4.46616 0 0 0 255 255 255 255
-0.759398 -0.289334 4.5832 0 0 0 255 255 255 255
-0.653767 -0.383083 4.46334 0 0 0 255 255 255 255
-0.727981 -0.3503 4.61406 0 0 0 255 255 255 255
-0.687766 -0.420852 4.43227 0 0 0 255 255 255 255
-0.685999 -0.0818649 4.47925 0 0 0 255 255 255 255
-0.683032 -0.058954 4.52247 0 0 0 255 255 255 255
-0.663574 -0.0759581 4.47374 0 0 0 255 255 255 255
-0.675296 -0.0911039 4.51664 0 0 0 255 255 255 255
-0.674767 -0.0612742 4.57302 0 0 0 255 255 255 255
-0.717206 -0.114976 4.55888 0 0 0 255 255 255 255
-0.761805 -0.140311 4.63036 0 0 0 255 255 255 255
-0.733272 -0.195927 4.58304 0 0 0 255 255 255 255
-0.720252 -0.134521 4.57044 0 0 0 255 255 255 255
-0.770393 -0.208312 4.63336 0 0 0 255 255 255 255
-0.717651 -0.206747 4.54997 0 0 0 255 255 255 255
-0.726627 -0.0624901 4.58112 0 0 0 255 255 255 255
-0.690521 -0.0999039 4.5523 0 0 0 255 255 255 255
-0.669285 -0.0665308 4.55576 0 0 0 255 255 255 255
-0.694282 -0.0512399 4.6155 0 0 0 255 255 255 255
-0.633025 0.0493556 4.50808 0 0 0 255 255 255 255
-0.693589 -0.0174763 4.61995 0 0 0 255 255 255 255
-0.685847 -0.00630459 4.6042 0 0 0 255 255 255 255
-0.696328 0.0185053 4.59001 0 0 0 255 255 255 255
-0.710951 0.0123706 4.59684 0 0 0 255 255 255 255
-0.682463 0.00530742 4.55835 0 0 0 255 255 255 255
-0.66807 -0.0308571 4.56549 0 0 0 255 255 255 255
-0.653256 0.0471781 4.55722 0 0 0 255 255 255 255
-0.6663 -0.00217713 4.57022 0 0 0 255 255 255 255
-0.697306 0.0360034 4.53135 0 0 0 255 255 255 255
-0.697567 0.0475526 4.62033 0 0 0 255 255 255 255
-0.633625 0.144077 4.63917 0 0 0 255 255 255 255
-1.00403 -0.18857 4.98149 0 0 0 255 255 255 255
-0.867218 -0.468405 5.09665 0 0 0 255 255 255 255
-1.04194 -0.463723 4.95337 0 0 0 255 255 255 255
-0.850805 -0.483612 5.01578 0 0 0 255 255 255 255
-1.24806 0.0591326 5.35546 0 0 0 255 255 255 255
-1.03348 -0.136279 5.7358 0 0 0 255 255 255 255
-1.0185 -0.127182 5.85159 0 0 0 255 255 255 255
-1.07794 -0.100867 5.80927 0 0 0 255 255 255 255
-1.03959 -0.161916 5.74868 0 0 0 255 255 255 255
-1.09625 -0.545545 5.48438 0 0 0 255 255 255 255
-0.874182 -0.07747 6.05175 0 0 0 255 255 255 255
-0.870308 -0.0734653 6.05131 0 0 0 255 255 255 255
-0.856302 -0.0686672 6.0276 0 0 0 255 255 255 255
-1.03317 -0.162972 5.84154 0 0 0 255 255 255 255
-1.02732 -0.127931 5.84058 0 0 0 255 255 255 255
-1.04759 -0.540401 5.65302 0 0 0 255 255 255 255
-1.15535 -0.278915 5.66866 0 0 0 255 255 255 255
-1.2851 -0.257239 5.65018 0 0 0 255 255 255 255
-1.18279 0.237105 5.52854 0 0 0 255 255 255 255
-1.13032 0.504072 5.54558 0 0 0 255 255 255 255
-0.957848 0.54201 5.71081 0 0 0 255 255 255 255
-1.71342 1.39065 5.67599 0 0 0 255 255 255 255
-0.895921 0.902606 5.05785 0 0 0 255 255 255 255
-0.81787 1.31642 5.09534 0 0 0 255 255 255 255
-1.5473 1.5717 6.06223 0 0 0 255 255 255 255
-1.41397 1.49493 5.71604 0 0 0 255 255 255 255
0.356668 0.185398 4.60846 0 0 0 255 255 255 255
0.645217 0.606637 4.53673 0 0 0 255 255 255 255
0.598465 1.19342 3.81573 0 0 0 255 255 255 255
-1.67838 1.67887 6.62453 0 0 0 255 255 255 255
-1.30113 1.67206 6.80435 0 0 0 255 255 255 255
-0.762511 1.56471 6.15715 0 0 0 255 255 255 255
-0.753162 1.5563 6.15339 0 0 0 255 255 255 255
-1.29475 1.66942 6.80868 0 0 0 255 255 255 255
-0.74855 1.55339 6.15369 0 0 0 255 255 255 255
-1.19121 1.30455 6.4484 0 0 0 255 255 255 255
-0.750133 1.54287 6.15171 0 0 0 255 255 255 255
-1.27156 1.66818 6.66808 0 0 0 255 255 255 255
-1.18526 1.54217 6.11669 0 0 0 255 255 255 255
1.48966 -0.851215 5.17122 0 0 0 255 255 255 255
1.96717 -2.75042 8.60405 0 0 0 255 255 255 255
2.05216 -2.6412 8.81863 0 0 0 255 255 255 255
1.97368 -2.74864 8.60698 0 0 0 255 255 255 255
2.54445 -2.81842 8.6216 0 0 0 255 255 255 255
2.58539 -2.40678 8.78871 0 0 0 255 255 255 255
2.58773 -2.58428 8.83019 0 0 0 255 255 255 255
2.5696 -2.68817 8.77415 0 0 0 255 255 255 255
2.59 -2.39451 8.80984 0 0 0 255 255 255 255
2.56402 -2.56008 8.65685 0 0 0 255 255 255 255
2.54588 -2.81868 8.62176 0 0 0 255 255 255 255
2.27101 -2.68151 8.84662 0 0 0 255 255 255 255
2.57218 -2.28276 8.72759 0 0 0 255 255 255 255
2.58277 -2.27513 8.72914 0 0 0 255 255 255 255
2.57524 -2.71403 8.81574 0 0 0 255 255 255 255
2.60329 -2.28901 8.85223 0 0 0 255 255 255 255
2.58193 -0.850136 7.80821 0 0 0 255 255 255 255
3.14672 -1.06552 8.81739 0 0 0 255 255 255 255
2.76363 -1.02297 8.58371 0 0 0 255 255 255 255
2.80787 -0.900353 8.2033 0 0 0 255 255 255 255
2.76355 -0.91375 8.07471 0 0 0 255 255 255 255
2.75121 -0.910013 8.03801 0 0 0 255 255 255 255
2.83063 -0.621856 7.82644 0 0 0 255 255 255 255
3.07992 -0.794784 9.13089 0 0 0 255 255 255 255
2.60724 -2.7717 8.95785 0 0 0 255 255 255 255
3.0367 -0.673606 9.00227 0 0 0 255 255 255 255
4.80621 -1.76493 14.4874 0 0 0 255 255 255 255
4.33638 -1.27262 13.1736 0 0 0 255 255 255 255
3.35831 -1.0032 9.17296 0 0 0 255 255 255 255
2.71486 -1.85454 8.98082 0 0 0 255 255 255 255
2.63306 -2.34458 8.95476 0 0 0 255 255 255 255
4.06117 -1.05842 12.469 0 0 0 255 255 255 255
3.25216 -0.955846 8.94601 0 0 0 255 255 255 255
3.26545 -1.04891 9.17755 0 0 0 255 255 255 255
1.46204 -0.0528275 3.43216 0 0 0 255 255 255 255
0.794378 -0.117613 4.34027 0 0 0 255 255 255 255
1.36263 -0.301242 4.63396 0 0 0 255 255 255 255
1.36512 -0.301211 4.6393 0 0 0 255 255 255 255
1.34855 -0.137029 4.63262 0 0 0 255 255 255 255
1.38495 -0.176338 4.69535 0 0 0 255 255 255 255
1.34822 -0.154924 4.66356 0 0 0 255 255 255 255
1.31963 0.268114 4.56939 0 0 0 255 255 255 255
1.77074 -0.0795356 4.31315 0 0 0 255 255 255 255
1.4382 -0.100494 3.30349 0 0 0 255 255 255 255
0.791855 -0.0604758 4.29208 0 0 0 255 255 255 255
1.36691 -0.298311 4.64509 0 0 0 255 255 255 255
1.35621 -0.160961 4.68633 0 0 0 255 255 255 255
1.69574 -0.119056 4.03801 0 0 0 255 255 255 255
1.36652 -0.173308 4.7231 0 0 0 255 255 255 255
1.44556 -0.37093 5.02128 0 0 0 255 255 255 255
1.40586 -0.187475 4.7393 0 0 0 255 255 255 255
1.44354 -0.367059 5.01282 0 0 0 255 255 255 255
1.38006 0.831582 5.09121 0 0 0 255 255 255 255
1.26975 0.320933 4.87366 0 0 0 255 255 255 255
1.39719 0.304396 5.27609 0 0 0 255 255 255 255
1.33754 0.136723 4.84745 0 0 0 255 255 255 255
1.26731 0.337978 4.91696 0 0 0 255 255 255 255
1.33487 0.139843 4.8152 0 0 0 255 255 255 255
1.45507 0.379734 5.6612 0 0 0 255 255 255 255
1.91806 -0.356532 4.78513 0 0 0 255 255 255 255
2.00732 -0.255399 5.13097 0 0 0 255 255 255 255
1.76812 -0.310834 4.7405 0 0 0 255 255 255 255
1.52322 -0.213584 5.08508 0 0 0 255 255 255 255
1.97953 -0.350877 5.0494 0 0 0 255 255 255 255
1.95625 -0.35369 5.03463 0 0 0 255 255 255 255
1.62042 -0.419178 5.71556 0 0 0 255 255 255 255
1.73054 -0.457125 5.53878 0 0 0 255 255 255 255
1.69542 -0.452749 5.54376 0 0 0 255 255 255 255
1.69661 -0.294224 5.58814 0 0 0 255 255 255 255
1.69607 -0.410791 5.54549 0 0 0 255 255 255 255
1.68067 -0.492409 5.51082 0 0 0 255 255 255 255
1.6825 -0.267116 5.55036 0 0 0 255 255 255 255
1.51307 -0.529817 5.84253 0 0 0 255 255 255 255
1.5478 0.845151 5.23482 0 0 0 255 255 255 255
1.96688 1.38535 5.17878 0 0 0 255 255 255 255
1.38323 0.848672 5.09573 0 0 0 255 255 255 255
1.52348 0.868621 5.28962 0 0 0 255 255 255 255
1.35662 0.838318 4.81228 0 0 0 255 255 255 255
2.14542 1.49731 5.72475 0 0 0 255 255 255 255
2.33099 -0.426392 7.24598 0 0 0 255 255 255 255
2.33733 -0.438951 7.25828 0 0 0 255 255 255 255
2.3245 -0.430987 7.23479 0 0 0 255 255 255 255
2.31292 -0.525898 7.20177 0 0 0 255 255 255 255
3.62775 0.671358 8.64797 0 0 0 255 255 255 255
3.61913 0.670992 8.65874 0 0 0 255 255 255 255
3.58308 0.667157 8.68811 0 0 0 255 255 255 255
3.58471 0.667731 8.68893 0 0 0 255 255 255 255
3.58826 0.652442 8.69176 0 0 0 255 255 255 255
