ply
format ascii 1.0
comment VCGLIB generated
element vertex 10
property float x
property float y
property float z
property float nx
property float ny
property float nz
property uchar red
property uchar green
property uchar blue
property uchar alpha
element face 0
property list uchar int vertex_indices
end_header
0.577008 0.898574 4.65253 0 0 0 128 128 0 255
0.576941 0.939489 4.65516 0 0 0 128 128 0 255
0.576081 0.920498 4.65439 0 0 0 128 128 0 255
0.574271 0.939397 4.65652 0 0 0 128 128 0 255
0.549943 0.901553 4.66786 0 0 0 128 128 0 255
0.51066 0.906707 4.6958 0 0 0 128 128 0 255
0.493905 0.884812 4.70863 0 0 0 128 128 0 255
0.489433 0.9065 4.71407 0 0 0 128 128 0 255
0.479284 0.934802 4.7256 0 0 0 128 128 0 255
0.461456 0.950523 4.7456 0 0 0 128 128 0 255
