ply
format ascii 1.0
comment VCGLIB generated
element vertex 38
property float x
property float y
property float z
property float nx
property float ny
property float nz
property uchar red
property uchar green
property uchar blue
property uchar alpha
element face 0
property list uchar int vertex_indices
end_header
2.02302 0.171778 4.02144 0 0 0 0 128 0 255
2.02643 0.158254 4.02267 0 0 0 0 128 0 255
2.03299 0.132172 4.02504 0 0 0 0 128 0 255
2.03426 0.128503 4.01535 0 0 0 0 128 0 255
2.0272 0.158785 4.00359 0 0 0 0 128 0 255
2.03679 0.123499 3.99881 0 0 0 0 128 0 255
2.07755 -0.0209559 3.98223 0 0 0 0 128 0 255
2.10912 -0.145609 3.99257 0 0 0 0 128 0 255
2.08744 -0.0587052 3.9837 0 0 0 0 128 0 255
2.10838 -0.127782 3.97437 0 0 0 0 128 0 255
2.09187 -0.0602084 3.96629 0 0 0 0 128 0 255
2.101 -0.0902789 3.96323 0 0 0 0 128 0 255
2.12678 -0.192676 3.97253 0 0 0 0 128 0 255
2.12799 -0.197506 3.97297 0 0 0 0 128 0 255
2.10095 -0.0845653 3.9579 0 0 0 0 128 0 255
2.11116 -0.125138 3.96159 0 0 0 0 128 0 255
2.12356 -0.174404 3.96606 0 0 0 0 128 0 255
2.11714 -0.145464 3.96056 0 0 0 0 128 0 255
2.07464 0.0245415 3.94416 0 0 0 0 128 0 255
2.10728 -0.103949 3.95488 0 0 0 0 128 0 255
2.10243 -0.0798355 3.94888 0 0 0 0 128 0 255
2.10311 -0.0682816 3.93743 0 0 0 0 128 0 255
2.11973 -0.112621 3.92749 0 0 0 0 128 0 255
2.14802 -0.204168 3.92391 0 0 0 0 128 0 255
2.14905 -0.196266 3.91688 0 0 0 0 128 0 255
2.06823 0.139184 3.87926 0 0 0 0 128 0 255
2.15102 -0.180388 3.90388 0 0 0 0 128 0 255
2.1119 0.0235893 3.86466 0 0 0 0 128 0 255
2.18467 -0.191607 3.85809 0 0 0 0 128 0 255
2.1524 0.0149211 3.81656 0 0 0 0 128 0 255
2.2096 -0.204058 3.83428 0 0 0 0 128 0 255
2.22292 -0.163704 3.80856 0 0 0 0 128 0 255
2.18357 0.00488603 3.79064 0 0 0 0 128 0 255
2.23562 -0.198814 3.80851 0 0 0 0 128 0 255
2.23595 -0.162452 3.79766 0 0 0 0 128 0 255
2.25494 -0.202455 3.79467 0 0 0 0 128 0 255
2.26522 -0.203589 3.78789 0 0 0 0 128 0 255
2.27466 -0.155193 3.7703 0 0 0 0 128 0 255
