ply
format ascii 1.0
comment VCGLIB generated
element vertex 269
property float x
property float y
property float z
property float nx
property float ny
property float nz
property uchar red
property uchar green
property uchar blue
property uchar alpha
element face 0
property list uchar int vertex_indices
end_header
-3.07091 0.576431 4.4892 0 0 0 255 255 255 255
-3.11983 0.516661 4.49162 0 0 0 255 255 255 255
-3.09847 0.570017 4.44827 0 0 0 255 255 255 255
-3.09185 0.576519 4.48965 0 0 0 255 255 255 255
-3.0557 0.574446 4.57293 0 0 0 255 255 255 255
-2.8951 0.455443 4.6296 0 0 0 255 255 255 255
-2.99766 0.544472 4.69541 0 0 0 255 255 255 255
-2.99226 0.573089 4.64066 0 0 0 255 255 255 255
-3.08369 0.523237 4.56275 0 0 0 255 255 255 255
-3.08917 0.510373 4.53057 0 0 0 255 255 255 255
-2.9983 0.563508 4.63414 0 0 0 255 255 255 255
-3.11239 0.362637 4.56995 0 0 0 255 255 255 255
-3.00066 0.547677 4.66662 0 0 0 255 255 255 255
-2.89768 0.412579 4.6568 0 0 0 255 255 255 255
-2.8977 0.437125 4.62207 0 0 0 255 255 255 255
-2.98984 0.56407 4.68778 0 0 0 255 255 255 255
-3.07483 0.521085 4.56706 0 0 0 255 255 255 255
-3.01633 0.52979 4.6453 0 0 0 255 255 255 255
-3.16385 0.360227 4.55907 0 0 0 255 255 255 255
-2.98344 0.647953 5.27228 0 0 0 255 255 255 255
-2.21058 0.145753 5.21452 0 0 0 255 255 255 255
-2.79288 0.0138973 5.20464 0 0 0 255 255 255 255
-2.76341 0.626369 5.12699 0 0 0 255 255 255 255
-2.80007 0.00881869 5.2144 0 0 0 255 255 255 255
-2.75743 0.63833 5.12228 0 0 0 255 255 255 255
-1.02857 -0.148159 4.21042 0 0 0 255 255 255 255
-1.02323 -0.157887 4.26678 0 0 0 255 255 255 255
-1.20426 0.0728152 4.30087 0 0 0 255 255 255 255
-1.20694 0.4212 4.36991 0 0 0 255 255 255 255
-1.18609 0.077131 4.30671 0 0 0 255 255 255 255
-1.16323 0.0924955 4.29885 0 0 0 255 255 255 255
-1.02998 -0.128458 4.23456 0 0 0 255 255 255 255
-1.00735 -0.149483 4.20415 0 0 0 255 255 255 255
-0.86418 -0.152723 4.24056 0 0 0 255 255 255 255
-1.31847 -0.0724315 4.38627 0 0 0 255 255 255 255
-3.58713 0.241273 6.33786 0 0 0 255 255 255 255
-2.88314 0.209303 5.47376 0 0 0 255 255 255 255
-2.90968 0.637221 5.42367 0 0 0 255 255 255 255
-3.58558 0.237596 6.33261 0 0 0 255 255 255 255
-3.22106 0.158485 6.57836 0 0 0 255 255 255 255
-2.89443 0.110365 5.38606 0 0 0 255 255 255 255
-2.92965 0.682522 5.41715 0 0 0 255 255 255 255
-3.52177 0.14649 6.21242 0 0 0 255 255 255 255
-3.25455 0.0924867 6.10157 0 0 0 255 255 255 255
-3.51349 0.143078 6.21064 0 0 0 255 255 255 255
-3.073 0.162282 6.43157 0 0 0 255 255 255 255
-3.23889 0.151383 6.5716 0 0 0 255 255 255 255
-3.24432 0.150507 6.55415 0 0 0 255 255 255 255
-2.86341 1.07961 5.26864 0 0 0 255 255 255 255
-2.89396 1.14352 5.20944 0 0 0 255 255 255 255
-2.96203 0.9958 5.27103 0 0 0 255 255 255 255
-2.87724 1.04356 5.19933 0 0 0 255 255 255 255
-2.95259 1.00772 5.27732 0 0 0 255 255 255 255
-2.87447 0.977583 5.16689 0 0 0 255 255 255 255
-2.90958 1.45589 4.96209 0 0 0 255 255 255 255
-2.86928 1.062 5.27174 0 0 0 255 255 255 255
-2.87238 1.00384 5.21593 0 0 0 255 255 255 255
-2.86341 0.977805 5.22569 0 0 0 255 255 255 255
-2.86967 1.0082 5.20105 0 0 0 255 255 255 255
-2.86943 1.04375 5.2192 0 0 0 255 255 255 255
-2.86675 1.14337 5.24932 0 0 0 255 255 255 255
-2.88881 1.14389 5.224 0 0 0 255 255 255 255
-2.87088 1.02661 5.20372 0 0 0 255 255 255 255
-2.87971 1.45858 5.14659 0 0 0 255 255 255 255
-2.8737 0.976532 5.15184 0 0 0 255 255 255 255
-2.81515 1.58308 4.97194 0 0 0 255 255 255 255
-2.71953 1.41108 5.26784 0 0 0 255 255 255 255
-2.75134 0.776695 5.09405 0 0 0 255 255 255 255
-2.75018 0.764211 5.09121 0 0 0 255 255 255 255
-2.75682 0.849741 5.17821 0 0 0 255 255 255 255
-2.75228 0.840738 5.16341 0 0 0 255 255 255 255
-2.51041 1.39644 4.89955 0 0 0 255 255 255 255
-2.51727 1.39738 4.93508 0 0 0 255 255 255 255
-2.50189 1.40052 4.89636 0 0 0 255 255 255 255
-2.59395 1.18677 4.97316 0 0 0 255 255 255 255
-2.72446 1.39225 5.11742 0 0 0 255 255 255 255
-2.78189 1.40524 5.27716 0 0 0 255 255 255 255
-2.6547 1.20716 5.07335 0 0 0 255 255 255 255
-2.74307 1.39563 5.30805 0 0 0 255 255 255 255
-2.74508 0.772383 5.11044 0 0 0 255 255 255 255
-2.73315 1.4281 5.14998 0 0 0 255 255 255 255
-2.76668 1.38961 5.17251 0 0 0 255 255 255 255
-2.79463 1.5719 4.96581 0 0 0 255 255 255 255
-1.31673 1.00531 4.42689 0 0 0 255 255 255 255
-1.26428 1.03871 4.38735 0 0 0 255 255 255 255
-1.68302 1.09385 4.71543 0 0 0 255 255 255 255
-0.888211 1.03465 4.11515 0 0 0 255 255 255 255
-0.844923 1.00482 4.10023 0 0 0 255 255 255 255
-0.996525 1.28393 4.36868 0 0 0 255 255 255 255
-0.961255 1.25712 4.37847 0 0 0 255 255 255 255
-1.04352 1.23568 4.40796 0 0 0 255 255 255 255
-0.966281 1.25761 4.37621 0 0 0 255 255 255 255
-0.842453 1.25207 4.26069 0 0 0 255 255 255 255
-0.794681 0.971667 3.96787 0 0 0 255 255 255 255
-0.817655 0.875627 3.99101 0 0 0 255 255 255 255
-0.81389 0.877942 3.98861 0 0 0 255 255 255 255
-0.724045 1.20007 4.0321 0 0 0 255 255 255 255
-0.680369 1.2603 3.93767 0 0 0 255 255 255 255
-0.779035 1.16229 4.00776 0 0 0 255 255 255 255
-0.713346 1.17503 4.07515 0 0 0 255 255 255 255
-0.689316 1.2116 4.07675 0 0 0 255 255 255 255
-0.732529 1.26063 3.94419 0 0 0 255 255 255 255
-0.733333 1.2061 3.96713 0 0 0 255 255 255 255
-0.828682 1.16639 4.02239 0 0 0 255 255 255 255
-0.757208 1.16682 4.01212 0 0 0 255 255 255 255
-0.761267 1.18052 4.01194 0 0 0 255 255 255 255
-0.714708 1.17726 4.08133 0 0 0 255 255 255 255
-0.727732 1.16356 4.09409 0 0 0 255 255 255 255
-0.682815 1.2563 3.93535 0 0 0 255 255 255 255
-0.828388 1.17228 4.02142 0 0 0 255 255 255 255
-0.735947 1.26753 3.94582 0 0 0 255 255 255 255
-0.829751 1.15882 4.02436 0 0 0 255 255 255 255
-0.670574 1.36903 3.83221 0 0 0 255 255 255 255
-0.696406 1.36157 3.86773 0 0 0 255 255 255 255
-0.674096 1.30014 3.92387 0 0 0 255 255 255 255
-0.687938 1.36299 3.83042 0 0 0 255 255 255 255
-0.75967 1.2827 3.99407 0 0 0 255 255 255 255
-0.765192 1.28767 3.99363 0 0 0 255 255 255 255
-0.623418 1.27144 3.94658 0 0 0 255 255 255 255
-0.625327 1.2703 3.94577 0 0 0 255 255 255 255
-0.572492 1.27747 3.99795 0 0 0 255 255 255 255
-0.625119 1.27574 3.94557 0 0 0 255 255 255 255
-0.595556 1.1558 4.11965 0 0 0 255 255 255 255
-0.524947 1.12195 4.00132 0 0 0 255 255 255 255
-0.584391 1.14313 4.0726 0 0 0 255 255 255 255
-0.573092 1.26973 3.99437 0 0 0 255 255 255 255
-0.625724 1.34715 3.86715 0 0 0 255 255 255 255
-0.641354 1.34641 3.8674 0 0 0 255 255 255 255
-0.803417 1.21464 4.23087 0 0 0 255 255 255 255
-0.815501 1.22746 4.23576 0 0 0 255 255 255 255
-0.792298 1.21083 4.22203 0 0 0 255 255 255 255
-1.14302 1.49394 4.59031 0 0 0 255 255 255 255
-1.21114 1.58718 4.69241 0 0 0 255 255 255 255
-3.00588 1.04803 5.34266 0 0 0 255 255 255 255
-3.00487 1.07052 5.34922 0 0 0 255 255 255 255
-2.93131 0.852633 5.35751 0 0 0 255 255 255 255
-2.94138 1.0654 5.33358 0 0 0 255 255 255 255
-2.99459 1.08358 5.34777 0 0 0 255 255 255 255
-3.00296 1.02118 5.37073 0 0 0 255 255 255 255
-2.87961 0.824433 5.3996 0 0 0 255 255 255 255
-3.00503 1.05955 5.33947 0 0 0 255 255 255 255
-2.86761 1.34489 5.47748 0 0 0 255 255 255 255
-2.82465 1.21302 5.4408 0 0 0 255 255 255 255
-2.81783 1.23921 5.46229 0 0 0 255 255 255 255
-2.90865 1.27019 5.44503 0 0 0 255 255 255 255
-2.97863 1.1103 5.37144 0 0 0 255 255 255 255
-2.82279 1.21862 5.44352 0 0 0 255 255 255 255
-2.91329 1.4587 5.5819 0 0 0 255 255 255 255
-2.90172 1.39383 5.50509 0 0 0 255 255 255 255
-2.99564 1.17212 5.3252 0 0 0 255 255 255 255
-2.82715 1.25161 5.35783 0 0 0 255 255 255 255
-2.82886 1.34928 5.56716 0 0 0 255 255 255 255
-2.98249 1.11457 5.37597 0 0 0 255 255 255 255
-2.91839 1.37028 5.52142 0 0 0 255 255 255 255
-2.83788 1.34559 5.54011 0 0 0 255 255 255 255
-2.87652 1.18658 5.57416 0 0 0 255 255 255 255
-2.85451 1.18553 5.5147 0 0 0 255 255 255 255
-2.99071 1.11024 5.31408 0 0 0 255 255 255 255
-3.03861 1.1929 5.41023 0 0 0 255 255 255 255
-2.90753 1.26283 5.45285 0 0 0 255 255 255 255
-2.89393 1.40934 5.79778 0 0 0 255 255 255 255
-2.91953 1.45603 5.71735 0 0 0 255 255 255 255
-3.03532 1.16669 5.89062 0 0 0 255 255 255 255
-2.90311 1.41321 5.7873 0 0 0 255 255 255 255
-3.04252 1.18774 6.04267 0 0 0 255 255 255 255
-2.95488 1.33816 6.0101 0 0 0 255 255 255 255
-2.94265 1.34041 5.91897 0 0 0 255 255 255 255
-2.90211 1.38613 5.96312 0 0 0 255 255 255 255
-2.99875 1.25492 6.03009 0 0 0 255 255 255 255
-2.90527 1.33368 5.97954 0 0 0 255 255 255 255
-2.84602 1.42824 5.90799 0 0 0 255 255 255 255
-3.01621 1.49138 5.70781 0 0 0 255 255 255 255
-2.77243 1.40753 5.31189 0 0 0 255 255 255 255
-2.77342 1.40601 5.31851 0 0 0 255 255 255 255
-2.76737 1.40698 5.35327 0 0 0 255 255 255 255
-2.78865 1.38994 5.329 0 0 0 255 255 255 255
-2.80094 1.37904 5.62499 0 0 0 255 255 255 255
-2.76301 1.3651 5.59532 0 0 0 255 255 255 255
0.825235 -0.216834 4.80199 0 0 0 255 255 255 255
-0.34505 -0.186647 4.49003 0 0 0 255 255 255 255
-0.308491 -0.188313 4.49967 0 0 0 255 255 255 255
0.949024 -0.24388 4.71118 0 0 0 255 255 255 255
0.916061 -0.247259 4.90629 0 0 0 255 255 255 255
0.943895 -0.24288 4.72333 0 0 0 255 255 255 255
2.43598 -0.198728 3.94149 0 0 0 255 255 255 255
2.04689 0.178684 4.03563 0 0 0 255 255 255 255
2.05391 0.164767 4.02878 0 0 0 255 255 255 255
2.06705 0.135711 4.03881 0 0 0 255 255 255 255
2.04893 0.127644 4.04026 0 0 0 255 255 255 255
2.14053 0.0289222 4.01951 0 0 0 255 255 255 255
-0.265583 1.44051 4.47095 0 0 0 255 255 255 255
-0.25901 1.07317 4.5095 0 0 0 255 255 255 255
-0.259292 1.07613 4.51081 0 0 0 255 255 255 255
-0.254354 1.17683 4.50688 0 0 0 255 255 255 255
-0.272002 1.38962 4.64971 0 0 0 255 255 255 255
-0.311897 1.00283 4.59628 0 0 0 255 255 255 255
-0.320662 1.40677 4.67759 0 0 0 255 255 255 255
-0.304075 1.09583 4.63131 0 0 0 255 255 255 255
-0.335438 1.44315 4.63277 0 0 0 255 255 255 255
-0.30998 1.44844 4.62054 0 0 0 255 255 255 255
-0.311163 0.997401 4.60031 0 0 0 255 255 255 255
-0.301743 1.20256 4.63273 0 0 0 255 255 255 255
-0.264763 1.18401 4.5287 0 0 0 255 255 255 255
-0.294996 1.46103 4.65304 0 0 0 255 255 255 255
-0.281614 1.07985 4.56576 0 0 0 255 255 255 255
-0.303037 1.47244 4.654 0 0 0 255 255 255 255
-0.291954 1.42917 4.66165 0 0 0 255 255 255 255
-0.287234 1.36791 4.60564 0 0 0 255 255 255 255
0.352731 1.03678 4.95698 0 0 0 255 255 255 255
0.359527 1.04998 4.96542 0 0 0 255 255 255 255
1.07372 1.39472 5.08959 0 0 0 255 255 255 255
2.34114 1.0875 3.70801 0 0 0 255 255 255 255
1.89639 0.765559 4.091 0 0 0 255 255 255 255
2.28832 1.06834 3.75437 0 0 0 255 255 255 255
1.92547 0.881294 4.10033 0 0 0 255 255 255 255
2.38519 1.63083 3.98878 0 0 0 255 255 255 255
1.99572 1.57749 4.10362 0 0 0 255 255 255 255
2.39289 1.62949 3.9852 0 0 0 255 255 255 255
2.39535 1.62889 3.98083 0 0 0 255 255 255 255
1.10418 1.35653 6.33581 0 0 0 255 255 255 255
1.08875 1.42713 6.36993 0 0 0 255 255 255 255
1.10105 1.42496 6.39199 0 0 0 255 255 255 255
1.11032 1.42485 6.36784 0 0 0 255 255 255 255
1.11764 1.41753 6.37804 0 0 0 255 255 255 255
1.62461 1.19704 5.46273 0 0 0 255 255 255 255
1.31141 1.29059 5.84525 0 0 0 255 255 255 255
1.30521 1.28325 5.78769 0 0 0 255 255 255 255
1.1639 1.25106 5.43928 0 0 0 255 255 255 255
1.13598 1.40237 6.3213 0 0 0 255 255 255 255
1.23886 1.37471 6.44098 0 0 0 255 255 255 255
1.32204 1.39356 6.58874 0 0 0 255 255 255 255
1.24574 1.40679 6.64155 0 0 0 255 255 255 255
1.31188 1.42592 6.73588 0 0 0 255 255 255 255
1.87709 1.39718 6.34671 0 0 0 255 255 255 255
1.87378 1.39885 6.36062 0 0 0 255 255 255 255
1.73431 1.45035 6.7121 0 0 0 255 255 255 255
1.67648 1.44941 6.67752 0 0 0 255 255 255 255
1.87587 1.40063 6.74945 0 0 0 255 255 255 255
1.86869 1.39142 6.75464 0 0 0 255 255 255 255
1.85604 1.4721 6.74714 0 0 0 255 255 255 255
1.88672 1.37689 6.64252 0 0 0 255 255 255 255
1.89791 1.35883 6.50287 0 0 0 255 255 255 255
1.8708 1.38426 6.74142 0 0 0 255 255 255 255
1.89207 1.46989 6.74356 0 0 0 255 255 255 255
1.85912 1.468 6.74565 0 0 0 255 255 255 255
1.72429 1.47147 6.72655 0 0 0 255 255 255 255
1.75916 1.46252 6.69847 0 0 0 255 255 255 255
1.8903 1.39337 6.71561 0 0 0 255 255 255 255
1.72482 1.4584 6.71175 0 0 0 255 255 255 255
1.89743 1.36039 6.51636 0 0 0 255 255 255 255
1.46716 1.4789 6.68963 0 0 0 255 255 255 255
1.22046 1.50084 6.71173 0 0 0 255 255 255 255
1.4558 1.49057 6.6888 0 0 0 255 255 255 255
2.10862 1.38253 6.43098 0 0 0 255 255 255 255
2.10968 1.4084 6.62298 0 0 0 255 255 255 255
2.08027 1.40671 6.47381 0 0 0 255 255 255 255
2.1425 1.36871 6.2847 0 0 0 255 255 255 255
2.11535 1.41301 6.61776 0 0 0 255 255 255 255
2.14078 1.37002 6.2844 0 0 0 255 255 255 255
1.94998 1.44392 6.67236 0 0 0 255 255 255 255
2.08995 1.42664 6.63388 0 0 0 255 255 255 255
2.16591 1.37303 6.29175 0 0 0 255 255 255 255
1.92987 1.37638 6.59489 0 0 0 255 255 255 255
1.92423 1.37252 6.68626 0 0 0 255 255 255 255
1.93598 1.44748 6.67882 0 0 0 255 255 255 255
1.91625 1.37393 6.68443 0 0 0 255 255 255 255
2.13515 1.37781 6.39071 0 0 0 255 255 255 255
2.13768 1.40777 6.58337 0 0 0 255 255 255 255
1.88451 1.4351 6.9714 0 0 0 255 255 255 255
