ply
format ascii 1.0
comment VCGLIB generated
element vertex 390
property float x
property float y
property float z
property float nx
property float ny
property float nz
property uchar red
property uchar green
property uchar blue
property uchar alpha
element face 0
property list uchar int vertex_indices
end_header
-0.0224094 0.830292 4.48002 0 0 0 128 128 0 255
-0.0544838 0.832875 4.44415 0 0 0 128 128 0 255
-0.0558473 0.802373 4.43392 0 0 0 128 128 0 255
-0.0722146 0.841065 4.41795 0 0 0 128 128 0 255
-0.0296895 0.605232 4.41357 0 0 0 128 128 0 255
0.0428208 0.256903 4.42661 0 0 0 128 128 0 255
-0.0384071 0.616862 4.39703 0 0 0 128 128 0 255
0.0060021 0.404581 4.40495 0 0 0 128 128 0 255
-0.0865796 0.82771 4.37675 0 0 0 128 128 0 255
0.0162093 0.342955 4.39847 0 0 0 128 128 0 255
0.0221499 0.311395 4.39716 0 0 0 128 128 0 255
0.00478905 0.391385 4.39213 0 0 0 128 128 0 255
-0.0871752 0.812548 4.36294 0 0 0 128 128 0 255
-0.0384153 0.578574 4.36893 0 0 0 128 128 0 255
0.0190062 0.309982 4.38257 0 0 0 128 128 0 255
0.023252 0.288321 4.3817 0 0 0 128 128 0 255
-0.0153957 0.465742 4.36874 0 0 0 128 128 0 255
-0.0161729 0.46859 4.3676 0 0 0 128 128 0 255
-0.0185497 0.478195 4.36513 0 0 0 128 128 0 255
-0.0222919 0.493586 4.36138 0 0 0 128 128 0 255
-0.015819 0.463309 4.36291 0 0 0 128 128 0 255
0.0146666 0.32071 4.37016 0 0 0 128 128 0 255
0.0288278 0.253165 4.3716 0 0 0 128 128 0 255
-0.120697 0.951355 4.33416 0 0 0 128 128 0 255
0.0284901 0.252942 4.36863 0 0 0 128 128 0 255
0.00499991 0.36226 4.36208 0 0 0 128 128 0 255
-0.027047 0.511623 4.3535 0 0 0 128 128 0 255
-0.0132659 0.447161 4.35677 0 0 0 128 128 0 255
0.00991148 0.338747 4.36228 0 0 0 128 128 0 255
-0.0348684 0.54769 4.35067 0 0 0 128 128 0 255
-0.0114822 0.4383 4.35623 0 0 0 128 128 0 255
-0.00459164 0.406068 4.35786 0 0 0 128 128 0 255
-0.0512464 0.623802 4.34581 0 0 0 128 128 0 255
-0.0161281 0.458603 4.3522 0 0 0 128 128 0 255
0.00182912 0.374607 4.35647 0 0 0 128 128 0 255
-0.026438 0.506394 4.34878 0 0 0 128 128 0 255
-0.0242154 0.495584 4.34833 0 0 0 128 128 0 255
-0.0938174 0.820759 4.33082 0 0 0 128 128 0 255
0.0288329 0.246332 4.35799 0 0 0 128 128 0 255
0.0337343 0.222766 4.35719 0 0 0 128 128 0 255
0.00378227 0.362313 4.3481 0 0 0 128 128 0 255
0.0020718 0.370068 4.34671 0 0 0 128 128 0 255
0.00624789 0.350534 4.3477 0 0 0 128 128 0 255
-0.0108013 0.429364 4.33869 0 0 0 128 128 0 255
0.0129781 0.317913 4.34235 0 0 0 128 128 0 255
0.0125532 0.319764 4.34025 0 0 0 128 128 0 255
0.0113032 0.325574 4.33895 0 0 0 128 128 0 255
0.0346894 0.216184 4.34451 0 0 0 128 128 0 255
-0.0281539 0.510121 4.32858 0 0 0 128 128 0 255
-0.0250219 0.49547 4.32933 0 0 0 128 128 0 255
-0.0358528 0.546163 4.32475 0 0 0 128 128 0 255
-0.0216342 0.479701 4.32712 0 0 0 128 128 0 255
0.0497772 0.14567 4.34409 0 0 0 128 128 0 255
0.058547 0.104649 4.34617 0 0 0 128 128 0 255
-0.0978239 0.836151 4.30802 0 0 0 128 128 0 255
0.0138869 0.313617 4.33456 0 0 0 128 128 0 255
0.0429108 0.177855 4.34145 0 0 0 128 128 0 255
-0.0107237 0.428822 4.3277 0 0 0 128 128 0 255
0.0439833 0.172927 4.3407 0 0 0 128 128 0 255
-0.039506 0.563563 4.31986 0 0 0 128 128 0 255
-0.0290658 0.514728 4.32234 0 0 0 128 128 0 255
0.0406751 0.188511 4.33891 0 0 0 128 128 0 255
0.0372038 0.20503 4.33607 0 0 0 128 128 0 255
-0.0439759 0.584925 4.31578 0 0 0 128 128 0 255
0.0598003 0.0995057 4.34043 0 0 0 128 128 0 255
-0.0421431 0.576994 4.31318 0 0 0 128 128 0 255
-0.0243947 0.493975 4.31739 0 0 0 128 128 0 255
-0.0452125 0.591607 4.31144 0 0 0 128 128 0 255
0.063575 0.0827472 4.33728 0 0 0 128 128 0 255
0.0641307 0.0807221 4.33538 0 0 0 128 128 0 255
-0.0435823 0.585575 4.30675 0 0 0 128 128 0 255
0.0684254 0.0620325 4.33234 0 0 0 128 128 0 255
0.0470111 0.162602 4.32624 0 0 0 128 128 0 255
0.0570337 0.11572 4.32862 0 0 0 128 128 0 255
-0.125574 0.970302 4.28422 0 0 0 128 128 0 255
0.0650626 0.0794957 4.32747 0 0 0 128 128 0 255
0.00566274 0.357828 4.31234 0 0 0 128 128 0 255
0.0541055 0.131234 4.32385 0 0 0 128 128 0 255
-0.00758702 0.42031 4.30817 0 0 0 128 128 0 255
0.0523401 0.139998 4.32241 0 0 0 128 128 0 255
0.0632295 0.0901367 4.32295 0 0 0 128 128 0 255
-0.0445962 0.595067 4.29632 0 0 0 128 128 0 255
0.0462341 0.170203 4.31789 0 0 0 128 128 0 255
0.0684245 0.0676055 4.32112 0 0 0 128 128 0 255
-0.12479 0.972008 4.2742 0 0 0 128 128 0 255
-0.108895 0.899677 4.27491 0 0 0 128 128 0 255
-0.0495944 0.622294 4.28899 0 0 0 128 128 0 255
-0.034035 0.550963 4.29064 0 0 0 128 128 0 255
-0.0485623 0.621243 4.28411 0 0 0 128 128 0 255
-0.0494564 0.62708 4.28185 0 0 0 128 128 0 255
0.00545937 0.370208 4.29489 0 0 0 128 128 0 255
0.0160348 0.327182 4.29021 0 0 0 128 128 0 255
0.0721524 0.106797 4.27072 0 0 0 128 128 0 255
0.0566293 0.181053 4.26601 0 0 0 128 128 0 255
0.00220895 0.438957 4.25105 0 0 0 128 128 0 255
0.0588889 0.177261 4.26248 0 0 0 128 128 0 255
0.0166112 0.378524 4.2504 0 0 0 128 128 0 255
-0.0424228 0.661904 4.23232 0 0 0 128 128 0 255
0.0269991 0.354606 4.23972 0 0 0 128 128 0 255
-0.0357206 0.6626 4.21781 0 0 0 128 128 0 255
0.0975651 0.0735383 4.23462 0 0 0 128 128 0 255
0.111438 0.0663796 4.21671 0 0 0 128 128 0 255
0.107429 0.0879513 4.21481 0 0 0 128 128 0 255
0.107776 0.0920291 4.21301 0 0 0 128 128 0 255
0.111592 0.097631 4.20645 0 0 0 128 128 0 255
0.0905158 0.211405 4.19684 0 0 0 128 128 0 255
0.0311961 0.514011 4.17549 0 0 0 128 128 0 255
0.123567 0.0883796 4.19563 0 0 0 128 128 0 255
0.036122 0.500653 4.17397 0 0 0 128 128 0 255
0.0851912 0.271128 4.18562 0 0 0 128 128 0 255
0.0983933 0.212633 4.18787 0 0 0 128 128 0 255
0.0840898 0.286102 4.1827 0 0 0 128 128 0 255
0.125907 0.0938018 4.19174 0 0 0 128 128 0 255
0.0186413 0.598865 4.16538 0 0 0 128 128 0 255
0.0220448 0.586279 4.16531 0 0 0 128 128 0 255
0.0253857 0.570652 4.16611 0 0 0 128 128 0 255
0.133756 0.0637453 4.19185 0 0 0 128 128 0 255
0.0467562 0.484178 4.16769 0 0 0 128 128 0 255
0.0382881 0.544458 4.1605 0 0 0 128 128 0 255
0.0506954 0.504043 4.15921 0 0 0 128 128 0 255
-0.0183096 0.830384 4.14198 0 0 0 128 128 0 255
0.0314984 0.600984 4.15297 0 0 0 128 128 0 255
0.0317073 0.600007 4.15302 0 0 0 128 128 0 255
0.0504997 0.512104 4.15749 0 0 0 128 128 0 255
0.0490625 0.526029 4.15548 0 0 0 128 128 0 255
0.055953 0.493798 4.15711 0 0 0 128 128 0 255
0.0422927 0.561316 4.15304 0 0 0 128 128 0 255
0.057953 0.488064 4.15676 0 0 0 128 128 0 255
0.0450935 0.573944 4.14797 0 0 0 128 128 0 255
0.0448182 0.57896 4.1471 0 0 0 128 128 0 255
0.0548408 0.532079 4.14948 0 0 0 128 128 0 255
0.0419203 0.60378 4.144 0 0 0 128 128 0 255
0.0653551 0.505542 4.14718 0 0 0 128 128 0 255
0.0731118 0.48461 4.14589 0 0 0 128 128 0 255
0.0528999 0.598617 4.13724 0 0 0 128 128 0 255
0.10164 0.394385 4.14429 0 0 0 128 128 0 255
0.0759451 0.518574 4.13744 0 0 0 128 128 0 255
0.0669568 0.564627 4.13457 0 0 0 128 128 0 255
0.0963984 0.426913 4.14156 0 0 0 128 128 0 255
0.0729999 0.544417 4.13453 0 0 0 128 128 0 255
0.0734147 0.546521 4.1339 0 0 0 128 128 0 255
0.0830198 0.501593 4.13618 0 0 0 128 128 0 255
0.0648649 0.602803 4.12897 0 0 0 128 128 0 255
0.0828409 0.526929 4.13182 0 0 0 128 128 0 255
0.110744 0.425478 4.13356 0 0 0 128 128 0 255
0.111371 0.422548 4.13371 0 0 0 128 128 0 255
0.116799 0.397154 4.13499 0 0 0 128 128 0 255
0.0961549 0.497914 4.12941 0 0 0 128 128 0 255
0.116409 0.403174 4.13422 0 0 0 128 128 0 255
0.0959751 0.502958 4.12868 0 0 0 128 128 0 255
0.0805547 0.579301 4.12434 0 0 0 128 128 0 255
0.100182 0.487492 4.129 0 0 0 128 128 0 255
0.120789 0.408054 4.13122 0 0 0 128 128 0 255
0.121012 0.428415 4.128 0 0 0 128 128 0 255
0.0887074 0.601156 4.11714 0 0 0 128 128 0 255
0.127754 0.418513 4.12641 0 0 0 128 128 0 255
0.134473 0.404547 4.12553 0 0 0 128 128 0 255
0.106977 0.53755 4.11838 0 0 0 128 128 0 255
0.136012 0.428229 4.12168 0 0 0 128 128 0 255
0.145853 0.395552 4.12227 0 0 0 128 128 0 255
0.113862 0.554133 4.11353 0 0 0 128 128 0 255
0.112153 0.571096 4.11199 0 0 0 128 128 0 255
0.113614 0.564259 4.11234 0 0 0 128 128 0 255
0.12134 0.528121 4.11417 0 0 0 128 128 0 255
0.113972 0.580609 4.1102 0 0 0 128 128 0 255
0.11583 0.580973 4.10956 0 0 0 128 128 0 255
0.150796 0.421954 4.11733 0 0 0 128 128 0 255
0.112473 0.605757 4.10769 0 0 0 128 128 0 255
0.15652 0.408832 4.1171 0 0 0 128 128 0 255
0.0420882 0.953223 4.08887 0 0 0 128 128 0 255
0.161736 0.411902 4.11526 0 0 0 128 128 0 255
0.130358 0.590984 4.1044 0 0 0 128 128 0 255
0.172745 0.392714 4.11447 0 0 0 128 128 0 255
0.129963 0.602109 4.10337 0 0 0 128 128 0 255
0.158209 0.488605 4.10825 0 0 0 128 128 0 255
0.144549 0.557167 4.10456 0 0 0 128 128 0 255
0.157779 0.513993 4.10595 0 0 0 128 128 0 255
0.177114 0.428238 4.11012 0 0 0 128 128 0 255
0.161997 0.50364 4.10611 0 0 0 128 128 0 255
0.184514 0.41242 4.11021 0 0 0 128 128 0 255
0.157289 0.544471 4.10334 0 0 0 128 128 0 255
0.167729 0.495636 4.10582 0 0 0 128 128 0 255
0.163659 0.533543 4.10327 0 0 0 128 128 0 255
0.156825 0.574963 4.10088 0 0 0 128 128 0 255
0.156884 0.584153 4.10015 0 0 0 128 128 0 255
0.162104 0.559735 4.10139 0 0 0 128 128 0 255
0.134666 0.707043 4.09342 0 0 0 128 128 0 255
0.202038 0.396655 4.10908 0 0 0 128 128 0 255
0.196329 0.428111 4.10737 0 0 0 128 128 0 255
0.161596 0.595329 4.09878 0 0 0 128 128 0 255
0.173219 0.54572 4.1012 0 0 0 128 128 0 255
0.134589 0.740693 4.09103 0 0 0 128 128 0 255
0.163684 0.61413 4.09731 0 0 0 128 128 0 255
0.143851 0.721204 4.09167 0 0 0 128 128 0 255
0.179139 0.556142 4.10005 0 0 0 128 128 0 255
0.215478 0.400487 4.10779 0 0 0 128 128 0 255
0.146922 0.725934 4.09122 0 0 0 128 128 0 255
0.187155 0.542521 4.1005 0 0 0 128 128 0 255
0.148459 0.7283 4.09103 0 0 0 128 128 0 255
0.149712 0.72244 4.09132 0 0 0 128 128 0 255
0.196485 0.503659 4.10243 0 0 0 128 128 0 255
0.149019 0.73046 4.09089 0 0 0 128 128 0 255
0.110324 0.91624 4.08142 0 0 0 128 128 0 255
0.194615 0.526745 4.10118 0 0 0 128 128 0 255
0.217375 0.420284 4.10659 0 0 0 128 128 0 255
0.189548 0.569574 4.09896 0 0 0 128 128 0 255
0.197768 0.54069 4.10043 0 0 0 128 128 0 255
0.185591 0.602431 4.0973 0 0 0 128 128 0 255
0.163183 0.712031 4.09175 0 0 0 128 128 0 255
0.228121 0.408278 4.10717 0 0 0 128 128 0 255
0.197503 0.561062 4.09945 0 0 0 128 128 0 255
0.191732 0.597619 4.09765 0 0 0 128 128 0 255
0.165223 0.735965 4.09074 0 0 0 128 128 0 255
0.21283 0.513277 4.10205 0 0 0 128 128 0 255
0.235179 0.423077 4.10678 0 0 0 128 128 0 255
0.119642 0.968286 4.07916 0 0 0 128 128 0 255
0.199614 0.59421 4.09815 0 0 0 128 128 0 255
0.215207 0.526053 4.10168 0 0 0 128 128 0 255
0.222724 0.490892 4.10346 0 0 0 128 128 0 255
0.233999 0.43815 4.10614 0 0 0 128 128 0 255
0.169201 0.746022 4.09058 0 0 0 128 128 0 255
0.246739 0.39288 4.10866 0 0 0 128 128 0 255
0.134123 0.924416 4.08175 0 0 0 128 128 0 255
0.20866 0.604357 4.09859 0 0 0 128 128 0 255
0.213808 0.585036 4.09968 0 0 0 128 128 0 255
0.238583 0.473906 4.10544 0 0 0 128 128 0 255
0.236422 0.488769 4.10481 0 0 0 128 128 0 255
0.172453 0.792736 4.0895 0 0 0 128 128 0 255
0.236198 0.50406 4.10442 0 0 0 128 128 0 255
0.144173 0.944001 4.08237 0 0 0 128 128 0 255
0.21809 0.59825 4.09992 0 0 0 128 128 0 255
0.235212 0.518161 4.10399 0 0 0 128 128 0 255
0.143235 0.967321 4.0818 0 0 0 128 128 0 255
0.197654 0.7175 4.09465 0 0 0 128 128 0 255
0.235496 0.549936 4.1035 0 0 0 128 128 0 255
0.23082 0.576521 4.10233 0 0 0 128 128 0 255
0.186597 0.7928 4.09171 0 0 0 128 128 0 255
0.249154 0.504888 4.10652 0 0 0 128 128 0 255
0.163583 0.914554 4.08612 0 0 0 128 128 0 255
0.201794 0.735818 4.09519 0 0 0 128 128 0 255
0.248149 0.518991 4.1062 0 0 0 128 128 0 255
0.205884 0.721382 4.09613 0 0 0 128 128 0 255
0.201829 0.745038 4.09514 0 0 0 128 128 0 255
0.218116 0.668855 4.099 0 0 0 128 128 0 255
0.248601 0.526257 4.10625 0 0 0 128 128 0 255
0.258953 0.48252 4.10868 0 0 0 128 128 0 255
0.255314 0.504222 4.10779 0 0 0 128 128 0 255
0.269214 0.443881 4.11108 0 0 0 128 128 0 255
0.246084 0.570734 4.10556 0 0 0 128 128 0 255
0.264668 0.483808 4.10998 0 0 0 128 128 0 255
0.251 0.552391 4.10674 0 0 0 128 128 0 255
0.19745 0.807524 4.09403 0 0 0 128 128 0 255
0.256862 0.534263 4.10815 0 0 0 128 128 0 255
0.249456 0.573546 4.10641 0 0 0 128 128 0 255
0.167923 0.959556 4.08707 0 0 0 128 128 0 255
0.217309 0.733177 4.09883 0 0 0 128 128 0 255
0.221068 0.715596 4.09972 0 0 0 128 128 0 255
0.270244 0.490193 4.11144 0 0 0 128 128 0 255
0.170541 0.961177 4.08779 0 0 0 128 128 0 255
0.259701 0.544126 4.10897 0 0 0 128 128 0 255
0.248113 0.602942 4.10626 0 0 0 128 128 0 255
0.25375 0.576572 4.1076 0 0 0 128 128 0 255
0.210316 0.788944 4.09738 0 0 0 128 128 0 255
0.182955 0.92611 4.09099 0 0 0 128 128 0 255
0.221793 0.744444 4.10022 0 0 0 128 128 0 255
0.234838 0.68801 4.10338 0 0 0 128 128 0 255
0.255398 0.596415 4.10833 0 0 0 128 128 0 255
0.227723 0.730436 4.10183 0 0 0 128 128 0 255
0.295585 0.413009 4.11795 0 0 0 128 128 0 255
0.296515 0.413223 4.11825 0 0 0 128 128 0 255
0.181974 0.953552 4.09113 0 0 0 128 128 0 255
0.18317 0.966127 4.09178 0 0 0 128 128 0 255
0.308662 0.379131 4.12159 0 0 0 128 128 0 255
0.194617 0.921626 4.09472 0 0 0 128 128 0 255
0.279601 0.524109 4.1149 0 0 0 128 128 0 255
0.271832 0.569464 4.11329 0 0 0 128 128 0 255
0.279509 0.542542 4.11536 0 0 0 128 128 0 255
0.277708 0.555452 4.11506 0 0 0 128 128 0 255
0.271803 0.592016 4.11394 0 0 0 128 128 0 255
0.145549 1.18704 4.08409 0 0 0 128 128 0 255
0.308 0.427166 4.12268 0 0 0 128 128 0 255
0.239653 0.755761 4.10675 0 0 0 128 128 0 255
0.281738 0.581014 4.11758 0 0 0 128 128 0 255
0.301483 0.497441 4.12263 0 0 0 128 128 0 255
0.207214 0.947144 4.10063 0 0 0 128 128 0 255
0.283428 0.590649 4.11873 0 0 0 128 128 0 255
0.306658 0.486353 4.12444 0 0 0 128 128 0 255
0.308148 0.501076 4.12585 0 0 0 128 128 0 255
0.32172 0.437591 4.12908 0 0 0 128 128 0 255
0.22592 0.890012 4.10655 0 0 0 128 128 0 255
0.28881 0.600142 4.12171 0 0 0 128 128 0 255
0.211381 0.966613 4.10356 0 0 0 128 128 0 255
0.302247 0.545864 4.12538 0 0 0 128 128 0 255
0.312185 0.51642 4.12873 0 0 0 128 128 0 255
0.309288 0.534208 4.1283 0 0 0 128 128 0 255
0.302443 0.574667 4.12721 0 0 0 128 128 0 255
0.334219 0.434436 4.13531 0 0 0 128 128 0 255
0.322567 0.50147 4.13339 0 0 0 128 128 0 255
0.326743 0.481936 4.13439 0 0 0 128 128 0 255
0.30963 0.566138 4.13061 0 0 0 128 128 0 255
0.230082 0.942373 4.11202 0 0 0 128 128 0 255
0.304417 0.594668 4.12967 0 0 0 128 128 0 255
0.319242 0.525322 4.1332 0 0 0 128 128 0 255
0.236562 0.920318 4.11417 0 0 0 128 128 0 255
0.307139 0.594305 4.13124 0 0 0 128 128 0 255
0.180602 1.1903 4.1015 0 0 0 128 128 0 255
0.212112 1.05515 4.10996 0 0 0 128 128 0 255
0.321724 0.546489 4.13633 0 0 0 128 128 0 255
0.232551 0.967649 4.11548 0 0 0 128 128 0 255
0.244035 0.91393 4.11821 0 0 0 128 128 0 255
0.343829 0.451178 4.14226 0 0 0 128 128 0 255
0.313325 0.597885 4.13535 0 0 0 128 128 0 255
0.320842 0.562723 4.13714 0 0 0 128 128 0 255
0.212405 1.08195 4.11244 0 0 0 128 128 0 255
0.361434 0.392807 4.14857 0 0 0 128 128 0 255
0.244228 0.948949 4.12148 0 0 0 128 128 0 255
0.325207 0.574096 4.14109 0 0 0 128 128 0 255
0.345171 0.488544 4.1466 0 0 0 128 128 0 255
0.340435 0.522346 4.14667 0 0 0 128 128 0 255
0.343985 0.505742 4.14751 0 0 0 128 128 0 255
0.361316 0.424676 4.15163 0 0 0 128 128 0 255
0.245794 0.968895 4.12459 0 0 0 128 128 0 255
0.33224 0.564542 4.14512 0 0 0 128 128 0 255
0.350615 0.478592 4.14949 0 0 0 128 128 0 255
0.351904 0.484065 4.15103 0 0 0 128 128 0 255
0.337927 0.560834 4.14898 0 0 0 128 128 0 255
0.256691 0.952097 4.131 0 0 0 128 128 0 255
0.263164 0.921819 4.13254 0 0 0 128 128 0 255
0.258619 0.95053 4.13235 0 0 0 128 128 0 255
0.335166 0.596181 4.15099 0 0 0 128 128 0 255
0.26149 0.948176 4.1344 0 0 0 128 128 0 255
0.333111 0.613169 4.15142 0 0 0 128 128 0 255
0.334155 0.608285 4.15166 0 0 0 128 128 0 255
0.352112 0.524289 4.15593 0 0 0 128 128 0 255
0.337628 0.602998 4.1539 0 0 0 128 128 0 255
0.292634 0.817085 4.14369 0 0 0 128 128 0 255
0.374277 0.435196 4.16308 0 0 0 128 128 0 255
0.344416 0.582079 4.15695 0 0 0 128 128 0 255
0.217144 1.18098 4.12721 0 0 0 128 128 0 255
0.335216 0.632268 4.15575 0 0 0 128 128 0 255
0.23905 1.08564 4.1334 0 0 0 128 128 0 255
0.326749 0.675431 4.15423 0 0 0 128 128 0 255
0.378623 0.436327 4.16706 0 0 0 128 128 0 255
0.347181 0.586926 4.16009 0 0 0 128 128 0 255
0.277108 0.918213 4.14396 0 0 0 128 128 0 255
0.221439 1.18211 4.13125 0 0 0 128 128 0 255
0.337345 0.650362 4.16034 0 0 0 128 128 0 255
0.351054 0.593105 4.16466 0 0 0 128 128 0 255
0.3825 0.452826 4.1732 0 0 0 128 128 0 255
0.233 1.16556 4.13988 0 0 0 128 128 0 255
0.280817 0.941901 4.15124 0 0 0 128 128 0 255
0.281114 0.947144 4.15243 0 0 0 128 128 0 255
0.281222 0.95647 4.15417 0 0 0 128 128 0 255
0.241702 1.1762 4.15134 0 0 0 128 128 0 255
0.243158 1.17246 4.1523 0 0 0 128 128 0 255
0.240852 1.18631 4.15237 0 0 0 128 128 0 255
0.243136 1.17866 4.15354 0 0 0 128 128 0 255
0.243705 1.18503 4.15557 0 0 0 128 128 0 255
0.300825 0.941208 4.17435 0 0 0 128 128 0 255
0.359655 0.668873 4.18899 0 0 0 128 128 0 255
0.396705 0.501205 4.19914 0 0 0 128 128 0 255
0.30853 0.943438 4.18582 0 0 0 128 128 0 255
0.370336 0.659527 4.20193 0 0 0 128 128 0 255
0.313394 0.94593 4.19425 0 0 0 128 128 0 255
0.37389 0.677238 4.21314 0 0 0 128 128 0 255
0.424838 0.438923 4.22524 0 0 0 128 128 0 255
0.429472 0.433078 4.23175 0 0 0 128 128 0 255
0.338706 0.870484 4.21494 0 0 0 128 128 0 255
0.277283 1.18692 4.21266 0 0 0 128 128 0 255
0.351347 0.842267 4.23109 0 0 0 128 128 0 255
0.277811 1.19655 4.21873 0 0 0 128 128 0 255
0.356982 0.832711 4.24099 0 0 0 128 128 0 255
0.449248 0.420017 4.27439 0 0 0 128 128 0 255
0.364777 0.817741 4.25612 0 0 0 128 128 0 255
0.434141 0.494556 4.2735 0 0 0 128 128 0 255
0.362682 0.836021 4.26199 0 0 0 128 128 0 255
0.363959 0.834448 4.26598 0 0 0 128 128 0 255
0.437245 0.492697 4.28431 0 0 0 128 128 0 255
0.44757 0.450263 4.29236 0 0 0 128 128 0 255
0.435387 0.509039 4.29135 0 0 0 128 128 0 255
0.440607 0.484621 4.29259 0 0 0 128 128 0 255
0.447289 0.453367 4.29418 0 0 0 128 128 0 255
0.445688 0.463388 4.29663 0 0 0 128 128 0 255
0.261049 1.32785 4.25372 0 0 0 128 128 0 255
0.26319 1.32472 4.2638 0 0 0 128 128 0 255
0.263443 1.32835 4.27359 0 0 0 128 128 0 255
0.394879 0.716927 4.32165 0 0 0 128 128 0 255
0.437081 0.519023 4.3397 0 0 0 128 128 0 255
0.42701 0.560627 4.35456 0 0 0 128 128 0 255
0.394073 0.706418 4.36003 0 0 0 128 128 0 255
