ply
format ascii 1.0
comment VCGLIB generated
element vertex 193
property float x
property float y
property float z
property float nx
property float ny
property float nz
property uchar red
property uchar green
property uchar blue
property uchar alpha
element face 0
property list uchar int vertex_indices
end_header
3.59869 1.07015 3.69794 0 0 0 0 255 255 255
3.58936 1.07081 3.78613 0 0 0 0 255 255 255
3.50723 1.08148 4.14469 0 0 0 0 255 255 255
3.53861 1.07737 4.00934 0 0 0 0 255 255 255
3.50479 1.0817 4.15952 0 0 0 0 255 255 255
3.51267 1.08005 4.14702 0 0 0 0 255 255 255
3.57974 1.06926 3.9041 0 0 0 0 255 255 255
3.53618 1.07325 4.12084 0 0 0 0 255 255 255
3.62309 1.06158 3.75007 0 0 0 0 255 255 255
3.6549 1.05713 3.61689 0 0 0 0 255 255 255
3.5494 1.06977 4.08807 0 0 0 0 255 255 255
3.53976 1.06938 4.14952 0 0 0 0 255 255 255
3.54992 1.06805 4.1057 0 0 0 0 255 255 255
3.65131 1.05332 3.68395 0 0 0 0 255 255 255
3.5658 1.06338 4.06434 0 0 0 0 255 255 255
3.56657 1.06248 4.06865 0 0 0 0 255 255 255
3.53782 1.06583 4.19642 0 0 0 0 255 255 255
3.59847 1.05747 3.93859 0 0 0 0 255 255 255
3.65731 1.04933 3.68854 0 0 0 0 255 255 255
3.66532 1.0456 3.67613 0 0 0 0 255 255 255
3.57806 1.05561 4.06331 0 0 0 0 255 255 255
3.55195 1.05754 4.1866 0 0 0 0 255 255 255
3.61796 1.04838 3.90538 0 0 0 0 255 255 255
3.57848 1.052 4.08611 0 0 0 0 255 255 255
3.72047 1.03339 3.47363 0 0 0 0 255 255 255
3.54815 1.0549 4.22379 0 0 0 0 255 255 255
3.72046 1.03177 3.48394 0 0 0 0 255 255 255
3.58639 1.04653 4.07887 0 0 0 0 255 255 255
3.68549 1.03354 3.6514 0 0 0 0 255 255 255
3.61696 1.04076 3.95673 0 0 0 0 255 255 255
3.72942 1.02481 3.47802 0 0 0 0 255 255 255
3.68067 1.03059 3.69145 0 0 0 0 255 255 255
3.69422 1.02882 3.63302 0 0 0 0 255 255 255
3.72673 1.02456 3.49281 0 0 0 0 255 255 255
3.70028 1.02424 3.62533 0 0 0 0 255 255 255
3.69107 1.01728 3.6994 0 0 0 0 255 255 255
3.62574 1.02513 3.98389 0 0 0 0 255 255 255
3.70581 1.01246 3.64648 0 0 0 0 255 255 255
3.59316 1.02575 4.13755 0 0 0 0 255 255 255
3.7408 1.00262 3.51317 0 0 0 0 255 255 255
3.60973 1.01591 4.09034 0 0 0 0 255 255 255
3.71244 1.00245 3.64729 0 0 0 0 255 255 255
3.60842 1.01529 4.09827 0 0 0 0 255 255 255
3.60352 1.01433 4.12387 0 0 0 0 255 255 255
3.63338 1.00799 4.00159 0 0 0 0 255 255 255
3.64151 1.00611 3.96861 0 0 0 0 255 255 255
3.64349 1.00169 3.97023 0 0 0 0 255 255 255
3.75659 0.986868 3.48239 0 0 0 0 255 255 255
3.61682 0.98762 4.11852 0 0 0 0 255 255 255
3.62708 0.977941 4.08525 0 0 0 0 255 255 255
3.75861 0.955024 3.52388 0 0 0 0 255 255 255
3.73974 0.954626 3.60783 0 0 0 0 255 255 255
3.73539 0.954234 3.62738 0 0 0 0 255 255 255
3.72979 0.936342 3.66051 0 0 0 0 255 255 255
3.74021 0.933982 3.61576 0 0 0 0 255 255 255
3.72217 0.93535 3.69369 0 0 0 0 255 255 255
3.72924 0.921388 3.66186 0 0 0 0 255 255 255
3.71907 0.896554 3.68696 0 0 0 0 255 255 255
3.69872 0.898222 3.7736 0 0 0 0 255 255 255
3.74057 0.889744 3.58946 0 0 0 0 255 255 255
3.62562 0.900839 4.08006 0 0 0 0 255 255 255
3.74278 0.885482 3.57469 0 0 0 0 255 255 255
3.64282 0.896606 4.00305 0 0 0 0 255 255 255
3.72246 0.874434 3.64015 0 0 0 0 255 255 255
3.72291 0.874374 3.63821 0 0 0 0 255 255 255
3.73327 0.864408 3.57621 0 0 0 0 255 255 255
3.72851 0.863146 3.5926 0 0 0 0 255 255 255
3.72631 0.858765 3.5912 0 0 0 0 255 255 255
3.72275 0.853724 3.59258 0 0 0 0 255 255 255
3.60069 0.866114 4.10923 0 0 0 0 255 255 255
3.59818 0.862888 4.10977 0 0 0 0 255 255 255
3.71497 0.841495 3.58704 0 0 0 0 255 255 255
3.57718 0.857004 4.17286 0 0 0 0 255 255 255
3.69438 0.8408 3.66445 0 0 0 0 255 255 255
3.71523 0.835565 3.56572 0 0 0 0 255 255 255
3.59584 0.849566 4.07472 0 0 0 0 255 255 255
3.62226 0.844472 3.95468 0 0 0 0 255 255 255
3.56988 0.850529 4.17753 0 0 0 0 255 255 255
3.61062 0.840429 3.98291 0 0 0 0 255 255 255
3.68007 0.829776 3.67687 0 0 0 0 255 255 255
3.69361 0.828001 3.61845 0 0 0 0 255 255 255
3.64526 0.833571 3.82376 0 0 0 0 255 255 255
3.56343 0.842775 4.17011 0 0 0 0 255 255 255
3.66971 0.825859 3.69821 0 0 0 0 255 255 255
3.69883 0.822042 3.57259 0 0 0 0 255 255 255
3.70154 0.821687 3.56091 0 0 0 0 255 255 255
3.67775 0.82407 3.66007 0 0 0 0 255 255 255
3.67843 0.823981 3.65715 0 0 0 0 255 255 255
3.69401 0.82194 3.58997 0 0 0 0 255 255 255
3.70281 0.820786 3.55199 0 0 0 0 255 255 255
3.70295 0.820038 3.54794 0 0 0 0 255 255 255
3.67578 0.822876 3.66171 0 0 0 0 255 255 255
3.58287 0.827434 4.02309 0 0 0 0 255 255 255
3.62757 0.821575 3.83029 0 0 0 0 255 255 255
3.57914 0.825315 4.02434 0 0 0 0 255 255 255
3.67794 0.811095 3.59068 0 0 0 0 255 255 255
3.57483 0.823982 4.0316 0 0 0 0 255 255 255
3.67377 0.810392 3.60103 0 0 0 0 255 255 255
3.56525 0.824002 4.06532 0 0 0 0 255 255 255
3.68173 0.808734 3.56287 0 0 0 0 255 255 255
3.55994 0.823485 4.08054 0 0 0 0 255 255 255
3.66079 0.807909 3.62993 0 0 0 0 255 255 255
3.54518 0.818639 4.09678 0 0 0 0 255 255 255
3.54676 0.818432 4.08996 0 0 0 0 255 255 255
3.5118 0.819957 4.21634 0 0 0 0 255 255 255
3.65716 0.799462 3.57697 0 0 0 0 255 255 255
3.65666 0.798141 3.56663 0 0 0 0 255 255 255
3.52645 0.812205 4.09879 0 0 0 0 255 255 255
3.49661 0.815713 4.22322 0 0 0 0 255 255 255
3.49684 0.815683 4.22225 0 0 0 0 255 255 255
3.5237 0.812162 4.10637 0 0 0 0 255 255 255
3.52393 0.812132 4.1054 0 0 0 0 255 255 255
3.49289 0.813223 4.20498 0 0 0 0 255 255 255
3.477 0.81336 4.2475 0 0 0 0 255 255 255
3.59709 0.797618 3.72947 0 0 0 0 255 255 255
3.46377 0.813397 4.27832 0 0 0 0 255 255 255
3.4678 0.811879 4.24336 0 0 0 0 255 255 255
3.46796 0.811628 4.23827 0 0 0 0 255 255 255
3.57479 0.795877 3.7377 0 0 0 0 255 255 255
3.57397 0.795674 3.73239 0 0 0 0 255 255 255
3.57378 0.794663 3.69335 0 0 0 0 255 255 255
3.55611 0.796901 3.76518 0 0 0 0 255 255 255
3.56689 0.7951 3.67017 0 0 0 0 255 255 255
3.40202 0.81826 4.29467 0 0 0 0 255 255 255
3.61919 0.789795 3.35793 0 0 0 0 255 255 255
3.39542 0.819441 4.31467 0 0 0 0 255 255 255
3.39897 0.819317 4.29085 0 0 0 0 255 255 255
3.60342 0.79629 3.34278 0 0 0 0 255 255 255
3.38016 0.828111 4.2739 0 0 0 0 255 255 255
3.55994 0.806753 3.47513 0 0 0 0 255 255 255
3.53621 0.811057 3.56604 0 0 0 0 255 255 255
3.45914 0.825099 3.86508 0 0 0 0 255 255 255
3.36157 0.844497 4.24033 0 0 0 0 255 255 255
3.51802 0.826234 3.55212 0 0 0 0 255 255 255
3.48473 0.832344 3.68594 0 0 0 0 255 255 255
3.45649 0.83664 3.80455 0 0 0 0 255 255 255
3.47022 0.836046 3.73894 0 0 0 0 255 255 255
3.45395 0.839407 3.80285 0 0 0 0 255 255 255
3.34581 0.854204 4.26617 0 0 0 0 255 255 255
3.36436 0.85831 4.15635 0 0 0 0 255 255 255
3.35658 0.860703 4.18425 0 0 0 0 255 255 255
3.45176 0.849622 3.76814 0 0 0 0 255 255 255
3.4325 0.853561 3.84571 0 0 0 0 255 255 255
3.42456 0.86507 3.84455 0 0 0 0 255 255 255
3.44031 0.863789 3.7743 0 0 0 0 255 255 255
3.43462 0.865323 3.79655 0 0 0 0 255 255 255
3.45839 0.866215 3.68291 0 0 0 0 255 255 255
3.31831 0.892057 4.26891 0 0 0 0 255 255 255
3.43502 0.87676 3.76549 0 0 0 0 255 255 255
3.33103 0.897308 4.19981 0 0 0 0 255 255 255
3.31453 0.901238 4.26775 0 0 0 0 255 255 255
3.41069 0.888633 3.85294 0 0 0 0 255 255 255
3.32878 0.908401 4.19176 0 0 0 0 255 255 255
3.42467 0.896753 3.77686 0 0 0 0 255 255 255
3.32789 0.915021 4.18725 0 0 0 0 255 255 255
3.33976 0.923943 4.12606 0 0 0 0 255 255 255
3.3387 0.925048 4.12989 0 0 0 0 255 255 255
3.30849 0.931919 4.25823 0 0 0 0 255 255 255
3.31187 0.931475 4.24363 0 0 0 0 255 255 255
3.41256 0.945082 3.80442 0 0 0 0 255 255 255
3.28734 0.977621 4.35258 0 0 0 0 255 255 255
3.47697 0.952766 3.53465 0 0 0 0 255 255 255
3.42712 0.96935 3.75879 0 0 0 0 255 255 255
3.29643 0.987481 4.32358 0 0 0 0 255 255 255
3.48458 0.978681 3.53357 0 0 0 0 255 255 255
3.48605 0.982392 3.5338 0 0 0 0 255 255 255
3.4624 0.988401 3.6411 0 0 0 0 255 255 255
3.46446 0.996737 3.64954 0 0 0 0 255 255 255
3.37075 1.02736 4.10032 0 0 0 0 255 255 255
3.49765 1.03474 3.63862 0 0 0 0 255 255 255
3.52535 1.03561 3.53924 0 0 0 0 255 255 255
3.46055 1.04772 3.83605 0 0 0 0 255 255 255
3.47452 1.04869 3.78996 0 0 0 0 255 255 255
3.45139 1.05241 3.89334 0 0 0 0 255 255 255
3.45207 1.05232 3.89042 0 0 0 0 255 255 255
3.45683 1.05306 3.87713 0 0 0 0 255 255 255
3.45432 1.0646 3.9563 0 0 0 0 255 255 255
3.46267 1.0635 3.92027 0 0 0 0 255 255 255
3.5006 1.05853 3.75668 0 0 0 0 255 255 255
3.53781 1.05422 3.6001 0 0 0 0 255 255 255
3.51133 1.05936 3.72628 0 0 0 0 255 255 255
3.4643 1.07019 3.96563 0 0 0 0 255 255 255
3.58078 1.05492 3.46318 0 0 0 0 255 255 255
3.54006 1.06441 3.67631 0 0 0 0 255 255 255
3.55417 1.06423 3.63234 0 0 0 0 255 255 255
3.49093 1.07624 3.948 0 0 0 0 255 255 255
3.45462 1.08615 4.18781 0 0 0 0 255 255 255
3.60598 1.06772 3.57031 0 0 0 0 255 255 255
3.4716 1.08657 4.20303 0 0 0 0 255 255 255
3.52427 1.07973 3.98027 0 0 0 0 255 255 255
3.52924 1.07907 3.95885 0 0 0 0 255 255 255
3.58906 1.07123 3.70081 0 0 0 0 255 255 255
3.63624 1.06505 3.4973 0 0 0 0 255 255 255
