ply
format ascii 1.0
comment VCGLIB generated
element vertex 11
property float x
property float y
property float z
property float nx
property float ny
property float nz
property uchar red
property uchar green
property uchar blue
property uchar alpha
element face 0
property list uchar int vertex_indices
end_header
-0.324948 1.58753 3.37963 0 0 0 0 0 128 255
-0.318004 1.59331 3.38146 0 0 0 0 0 128 255
-0.170471 1.60946 3.45491 0 0 0 0 0 128 255
-0.170467 1.60811 3.45534 0 0 0 0 0 128 255
-0.321166 1.41807 3.43925 0 0 0 0 0 128 255
-0.15193 1.61012 3.4639 0 0 0 0 0 128 255
-0.312819 1.41319 3.44486 0 0 0 0 0 128 255
-0.170322 1.57974 3.46411 0 0 0 0 0 128 255
-0.191193 1.53952 3.46603 0 0 0 0 0 128 255
-0.2375 1.35602 3.49554 0 0 0 0 0 128 255
-0.227698 1.35661 3.49961 0 0 0 0 0 128 255
