ply
format ascii 1.0
comment VCGLIB generated
element vertex 170
property float x
property float y
property float z
property float nx
property float ny
property float nz
property uchar red
property uchar green
property uchar blue
property uchar alpha
element face 0
property list uchar int vertex_indices
end_header
-0.561117 0.54538 3.79166 0 0 0 255 255 0 255
-0.571628 0.548624 3.79166 0 0 0 255 255 0 255
-0.625062 0.551823 3.79441 0 0 0 255 255 0 255
-0.624971 0.548726 3.79505 0 0 0 255 255 0 255
-0.625836 0.545925 3.79568 0 0 0 255 255 0 255
-0.630144 0.542141 3.79674 0 0 0 255 255 0 255
-0.622986 0.534817 3.7978 0 0 0 255 255 0 255
-0.678512 0.544798 3.79928 0 0 0 255 255 0 255
-0.681288 0.542587 3.79992 0 0 0 255 255 0 255
-0.633801 0.526904 3.80013 0 0 0 255 255 0 255
-0.736147 0.551339 3.80161 0 0 0 255 255 0 255
-0.700521 0.531136 3.80352 0 0 0 255 255 0 255
-0.736361 0.537086 3.80458 0 0 0 255 255 0 255
-0.755092 0.540822 3.805 0 0 0 255 255 0 255
-0.770668 0.544608 3.80521 0 0 0 255 255 0 255
-0.771838 0.530649 3.80818 0 0 0 255 255 0 255
-0.823542 0.539451 3.80966 0 0 0 255 255 0 255
-0.821828 0.534831 3.81051 0 0 0 255 255 0 255
-0.811894 0.529718 3.81093 0 0 0 255 255 0 255
-0.562539 0.432286 3.81517 0 0 0 255 255 0 255
-0.882923 0.530166 3.81538 0 0 0 255 255 0 255
-0.579936 0.433565 3.81602 0 0 0 255 255 0 255
-0.622176 0.442513 3.81686 0 0 0 255 255 0 255
-0.630306 0.439909 3.81792 0 0 0 255 255 0 255
-0.950022 0.53656 3.81835 0 0 0 255 255 0 255
-0.954421 0.535872 3.81877 0 0 0 255 255 0 255
-0.584548 0.418624 3.81941 0 0 0 255 255 0 255
-0.596014 0.422163 3.81941 0 0 0 255 255 0 255
-0.577102 0.412234 3.82025 0 0 0 255 255 0 255
-0.651541 0.432145 3.82089 0 0 0 255 255 0 255
-0.595454 0.413808 3.8211 0 0 0 255 255 0 255
-0.577588 0.40727 3.82131 0 0 0 255 255 0 255
-0.628139 0.419806 3.82195 0 0 0 255 255 0 255
-0.586871 0.40093 3.82322 0 0 0 255 255 0 255
-0.683772 0.422661 3.82491 0 0 0 255 255 0 255
-0.687594 0.423841 3.82491 0 0 0 255 255 0 255
-0.742347 0.43972 3.82512 0 0 0 255 255 0 255
-0.705279 0.424186 3.82597 0 0 0 255 255 0 255
-0.760517 0.435101 3.82724 0 0 0 255 255 0 255
-0.642232 0.394495 3.82809 0 0 0 255 255 0 255
-0.649027 0.389433 3.82957 0 0 0 255 255 0 255
-0.651894 0.390318 3.82957 0 0 0 255 255 0 255
-0.657825 0.388058 3.83042 0 0 0 255 255 0 255
-0.761415 0.411853 3.83211 0 0 0 255 255 0 255
-0.766192 0.413328 3.83211 0 0 0 255 255 0 255
-0.707527 0.393173 3.83254 0 0 0 255 255 0 255
-0.83185 0.424392 3.83402 0 0 0 255 255 0 255
-0.863868 0.429161 3.83508 0 0 0 255 255 0 255
-0.769758 0.394996 3.83614 0 0 0 255 255 0 255
-0.850507 0.414809 3.8372 0 0 0 255 255 0 255
-0.836569 0.402324 3.83889 0 0 0 255 255 0 255
-0.922565 0.42887 3.83889 0 0 0 255 255 0 255
-0.778572 0.383397 3.8391 0 0 0 255 255 0 255
-0.778193 0.381234 3.83953 0 0 0 255 255 0 255
-0.821009 0.388315 3.8408 0 0 0 255 255 0 255
-0.914558 0.414125 3.84143 0 0 0 255 255 0 255
-0.948487 0.419485 3.84249 0 0 0 255 255 0 255
-0.96282 0.423909 3.84249 0 0 0 255 255 0 255
-1.00008 0.435413 3.84249 0 0 0 255 255 0 255
-0.955282 0.414423 3.84398 0 0 0 255 255 0 255
-0.961501 0.411228 3.84503 0 0 0 255 255 0 255
-0.904747 0.391663 3.84546 0 0 0 255 255 0 255
-0.886502 0.382962 3.84609 0 0 0 255 255 0 255
-1.01744 0.402926 3.85033 0 0 0 255 255 0 255
-0.941287 0.378395 3.85054 0 0 0 255 255 0 255
-0.980084 0.388326 3.85097 0 0 0 255 255 0 255
-1.04699 0.39875 3.85308 0 0 0 255 255 0 255
-0.732911 0.300773 3.8533 0 0 0 255 255 0 255
-1.04441 0.396931 3.8533 0 0 0 255 255 0 255
-0.737508 0.296055 3.85457 0 0 0 255 255 0 255
-0.793429 0.297975 3.85774 0 0 0 255 255 0 255
-0.797539 0.298221 3.85796 0 0 0 255 255 0 255
-0.815801 0.296699 3.85944 0 0 0 255 255 0 255
-0.866764 0.290952 3.86389 0 0 0 255 255 0 255
-0.816698 0.273451 3.86431 0 0 0 255 255 0 255
-0.884449 0.291297 3.86494 0 0 0 255 255 0 255
-0.754318 0.244989 3.86622 0 0 0 255 255 0 255
-0.76627 0.243564 3.86727 0 0 0 255 255 0 255
-0.978014 0.306884 3.8677 0 0 0 255 255 0 255
-0.970567 0.300494 3.86855 0 0 0 255 255 0 255
-0.973722 0.300445 3.86876 0 0 0 255 255 0 255
-0.762843 0.234324 3.86897 0 0 0 255 255 0 255
-0.860305 0.264411 3.86897 0 0 0 255 255 0 255
-0.898525 0.276209 3.86897 0 0 0 255 255 0 255
-0.76468 0.221594 3.87172 0 0 0 255 255 0 255
-1.04273 0.307429 3.87172 0 0 0 255 255 0 255
-0.765924 0.220955 3.87193 0 0 0 255 255 0 255
-0.7901 0.227396 3.87215 0 0 0 255 255 0 255
-1.04962 0.305464 3.87257 0 0 0 255 255 0 255
-0.748831 0.208519 3.87342 0 0 0 255 255 0 255
-1.02001 0.286097 3.87469 0 0 0 255 255 0 255
-0.760025 0.20277 3.87532 0 0 0 255 255 0 255
-1.03254 0.282805 3.87617 0 0 0 255 255 0 255
-0.818904 0.208672 3.87787 0 0 0 255 255 0 255
-0.818813 0.205575 3.8785 0 0 0 255 255 0 255
-0.899364 0.229419 3.87871 0 0 0 255 255 0 255
-0.902231 0.230303 3.87871 0 0 0 255 255 0 255
-1.04747 0.275138 3.87871 0 0 0 255 255 0 255
-0.931126 0.214676 3.8838 0 0 0 255 255 0 255
-0.996331 0.210257 3.88888 0 0 0 255 255 0 255
-1.03388 0.220827 3.88909 0 0 0 255 255 0 255
-0.999106 0.208045 3.88951 0 0 0 255 255 0 255
-0.593304 0.081751 3.88973 0 0 0 255 255 0 255
-0.606302 0.0837179 3.89015 0 0 0 255 255 0 255
-0.615494 0.0742818 3.89269 0 0 0 255 255 0 255
-0.591516 0.0638112 3.89333 0 0 0 255 255 0 255
-0.619802 0.0704975 3.89375 0 0 0 255 255 0 255
-0.678574 0.0835263 3.89481 0 0 0 255 255 0 255
-0.684884 0.0834285 3.89523 0 0 0 255 255 0 255
-0.649727 0.0684845 3.89608 0 0 0 255 255 0 255
-0.971355 0.165725 3.8965 0 0 0 255 255 0 255
-0.588394 0.0434137 3.89735 0 0 0 255 255 0 255
-0.679562 0.0633749 3.89905 0 0 0 255 255 0 255
-0.74522 0.0744383 3.90095 0 0 0 255 255 0 255
-0.736818 0.0677533 3.9018 0 0 0 255 255 0 255
-0.584423 0.0155946 3.90286 0 0 0 255 255 0 255
-0.776768 0.0739489 3.90307 0 0 0 255 255 0 255
-0.599332 0.0181514 3.90328 0 0 0 255 255 0 255
-0.779544 0.0717374 3.90371 0 0 0 255 255 0 255
-0.689347 0.0418479 3.90413 0 0 0 255 255 0 255
-0.696036 0.0439127 3.90413 0 0 0 255 255 0 255
-0.980307 0.126553 3.90519 0 0 0 255 255 0 255
-0.982507 0.12621 3.9054 0 0 0 255 255 0 255
-1.00028 0.129651 3.90582 0 0 0 255 255 0 255
-0.992169 0.122032 3.90688 0 0 0 255 255 0 255
-0.701027 0.0311341 3.9071 0 0 0 255 255 0 255
-0.663293 0.0143714 3.90815 0 0 0 255 255 0 255
-0.837483 0.0671213 3.90837 0 0 0 255 255 0 255
-0.592206 -0.00961873 3.90858 0 0 0 255 255 0 255
-0.677246 0.0166332 3.90858 0 0 0 255 255 0 255
-0.613136 -0.00622594 3.90921 0 0 0 255 255 0 255
-0.622692 -0.00327629 3.90921 0 0 0 255 255 0 255
-0.888611 0.0777904 3.90943 0 0 0 255 255 0 255
-0.679643 0.0122591 3.90964 0 0 0 255 255 0 255
-1.00672 0.112204 3.90985 0 0 0 255 255 0 255
-0.85843 0.0602909 3.91112 0 0 0 255 255 0 255
-0.639437 -0.0134491 3.91239 0 0 0 255 255 0 255
-0.874887 0.0510519 3.91409 0 0 0 255 255 0 255
-0.706916 -0.00489239 3.91493 0 0 0 255 255 0 255
-0.765778 0.0112329 3.91536 0 0 0 255 255 0 255
-0.869261 0.0421554 3.91557 0 0 0 255 255 0 255
-0.962901 0.071062 3.91557 0 0 0 255 255 0 255
-0.696907 -0.0233243 3.91811 0 0 0 255 255 0 255
-0.975915 0.0628057 3.91811 0 0 0 255 255 0 255
-0.87034 0.0251004 3.91917 0 0 0 255 255 0 255
-0.772211 -0.00621486 3.91938 0 0 0 255 255 0 255
-0.712788 -0.0306957 3.92065 0 0 0 255 255 0 255
-0.72072 -0.0292698 3.92086 0 0 0 255 255 0 255
-0.725786 -0.0287288 3.92107 0 0 0 255 255 0 255
-1.04932 0.069102 3.9215 0 0 0 255 255 0 255
-0.72016 -0.0376253 3.92256 0 0 0 255 255 0 255
-0.768709 -0.0287749 3.92383 0 0 0 255 255 0 255
-0.914902 0.0163548 3.92383 0 0 0 255 255 0 255
-0.803017 -0.0212526 3.92446 0 0 0 255 255 0 255
-0.988295 0.0328743 3.9251 0 0 0 255 255 0 255
-0.898296 -0.00104535 3.92637 0 0 0 255 255 0 255
-0.811921 -0.0297549 3.92679 0 0 0 255 255 0 255
-0.844408 -0.0197261 3.92679 0 0 0 255 255 0 255
-0.811163 -0.0340802 3.92764 0 0 0 255 255 0 255
-0.851583 -0.0226254 3.92785 0 0 0 255 255 0 255
-0.851871 -0.0235592 3.92806 0 0 0 255 255 0 255
-0.976573 0.00982222 3.92912 0 0 0 255 255 0 255
-0.797514 -0.0474991 3.92955 0 0 0 255 255 0 255
-0.974481 0.00303935 3.93039 0 0 0 255 255 0 255
-0.908748 -0.0213435 3.93124 0 0 0 255 255 0 255
-0.91028 -0.0229163 3.93167 0 0 0 255 255 0 255
-0.97621 -0.00256361 3.93167 0 0 0 255 255 0 255
-0.963335 -0.0218804 3.93484 0 0 0 255 255 0 255
-0.992502 -0.0282187 3.93802 0 0 0 255 255 0 255
-0.992898 -0.0362793 3.93971 0 0 0 255 255 0 255
