ply
format ascii 1.0
comment VCGLIB generated
element vertex 102
property float x
property float y
property float z
property float nx
property float ny
property float nz
property uchar red
property uchar green
property uchar blue
property uchar alpha
element face 0
property list uchar int vertex_indices
end_header
-0.679146 0.0908005 3.50813 0 0 0 0 255 255 255
-0.678825 0.0948984 3.50846 0 0 0 0 255 255 255
-0.6648 0.0850624 3.51715 0 0 0 0 255 255 255
-0.656634 0.0277555 3.52092 0 0 0 0 255 255 255
-0.661681 0.0875909 3.51912 0 0 0 0 255 255 255
-0.651222 0.0326762 3.52431 0 0 0 0 255 255 255
-0.651348 0.0336666 3.52425 0 0 0 0 255 255 255
-0.679925 0.291859 3.51221 0 0 0 0 255 255 255
-0.651175 0.107477 3.52569 0 0 0 0 255 255 255
-0.691837 0.426389 3.50764 0 0 0 0 255 255 255
-0.690473 0.422564 3.50835 0 0 0 0 255 255 255
-0.644403 0.109567 3.52953 0 0 0 0 255 255 255
-0.680266 0.390844 3.51361 0 0 0 0 255 255 255
-0.676364 0.429856 3.51621 0 0 0 0 255 255 255
-0.668812 0.391644 3.51979 0 0 0 0 255 255 255
-0.621085 0.0243398 3.54104 0 0 0 0 255 255 255
-0.668829 0.412856 3.51998 0 0 0 0 255 255 255
-0.642954 0.238105 3.53171 0 0 0 0 255 255 255
-0.652298 0.311396 3.52757 0 0 0 0 255 255 255
-0.610625 0.012844 3.54628 0 0 0 0 255 255 255
-0.611001 0.0228862 3.54616 0 0 0 0 255 255 255
-0.609479 0.0251431 3.54693 0 0 0 0 255 255 255
-0.642942 0.287602 3.53207 0 0 0 0 255 255 255
-0.645847 0.310381 3.53078 0 0 0 0 255 255 255
-0.672992 0.53039 3.51878 0 0 0 0 255 255 255
-0.644195 0.311648 3.5316 0 0 0 0 255 255 255
-0.6674 0.522167 3.52144 0 0 0 0 255 255 255
-0.63705 0.312752 3.53503 0 0 0 0 255 255 255
-0.599758 0.0417946 3.55164 0 0 0 0 255 255 255
-0.608345 0.109142 3.54783 0 0 0 0 255 255 255
-0.626261 0.256852 3.53989 0 0 0 0 255 255 255
-0.592333 0.0267769 3.55501 0 0 0 0 255 255 255
-0.600667 0.092144 3.55131 0 0 0 0 255 255 255
-0.640406 0.418265 3.53368 0 0 0 0 255 255 255
-0.59544 0.109096 3.55362 0 0 0 0 255 255 255
-0.612741 0.244782 3.54594 0 0 0 0 255 255 255
-0.629863 0.39362 3.53831 0 0 0 0 255 255 255
-0.610362 0.255239 3.54694 0 0 0 0 255 255 255
-0.622433 0.393734 3.54144 0 0 0 0 255 255 255
-0.627578 0.441412 3.53912 0 0 0 0 255 255 255
-0.62363 0.41778 3.54084 0 0 0 0 255 255 255
-0.606515 0.298217 3.54837 0 0 0 0 255 255 255
-0.63464 0.526149 3.53585 0 0 0 0 255 255 255
-0.636155 0.538034 3.53517 0 0 0 0 255 255 255
-0.596468 0.234117 3.55275 0 0 0 0 255 255 255
-0.597983 0.246001 3.55208 0 0 0 0 255 255 255
-0.596053 0.238216 3.55289 0 0 0 0 255 255 255
-0.633016 0.535477 3.53644 0 0 0 0 255 255 255
-0.603808 0.313763 3.54936 0 0 0 0 255 255 255
-0.624236 0.525687 3.53991 0 0 0 0 255 255 255
-0.625582 0.543652 3.53925 0 0 0 0 255 255 255
-0.594051 0.311182 3.55312 0 0 0 0 255 255 255
-0.593122 0.311319 3.55346 0 0 0 0 255 255 255
-0.560451 0.0699352 3.56782 0 0 0 0 255 255 255
-0.587663 0.313137 3.55544 0 0 0 0 255 255 255
-0.551449 0.0440209 3.57135 0 0 0 0 255 255 255
-0.614209 0.536255 3.54349 0 0 0 0 255 255 255
-0.582968 0.298694 3.55727 0 0 0 0 255 255 255
-0.543741 0.0209396 3.57432 0 0 0 0 255 255 255
-0.54495 0.0379142 3.57369 0 0 0 0 255 255 255
-0.550002 0.0775306 3.57145 0 0 0 0 255 255 255
-0.544732 0.066196 3.57338 0 0 0 0 255 255 255
-0.549095 0.107931 3.57134 0 0 0 0 255 255 255
-0.548786 0.11302 3.57137 0 0 0 0 255 255 255
-0.587622 0.425137 3.55402 0 0 0 0 255 255 255
-0.581386 0.398808 3.55645 0 0 0 0 255 255 255
-0.531393 0.051998 3.57791 0 0 0 0 255 255 255
-0.535055 0.0958503 3.57602 0 0 0 0 255 255 255
-0.571857 0.422381 3.559 0 0 0 0 255 255 255
-0.585368 0.528354 3.55301 0 0 0 0 255 255 255
-0.520445 0.0495438 3.58124 0 0 0 0 255 255 255
-0.562737 0.396461 3.56217 0 0 0 0 255 255 255
-0.57813 0.53242 3.55502 0 0 0 0 255 255 255
-0.519252 0.101148 3.58051 0 0 0 0 255 255 255
-0.571944 0.537338 3.55662 0 0 0 0 255 255 255
-0.490568 0.0295912 3.58955 0 0 0 0 255 255 255
-0.537164 0.395052 3.56887 0 0 0 0 255 255 255
-0.489476 0.0287365 3.58983 0 0 0 0 255 255 255
-0.531955 0.392759 3.57014 0 0 0 0 255 255 255
-0.4934 0.105811 3.58682 0 0 0 0 255 255 255
-0.53183 0.414955 3.56954 0 0 0 0 255 255 255
-0.531702 0.437149 3.56893 0 0 0 0 255 255 255
-0.486702 0.0996899 3.58845 0 0 0 0 255 255 255
-0.536184 0.534299 3.56508 0 0 0 0 255 255 255
-0.47211 0.0472869 3.59304 0 0 0 0 255 255 255
-0.530866 0.515885 3.56671 0 0 0 0 255 255 255
-0.469568 0.0506618 3.59342 0 0 0 0 255 255 255
-0.530379 0.543164 3.56592 0 0 0 0 255 255 255
-0.474094 0.109499 3.59065 0 0 0 0 255 255 255
-0.459963 0.0298128 3.59588 0 0 0 0 255 255 255
-0.453973 0.0296258 3.59693 0 0 0 0 255 255 255
-0.500759 0.412191 3.5756 0 0 0 0 255 255 255
-0.500064 0.422362 3.57535 0 0 0 0 255 255 255
-0.490171 0.399525 3.57771 0 0 0 0 255 255 255
-0.487941 0.429044 3.57689 0 0 0 0 255 255 255
-0.481203 0.399729 3.57895 0 0 0 0 255 255 255
-0.478251 0.400126 3.57931 0 0 0 0 255 255 255
-0.479035 0.414124 3.57864 0 0 0 0 255 255 255
-0.491588 0.528285 3.57242 0 0 0 0 255 255 255
-0.477722 0.427395 3.57825 0 0 0 0 255 255 255
-0.4904 0.542546 3.57197 0 0 0 0 255 255 255
-0.488176 0.540828 3.57229 0 0 0 0 255 255 255
