ply
format ascii 1.0
comment VCGLIB generated
element vertex 22
property float x
property float y
property float z
property float nx
property float ny
property float nz
property uchar red
property uchar green
property uchar blue
property uchar alpha
element face 0
property list uchar int vertex_indices
end_header
1.33877 1.21414 3.40578 0 0 0 0 128 0 255
1.33608 1.18766 3.38866 0 0 0 0 128 0 255
1.32243 1.22259 3.40944 0 0 0 0 128 0 255
1.33459 1.14082 3.3647 0 0 0 0 128 0 255
1.31926 1.21546 3.40413 0 0 0 0 128 0 255
1.32013 1.21112 3.4013 0 0 0 0 128 0 255
1.32955 1.14151 3.36437 0 0 0 0 128 0 255
1.32335 1.03389 3.33196 0 0 0 0 128 0 255
1.30889 1.11419 3.3516 0 0 0 0 128 0 255
1.29509 1.07857 3.33975 0 0 0 0 128 0 255
1.29578 1.07376 3.33851 0 0 0 0 128 0 255
1.2956 1.06792 3.33704 0 0 0 0 128 0 255
1.28677 1.03725 3.3305 0 0 0 0 128 0 255
1.27879 1.07337 3.33814 0 0 0 0 128 0 255
1.27256 1.08891 3.34248 0 0 0 0 128 0 255
1.27437 1.0402 3.33101 0 0 0 0 128 0 255
1.25607 1.10042 3.34665 0 0 0 0 128 0 255
1.2531 1.1074 3.34915 0 0 0 0 128 0 255
1.25338 1.09876 3.34627 0 0 0 0 128 0 255
1.24962 1.0769 3.34014 0 0 0 0 128 0 255
1.23505 1.00017 3.32799 0 0 0 0 128 0 255
1.1696 0.986783 3.33854 0 0 0 0 128 0 255
