ply
format ascii 1.0
comment VCGLIB generated
element vertex 10
property float x
property float y
property float z
property float nx
property float ny
property float nz
property uchar red
property uchar green
property uchar blue
property uchar alpha
element face 0
property list uchar int vertex_indices
end_header
-0.532438 -0.00981794 3.56035 0 0 0 128 128 0 255
-0.55732 -0.0364639 3.54484 0 0 0 128 128 0 255
-0.557716 -0.0294054 3.5447 0 0 0 128 128 0 255
-0.556626 -0.0134614 3.54548 0 0 0 128 128 0 255
-0.570819 -0.0251747 3.53804 0 0 0 128 128 0 255
-0.590885 -0.0223796 3.52943 0 0 0 128 128 0 255
-0.62359 -0.0256533 3.51892 0 0 0 128 128 0 255
-0.624693 -0.0275684 3.51859 0 0 0 128 128 0 255
-0.625405 -0.00947611 3.51899 0 0 0 128 128 0 255
-0.627942 -0.032318 3.51764 0 0 0 128 128 0 255
