ply
format ascii 1.0
comment VCGLIB generated
element vertex 64
property float x
property float y
property float z
property float nx
property float ny
property float nz
property uchar red
property uchar green
property uchar blue
property uchar alpha
element face 0
property list uchar int vertex_indices
end_header
0.201422 0.912991 4.06027 0 0 0 0 128 0 255
0.208031 0.958045 4.06744 0 0 0 0 128 0 255
0.216696 0.920113 4.07605 0 0 0 0 128 0 255
0.222623 0.963162 4.0825 0 0 0 0 128 0 255
0.222767 0.945162 4.0825 0 0 0 0 128 0 255
0.232366 0.790234 4.09111 0 0 0 0 128 0 255
0.238998 1.1813 4.10115 0 0 0 0 128 0 255
0.241803 0.917314 4.10187 0 0 0 0 128 0 255
0.244838 0.886337 4.10474 0 0 0 0 128 0 255
0.247843 0.946363 4.10832 0 0 0 0 128 0 255
0.249524 0.910375 4.10976 0 0 0 0 128 0 255
0.249765 0.967379 4.11047 0 0 0 0 128 0 255
0.257883 1.17245 4.12052 0 0 0 0 128 0 255
0.260353 0.950463 4.12123 0 0 0 0 128 0 255
0.261994 0.919475 4.12267 0 0 0 0 128 0 255
0.262443 0.95048 4.12339 0 0 0 0 128 0 255
0.267574 1.18053 4.13056 0 0 0 0 128 0 255
0.276634 0.918592 4.13773 0 0 0 0 128 0 255
0.282609 0.955641 4.14419 0 0 0 0 128 0 255
0.282681 0.946641 4.14419 0 0 0 0 128 0 255
0.286499 0.817667 4.14706 0 0 0 0 128 0 255
0.295337 0.670733 4.15495 0 0 0 0 128 0 255
0.31265 0.94588 4.17503 0 0 0 0 128 0 255
0.319315 0.634924 4.17933 0 0 0 0 128 0 255
0.319884 0.650929 4.18005 0 0 0 0 128 0 255
0.346898 0.671145 4.20802 0 0 0 0 128 0 255
0.34599 0.872144 4.20874 0 0 0 0 128 0 255
0.351872 0.659185 4.21304 0 0 0 0 128 0 255
0.355295 0.841218 4.21807 0 0 0 0 128 0 255
0.356088 0.829223 4.21878 0 0 0 0 128 0 255
0.3594 0.676245 4.22093 0 0 0 0 128 0 255
0.37985 0.820413 4.24317 0 0 0 0 128 0 255
0.383686 0.427431 4.24389 0 0 0 0 128 0 255
0.386671 0.315451 4.24604 0 0 0 0 128 0 255
0.38319 0.83844 4.24676 0 0 0 0 128 0 255
0.387447 0.305457 4.24676 0 0 0 0 128 0 255
0.387793 0.349461 4.24747 0 0 0 0 128 0 255
0.389979 0.337479 4.24963 0 0 0 0 128 0 255
0.391814 0.369494 4.25178 0 0 0 0 128 0 255
0.390839 0.840502 4.25465 0 0 0 0 128 0 255
0.387846 1.30249 4.25536 0 0 0 0 128 0 255
0.403405 0.48859 4.26469 0 0 0 0 128 0 255
0.405585 0.913622 4.27043 0 0 0 0 128 0 255
0.409602 0.410638 4.27043 0 0 0 0 128 0 255
0.408887 1.02365 4.27473 0 0 0 0 128 0 255
0.410823 1.30468 4.27903 0 0 0 0 128 0 255
0.417676 0.446703 4.27903 0 0 0 0 128 0 255
0.418734 0.488713 4.28047 0 0 0 0 128 0 255
0.423068 0.905761 4.28836 0 0 0 0 128 0 255
0.429401 0.461797 4.29123 0 0 0 0 128 0 255
0.429505 0.448798 4.29123 0 0 0 0 128 0 255
0.427081 0.926794 4.29266 0 0 0 0 128 0 255
0.432206 0.895833 4.29768 0 0 0 0 128 0 255
0.444668 0.556922 4.30772 0 0 0 0 128 0 255
0.44813 0.995964 4.3149 0 0 0 0 128 0 255
0.45826 1.29805 4.32781 0 0 0 0 128 0 255
0.466599 1.03911 4.33426 0 0 0 0 128 0 255
0.467046 0.983115 4.33426 0 0 0 0 128 0 255
0.469586 1.01414 4.33713 0 0 0 0 128 0 255
0.481295 1.03123 4.34933 0 0 0 0 128 0 255
0.50167 1.01039 4.37013 0 0 0 0 128 0 255
0.511544 0.995471 4.38017 0 0 0 0 128 0 255
0.520522 1.00554 4.38949 0 0 0 0 128 0 255
0.546544 1.06275 4.41675 0 0 0 0 128 0 255
