ply
format ascii 1.0
comment VCGLIB generated
element vertex 583
property float x
property float y
property float z
property float nx
property float ny
property float nz
property uchar red
property uchar green
property uchar blue
property uchar alpha
element face 0
property list uchar int vertex_indices
end_header
1.12115 0.0779085 4.98768 0 0 0 128 0 0 255
1.12121 0.0808851 4.99269 0 0 0 128 0 0 255
1.12175 0.0958705 4.99376 0 0 0 128 0 0 255
1.1202 0.0598707 5.00059 0 0 0 128 0 0 255
1.16782 1.3639 5.02466 0 0 0 128 0 0 255
1.1551 1.12307 5.0543 0 0 0 128 0 0 255
1.15545 1.14106 5.05636 0 0 0 128 0 0 255
1.15702 1.22502 5.06562 0 0 0 128 0 0 255
1.15508 1.17805 5.06638 0 0 0 128 0 0 255
1.14141 0.951297 5.08874 0 0 0 128 0 0 255
1.15755 1.39699 5.09277 0 0 0 128 0 0 255
1.15255 1.32609 5.10113 0 0 0 128 0 0 255
1.15344 1.37207 5.10422 0 0 0 128 0 0 255
1.10553 0.103983 5.1002 0 0 0 128 0 0 255
1.15296 1.40509 5.11013 0 0 0 128 0 0 255
1.15155 1.39112 5.11293 0 0 0 128 0 0 255
1.14864 1.37118 5.11949 0 0 0 128 0 0 255
1.0995 0.0721147 5.1153 0 0 0 128 0 0 255
1.08969 0.0443521 5.13858 0 0 0 128 0 0 255
1.08493 0.0874904 5.15345 0 0 0 128 0 0 255
1.08334 0.159557 5.16283 0 0 0 128 0 0 255
1.06048 0.135209 5.20198 0 0 0 128 0 0 255
1.03226 1.25664 5.29031 0 0 0 128 0 0 255
0.314333 0.0909823 4.99588 0 0 0 128 0 0 255
0.313973 0.0819943 4.99484 0 0 0 128 0 0 255
0.313839 0.0790019 4.99382 0 0 0 128 0 0 255
0.362766 1.39109 4.99597 0 0 0 128 0 0 255
0.36316 1.4021 4.99402 0 0 0 128 0 0 255
0.360924 1.34216 4.98874 0 0 0 128 0 0 255
0.315256 0.119028 4.98301 0 0 0 128 0 0 255
0.362831 1.38817 4.97896 0 0 0 128 0 0 255
0.362825 1.38518 4.97595 0 0 0 128 0 0 255
0.362489 1.37619 4.97591 0 0 0 128 0 0 255
0.314958 0.102093 4.96894 0 0 0 128 0 0 255
0.362702 1.3772 4.97191 0 0 0 128 0 0 255
0.361983 1.35522 4.96981 0 0 0 128 0 0 255
0.362432 1.35923 4.96484 0 0 0 128 0 0 255
0.318526 0.12513 4.93616 0 0 0 128 0 0 255
0.368488 1.40222 4.92631 0 0 0 128 0 0 255
0.355426 1.03447 4.92065 0 0 0 128 0 0 255
0.357761 1.04244 4.90987 0 0 0 128 0 0 255
0.374083 1.38614 4.89587 0 0 0 128 0 0 255
0.324922 0.0630694 4.8887 0 0 0 128 0 0 255
0.330669 0.0909554 4.87146 0 0 0 128 0 0 255
0.333825 0.128891 4.86589 0 0 0 128 0 0 255
0.370951 1.02317 4.85868 0 0 0 128 0 0 255
0.385187 1.3869 4.85849 0 0 0 128 0 0 255
0.371228 1.00416 4.85576 0 0 0 128 0 0 255
0.370072 0.973184 4.85561 0 0 0 128 0 0 255
0.389472 1.10972 4.82106 0 0 0 128 0 0 255
0.402286 1.40746 4.81883 0 0 0 128 0 0 255
0.405784 1.40736 4.81164 0 0 0 128 0 0 255
0.362561 0.15215 4.79863 0 0 0 128 0 0 255
0.362226 0.143156 4.79859 0 0 0 128 0 0 255
0.362989 0.151137 4.79774 0 0 0 128 0 0 255
0.361683 0.116162 4.79758 0 0 0 128 0 0 255
0.362075 0.11415 4.79669 0 0 0 128 0 0 255
0.36882 0.0999502 4.7835 0 0 0 128 0 0 255
0.416576 1.35203 4.78764 0 0 0 128 0 0 255
0.372534 0.117848 4.77842 0 0 0 128 0 0 255
0.371676 0.0948644 4.77831 0 0 0 128 0 0 255
0.415797 1.23501 4.78108 0 0 0 128 0 0 255
0.41602 1.213 4.77927 0 0 0 128 0 0 255
0.417446 1.22296 4.77762 0 0 0 128 0 0 255
0.396372 0.644352 4.77406 0 0 0 128 0 0 255
0.37712 0.128716 4.77164 0 0 0 128 0 0 255
0.42209 1.24683 4.77182 0 0 0 128 0 0 255
0.382707 0.118544 4.76235 0 0 0 128 0 0 255
0.426873 1.24168 4.7643 0 0 0 128 0 0 255
0.402696 0.59414 4.76126 0 0 0 128 0 0 255
0.387066 0.16043 4.7584 0 0 0 128 0 0 255
0.426806 1.20967 4.7625 0 0 0 128 0 0 255
0.404345 0.608096 4.75968 0 0 0 128 0 0 255
0.404576 0.599085 4.75881 0 0 0 128 0 0 255
0.42824 1.21763 4.76089 0 0 0 128 0 0 255
0.394362 0.310272 4.75663 0 0 0 128 0 0 255
0.40649 0.589022 4.75548 0 0 0 128 0 0 255
0.391191 0.148298 4.75179 0 0 0 128 0 0 255
0.43024 1.13153 4.75315 0 0 0 128 0 0 255
0.410503 0.602905 4.75067 0 0 0 128 0 0 255
0.436569 1.2694 4.75218 0 0 0 128 0 0 255
0.433281 1.16545 4.75089 0 0 0 128 0 0 255
0.403208 0.312 4.74448 0 0 0 128 0 0 255
0.406458 0.382931 4.74401 0 0 0 128 0 0 255
0.442431 1.33024 4.74765 0 0 0 128 0 0 255
0.436656 1.15934 4.74606 0 0 0 128 0 0 255
0.437863 1.12629 4.74273 0 0 0 128 0 0 255
0.439522 1.15425 4.74208 0 0 0 128 0 0 255
0.445407 1.26212 4.74022 0 0 0 128 0 0 255
0.44231 1.17918 4.73984 0 0 0 128 0 0 255
0.413321 0.335694 4.73276 0 0 0 128 0 0 255
0.451409 1.28794 4.73413 0 0 0 128 0 0 255
0.422393 0.407441 4.72541 0 0 0 128 0 0 255
0.450466 1.1419 4.72809 0 0 0 128 0 0 255
0.454586 1.23481 4.72777 0 0 0 128 0 0 255
0.425896 0.431341 4.72249 0 0 0 128 0 0 255
0.457321 1.23773 4.72476 0 0 0 128 0 0 255
0.425484 0.367323 4.71993 0 0 0 128 0 0 255
0.456032 1.16774 4.72293 0 0 0 128 0 0 255
0.438525 0.681058 4.71991 0 0 0 128 0 0 255
0.42875 0.419244 4.71868 0 0 0 128 0 0 255
0.436088 0.544069 4.71629 0 0 0 128 0 0 255
0.456411 0.942612 4.71229 0 0 0 128 0 0 255
0.466613 1.19741 4.71276 0 0 0 128 0 0 255
0.466034 1.16341 4.71188 0 0 0 128 0 0 255
0.470769 1.17826 4.70764 0 0 0 128 0 0 255
0.439539 0.341856 4.70372 0 0 0 128 0 0 255
0.449942 0.60165 4.70423 0 0 0 128 0 0 255
0.452433 0.630583 4.70294 0 0 0 128 0 0 255
0.465977 0.936297 4.70226 0 0 0 128 0 0 255
0.467324 0.953262 4.70164 0 0 0 128 0 0 255
0.470643 0.907129 4.69657 0 0 0 128 0 0 255
0.458107 0.571367 4.69499 0 0 0 128 0 0 255
0.452658 0.38645 4.69275 0 0 0 128 0 0 255
0.473872 0.935038 4.69464 0 0 0 128 0 0 255
0.461932 0.615264 4.69314 0 0 0 128 0 0 255
0.474105 0.902013 4.69313 0 0 0 128 0 0 255
0.492328 1.35065 4.69387 0 0 0 128 0 0 255
0.474941 0.884976 4.69169 0 0 0 128 0 0 255
0.458479 0.424278 4.68886 0 0 0 128 0 0 255
0.485933 1.13975 4.69154 0 0 0 128 0 0 255
0.479842 0.916831 4.68849 0 0 0 128 0 0 255
0.495784 1.26349 4.68746 0 0 0 128 0 0 255
0.481979 0.893748 4.68573 0 0 0 128 0 0 255
0.465241 0.405043 4.68213 0 0 0 128 0 0 255
0.463759 0.345061 4.68119 0 0 0 128 0 0 255
0.459916 0.242133 4.68071 0 0 0 128 0 0 255
0.461955 0.256073 4.67947 0 0 0 128 0 0 255
0.496146 1.15141 4.68302 0 0 0 128 0 0 255
0.469503 0.396897 4.67819 0 0 0 128 0 0 255
0.463964 0.227991 4.67676 0 0 0 128 0 0 255
0.491865 0.913429 4.67806 0 0 0 128 0 0 255
0.493374 0.912378 4.67678 0 0 0 128 0 0 255
0.472666 0.35777 4.67418 0 0 0 128 0 0 255
0.469532 0.273829 4.67379 0 0 0 128 0 0 255
0.495517 0.907303 4.67487 0 0 0 128 0 0 255
0.477978 0.416624 4.67195 0 0 0 128 0 0 255
0.503702 0.958055 4.67016 0 0 0 128 0 0 255
0.476727 0.235567 4.66678 0 0 0 128 0 0 255
0.491771 0.61727 4.66795 0 0 0 128 0 0 255
0.488759 0.515315 4.66687 0 0 0 128 0 0 255
0.497203 0.720143 4.66722 0 0 0 128 0 0 255
0.480613 0.254446 4.66444 0 0 0 128 0 0 255
0.487061 0.3843 4.66384 0 0 0 128 0 0 255
0.486332 0.343302 4.66305 0 0 0 128 0 0 255
0.483611 0.22733 4.66132 0 0 0 128 0 0 255
0.490074 0.357183 4.66075 0 0 0 128 0 0 255
0.503333 0.668907 4.66104 0 0 0 128 0 0 255
0.501803 0.627936 4.66084 0 0 0 128 0 0 255
0.526112 1.23545 4.66252 0 0 0 128 0 0 255
0.502009 0.589908 4.6595 0 0 0 128 0 0 255
0.501322 0.505884 4.65737 0 0 0 128 0 0 255
0.490912 0.227082 4.65607 0 0 0 128 0 0 255
0.517513 0.917565 4.65873 0 0 0 128 0 0 255
0.504416 0.566813 4.65708 0 0 0 128 0 0 255
0.503969 0.554822 4.65703 0 0 0 128 0 0 255
0.50408 0.535807 4.65637 0 0 0 128 0 0 255
0.505351 0.525758 4.65518 0 0 0 128 0 0 255
0.500888 0.250755 4.64998 0 0 0 128 0 0 255
0.507498 0.360591 4.64885 0 0 0 128 0 0 255
0.540109 1.14392 4.65035 0 0 0 128 0 0 255
0.516291 0.415321 4.6448 0 0 0 128 0 0 255
0.51883 0.369207 4.64196 0 0 0 128 0 0 255
0.515879 0.267249 4.64097 0 0 0 128 0 0 255
0.529869 0.618971 4.6421 0 0 0 128 0 0 255
0.541509 0.907737 4.64294 0 0 0 128 0 0 255
0.543004 0.901682 4.64189 0 0 0 128 0 0 255
0.532821 0.605861 4.64 0 0 0 128 0 0 255
0.519837 0.258107 4.63837 0 0 0 128 0 0 255
0.518681 0.227129 4.63822 0 0 0 128 0 0 255
0.521079 0.245057 4.6373 0 0 0 128 0 0 255
0.527354 0.389924 4.63748 0 0 0 128 0 0 255
0.561128 1.27127 4.64111 0 0 0 128 0 0 255
0.563026 1.25219 4.63954 0 0 0 128 0 0 255
0.55942 1.13225 4.63849 0 0 0 128 0 0 255
0.567077 1.26706 4.63766 0 0 0 128 0 0 255
0.553701 0.885301 4.63539 0 0 0 128 0 0 255
0.549039 0.713362 4.63363 0 0 0 128 0 0 255
0.54583 0.627423 4.63323 0 0 0 128 0 0 255
0.567141 1.15099 4.63473 0 0 0 128 0 0 255
0.559343 0.942139 4.63376 0 0 0 128 0 0 255
0.54004 0.401491 4.63075 0 0 0 128 0 0 255
0.534854 0.262589 4.6301 0 0 0 128 0 0 255
0.552655 0.668209 4.6306 0 0 0 128 0 0 255
0.55372 0.649161 4.62959 0 0 0 128 0 0 255
0.543833 0.384348 4.62835 0 0 0 128 0 0 255
0.537975 0.227459 4.62762 0 0 0 128 0 0 255
0.556213 0.692099 4.62934 0 0 0 128 0 0 255
0.554422 0.644133 4.62911 0 0 0 128 0 0 255
0.566282 0.937894 4.63003 0 0 0 128 0 0 255
0.553932 0.607128 4.62848 0 0 0 128 0 0 255
0.55326 0.589141 4.6284 0 0 0 128 0 0 255
0.570188 0.922749 4.62772 0 0 0 128 0 0 255
0.551235 0.415108 4.62534 0 0 0 128 0 0 255
0.546721 0.270179 4.62422 0 0 0 128 0 0 255
0.554354 0.353962 4.62244 0 0 0 128 0 0 255
0.575517 0.896546 4.62456 0 0 0 128 0 0 255
0.556004 0.373916 4.62211 0 0 0 128 0 0 255
0.577429 0.923495 4.62426 0 0 0 128 0 0 255
0.570409 0.662584 4.62177 0 0 0 128 0 0 255
0.573921 0.683473 4.62062 0 0 0 128 0 0 255
0.566678 0.391551 4.61763 0 0 0 128 0 0 255
0.560559 0.227667 4.61686 0 0 0 128 0 0 255
0.564795 0.316572 4.61688 0 0 0 128 0 0 255
0.562071 0.243624 4.61653 0 0 0 128 0 0 255
0.567614 0.367503 4.61671 0 0 0 128 0 0 255
0.571028 0.360379 4.61511 0 0 0 128 0 0 255
0.57892 0.423138 4.61311 0 0 0 128 0 0 255
0.581297 0.437062 4.61243 0 0 0 128 0 0 255
0.575883 0.267149 4.61127 0 0 0 128 0 0 255
0.586402 0.373842 4.60925 0 0 0 128 0 0 255
0.586591 0.353823 4.6088 0 0 0 128 0 0 255
0.588577 0.230675 4.60584 0 0 0 128 0 0 255
0.630298 1.24682 4.60929 0 0 0 128 0 0 255
0.636358 1.25661 4.60743 0 0 0 128 0 0 255
0.604456 0.351184 4.60257 0 0 0 128 0 0 255
0.607311 0.402113 4.60251 0 0 0 128 0 0 255
0.60108 0.235231 4.60173 0 0 0 128 0 0 255
0.612952 0.373893 4.60032 0 0 0 128 0 0 255
0.609034 0.268967 4.59982 0 0 0 128 0 0 255
0.616069 0.328753 4.5987 0 0 0 128 0 0 255
0.619157 0.385678 4.5987 0 0 0 128 0 0 255
0.61597 0.248705 4.59752 0 0 0 128 0 0 255
0.622432 0.266483 4.59604 0 0 0 128 0 0 255
0.638888 0.420988 4.59413 0 0 0 128 0 0 255
0.639343 0.380945 4.5935 0 0 0 128 0 0 255
0.635622 0.228982 4.59235 0 0 0 128 0 0 255
0.641971 0.372845 4.59281 0 0 0 128 0 0 255
0.643283 0.381803 4.59264 0 0 0 128 0 0 255
0.643663 0.365779 4.59235 0 0 0 128 0 0 255
0.65115 0.382518 4.59102 0 0 0 128 0 0 255
0.654381 0.416422 4.5908 0 0 0 128 0 0 255
0.656867 0.430341 4.5905 0 0 0 128 0 0 255
0.650077 0.248469 4.58965 0 0 0 128 0 0 255
0.689764 1.25868 4.59402 0 0 0 128 0 0 255
0.658311 0.416279 4.59007 0 0 0 128 0 0 255
0.697436 1.17335 4.59182 0 0 0 128 0 0 255
0.668669 0.402892 4.5882 0 0 0 128 0 0 255
0.665609 0.267915 4.58728 0 0 0 128 0 0 255
0.67087 0.35578 4.5874 0 0 0 128 0 0 255
0.680349 0.556565 4.58807 0 0 0 128 0 0 255
0.672513 0.346714 4.58708 0 0 0 128 0 0 255
0.681525 0.561525 4.58795 0 0 0 128 0 0 255
0.683337 0.583473 4.58792 0 0 0 128 0 0 255
0.673375 0.316662 4.58667 0 0 0 128 0 0 255
0.704923 1.13505 4.59038 0 0 0 128 0 0 255
0.682761 0.541467 4.5876 0 0 0 128 0 0 255
0.67112 0.229687 4.58614 0 0 0 128 0 0 255
0.672036 0.227652 4.586 0 0 0 128 0 0 255
0.684818 0.543392 4.58735 0 0 0 128 0 0 255
0.712822 1.26684 4.59062 0 0 0 128 0 0 255
0.709733 1.13087 4.58975 0 0 0 128 0 0 255
0.684011 0.415337 4.58628 0 0 0 128 0 0 255
0.690451 0.561197 4.58685 0 0 0 128 0 0 255
0.71419 1.14371 4.58936 0 0 0 128 0 0 255
0.687699 0.434214 4.58604 0 0 0 128 0 0 255
0.680498 0.24135 4.58513 0 0 0 128 0 0 255
0.72385 1.24242 4.58923 0 0 0 128 0 0 255
0.691614 0.379033 4.58518 0 0 0 128 0 0 255
0.691452 0.348018 4.58495 0 0 0 128 0 0 255
0.729985 1.27322 4.58895 0 0 0 128 0 0 255
0.699081 0.418784 4.58487 0 0 0 128 0 0 255
0.696991 0.362823 4.5846 0 0 0 128 0 0 255
0.709838 0.546472 4.58505 0 0 0 128 0 0 255
0.714425 0.562313 4.58489 0 0 0 128 0 0 255
0.707626 0.246351 4.58318 0 0 0 128 0 0 255
0.745321 1.17558 4.58743 0 0 0 128 0 0 255
0.712471 0.242168 4.583 0 0 0 128 0 0 255
0.738862 0.868613 4.58586 0 0 0 128 0 0 255
0.737108 0.821646 4.58564 0 0 0 128 0 0 255
0.718071 0.284989 4.58311 0 0 0 128 0 0 255
0.740785 0.86654 4.58582 0 0 0 128 0 0 255
0.738397 0.802585 4.58552 0 0 0 128 0 0 255
0.723875 0.386842 4.58356 0 0 0 128 0 0 255
0.719324 0.264928 4.58298 0 0 0 128 0 0 255
0.723718 0.355827 4.5834 0 0 0 128 0 0 255
0.737104 0.687555 4.58494 0 0 0 128 0 0 255
0.72053 0.216851 4.58273 0 0 0 128 0 0 255
0.744961 0.844369 4.58567 0 0 0 128 0 0 255
0.748809 0.840223 4.58566 0 0 0 128 0 0 255
0.734391 0.400459 4.58362 0 0 0 128 0 0 255
0.730971 0.228469 4.58286 0 0 0 128 0 0 255
0.757055 0.8199 4.58573 0 0 0 128 0 0 255
0.750293 0.61201 4.58479 0 0 0 128 0 0 255
0.751515 0.617968 4.58485 0 0 0 128 0 0 255
0.747665 0.380949 4.58394 0 0 0 128 0 0 255
0.746807 0.357965 4.58384 0 0 0 128 0 0 255
0.749661 0.380874 4.58404 0 0 0 128 0 0 255
0.757188 0.555712 4.58491 0 0 0 128 0 0 255
0.769556 0.833441 4.58633 0 0 0 128 0 0 255
0.767437 0.696425 4.58588 0 0 0 128 0 0 255
0.7624 0.56152 4.58524 0 0 0 128 0 0 255
0.761163 0.421469 4.58488 0 0 0 128 0 0 255
0.771263 0.665259 4.5861 0 0 0 128 0 0 255
0.759212 0.342488 4.58458 0 0 0 128 0 0 255
0.759499 0.323463 4.58457 0 0 0 128 0 0 255
0.774001 0.68517 4.58635 0 0 0 128 0 0 255
0.772049 0.606188 4.58607 0 0 0 128 0 0 255
0.761168 0.261357 4.58463 0 0 0 128 0 0 255
0.766901 0.38823 4.58532 0 0 0 128 0 0 255
0.801687 1.26653 4.58963 0 0 0 128 0 0 255
0.78915 0.93077 4.58805 0 0 0 128 0 0 255
0.762958 0.229267 4.58476 0 0 0 128 0 0 255
0.80396 1.24743 4.58984 0 0 0 128 0 0 255
0.787991 0.819736 4.58784 0 0 0 128 0 0 255
0.801259 1.14847 4.58949 0 0 0 128 0 0 255
0.780552 0.593858 4.58689 0 0 0 128 0 0 255
0.781009 0.552812 4.58692 0 0 0 128 0 0 255
0.803604 1.13137 4.58975 0 0 0 128 0 0 255
0.79068 0.758591 4.58812 0 0 0 128 0 0 255
0.775606 0.354877 4.58622 0 0 0 128 0 0 255
0.788052 0.661622 4.58778 0 0 0 128 0 0 255
0.780319 0.374712 4.58681 0 0 0 128 0 0 255
0.777263 0.239733 4.58644 0 0 0 128 0 0 255
0.820564 1.37289 4.59189 0 0 0 128 0 0 255
0.779654 0.25065 4.58676 0 0 0 128 0 0 255
0.802731 0.842193 4.58967 0 0 0 128 0 0 255
0.780084 0.235623 4.58683 0 0 0 128 0 0 255
0.796873 0.579229 4.58903 0 0 0 128 0 0 255
0.807114 0.827016 4.59034 0 0 0 128 0 0 255
0.797003 0.556208 4.58907 0 0 0 128 0 0 255
0.806236 0.777014 4.59026 0 0 0 128 0 0 255
0.78661 0.251386 4.5878 0 0 0 128 0 0 255
0.785528 0.222406 4.58766 0 0 0 128 0 0 255
0.791265 0.270222 4.58852 0 0 0 128 0 0 255
0.789735 0.229251 4.58833 0 0 0 128 0 0 255
0.798981 0.424038 4.58958 0 0 0 128 0 0 255
0.797675 0.389063 4.58942 0 0 0 128 0 0 255
0.797801 0.366041 4.58948 0 0 0 128 0 0 255
0.802767 0.340834 4.59044 0 0 0 128 0 0 255
0.82707 0.860279 4.59384 0 0 0 128 0 0 255
0.823377 0.761349 4.59338 0 0 0 128 0 0 255
0.817967 0.616451 4.5927 0 0 0 128 0 0 255
0.826855 0.828264 4.59389 0 0 0 128 0 0 255
0.817379 0.574443 4.5927 0 0 0 128 0 0 255
0.817797 0.559417 4.59284 0 0 0 128 0 0 255
0.810567 0.339535 4.59201 0 0 0 128 0 0 255
0.807246 0.250597 4.59159 0 0 0 128 0 0 255
0.82364 0.637249 4.59382 0 0 0 128 0 0 255
0.829541 0.769118 4.59466 0 0 0 128 0 0 255
0.818144 0.359258 4.59361 0 0 0 128 0 0 255
0.841103 0.843728 4.59703 0 0 0 128 0 0 255
0.834127 0.630842 4.59627 0 0 0 128 0 0 255
0.832783 0.594867 4.5961 0 0 0 128 0 0 255
0.825732 0.406001 4.59521 0 0 0 128 0 0 255
0.81909 0.228127 4.59438 0 0 0 128 0 0 255
0.832746 0.567849 4.59621 0 0 0 128 0 0 255
0.840432 0.747684 4.5973 0 0 0 128 0 0 255
0.865204 1.35918 4.60065 0 0 0 128 0 0 255
0.867067 1.38312 4.60101 0 0 0 128 0 0 255
0.832328 0.426762 4.59678 0 0 0 128 0 0 255
0.82725 0.264839 4.59628 0 0 0 128 0 0 255
0.833845 0.389676 4.59738 0 0 0 128 0 0 255
0.870927 1.35695 4.60217 0 0 0 128 0 0 255
0.869919 1.32997 4.60205 0 0 0 128 0 0 255
0.853273 0.85827 4.6001 0 0 0 128 0 0 255
0.865683 1.139 4.60195 0 0 0 128 0 0 255
0.839006 0.424503 4.5986 0 0 0 128 0 0 255
0.868063 1.17693 4.6024 0 0 0 128 0 0 255
0.853922 0.798201 4.60062 0 0 0 128 0 0 255
0.875181 1.34178 4.60344 0 0 0 128 0 0 255
0.867299 1.10491 4.60261 0 0 0 128 0 0 255
0.857747 0.849091 4.60141 0 0 0 128 0 0 255
0.858409 0.841059 4.60165 0 0 0 128 0 0 255
0.84688 0.532278 4.6002 0 0 0 128 0 0 255
0.872091 1.18178 4.60352 0 0 0 128 0 0 255
0.866756 1.03888 4.60285 0 0 0 128 0 0 255
0.868237 1.05283 4.6032 0 0 0 128 0 0 255
0.844394 0.33723 4.60071 0 0 0 128 0 0 255
0.854364 0.553003 4.60231 0 0 0 128 0 0 255
0.849103 0.412103 4.60165 0 0 0 128 0 0 255
0.879294 1.06742 4.60653 0 0 0 128 0 0 255
0.872334 0.85553 4.60585 0 0 0 128 0 0 255
0.873522 0.83647 4.60639 0 0 0 128 0 0 255
0.856919 0.391784 4.60431 0 0 0 128 0 0 255
0.858689 0.337675 4.60534 0 0 0 128 0 0 255
0.855294 0.24674 4.60491 0 0 0 128 0 0 255
0.890378 1.16106 4.60952 0 0 0 128 0 0 255
0.862954 0.426576 4.60608 0 0 0 128 0 0 255
0.865297 0.413475 4.60702 0 0 0 128 0 0 255
0.897524 1.17579 4.61195 0 0 0 128 0 0 255
0.86511 0.257365 4.60834 0 0 0 128 0 0 255
0.87071 0.38224 4.60927 0 0 0 128 0 0 255
0.877577 0.541091 4.61037 0 0 0 128 0 0 255
0.872318 0.375172 4.60995 0 0 0 128 0 0 255
0.880639 0.572995 4.61123 0 0 0 128 0 0 255
0.88025 0.41289 4.61268 0 0 0 128 0 0 255
0.904832 1.0464 4.61602 0 0 0 128 0 0 255
0.890117 0.602646 4.61469 0 0 0 128 0 0 255
0.882356 0.394794 4.61372 0 0 0 128 0 0 255
0.908428 1.06828 4.61726 0 0 0 128 0 0 255
0.880089 0.25978 4.61423 0 0 0 128 0 0 255
0.923756 1.37992 4.62026 0 0 0 128 0 0 255
0.917176 1.17902 4.61971 0 0 0 128 0 0 255
0.924213 1.34287 4.62087 0 0 0 128 0 0 255
0.891349 0.364417 4.61789 0 0 0 128 0 0 255
0.92935 1.35768 4.62295 0 0 0 128 0 0 255
0.908157 0.79008 4.62029 0 0 0 128 0 0 255
0.900658 0.589222 4.61935 0 0 0 128 0 0 255
0.92095 1.0838 4.62248 0 0 0 128 0 0 255
0.933864 1.3565 4.625 0 0 0 128 0 0 255
0.894178 0.269233 4.62033 0 0 0 128 0 0 255
0.929307 1.16153 4.62535 0 0 0 128 0 0 255
0.899086 0.352102 4.62156 0 0 0 128 0 0 255
0.877557 -0.22449 4.61886 0 0 0 128 0 0 255
0.895736 0.238147 4.62145 0 0 0 128 0 0 255
0.917049 0.784725 4.62444 0 0 0 128 0 0 255
0.902467 0.369982 4.62293 0 0 0 128 0 0 255
0.919001 0.788651 4.62532 0 0 0 128 0 0 255
0.911879 0.573767 4.62475 0 0 0 128 0 0 255
0.90192 0.282937 4.62383 0 0 0 128 0 0 255
0.90054 0.245963 4.62365 0 0 0 128 0 0 255
0.933189 1.09633 4.62808 0 0 0 128 0 0 255
0.906624 0.384829 4.62474 0 0 0 128 0 0 255
0.900803 0.22894 4.62401 0 0 0 128 0 0 255
0.937294 1.18223 4.62892 0 0 0 128 0 0 255
0.906662 0.337792 4.62541 0 0 0 128 0 0 255
0.937667 1.14419 4.62963 0 0 0 128 0 0 255
0.935241 1.07923 4.62933 0 0 0 128 0 0 255
0.926063 0.833405 4.62818 0 0 0 128 0 0 255
0.903117 0.21884 4.6253 0 0 0 128 0 0 255
0.938373 1.13915 4.63006 0 0 0 128 0 0 255
0.937888 1.12616 4.63 0 0 0 128 0 0 255
0.930605 0.883264 4.62976 0 0 0 128 0 0 255
0.911938 0.335581 4.62811 0 0 0 128 0 0 255
0.920362 0.537402 4.62951 0 0 0 128 0 0 255
0.916109 0.423483 4.62898 0 0 0 128 0 0 255
0.922517 0.571343 4.63013 0 0 0 128 0 0 255
0.921062 0.532371 4.62995 0 0 0 128 0 0 255
0.912609 0.258494 4.62959 0 0 0 128 0 0 255
0.935529 0.825023 4.63319 0 0 0 128 0 0 255
0.91665 0.319381 4.63082 0 0 0 128 0 0 255
0.935589 0.803003 4.63356 0 0 0 128 0 0 255
0.935834 0.78598 4.63395 0 0 0 128 0 0 255
0.95048 1.10765 4.6369 0 0 0 128 0 0 255
0.951765 1.1186 4.63743 0 0 0 128 0 0 255
0.932244 0.548938 4.63573 0 0 0 128 0 0 255
0.927631 0.402007 4.63554 0 0 0 128 0 0 255
0.955514 1.12546 4.63942 0 0 0 128 0 0 255
0.953808 1.05647 4.63959 0 0 0 128 0 0 255
0.927728 0.357969 4.63631 0 0 0 128 0 0 255
0.954579 1.00741 4.64085 0 0 0 128 0 0 255
0.926559 0.256936 4.63734 0 0 0 128 0 0 255
0.948097 0.787491 4.64083 0 0 0 128 0 0 255
0.941344 0.606619 4.63998 0 0 0 128 0 0 255
0.940449 0.582636 4.63987 0 0 0 128 0 0 255
0.93288 0.333743 4.63972 0 0 0 128 0 0 255
0.963734 1.0911 4.64481 0 0 0 128 0 0 255
0.951011 0.750345 4.64321 0 0 0 128 0 0 255
0.968929 1.11592 4.64753 0 0 0 128 0 0 255
0.943351 0.385364 4.64517 0 0 0 128 0 0 255
0.974778 1.18173 4.64997 0 0 0 128 0 0 255
0.951757 0.565168 4.64708 0 0 0 128 0 0 255
0.943736 0.35032 4.64607 0 0 0 128 0 0 255
0.941572 0.292361 4.6458 0 0 0 128 0 0 255
0.960361 0.772987 4.64859 0 0 0 128 0 0 255
0.942735 0.233267 4.64768 0 0 0 128 0 0 255
0.978795 1.17657 4.65265 0 0 0 128 0 0 255
0.926672 -0.219446 4.64611 0 0 0 128 0 0 255
0.976796 1.10059 4.65284 0 0 0 128 0 0 255
0.952646 0.409008 4.6507 0 0 0 128 0 0 255
0.948217 0.268074 4.65059 0 0 0 128 0 0 255
0.947892 0.237062 4.651 0 0 0 128 0 0 255
0.990853 1.34321 4.6573 0 0 0 128 0 0 255
0.981238 1.04136 4.65701 0 0 0 128 0 0 255
0.987138 1.11118 4.65961 0 0 0 128 0 0 255
0.961569 0.360607 4.65782 0 0 0 128 0 0 255
1.0055 1.36363 4.66722 0 0 0 128 0 0 255
0.965151 0.261381 4.66265 0 0 0 128 0 0 255
0.974428 0.424135 4.66581 0 0 0 128 0 0 255
0.981741 0.534927 4.66877 0 0 0 128 0 0 255
1.01537 1.35122 4.67506 0 0 0 128 0 0 255
0.980149 0.38687 4.67116 0 0 0 128 0 0 255
1.01979 1.34403 4.67878 0 0 0 128 0 0 255
0.981803 0.326753 4.67401 0 0 0 128 0 0 255
1.02063 1.346 4.67942 0 0 0 128 0 0 255
0.983621 0.354701 4.67478 0 0 0 128 0 0 255
1.0223 1.36995 4.68017 0 0 0 128 0 0 255
1.02974 1.38466 4.68604 0 0 0 128 0 0 255
0.994079 0.409315 4.68212 0 0 0 128 0 0 255
0.996034 0.421244 4.68349 0 0 0 128 0 0 255
0.9929 0.337304 4.6831 0 0 0 128 0 0 255
0.994659 0.364253 4.68388 0 0 0 128 0 0 255
0.974181 -0.244409 4.68302 0 0 0 128 0 0 255
1.0235 1.03662 4.69036 0 0 0 128 0 0 255
1.00044 0.419059 4.68746 0 0 0 128 0 0 255
0.989767 0.113245 4.6867 0 0 0 128 0 0 255
0.977187 -0.243533 4.6857 0 0 0 128 0 0 255
1.0405 1.3732 4.69599 0 0 0 128 0 0 255
1.00188 0.338932 4.69114 0 0 0 128 0 0 255
1.02577 0.939446 4.69532 0 0 0 128 0 0 255
1.0056 0.379812 4.69338 0 0 0 128 0 0 255
1.00613 0.335752 4.69524 0 0 0 128 0 0 255
1.03147 0.937206 4.70084 0 0 0 128 0 0 255
1.02278 0.647321 4.70158 0 0 0 128 0 0 255
1.01327 0.392502 4.70039 0 0 0 128 0 0 255
1.03068 0.76409 4.70567 0 0 0 128 0 0 255
1.04011 0.997895 4.70748 0 0 0 128 0 0 255
1.01836 0.415307 4.70475 0 0 0 128 0 0 255
1.0183 0.376276 4.706 0 0 0 128 0 0 255
1.02671 0.583101 4.70769 0 0 0 128 0 0 255
1.02634 0.573108 4.70764 0 0 0 128 0 0 255
1.01843 0.361258 4.70665 0 0 0 128 0 0 255
1.02843 0.592036 4.70917 0 0 0 128 0 0 255
1.01825 0.282197 4.70917 0 0 0 128 0 0 255
1.03926 0.771735 4.71438 0 0 0 128 0 0 255
1.02206 0.31106 4.71222 0 0 0 128 0 0 255
1.03714 0.696759 4.71476 0 0 0 128 0 0 255
1.06516 1.32112 4.72288 0 0 0 128 0 0 255
1.0405 0.660584 4.71978 0 0 0 128 0 0 255
1.04175 0.658529 4.72127 0 0 0 128 0 0 255
1.04056 0.626552 4.72112 0 0 0 128 0 0 255
1.04196 0.64651 4.72196 0 0 0 128 0 0 255
1.0629 1.17208 4.72593 0 0 0 128 0 0 255
1.03451 0.376589 4.72371 0 0 0 128 0 0 255
1.03427 0.352578 4.72436 0 0 0 128 0 0 255
1.04089 0.512437 4.72587 0 0 0 128 0 0 255
1.03489 0.334535 4.7258 0 0 0 128 0 0 255
1.04495 0.569313 4.72843 0 0 0 128 0 0 255
1.07406 1.33175 4.73277 0 0 0 128 0 0 255
1.04097 0.411343 4.72999 0 0 0 128 0 0 255
1.05306 0.667053 4.73429 0 0 0 128 0 0 255
1.05745 0.767954 4.73554 0 0 0 128 0 0 255
1.06213 0.80979 4.73964 0 0 0 128 0 0 255
1.04463 0.341121 4.73745 0 0 0 128 0 0 255
1.07588 1.12848 4.7435 0 0 0 128 0 0 255
1.04545 0.297046 4.7404 0 0 0 128 0 0 255
1.08125 1.22334 4.74633 0 0 0 128 0 0 255
1.05737 0.58379 4.74333 0 0 0 128 0 0 255
1.03983 0.114123 4.74113 0 0 0 128 0 0 255
1.05795 0.550735 4.74557 0 0 0 128 0 0 255
1.08443 1.19617 4.7518 0 0 0 128 0 0 255
1.05412 0.352719 4.74946 0 0 0 128 0 0 255
1.07896 1.00223 4.75332 0 0 0 128 0 0 255
1.06507 0.614483 4.75231 0 0 0 128 0 0 255
1.07233 0.731273 4.75693 0 0 0 128 0 0 255
1.0853 1.048 4.76006 0 0 0 128 0 0 255
1.07112 0.668267 4.75828 0 0 0 128 0 0 255
1.0668 0.537335 4.75849 0 0 0 128 0 0 255
1.06204 0.364382 4.76015 0 0 0 128 0 0 255
1.0884 0.995812 4.76727 0 0 0 128 0 0 255
1.05886 0.16033 4.76586 0 0 0 128 0 0 255
1.08056 0.697877 4.7709 0 0 0 128 0 0 255
1.07768 0.620931 4.77054 0 0 0 128 0 0 255
1.07677 0.581935 4.7712 0 0 0 128 0 0 255
1.07797 0.599898 4.77213 0 0 0 128 0 0 255
1.08595 0.770706 4.77547 0 0 0 128 0 0 255
1.08535 0.754717 4.77539 0 0 0 128 0 0 255
1.08327 0.670729 4.7767 0 0 0 128 0 0 255
1.07547 0.447863 4.77651 0 0 0 128 0 0 255
1.08386 0.644677 4.77914 0 0 0 128 0 0 255
1.07378 0.360855 4.77866 0 0 0 128 0 0 255
1.07743 0.376705 4.7839 0 0 0 128 0 0 255
1.0904 0.710446 4.78633 0 0 0 128 0 0 255
1.0903 0.694435 4.78712 0 0 0 128 0 0 255
1.08791 0.63048 4.78682 0 0 0 128 0 0 255
1.11723 1.37588 4.79292 0 0 0 128 0 0 255
1.0884 0.525353 4.79418 0 0 0 128 0 0 255
1.0938 0.657238 4.79567 0 0 0 128 0 0 255
1.09288 0.60723 4.7972 0 0 0 128 0 0 255
1.09918 0.738072 4.80046 0 0 0 128 0 0 255
1.10031 0.756038 4.80143 0 0 0 128 0 0 255
1.08013 0.0702709 4.80893 0 0 0 128 0 0 255
1.10055 0.593859 4.81318 0 0 0 128 0 0 255
1.10451 0.67676 4.81537 0 0 0 128 0 0 255
1.10205 0.57677 4.81762 0 0 0 128 0 0 255
1.08505 0.110081 4.81634 0 0 0 128 0 0 255
1.08382 0.0771041 4.81618 0 0 0 128 0 0 255
1.09692 0.146546 4.84138 0 0 0 128 0 0 255
1.08239 -0.252189 4.84044 0 0 0 128 0 0 255
1.11399 0.547158 4.84887 0 0 0 128 0 0 255
1.11178 0.111722 4.89375 0 0 0 128 0 0 255
1.15117 1.01674 4.92644 0 0 0 128 0 0 255
1.15156 1.0107 4.93037 0 0 0 128 0 0 255
1.11894 0.104256 4.93503 0 0 0 128 0 0 255
1.11842 0.090266 4.93497 0 0 0 128 0 0 255
1.15894 1.15345 4.9469 0 0 0 128 0 0 255
1.11942 0.0951993 4.94194 0 0 0 128 0 0 255
1.15819 1.12244 4.95074 0 0 0 128 0 0 255
1.11991 0.0761075 4.9548 0 0 0 128 0 0 255
1.15531 1.00437 4.97113 0 0 0 128 0 0 255
1.12361 0.149941 4.97212 0 0 0 128 0 0 255
1.12168 0.0929362 4.97985 0 0 0 128 0 0 255
