ply
format ascii 1.0
comment VCGLIB generated
element vertex 946
property float x
property float y
property float z
property float nx
property float ny
property float nz
property uchar red
property uchar green
property uchar blue
property uchar alpha
element face 0
property list uchar int vertex_indices
end_header
-1.08929 1.49405 4.57665 0 0 0 128 128 128 255
-1.07484 1.59042 4.64066 0 0 0 128 128 128 255
-0.361633 0.175566 4.67832 0 0 0 128 128 128 255
-0.350076 0.119646 4.66065 0 0 0 128 128 128 255
-0.324814 0.129213 4.62279 0 0 0 128 128 128 255
-0.320695 0.110712 4.61468 0 0 0 128 128 128 255
-0.321086 0.155625 4.61745 0 0 0 128 128 128 255
-0.31726 0.101139 4.60793 0 0 0 128 128 128 255
-0.312965 0.0846992 4.59892 0 0 0 128 128 128 255
-0.321804 1.40649 4.67502 0 0 0 128 128 128 255
-0.309974 0.0980871 4.59346 0 0 0 128 128 128 255
-0.30765 0.0784222 4.58772 0 0 0 128 128 128 255
-0.302884 0.144072 4.57989 0 0 0 128 128 128 255
-0.310976 1.42907 4.65172 0 0 0 128 128 128 255
-0.298171 0.129823 4.5679 0 0 0 128 128 128 255
-0.306583 1.09595 4.62746 0 0 0 128 128 128 255
-0.309031 1.46137 4.64812 0 0 0 128 128 128 255
-0.309127 1.47235 4.6488 0 0 0 128 128 128 255
-0.305691 1.20205 4.62933 0 0 0 128 128 128 255
-0.30743 1.44265 4.64323 0 0 0 128 128 128 255
-0.305225 1.39005 4.63529 0 0 0 128 128 128 255
-0.298808 0.997361 4.60258 0 0 0 128 128 128 255
-0.297581 1.0026 4.5991 0 0 0 128 128 128 255
-0.289074 0.167458 4.54381 0 0 0 128 128 128 255
-0.299922 1.44804 4.6218 0 0 0 128 128 128 255
-0.286417 0.133016 4.53402 0 0 0 128 128 128 255
-0.281425 -0.186871 4.5066 0 0 0 128 128 128 255
-0.294699 1.36818 4.6015 0 0 0 128 128 128 255
-0.280889 -0.187746 4.50461 0 0 0 128 128 128 255
-0.27938 0.135743 4.50704 0 0 0 128 128 128 255
-0.286957 1.0801 4.56233 0 0 0 128 128 128 255
-0.280885 1.18364 4.5252 0 0 0 128 128 128 255
-0.278936 1.07553 4.50756 0 0 0 128 128 128 255
-0.278833 1.0726 4.50638 0 0 0 128 128 128 255
-0.27916 1.17696 4.50382 0 0 0 128 128 128 255
-0.269439 0.0924272 4.43095 0 0 0 128 128 128 255
-0.269996 0.186603 4.41472 0 0 0 128 128 128 255
-0.270551 0.136109 4.38859 0 0 0 128 128 128 255
-0.28204 1.43871 4.4669 0 0 0 128 128 128 255
-0.270853 0.116511 4.38139 0 0 0 128 128 128 255
-0.279914 0.619696 4.37666 0 0 0 128 128 128 255
-0.277065 0.146026 4.34057 0 0 0 128 128 128 255
-0.282529 0.589636 4.36006 0 0 0 128 128 128 255
-0.278861 0.0947696 4.32662 0 0 0 128 128 128 255
-0.288399 0.636874 4.34059 0 0 0 128 128 128 255
-0.290843 0.793799 4.34641 0 0 0 128 128 128 255
-0.291744 0.865716 4.34988 0 0 0 128 128 128 255
-0.291537 0.646481 4.3306 0 0 0 128 128 128 255
-0.292064 0.673485 4.33131 0 0 0 128 128 128 255
-0.290116 0.41604 4.31448 0 0 0 128 128 128 255
-0.29431 0.829352 4.33805 0 0 0 128 128 128 255
-0.295599 0.765811 4.32841 0 0 0 128 128 128 255
-0.296718 0.784941 4.32674 0 0 0 128 128 128 255
-0.296676 0.743078 4.32321 0 0 0 128 128 128 255
-0.298214 0.80712 4.32432 0 0 0 128 128 128 255
-0.294809 0.378006 4.29692 0 0 0 128 128 128 255
-0.298389 0.78921 4.32227 0 0 0 128 128 128 255
-0.297733 0.675485 4.31431 0 0 0 128 128 128 255
-0.294978 0.242489 4.28479 0 0 0 128 128 128 255
-0.298645 0.663673 4.31076 0 0 0 128 128 128 255
-0.296503 0.378281 4.29222 0 0 0 128 128 128 255
-0.299492 0.721616 4.31339 0 0 0 128 128 128 255
-0.295224 0.151829 4.27638 0 0 0 128 128 128 255
-0.297982 0.428348 4.29249 0 0 0 128 128 128 255
-0.298508 0.448364 4.29279 0 0 0 128 128 128 255
-0.300481 0.510461 4.29287 0 0 0 128 128 128 255
-0.302749 0.770957 4.30893 0 0 0 128 128 128 255
-0.303665 0.75016 4.30486 0 0 0 128 128 128 255
-0.303506 0.689332 4.30018 0 0 0 128 128 128 255
-0.303951 0.654507 4.29617 0 0 0 128 128 128 255
-0.303362 0.499914 4.28479 0 0 0 128 128 128 255
-0.30372 0.453111 4.28005 0 0 0 128 128 128 255
-0.305632 0.672686 4.29359 0 0 0 128 128 128 255
-0.302793 0.257597 4.26615 0 0 0 128 128 128 255
-0.304331 0.434255 4.27704 0 0 0 128 128 128 255
-0.302533 0.182795 4.26062 0 0 0 128 128 128 255
-0.30441 0.398378 4.27391 0 0 0 128 128 128 255
-0.304652 0.335606 4.2682 0 0 0 128 128 128 255
-0.308641 0.793719 4.29644 0 0 0 128 128 128 255
-0.308867 0.819669 4.29804 0 0 0 128 128 128 255
-0.305624 0.355673 4.2676 0 0 0 128 128 128 255
-0.305824 0.378629 4.26901 0 0 0 128 128 128 255
-0.31274 0.891951 4.29517 0 0 0 128 128 128 255
-0.309204 0.390028 4.2624 0 0 0 128 128 128 255
-0.311837 0.692442 4.28105 0 0 0 128 128 128 255
-0.311142 0.515888 4.26835 0 0 0 128 128 128 255
-0.310673 0.364286 4.25719 0 0 0 128 128 128 255
-0.310677 0.315433 4.25327 0 0 0 128 128 128 255
-0.315543 0.87435 4.28773 0 0 0 128 128 128 255
-0.313275 0.363598 4.25173 0 0 0 128 128 128 255
-0.315186 0.583173 4.26527 0 0 0 128 128 128 255
-0.314777 0.485413 4.25834 0 0 0 128 128 128 255
-0.31675 0.711975 4.27231 0 0 0 128 128 128 255
-0.317942 0.79786 4.27671 0 0 0 128 128 128 255
-0.316301 0.506526 4.25696 0 0 0 128 128 128 255
-0.321605 0.854108 4.27393 0 0 0 128 128 128 255
-0.319217 0.526792 4.25286 0 0 0 128 128 128 255
-0.321702 0.81224 4.27046 0 0 0 128 128 128 255
-0.324909 1.18053 4.29316 0 0 0 128 128 128 255
-0.324961 1.18651 4.29353 0 0 0 128 128 128 255
-0.319351 0.488916 4.24964 0 0 0 128 128 128 255
-0.322677 0.817331 4.269 0 0 0 128 128 128 255
-0.319797 0.324436 4.23596 0 0 0 128 128 128 255
-0.32049 0.349438 4.23662 0 0 0 128 128 128 255
-0.322253 0.497202 4.24485 0 0 0 128 128 128 255
-0.324591 0.765682 4.2614 0 0 0 128 128 128 255
-0.32839 1.14699 4.28403 0 0 0 128 128 128 255
-0.322224 0.383521 4.23608 0 0 0 128 128 128 255
-0.325726 0.785743 4.26088 0 0 0 128 128 128 255
-0.322995 0.416507 4.23724 0 0 0 128 128 128 255
-0.324333 0.514367 4.2424 0 0 0 128 128 128 255
-0.326029 0.653148 4.25008 0 0 0 128 128 128 255
-0.327797 0.799914 4.25825 0 0 0 128 128 128 255
-0.327967 0.706194 4.25073 0 0 0 128 128 128 255
-0.332917 1.16041 4.277 0 0 0 128 128 128 255
-0.328883 0.407115 4.22624 0 0 0 128 128 128 255
-0.329056 0.368239 4.22298 0 0 0 128 128 128 255
-0.338284 1.42819 4.28832 0 0 0 128 128 128 255
-0.336634 1.17972 4.27215 0 0 0 128 128 128 255
-0.330815 0.452173 4.22644 0 0 0 128 128 128 255
-0.330863 0.33849 4.21771 0 0 0 128 128 128 255
-0.338928 1.20486 4.27027 0 0 0 128 128 128 255
-0.332274 0.380504 4.2186 0 0 0 128 128 128 255
-0.333108 0.476319 4.2245 0 0 0 128 128 128 255
-0.331705 0.254795 4.20999 0 0 0 128 128 128 255
-0.336857 0.785815 4.24188 0 0 0 128 128 128 255
-0.336866 0.786813 4.24194 0 0 0 128 128 128 255
-0.34069 1.16513 4.26442 0 0 0 128 128 128 255
-0.338181 0.815852 4.24204 0 0 0 128 128 128 255
-0.338592 0.678261 4.23102 0 0 0 128 128 128 255
-0.343956 1.23224 4.26433 0 0 0 128 128 128 255
-0.340145 0.73225 4.23266 0 0 0 128 128 128 255
-0.343734 1.14445 4.25807 0 0 0 128 128 128 255
-0.346185 1.42591 4.27542 0 0 0 128 128 128 255
-0.337935 0.41591 4.21232 0 0 0 128 128 128 255
-0.34407 1.12055 4.25576 0 0 0 128 128 128 255
-0.347743 1.35324 4.26759 0 0 0 128 128 128 255
-0.341066 0.522889 4.21557 0 0 0 128 128 128 255
-0.340917 0.442092 4.20975 0 0 0 128 128 128 255
-0.34176 0.538905 4.21572 0 0 0 128 128 128 255
-0.348378 1.17077 4.25301 0 0 0 128 128 128 255
-0.342786 0.464188 4.20862 0 0 0 128 128 128 255
-0.343064 0.496126 4.21059 0 0 0 128 128 128 255
-0.349252 1.20675 4.2544 0 0 0 128 128 128 255
-0.350763 1.25076 4.25546 0 0 0 128 128 128 255
-0.34593 0.367695 4.19691 0 0 0 128 128 128 255
-0.353421 1.22803 4.24995 0 0 0 128 128 128 255
-0.345838 0.290889 4.19136 0 0 0 128 128 128 255
-0.346081 0.318835 4.19308 0 0 0 128 128 128 255
-0.348373 0.515499 4.20439 0 0 0 128 128 128 255
-0.35383 1.14229 4.24303 0 0 0 128 128 128 255
-0.348233 0.432705 4.19847 0 0 0 128 128 128 255
-0.349892 0.354037 4.19037 0 0 0 128 128 128 255
-0.350301 0.400946 4.19327 0 0 0 128 128 128 255
-0.351648 0.555646 4.2028 0 0 0 128 128 128 255
-0.352517 0.655453 4.20896 0 0 0 128 128 128 255
-0.358522 1.27729 4.24648 0 0 0 128 128 128 255
-0.353658 0.650551 4.20704 0 0 0 128 128 128 255
-0.357408 1.01289 4.22857 0 0 0 128 128 128 255
-0.35864 1.01697 4.22722 0 0 0 128 128 128 255
-0.356304 0.679672 4.20562 0 0 0 128 128 128 255
-0.361231 1.24558 4.24051 0 0 0 128 128 128 255
-0.358072 0.813457 4.21307 0 0 0 128 128 128 255
-0.359905 1.02405 4.22606 0 0 0 128 128 128 255
-0.358868 0.835458 4.21363 0 0 0 128 128 128 255
-0.362283 1.2277 4.23781 0 0 0 128 128 128 255
-0.355582 0.388367 4.18527 0 0 0 128 128 128 255
-0.359579 0.847478 4.21358 0 0 0 128 128 128 255
-0.358381 0.639924 4.19999 0 0 0 128 128 128 255
-0.359064 0.507311 4.18944 0 0 0 128 128 128 255
-0.364548 1.13709 4.22826 0 0 0 128 128 128 255
-0.358152 0.331694 4.17782 0 0 0 128 128 128 255
-0.366187 1.11227 4.22437 0 0 0 128 128 128 255
-0.36673 1.03151 4.21782 0 0 0 128 128 128 255
-0.366881 0.904841 4.20846 0 0 0 128 128 128 255
-0.363158 0.404851 4.17685 0 0 0 128 128 128 255
-0.371431 1.35501 4.23543 0 0 0 128 128 128 255
-0.37382 1.41103 4.23656 0 0 0 128 128 128 255
-0.36549 0.381066 4.17229 0 0 0 128 128 128 255
-0.370282 0.784369 4.19562 0 0 0 128 128 128 255
-0.368186 0.321389 4.16478 0 0 0 128 128 128 255
-0.374222 0.865418 4.19679 0 0 0 128 128 128 255
-0.375508 1.01313 4.2059 0 0 0 128 128 128 255
-0.376334 1.10795 4.21175 0 0 0 128 128 128 255
-0.378606 1.21882 4.21707 0 0 0 128 128 128 255
-0.380266 1.40945 4.22882 0 0 0 128 128 128 255
-0.37648 0.823663 4.1912 0 0 0 128 128 128 255
-0.381346 1.38258 4.22565 0 0 0 128 128 128 255
-0.38205 1.38761 4.22521 0 0 0 128 128 128 255
-0.373692 0.351658 4.16059 0 0 0 128 128 128 255
-0.377594 0.79979 4.18822 0 0 0 128 128 128 255
-0.377754 0.741942 4.1839 0 0 0 128 128 128 255
-0.378015 0.771884 4.18575 0 0 0 128 128 128 255
-0.381239 1.14217 4.20858 0 0 0 128 128 128 255
-0.380957 1.03342 4.20113 0 0 0 128 128 128 255
-0.377567 0.490549 4.16617 0 0 0 128 128 128 255
-0.37743 0.397769 4.15971 0 0 0 128 128 128 255
-0.378086 0.395812 4.15884 0 0 0 128 128 128 255
-0.378468 0.439727 4.16155 0 0 0 128 128 128 255
-0.380742 0.467791 4.16107 0 0 0 128 128 128 255
-0.384837 0.860071 4.18452 0 0 0 128 128 128 255
-0.387953 1.13957 4.20102 0 0 0 128 128 128 255
-0.385526 0.624683 4.16709 0 0 0 128 128 128 255
-0.386021 0.681573 4.17059 0 0 0 128 128 128 255
-0.385046 0.411173 4.15247 0 0 0 128 128 128 255
-0.389815 0.879305 4.18061 0 0 0 128 128 128 255
-0.392456 1.10291 4.19368 0 0 0 128 128 128 255
-0.387443 0.447219 4.15253 0 0 0 128 128 128 255
-0.391222 0.720765 4.16797 0 0 0 128 128 128 255
-0.397079 1.39346 4.20944 0 0 0 128 128 128 255
-0.391932 0.640995 4.16162 0 0 0 128 128 128 255
-0.3941 0.727902 4.16556 0 0 0 128 128 128 255
-0.396594 1.01435 4.18322 0 0 0 128 128 128 255
-0.397176 1.08122 4.18734 0 0 0 128 128 128 255
-0.396414 0.667168 4.159 0 0 0 128 128 128 255
-0.400614 1.06743 4.18297 0 0 0 128 128 128 255
-0.394953 0.334885 4.13712 0 0 0 128 128 128 255
-0.397002 0.487626 4.14584 0 0 0 128 128 128 255
-0.398175 0.622365 4.15414 0 0 0 128 128 128 255
-0.398331 0.64033 4.15525 0 0 0 128 128 128 255
-0.396827 0.384861 4.13881 0 0 0 128 128 128 255
-0.399843 0.731191 4.16016 0 0 0 128 128 128 255
-0.398656 0.428849 4.14013 0 0 0 128 128 128 255
-0.400976 0.695333 4.15656 0 0 0 128 128 128 255
-0.403301 0.879013 4.1672 0 0 0 128 128 128 255
-0.404228 0.902005 4.16793 0 0 0 128 128 128 255
-0.405242 0.682572 4.15167 0 0 0 128 128 128 255
-0.407015 0.886178 4.16422 0 0 0 128 128 128 255
-0.407611 0.700643 4.15075 0 0 0 128 128 128 255
-0.405849 0.413234 4.13236 0 0 0 128 128 128 255
-0.405748 0.316457 4.12572 0 0 0 128 128 128 255
-0.411002 0.834488 4.15699 0 0 0 128 128 128 255
-0.408889 0.506159 4.13608 0 0 0 128 128 128 255
-0.407742 0.288614 4.122 0 0 0 128 128 128 255
-0.412695 0.857513 4.15707 0 0 0 128 128 128 255
-0.411892 0.593093 4.13945 0 0 0 128 128 128 255
-0.411401 0.450404 4.12999 0 0 0 128 128 128 255
-0.412398 0.478384 4.13106 0 0 0 128 128 128 255
-0.415614 0.847669 4.15382 0 0 0 128 128 128 255
-0.421149 1.39664 4.18701 0 0 0 128 128 128 255
-0.414895 0.504434 4.1307 0 0 0 128 128 128 255
-0.419171 0.995483 4.16097 0 0 0 128 128 128 255
-0.414308 0.349767 4.12051 0 0 0 128 128 128 255
-0.415164 0.272982 4.11448 0 0 0 128 128 128 255
-0.424714 0.928876 4.15171 0 0 0 128 128 128 255
-0.427095 1.11355 4.16246 0 0 0 128 128 128 255
-0.421847 0.421923 4.11919 0 0 0 128 128 128 255
-0.42567 0.861072 4.14626 0 0 0 128 128 128 255
-0.424769 0.668477 4.13376 0 0 0 128 128 128 255
-0.426038 0.814195 4.14274 0 0 0 128 128 128 255
-0.42572 0.688471 4.13436 0 0 0 128 128 128 255
-0.424951 0.421052 4.11662 0 0 0 128 128 128 255
-0.425516 0.396132 4.11446 0 0 0 128 128 128 255
-0.426958 0.561811 4.12467 0 0 0 128 128 128 255
-0.428036 0.685572 4.1323 0 0 0 128 128 128 255
-0.429909 0.449185 4.11463 0 0 0 128 128 128 255
-0.43523 0.878416 4.13987 0 0 0 128 128 128 255
-0.431831 0.305586 4.10334 0 0 0 128 128 128 255
-0.432246 0.261701 4.10003 0 0 0 128 128 128 255
-0.432402 0.279666 4.10114 0 0 0 128 128 128 255
-0.438294 0.772772 4.13033 0 0 0 128 128 128 255
-0.4396 0.83069 4.13331 0 0 0 128 128 128 255
-0.438939 0.570253 4.11606 0 0 0 128 128 128 255
-0.44123 0.648161 4.11968 0 0 0 128 128 128 255
-0.443612 0.828841 4.13023 0 0 0 128 128 128 255
-0.441059 0.442618 4.10583 0 0 0 128 128 128 255
-0.442719 0.633248 4.11758 0 0 0 128 128 128 255
-0.444996 0.894742 4.1337 0 0 0 128 128 128 255
-0.442562 0.428702 4.1038 0 0 0 128 128 128 255
-0.444767 0.588422 4.11307 0 0 0 128 128 128 255
-0.449128 0.995662 4.1376 0 0 0 128 128 128 255
-0.451857 1.30905 4.15692 0 0 0 128 128 128 255
-0.448538 0.834003 4.12705 0 0 0 128 128 128 255
-0.445345 0.279134 4.0917 0 0 0 128 128 128 255
-0.445788 0.330035 4.09483 0 0 0 128 128 128 255
-0.4481 0.595521 4.1112 0 0 0 128 128 128 255
-0.451202 0.951831 4.13317 0 0 0 128 128 128 255
-0.450495 0.776199 4.12177 0 0 0 128 128 128 255
-0.449213 0.345117 4.09349 0 0 0 128 128 128 255
-0.460194 1.4161 4.15839 0 0 0 128 128 128 255
-0.451934 0.372147 4.09348 0 0 0 128 128 128 255
-0.453606 0.373199 4.09243 0 0 0 128 128 128 255
-0.45558 0.408185 4.09348 0 0 0 128 128 128 255
-0.455901 0.445113 4.09576 0 0 0 128 128 128 255
-0.464192 1.39727 4.15446 0 0 0 128 128 128 255
-0.460562 0.884289 4.12228 0 0 0 128 128 128 255
-0.464941 1.38732 4.1533 0 0 0 128 128 128 255
-0.456003 0.264515 4.08353 0 0 0 128 128 128 255
-0.459612 0.486139 4.09611 0 0 0 128 128 128 255
-0.464044 0.995153 4.12749 0 0 0 128 128 128 255
-0.460981 0.255688 4.07975 0 0 0 128 128 128 255
-0.468276 0.996279 4.12487 0 0 0 128 128 128 255
-0.463989 0.406447 4.08798 0 0 0 128 128 128 255
-0.464128 0.422416 4.08897 0 0 0 128 128 128 255
-0.464458 0.460342 4.0913 0 0 0 128 128 128 255
-0.466232 0.272805 4.07764 0 0 0 128 128 128 255
-0.467231 0.387583 4.08472 0 0 0 128 128 128 255
-0.474235 0.995455 4.12116 0 0 0 128 128 128 255
-0.474817 1.06233 4.12528 0 0 0 128 128 128 255
-0.470685 0.390674 4.08284 0 0 0 128 128 128 255
-0.475942 0.89572 4.11347 0 0 0 128 128 128 255
-0.473411 0.307929 4.07571 0 0 0 128 128 128 255
-0.478634 0.907768 4.11269 0 0 0 128 128 128 255
-0.477522 0.381879 4.07827 0 0 0 128 128 128 255
-0.477601 0.291078 4.07218 0 0 0 128 128 128 255
-0.479028 0.354977 4.07563 0 0 0 128 128 128 255
-0.48824 1.41293 4.14085 0 0 0 128 128 128 255
-0.47904 0.25619 4.06905 0 0 0 128 128 128 255
-0.483398 0.656438 4.09323 0 0 0 128 128 128 255
-0.484247 0.653466 4.09257 0 0 0 128 128 128 255
-0.485714 0.721357 4.09627 0 0 0 128 128 128 255
-0.486069 0.661494 4.0921 0 0 0 128 128 128 255
-0.485279 0.469887 4.0798 0 0 0 128 128 128 255
-0.487358 0.607642 4.08782 0 0 0 128 128 128 255
-0.490732 0.894109 4.10501 0 0 0 128 128 128 255
-0.495199 1.40712 4.13663 0 0 0 128 128 128 255
-0.488938 0.586726 4.08558 0 0 0 128 128 128 255
-0.492918 1.04384 4.11376 0 0 0 128 128 128 255
-0.493265 1.08376 4.11623 0 0 0 128 128 128 255
-0.491246 0.75043 4.09521 0 0 0 128 128 128 255
-0.494884 1.06684 4.11424 0 0 0 128 128 128 255
-0.490312 0.440073 4.07514 0 0 0 128 128 128 255
-0.4955 1.03592 4.11187 0 0 0 128 128 128 255
-0.49079 0.393185 4.07178 0 0 0 128 128 128 255
-0.492624 0.603777 4.08477 0 0 0 128 128 128 255
-0.493911 0.649709 4.08714 0 0 0 128 128 128 255
-0.499243 1.05796 4.11139 0 0 0 128 128 128 255
-0.497081 0.604877 4.08255 0 0 0 128 128 128 255
-0.499688 0.904297 4.10101 0 0 0 128 128 128 255
-0.501545 0.912321 4.1006 0 0 0 128 128 128 255
-0.50025 0.660828 4.08465 0 0 0 128 128 128 255
-0.49767 0.26162 4.0596 0 0 0 128 128 128 255
-0.507742 1.41838 4.13091 0 0 0 128 128 128 255
-0.499915 0.41634 4.06869 0 0 0 128 128 128 255
-0.499771 0.296591 4.06087 0 0 0 128 128 128 255
-0.502595 0.620963 4.08087 0 0 0 128 128 128 255
-0.502339 0.488239 4.07225 0 0 0 128 128 128 255
-0.506041 0.913416 4.09846 0 0 0 128 128 128 255
-0.511477 1.43443 4.13014 0 0 0 128 128 128 255
-0.504071 0.480293 4.07089 0 0 0 128 128 128 255
-0.506383 0.745779 4.08726 0 0 0 128 128 128 255
-0.510666 1.13405 4.11076 0 0 0 128 128 128 255
-0.50669 0.365588 4.06211 0 0 0 128 128 128 255
-0.510012 0.643069 4.07879 0 0 0 128 128 128 255
-0.503986 -0.153371 4.02927 0 0 0 128 128 128 255
-0.511077 0.661052 4.07948 0 0 0 128 128 128 255
-0.510897 0.431532 4.0645 0 0 0 128 128 128 255
-0.512877 0.449532 4.06479 0 0 0 128 128 128 255
-0.516022 0.810833 4.08706 0 0 0 128 128 128 255
-0.515332 0.416647 4.06154 0 0 0 128 128 128 255
-0.516092 0.398699 4.06003 0 0 0 128 128 128 255
-0.518916 0.723071 4.08003 0 0 0 128 128 128 255
-0.519774 0.399762 4.05851 0 0 0 128 128 128 255
-0.521513 0.387817 4.057 0 0 0 128 128 128 255
-0.523859 0.657295 4.07361 0 0 0 128 128 128 255
-0.5305 1.31404 4.11371 0 0 0 128 128 128 255
-0.526627 0.763122 4.07936 0 0 0 128 128 128 255
-0.532723 1.14443 4.10173 0 0 0 128 128 128 255
-0.527515 0.439809 4.05792 0 0 0 128 128 128 255
-0.528322 0.425851 4.05669 0 0 0 128 128 128 255
-0.532938 0.314153 4.04762 0 0 0 128 128 128 255
-0.535158 0.461881 4.05637 0 0 0 128 128 128 255
-0.535651 0.410993 4.05288 0 0 0 128 128 128 255
-0.53844 0.731372 4.07263 0 0 0 128 128 128 255
-0.541566 0.982899 4.08778 0 0 0 128 128 128 255
-0.536351 0.27628 4.04387 0 0 0 128 128 128 255
-0.537402 0.289268 4.04432 0 0 0 128 128 128 255
-0.542946 0.926035 4.08358 0 0 0 128 128 128 255
-0.540454 0.424033 4.05194 0 0 0 128 128 128 255
-0.541985 0.491915 4.05579 0 0 0 128 128 128 255
-0.54516 0.748431 4.07126 0 0 0 128 128 128 255
-0.549984 0.760468 4.07035 0 0 0 128 128 128 255
-0.547662 0.385206 4.04689 0 0 0 128 128 128 255
-0.549852 0.636719 4.0624 0 0 0 128 128 128 255
-0.555675 1.30542 4.10362 0 0 0 128 128 128 255
-0.54914 0.4461 4.05033 0 0 0 128 128 128 255
-0.554971 1.1158 4.09161 0 0 0 128 128 128 255
-0.556683 1.31242 4.10373 0 0 0 128 128 128 255
-0.548932 0.313369 4.04182 0 0 0 128 128 128 255
-0.553211 0.586861 4.05805 0 0 0 128 128 128 255
-0.552331 0.267501 4.03774 0 0 0 128 128 128 255
-0.553318 0.271504 4.03768 0 0 0 128 128 128 255
-0.560005 0.930239 4.07799 0 0 0 128 128 128 255
-0.556075 0.369336 4.04311 0 0 0 128 128 128 255
-0.558299 0.624841 4.05886 0 0 0 128 128 128 255
-0.559097 0.606886 4.05745 0 0 0 128 128 128 255
-0.561921 0.931258 4.07745 0 0 0 128 128 128 255
-0.563633 1.12788 4.08957 0 0 0 128 128 128 255
-0.561494 0.772575 4.06737 0 0 0 128 128 128 255
-0.563947 0.614919 4.05648 0 0 0 128 128 128 255
-0.564381 0.664823 4.05955 0 0 0 128 128 128 255
-0.564425 0.669813 4.05986 0 0 0 128 128 128 255
-0.562906 0.385373 4.04204 0 0 0 128 128 128 255
-0.568454 0.912362 4.07424 0 0 0 128 128 128 255
-0.567276 0.666846 4.05883 0 0 0 128 128 128 255
-0.57093 0.976256 4.07762 0 0 0 128 128 128 255
-0.572459 1.15192 4.08845 0 0 0 128 128 128 255
-0.574119 1.34255 4.1002 0 0 0 128 128 128 255
-0.566972 0.411358 4.04252 0 0 0 128 128 128 255
-0.567242 0.442298 4.04443 0 0 0 128 128 128 255
-0.568886 0.2996 4.03481 0 0 0 128 128 128 255
-0.569034 0.316567 4.03586 0 0 0 128 128 128 255
-0.571327 0.469279 4.04501 0 0 0 128 128 128 255
-0.579096 1.14 4.08583 0 0 0 128 128 128 255
-0.578129 0.362545 4.03637 0 0 0 128 128 128 255
-0.583144 0.93843 4.07188 0 0 0 128 128 128 255
-0.586856 1.14205 4.08394 0 0 0 128 128 128 255
-0.586995 1.15802 4.08492 0 0 0 128 128 128 255
-0.5878 1.13906 4.08351 0 0 0 128 128 128 255
-0.582619 0.432436 4.03971 0 0 0 128 128 128 255
-0.585275 0.290734 4.03004 0 0 0 128 128 128 255
-0.593809 1.27084 4.09047 0 0 0 128 128 128 255
-0.587474 0.431467 4.03849 0 0 0 128 128 128 255
-0.594713 1.26286 4.08975 0 0 0 128 128 128 255
-0.588275 0.411511 4.03704 0 0 0 128 128 128 255
-0.596209 1.32275 4.09321 0 0 0 128 128 128 255
-0.595203 1.09519 4.07896 0 0 0 128 128 128 255
-0.593555 0.457446 4.03878 0 0 0 128 128 128 255
-0.594946 0.392581 4.03437 0 0 0 128 128 128 255
-0.600679 0.938528 4.06782 0 0 0 128 128 128 255
-0.601795 0.841723 4.06145 0 0 0 128 128 128 255
-0.603984 1.09324 4.07695 0 0 0 128 128 128 255
-0.603357 0.908597 4.06537 0 0 0 128 128 128 255
-0.604035 0.986446 4.07017 0 0 0 128 128 128 255
-0.601704 0.606186 4.04653 0 0 0 128 128 128 255
-0.60399 0.868678 4.06271 0 0 0 128 128 128 255
-0.600973 0.296792 4.02707 0 0 0 128 128 128 255
-0.601521 0.35967 4.03095 0 0 0 128 128 128 255
-0.605405 0.805806 4.05845 0 0 0 128 128 128 255
-0.60491 0.636138 4.0478 0 0 0 128 128 128 255
-0.602799 0.280829 4.02571 0 0 0 128 128 128 255
-0.605303 0.455493 4.0363 0 0 0 128 128 128 255
-0.605808 0.400602 4.03273 0 0 0 128 128 128 255
-0.612204 1.13518 4.07802 0 0 0 128 128 128 255
-0.61337 1.15614 4.07913 0 0 0 128 128 128 255
-0.612547 0.948546 4.06616 0 0 0 128 128 128 255
-0.612915 0.877685 4.06162 0 0 0 128 128 128 255
-0.615286 0.9236 4.06411 0 0 0 128 128 128 255
-0.61336 0.589249 4.04333 0 0 0 128 128 128 255
-0.616294 0.812818 4.05694 0 0 0 128 128 128 255
-0.621801 1.10526 4.0745 0 0 0 128 128 128 255
-0.623493 1.1861 4.07932 0 0 0 128 128 128 255
-0.622203 0.810828 4.05589 0 0 0 128 128 128 255
-0.622794 0.878697 4.06007 0 0 0 128 128 128 255
-0.622959 0.89766 4.06124 0 0 0 128 128 128 255
-0.62441 1.06434 4.07152 0 0 0 128 128 128 255
-0.625514 1.19109 4.07933 0 0 0 128 128 128 255
-0.626409 1.29389 4.08567 0 0 0 128 128 128 255
-0.618873 0.314789 4.02516 0 0 0 128 128 128 255
-0.62201 0.675091 4.04737 0 0 0 128 128 128 255
-0.619419 0.263888 4.02188 0 0 0 128 128 128 255
-0.619506 0.273868 4.02249 0 0 0 128 128 128 255
-0.622408 0.493443 4.03589 0 0 0 128 128 128 255
-0.628587 1.20307 4.07963 0 0 0 128 128 128 255
-0.629194 1.15915 4.07679 0 0 0 128 128 128 255
-0.629472 1.19109 4.07876 0 0 0 128 128 128 255
-0.629585 1.20407 4.07956 0 0 0 128 128 128 255
-0.62418 0.46949 4.03413 0 0 0 128 128 128 255
-0.630124 1.15217 4.07622 0 0 0 128 128 128 255
-0.630524 1.19808 4.07905 0 0 0 128 128 128 255
-0.631323 1.2899 4.08471 0 0 0 128 128 128 255
-0.626292 0.59824 4.04193 0 0 0 128 128 128 255
-0.632436 1.30387 4.08544 0 0 0 128 128 128 255
-0.62883 0.662115 4.04561 0 0 0 128 128 128 255
-0.629056 0.688065 4.04721 0 0 0 128 128 128 255
-0.629066 0.575283 4.04013 0 0 0 128 128 128 255
-0.63005 0.574284 4.03994 0 0 0 128 128 128 255
-0.635072 1.15117 4.07551 0 0 0 128 128 128 255
-0.635168 1.16215 4.07618 0 0 0 128 128 128 255
-0.639024 1.26295 4.08204 0 0 0 128 128 128 255
-0.632161 0.360692 4.0263 0 0 0 128 128 128 255
-0.639331 1.1841 4.07706 0 0 0 128 128 128 255
-0.640009 1.26195 4.08186 0 0 0 128 128 128 255
-0.640052 1.26694 4.08217 0 0 0 128 128 128 255
-0.63498 0.570285 4.0391 0 0 0 128 128 128 255
-0.639681 1.11024 4.07239 0 0 0 128 128 128 255
-0.634349 0.383644 4.02749 0 0 0 128 128 128 255
-0.637173 0.708016 4.04748 0 0 0 128 128 128 255
-0.636946 0.453505 4.03158 0 0 0 128 128 128 255
-0.637088 0.355692 4.02545 0 0 0 128 128 128 255
-0.637662 0.421564 4.02951 0 0 0 128 128 128 255
-0.640252 0.718988 4.04784 0 0 0 128 128 128 255
-0.644345 1.18908 4.07682 0 0 0 128 128 128 255
-0.641868 0.676067 4.045 0 0 0 128 128 128 255
-0.645926 1.14216 4.07373 0 0 0 128 128 128 255
-0.63957 0.297796 4.02158 0 0 0 128 128 128 255
-0.645036 0.925581 4.06028 0 0 0 128 128 128 255
-0.649 1.15214 4.07407 0 0 0 128 128 128 255
-0.649096 1.16311 4.07474 0 0 0 128 128 128 255
-0.648828 0.903611 4.05857 0 0 0 128 128 128 255
-0.646537 0.411556 4.02807 0 0 0 128 128 128 255
-0.647154 0.482419 4.03244 0 0 0 128 128 128 255
-0.654191 1.17607 4.07512 0 0 0 128 128 128 255
-0.654408 1.20102 4.07666 0 0 0 128 128 128 255
-0.647262 0.265831 4.01893 0 0 0 128 128 128 255
-0.649335 0.274805 4.01934 0 0 0 128 128 128 255
-0.650343 0.390581 4.02648 0 0 0 128 128 128 255
-0.655731 1.00938 4.06463 0 0 0 128 128 128 255
-0.657066 0.933521 4.05981 0 0 0 128 128 128 255
-0.652694 0.31671 4.02172 0 0 0 128 128 128 255
-0.662205 0.950463 4.06056 0 0 0 128 128 128 255
-0.663716 1.00934 4.06414 0 0 0 128 128 128 255
-0.66229 0.730877 4.04692 0 0 0 128 128 128 255
-0.668025 0.815682 4.05194 0 0 0 128 128 128 255
-0.671362 1.19894 4.07557 0 0 0 128 128 128 255
-0.67197 1.15402 4.07276 0 0 0 128 128 128 255
-0.666999 0.468341 4.03046 0 0 0 128 128 128 255
-0.667851 0.451367 4.02938 0 0 0 128 128 128 255
-0.6719 0.916467 4.05806 0 0 0 128 128 128 255
-0.671145 0.71485 4.0456 0 0 0 128 128 128 255
-0.674299 0.962364 4.06083 0 0 0 128 128 128 255
-0.67715 1.28973 4.08102 0 0 0 128 128 128 255
-0.66932 0.275686 4.01848 0 0 0 128 128 128 255
-0.676637 1.11606 4.07029 0 0 0 128 128 128 255
-0.678011 1.15897 4.07291 0 0 0 128 128 128 255
-0.675674 0.775703 4.04927 0 0 0 128 128 128 255
-0.68081 1.25078 4.07854 0 0 0 128 128 128 255
-0.678838 0.794642 4.0504 0 0 0 128 128 128 255
-0.682775 1.24677 4.07827 0 0 0 128 128 128 255
-0.683366 1.31464 4.08245 0 0 0 128 128 128 255
-0.681273 0.729743 4.04638 0 0 0 128 128 128 255
-0.683777 0.787613 4.04995 0 0 0 128 128 128 255
-0.686324 0.96526 4.06091 0 0 0 128 128 128 255
-0.688462 1.21078 4.07604 0 0 0 128 128 128 255
-0.682519 0.298533 4.01982 0 0 0 128 128 128 255
-0.686786 0.673797 4.04297 0 0 0 128 128 128 255
-0.687595 0.766617 4.04869 0 0 0 128 128 128 255
-0.693157 1.29059 4.08101 0 0 0 128 128 128 255
-0.690533 0.759602 4.04831 0 0 0 128 128 128 255
-0.694166 1.17679 4.07403 0 0 0 128 128 128 255
-0.690473 0.637827 4.04082 0 0 0 128 128 128 255
-0.691107 0.710686 4.04531 0 0 0 128 128 128 255
-0.693897 0.916278 4.05801 0 0 0 128 128 128 255
-0.692646 0.657768 4.0421 0 0 0 128 128 128 255
-0.695687 1.00709 4.06364 0 0 0 128 128 128 255
-0.697373 1.20072 4.07557 0 0 0 128 128 128 255
-0.698347 1.19771 4.07542 0 0 0 128 128 128 255
-0.691256 0.268501 4.01817 0 0 0 128 128 128 255
-0.700189 1.29451 4.08142 0 0 0 128 128 128 255
-0.702179 1.29349 4.08143 0 0 0 128 128 128 255
-0.698963 0.694632 4.04459 0 0 0 128 128 128 255
-0.704021 1.16072 4.07336 0 0 0 128 128 128 255
-0.699396 0.285378 4.01955 0 0 0 128 128 128 255
-0.70507 0.937116 4.05973 0 0 0 128 128 128 255
-0.702957 0.465006 4.03073 0 0 0 128 128 128 255
-0.707189 0.951064 4.0607 0 0 0 128 128 128 255
-0.710291 1.30737 4.08266 0 0 0 128 128 128 255
-0.712322 1.31134 4.08303 0 0 0 128 128 128 255
-0.705273 0.387119 4.02611 0 0 0 128 128 128 255
-0.713127 1.17458 4.07473 0 0 0 128 128 128 255
-0.708225 0.496881 4.03301 0 0 0 128 128 128 255
-0.7123 0.964975 4.06187 0 0 0 128 128 128 255
-0.714151 1.17756 4.07498 0 0 0 128 128 128 255
-0.713574 0.882109 4.05691 0 0 0 128 128 128 255
-0.710817 0.45093 4.0304 0 0 0 128 128 128 255
-0.710475 0.297215 4.021 0 0 0 128 128 128 255
-0.715741 0.902043 4.05829 0 0 0 128 128 128 255
-0.719382 1.32023 4.08407 0 0 0 128 128 128 255
-0.719302 1.19646 4.07652 0 0 0 128 128 128 255
-0.719788 1.25235 4.07997 0 0 0 128 128 128 255
-0.722317 1.19941 4.07696 0 0 0 128 128 128 255
-0.722838 1.2593 4.08065 0 0 0 128 128 128 255
-0.722991 1.16247 4.07477 0 0 0 128 128 128 255
-0.7173 0.280149 4.02057 0 0 0 128 128 128 255
-0.722975 0.931887 4.06075 0 0 0 128 128 128 255
-0.724191 0.84303 4.05547 0 0 0 128 128 128 255
-0.721336 0.400871 4.02831 0 0 0 128 128 128 255
-0.725551 0.884933 4.05815 0 0 0 128 128 128 255
-0.722826 0.457746 4.03192 0 0 0 128 128 128 255
-0.72897 1.16338 4.07543 0 0 0 128 128 128 255
-0.729091 1.17735 4.07629 0 0 0 128 128 128 255
-0.722126 0.263107 4.02003 0 0 0 128 128 128 255
-0.723255 0.392856 4.02803 0 0 0 128 128 128 255
-0.727934 0.816021 4.05423 0 0 0 128 128 128 255
-0.730329 0.862899 4.05735 0 0 0 128 128 128 255
-0.730438 0.647285 4.04429 0 0 0 128 128 128 255
-0.735322 1.2082 4.07887 0 0 0 128 128 128 255
-0.728119 0.267005 4.02097 0 0 0 128 128 128 255
-0.736332 1.21018 4.07912 0 0 0 128 128 128 255
-0.731093 0.494548 4.03512 0 0 0 128 128 128 255
-0.733249 0.628273 4.04349 0 0 0 128 128 128 255
-0.734005 0.715105 4.04885 0 0 0 128 128 128 255
-0.731521 0.315861 4.02436 0 0 0 128 128 128 255
-0.736892 0.932667 4.06239 0 0 0 128 128 128 255
-0.733112 0.384711 4.02874 0 0 0 128 128 128 255
-0.733703 0.452579 4.03292 0 0 0 128 128 128 255
-0.737561 0.781925 4.05336 0 0 0 128 128 128 255
-0.734867 0.358727 4.02741 0 0 0 128 128 128 255
-0.73704 0.608244 4.04279 0 0 0 128 128 128 255
-0.737066 0.611238 4.04298 0 0 0 128 128 128 255
-0.738143 0.621202 4.04373 0 0 0 128 128 128 255
-0.738908 0.709032 4.04915 0 0 0 128 128 128 255
-0.736256 0.290824 4.02351 0 0 0 128 128 128 255
-0.742399 0.882661 4.06014 0 0 0 128 128 128 255
-0.745841 1.2779 4.0845 0 0 0 128 128 128 255
-0.741763 0.696005 4.04878 0 0 0 128 128 128 255
-0.74257 0.675027 4.04763 0 0 0 128 128 128 255
-0.743039 0.728923 4.05095 0 0 0 128 128 128 255
-0.745177 0.974448 4.06609 0 0 0 128 128 128 255
-0.745203 0.977442 4.06628 0 0 0 128 128 128 255
-0.749839 1.28281 4.08541 0 0 0 128 128 128 255
-0.745195 0.636049 4.04569 0 0 0 128 128 128 255
-0.74833 0.655955 4.0474 0 0 0 128 128 128 255
-0.751975 0.961344 4.0664 0 0 0 128 128 128 255
-0.763524 1.15777 4.0803 0 0 0 128 128 128 255
-0.757536 0.357298 4.03114 0 0 0 128 128 128 255
-0.765583 1.28151 4.08812 0 0 0 128 128 128 255
-0.763592 0.940149 4.06727 0 0 0 128 128 128 255
-0.764072 0.657633 4.05045 0 0 0 128 128 128 255
-0.764882 0.301238 4.02932 0 0 0 128 128 128 255
-0.770661 0.964953 4.07023 0 0 0 128 128 128 255
-0.773364 1.27535 4.08937 0 0 0 128 128 128 255
-0.773498 1.17852 4.08361 0 0 0 128 128 128 255
-0.766592 0.273249 4.02802 0 0 0 128 128 128 255
-0.771887 0.769266 4.05882 0 0 0 128 128 128 255
-0.776407 1.17646 4.08415 0 0 0 128 128 128 255
-0.774671 0.753231 4.0585 0 0 0 128 128 128 255
-0.774967 0.675359 4.05393 0 0 0 128 128 128 255
-0.776418 0.842036 4.06421 0 0 0 128 128 128 255
-0.772334 0.261138 4.02863 0 0 0 128 128 128 255
-0.775904 0.559538 4.04726 0 0 0 128 128 128 255
-0.783091 0.938711 4.07159 0 0 0 128 128 128 255
-0.785289 1.19122 4.08716 0 0 0 128 128 128 255
-0.780357 0.290894 4.0324 0 0 0 128 128 128 255
-0.789186 1.30493 4.09491 0 0 0 128 128 128 255
-0.789094 1.18314 4.08766 0 0 0 128 128 128 255
-0.789146 1.18913 4.08803 0 0 0 128 128 128 255
-0.788308 0.759889 4.06234 0 0 0 128 128 128 255
-0.78929 0.872671 4.06929 0 0 0 128 128 128 255
-0.793114 1.31182 4.09636 0 0 0 128 128 128 255
-0.785415 0.316723 4.03528 0 0 0 128 128 128 255
-0.793106 1.20001 4.08973 0 0 0 128 128 128 255
-0.793129 0.870576 4.07022 0 0 0 128 128 128 255
-0.802758 0.984125 4.07975 0 0 0 128 128 128 255
-0.805313 1.16774 4.09137 0 0 0 128 128 128 255
-0.798509 0.276443 4.03671 0 0 0 128 128 128 255
-0.806217 1.16173 4.09129 0 0 0 128 128 128 255
-0.807111 1.15472 4.09116 0 0 0 128 128 128 255
-0.800348 0.268405 4.03682 0 0 0 128 128 128 255
-0.800452 0.280382 4.03755 0 0 0 128 128 128 255
-0.805319 0.8393 4.07201 0 0 0 128 128 128 255
-0.80712 0.827269 4.07188 0 0 0 128 128 128 255
-0.810993 0.835144 4.0736 0 0 0 128 128 128 255
-0.815833 1.39107 4.10788 0 0 0 128 128 128 255
-0.809786 0.587596 4.05866 0 0 0 128 128 128 255
-0.812889 0.835089 4.07424 0 0 0 128 128 128 255
-0.816772 0.954773 4.08258 0 0 0 128 128 128 255
-0.81884 1.19231 4.09723 0 0 0 128 128 128 255
-0.816022 0.760121 4.07091 0 0 0 128 128 128 255
-0.817148 0.564414 4.05984 0 0 0 128 128 128 255
-0.822701 1.20218 4.09916 0 0 0 128 128 128 255
-0.818177 0.574366 4.0608 0 0 0 128 128 128 255
-0.816693 0.295876 4.04397 0 0 0 128 128 128 255
-0.822613 0.759919 4.07326 0 0 0 128 128 128 255
-0.826793 1.13217 4.09656 0 0 0 128 128 128 255
-0.827705 1.23697 4.10302 0 0 0 128 128 128 255
-0.823298 0.623125 4.06552 0 0 0 128 128 128 255
-0.828919 1.16105 4.09904 0 0 0 128 128 128 255
-0.827951 0.942447 4.08591 0 0 0 128 128 128 255
-0.830306 1.21292 4.10259 0 0 0 128 128 128 255
-0.828655 0.808646 4.07838 0 0 0 128 128 128 255
-0.827477 0.566085 4.06379 0 0 0 128 128 128 255
-0.833186 1.22182 4.10421 0 0 0 128 128 128 255
-0.829886 0.735726 4.07461 0 0 0 128 128 128 255
-0.834248 1.23676 4.10549 0 0 0 128 128 128 255
-0.8314 0.802566 4.07909 0 0 0 128 128 128 255
-0.827794 0.281544 4.04734 0 0 0 128 128 128 255
-0.836866 1.2167 4.10536 0 0 0 128 128 128 255
-0.830493 0.271471 4.04783 0 0 0 128 128 128 255
-0.836671 0.981097 4.09158 0 0 0 128 128 128 255
-0.838409 1.18071 4.10389 0 0 0 128 128 128 255
-0.841569 1.22453 4.10772 0 0 0 128 128 128 255
-0.837348 0.633644 4.07168 0 0 0 128 128 128 255
-0.838426 0.757404 4.07931 0 0 0 128 128 128 255
-0.843718 1.36523 4.11678 0 0 0 128 128 128 255
-0.842174 0.975918 4.09355 0 0 0 128 128 128 255
-0.845546 1.36317 4.11743 0 0 0 128 128 128 255
-0.839828 0.600613 4.07081 0 0 0 128 128 128 255
-0.847776 1.30219 4.11484 0 0 0 128 128 128 255
-0.839657 0.264167 4.05125 0 0 0 128 128 128 255
-0.843207 0.566549 4.07029 0 0 0 128 128 128 255
-0.846996 1.00171 4.09712 0 0 0 128 128 128 255
-0.84766 0.97273 4.09573 0 0 0 128 128 128 255
-0.846674 0.649291 4.0766 0 0 0 128 128 128 255
-0.850646 1.00058 4.09867 0 0 0 128 128 128 255
-0.852289 1.18921 4.11029 0 0 0 128 128 128 255
-0.849741 0.687118 4.08016 0 0 0 128 128 128 255
-0.85439 1.22108 4.11308 0 0 0 128 128 128 255
-0.854342 1.00643 4.10068 0 0 0 128 128 128 255
-0.857114 1.32482 4.12031 0 0 0 128 128 128 255
-0.849201 0.311744 4.05827 0 0 0 128 128 128 255
-0.855415 1.02536 4.10227 0 0 0 128 128 128 255
-0.858005 1.32279 4.1206 0 0 0 128 128 128 255
-0.858436 1.16403 4.11166 0 0 0 128 128 128 255
-0.857256 0.924456 4.09732 0 0 0 128 128 128 255
-0.858255 1.03923 4.10439 0 0 0 128 128 128 255
-0.861983 1.36357 4.12482 0 0 0 128 128 128 255
-0.858044 0.70378 4.085 0 0 0 128 128 128 255
-0.861008 1.04412 4.10599 0 0 0 128 128 128 255
-0.861051 1.04911 4.10629 0 0 0 128 128 128 255
-0.864379 1.43137 4.12986 0 0 0 128 128 128 255
-0.854704 0.216689 4.05541 0 0 0 128 128 128 255
-0.855347 0.290546 4.05996 0 0 0 128 128 128 255
-0.858698 0.571966 4.07775 0 0 0 128 128 128 255
-0.862504 1.00912 4.1047 0 0 0 128 128 128 255
-0.8609 0.721641 4.08742 0 0 0 128 128 128 255
-0.862703 0.722569 4.08836 0 0 0 128 128 128 255
-0.868525 1.1856 4.1178 0 0 0 128 128 128 255
-0.861441 0.269341 4.06176 0 0 0 128 128 128 255
-0.871313 1.40315 4.13166 0 0 0 128 128 128 255
-0.86229 0.264315 4.0619 0 0 0 128 128 128 255
-0.867999 0.920045 4.10233 0 0 0 128 128 128 255
-0.868216 0.944997 4.10387 0 0 0 128 128 128 255
-0.871071 1.17052 4.11823 0 0 0 128 128 128 255
-0.866621 0.353 4.0692 0 0 0 128 128 128 255
-0.866864 0.380946 4.07093 0 0 0 128 128 128 255
-0.867203 0.318031 4.06751 0 0 0 128 128 128 255
-0.872626 0.940825 4.10591 0 0 0 128 128 128 255
-0.869027 0.425786 4.07462 0 0 0 128 128 128 255
-0.869746 0.406787 4.07392 0 0 0 128 128 128 255
-0.876585 1.19227 4.12234 0 0 0 128 128 128 255
-0.874861 0.892809 4.10435 0 0 0 128 128 128 255
-0.877634 0.90767 4.10669 0 0 0 128 128 128 255
-0.876531 0.680073 4.09313 0 0 0 128 128 128 255
-0.878608 0.918611 4.10784 0 0 0 128 128 128 255
-0.879364 1.00544 4.11319 0 0 0 128 128 128 255
-0.876383 0.562264 4.08635 0 0 0 128 128 128 255
-0.879538 0.924563 4.10869 0 0 0 128 128 128 255
-0.8748 0.279774 4.06942 0 0 0 128 128 128 255
-0.880301 0.911551 4.10837 0 0 0 128 128 128 255
-0.882441 0.956389 4.1121 0 0 0 128 128 128 255
-0.886847 1.46241 4.1433 0 0 0 128 128 128 255
-0.87743 0.280659 4.07094 0 0 0 128 128 128 255
-0.881465 0.344384 4.07684 0 0 0 128 128 128 255
-0.884715 0.717661 4.09986 0 0 0 128 128 128 255
-0.888808 1.18775 4.12884 0 0 0 128 128 128 255
-0.889512 1.26859 4.13382 0 0 0 128 128 128 255
-0.890806 1.41731 4.14299 0 0 0 128 128 128 255
-0.891212 1.36437 4.14022 0 0 0 128 128 128 255
-0.888428 0.945144 4.11488 0 0 0 128 128 128 255
-0.888788 0.887218 4.11182 0 0 0 128 128 128 255
-0.89244 1.20756 4.13207 0 0 0 128 128 128 255
-0.889026 0.716471 4.1023 0 0 0 128 128 128 255
-0.889409 0.760386 4.10501 0 0 0 128 128 128 255
-0.887123 0.399047 4.08325 0 0 0 128 128 128 255
-0.889678 0.692478 4.10134 0 0 0 128 128 128 255
-0.8874 0.332137 4.07963 0 0 0 128 128 128 255
-0.887678 0.364075 4.0816 0 0 0 128 128 128 255
-0.895108 1.21742 4.13421 0 0 0 128 128 128 255
-0.891247 0.675433 4.10131 0 0 0 128 128 128 255
-0.891716 0.729329 4.10463 0 0 0 128 128 128 255
-0.895436 0.959804 4.11988 0 0 0 128 128 128 255
-0.897506 1.09949 4.12901 0 0 0 128 128 128 255
-0.895126 0.728173 4.10664 0 0 0 128 128 128 255
-0.899915 1.27811 4.14055 0 0 0 128 128 128 255
-0.900923 1.39388 4.14768 0 0 0 128 128 128 255
-0.897228 0.774005 4.11052 0 0 0 128 128 128 255
-0.901564 1.27204 4.14123 0 0 0 128 128 128 255
-0.89686 0.634236 4.10244 0 0 0 128 128 128 255
-0.900223 1.02049 4.12625 0 0 0 128 128 128 255
-0.89577 0.411627 4.08924 0 0 0 128 128 128 255
-0.898837 0.763945 4.11096 0 0 0 128 128 128 255
-0.898933 0.774923 4.11164 0 0 0 128 128 128 255
-0.896155 0.358689 4.08651 0 0 0 128 128 128 255
-0.897861 0.360604 4.08771 0 0 0 128 128 128 255
-0.903606 1.02033 4.12838 0 0 0 128 128 128 255
-0.898634 0.352579 4.08775 0 0 0 128 128 128 255
-0.902334 0.680903 4.10853 0 0 0 128 128 128 255
-0.904403 0.725735 4.11239 0 0 0 128 128 128 255
-0.905344 0.737671 4.11367 0 0 0 128 128 128 255
-0.908422 0.899275 4.12474 0 0 0 128 128 128 255
-0.904276 0.327341 4.09003 0 0 0 128 128 128 255
-0.906526 0.585841 4.10597 0 0 0 128 128 128 255
-0.910463 1.03797 4.13384 0 0 0 128 128 128 255
-0.912062 1.22161 4.14516 0 0 0 128 128 128 255
-0.912488 1.27052 4.14818 0 0 0 128 128 128 255
-0.912012 1.02491 4.13415 0 0 0 128 128 128 255
-0.907027 0.357159 4.09355 0 0 0 128 128 128 255
-0.912771 1.01688 4.13422 0 0 0 128 128 128 255
-0.907585 0.326177 4.0922 0 0 0 128 128 128 255
-0.914807 1.06071 4.13805 0 0 0 128 128 128 255
-0.91605 1.20344 4.14685 0 0 0 128 128 128 255
-0.915267 1.01875 4.13603 0 0 0 128 128 128 255
-0.918233 1.17037 4.14651 0 0 0 128 128 128 255
-0.912049 0.365889 4.09749 0 0 0 128 128 128 255
-0.916822 0.632246 4.11564 0 0 0 128 128 128 255
-0.924167 1.0093 4.14181 0 0 0 128 128 128 255
-0.928927 1.37051 4.16526 0 0 0 128 128 128 255
-0.925708 0.908366 4.13736 0 0 0 128 128 128 255
-0.928333 1.20978 4.15595 0 0 0 128 128 128 255
-0.923282 0.353309 4.10494 0 0 0 128 128 128 255
-0.923717 0.403212 4.10802 0 0 0 128 128 128 255
-0.924334 0.474075 4.11239 0 0 0 128 128 128 255
-0.924499 0.493038 4.11356 0 0 0 128 128 128 255
-0.92814 0.911229 4.13934 0 0 0 128 128 128 255
-0.92789 0.607684 4.12244 0 0 0 128 128 128 255
-0.933745 1.09765 4.15386 0 0 0 128 128 128 255
-0.928322 0.293115 4.10549 0 0 0 128 128 128 255
-0.930425 0.534647 4.12038 0 0 0 128 128 128 255
-0.930885 0.587545 4.12364 0 0 0 128 128 128 255
-0.935428 1.01867 4.15084 0 0 0 128 128 128 255
-0.930987 0.327913 4.10949 0 0 0 128 128 128 255
-0.933926 0.575389 4.12537 0 0 0 128 128 128 255
-0.93251 0.322833 4.11042 0 0 0 128 128 128 255
-0.934821 0.588319 4.12679 0 0 0 128 128 128 255
-0.93668 0.712034 4.13504 0 0 0 128 128 128 255
-0.93616 0.473405 4.12159 0 0 0 128 128 128 255
-0.937967 0.681003 4.13439 0 0 0 128 128 128 255
-0.937092 0.491325 4.12332 0 0 0 128 128 128 255
-0.939055 0.450267 4.1227 0 0 0 128 128 128 255
-0.941019 0.67583 4.13661 0 0 0 128 128 128 255
-0.939664 0.343381 4.11739 0 0 0 128 128 128 255
-0.946731 0.891182 4.1531 0 0 0 128 128 128 255
-0.947174 0.942083 4.15623 0 0 0 128 128 128 255
-0.94798 0.947027 4.15719 0 0 0 128 128 128 255
-0.943987 0.401038 4.12418 0 0 0 128 128 128 255
-0.946333 0.670516 4.14079 0 0 0 128 128 128 255
-0.949238 0.916992 4.15664 0 0 0 128 128 128 255
-0.950212 1.02878 4.16353 0 0 0 128 128 128 255
-0.947467 0.626508 4.13939 0 0 0 128 128 128 255
-0.954332 1.41498 4.18799 0 0 0 128 128 128 255
-0.954949 0.710918 4.15056 0 0 0 128 128 128 255
-0.957755 0.693759 4.1522 0 0 0 128 128 128 255
-0.959667 0.913334 4.16574 0 0 0 128 128 128 255
-0.958085 0.47903 4.14101 0 0 0 128 128 128 255
-0.960631 0.687578 4.15455 0 0 0 128 128 128 255
-0.962725 0.928112 4.16938 0 0 0 128 128 128 255
-0.961324 0.683537 4.15499 0 0 0 128 128 128 255
-0.958635 0.291248 4.1315 0 0 0 128 128 128 255
-0.964049 0.913044 4.16983 0 0 0 128 128 128 255
-0.964634 0.897026 4.16953 0 0 0 128 128 128 255
-0.963567 0.691375 4.15755 0 0 0 128 128 128 255
-0.964366 0.700309 4.15879 0 0 0 128 128 128 255
-0.967726 0.593221 4.15639 0 0 0 128 128 128 255
-0.968787 0.471307 4.151 0 0 0 128 128 128 255
-0.97122 0.669873 4.16396 0 0 0 128 128 128 255
-0.969029 0.337467 4.14418 0 0 0 128 128 128 255
-0.972131 0.693777 4.16614 0 0 0 128 128 128 255
-0.967965 0.134809 4.1324 0 0 0 128 128 128 255
-0.971363 0.525053 4.15646 0 0 0 128 128 128 255
-0.977597 0.683394 4.17127 0 0 0 128 128 128 255
-0.979859 0.707195 4.17493 0 0 0 128 128 128 255
-0.982043 0.879809 4.18631 0 0 0 128 128 128 255
-0.981175 0.702102 4.17609 0 0 0 128 128 128 255
-0.981427 0.731046 4.17787 0 0 0 128 128 128 255
-0.980149 0.50643 4.16476 0 0 0 128 128 128 255
-0.978369 0.147023 4.14408 0 0 0 128 128 128 255
-0.978902 0.131003 4.14384 0 0 0 128 128 128 255
-0.982021 0.335503 4.15793 0 0 0 128 128 128 255
-0.982673 0.410359 4.16255 0 0 0 128 128 128 255
-0.986239 0.590854 4.17592 0 0 0 128 128 128 255
-0.986256 0.59285 4.17605 0 0 0 128 128 128 255
-0.990141 1.03899 4.20355 0 0 0 128 128 128 255
-0.986222 0.512952 4.17187 0 0 0 128 128 128 255
-0.990028 0.648481 4.18325 0 0 0 128 128 128 255
-0.983753 -0.147031 4.13497 0 0 0 128 128 128 255
-0.990158 0.588545 4.18032 0 0 0 128 128 128 255
-0.990465 0.47466 4.17482 0 0 0 128 128 128 255
-0.993497 0.822986 4.19629 0 0 0 128 128 128 255
-0.991293 0.495567 4.17687 0 0 0 128 128 128 255
-0.99257 0.642283 4.18592 0 0 0 128 128 128 255
-0.988956 0.153177 4.15653 0 0 0 128 128 128 255
-0.996925 1.0684 4.21296 0 0 0 128 128 128 255
-0.991328 0.35174 4.16954 0 0 0 128 128 128 255
-0.993723 0.553297 4.18274 0 0 0 128 128 128 255
-0.993767 0.558287 4.18305 0 0 0 128 128 128 255
-0.994592 0.653103 4.18889 0 0 0 128 128 128 255
-0.991843 0.190892 4.16194 0 0 0 128 128 128 255
-0.993895 0.353524 4.17274 0 0 0 128 128 128 255
-0.994998 0.480279 4.18055 0 0 0 128 128 128 255
-0.995604 0.332405 4.17377 0 0 0 128 128 128 255
-0.997342 0.532019 4.18608 0 0 0 128 128 128 255
-0.997247 0.377211 4.1781 0 0 0 128 128 128 255
-0.996119 0.104632 4.16286 0 0 0 128 128 128 255
-1.00152 0.72543 4.20113 0 0 0 128 128 128 255
-1.00142 0.642536 4.19681 0 0 0 128 128 128 255
-1.00195 0.703418 4.20056 0 0 0 128 128 128 255
-1.0015 0.580602 4.19378 0 0 0 128 128 128 255
-0.998484 0.163356 4.16885 0 0 0 128 128 128 255
-1.00373 0.766189 4.20601 0 0 0 128 128 128 255
-1.00363 0.613377 4.19817 0 0 0 128 128 128 255
-1.00318 0.491559 4.19146 0 0 0 128 128 128 255
-1.00372 0.484518 4.19182 0 0 0 128 128 128 255
-1.00373 0.485516 4.19188 0 0 0 128 128 128 255
-1.00671 0.827853 4.21298 0 0 0 128 128 128 255
-1.00382 0.425578 4.18898 0 0 0 128 128 128 255
-1.0075 0.848758 4.21507 0 0 0 128 128 128 255
-1.00976 1.03834 4.22756 0 0 0 128 128 128 255
-1.0079 0.686908 4.20749 0 0 0 128 128 128 255
-1.00962 0.815605 4.21623 0 0 0 128 128 128 255
-1.00591 0.321507 4.18657 0 0 0 128 128 128 255
-1.00713 0.461236 4.19519 0 0 0 128 128 128 255
-1.01027 0.821538 4.2174 0 0 0 128 128 128 255
-1.01052 0.782559 4.2158 0 0 0 128 128 128 255
-1.00689 0.22952 4.18333 0 0 0 128 128 128 255
-1.01266 0.824314 4.2208 0 0 0 128 128 128 255
-1.01429 1.01195 4.23237 0 0 0 128 128 128 255
-1.01303 0.599528 4.2102 0 0 0 128 128 128 255
-1.0149 0.484473 4.20721 0 0 0 128 128 128 255
-1.01757 0.59609 4.21657 0 0 0 128 128 128 255
-1.02009 0.755669 4.22807 0 0 0 128 128 128 255
-1.0226 1.04411 4.24585 0 0 0 128 128 128 255
-1.02064 0.755613 4.2289 0 0 0 128 128 128 255
-1.02103 0.799528 4.2316 0 0 0 128 128 128 255
-1.0222 0.743469 4.23065 0 0 0 128 128 128 255
-1.02696 1.03867 4.25221 0 0 0 128 128 128 255
-1.032 1.00617 4.25868 0 0 0 128 128 128 255
-1.02402 -0.148827 4.19091 0 0 0 128 128 128 255
-1.03045 0.589743 4.23644 0 0 0 128 128 128 255
-1.03017 0.498862 4.2317 0 0 0 128 128 128 255
-1.03182 0.455715 4.23249 0 0 0 128 128 128 255
-1.03966 1.01329 4.27209 0 0 0 128 128 128 255
-1.03253 0.0829739 4.21648 0 0 0 128 128 128 255
-1.03366 0.100823 4.21934 0 0 0 128 128 128 255
-1.03197 -0.147754 4.20489 0 0 0 128 128 128 255
-1.0366 0.329264 4.23518 0 0 0 128 128 128 255
-1.0452 0.572971 4.26264 0 0 0 128 128 128 255
-1.04458 0.198341 4.24495 0 0 0 128 128 128 255
-1.04217 -0.128087 4.22573 0 0 0 128 128 128 255
-1.05068 0.849022 4.28597 0 0 0 128 128 128 255
-1.04628 0.196107 4.24843 0 0 0 128 128 128 255
-1.05615 0.493454 4.28325 0 0 0 128 128 128 255
-1.06357 1.25785 4.33223 0 0 0 128 128 128 255
-1.06358 1.25885 4.33229 0 0 0 128 128 128 255
-1.06493 1.28462 4.33667 0 0 0 128 128 128 255
-1.05349 -0.156771 4.2506 0 0 0 128 128 128 255
-1.05691 0.152509 4.27153 0 0 0 128 128 128 255
-1.05965 0.143041 4.27845 0 0 0 128 128 128 255
-1.05999 0.142981 4.27939 0 0 0 128 128 128 255
-1.06207 0.151598 4.28559 0 0 0 128 128 128 255
-1.06751 0.143509 4.30226 0 0 0 128 128 128 255
-1.06824 0.194349 4.30635 0 0 0 128 128 128 255
-1.06886 0.106212 4.30573 0 0 0 128 128 128 255
-1.06937 0.134096 4.30842 0 0 0 128 128 128 255
-1.07229 0.0913746 4.31839 0 0 0 128 128 128 255
-1.08364 1.23579 4.39479 0 0 0 128 128 128 255
-1.07513 0.233665 4.33398 0 0 0 128 128 128 255
-1.07416 0.0718543 4.32596 0 0 0 128 128 128 255
-1.07442 0.0767826 4.32725 0 0 0 128 128 128 255
-1.0764 0.116209 4.33753 0 0 0 128 128 128 255
-1.07679 0.117083 4.33955 0 0 0 128 128 128 255
-1.07765 0.130808 4.34433 0 0 0 128 128 128 255
-1.07824 0.157632 4.34796 0 0 0 128 128 128 255
-1.08739 1.03837 4.41115 0 0 0 128 128 128 255
-1.08342 0.420939 4.383 0 0 0 128 128 128 255
-1.09164 1.16351 4.44472 0 0 0 128 128 128 255
