ply
format ascii 1.0
comment VCGLIB generated
element vertex 51
property float x
property float y
property float z
property float nx
property float ny
property float nz
property uchar red
property uchar green
property uchar blue
property uchar alpha
element face 0
property list uchar int vertex_indices
end_header
2.37545 1.37115 6.96726 0 0 0 0 255 255 255
2.33365 1.36805 6.80084 0 0 0 0 255 255 255
2.16006 1.33358 6.29827 0 0 0 0 255 255 255
2.13332 1.38045 6.58587 0 0 0 0 255 255 255
2.13741 1.33573 6.29028 0 0 0 0 255 255 255
2.13544 1.33602 6.29018 0 0 0 0 255 255 255
2.13216 1.35397 6.3946 0 0 0 0 255 255 255
2.11199 1.38766 6.61963 0 0 0 0 255 255 255
2.10697 1.38895 6.62436 0 0 0 0 255 255 255
2.1059 1.36396 6.4339 0 0 0 0 255 255 255
2.08497 1.39362 6.63726 0 0 0 0 255 255 255
2.07557 1.3748 6.47805 0 0 0 0 255 255 255
1.98341 1.37603 6.40294 0 0 0 0 255 255 255
1.94646 1.41576 6.67428 0 0 0 0 255 255 255
1.93244 1.41807 6.68072 0 0 0 0 255 255 255
1.933 1.40765 6.5883 0 0 0 0 255 255 255
1.92487 1.4166 6.65856 0 0 0 0 255 255 255
1.92155 1.41907 6.67834 0 0 0 0 255 255 255
1.90261 1.39918 6.49595 0 0 0 0 255 255 255
1.90141 1.40119 6.50979 0 0 0 0 255 255 255
1.89313 1.42554 6.71118 0 0 0 0 255 255 255
1.88521 1.44523 6.96226 0 0 0 0 255 255 255
1.89045 1.418 6.63647 0 0 0 0 255 255 255
1.88753 1.42943 6.74584 0 0 0 0 255 255 255
1.87864 1.43007 6.74255 0 0 0 0 255 255 255
1.87482 1.42962 6.73346 0 0 0 0 255 255 255
1.87169 1.43068 6.74132 0 0 0 0 255 255 255
1.87478 1.38008 6.34964 0 0 0 0 255 255 255
1.87162 1.38265 6.36336 0 0 0 0 255 255 255
1.85471 1.43274 6.74475 0 0 0 0 255 255 255
1.85169 1.43322 6.74664 0 0 0 0 255 255 255
1.75694 1.43729 6.69807 0 0 0 0 255 255 255
1.73279 1.44047 6.71039 0 0 0 0 255 255 255
1.72282 1.44122 6.71014 0 0 0 0 255 255 255
1.72156 1.44276 6.72504 0 0 0 0 255 255 255
1.67652 1.44128 6.67722 0 0 0 0 255 255 255
1.46557 1.45276 6.68682 0 0 0 0 255 255 255
1.45458 1.45308 6.68672 0 0 0 0 255 255 255
1.32245 1.44299 6.5767 0 0 0 0 255 255 255
1.31187 1.45927 6.72681 0 0 0 0 255 255 255
1.31135 1.30239 5.83955 0 0 0 0 255 255 255
1.30562 1.28744 5.78351 0 0 0 0 255 255 255
1.24556 1.44912 6.63038 0 0 0 0 255 255 255
1.2387 1.42249 6.42714 0 0 0 0 255 255 255
1.22118 1.45719 6.71003 0 0 0 0 255 255 255
1.13618 1.40276 6.31618 0 0 0 0 255 255 255
1.11745 1.4118 6.37458 0 0 0 0 255 255 255
1.11057 1.41016 6.36576 0 0 0 0 255 255 255
1.10128 1.41347 6.38858 0 0 0 0 255 255 255
1.10213 1.40273 6.32244 0 0 0 0 255 255 255
1.08956 1.40977 6.36797 0 0 0 0 255 255 255
