ply
format ascii 1.0
comment VCGLIB generated
element vertex 132
property float x
property float y
property float z
property float nx
property float ny
property float nz
property uchar red
property uchar green
property uchar blue
property uchar alpha
element face 0
property list uchar int vertex_indices
end_header
2.49888 -0.187719 3.94964 0 0 0 0 128 0 255
2.46798 -0.22091 3.95029 0 0 0 0 128 0 255
2.45964 -0.217437 3.95083 0 0 0 0 128 0 255
2.46524 -0.201111 3.951 0 0 0 0 128 0 255
2.46214 -0.200537 3.95118 0 0 0 0 128 0 255
2.46553 -0.194411 3.95118 0 0 0 0 128 0 255
2.4526 -0.172407 3.95249 0 0 0 0 128 0 255
2.48461 -0.0918341 3.95314 0 0 0 0 128 0 255
2.47805 -0.0459289 3.9548 0 0 0 0 128 0 255
2.53642 0.140056 3.95711 0 0 0 0 128 0 255
2.48328 0.046028 3.95717 0 0 0 0 128 0 255
2.47436 0.0361009 3.95735 0 0 0 0 128 0 255
2.48027 0.0488355 3.95741 0 0 0 0 128 0 255
2.47232 0.0406586 3.95758 0 0 0 0 128 0 255
2.65153 0.399788 3.95859 0 0 0 0 128 0 255
2.36852 -0.109915 3.95865 0 0 0 0 128 0 255
2.64194 0.384519 3.95865 0 0 0 0 128 0 255
2.6434 0.387145 3.95865 0 0 0 0 128 0 255
2.63283 0.380417 3.95901 0 0 0 0 128 0 255
2.64114 0.407818 3.95936 0 0 0 0 128 0 255
2.64267 0.422968 3.95972 0 0 0 0 128 0 255
2.34292 -0.112897 3.9599 0 0 0 0 128 0 255
2.30865 -0.172796 3.95995 0 0 0 0 128 0 255
2.63386 0.415274 3.95995 0 0 0 0 128 0 255
2.6355 0.422366 3.96007 0 0 0 0 128 0 255
2.37836 0.0172005 3.96179 0 0 0 0 128 0 255
2.41153 0.10399 3.96256 0 0 0 0 128 0 255
2.40153 0.110662 3.96327 0 0 0 0 128 0 255
2.3255 0.0144363 3.96446 0 0 0 0 128 0 255
2.35114 0.0711082 3.96476 0 0 0 0 128 0 255
2.18746 -0.216619 3.96499 0 0 0 0 128 0 255
2.35412 0.0888835 3.96511 0 0 0 0 128 0 255
2.36321 0.113569 3.96535 0 0 0 0 128 0 255
2.35923 0.114626 3.96559 0 0 0 0 128 0 255
2.35041 0.106932 3.96582 0 0 0 0 128 0 255
2.35535 0.117916 3.96588 0 0 0 0 128 0 255
2.35872 0.134333 3.96618 0 0 0 0 128 0 255
2.35697 0.1353 3.9663 0 0 0 0 128 0 255
2.14593 -0.205081 3.96748 0 0 0 0 128 0 255
2.13208 -0.225992 3.9676 0 0 0 0 128 0 255
2.13934 -0.212866 3.9676 0 0 0 0 128 0 255
2.68966 0.794653 3.96796 0 0 0 0 128 0 255
2.68878 0.795136 3.96802 0 0 0 0 128 0 255
2.13612 -0.193942 3.96831 0 0 0 0 128 0 255
2.12643 -0.201153 3.96861 0 0 0 0 128 0 255
2.64085 0.729084 3.96861 0 0 0 0 128 0 255
2.64897 0.752019 3.96885 0 0 0 0 128 0 255
2.11392 -0.20109 3.96926 0 0 0 0 128 0 255
2.12261 -0.175046 3.96956 0 0 0 0 128 0 255
2.1374 -0.131802 3.97003 0 0 0 0 128 0 255
2.12975 -0.14357 3.97009 0 0 0 0 128 0 255
2.10468 -0.186842 3.97015 0 0 0 0 128 0 255
2.12142 -0.150389 3.97033 0 0 0 0 128 0 255
2.11018 -0.162458 3.97056 0 0 0 0 128 0 255
2.13777 -0.112577 3.97056 0 0 0 0 128 0 255
2.16815 -0.0493877 3.9708 0 0 0 0 128 0 255
2.11974 -0.126607 3.9711 0 0 0 0 128 0 255
2.09911 -0.149478 3.97151 0 0 0 0 128 0 255
2.13801 -0.0750034 3.97163 0 0 0 0 128 0 255
2.10617 -0.130527 3.97169 0 0 0 0 128 0 255
2.13278 -0.0823963 3.97169 0 0 0 0 128 0 255
2.14546 -0.0574103 3.97175 0 0 0 0 128 0 255
2.65047 0.872315 3.97222 0 0 0 0 128 0 255
2.12317 -0.0770824 3.97234 0 0 0 0 128 0 255
2.1044 -0.108978 3.9724 0 0 0 0 128 0 255
2.12859 -0.065223 3.9724 0 0 0 0 128 0 255
2.13991 -0.0406289 3.97252 0 0 0 0 128 0 255
2.1247 -0.0516411 3.97299 0 0 0 0 128 0 255
2.64007 0.890637 3.97329 0 0 0 0 128 0 255
2.09883 -0.0819055 3.97347 0 0 0 0 128 0 255
2.11287 -0.0565275 3.97347 0 0 0 0 128 0 255
2.10666 -0.0553791 3.97382 0 0 0 0 128 0 255
2.15068 0.0345467 3.97412 0 0 0 0 128 0 255
2.099 -0.0568562 3.97418 0 0 0 0 128 0 255
2.13781 0.0153855 3.97424 0 0 0 0 128 0 255
2.6287 0.907208 3.97436 0 0 0 0 128 0 255
2.13798 0.0301434 3.97465 0 0 0 0 128 0 255
2.10806 -0.0115884 3.97501 0 0 0 0 128 0 255
2.12953 0.0416741 3.97542 0 0 0 0 128 0 255
2.65018 1.03474 3.97691 0 0 0 0 128 0 255
2.06384 0.13742 3.98159 0 0 0 0 128 0 255
2.05784 0.132744 3.98177 0 0 0 0 128 0 255
2.07738 0.172214 3.98189 0 0 0 0 128 0 255
2.04562 0.129215 3.9823 0 0 0 0 128 0 255
2.046 0.138149 3.98254 0 0 0 0 128 0 255
2.05207 0.165641 3.98301 0 0 0 0 128 0 255
2.05023 0.164374 3.98307 0 0 0 0 128 0 255
2.05275 0.170983 3.98313 0 0 0 0 128 0 255
2.05342 0.176325 3.98325 0 0 0 0 128 0 255
2.0442 0.18028 3.98384 0 0 0 0 128 0 255
2.04522 0.215138 3.98479 0 0 0 0 128 0 255
2.04793 0.226213 3.98497 0 0 0 0 128 0 255
1.97697 0.271168 3.98995 0 0 0 0 128 0 255
1.9927 0.336745 3.99101 0 0 0 0 128 0 255
1.99032 0.375768 3.99226 0 0 0 0 128 0 255
1.98731 0.378576 3.9925 0 0 0 0 128 0 255
1.98847 0.384792 3.99261 0 0 0 0 128 0 255
1.9602 0.339861 3.99279 0 0 0 0 128 0 255
1.9597 0.349277 3.99309 0 0 0 0 128 0 255
1.96056 0.359086 3.99332 0 0 0 0 128 0 255
1.97566 0.388447 3.99338 0 0 0 0 128 0 255
1.95987 0.374327 3.9938 0 0 0 0 128 0 255
1.94854 0.360024 3.99398 0 0 0 0 128 0 255
1.97718 0.413889 3.99404 0 0 0 0 128 0 255
1.98064 0.44283 3.99469 0 0 0 0 128 0 255
1.93577 0.407077 3.99599 0 0 0 0 128 0 255
1.9856 0.507505 3.99629 0 0 0 0 128 0 255
1.96082 0.470932 3.99653 0 0 0 0 128 0 255
1.9699 0.495617 3.99676 0 0 0 0 128 0 255
1.98781 0.527996 3.99676 0 0 0 0 128 0 255
1.94801 0.474587 3.9973 0 0 0 0 128 0 255
1.94274 0.498068 3.99824 0 0 0 0 128 0 255
1.96004 0.547921 3.99878 0 0 0 0 128 0 255
1.9756 0.598741 3.99943 0 0 0 0 128 0 255
1.95167 0.571977 3.9999 0 0 0 0 128 0 255
1.99871 0.659095 3.99996 0 0 0 0 128 0 255
1.95883 0.593162 4.00014 0 0 0 0 128 0 255
1.96657 0.607163 4.00014 0 0 0 0 128 0 255
1.94827 0.576143 4.0002 0 0 0 0 128 0 255
1.93583 0.599022 4.0015 0 0 0 0 128 0 255
1.91894 0.770629 4.00731 0 0 0 0 128 0 255
1.9922 0.907236 4.00743 0 0 0 0 128 0 255
1.98899 0.915868 4.00785 0 0 0 0 128 0 255
1.93517 0.82679 4.00808 0 0 0 0 128 0 255
1.94059 0.838649 4.00814 0 0 0 0 128 0 255
1.98723 0.927126 4.00826 0 0 0 0 128 0 255
1.93815 0.844565 4.00844 0 0 0 0 128 0 255
1.98664 0.934309 4.0085 0 0 0 0 128 0 255
1.89246 0.76813 4.00862 0 0 0 0 128 0 255
1.94209 0.874382 4.00909 0 0 0 0 128 0 255
1.93654 0.891163 4.00986 0 0 0 0 128 0 255
1.92103 0.883743 4.01045 0 0 0 0 128 0 255
