ply
format ascii 1.0
comment VCGLIB generated
element vertex 340
property float x
property float y
property float z
property float nx
property float ny
property float nz
property uchar red
property uchar green
property uchar blue
property uchar alpha
element face 0
property list uchar int vertex_indices
end_header
4.19748 0.641718 3.38939 0 0 0 128 128 0 255
4.17713 0.6095 3.40399 0 0 0 128 128 0 255
4.17376 0.624646 3.40704 0 0 0 128 128 0 255
4.17194 0.638729 3.40886 0 0 0 128 128 0 255
4.16833 0.64788 3.4119 0 0 0 128 128 0 255
4.12929 0.844585 3.4478 0 0 0 128 128 0 255
4.12318 0.810801 3.45145 0 0 0 128 128 0 255
4.11363 0.930275 3.4624 0 0 0 128 128 0 255
4.10642 0.988607 3.4697 0 0 0 128 128 0 255
4.10329 1.02976 3.47335 0 0 0 128 128 0 255
4.09833 0.924878 3.47396 0 0 0 128 128 0 255
4.0842 0.649222 3.4764 0 0 0 128 128 0 255
4.07647 0.654533 3.48248 0 0 0 128 128 0 255
4.07417 0.656626 3.48431 0 0 0 128 128 0 255
4.08435 1.15261 3.49161 0 0 0 128 128 0 255
4.083 1.15867 3.49282 0 0 0 128 128 0 255
4.05023 0.853732 3.50864 0 0 0 128 128 0 255
4.0583 1.17667 3.51229 0 0 0 128 128 0 255
4.0587 1.26672 3.51473 0 0 0 128 128 0 255
4.04795 1.17608 3.5202 0 0 0 128 128 0 255
4.02706 1.86945 3.55732 0 0 0 128 128 0 255
3.98553 1.02444 3.5634 0 0 0 128 128 0 255
3.98458 1.02047 3.56401 0 0 0 128 128 0 255
3.98462 1.02147 3.56401 0 0 0 128 128 0 255
3.97666 1.10085 3.57253 0 0 0 128 128 0 255
3.95243 0.531362 3.57374 0 0 0 128 128 0 255
3.96797 1.10219 3.57922 0 0 0 128 128 0 255
3.98163 1.44592 3.57922 0 0 0 128 128 0 255
3.99816 2.00171 3.58348 0 0 0 128 128 0 255
3.99674 2.02578 3.5853 0 0 0 128 128 0 255
3.93642 0.527995 3.58591 0 0 0 128 128 0 255
3.95504 1.03666 3.58713 0 0 0 128 128 0 255
3.96708 1.39946 3.58895 0 0 0 128 128 0 255
3.94759 0.988915 3.59139 0 0 0 128 128 0 255
3.94822 1.0049 3.59139 0 0 0 128 128 0 255
3.94838 1.0089 3.59139 0 0 0 128 128 0 255
3.94723 1.01995 3.5926 0 0 0 128 128 0 255
3.95128 1.12187 3.5926 0 0 0 128 128 0 255
3.94089 1.10027 3.59991 0 0 0 128 128 0 255
3.93582 1.11248 3.60416 0 0 0 128 128 0 255
3.92948 1.13275 3.60964 0 0 0 128 128 0 255
3.95438 1.79928 3.61086 0 0 0 128 128 0 255
3.92221 1.00994 3.61147 0 0 0 128 128 0 255
3.92345 1.14099 3.61451 0 0 0 128 128 0 255
3.92198 1.12404 3.61512 0 0 0 128 128 0 255
3.91278 1.03233 3.61937 0 0 0 128 128 0 255
3.9546 2.2046 3.62303 0 0 0 128 128 0 255
3.90949 1.10952 3.62424 0 0 0 128 128 0 255
3.8869 0.601019 3.62607 0 0 0 128 128 0 255
3.89382 0.975039 3.63215 0 0 0 128 128 0 255
3.89386 0.976039 3.63215 0 0 0 128 128 0 255
3.89061 0.974166 3.63459 0 0 0 128 128 0 255
3.9284 2.2847 3.64554 0 0 0 128 128 0 255
3.87365 1.10694 3.65162 0 0 0 128 128 0 255
3.87099 1.10004 3.65345 0 0 0 128 128 0 255
3.8696 1.08509 3.65406 0 0 0 128 128 0 255
3.89827 1.82653 3.65466 0 0 0 128 128 0 255
3.83925 0.761038 3.66744 0 0 0 128 128 0 255
3.83758 0.759102 3.66866 0 0 0 128 128 0 255
3.83766 0.761101 3.66866 0 0 0 128 128 0 255
3.88587 1.97414 3.66866 0 0 0 128 128 0 255
3.88012 1.96937 3.67292 0 0 0 128 128 0 255
3.87858 1.97043 3.67413 0 0 0 128 128 0 255
3.83419 1.01344 3.679 0 0 0 128 128 0 255
3.83082 0.94852 3.67961 0 0 0 128 128 0 255
3.83101 0.953516 3.67961 0 0 0 128 128 0 255
3.8407 1.19732 3.67961 0 0 0 128 128 0 255
3.8259 0.884665 3.68143 0 0 0 128 128 0 255
3.82792 0.975657 3.68265 0 0 0 128 128 0 255
3.83575 1.1725 3.68265 0 0 0 128 128 0 255
3.81844 0.816908 3.68508 0 0 0 128 128 0 255
3.82134 0.889851 3.68508 0 0 0 128 128 0 255
3.81586 0.771975 3.68569 0 0 0 128 128 0 255
3.81776 0.819937 3.68569 0 0 0 128 128 0 255
3.86903 2.12993 3.6863 0 0 0 128 128 0 255
3.81769 0.898002 3.68813 0 0 0 128 128 0 255
3.82464 1.17294 3.69117 0 0 0 128 128 0 255
3.82568 1.19892 3.69117 0 0 0 128 128 0 255
3.82477 1.19596 3.69178 0 0 0 128 128 0 255
3.86102 2.10824 3.69178 0 0 0 128 128 0 255
3.80769 0.786311 3.69239 0 0 0 128 128 0 255
3.80583 0.759364 3.69299 0 0 0 128 128 0 255
3.80729 0.796334 3.69299 0 0 0 128 128 0 255
3.80424 0.759427 3.69421 0 0 0 128 128 0 255
3.83061 1.4229 3.69421 0 0 0 128 128 0 255
3.80646 0.835398 3.69482 0 0 0 128 128 0 255
3.80706 0.870402 3.69543 0 0 0 128 128 0 255
3.81421 1.09029 3.69664 0 0 0 128 128 0 255
3.81822 1.19121 3.69664 0 0 0 128 128 0 255
3.81354 1.09332 3.69725 0 0 0 128 128 0 255
3.85365 2.10252 3.69725 0 0 0 128 128 0 255
3.8075 0.961456 3.69786 0 0 0 128 128 0 255
3.85293 2.10455 3.69786 0 0 0 128 128 0 255
3.80064 0.868656 3.7003 0 0 0 128 128 0 255
3.80084 0.873652 3.7003 0 0 0 128 128 0 255
3.81176 1.14843 3.7003 0 0 0 128 128 0 255
3.79337 0.745847 3.70212 0 0 0 128 128 0 255
3.79341 0.746847 3.70212 0 0 0 128 128 0 255
3.80724 1.19465 3.70516 0 0 0 128 128 0 255
3.7974 1.06694 3.70881 0 0 0 128 128 0 255
3.79002 0.941135 3.71064 0 0 0 128 128 0 255
3.7901 0.963149 3.71125 0 0 0 128 128 0 255
3.78347 0.856328 3.71307 0 0 0 128 128 0 255
3.79396 1.18017 3.7149 0 0 0 128 128 0 255
3.77653 0.881623 3.71916 0 0 0 128 128 0 255
3.80481 1.59306 3.71916 0 0 0 128 128 0 255
3.80485 1.59406 3.71916 0 0 0 128 128 0 255
3.80346 1.59912 3.72037 0 0 0 128 128 0 255
3.79762 1.47225 3.72098 0 0 0 128 128 0 255
3.7819 1.17664 3.72402 0 0 0 128 128 0 255
3.77607 1.04977 3.72463 0 0 0 128 128 0 255
3.76324 0.747045 3.72524 0 0 0 128 128 0 255
3.76221 0.761097 3.72646 0 0 0 128 128 0 255
3.77444 1.06885 3.72646 0 0 0 128 128 0 255
3.78739 1.41461 3.72707 0 0 0 128 128 0 255
3.7723 1.07494 3.72828 0 0 0 128 128 0 255
3.78366 1.42077 3.73011 0 0 0 128 128 0 255
3.75598 0.744331 3.73072 0 0 0 128 128 0 255
3.78672 1.53774 3.73132 0 0 0 128 128 0 255
3.75734 0.818336 3.73193 0 0 0 128 128 0 255
3.75853 0.928375 3.73437 0 0 0 128 128 0 255
3.75933 0.948359 3.73437 0 0 0 128 128 0 255
3.78415 1.63291 3.73619 0 0 0 128 128 0 255
3.74865 0.819682 3.73863 0 0 0 128 128 0 255
3.7485 0.855716 3.73984 0 0 0 128 128 0 255
3.74592 0.810783 3.74045 0 0 0 128 128 0 255
3.77821 1.72322 3.74349 0 0 0 128 128 0 255
3.73918 0.86109 3.74714 0 0 0 128 128 0 255
3.74856 1.15695 3.74897 0 0 0 128 128 0 255
3.732 0.760296 3.74958 0 0 0 128 128 0 255
3.72592 0.647448 3.75079 0 0 0 128 128 0 255
3.74634 1.16104 3.75079 0 0 0 128 128 0 255
3.79296 2.35413 3.7514 0 0 0 128 128 0 255
3.73574 0.934285 3.75201 0 0 0 128 128 0 255
3.75448 1.44594 3.75323 0 0 0 128 128 0 255
3.73066 0.906465 3.75505 0 0 0 128 128 0 255
3.73201 0.940438 3.75505 0 0 0 128 128 0 255
3.73995 1.14028 3.75505 0 0 0 128 128 0 255
3.7197 0.650698 3.75566 0 0 0 128 128 0 255
3.74913 1.39111 3.75566 0 0 0 128 128 0 255
3.72586 0.845607 3.75688 0 0 0 128 128 0 255
3.78443 2.33946 3.75749 0 0 0 128 128 0 255
3.73055 1.06359 3.75992 0 0 0 128 128 0 255
3.72884 1.04064 3.76053 0 0 0 128 128 0 255
3.71971 0.83084 3.76114 0 0 0 128 128 0 255
3.73262 1.15558 3.76114 0 0 0 128 128 0 255
3.71022 0.652076 3.76296 0 0 0 128 128 0 255
3.7167 0.814947 3.76296 0 0 0 128 128 0 255
3.72841 1.14975 3.76418 0 0 0 128 128 0 255
3.7202 0.962925 3.76479 0 0 0 128 128 0 255
3.77412 2.33987 3.7654 0 0 0 128 128 0 255
3.70634 0.654231 3.766 0 0 0 128 128 0 255
3.70677 0.665223 3.766 0 0 0 128 128 0 255
3.71865 0.963987 3.766 0 0 0 128 128 0 255
3.7225 1.06091 3.766 0 0 0 128 128 0 255
3.70511 0.663287 3.76722 0 0 0 128 128 0 255
3.71937 1.06204 3.76844 0 0 0 128 128 0 255
3.75193 1.92142 3.76966 0 0 0 128 128 0 255
3.7297 1.38188 3.77026 0 0 0 128 128 0 255
3.70834 1.04446 3.77635 0 0 0 128 128 0 255
3.71152 1.14441 3.77696 0 0 0 128 128 0 255
3.69568 0.82579 3.77939 0 0 0 128 128 0 255
3.69811 0.906758 3.78 0 0 0 128 128 0 255
3.73802 1.91096 3.78 0 0 0 128 128 0 255
3.69791 0.921777 3.78061 0 0 0 128 128 0 255
3.68429 0.639095 3.78243 0 0 0 128 128 0 255
3.68469 0.649087 3.78243 0 0 0 128 128 0 255
3.68417 0.656113 3.78304 0 0 0 128 128 0 255
3.67771 0.613336 3.78669 0 0 0 128 128 0 255
3.67723 0.641377 3.78791 0 0 0 128 128 0 255
3.69523 1.13405 3.78912 0 0 0 128 128 0 255
3.69455 1.13708 3.78973 0 0 0 128 128 0 255
3.67188 0.646594 3.79217 0 0 0 128 128 0 255
3.6913 1.13521 3.79217 0 0 0 128 128 0 255
3.69933 1.37708 3.79338 0 0 0 128 128 0 255
3.68666 1.11838 3.79521 0 0 0 128 128 0 255
3.66443 0.598852 3.79643 0 0 0 128 128 0 255
3.66395 0.626893 3.79764 0 0 0 128 128 0 255
3.66185 0.593951 3.79825 0 0 0 128 128 0 255
3.67348 0.88672 3.79825 0 0 0 128 128 0 255
3.68401 1.15151 3.79825 0 0 0 128 128 0 255
3.6736 0.909733 3.79886 0 0 0 128 128 0 255
3.67615 0.993698 3.79947 0 0 0 128 128 0 255
3.6698 0.913887 3.8019 0 0 0 128 128 0 255
3.65769 0.649159 3.80312 0 0 0 128 128 0 255
3.6604 0.8372 3.80677 0 0 0 128 128 0 255
3.66754 1.01706 3.80677 0 0 0 128 128 0 255
3.65952 0.835233 3.80738 0 0 0 128 128 0 255
3.65345 0.70237 3.80799 0 0 0 128 128 0 255
3.65333 0.719388 3.80859 0 0 0 128 128 0 255
3.64841 0.615501 3.8092 0 0 0 128 128 0 255
3.66874 1.1271 3.8092 0 0 0 128 128 0 255
3.66203 0.998262 3.81042 0 0 0 128 128 0 255
3.64945 0.801607 3.81407 0 0 0 128 128 0 255
3.66033 1.09541 3.81468 0 0 0 128 128 0 255
3.6439 0.761796 3.81711 0 0 0 128 128 0 255
3.65093 0.938656 3.81711 0 0 0 128 128 0 255
3.63616 0.606981 3.81833 0 0 0 128 128 0 255
3.63679 0.622969 3.81833 0 0 0 128 128 0 255
3.65605 1.1276 3.81894 0 0 0 128 128 0 255
3.6482 1.1099 3.82441 0 0 0 128 128 0 255
3.64538 1.07899 3.82563 0 0 0 128 128 0 255
3.67465 1.83542 3.82624 0 0 0 128 128 0 255
3.63586 0.879208 3.82685 0 0 0 128 128 0 255
3.64042 0.994117 3.82685 0 0 0 128 128 0 255
3.63204 0.803299 3.82746 0 0 0 128 128 0 255
3.62192 0.588532 3.82867 0 0 0 128 128 0 255
3.62947 0.798398 3.82928 0 0 0 128 128 0 255
3.63594 1.0013 3.8305 0 0 0 128 128 0 255
3.64015 1.12723 3.83111 0 0 0 128 128 0 255
3.61966 0.631656 3.83171 0 0 0 128 128 0 255
3.61633 0.587753 3.83293 0 0 0 128 128 0 255
3.66589 1.83477 3.83293 0 0 0 128 128 0 255
3.61744 0.635747 3.83354 0 0 0 128 128 0 255
3.63075 1.03053 3.83536 0 0 0 128 128 0 255
3.66268 1.8339 3.83536 0 0 0 128 128 0 255
3.63282 1.12252 3.83658 0 0 0 128 128 0 255
3.60725 0.599123 3.84023 0 0 0 128 128 0 255
3.62063 0.935857 3.84023 0 0 0 128 128 0 255
3.60249 0.579296 3.84327 0 0 0 128 128 0 255
3.61484 0.890051 3.84327 0 0 0 128 128 0 255
3.60897 0.822231 3.84571 0 0 0 128 128 0 255
3.60985 0.904261 3.84753 0 0 0 128 128 0 255
3.61036 0.91725 3.84753 0 0 0 128 128 0 255
3.61477 1.06819 3.84875 0 0 0 128 128 0 255
3.61121 1.11838 3.85301 0 0 0 128 128 0 255
3.6024 0.956598 3.85483 0 0 0 128 128 0 255
3.64656 2.08774 3.85544 0 0 0 128 128 0 255
3.59569 0.867794 3.85727 0 0 0 128 128 0 255
3.64033 2.09099 3.86031 0 0 0 128 128 0 255
3.63934 2.08602 3.86092 0 0 0 128 128 0 255
3.58236 0.692185 3.86214 0 0 0 128 128 0 255
3.58684 0.805096 3.86214 0 0 0 128 128 0 255
3.59153 0.923003 3.86214 0 0 0 128 128 0 255
3.59792 1.10389 3.86274 0 0 0 128 128 0 255
3.61659 1.59354 3.86335 0 0 0 128 128 0 255
3.61247 1.5897 3.86639 0 0 0 128 128 0 255
3.58757 1.00322 3.86761 0 0 0 128 128 0 255
3.57935 0.87645 3.87004 0 0 0 128 128 0 255
3.57451 0.774562 3.87065 0 0 0 128 128 0 255
3.58191 1.10053 3.87491 0 0 0 128 128 0 255
3.60415 1.82021 3.87978 0 0 0 128 128 0 255
3.56294 0.863091 3.88221 0 0 0 128 128 0 255
3.60102 1.84135 3.88282 0 0 0 128 128 0 255
3.54933 0.700503 3.88769 0 0 0 128 128 0 255
3.55116 0.786498 3.88891 0 0 0 128 128 0 255
3.59202 1.8347 3.88951 0 0 0 128 128 0 255
3.54648 0.728639 3.89073 0 0 0 128 128 0 255
3.60557 2.23548 3.89134 0 0 0 128 128 0 255
3.57341 1.48617 3.89316 0 0 0 128 128 0 255
3.56888 1.47234 3.89621 0 0 0 128 128 0 255
3.56552 1.5075 3.89986 0 0 0 128 128 0 255
3.54078 0.985067 3.9029 0 0 0 128 128 0 255
3.58462 2.0882 3.9029 0 0 0 128 128 0 255
3.58947 2.23012 3.90351 0 0 0 128 128 0 255
3.55838 1.46775 3.90412 0 0 0 128 128 0 255
3.58284 2.08326 3.90412 0 0 0 128 128 0 255
3.57113 1.80851 3.90472 0 0 0 128 128 0 255
3.53253 0.857294 3.90533 0 0 0 128 128 0 255
3.53388 0.891267 3.90533 0 0 0 128 128 0 255
3.56926 1.78156 3.90533 0 0 0 128 128 0 255
3.5865 2.27527 3.90716 0 0 0 128 128 0 255
3.52535 0.836563 3.9102 0 0 0 128 128 0 255
3.53039 0.963463 3.9102 0 0 0 128 128 0 255
3.53154 0.99244 3.9102 0 0 0 128 128 0 255
3.54617 1.48024 3.91385 0 0 0 128 128 0 255
3.55602 1.74806 3.91446 0 0 0 128 128 0 255
3.52302 0.957751 3.91568 0 0 0 128 128 0 255
3.56408 2.071 3.91811 0 0 0 128 128 0 255
3.52995 1.47188 3.92602 0 0 0 128 128 0 255
3.55874 2.23634 3.92724 0 0 0 128 128 0 255
3.53191 1.70098 3.9315 0 0 0 128 128 0 255
3.54378 2.03978 3.93271 0 0 0 128 128 0 255
3.51833 1.4193 3.93332 0 0 0 128 128 0 255
3.55276 2.28562 3.93332 0 0 0 128 128 0 255
3.55216 2.29065 3.93393 0 0 0 128 128 0 255
3.52477 1.68125 3.93636 0 0 0 128 128 0 255
3.54041 2.07494 3.93636 0 0 0 128 128 0 255
3.49217 0.920947 3.93819 0 0 0 128 128 0 255
3.48963 0.917045 3.94001 0 0 0 128 128 0 255
3.52291 1.75438 3.94001 0 0 0 128 128 0 255
3.53256 2.03722 3.94123 0 0 0 128 128 0 255
3.49027 1.05313 3.94366 0 0 0 128 128 0 255
3.4763 0.841514 3.94792 0 0 0 128 128 0 255
3.5196 2.03073 3.95096 0 0 0 128 128 0 255
3.46778 0.826841 3.95401 0 0 0 128 128 0 255
3.47179 0.927762 3.95401 0 0 0 128 128 0 255
3.51535 2.0239 3.95401 0 0 0 128 128 0 255
3.46965 0.933851 3.95583 0 0 0 128 128 0 255
3.47322 1.0438 3.95644 0 0 0 128 128 0 255
3.49233 1.56445 3.95766 0 0 0 128 128 0 255
3.48812 1.49856 3.95887 0 0 0 128 128 0 255
3.50822 2.06421 3.9607 0 0 0 128 128 0 255
3.48615 1.70881 3.96678 0 0 0 128 128 0 255
3.49633 2.22481 3.97469 0 0 0 128 128 0 255
3.47481 1.70325 3.9753 0 0 0 128 128 0 255
3.47497 1.70725 3.9753 0 0 0 128 128 0 255
3.43836 0.805993 3.97591 0 0 0 128 128 0 255
3.43602 0.807087 3.97774 0 0 0 128 128 0 255
3.43853 1.03016 3.9826 0 0 0 128 128 0 255
3.45414 1.44287 3.98321 0 0 0 128 128 0 255
3.4734 2.04758 3.98686 0 0 0 128 128 0 255
3.41267 0.83904 3.9966 0 0 0 128 128 0 255
3.43479 1.43563 3.99781 0 0 0 128 128 0 255
3.42955 1.32375 3.99842 0 0 0 128 128 0 255
3.42554 1.34293 4.00207 0 0 0 128 128 0 255
3.42602 1.37493 4.00268 0 0 0 128 128 0 255
3.46045 2.26126 4.00329 0 0 0 128 128 0 255
3.40245 1.00157 4.00937 0 0 0 128 128 0 255
3.41162 1.27242 4.01059 0 0 0 128 128 0 255
3.40698 1.25559 4.01363 0 0 0 128 128 0 255
3.40742 1.26659 4.01363 0 0 0 128 128 0 255
3.38825 0.984124 4.01972 0 0 0 128 128 0 255
3.37932 0.799332 4.02093 0 0 0 128 128 0 255
3.39304 1.46431 4.03067 0 0 0 128 128 0 255
3.39931 1.62219 4.03067 0 0 0 128 128 0 255
3.39939 1.62419 4.03067 0 0 0 128 128 0 255
3.36267 0.900073 4.03675 0 0 0 128 128 0 255
3.38269 1.44371 4.03797 0 0 0 128 128 0 255
3.35799 0.902261 4.0404 0 0 0 128 128 0 255
3.35669 0.909318 4.04162 0 0 0 128 128 0 255
3.35363 0.912442 4.04405 0 0 0 128 128 0 255
3.34768 0.802592 4.04527 0 0 0 128 128 0 255
3.35817 1.22651 4.05014 0 0 0 128 128 0 255
3.33606 0.810059 4.0544 0 0 0 128 128 0 255
3.32603 0.757416 4.06048 0 0 0 128 128 0 255
3.31917 0.764694 4.06596 0 0 0 128 128 0 255
3.31826 0.781743 4.06717 0 0 0 128 128 0 255
3.31639 0.794828 4.069 0 0 0 128 128 0 255
3.31703 0.810815 4.069 0 0 0 128 128 0 255
3.31461 0.789895 4.07022 0 0 0 128 128 0 255
3.33319 1.25753 4.07022 0 0 0 128 128 0 255
3.30434 0.791304 4.07813 0 0 0 128 128 0 255
3.3043 0.850352 4.07995 0 0 0 128 128 0 255
3.303 0.857409 4.08117 0 0 0 128 128 0 255
3.29514 0.759644 4.08421 0 0 0 128 128 0 255
3.29423 0.756678 4.08482 0 0 0 128 128 0 255
3.2827 0.886238 4.09759 0 0 0 128 128 0 255
3.2078 0.880208 4.15479 0 0 0 128 128 0 255
3.20154 0.962521 4.16209 0 0 0 128 128 0 255
