ply
format ascii 1.0
comment VCGLIB generated
element vertex 29
property float x
property float y
property float z
property float nx
property float ny
property float nz
property uchar red
property uchar green
property uchar blue
property uchar alpha
element face 0
property list uchar int vertex_indices
end_header
2.71 1.35474 4.29726 0 0 0 0 0 128 255
2.67251 1.30818 4.30259 0 0 0 0 0 128 255
2.59859 1.20985 4.31132 0 0 0 0 0 128 255
2.60259 1.25588 4.32198 0 0 0 0 0 128 255
2.57546 1.22758 4.32731 0 0 0 0 0 128 255
2.60218 1.2906 4.33167 0 0 0 0 0 128 255
2.55494 1.21623 4.33409 0 0 0 0 0 128 255
2.59857 1.29841 4.33555 0 0 0 0 0 128 255
2.55519 1.23794 4.33991 0 0 0 0 0 128 255
2.60283 1.34313 4.34573 0 0 0 0 0 128 255
2.58615 1.32615 4.34912 0 0 0 0 0 128 255
2.55125 1.27352 4.35154 0 0 0 0 0 128 255
2.67919 1.53436 4.36123 0 0 0 0 0 128 255
2.58873 1.38563 4.36414 0 0 0 0 0 128 255
2.51218 1.2543 4.36511 0 0 0 0 0 128 255
2.69654 1.58086 4.3656 0 0 0 0 0 128 255
2.52674 1.30123 4.37093 0 0 0 0 0 128 255
2.64502 1.52731 4.37577 0 0 0 0 0 128 255
2.66818 1.57166 4.37674 0 0 0 0 0 128 255
2.49664 1.29072 4.38256 0 0 0 0 0 128 255
2.67627 1.63375 4.38983 0 0 0 0 0 128 255
2.61749 1.53374 4.3908 0 0 0 0 0 128 255
2.44276 1.56968 4.48482 0 0 0 0 0 128 255
2.46223 1.62877 4.49161 0 0 0 0 0 128 255
2.48731 1.70307 4.49985 0 0 0 0 0 128 255
2.45024 1.64132 4.50082 0 0 0 0 0 128 255
2.54174 1.83086 4.50857 0 0 0 0 0 128 255
2.51005 1.80515 4.51681 0 0 0 0 0 128 255
2.40625 1.80658 4.56721 0 0 0 0 0 128 255
