ply
format ascii 1.0
comment VCGLIB generated
element vertex 499
property float x
property float y
property float z
property float nx
property float ny
property float nz
property uchar red
property uchar green
property uchar blue
property uchar alpha
element face 0
property list uchar int vertex_indices
end_header
0.733106 0.128032 4.2968 0 0 0 0 128 128 255
0.542415 0.109642 4.29899 0 0 0 0 128 128 255
0.728059 0.145225 4.29943 0 0 0 0 128 128 255
0.716329 0.154216 4.30104 0 0 0 0 128 128 255
0.712389 0.153524 4.30104 0 0 0 0 128 128 255
0.580665 0.140458 4.3025 0 0 0 0 128 128 255
0.575057 0.143491 4.30308 0 0 0 0 128 128 255
0.688929 0.171505 4.30425 0 0 0 0 128 128 255
0.575447 0.158625 4.30527 0 0 0 0 128 128 255
1.71731 0.362981 4.30586 0 0 0 0 128 128 255
1.70828 0.3624 4.30601 0 0 0 0 128 128 255
1.73239 0.369643 4.30644 0 0 0 0 128 128 255
1.6974 0.366518 4.30688 0 0 0 0 128 128 255
1.68837 0.365937 4.30703 0 0 0 0 128 128 255
1.71068 0.371861 4.30732 0 0 0 0 128 128 255
1.70049 0.372081 4.30761 0 0 0 0 128 128 255
1.63351 0.36033 4.30761 0 0 0 0 128 128 255
1.56422 0.350182 4.3079 0 0 0 0 128 128 255
1.55728 0.354992 4.30878 0 0 0 0 128 128 255
1.5512 0.354929 4.30893 0 0 0 0 128 128 255
1.71912 0.387403 4.30937 0 0 0 0 128 128 255
1.704 0.38676 4.30966 0 0 0 0 128 128 255
1.57446 0.367045 4.3101 0 0 0 0 128 128 255
1.48693 0.35671 4.31083 0 0 0 0 128 128 255
1.48102 0.355673 4.31083 0 0 0 0 128 128 255
1.44261 0.348933 4.31083 0 0 0 0 128 128 255
1.39974 0.344425 4.31126 0 0 0 0 128 128 255
1.50693 0.364236 4.31141 0 0 0 0 128 128 255
1.34801 0.338363 4.3117 0 0 0 0 128 128 255
1.05351 0.286693 4.3117 0 0 0 0 128 128 255
1.45323 0.357828 4.31185 0 0 0 0 128 128 255
1.26018 0.323957 4.31185 0 0 0 0 128 128 255
1.71604 0.404942 4.312 0 0 0 0 128 128 255
1.3603 0.343532 4.31214 0 0 0 0 128 128 255
1.05775 0.291454 4.31229 0 0 0 0 128 128 255
1.3767 0.348419 4.31243 0 0 0 0 128 128 255
1.34716 0.343235 4.31243 0 0 0 0 128 128 255
1.28806 0.332866 4.31243 0 0 0 0 128 128 255
1.05561 0.292083 4.31243 0 0 0 0 128 128 255
1.45237 0.362699 4.31258 0 0 0 0 128 128 255
0.528958 0.203701 4.31302 0 0 0 0 128 128 255
0.531742 0.205194 4.31316 0 0 0 0 128 128 255
1.57562 0.389345 4.31331 0 0 0 0 128 128 255
1.6247 0.39896 4.31346 0 0 0 0 128 128 255
1.62877 0.404696 4.31419 0 0 0 0 128 128 255
1.62565 0.405152 4.31433 0 0 0 0 128 128 255
1.45358 0.378981 4.31492 0 0 0 0 128 128 255
1.56565 0.405675 4.31594 0 0 0 0 128 128 255
1.17167 0.336551 4.31594 0 0 0 0 128 128 255
1.17069 0.336378 4.31594 0 0 0 0 128 128 255
1.26802 0.354461 4.31609 0 0 0 0 128 128 255
1.68744 0.429052 4.31623 0 0 0 0 128 128 255
1.19004 0.341783 4.31623 0 0 0 0 128 128 255
1.47255 0.392354 4.31638 0 0 0 0 128 128 255
1.27753 0.358138 4.31638 0 0 0 0 128 128 255
1.21826 0.348744 4.31652 0 0 0 0 128 128 255
1.10007 0.328006 4.31652 0 0 0 0 128 128 255
1.28276 0.363072 4.31696 0 0 0 0 128 128 255
1.68839 0.435244 4.31711 0 0 0 0 128 128 255
1.6892 0.436391 4.31726 0 0 0 0 128 128 255
1.60351 0.421356 4.31726 0 0 0 0 128 128 255
0.942436 0.306376 4.3174 0 0 0 0 128 128 255
1.2169 0.356539 4.31769 0 0 0 0 128 128 255
1.70329 0.44288 4.31784 0 0 0 0 128 128 255
1.56835 0.419206 4.31784 0 0 0 0 128 128 255
1.47774 0.403307 4.31784 0 0 0 0 128 128 255
1.22525 0.361017 4.31813 0 0 0 0 128 128 255
1.19454 0.356634 4.31828 0 0 0 0 128 128 255
1.48887 0.409278 4.31842 0 0 0 0 128 128 255
1.09339 0.342905 4.31886 0 0 0 0 128 128 255
1.54827 0.423717 4.31901 0 0 0 0 128 128 255
1.46948 0.409893 4.31901 0 0 0 0 128 128 255
1.37672 0.394623 4.31915 0 0 0 0 128 128 255
1.44729 0.409014 4.31945 0 0 0 0 128 128 255
1.21878 0.368922 4.31945 0 0 0 0 128 128 255
1.15164 0.358146 4.31959 0 0 0 0 128 128 255
1.56104 0.431983 4.31988 0 0 0 0 128 128 255
1.37389 0.399149 4.31988 0 0 0 0 128 128 255
1.64754 0.448165 4.32003 0 0 0 0 128 128 255
1.48747 0.423093 4.32047 0 0 0 0 128 128 255
0.943429 0.329651 4.32076 0 0 0 0 128 128 255
1.50665 0.429472 4.32091 0 0 0 0 128 128 255
1.11464 0.360694 4.32091 0 0 0 0 128 128 255
1.49745 0.429866 4.3212 0 0 0 0 128 128 255
1.37219 0.408893 4.32135 0 0 0 0 128 128 255
0.995932 0.34288 4.32135 0 0 0 0 128 128 255
1.45377 0.424211 4.32149 0 0 0 0 128 128 255
1.45325 0.427134 4.32193 0 0 0 0 128 128 255
1.29155 0.399768 4.32208 0 0 0 0 128 128 255
1.40152 0.421071 4.32237 0 0 0 0 128 128 255
1.2334 0.395591 4.32295 0 0 0 0 128 128 255
1.46649 0.438495 4.32325 0 0 0 0 128 128 255
1.05264 0.36689 4.32339 0 0 0 0 128 128 255
1.29575 0.410548 4.32354 0 0 0 0 128 128 255
1.23139 0.401265 4.32383 0 0 0 0 128 128 255
1.18509 0.393143 4.32383 0 0 0 0 128 128 255
0.949517 0.352816 4.32398 0 0 0 0 128 128 255
1.18013 0.398298 4.32471 0 0 0 0 128 128 255
1.23477 0.410898 4.32514 0 0 0 0 128 128 255
1.1144 0.396809 4.32617 0 0 0 0 128 128 255
0.949566 0.369899 4.32646 0 0 0 0 128 128 255
1.09598 0.397596 4.32675 0 0 0 0 128 128 255
0.409086 0.285116 4.32792 0 0 0 0 128 128 255
1.33032 0.450763 4.32851 0 0 0 0 128 128 255
1.34737 0.457771 4.32909 0 0 0 0 128 128 255
1.34505 0.459374 4.32938 0 0 0 0 128 128 255
0.404421 0.294342 4.32938 0 0 0 0 128 128 255
0.403094 0.296118 4.32967 0 0 0 0 128 128 255
1.0461 0.409936 4.32982 0 0 0 0 128 128 255
0.983705 0.400998 4.33011 0 0 0 0 128 128 255
1.34138 0.491874 4.3342 0 0 0 0 128 128 255
1.21488 0.483742 4.33625 0 0 0 0 128 128 255
1.17181 0.486228 4.33771 0 0 0 0 128 128 255
1.56134 0.557583 4.33815 0 0 0 0 128 128 255
1.40062 0.53039 4.33829 0 0 0 0 128 128 255
1.15845 0.492923 4.33902 0 0 0 0 128 128 255
1.15746 0.492751 4.33902 0 0 0 0 128 128 255
1.54995 0.564624 4.33946 0 0 0 0 128 128 255
1.48888 0.55391 4.33946 0 0 0 0 128 128 255
1.42387 0.542505 4.33946 0 0 0 0 128 128 255
1.53303 0.562661 4.33961 0 0 0 0 128 128 255
1.54845 0.567375 4.3399 0 0 0 0 128 128 255
1.07173 0.483735 4.3399 0 0 0 0 128 128 255
1.08008 0.488214 4.34034 0 0 0 0 128 128 255
1.50935 0.564533 4.34049 0 0 0 0 128 128 255
1.56434 0.575184 4.34063 0 0 0 0 128 128 255
1.39887 0.546153 4.34063 0 0 0 0 128 128 255
1.08514 0.494123 4.34107 0 0 0 0 128 128 255
1.42658 0.556036 4.34136 0 0 0 0 128 128 255
1.0582 0.491406 4.34136 0 0 0 0 128 128 255
1.04835 0.489677 4.34136 0 0 0 0 128 128 255
1.33874 0.54163 4.34151 0 0 0 0 128 128 255
1.54032 0.579005 4.3418 0 0 0 0 128 128 255
1.05473 0.49381 4.3418 0 0 0 0 128 128 255
1.42392 0.559588 4.34195 0 0 0 0 128 128 255
1.28701 0.535568 4.34195 0 0 0 0 128 128 255
1.26534 0.531766 4.34195 0 0 0 0 128 128 255
1.54786 0.582336 4.34209 0 0 0 0 128 128 255
1.52619 0.578534 4.34209 0 0 0 0 128 128 255
1.06129 0.496969 4.34209 0 0 0 0 128 128 255
1.15058 0.514643 4.34239 0 0 0 0 128 128 255
1.29978 0.543833 4.34282 0 0 0 0 128 128 255
1.42435 0.568703 4.34326 0 0 0 0 128 128 255
1.53381 0.592929 4.34399 0 0 0 0 128 128 255
1.34273 0.559405 4.34399 0 0 0 0 128 128 255
0.525692 0.419069 4.34443 0 0 0 0 128 128 255
1.08399 0.518026 4.34458 0 0 0 0 128 128 255
1.33991 0.563931 4.34472 0 0 0 0 128 128 255
1.20184 0.540712 4.34487 0 0 0 0 128 128 255
1.27948 0.555338 4.34502 0 0 0 0 128 128 255
1.24976 0.551129 4.34516 0 0 0 0 128 128 255
1.42098 0.582172 4.34531 0 0 0 0 128 128 255
1.24056 0.551522 4.34545 0 0 0 0 128 128 255
1.38877 0.580539 4.34589 0 0 0 0 128 128 255
1.46427 0.595794 4.34618 0 0 0 0 128 128 255
1.20998 0.552184 4.34633 0 0 0 0 128 128 255
1.09179 0.531447 4.34633 0 0 0 0 128 128 255
1.25217 0.560589 4.34648 0 0 0 0 128 128 255
1.55125 0.615072 4.34677 0 0 0 0 128 128 255
1.41529 0.597243 4.34764 0 0 0 0 128 128 255
1.55429 0.626654 4.34838 0 0 0 0 128 128 255
1.49781 0.618753 4.34867 0 0 0 0 128 128 255
1.41704 0.604582 4.34867 0 0 0 0 128 128 255
1.27979 0.582511 4.34896 0 0 0 0 128 128 255
1.11727 0.553997 4.34896 0 0 0 0 128 128 255
0.443565 0.435796 4.34896 0 0 0 0 128 128 255
1.12135 0.559733 4.34969 0 0 0 0 128 128 255
1.29581 0.595365 4.35042 0 0 0 0 128 128 255
1.45126 0.623643 4.35057 0 0 0 0 128 128 255
1.1034 0.563616 4.35071 0 0 0 0 128 128 255
1.09651 0.562407 4.35071 0 0 0 0 128 128 255
0.447896 0.451622 4.35115 0 0 0 0 128 128 255
1.40493 0.62154 4.35144 0 0 0 0 128 128 255
1.26785 0.598495 4.35159 0 0 0 0 128 128 255
1.28836 0.603098 4.35174 0 0 0 0 128 128 255
1.25715 0.601638 4.35232 0 0 0 0 128 128 255
1.43624 0.634064 4.35247 0 0 0 0 128 128 255
1.19886 0.592417 4.35247 0 0 0 0 128 128 255
1.33166 0.616721 4.35261 0 0 0 0 128 128 255
1.10118 0.576283 4.35261 0 0 0 0 128 128 255
1.3323 0.618842 4.3529 0 0 0 0 128 128 255
1.19882 0.598436 4.35334 0 0 0 0 128 128 255
1.2807 0.617824 4.35407 0 0 0 0 128 128 255
1.21223 0.608823 4.35451 0 0 0 0 128 128 255
1.10864 0.591653 4.35466 0 0 0 0 128 128 255
1.10436 0.59291 4.35495 0 0 0 0 128 128 255
1.61714 0.714014 4.35948 0 0 0 0 128 128 255
1.54957 0.717224 4.36167 0 0 0 0 128 128 255
1.51591 0.712323 4.36182 0 0 0 0 128 128 255
1.66841 0.740083 4.36196 0 0 0 0 128 128 255
1.66348 0.739219 4.36196 0 0 0 0 128 128 255
1.56974 0.723776 4.36211 0 0 0 0 128 128 255
1.64935 0.738748 4.36226 0 0 0 0 128 128 255
1.46662 0.709702 4.36269 0 0 0 0 128 128 255
1.62272 0.740101 4.36313 0 0 0 0 128 128 255
1.51831 0.721784 4.36313 0 0 0 0 128 128 255
0.477216 0.539125 4.36313 0 0 0 0 128 128 255
1.64649 0.749294 4.36386 0 0 0 0 128 128 255
1.51318 0.727913 4.36415 0 0 0 0 128 128 255
1.38513 0.705448 4.36415 0 0 0 0 128 128 255
1.61724 0.74818 4.36445 0 0 0 0 128 128 255
1.57583 0.746941 4.36532 0 0 0 0 128 128 255
1.34206 0.707934 4.36562 0 0 0 0 128 128 255
0.490541 0.56155 4.36605 0 0 0 0 128 128 255
0.487586 0.561032 4.36605 0 0 0 0 128 128 255
1.29392 0.704511 4.36635 0 0 0 0 128 128 255
0.473113 0.56251 4.36664 0 0 0 0 128 128 255
1.37122 0.721086 4.36678 0 0 0 0 128 128 255
1.61498 0.766866 4.36722 0 0 0 0 128 128 255
1.26138 0.704827 4.36722 0 0 0 0 128 128 255
1.1422 0.683918 4.36722 0 0 0 0 128 128 255
1.21984 0.698544 4.36737 0 0 0 0 128 128 255
1.13809 0.684201 4.36737 0 0 0 0 128 128 255
1.50531 0.749633 4.36752 0 0 0 0 128 128 255
1.24789 0.706479 4.36781 0 0 0 0 128 128 255
1.41516 0.73683 4.36795 0 0 0 0 128 128 255
1.33144 0.722142 4.36795 0 0 0 0 128 128 255
1.18173 0.695875 4.36795 0 0 0 0 128 128 255
1.34703 0.725881 4.3681 0 0 0 0 128 128 255
1.39692 0.736643 4.36839 0 0 0 0 128 128 255
1.27851 0.722899 4.36941 0 0 0 0 128 128 255
0.464769 0.581134 4.36956 0 0 0 0 128 128 255
1.3747 0.741783 4.36971 0 0 0 0 128 128 255
1.41294 0.749497 4.36985 0 0 0 0 128 128 255
0.483955 0.587513 4.37 0 0 0 0 128 128 255
1.3407 0.738831 4.37015 0 0 0 0 128 128 255
1.21462 0.716712 4.37015 0 0 0 0 128 128 255
1.43114 0.755704 4.37029 0 0 0 0 128 128 255
1.33855 0.73946 4.37029 0 0 0 0 128 128 255
1.32969 0.737905 4.37029 0 0 0 0 128 128 255
0.479673 0.588771 4.37029 0 0 0 0 128 128 255
1.17784 0.712267 4.37044 0 0 0 0 128 128 255
1.13844 0.705354 4.37044 0 0 0 0 128 128 255
1.15779 0.710759 4.37073 0 0 0 0 128 128 255
0.493935 0.594286 4.37073 0 0 0 0 128 128 255
1.27201 0.736824 4.37161 0 0 0 0 128 128 255
1.31616 0.745575 4.37175 0 0 0 0 128 128 255
1.20683 0.726393 4.37175 0 0 0 0 128 128 255
1.08007 0.708171 4.37234 0 0 0 0 128 128 255
1.17673 0.730151 4.37307 0 0 0 0 128 128 255
1.13223 0.723349 4.37321 0 0 0 0 128 128 255
0.945907 0.691663 4.37336 0 0 0 0 128 128 255
0.931605 0.692166 4.3738 0 0 0 0 128 128 255
1.65422 0.820957 4.37409 0 0 0 0 128 128 255
0.931735 0.697211 4.37453 0 0 0 0 128 128 255
0.468806 0.615991 4.37453 0 0 0 0 128 128 255
1.17352 0.742645 4.37497 0 0 0 0 128 128 255
1.72475 0.841367 4.37526 0 0 0 0 128 128 255
1.03314 0.72103 4.3754 0 0 0 0 128 128 255
0.946127 0.707771 4.3757 0 0 0 0 128 128 255
0.936277 0.706043 4.3757 0 0 0 0 128 128 255
1.69893 0.843867 4.37628 0 0 0 0 128 128 255
1.1247 0.74312 4.37628 0 0 0 0 128 128 255
0.99255 0.720938 4.37643 0 0 0 0 128 128 255
0.928528 0.709705 4.37643 0 0 0 0 128 128 255
1.07559 0.739524 4.37701 0 0 0 0 128 128 255
0.942276 0.718144 4.3773 0 0 0 0 128 128 255
0.924376 0.716008 4.37745 0 0 0 0 128 128 255
1.69722 0.853611 4.37774 0 0 0 0 128 128 255
0.926989 0.718475 4.37774 0 0 0 0 128 128 255
1.67735 0.851129 4.37789 0 0 0 0 128 128 255
0.950115 0.725545 4.37818 0 0 0 0 128 128 255
0.924978 0.724148 4.37862 0 0 0 0 128 128 255
1.65432 0.855123 4.37906 0 0 0 0 128 128 255
1.58045 0.842162 4.37906 0 0 0 0 128 128 255
1.65496 0.857244 4.37935 0 0 0 0 128 128 255
1.52657 0.836728 4.37964 0 0 0 0 128 128 255
1.60683 0.853821 4.38008 0 0 0 0 128 128 255
1.65393 0.863091 4.38023 0 0 0 0 128 128 255
1.47549 0.832787 4.38037 0 0 0 0 128 128 255
1.47712 0.835081 4.38066 0 0 0 0 128 128 255
1.51305 0.844398 4.3811 0 0 0 0 128 128 255
1.60298 0.864194 4.38169 0 0 0 0 128 128 255
1.41155 0.832618 4.38198 0 0 0 0 128 128 255
1.60131 0.867919 4.38227 0 0 0 0 128 128 255
1.44766 0.840961 4.38227 0 0 0 0 128 128 255
1.51198 0.856264 4.38286 0 0 0 0 128 128 255
1.50046 0.85826 4.38344 0 0 0 0 128 128 255
1.45383 0.852087 4.38373 0 0 0 0 128 128 255
1.40753 0.843965 4.38373 0 0 0 0 128 128 255
1.49288 0.860948 4.38403 0 0 0 0 128 128 255
1.3806 0.841248 4.38403 0 0 0 0 128 128 255
1.33529 0.833299 4.38403 0 0 0 0 128 128 255
1.25435 0.820103 4.38417 0 0 0 0 128 128 255
1.25418 0.821077 4.38432 0 0 0 0 128 128 255
0.747743 0.733228 4.38446 0 0 0 0 128 128 255
0.741662 0.733166 4.38461 0 0 0 0 128 128 255
1.24069 0.822728 4.3849 0 0 0 0 128 128 255
1.18716 0.815345 4.38519 0 0 0 0 128 128 255
0.66578 0.725878 4.38549 0 0 0 0 128 128 255
1.33127 0.844646 4.38578 0 0 0 0 128 128 255
1.25705 0.833634 4.38607 0 0 0 0 128 128 255
1.14032 0.816166 4.38651 0 0 0 0 128 128 255
0.72959 0.744104 4.38651 0 0 0 0 128 128 255
0.646854 0.729589 4.38651 0 0 0 0 128 128 255
1.13916 0.816967 4.38666 0 0 0 0 128 128 255
1.09236 0.811768 4.38709 0 0 0 0 128 128 255
1.21907 0.836009 4.38739 0 0 0 0 128 128 255
1.0682 0.810544 4.38753 0 0 0 0 128 128 255
1.04259 0.806051 4.38753 0 0 0 0 128 128 255
0.724112 0.752183 4.38782 0 0 0 0 128 128 255
1.16897 0.832241 4.38812 0 0 0 0 128 128 255
1.16781 0.833042 4.38826 0 0 0 0 128 128 255
1.04354 0.812243 4.38841 0 0 0 0 128 128 255
1.21672 0.843632 4.38855 0 0 0 0 128 128 255
0.737047 0.759474 4.38855 0 0 0 0 128 128 255
0.668914 0.748524 4.3887 0 0 0 0 128 128 255
1.11493 0.827781 4.38885 0 0 0 0 128 128 255
1.1205 0.830767 4.38914 0 0 0 0 128 128 255
0.99622 0.809967 4.38929 0 0 0 0 128 128 255
0.746855 0.767221 4.38943 0 0 0 0 128 128 255
1.10307 0.831727 4.38972 0 0 0 0 128 128 255
0.994722 0.812718 4.38972 0 0 0 0 128 128 255
0.677396 0.758048 4.38987 0 0 0 0 128 128 255
0.705788 0.764033 4.39002 0 0 0 0 128 128 255
1.07185 0.830267 4.39031 0 0 0 0 128 128 255
0.7102 0.767821 4.39045 0 0 0 0 128 128 255
1.02504 0.825068 4.39075 0 0 0 0 128 128 255
1.02406 0.824895 4.39075 0 0 0 0 128 128 255
0.660611 0.761129 4.39075 0 0 0 0 128 128 255
1.07228 0.839382 4.39162 0 0 0 0 128 128 255
1.01104 0.829642 4.39177 0 0 0 0 128 128 255
0.963252 0.824271 4.39221 0 0 0 0 128 128 255
0.716501 0.783992 4.39265 0 0 0 0 128 128 255
0.917261 0.820219 4.39279 0 0 0 0 128 128 255
0.879832 0.813652 4.39279 0 0 0 0 128 128 255
1.02642 0.840375 4.39294 0 0 0 0 128 128 255
0.971262 0.830698 4.39294 0 0 0 0 128 128 255
0.87752 0.815256 4.39308 0 0 0 0 128 128 255
0.714832 0.787717 4.39323 0 0 0 0 128 128 255
0.972719 0.833967 4.39338 0 0 0 0 128 128 255
0.874867 0.818807 4.39367 0 0 0 0 128 128 255
0.919833 0.828705 4.39396 0 0 0 0 128 128 255
0.883218 0.823286 4.39411 0 0 0 0 128 128 255
0.962829 0.838258 4.39425 0 0 0 0 128 128 255
0.873027 0.823507 4.3944 0 0 0 0 128 128 255
0.711494 0.795166 4.3944 0 0 0 0 128 128 255
0.711323 0.79614 4.39455 0 0 0 0 128 128 255
0.920777 0.834897 4.39484 0 0 0 0 128 128 255
0.526542 0.778787 4.39674 0 0 0 0 128 128 255
0.716769 0.817183 4.39747 0 0 0 0 128 128 255
0.500298 0.795274 4.3998 0 0 0 0 128 128 255
0.715963 0.839138 4.40068 0 0 0 0 128 128 255
0.548821 0.813831 4.40127 0 0 0 0 128 128 255
0.534519 0.814335 4.4017 0 0 0 0 128 128 255
0.527453 0.8141 4.40185 0 0 0 0 128 128 255
0.527282 0.815074 4.402 0 0 0 0 128 128 255
0.519403 0.813692 4.402 0 0 0 0 128 128 255
0.528097 0.816221 4.40214 0 0 0 0 128 128 255
0.530026 0.822586 4.40302 0 0 0 0 128 128 255
0.881142 0.887202 4.40346 0 0 0 0 128 128 255
0.872578 0.889717 4.40404 0 0 0 0 128 128 255
0.876266 0.903421 4.40594 0 0 0 0 128 128 255
0.538426 0.844147 4.40594 0 0 0 0 128 128 255
0.928941 0.915676 4.40638 0 0 0 0 128 128 255
0.884447 0.908874 4.40653 0 0 0 0 128 128 255
0.88706 0.911341 4.40682 0 0 0 0 128 128 255
0.923332 0.918709 4.40696 0 0 0 0 128 128 255
0.924748 0.927997 4.40828 0 0 0 0 128 128 255
1.00963 0.964986 4.41149 0 0 0 0 128 128 255
0.933026 0.967616 4.41383 0 0 0 0 128 128 255
0.56042 0.921326 4.41661 0 0 0 0 128 128 255
0.79584 1.00883 4.42333 0 0 0 0 128 128 255
0.892195 1.02674 4.42347 0 0 0 0 128 128 255
0.813357 1.01894 4.42435 0 0 0 0 128 128 255
0.519157 0.971336 4.42493 0 0 0 0 128 128 255
0.810533 1.02346 4.42508 0 0 0 0 128 128 255
0.805567 1.02862 4.42596 0 0 0 0 128 128 255
0.805225 1.03057 4.42625 0 0 0 0 128 128 255
0.790451 1.02797 4.42625 0 0 0 0 128 128 255
0.825917 1.0573 4.42961 0 0 0 0 128 128 255
0.790117 1.05302 4.4299 0 0 0 0 128 128 255
0.795343 1.05796 4.43049 0 0 0 0 128 128 255
0.827334 1.06658 4.43092 0 0 0 0 128 128 255
1.24213 1.14438 4.43166 0 0 0 0 128 128 255
0.830419 1.07215 4.43166 0 0 0 0 128 128 255
0.826479 1.07146 4.43166 0 0 0 0 128 128 255
1.25476 1.1476 4.4318 0 0 0 0 128 128 255
0.826137 1.07341 4.43195 0 0 0 0 128 128 255
0.800528 1.06891 4.43195 0 0 0 0 128 128 255
0.519645 1.02064 4.43209 0 0 0 0 128 128 255
0.827252 1.07862 4.43268 0 0 0 0 128 128 255
1.08891 1.12654 4.43297 0 0 0 0 128 128 255
1.06574 1.12549 4.43341 0 0 0 0 128 128 255
0.833121 1.08568 4.43356 0 0 0 0 128 128 255
1.05144 1.12599 4.43385 0 0 0 0 128 128 255
1.09165 1.13405 4.43399 0 0 0 0 128 128 255
0.40578 1.01572 4.43429 0 0 0 0 128 128 255
0.517382 1.03932 4.43487 0 0 0 0 128 128 255
1.07157 1.13856 4.43516 0 0 0 0 128 128 255
0.404584 1.02255 4.43531 0 0 0 0 128 128 255
0.829743 1.09915 4.4356 0 0 0 0 128 128 255
1.05414 1.13952 4.43575 0 0 0 0 128 128 255
1.2746 1.17921 4.43589 0 0 0 0 128 128 255
0.51139 1.05032 4.43662 0 0 0 0 128 128 255
1.15076 1.16752 4.43735 0 0 0 0 128 128 255
1.25285 1.18744 4.43765 0 0 0 0 128 128 255
1.01415 1.14757 4.43794 0 0 0 0 128 128 255
0.505871 1.06442 4.43881 0 0 0 0 128 128 255
0.504202 1.06815 4.4394 0 0 0 0 128 128 255
0.498594 1.07118 4.43998 0 0 0 0 128 128 255
0.835709 1.14037 4.44144 0 0 0 0 128 128 255
0.492603 1.08218 4.44174 0 0 0 0 128 128 255
1.00739 1.17451 4.44203 0 0 0 0 128 128 255
1.05253 1.18343 4.44218 0 0 0 0 128 128 255
1.20611 1.24553 4.44729 0 0 0 0 128 128 255
0.164457 1.07181 4.4486 0 0 0 0 128 128 255
1.21832 1.26274 4.44948 0 0 0 0 128 128 255
0.932942 1.22271 4.45094 0 0 0 0 128 128 255
0.903051 1.21948 4.45123 0 0 0 0 128 128 255
0.392161 1.13386 4.45182 0 0 0 0 128 128 255
1.24458 1.29246 4.45313 0 0 0 0 128 128 255
1.15987 1.27759 4.45313 0 0 0 0 128 128 255
1.16133 1.28086 4.45357 0 0 0 0 128 128 255
1.02571 1.26109 4.45416 0 0 0 0 128 128 255
0.981856 1.2564 4.45459 0 0 0 0 128 128 255
1.01599 1.2644 4.45489 0 0 0 0 128 128 255
1.01068 1.27151 4.45606 0 0 0 0 128 128 255
1.02987 1.27788 4.45649 0 0 0 0 128 128 255
1.04117 1.28288 4.45693 0 0 0 0 128 128 255
0.998649 1.27643 4.45708 0 0 0 0 128 128 255
1.03 1.28293 4.45722 0 0 0 0 128 128 255
1.03342 1.28654 4.45766 0 0 0 0 128 128 255
0.32721 1.16264 4.45766 0 0 0 0 128 128 255
1.10464 1.30306 4.45825 0 0 0 0 128 128 255
1.20691 1.322 4.45839 0 0 0 0 128 128 255
1.0974 1.3038 4.45854 0 0 0 0 128 128 255
1.04808 1.30719 4.46029 0 0 0 0 128 128 255
1.14212 1.32671 4.46073 0 0 0 0 128 128 255
1.13505 1.32647 4.46088 0 0 0 0 128 128 255
1.10765 1.34376 4.46409 0 0 0 0 128 128 255
0.516809 1.24512 4.46482 0 0 0 0 128 128 255
1.28538 1.38398 4.46541 0 0 0 0 128 128 255
1.1107 1.35534 4.4657 0 0 0 0 128 128 255
0.500497 1.2513 4.46614 0 0 0 0 128 128 255
1.11434 1.37507 4.46847 0 0 0 0 128 128 255
1.11644 1.38046 4.4692 0 0 0 0 128 128 255
1.10462 1.37838 4.4692 0 0 0 0 128 128 255
1.11298 1.38286 4.46964 0 0 0 0 128 128 255
1.04943 1.37472 4.47008 0 0 0 0 128 128 255
1.20518 1.40707 4.47081 0 0 0 0 128 128 255
1.08206 1.38547 4.47081 0 0 0 0 128 128 255
1.16082 1.40532 4.47169 0 0 0 0 128 128 255
1.13127 1.40013 4.47169 0 0 0 0 128 128 255
0.987251 1.38189 4.47271 0 0 0 0 128 128 255
1.21885 1.42755 4.47344 0 0 0 0 128 128 255
1.01702 1.40319 4.47505 0 0 0 0 128 128 255
1.21461 1.44589 4.47622 0 0 0 0 128 128 255
1.0291 1.41535 4.47651 0 0 0 0 128 128 255
0.506137 1.34067 4.47899 0 0 0 0 128 128 255
1.0041 1.4421 4.48104 0 0 0 0 128 128 255
1.04594 1.45245 4.48148 0 0 0 0 128 128 255
1.20829 1.48194 4.48162 0 0 0 0 128 128 255
1.05511 1.45808 4.48206 0 0 0 0 128 128 255
0.983335 1.45051 4.48279 0 0 0 0 128 128 255
0.98458 1.46077 4.48425 0 0 0 0 128 128 255
0.303805 1.34234 4.4844 0 0 0 0 128 128 255
1.205 1.50647 4.48528 0 0 0 0 128 128 255
0.98861 1.47253 4.48586 0 0 0 0 128 128 255
0.303895 1.3534 4.48601 0 0 0 0 128 128 255
1.00442 1.49237 4.48834 0 0 0 0 128 128 255
1.00421 1.49937 4.48937 0 0 0 0 128 128 255
1.16977 1.53946 4.49097 0 0 0 0 128 128 255
0.996204 1.51604 4.492 0 0 0 0 128 128 255
0.80154 1.52608 4.49843 0 0 0 0 128 128 255
0.773579 1.52921 4.49959 0 0 0 0 128 128 255
0.761767 1.55024 4.50295 0 0 0 0 128 128 255
0.773847 1.5624 4.50442 0 0 0 0 128 128 255
0.756126 1.58239 4.50778 0 0 0 0 128 128 255
0.766789 1.58527 4.50792 0 0 0 0 128 128 255
0.485157 1.59913 4.51713 0 0 0 0 128 128 255
0.417325 1.59226 4.51786 0 0 0 0 128 128 255
0.700609 1.64999 4.51903 0 0 0 0 128 128 255
0.376648 1.6042 4.52063 0 0 0 0 128 128 255
0.689009 1.66403 4.52136 0 0 0 0 128 128 255
0.428981 1.61841 4.52136 0 0 0 0 128 128 255
0.483927 1.63508 4.52239 0 0 0 0 128 128 255
0.442388 1.62879 4.52253 0 0 0 0 128 128 255
1.22873 1.78785 4.5256 0 0 0 0 128 128 255
0.670694 1.69898 4.52692 0 0 0 0 128 128 255
1.19516 1.79401 4.52735 0 0 0 0 128 128 255
1.22776 1.81078 4.52896 0 0 0 0 128 128 255
1.17341 1.80225 4.52911 0 0 0 0 128 128 255
0.697686 1.74188 4.53247 0 0 0 0 128 128 255
1.20931 1.84068 4.53378 0 0 0 0 128 128 255
1.17005 1.86192 4.53787 0 0 0 0 128 128 255
1.22645 1.88186 4.53934 0 0 0 0 128 128 255
0.898934 1.82741 4.53977 0 0 0 0 128 128 255
1.15447 1.88128 4.54109 0 0 0 0 128 128 255
1.13032 1.88006 4.54153 0 0 0 0 128 128 255
1.14197 1.88311 4.54167 0 0 0 0 128 128 255
1.15079 1.89068 4.54255 0 0 0 0 128 128 255
0.954742 1.86231 4.54343 0 0 0 0 128 128 255
0.953757 1.86214 4.54343 0 0 0 0 128 128 255
1.11953 1.89524 4.54401 0 0 0 0 128 128 255
0.647566 1.81344 4.54416 0 0 0 0 128 128 255
0.993888 1.88224 4.54533 0 0 0 0 128 128 255
0.484071 1.80785 4.54752 0 0 0 0 128 128 255
0.82493 1.93093 4.55672 0 0 0 0 128 128 255
