ply
format ascii 1.0
comment VCGLIB generated
element vertex 17
property float x
property float y
property float z
property float nx
property float ny
property float nz
property uchar red
property uchar green
property uchar blue
property uchar alpha
element face 0
property list uchar int vertex_indices
end_header
1.60198 0.429288 4.30448 0 0 0 255 0 255 255
1.61756 0.440314 4.30659 0 0 0 255 0 255 255
1.49509 0.551094 4.32527 0 0 0 255 0 255 255
1.52002 0.724273 4.35646 0 0 0 255 0 255 255
1.51219 0.727633 4.35699 0 0 0 255 0 255 255
1.66799 0.73933 4.36051 0 0 0 255 0 255 255
1.61532 0.746969 4.36139 0 0 0 255 0 255 255
1.57737 0.748921 4.36139 0 0 0 255 0 255 255
1.64543 0.748377 4.36192 0 0 0 255 0 255 255
1.61648 0.769579 4.36544 0 0 0 255 0 255 255
1.65311 0.819934 4.37478 0 0 0 255 0 255 255
1.72319 0.838999 4.37883 0 0 0 255 0 255 255
1.65329 0.862308 4.38236 0 0 0 255 0 255 255
1.65354 0.867224 4.38324 0 0 0 255 0 255 255
1.8826 0.862339 4.38447 0 0 0 255 0 255 255
1.87076 0.865905 4.385 0 0 0 255 0 255 255
1.89703 0.870467 4.38606 0 0 0 255 0 255 255
