ply
format ascii 1.0
comment VCGLIB generated
element vertex 566
property float x
property float y
property float z
property float nx
property float ny
property float nz
property uchar red
property uchar green
property uchar blue
property uchar alpha
element face 0
property list uchar int vertex_indices
end_header
4.14945 0.613064 3.37361 0 0 0 0 255 255 255
4.14735 0.628231 3.37617 0 0 0 0 255 255 255
4.14588 0.641352 3.37809 0 0 0 0 255 255 255
4.14263 0.650581 3.38129 0 0 0 0 255 255 255
4.10758 0.847247 3.42096 0 0 0 0 255 255 255
4.10296 0.81147 3.42288 0 0 0 0 255 255 255
4.09305 0.93236 3.4376 0 0 0 0 255 255 255
4.08605 0.990932 3.44656 0 0 0 0 255 255 255
4.06255 0.650739 3.44784 0 0 0 0 255 255 255
4.07957 0.926216 3.44848 0 0 0 0 255 255 255
4.05527 0.657222 3.45424 0 0 0 0 255 255 255
4.05233 0.659416 3.4568 0 0 0 0 255 255 255
4.03115 0.856189 3.48495 0 0 0 0 255 255 255
4.0434 1.17707 3.49199 0 0 0 0 255 255 255
4.04332 1.27127 3.49711 0 0 0 0 255 255 255
4.03183 1.17681 3.50159 0 0 0 0 255 255 255
3.97053 1.02645 3.54447 0 0 0 0 255 255 255
3.96867 1.02156 3.54574 0 0 0 0 255 255 255
3.96874 1.02255 3.54574 0 0 0 0 255 255 255
4.02113 1.86994 3.54766 0 0 0 0 255 255 255
3.93181 0.533919 3.55022 0 0 0 0 255 255 255
3.96232 1.10213 3.55534 0 0 0 0 255 255 255
3.91691 0.52987 3.56238 0 0 0 0 255 255 255
3.95395 1.10368 3.56238 0 0 0 0 255 255 255
3.94127 1.03836 3.56942 0 0 0 0 255 255 255
3.93274 0.989805 3.5739 0 0 0 0 255 255 255
3.93384 1.00677 3.5739 0 0 0 0 255 255 255
3.93326 1.00981 3.57454 0 0 0 0 255 255 255
3.9325 1.02189 3.57582 0 0 0 0 255 255 255
3.95685 1.3991 3.57582 0 0 0 0 255 255 255
3.93831 1.12373 3.57646 0 0 0 0 255 255 255
3.9941 1.99995 3.5771 0 0 0 0 255 255 255
3.99341 2.02505 3.57902 0 0 0 0 255 255 255
3.92762 1.10137 3.58414 0 0 0 0 255 255 255
3.92303 1.11369 3.58862 0 0 0 0 255 255 255
3.91735 1.13309 3.59438 0 0 0 0 255 255 255
3.90866 1.0104 3.59502 0 0 0 0 255 255 255
3.91173 1.14147 3.5995 0 0 0 0 255 255 255
3.90987 1.12456 3.60014 0 0 0 0 255 255 255
3.9663 1.99874 3.60014 0 0 0 0 255 255 255
3.95086 1.79531 3.60206 0 0 0 0 255 255 255
3.90011 1.033 3.60334 0 0 0 0 255 255 255
3.86928 0.60309 3.6059 0 0 0 0 255 255 255
3.89817 1.11028 3.6091 0 0 0 0 255 255 255
3.8811 0.977105 3.61614 0 0 0 0 255 255 255
3.8779 0.975308 3.6187 0 0 0 0 255 255 255
3.86334 1.10752 3.63789 0 0 0 0 255 255 255
3.85962 1.08571 3.63981 0 0 0 0 255 255 255
3.86059 1.10068 3.63981 0 0 0 0 255 255 255
3.92976 2.27968 3.64557 0 0 0 0 255 255 255
3.89642 1.82288 3.64877 0 0 0 0 255 255 255
3.82495 0.763279 3.65133 0 0 0 0 255 255 255
3.82328 0.761382 3.65261 0 0 0 0 255 255 255
3.82335 0.76238 3.65261 0 0 0 0 255 255 255
3.81929 0.950031 3.66605 0 0 0 0 255 255 255
3.81961 0.95502 3.66605 0 0 0 0 255 255 255
3.82348 1.0149 3.66605 0 0 0 0 255 255 255
3.88506 1.96891 3.66605 0 0 0 0 255 255 255
3.8144 0.886213 3.66669 0 0 0 0 255 255 255
3.83296 1.19766 3.66797 0 0 0 0 255 255 255
3.81719 0.977222 3.66925 0 0 0 0 255 255 255
3.80252 0.773745 3.67053 0 0 0 0 255 255 255
3.80548 0.819649 3.67053 0 0 0 0 255 255 255
3.81006 0.890502 3.67053 0 0 0 0 255 255 255
3.87943 1.96527 3.67053 0 0 0 0 255 255 255
3.80484 0.821695 3.67117 0 0 0 0 255 255 255
3.82868 1.19093 3.67117 0 0 0 0 255 255 255
3.87828 1.95933 3.67117 0 0 0 0 255 255 255
3.82675 1.17301 3.67181 0 0 0 0 255 255 255
3.8779 1.96536 3.67181 0 0 0 0 255 255 255
3.81478 0.999424 3.67245 0 0 0 0 255 255 255
3.80597 0.898782 3.67437 0 0 0 0 255 255 255
3.79499 0.78826 3.67757 0 0 0 0 255 255 255
3.79248 0.761366 3.67821 0 0 0 0 255 255 255
3.79486 0.798289 3.67821 0 0 0 0 255 255 255
3.79095 0.761465 3.67949 0 0 0 0 255 255 255
3.79424 0.836408 3.68077 0 0 0 0 255 255 255
3.81602 1.17371 3.68077 0 0 0 0 255 255 255
3.81769 1.19965 3.68077 0 0 0 0 255 255 255
3.7958 0.872383 3.68141 0 0 0 0 255 255 255
3.81673 1.19671 3.68141 0 0 0 0 255 255 255
3.8009 0.975268 3.68269 0 0 0 0 255 255 255
3.86339 1.9673 3.68397 0 0 0 0 255 255 255
3.79911 0.9834 3.68461 0 0 0 0 255 255 255
3.79706 0.963491 3.68525 0 0 0 0 255 255 255
3.8053 1.09123 3.68525 0 0 0 0 255 255 255
3.8055 1.09422 3.68525 0 0 0 0 255 255 255
3.82586 1.42159 3.68589 0 0 0 0 255 255 255
3.87114 2.12313 3.68589 0 0 0 0 255 255 255
3.78947 0.869785 3.68653 0 0 0 0 255 255 255
3.78985 0.875773 3.68653 0 0 0 0 255 255 255
3.81021 1.19112 3.68653 0 0 0 0 255 255 255
3.78008 0.748138 3.68781 0 0 0 0 255 255 255
3.78014 0.749135 3.68781 0 0 0 0 255 255 255
3.80367 1.14945 3.68973 0 0 0 0 255 255 255
3.86359 2.10157 3.69101 0 0 0 0 255 255 255
3.8584 2.08086 3.69421 0 0 0 0 255 255 255
3.85847 2.09388 3.69485 0 0 0 0 255 255 255
3.79967 1.1948 3.69549 0 0 0 0 255 255 255
3.85668 2.07797 3.69549 0 0 0 0 255 255 255
3.79987 1.22185 3.69677 0 0 0 0 255 255 255
3.8556 2.09707 3.69741 0 0 0 0 255 255 255
3.85573 2.09907 3.69741 0 0 0 0 255 255 255
3.78842 1.06826 3.69805 0 0 0 0 255 255 255
3.77954 0.942576 3.69869 0 0 0 0 255 255 255
3.79667 1.20802 3.69869 0 0 0 0 255 255 255
3.79719 1.21601 3.69869 0 0 0 0 255 255 255
3.77942 0.964629 3.69997 0 0 0 0 255 255 255
3.78489 1.04945 3.69997 0 0 0 0 255 255 255
3.77176 0.857901 3.70061 0 0 0 0 255 255 255
3.78728 1.0984 3.70061 0 0 0 0 255 255 255
3.77866 0.988728 3.70189 0 0 0 0 255 255 255
3.78377 1.09161 3.70317 0 0 0 0 255 255 255
3.78126 1.06472 3.70381 0 0 0 0 255 255 255
3.79137 1.22139 3.70381 0 0 0 0 255 255 255
3.78643 1.18063 3.70572 0 0 0 0 255 255 255
3.76647 0.883295 3.70636 0 0 0 0 255 255 255
3.78374 1.17479 3.70764 0 0 0 0 255 255 255
3.78452 1.19879 3.70828 0 0 0 0 255 255 255
3.75087 0.749021 3.71212 0 0 0 0 255 255 255
3.77979 1.19709 3.71212 0 0 0 0 255 255 255
3.75101 0.763041 3.71276 0 0 0 0 255 255 255
3.79514 1.47067 3.71404 0 0 0 0 255 255 255
3.76726 1.05059 3.71468 0 0 0 0 255 255 255
3.77537 1.17633 3.71468 0 0 0 0 255 255 255
3.74454 0.746423 3.71724 0 0 0 0 255 255 255
3.76516 1.06576 3.71724 0 0 0 0 255 255 255
3.77443 1.20946 3.71724 0 0 0 0 255 255 255
3.76427 1.07584 3.71852 0 0 0 0 255 255 255
3.74694 0.81942 3.71916 0 0 0 0 255 255 255
3.78457 1.41423 3.7198 0 0 0 0 255 255 255
3.74077 0.747668 3.72044 0 0 0 0 255 255 255
3.75045 0.921406 3.72172 0 0 0 0 255 255 255
3.76495 1.15796 3.72236 0 0 0 0 255 255 255
3.74943 0.929488 3.723 0 0 0 0 255 255 255
3.75072 0.949447 3.723 0 0 0 0 255 255 255
3.78112 1.42047 3.723 0 0 0 0 255 255 255
3.77928 1.45165 3.7262 0 0 0 0 255 255 255
3.73755 0.81702 3.72684 0 0 0 0 255 255 255
3.73781 0.821012 3.72684 0 0 0 0 255 255 255
3.78399 1.53652 3.72684 0 0 0 0 255 255 255
3.73936 0.856986 3.72748 0 0 0 0 255 255 255
3.73556 0.810133 3.72812 0 0 0 0 255 255 255
3.73576 0.813127 3.72812 0 0 0 0 255 255 255
3.73812 0.933225 3.7326 0 0 0 0 255 255 255
3.76905 1.42425 3.73324 0 0 0 0 255 255 255
3.72965 0.861622 3.7358 0 0 0 0 255 255 255
3.71363 0.649212 3.73772 0 0 0 0 255 255 255
3.72091 0.761978 3.73772 0 0 0 0 255 255 255
3.76361 1.4236 3.73772 0 0 0 0 255 255 255
3.72478 0.833878 3.73836 0 0 0 0 255 255 255
3.72635 0.905926 3.74092 0 0 0 0 255 255 255
3.74258 1.1574 3.74092 0 0 0 0 255 255 255
3.77891 1.72023 3.74092 0 0 0 0 255 255 255
3.72675 0.935963 3.7422 0 0 0 0 255 255 255
3.7413 1.16149 3.7422 0 0 0 0 255 255 255
3.70769 0.652602 3.74284 0 0 0 0 255 255 255
3.72181 0.907221 3.74476 0 0 0 0 255 255 255
3.724 0.94115 3.74476 0 0 0 0 255 255 255
3.71718 0.847395 3.7454 0 0 0 0 255 255 255
3.72917 1.05706 3.74668 0 0 0 0 255 255 255
3.73703 1.1788 3.74668 0 0 0 0 255 255 255
3.73375 1.13994 3.74732 0 0 0 0 255 255 255
3.7527 1.44535 3.74796 0 0 0 0 255 255 255
3.69855 0.654194 3.75052 0 0 0 0 255 255 255
3.71001 0.831824 3.75052 0 0 0 0 255 255 255
3.74602 1.38966 3.75052 0 0 0 0 255 255 255
3.72426 1.06439 3.75116 0 0 0 0 255 255 255
3.76735 1.732 3.75116 0 0 0 0 255 255 255
3.69734 0.659283 3.7518 0 0 0 0 255 255 255
3.70745 0.815957 3.7518 0 0 0 0 255 255 255
3.70835 0.829928 3.7518 0 0 0 0 255 255 255
3.72201 1.04149 3.7518 0 0 0 0 255 255 255
3.76658 1.73205 3.7518 0 0 0 0 255 255 255
3.69484 0.656437 3.75372 0 0 0 0 255 255 255
3.69555 0.667415 3.75372 0 0 0 0 255 255 255
3.72711 1.1564 3.75372 0 0 0 0 255 255 255
3.80267 2.32696 3.75372 0 0 0 0 255 255 255
3.70213 0.793252 3.755 0 0 0 0 255 255 255
3.71315 0.963897 3.755 0 0 0 0 255 255 255
3.69312 0.665567 3.75564 0 0 0 0 255 255 255
3.71168 0.964994 3.75628 0 0 0 0 255 255 255
3.72289 1.15066 3.75692 0 0 0 0 255 255 255
3.8 2.34517 3.75692 0 0 0 0 255 255 255
3.71588 1.05391 3.75756 0 0 0 0 255 255 255
3.71639 1.06189 3.75756 0 0 0 0 255 255 255
3.75596 1.69867 3.75884 0 0 0 0 255 255 255
3.71339 1.06309 3.76012 0 0 0 0 255 255 255
3.73292 1.38951 3.7614 0 0 0 0 255 255 255
3.70297 0.937497 3.76204 0 0 0 0 255 255 255
3.79072 2.32072 3.76332 0 0 0 0 255 255 255
3.79136 2.3307 3.76332 0 0 0 0 255 255 255
3.71472 1.16722 3.7646 0 0 0 0 255 255 255
3.72704 1.38187 3.76588 0 0 0 0 255 255 255
3.69724 0.96793 3.76844 0 0 0 0 255 255 255
3.7022 1.04477 3.76844 0 0 0 0 255 255 255
3.72842 1.45092 3.76844 0 0 0 0 255 255 255
3.68662 0.827322 3.76972 0 0 0 0 255 255 255
3.70202 1.06583 3.76972 0 0 0 0 255 255 255
3.70711 1.14466 3.76972 0 0 0 0 255 255 255
3.78241 2.31123 3.76972 0 0 0 0 255 255 255
3.7562 1.9171 3.77036 0 0 0 0 255 255 255
3.78312 2.33424 3.77036 0 0 0 0 255 255 255
3.67369 0.650788 3.771 0 0 0 0 255 255 255
3.68457 0.819438 3.771 0 0 0 0 255 255 255
3.69031 0.908253 3.771 0 0 0 0 255 255 255
3.78216 2.33129 3.771 0 0 0 0 255 255 255
3.67234 0.641857 3.77164 0 0 0 0 255 255 255
3.69044 0.922273 3.77164 0 0 0 0 255 255 255
3.6726 0.657873 3.77228 0 0 0 0 255 255 255
3.71867 1.38341 3.77292 0 0 0 0 255 255 255
3.69982 1.13912 3.77548 0 0 0 0 255 255 255
3.66523 0.615259 3.77612 0 0 0 0 255 255 255
3.66627 0.643251 3.77676 0 0 0 0 255 255 255
3.66576 0.647292 3.7774 0 0 0 0 255 255 255
3.66217 0.615457 3.77868 0 0 0 0 255 255 255
3.66122 0.648587 3.78124 0 0 0 0 255 255 255
3.74245 1.90697 3.78124 0 0 0 0 255 255 255
3.69106 1.13467 3.78252 0 0 0 0 255 255 255
3.74156 1.91705 3.78252 0 0 0 0 255 255 255
3.69042 1.13672 3.78316 0 0 0 0 255 255 255
3.65276 0.601033 3.78572 0 0 0 0 255 255 255
3.68149 1.04611 3.78572 0 0 0 0 255 255 255
3.68729 1.13592 3.78572 0 0 0 0 255 255 255
3.65297 0.628076 3.78699 0 0 0 0 255 255 255
3.65014 0.596192 3.78763 0 0 0 0 255 255 255
3.6497 0.601231 3.78827 0 0 0 0 255 255 255
3.68236 1.1192 3.78891 0 0 0 0 255 255 255
3.66588 0.887783 3.79019 0 0 0 0 255 255 255
3.69745 1.37677 3.79019 0 0 0 0 255 255 255
3.73197 1.91165 3.79019 0 0 0 0 255 255 255
3.6666 0.910785 3.79083 0 0 0 0 255 255 255
3.67041 0.993712 3.79211 0 0 0 0 255 255 255
3.68059 1.15138 3.79211 0 0 0 0 255 255 255
3.64749 0.650476 3.79275 0 0 0 0 255 255 255
3.65908 0.830102 3.79275 0 0 0 0 255 255 255
3.66128 0.88808 3.79403 0 0 0 0 255 255 255
3.66302 0.915024 3.79403 0 0 0 0 255 255 255
3.65133 0.80555 3.79787 0 0 0 0 255 255 255
3.65346 0.838481 3.79787 0 0 0 0 255 255 255
3.63884 0.623977 3.79851 0 0 0 0 255 255 255
3.64406 0.704809 3.79851 0 0 0 0 255 255 255
3.6525 0.835537 3.79851 0 0 0 0 255 255 255
3.63763 0.617041 3.79915 0 0 0 0 255 255 255
3.64433 0.720825 3.79915 0 0 0 0 255 255 255
3.66269 1.01726 3.79979 0 0 0 0 255 255 255
3.63635 0.621132 3.80043 0 0 0 0 255 255 255
3.66192 1.01731 3.80043 0 0 0 0 255 255 255
3.6705 1.16206 3.80107 0 0 0 0 255 255 255
3.64822 0.840824 3.80235 0 0 0 0 255 255 255
3.71199 1.82877 3.80235 0 0 0 0 255 255 255
3.66034 1.04046 3.80299 0 0 0 0 255 255 255
3.65687 0.998594 3.80363 0 0 0 0 255 255 255
3.66517 1.12733 3.80363 0 0 0 0 255 255 255
3.62925 0.606559 3.80555 0 0 0 0 255 255 255
3.64986 0.925894 3.80555 0 0 0 0 255 255 255
3.64117 0.803199 3.80619 0 0 0 0 255 255 255
3.62631 0.608753 3.80811 0 0 0 0 255 255 255
3.66316 1.17956 3.80811 0 0 0 0 255 255 255
3.62657 0.624769 3.80875 0 0 0 0 255 255 255
3.63546 0.762483 3.80875 0 0 0 0 255 255 255
3.65621 1.09584 3.80939 0 0 0 0 255 255 255
3.6454 0.940212 3.81003 0 0 0 0 255 255 255
3.65879 1.14778 3.81003 0 0 0 0 255 255 255
3.64321 0.918307 3.81067 0 0 0 0 255 255 255
3.6415 0.939461 3.81323 0 0 0 0 255 255 255
3.65291 1.12812 3.81387 0 0 0 0 255 255 255
3.61595 0.591384 3.81579 0 0 0 0 255 255 255
3.61614 0.594378 3.81579 0 0 0 0 255 255 255
3.64687 1.07039 3.81579 0 0 0 0 255 255 255
3.63934 0.97768 3.81707 0 0 0 0 255 255 255
3.63497 0.921845 3.81771 0 0 0 0 255 255 255
3.61205 0.590634 3.81899 0 0 0 0 255 255 255
3.64478 1.1096 3.81963 0 0 0 0 255 255 255
3.6243 0.804288 3.82027 0 0 0 0 255 255 255
3.6292 0.880131 3.82027 0 0 0 0 255 255 255
3.63571 0.992945 3.82091 0 0 0 0 255 255 255
3.63584 0.994941 3.82091 0 0 0 0 255 255 255
3.64131 1.07976 3.82091 0 0 0 0 255 255 255
3.62245 0.799398 3.82155 0 0 0 0 255 255 255
3.64306 1.11873 3.82155 0 0 0 0 255 255 255
3.61015 0.632844 3.82283 0 0 0 0 255 255 255
3.60662 0.589982 3.82347 0 0 0 0 255 255 255
3.60811 0.636984 3.82475 0 0 0 0 255 255 255
3.63169 1.00222 3.82475 0 0 0 0 255 255 255
3.6375 1.12811 3.82667 0 0 0 0 255 255 255
3.61891 0.875785 3.82859 0 0 0 0 255 255 255
3.6182 0.876832 3.82923 0 0 0 0 255 255 255
3.62665 1.03161 3.83051 0 0 0 0 255 255 255
3.59806 0.600556 3.83115 0 0 0 0 255 255 255
3.61159 0.822144 3.83179 0 0 0 0 255 255 255
3.63022 1.12257 3.83243 0 0 0 0 255 255 255
3.6764 1.83808 3.83243 0 0 0 0 255 255 255
3.59294 0.580845 3.83435 0 0 0 0 255 255 255
3.61593 0.937103 3.83435 0 0 0 0 255 255 255
3.67674 1.87914 3.83435 0 0 0 0 255 255 255
3.62007 1.02502 3.83563 0 0 0 0 255 255 255
3.62793 1.15879 3.83627 0 0 0 0 255 255 255
3.67135 1.83139 3.83627 0 0 0 0 255 255 255
3.6099 0.891397 3.83691 0 0 0 0 255 255 255
3.59014 0.609083 3.83819 0 0 0 0 255 255 255
3.60322 0.823687 3.83883 0 0 0 0 255 255 255
3.66815 1.82959 3.83883 0 0 0 0 255 255 255
3.60226 0.820742 3.83947 0 0 0 0 255 255 255
3.64633 1.51535 3.84011 0 0 0 0 255 255 255
3.60467 0.905764 3.84203 0 0 0 0 255 255 255
3.60544 0.917739 3.84203 0 0 0 0 255 255 255
3.60217 0.890894 3.84331 0 0 0 0 255 255 255
3.64282 1.52058 3.84331 0 0 0 0 255 255 255
3.66131 1.81901 3.84395 0 0 0 0 255 255 255
3.61134 1.06867 3.84523 0 0 0 0 255 255 255
3.60014 0.919083 3.84651 0 0 0 0 255 255 255
3.60974 1.06777 3.84651 0 0 0 0 255 255 255
3.59875 0.957252 3.84971 0 0 0 0 255 255 255
3.60919 1.11892 3.84971 0 0 0 0 255 255 255
3.59225 0.868486 3.85035 0 0 0 0 255 255 255
3.5864 0.801724 3.85163 0 0 0 0 255 255 255
3.60515 1.09212 3.85163 0 0 0 0 255 255 255
3.59002 0.869633 3.85227 0 0 0 0 255 255 255
3.60091 1.05031 3.85291 0 0 0 0 255 255 255
3.59268 0.958646 3.85483 0 0 0 0 255 255 255
3.57478 0.693248 3.85547 0 0 0 0 255 255 255
3.58053 0.806112 3.85675 0 0 0 0 255 255 255
3.59747 1.06857 3.85675 0 0 0 0 255 255 255
3.58736 0.923916 3.85739 0 0 0 0 255 255 255
3.59595 1.10474 3.85995 0 0 0 0 255 255 255
3.57368 0.795531 3.86187 0 0 0 0 255 255 255
3.56602 0.688803 3.86251 0 0 0 0 255 255 255
3.58478 1.00325 3.86379 0 0 0 0 255 255 255
3.65454 2.084 3.86379 0 0 0 0 255 255 255
3.56328 0.69399 3.86507 0 0 0 0 255 255 255
3.56856 0.77582 3.86507 0 0 0 0 255 255 255
3.57513 0.877608 3.86507 0 0 0 0 255 255 255
3.61921 1.59626 3.86699 0 0 0 0 255 255 255
3.64905 2.09437 3.8689 0 0 0 0 255 255 255
3.58265 1.08956 3.87018 0 0 0 0 255 255 255
3.58336 1.10054 3.87018 0 0 0 0 255 255 255
3.61512 1.59252 3.87018 0 0 0 0 255 255 255
3.64681 2.0835 3.87018 0 0 0 0 255 255 255
3.58266 1.10159 3.87082 0 0 0 0 255 255 255
3.56032 0.779358 3.8721 0 0 0 0 255 255 255
3.58004 1.09675 3.87274 0 0 0 0 255 255 255
3.58029 1.10074 3.87274 0 0 0 0 255 255 255
3.57864 1.11087 3.87466 0 0 0 0 255 255 255
3.57169 1.02714 3.87594 0 0 0 0 255 255 255
3.56944 1.00424 3.87658 0 0 0 0 255 255 255
3.55883 0.863629 3.87786 0 0 0 0 255 255 255
3.61803 1.79275 3.8785 0 0 0 0 255 255 255
3.57443 1.12918 3.87914 0 0 0 0 255 255 255
3.57122 1.10333 3.88042 0 0 0 0 255 255 255
3.54379 0.702263 3.8817 0 0 0 0 255 255 255
3.5675 1.0695 3.8817 0 0 0 0 255 255 255
3.56183 0.993706 3.88234 0 0 0 0 255 255 255
3.56114 1.00678 3.88362 0 0 0 0 255 255 255
3.5462 0.787284 3.88426 0 0 0 0 255 255 255
3.54099 0.730501 3.88554 0 0 0 0 255 255 255
3.61121 1.81824 3.88554 0 0 0 0 255 255 255
3.53823 0.699615 3.88618 0 0 0 0 255 255 255
3.56317 1.09784 3.88682 0 0 0 0 255 255 255
3.55188 1.03042 3.89258 0 0 0 0 255 255 255
3.54687 0.976634 3.89386 0 0 0 0 255 255 255
3.57825 1.48667 3.89514 0 0 0 0 255 255 255
3.59831 1.8331 3.89706 0 0 0 0 255 255 255
3.57345 1.47195 3.89834 0 0 0 0 255 255 255
3.5989 1.86613 3.89834 0 0 0 0 255 255 255
3.59511 1.8313 3.89962 0 0 0 0 255 255 255
3.53553 0.920247 3.90026 0 0 0 0 255 255 255
3.53972 0.985112 3.90026 0 0 0 0 255 255 255
3.54546 1.08595 3.9009 0 0 0 0 255 255 255
3.52924 0.858525 3.90218 0 0 0 0 255 255 255
3.52854 0.859572 3.90282 0 0 0 0 255 255 255
3.53066 0.892504 3.90282 0 0 0 0 255 255 255
3.56823 1.51037 3.90474 0 0 0 0 255 255 255
3.53836 1.0834 3.90666 0 0 0 0 255 255 255
3.52169 0.836966 3.9073 0 0 0 0 255 255 255
3.56246 1.46865 3.9073 0 0 0 0 255 255 255
3.5291 0.963752 3.90794 0 0 0 0 255 255 255
3.53007 0.990746 3.90858 0 0 0 0 255 255 255
3.5302 0.992741 3.90858 0 0 0 0 255 255 255
3.60254 2.11341 3.90858 0 0 0 0 255 255 255
3.60068 2.10852 3.90986 0 0 0 0 255 255 255
3.55897 1.50996 3.91242 0 0 0 0 255 255 255
3.52303 0.965146 3.91306 0 0 0 0 255 255 255
3.52104 0.95826 3.91434 0 0 0 0 255 255 255
3.59371 2.08392 3.91434 0 0 0 0 255 255 255
3.59185 2.07903 3.91562 0 0 0 0 255 255 255
3.5523 1.47833 3.91626 0 0 0 0 255 255 255
3.56793 1.79197 3.9201 0 0 0 0 255 255 255
3.5879 2.10133 3.9201 0 0 0 0 255 255 255
3.50527 0.845041 3.92138 0 0 0 0 255 255 255
3.56724 1.81707 3.92202 0 0 0 0 255 255 255
3.54213 1.45193 3.9233 0 0 0 0 255 255 255
3.58822 2.23759 3.92714 0 0 0 0 255 255 255
3.59151 2.28848 3.92714 0 0 0 0 255 255 255
3.57414 2.06714 3.9297 0 0 0 0 255 255 255
3.53331 1.45851 3.93098 0 0 0 0 255 255 255
3.53262 1.47158 3.93226 0 0 0 0 255 255 255
3.52377 1.41804 3.93674 0 0 0 0 255 255 255
3.49099 0.922121 3.93738 0 0 0 0 255 255 255
3.49337 0.959044 3.93738 0 0 0 0 255 255 255
3.57602 2.23938 3.93738 0 0 0 0 255 255 255
3.48727 0.88829 3.93866 0 0 0 0 255 255 255
3.48837 0.917279 3.9393 0 0 0 0 255 255 255
3.54325 1.76751 3.9393 0 0 0 0 255 255 255
3.57153 2.21762 3.93994 0 0 0 0 255 255 255
3.53555 1.70788 3.9425 0 0 0 0 255 255 255
3.49601 1.10718 3.94314 0 0 0 0 255 255 255
3.55625 2.06429 3.94442 0 0 0 0 255 255 255
3.49023 1.05344 3.94506 0 0 0 0 255 255 255
3.56662 2.23698 3.94506 0 0 0 0 255 255 255
3.55291 2.03645 3.9457 0 0 0 0 255 255 255
3.47427 0.842031 3.94697 0 0 0 0 255 255 255
3.48833 1.08363 3.94825 0 0 0 0 255 255 255
3.47661 0.926055 3.94953 0 0 0 0 255 255 255
3.47031 0.840283 3.95017 0 0 0 0 255 255 255
3.525 1.68752 3.95017 0 0 0 0 255 255 255
3.5281 1.75947 3.95145 0 0 0 0 255 255 255
3.46564 0.827557 3.95337 0 0 0 0 255 255 255
3.47214 0.928348 3.95337 0 0 0 0 255 255 255
3.54192 2.03315 3.95465 0 0 0 0 255 255 255
3.46946 0.934533 3.95593 0 0 0 0 255 255 255
3.47552 1.04036 3.95657 0 0 0 0 255 255 255
3.47418 1.04346 3.95785 0 0 0 0 255 255 255
3.46977 1.04675 3.96169 0 0 0 0 255 255 255
3.53149 2.01478 3.96233 0 0 0 0 255 255 255
3.45935 0.909132 3.96297 0 0 0 0 255 255 255
3.5299 2.02591 3.96425 0 0 0 0 255 255 255
3.45693 0.931333 3.96617 0 0 0 0 255 255 255
3.49359 1.49915 3.96617 0 0 0 0 255 255 255
3.49694 1.56307 3.96681 0 0 0 0 255 255 255
3.4545 0.917462 3.96745 0 0 0 0 255 255 255
3.52129 2.05953 3.97321 0 0 0 0 255 255 255
3.45103 1.00687 3.97513 0 0 0 0 255 255 255
3.45109 1.00787 3.97513 0 0 0 0 255 255 255
3.43661 0.807385 3.97641 0 0 0 0 255 255 255
3.44892 1.01001 3.97705 0 0 0 0 255 255 255
3.43438 0.808531 3.97833 0 0 0 0 255 255 255
3.48954 1.71085 3.98089 0 0 0 0 255 255 255
3.44434 1.05841 3.98345 0 0 0 0 255 255 255
3.48283 1.70227 3.98601 0 0 0 0 255 255 255
3.43762 1.0378 3.98793 0 0 0 0 255 255 255
3.43692 1.03885 3.98857 0 0 0 0 255 255 255
3.479 1.71454 3.98985 0 0 0 0 255 255 255
3.45854 1.4453 3.99241 0 0 0 0 255 255 255
3.4133 0.839954 3.99753 0 0 0 0 255 255 255
3.48862 2.0426 3.99945 0 0 0 0 255 255 255
3.42044 1.04592 4.00265 0 0 0 0 255 255 255
3.43815 1.4396 4.00905 0 0 0 0 255 255 255
3.44704 1.58934 4.00969 0 0 0 0 255 255 255
3.43236 1.37384 4.01033 0 0 0 0 255 255 255
3.43513 1.41675 4.01033 0 0 0 0 255 255 255
3.4028 0.927813 4.01097 0 0 0 0 255 255 255
3.42979 1.34594 4.01097 0 0 0 0 255 255 255
3.42716 1.32908 4.01225 0 0 0 0 255 255 255
3.40037 0.925966 4.01289 0 0 0 0 255 255 255
3.39027 0.781316 4.01353 0 0 0 0 255 255 255
3.4038 1.0029 4.01417 0 0 0 0 255 255 255
3.44116 1.5817 4.01417 0 0 0 0 255 255 255
3.44052 1.58375 4.01481 0 0 0 0 255 255 255
3.42368 1.38241 4.01801 0 0 0 0 255 255 255
3.3994 1.01822 4.01865 0 0 0 0 255 255 255
3.38108 0.805959 4.02249 0 0 0 0 255 255 255
3.39184 0.984637 4.02313 0 0 0 0 255 255 255
3.37787 0.780112 4.02377 0 0 0 0 255 255 255
3.37916 0.800071 4.02377 0 0 0 0 255 255 255
3.37463 0.825415 4.02888 0 0 0 0 255 255 255
3.37534 0.836392 4.02888 0 0 0 0 255 255 255
3.40113 1.28366 4.03144 0 0 0 0 255 255 255
3.37389 0.873563 4.03208 0 0 0 0 255 255 255
3.46259 2.2477 4.03208 0 0 0 0 255 255 255
3.42098 1.61507 4.03272 0 0 0 0 255 255 255
3.3955 1.26799 4.03528 0 0 0 0 255 255 255
3.39614 1.27797 4.03528 0 0 0 0 255 255 255
3.36336 0.782051 4.03592 0 0 0 0 255 255 255
3.44087 2.01863 4.03784 0 0 0 0 255 255 255
3.41172 1.61467 4.0404 0 0 0 0 255 255 255
3.44947 2.21147 4.04104 0 0 0 0 255 255 255
3.36406 0.900251 4.04168 0 0 0 0 255 255 255
3.4098 1.6208 4.04232 0 0 0 0 255 255 255
3.35641 0.805548 4.04296 0 0 0 0 255 255 255
3.37161 1.04106 4.04296 0 0 0 0 255 255 255
3.39744 1.44122 4.04296 0 0 0 0 255 255 255
3.39905 1.46617 4.04296 0 0 0 0 255 255 255
3.43364 2.00206 4.04296 0 0 0 0 255 255 255
3.43223 1.99213 4.0436 0 0 0 0 255 255 255
3.36036 0.902495 4.04488 0 0 0 0 255 255 255
3.35817 0.88059 4.04552 0 0 0 0 255 255 255
3.4318 2.02122 4.04552 0 0 0 0 255 255 255
3.35934 0.910577 4.04616 0 0 0 0 255 255 255
3.36676 1.04939 4.04744 0 0 0 0 255 255 255
3.39053 1.42965 4.04808 0 0 0 0 255 255 255
3.39163 1.44661 4.04808 0 0 0 0 255 255 255
3.3557 0.913818 4.04936 0 0 0 0 255 255 255
3.35766 1.00388 4.05256 0 0 0 0 255 255 255
3.38762 1.47994 4.0532 0 0 0 0 255 255 255
3.43658 2.25038 4.05384 0 0 0 0 255 255 255
3.38383 1.44511 4.05448 0 0 0 0 255 255 255
3.4341 2.27159 4.05704 0 0 0 0 255 255 255
3.42704 2.20991 4.0596 0 0 0 0 255 255 255
3.42693 2.24399 4.06152 0 0 0 0 255 255 255
3.332 0.809127 4.06344 0 0 0 0 255 255 255
3.33568 0.890058 4.06472 0 0 0 0 255 255 255
3.38103 1.5926 4.06472 0 0 0 0 255 255 255
3.30367 0.406115 4.06536 0 0 0 0 255 255 255
3.32641 0.758382 4.06536 0 0 0 0 255 255 255
3.32598 0.78747 4.06728 0 0 0 0 255 255 255
3.40112 2.01117 4.07048 0 0 0 0 255 255 255
3.41503 2.22672 4.07048 0 0 0 0 255 255 255
3.31996 0.765813 4.07112 0 0 0 0 255 255 255
3.39984 2.01526 4.07176 0 0 0 0 255 255 255
3.3489 1.23793 4.0724 0 0 0 0 255 255 255
3.31767 0.79001 4.07432 0 0 0 0 255 255 255
3.31806 0.795998 4.07432 0 0 0 0 255 255 255
3.35645 1.39076 4.07432 0 0 0 0 255 255 255
3.31832 0.812014 4.07496 0 0 0 0 255 255 255
3.31865 0.817004 4.07496 0 0 0 0 255 255 255
3.39006 1.99485 4.0788 0 0 0 0 255 255 255
3.3063 0.792749 4.08392 0 0 0 0 255 255 255
3.30438 0.78686 4.0852 0 0 0 0 255 255 255
3.31353 0.928565 4.0852 0 0 0 0 255 255 255
3.38181 1.99839 4.08584 0 0 0 0 255 255 255
3.31129 0.929712 4.08712 0 0 0 0 255 255 255
3.30589 0.857911 4.08776 0 0 0 0 255 255 255
3.29561 0.758366 4.09096 0 0 0 0 255 255 255
3.3284 1.26631 4.09096 0 0 0 0 255 255 255
3.34522 1.53879 4.0916 0 0 0 0 255 255 255
3.37293 2.00397 4.09352 0 0 0 0 255 255 255
3.29732 0.844435 4.09416 0 0 0 0 255 255 255
3.29336 0.854711 4.098 0 0 0 0 255 255 255
3.26555 0.459682 4.09992 0 0 0 0 255 255 255
3.26716 0.48463 4.09992 0 0 0 0 255 255 255
3.37494 2.1782 4.1012 0 0 0 0 255 255 255
3.26216 0.45489 4.10248 0 0 0 0 255 255 255
3.28066 0.765343 4.10376 0 0 0 0 255 255 255
3.36786 2.21173 4.10887 0 0 0 0 255 255 255
3.32621 1.60215 4.11079 0 0 0 0 255 255 255
3.27568 0.890925 4.11463 0 0 0 0 255 255 255
3.27227 0.85006 4.11527 0 0 0 0 255 255 255
3.24438 0.429984 4.11591 0 0 0 0 255 255 255
3.23818 0.429382 4.12103 0 0 0 0 255 255 255
3.22881 0.355833 4.12487 0 0 0 0 255 255 255
3.23965 0.547533 4.12615 0 0 0 0 255 255 255
3.23129 0.453876 4.12807 0 0 0 0 255 255 255
3.23001 0.445943 4.12871 0 0 0 0 255 255 255
3.23581 0.54778 4.12935 0 0 0 0 255 255 255
3.25408 0.890316 4.13255 0 0 0 0 255 255 255
3.21846 0.350489 4.13319 0 0 0 0 255 255 255
3.30519 1.74179 4.13575 0 0 0 0 255 255 255
3.21766 0.409663 4.13703 0 0 0 0 255 255 255
3.32755 2.11212 4.13703 0 0 0 0 255 255 255
3.2383 0.908369 4.14663 0 0 0 0 255 255 255
3.20348 0.428616 4.14983 0 0 0 0 255 255 255
3.29742 1.91966 4.15175 0 0 0 0 255 255 255
3.21754 0.932757 4.16519 0 0 0 0 255 255 255
3.20717 0.903364 4.17223 0 0 0 0 255 255 255
3.27643 1.98816 4.17287 0 0 0 0 255 255 255
3.19349 1.01347 4.18951 0 0 0 0 255 255 255
3.11867 2.16869 4.31365 0 0 0 0 255 255 255
3.11533 2.12883 4.31429 0 0 0 0 255 255 255
3.11169 2.13207 4.31749 0 0 0 0 255 255 255
3.10013 2.02459 4.32133 0 0 0 0 255 255 255
3.10562 2.13346 4.32261 0 0 0 0 255 255 255
3.10248 2.12064 4.32453 0 0 0 0 255 255 255
3.05699 2.14361 4.36356 0 0 0 0 255 255 255
3.04875 2.15918 4.37124 0 0 0 0 255 255 255
2.93968 1.93674 4.44995 0 0 0 0 255 255 255
