ply
format ascii 1.0
comment VCGLIB generated
element vertex 126
property float x
property float y
property float z
property float nx
property float ny
property float nz
property uchar red
property uchar green
property uchar blue
property uchar alpha
element face 0
property list uchar int vertex_indices
end_header
3.06199 1.17134 4.03619 0 0 0 255 255 0 255
3.09849 1.30443 4.03619 0 0 0 255 255 0 255
3.09439 1.30555 4.03882 0 0 0 255 255 0 255
3.04676 1.26366 4.06041 0 0 0 255 255 0 255
2.99773 1.29059 4.09411 0 0 0 255 255 0 255
3.01251 1.412 4.10517 0 0 0 255 255 0 255
2.94554 1.20639 4.11149 0 0 0 255 255 0 255
2.97562 1.32568 4.11307 0 0 0 255 255 0 255
2.97723 1.3605 4.11781 0 0 0 255 255 0 255
2.9387 1.30678 4.13202 0 0 0 255 255 0 255
2.9606 1.4252 4.13834 0 0 0 255 255 0 255
2.92404 1.29835 4.13939 0 0 0 255 255 0 255
2.88344 1.16639 4.14203 0 0 0 255 255 0 255
2.89955 1.22834 4.14255 0 0 0 255 255 0 255
2.95269 1.4253 4.14308 0 0 0 255 255 0 255
3.02384 1.68472 4.14308 0 0 0 255 255 0 255
3.01496 1.6716 4.14624 0 0 0 255 255 0 255
3.01321 1.68452 4.1494 0 0 0 255 255 0 255
3.01181 1.68905 4.15098 0 0 0 255 255 0 255
2.98274 1.64414 4.16098 0 0 0 255 255 0 255
3.04969 2.01359 4.18152 0 0 0 255 255 0 255
2.83513 1.23771 4.18257 0 0 0 255 255 0 255
2.82939 1.23929 4.18626 0 0 0 255 255 0 255
3.03993 2.00694 4.18626 0 0 0 255 255 0 255
2.92115 1.60919 4.19205 0 0 0 255 255 0 255
3.02946 2.02018 4.19468 0 0 0 255 255 0 255
3.02052 2.0133 4.1989 0 0 0 255 255 0 255
2.91123 1.62124 4.19995 0 0 0 255 255 0 255
2.81598 1.27718 4.20048 0 0 0 255 255 0 255
3.03928 2.11703 4.20469 0 0 0 255 255 0 255
2.83346 1.36986 4.20522 0 0 0 255 255 0 255
2.90065 1.61481 4.20522 0 0 0 255 255 0 255
3.02542 2.07935 4.2068 0 0 0 255 255 0 255
2.90028 1.62632 4.20732 0 0 0 255 255 0 255
3.01658 2.06 4.2089 0 0 0 255 255 0 255
2.89988 1.64094 4.20996 0 0 0 255 255 0 255
3.02394 2.09324 4.20996 0 0 0 255 255 0 255
3.01859 2.08019 4.21101 0 0 0 255 255 0 255
2.79043 1.2676 4.21417 0 0 0 255 255 0 255
2.79027 1.28631 4.21733 0 0 0 255 255 0 255
2.91047 1.8081 4.23102 0 0 0 255 255 0 255
2.92414 1.8676 4.2326 0 0 0 255 255 0 255
2.77224 1.3234 4.23418 0 0 0 255 255 0 255
2.98397 2.11146 4.23681 0 0 0 255 255 0 255
2.77126 1.34233 4.23786 0 0 0 255 255 0 255
2.97347 2.09567 4.2405 0 0 0 255 255 0 255
2.76132 1.32536 4.24102 0 0 0 255 255 0 255
2.75626 1.31015 4.24155 0 0 0 255 255 0 255
2.78319 1.41475 4.2426 0 0 0 255 255 0 255
2.97996 2.13537 4.24313 0 0 0 255 255 0 255
2.74603 1.29533 4.24524 0 0 0 255 255 0 255
2.73965 1.2753 4.24576 0 0 0 255 255 0 255
2.90947 1.89444 4.24576 0 0 0 255 255 0 255
2.77769 1.42041 4.24682 0 0 0 255 255 0 255
2.89791 1.8748 4.24945 0 0 0 255 255 0 255
2.88987 1.85834 4.25155 0 0 0 255 255 0 255
2.96946 2.15173 4.25208 0 0 0 255 255 0 255
2.95964 2.11917 4.25261 0 0 0 255 255 0 255
2.70339 1.24273 4.26209 0 0 0 255 255 0 255
2.6976 1.25054 4.26682 0 0 0 255 255 0 255
2.70522 1.34904 4.27841 0 0 0 255 255 0 255
2.70377 1.3598 4.28104 0 0 0 255 255 0 255
2.69972 1.35469 4.28262 0 0 0 255 255 0 255
2.70231 1.37057 4.28368 0 0 0 255 255 0 255
2.68565 1.34196 4.28894 0 0 0 255 255 0 255
2.67378 1.32759 4.29368 0 0 0 255 255 0 255
2.70999 1.46283 4.29421 0 0 0 255 255 0 255
2.66711 1.40615 4.31053 0 0 0 255 255 0 255
2.63178 1.32874 4.31896 0 0 0 255 255 0 255
2.65019 1.40872 4.32106 0 0 0 255 255 0 255
2.6157 1.29582 4.32317 0 0 0 255 255 0 255
2.59999 1.25139 4.32527 0 0 0 255 255 0 255
2.67087 1.54199 4.33054 0 0 0 255 255 0 255
2.68463 1.59214 4.33054 0 0 0 255 255 0 255
2.59888 1.28592 4.33159 0 0 0 255 255 0 255
2.67283 1.56842 4.3337 0 0 0 255 255 0 255
2.65982 1.5274 4.33475 0 0 0 255 255 0 255
2.57515 1.22191 4.33528 0 0 0 255 255 0 255
2.59446 1.29231 4.33528 0 0 0 255 255 0 255
2.72991 1.81511 4.34002 0 0 0 255 255 0 255
2.59869 1.33989 4.34054 0 0 0 255 255 0 255
2.55672 1.20934 4.34423 0 0 0 255 255 0 255
2.65501 1.58056 4.34634 0 0 0 255 255 0 255
2.5568 1.23213 4.34792 0 0 0 255 255 0 255
2.58113 1.32086 4.34792 0 0 0 255 255 0 255
2.72608 1.84934 4.34792 0 0 0 255 255 0 255
2.58587 1.34133 4.34844 0 0 0 255 255 0 255
2.58132 1.33117 4.3495 0 0 0 255 255 0 255
2.57568 1.32028 4.35108 0 0 0 255 255 0 255
2.5792 1.3556 4.35476 0 0 0 255 255 0 255
2.55267 1.26852 4.35634 0 0 0 255 255 0 255
2.58468 1.38521 4.35634 0 0 0 255 255 0 255
2.71286 1.86541 4.35845 0 0 0 255 255 0 255
2.56349 1.34332 4.36213 0 0 0 255 255 0 255
2.68776 1.83496 4.36845 0 0 0 255 255 0 255
2.53961 1.33017 4.37425 0 0 0 255 255 0 255
2.51313 1.23685 4.37477 0 0 0 255 255 0 255
2.53032 1.29953 4.37477 0 0 0 255 255 0 255
2.5117 1.2445 4.37688 0 0 0 255 255 0 255
2.52546 1.29465 4.37688 0 0 0 255 255 0 255
2.4983 1.2824 4.3911 0 0 0 255 255 0 255
2.51171 1.37308 4.39794 0 0 0 255 255 0 255
2.56559 1.64346 4.41005 0 0 0 255 255 0 255
2.54874 1.63667 4.419 0 0 0 255 255 0 255
2.55917 1.79039 4.43796 0 0 0 255 255 0 255
2.54645 1.74721 4.43849 0 0 0 255 255 0 255
2.48294 1.55103 4.44428 0 0 0 255 255 0 255
2.48157 1.55244 4.44533 0 0 0 255 255 0 255
2.5169 1.69414 4.44744 0 0 0 255 255 0 255
2.52222 1.7746 4.45744 0 0 0 255 255 0 255
2.45887 1.59184 4.46534 0 0 0 255 255 0 255
2.47469 1.65594 4.46639 0 0 0 255 255 0 255
2.5214 1.83911 4.4685 0 0 0 255 255 0 255
2.47292 1.70413 4.47535 0 0 0 255 255 0 255
2.43428 1.56645 4.47587 0 0 0 255 255 0 255
2.44877 1.62572 4.47693 0 0 0 255 255 0 255
2.49353 1.81461 4.48114 0 0 0 255 255 0 255
2.47046 1.76909 4.48746 0 0 0 255 255 0 255
2.37691 1.45049 4.49114 0 0 0 255 255 0 255
2.39114 1.5088 4.4922 0 0 0 255 255 0 255
2.35051 1.4121 4.50062 0 0 0 255 255 0 255
2.45521 1.80024 4.50168 0 0 0 255 255 0 255
2.2667 1.19971 4.51589 0 0 0 255 255 0 255
2.39456 1.81376 4.54011 0 0 0 255 255 0 255
2.19455 1.25164 4.5675 0 0 0 255 255 0 255
2.20225 1.30864 4.57224 0 0 0 255 255 0 255
