ply
format ascii 1.0
comment VCGLIB generated
element vertex 219
property float x
property float y
property float z
property float nx
property float ny
property float nz
property uchar red
property uchar green
property uchar blue
property uchar alpha
element face 0
property list uchar int vertex_indices
end_header
1.90171 0.84507 4.3614 0 0 0 0 128 0 255
1.90404 0.811164 4.36001 0 0 0 0 128 0 255
1.89995 0.827735 4.36259 0 0 0 0 128 0 255
1.89641 0.847398 4.36479 0 0 0 0 128 0 255
1.89145 0.854805 4.36787 0 0 0 0 128 0 255
1.89374 0.802788 4.36647 0 0 0 0 128 0 255
1.88786 0.856357 4.37005 0 0 0 0 128 0 255
1.88296 0.871825 4.37299 0 0 0 0 128 0 255
1.87443 0.869741 4.37789 0 0 0 0 128 0 255
1.86762 0.819618 4.38124 0 0 0 0 128 0 255
1.85639 0.776022 4.38636 0 0 0 0 128 0 255
1.72753 0.756789 4.42372 0 0 0 0 128 0 255
1.72874 0.743866 4.42298 0 0 0 0 128 0 255
1.7233 0.759373 4.42437 0 0 0 0 128 0 255
1.7108 0.754116 4.42546 0 0 0 0 128 0 255
1.701 0.83742 4.4304 0 0 0 0 128 0 255
1.73676 0.359409 4.4038 0 0 0 0 128 0 255
1.69442 0.768567 4.42741 0 0 0 0 128 0 255
1.73163 0.349885 4.40362 0 0 0 0 128 0 255
1.73055 0.350783 4.40372 0 0 0 0 128 0 255
1.72197 0.378044 4.40554 0 0 0 0 128 0 255
1.7193 0.395842 4.40659 0 0 0 0 128 0 255
1.66913 0.856414 4.43307 0 0 0 0 128 0 255
1.71485 0.368342 4.40521 0 0 0 0 128 0 255
1.71261 0.360108 4.40479 0 0 0 0 128 0 255
1.71027 0.35287 4.4044 0 0 0 0 128 0 255
1.70477 0.379429 4.40592 0 0 0 0 128 0 255
1.70147 0.361074 4.40483 0 0 0 0 128 0 255
1.6532 0.854927 4.43299 0 0 0 0 128 0 255
1.65239 0.852847 4.43285 0 0 0 0 128 0 255
1.66021 0.737264 4.42618 0 0 0 0 128 0 255
1.69624 0.352571 4.40422 0 0 0 0 128 0 255
1.68807 0.429021 4.40855 0 0 0 0 128 0 255
1.657 0.750004 4.42685 0 0 0 0 128 0 255
1.68717 0.427936 4.40846 0 0 0 0 128 0 255
1.65399 0.760756 4.42739 0 0 0 0 128 0 255
1.6565 0.733917 4.42586 0 0 0 0 128 0 255
1.65402 0.749731 4.42672 0 0 0 0 128 0 255
1.67949 0.42423 4.40792 0 0 0 0 128 0 255
1.63958 0.839647 4.43158 0 0 0 0 128 0 255
1.6366 0.839378 4.4314 0 0 0 0 128 0 255
1.64538 0.734915 4.42537 0 0 0 0 128 0 255
1.63824 0.704209 4.42288 0 0 0 0 128 0 255
1.62882 0.719416 4.423 0 0 0 0 128 0 255
1.64942 0.435599 4.40614 0 0 0 0 128 0 255
1.65557 0.369992 4.40239 0 0 0 0 128 0 255
1.61646 0.734377 4.42258 0 0 0 0 128 0 255
1.65072 0.368572 4.40169 0 0 0 0 128 0 255
1.60836 0.767752 4.42381 0 0 0 0 128 0 255
1.59477 0.859779 4.42834 0 0 0 0 128 0 255
1.61995 0.580372 4.41223 0 0 0 0 128 0 255
1.60579 0.710425 4.41935 0 0 0 0 128 0 255
1.59047 0.863424 4.42792 0 0 0 0 128 0 255
1.60172 0.722105 4.41953 0 0 0 0 128 0 255
1.59724 0.727742 4.41917 0 0 0 0 128 0 255
1.60957 0.585513 4.41088 0 0 0 0 128 0 255
1.57642 0.918353 4.42952 0 0 0 0 128 0 255
1.62134 0.407175 4.39979 0 0 0 0 128 0 255
1.62148 0.395166 4.39891 0 0 0 0 128 0 255
1.61846 0.395919 4.39838 0 0 0 0 128 0 255
1.62218 0.356158 4.39611 0 0 0 0 128 0 255
1.61588 0.339619 4.39352 0 0 0 0 128 0 255
1.54936 0.852075 4.41829 0 0 0 0 128 0 255
1.55138 0.717064 4.40761 0 0 0 0 128 0 255
1.56248 0.567739 4.39824 0 0 0 0 128 0 255
1.56235 0.548708 4.39657 0 0 0 0 128 0 255
1.57636 0.378583 4.38627 0 0 0 0 128 0 255
1.54143 0.741335 4.40668 0 0 0 0 128 0 255
1.56873 0.409041 4.38649 0 0 0 0 128 0 255
1.53486 0.719823 4.40267 0 0 0 0 128 0 255
1.53353 0.713719 4.40168 0 0 0 0 128 0 255
1.54205 0.57222 4.39195 0 0 0 0 128 0 255
1.54317 0.560292 4.39127 0 0 0 0 128 0 255
1.54336 0.558304 4.39116 0 0 0 0 128 0 255
1.53561 0.610783 4.39314 0 0 0 0 128 0 255
1.53066 0.623435 4.39249 0 0 0 0 128 0 255
1.5342 0.585661 4.39033 0 0 0 0 128 0 255
1.53708 0.554846 4.38857 0 0 0 0 128 0 255
1.53401 0.577642 4.38952 0 0 0 0 128 0 255
1.55487 0.34497 4.37589 0 0 0 0 128 0 255
1.55515 0.341988 4.37572 0 0 0 0 128 0 255
1.53103 0.559416 4.3867 0 0 0 0 128 0 255
1.52519 0.572011 4.38558 0 0 0 0 128 0 255
1.54551 0.335301 4.37131 0 0 0 0 128 0 255
1.50865 0.70893 4.39188 0 0 0 0 128 0 255
1.53511 0.416619 4.37481 0 0 0 0 128 0 255
1.51519 0.560311 4.38028 0 0 0 0 128 0 255
1.48543 0.858397 4.3965 0 0 0 0 128 0 255
1.52286 0.419779 4.36983 0 0 0 0 128 0 255
1.53077 0.335286 4.36501 0 0 0 0 128 0 255
1.48941 0.747629 4.3873 0 0 0 0 128 0 255
1.5071 0.558761 4.37652 0 0 0 0 128 0 255
1.48059 0.832061 4.3917 0 0 0 0 128 0 255
1.48078 0.830073 4.39159 0 0 0 0 128 0 255
1.48776 0.75552 4.38733 0 0 0 0 128 0 255
1.51113 0.418999 4.36426 0 0 0 0 128 0 255
1.50978 0.356906 4.35715 0 0 0 0 128 0 255
1.48459 0.616293 4.3715 0 0 0 0 128 0 255
1.50256 0.424444 4.36055 0 0 0 0 128 0 255
1.46005 0.849723 4.38344 0 0 0 0 128 0 255
1.46043 0.845747 4.38322 0 0 0 0 128 0 255
1.48077 0.61905 4.36981 0 0 0 0 128 0 255
1.4716 0.707464 4.37439 0 0 0 0 128 0 255
1.49889 0.416211 4.35777 0 0 0 0 128 0 255
1.49834 0.403177 4.35609 0 0 0 0 128 0 255
1.45459 0.851378 4.38073 0 0 0 0 128 0 255
1.45561 0.840444 4.3801 0 0 0 0 128 0 255
1.47889 0.591934 4.36591 0 0 0 0 128 0 255
1.44985 0.855083 4.37854 0 0 0 0 128 0 255
1.49463 0.348958 4.34818 0 0 0 0 128 0 255
1.49271 0.35084 4.3473 0 0 0 0 128 0 255
1.46386 0.631002 4.3618 0 0 0 0 128 0 255
1.47715 0.433875 4.3475 0 0 0 0 128 0 255
1.44196 0.754649 4.3627 0 0 0 0 128 0 255
1.46087 0.552859 4.35118 0 0 0 0 128 0 255
1.47371 0.406687 4.34231 0 0 0 0 128 0 255
1.43113 0.833976 4.36511 0 0 0 0 128 0 255
1.47526 0.353808 4.33717 0 0 0 0 128 0 255
1.47396 0.35873 4.33691 0 0 0 0 128 0 255
1.46995 0.374492 4.33619 0 0 0 0 128 0 255
1.42238 0.864458 4.36308 0 0 0 0 128 0 255
1.45772 0.424772 4.3341 0 0 0 0 128 0 255
1.42645 0.749777 4.3521 0 0 0 0 128 0 255
1.41568 0.847103 4.35652 0 0 0 0 128 0 255
1.42173 0.738533 4.34748 0 0 0 0 128 0 255
1.45351 0.390576 4.32704 0 0 0 0 128 0 255
1.43845 0.542621 4.33514 0 0 0 0 128 0 255
1.4503 0.407389 4.32684 0 0 0 0 128 0 255
1.40359 0.845466 4.34774 0 0 0 0 128 0 255
1.44609 0.383198 4.32075 0 0 0 0 128 0 255
1.43978 0.424826 4.32133 0 0 0 0 128 0 255
1.42743 0.531069 4.32559 0 0 0 0 128 0 255
1.42422 0.556874 4.32645 0 0 0 0 128 0 255
1.43968 0.391864 4.31703 0 0 0 0 128 0 255
1.42139 0.561728 4.3249 0 0 0 0 128 0 255
1.40259 0.745548 4.33416 0 0 0 0 128 0 255
1.41554 0.607377 4.32627 0 0 0 0 128 0 255
1.41628 0.599425 4.32582 0 0 0 0 128 0 255
1.41758 0.585508 4.32502 0 0 0 0 128 0 255
1.43472 0.402605 4.31458 0 0 0 0 128 0 255
1.40516 0.709725 4.3315 0 0 0 0 128 0 255
1.40289 0.725592 4.33178 0 0 0 0 128 0 255
1.40062 0.741459 4.33207 0 0 0 0 128 0 255
1.41738 0.562532 4.32185 0 0 0 0 128 0 255
1.4306 0.421379 4.31379 0 0 0 0 128 0 255
1.41344 0.571331 4.31985 0 0 0 0 128 0 255
1.43401 0.351649 4.30731 0 0 0 0 128 0 255
1.43494 0.341708 4.30674 0 0 0 0 128 0 255
1.41394 0.54939 4.31733 0 0 0 0 128 0 255
1.43265 0.349588 4.30593 0 0 0 0 128 0 255
1.43275 0.348594 4.30587 0 0 0 0 128 0 255
1.42667 0.405219 4.30847 0 0 0 0 128 0 255
1.43235 0.344582 4.30501 0 0 0 0 128 0 255
1.40284 0.626748 4.31856 0 0 0 0 128 0 255
1.37724 0.851196 4.32748 0 0 0 0 128 0 255
1.42417 0.350201 4.29888 0 0 0 0 128 0 255
1.4047 0.54997 4.30963 0 0 0 0 128 0 255
1.37451 0.848083 4.32468 0 0 0 0 128 0 255
1.37358 0.850039 4.32413 0 0 0 0 128 0 255
1.39946 0.573696 4.30835 0 0 0 0 128 0 255
1.41604 0.396758 4.29825 0 0 0 0 128 0 255
1.41482 0.401696 4.29787 0 0 0 0 128 0 255
1.38112 0.745569 4.31617 0 0 0 0 128 0 255
1.38419 0.704783 4.31318 0 0 0 0 128 0 255
1.39732 0.564623 4.30517 0 0 0 0 128 0 255
1.41157 0.412536 4.29649 0 0 0 0 128 0 255
1.37973 0.744513 4.31477 0 0 0 0 128 0 255
1.38178 0.722644 4.31353 0 0 0 0 128 0 255
1.3788 0.74647 4.31421 0 0 0 0 128 0 255
1.39538 0.569532 4.30411 0 0 0 0 128 0 255
1.39306 0.5864 4.3044 0 0 0 0 128 0 255
1.36839 0.841837 4.31831 0 0 0 0 128 0 255
1.38539 0.628994 4.30345 0 0 0 0 128 0 255
1.37479 0.734333 4.30878 0 0 0 0 128 0 255
1.3707 0.716216 4.30222 0 0 0 0 128 0 255
1.35723 0.852372 4.30929 0 0 0 0 128 0 255
1.36564 0.75493 4.30303 0 0 0 0 128 0 255
1.37623 0.626646 4.2943 0 0 0 0 128 0 255
1.39855 0.358154 4.27614 0 0 0 0 128 0 255
1.36275 0.732881 4.29682 0 0 0 0 128 0 255
1.3721 0.6255 4.28998 0 0 0 0 128 0 255
1.38314 0.500227 4.28212 0 0 0 0 128 0 255
1.39372 0.364966 4.27224 0 0 0 0 128 0 255
1.37424 0.550781 4.28068 0 0 0 0 128 0 255
1.38988 0.383783 4.27115 0 0 0 0 128 0 255
1.38227 0.450338 4.2735 0 0 0 0 128 0 255
1.36781 0.597433 4.28116 0 0 0 0 128 0 255
1.38801 0.381727 4.26885 0 0 0 0 128 0 255
1.38913 0.369799 4.26817 0 0 0 0 128 0 255
1.3716 0.549697 4.27771 0 0 0 0 128 0 255
1.37178 0.547709 4.27759 0 0 0 0 128 0 255
1.38963 0.349874 4.26557 0 0 0 0 128 0 255
1.38874 0.344861 4.26381 0 0 0 0 128 0 255
1.38884 0.343867 4.26376 0 0 0 0 128 0 255
1.36796 0.559552 4.27533 0 0 0 0 128 0 255
1.38751 0.350804 4.26342 0 0 0 0 128 0 255
1.37592 0.460107 4.26818 0 0 0 0 128 0 255
1.38135 0.366568 4.25912 0 0 0 0 128 0 255
1.3722 0.443052 4.26123 0 0 0 0 128 0 255
1.37415 0.408225 4.25773 0 0 0 0 128 0 255
1.37508 0.398284 4.25717 0 0 0 0 128 0 255
1.37387 0.397255 4.25559 0 0 0 0 128 0 255
1.35832 0.556283 4.26391 0 0 0 0 128 0 255
1.36615 0.458834 4.25682 0 0 0 0 128 0 255
1.36625 0.45784 4.25677 0 0 0 0 128 0 255
1.36551 0.458817 4.25606 0 0 0 0 128 0 255
1.37622 0.344503 4.24953 0 0 0 0 128 0 255
1.35081 0.6089 4.26386 0 0 0 0 128 0 255
1.34942 0.616837 4.26355 0 0 0 0 128 0 255
1.33669 0.739072 4.26899 0 0 0 0 128 0 255
1.3712 0.350358 4.24448 0 0 0 0 128 0 255
1.33593 0.720125 4.26481 0 0 0 0 128 0 255
1.3677 0.354263 4.24081 0 0 0 0 128 0 255
1.33784 0.633511 4.25203 0 0 0 0 128 0 255
1.3517 0.472453 4.24125 0 0 0 0 128 0 255
1.35496 0.424717 4.23693 0 0 0 0 128 0 255
1.35177 0.407738 4.22955 0 0 0 0 128 0 255
1.35027 0.367905 4.21995 0 0 0 0 128 0 255
1.34977 0.348994 4.21558 0 0 0 0 128 0 255
