ply
format ascii 1.0
comment VCGLIB generated
element vertex 464
property float x
property float y
property float z
property float nx
property float ny
property float nz
property uchar red
property uchar green
property uchar blue
property uchar alpha
element face 0
property list uchar int vertex_indices
end_header
1.96875 0.879409 4.09256 0 0 0 128 128 0 255
1.96851 0.905184 4.08199 0 0 0 128 128 0 255
1.96254 0.762278 4.08256 0 0 0 128 128 0 255
1.96613 0.887775 4.0625 0 0 0 128 128 0 255
1.96364 0.836576 4.05278 0 0 0 128 128 0 255
1.963 0.823422 4.0461 0 0 0 128 128 0 255
1.96494 0.872195 4.03789 0 0 0 128 128 0 255
1.95461 0.606279 4.03649 0 0 0 128 128 0 255
1.95436 0.598235 4.03469 0 0 0 128 128 0 255
1.9612 0.767971 4.02748 0 0 0 128 128 0 255
1.95354 0.574182 4.03229 0 0 0 128 128 0 255
1.95342 0.571185 4.03237 0 0 0 128 128 0 255
1.96448 0.842728 4.01963 0 0 0 128 128 0 255
1.945 0.339111 4.02615 0 0 0 128 128 0 255
1.94361 0.271813 4.01488 0 0 0 128 128 0 255
1.94688 0.348671 4.01098 0 0 0 128 128 0 255
1.95314 0.49742 4.00431 0 0 0 128 128 0 255
1.95738 0.598251 3.99982 0 0 0 128 128 0 255
1.95715 0.592257 3.99997 0 0 0 128 128 0 255
1.95704 0.54797 3.99019 0 0 0 128 128 0 255
1.94957 0.359176 3.99488 0 0 0 128 128 0 255
1.95465 0.474957 3.98905 0 0 0 128 128 0 255
1.9574 0.471481 3.9744 0 0 0 128 128 0 255
1.95388 0.360471 3.97326 0 0 0 128 128 0 255
1.97708 0.935778 3.95702 0 0 0 128 128 0 255
1.95736 0.407187 3.96528 0 0 0 128 128 0 255
1.95633 0.375188 3.96511 0 0 0 128 128 0 255
1.97827 0.917529 3.9497 0 0 0 128 128 0 255
1.97895 0.928484 3.94846 0 0 0 128 128 0 255
1.96189 0.496954 3.95917 0 0 0 128 128 0 255
1.95694 0.338955 3.95827 0 0 0 128 128 0 255
1.96992 0.66057 3.94931 0 0 0 128 128 0 255
1.96148 0.390585 3.94833 0 0 0 128 128 0 255
1.96413 0.381239 3.93903 0 0 0 128 128 0 255
1.97065 0.530005 3.93343 0 0 0 128 128 0 255
1.96461 0.377172 3.93723 0 0 0 128 128 0 255
1.96679 0.416057 3.93437 0 0 0 128 128 0 255
1.96565 0.387088 3.93509 0 0 0 128 128 0 255
1.97178 0.50881 3.92829 0 0 0 128 128 0 255
1.96743 0.372847 3.92884 0 0 0 128 128 0 255
1.97062 0.444732 3.92612 0 0 0 128 128 0 255
1.97502 0.538556 3.92191 0 0 0 128 128 0 255
1.97949 0.51102 3.90865 0 0 0 128 128 0 255
1.97369 0.36418 3.9123 0 0 0 128 128 0 255
1.98655 0.659743 3.9022 0 0 0 128 128 0 255
1.98305 0.540757 3.9024 0 0 0 128 128 0 255
1.9825 0.474635 3.89948 0 0 0 128 128 0 255
1.98676 0.550435 3.89488 0 0 0 128 128 0 255
2.00403 0.921793 3.88024 0 0 0 128 128 0 255
2.00628 0.173032 3.84567 0 0 0 128 128 0 255
2.06506 1.20763 3.79712 0 0 0 128 128 0 255
2.07025 1.17222 3.79045 0 0 0 128 128 0 255
2.06875 1.04913 3.78981 0 0 0 128 128 0 255
2.07712 1.08664 3.78161 0 0 0 128 128 0 255
2.07799 0.556843 3.77414 0 0 0 128 128 0 255
2.09928 1.05721 3.7604 0 0 0 128 128 0 255
2.07808 0.385614 3.77256 0 0 0 128 128 0 255
2.08759 0.508203 3.76572 0 0 0 128 128 0 255
2.09006 0.551109 3.76403 0 0 0 128 128 0 255
2.08476 0.397231 3.76723 0 0 0 128 128 0 255
2.11141 1.05147 3.75036 0 0 0 128 128 0 255
2.08559 0.398183 3.76659 0 0 0 128 128 0 255
2.11947 1.1351 3.74461 0 0 0 128 128 0 255
2.11986 1.06399 3.74396 0 0 0 128 128 0 255
2.09621 0.44562 3.75873 0 0 0 128 128 0 255
2.10301 0.55636 3.7542 0 0 0 128 128 0 255
2.12357 1.05577 3.74121 0 0 0 128 128 0 255
2.09954 0.427407 3.75623 0 0 0 128 128 0 255
2.13503 1.18026 3.73349 0 0 0 128 128 0 255
2.11002 0.526926 3.74915 0 0 0 128 128 0 255
2.13323 1.05121 3.73444 0 0 0 128 128 0 255
2.11226 0.499769 3.74758 0 0 0 128 128 0 255
2.11171 0.485784 3.74793 0 0 0 128 128 0 255
2.11448 0.51366 3.74612 0 0 0 128 128 0 255
2.11073 0.418764 3.74848 0 0 0 128 128 0 255
2.11049 0.41277 3.74863 0 0 0 128 128 0 255
2.11366 0.450635 3.74659 0 0 0 128 128 0 255
2.11299 0.433654 3.74701 0 0 0 128 128 0 255
2.11129 0.390701 3.74808 0 0 0 128 128 0 255
2.1242 0.525134 3.73989 0 0 0 128 128 0 255
2.16012 1.36907 3.71736 0 0 0 128 128 0 255
2.12778 0.550966 3.73768 0 0 0 128 128 0 255
2.12192 0.381104 3.74138 0 0 0 128 128 0 255
2.12814 0.494887 3.73752 0 0 0 128 128 0 255
2.12576 0.41293 3.73905 0 0 0 128 128 0 255
2.15597 1.06798 3.72025 0 0 0 128 128 0 255
2.12916 0.389721 3.7371 0 0 0 128 128 0 255
2.15767 1.08891 3.71923 0 0 0 128 128 0 255
2.15878 1.05081 3.7187 0 0 0 128 128 0 255
2.1403 0.539279 3.73043 0 0 0 128 128 0 255
2.16196 1.04264 3.71696 0 0 0 128 128 0 255
2.14071 0.505223 3.73031 0 0 0 128 128 0 255
2.13796 0.413276 3.73211 0 0 0 128 128 0 255
2.13768 0.406284 3.73229 0 0 0 128 128 0 255
2.14203 0.427075 3.72988 0 0 0 128 128 0 255
2.17282 1.16118 3.71071 0 0 0 128 128 0 255
2.148 0.4658 3.72661 0 0 0 128 128 0 255
2.14889 0.465754 3.72615 0 0 0 128 128 0 255
2.15512 0.555516 3.72257 0 0 0 128 128 0 255
2.1542 0.50952 3.72327 0 0 0 128 128 0 255
2.15676 0.551428 3.72179 0 0 0 128 128 0 255
2.15434 0.467473 3.72343 0 0 0 128 128 0 255
2.15853 0.482271 3.72133 0 0 0 128 128 0 255
2.15462 0.383379 3.72378 0 0 0 128 128 0 255
2.16349 0.53907 3.71864 0 0 0 128 128 0 255
2.19856 1.38006 3.69691 0 0 0 128 128 0 255
2.1614 0.394043 3.72058 0 0 0 128 128 0 255
2.20482 1.39976 3.69397 0 0 0 128 128 0 255
2.17712 0.559402 3.71248 0 0 0 128 128 0 255
2.1775 0.52235 3.71263 0 0 0 128 128 0 255
2.20007 1.06971 3.69865 0 0 0 128 128 0 255
2.20121 1.05164 3.69835 0 0 0 128 128 0 255
2.20281 1.06857 3.69756 0 0 0 128 128 0 255
2.20448 1.0875 3.69672 0 0 0 128 128 0 255
2.17886 0.39217 3.71326 0 0 0 128 128 0 255
2.20971 1.12528 3.69432 0 0 0 128 128 0 255
2.20992 1.08323 3.69466 0 0 0 128 128 0 255
2.21507 1.16605 3.6919 0 0 0 128 128 0 255
2.21272 1.05908 3.69386 0 0 0 128 128 0 255
2.22692 1.39467 3.68519 0 0 0 128 128 0 255
2.21381 1.03901 3.69368 0 0 0 128 128 0 255
2.18909 0.413689 3.70921 0 0 0 128 128 0 255
2.18932 0.395663 3.70932 0 0 0 128 128 0 255
2.19662 0.556443 3.705 0 0 0 128 128 0 255
2.19518 0.424405 3.70696 0 0 0 128 128 0 255
2.19565 0.388353 3.70722 0 0 0 128 128 0 255
2.23313 1.24024 3.68481 0 0 0 128 128 0 255
2.20688 0.551949 3.7016 0 0 0 128 128 0 255
2.21723 0.765625 3.69569 0 0 0 128 128 0 255
2.23015 1.06825 3.68788 0 0 0 128 128 0 255
2.20915 0.512811 3.70138 0 0 0 128 128 0 255
2.23143 1.05218 3.68769 0 0 0 128 128 0 255
2.21213 0.539691 3.70013 0 0 0 128 128 0 255
2.20147 0.269985 3.70683 0 0 0 128 128 0 255
2.21645 0.52748 3.69902 0 0 0 128 128 0 255
2.20756 0.302725 3.7046 0 0 0 128 128 0 255
2.21571 0.484482 3.69982 0 0 0 128 128 0 255
2.22044 0.555315 3.69752 0 0 0 128 128 0 255
2.21953 0.53234 3.69809 0 0 0 128 128 0 255
2.21846 0.50537 3.69876 0 0 0 128 128 0 255
2.24596 1.17659 3.68182 0 0 0 128 128 0 255
2.22859 0.737073 3.69273 0 0 0 128 128 0 255
2.22732 0.705107 3.69353 0 0 0 128 128 0 255
2.22002 0.520309 3.69812 0 0 0 128 128 0 255
2.20956 0.255597 3.70469 0 0 0 128 128 0 255
2.22 0.495291 3.69848 0 0 0 128 128 0 255
2.21178 0.287518 3.70364 0 0 0 128 128 0 255
2.23139 0.758959 3.69167 0 0 0 128 128 0 255
2.21411 0.297418 3.70287 0 0 0 128 128 0 255
2.21288 0.266451 3.70364 0 0 0 128 128 0 255
2.24704 1.08147 3.68289 0 0 0 128 128 0 255
2.24678 1.05046 3.68341 0 0 0 128 128 0 255
2.22339 0.434091 3.69847 0 0 0 128 128 0 255
2.23537 0.712743 3.6913 0 0 0 128 128 0 255
2.23431 0.685772 3.69197 0 0 0 128 128 0 255
2.22846 0.537933 3.69565 0 0 0 128 128 0 255
2.22125 0.257062 3.70167 0 0 0 128 128 0 255
2.23706 0.558557 3.69327 0 0 0 128 128 0 255
2.23438 0.490631 3.69496 0 0 0 128 128 0 255
2.24511 0.737318 3.68861 0 0 0 128 128 0 255
2.26689 1.2637 3.67531 0 0 0 128 128 0 255
2.22854 0.268741 3.69981 0 0 0 128 128 0 255
2.25 0.762115 3.68713 0 0 0 128 128 0 255
2.24292 0.558294 3.69199 0 0 0 128 128 0 255
2.23261 0.297578 3.69847 0 0 0 128 128 0 255
2.23206 0.283593 3.69881 0 0 0 128 128 0 255
2.2444 0.546219 3.69188 0 0 0 128 128 0 255
2.2352 0.313473 3.69766 0 0 0 128 128 0 255
2.25161 0.678987 3.68819 0 0 0 128 128 0 255
2.2734 1.20537 3.67492 0 0 0 128 128 0 255
2.25598 0.714818 3.68672 0 0 0 128 128 0 255
2.25727 0.722766 3.68634 0 0 0 128 128 0 255
2.27818 1.07708 3.67631 0 0 0 128 128 0 255
2.28682 1.24581 3.67179 0 0 0 128 128 0 255
2.27991 1.071 3.67614 0 0 0 128 128 0 255
2.26712 0.722334 3.68464 0 0 0 128 128 0 255
2.25302 0.290676 3.6949 0 0 0 128 128 0 255
2.28651 1.06271 3.67528 0 0 0 128 128 0 255
2.25864 0.307444 3.69377 0 0 0 128 128 0 255
2.28999 1.07556 3.67455 0 0 0 128 128 0 255
2.27653 0.734936 3.68301 0 0 0 128 128 0 255
2.28964 1.04156 3.67526 0 0 0 128 128 0 255
2.27412 0.648987 3.68501 0 0 0 128 128 0 255
2.26884 0.490118 3.68883 0 0 0 128 128 0 255
2.27153 0.508014 3.68814 0 0 0 128 128 0 255
2.28279 0.767688 3.68157 0 0 0 128 128 0 255
2.29607 1.05329 3.67424 0 0 0 128 128 0 255
2.27546 0.506846 3.6877 0 0 0 128 128 0 255
2.26567 0.259116 3.69385 0 0 0 128 128 0 255
2.27154 0.281882 3.69276 0 0 0 128 128 0 255
2.29102 0.749331 3.68105 0 0 0 128 128 0 255
2.28194 0.519581 3.68676 0 0 0 128 128 0 255
2.27664 0.385727 3.69008 0 0 0 128 128 0 255
2.30362 1.04297 3.67366 0 0 0 128 128 0 255
2.28468 0.538477 3.6861 0 0 0 128 128 0 255
2.28128 0.452571 3.68824 0 0 0 128 128 0 255
2.30727 1.08484 3.67244 0 0 0 128 128 0 255
2.28634 0.555417 3.68559 0 0 0 128 128 0 255
2.28306 0.472507 3.68765 0 0 0 128 128 0 255
2.28615 0.525408 3.68625 0 0 0 128 128 0 255
2.30907 1.05475 3.67294 0 0 0 128 128 0 255
2.27958 0.308562 3.69148 0 0 0 128 128 0 255
2.28436 0.404416 3.68902 0 0 0 128 128 0 255
2.31206 1.05463 3.67272 0 0 0 128 128 0 255
2.29872 0.716993 3.68111 0 0 0 128 128 0 255
2.2926 0.562162 3.68495 0 0 0 128 128 0 255
2.28946 0.432221 3.68804 0 0 0 128 128 0 255
2.31596 1.07748 3.67195 0 0 0 128 128 0 255
2.3036 0.764818 3.67972 0 0 0 128 128 0 255
2.28895 0.394221 3.68892 0 0 0 128 128 0 255
2.28883 0.391225 3.689 0 0 0 128 128 0 255
2.28561 0.2843 3.69159 0 0 0 128 128 0 255
2.31661 1.04343 3.67268 0 0 0 128 128 0 255
2.29047 0.382152 3.6891 0 0 0 128 128 0 255
2.29637 0.505977 3.68597 0 0 0 128 128 0 255
2.28638 0.253252 3.69225 0 0 0 128 128 0 255
2.289 0.269153 3.69175 0 0 0 128 128 0 255
2.2977 0.463901 3.68687 0 0 0 128 128 0 255
2.32968 1.12094 3.67032 0 0 0 128 128 0 255
2.30177 0.389699 3.68845 0 0 0 128 128 0 255
2.30815 0.500498 3.68565 0 0 0 128 128 0 255
2.33517 1.15874 3.66928 0 0 0 128 128 0 255
2.30345 0.30559 3.69044 0 0 0 128 128 0 255
2.30441 0.304551 3.69046 0 0 0 128 128 0 255
2.30685 0.290448 3.69079 0 0 0 128 128 0 255
2.33881 1.07356 3.67133 0 0 0 128 128 0 255
2.33025 0.831779 3.67734 0 0 0 128 128 0 255
2.32051 0.560036 3.6841 0 0 0 128 128 0 255
2.31039 0.253291 3.69173 0 0 0 128 128 0 255
2.31747 0.407084 3.68792 0 0 0 128 128 0 255
2.31162 0.259245 3.6916 0 0 0 128 128 0 255
2.34398 1.05234 3.67191 0 0 0 128 128 0 255
2.31349 0.281182 3.69107 0 0 0 128 128 0 255
2.35098 1.20414 3.66816 0 0 0 128 128 0 255
2.31423 0.249139 3.6919 0 0 0 128 128 0 255
2.33367 0.715592 3.68034 0 0 0 128 128 0 255
2.33736 0.758468 3.67933 0 0 0 128 128 0 255
2.35052 1.06609 3.67172 0 0 0 128 128 0 255
2.32051 0.306921 3.69058 0 0 0 128 128 0 255
2.33214 0.550579 3.6846 0 0 0 128 128 0 255
2.32932 0.428634 3.68771 0 0 0 128 128 0 255
2.3605 1.16675 3.66947 0 0 0 128 128 0 255
2.32532 0.276723 3.69158 0 0 0 128 128 0 255
2.32476 0.262739 3.69192 0 0 0 128 128 0 255
2.35986 1.07474 3.67192 0 0 0 128 128 0 255
2.3597 1.07074 3.67201 0 0 0 128 128 0 255
2.33368 0.412461 3.68837 0 0 0 128 128 0 255
2.32835 0.277608 3.69172 0 0 0 128 128 0 255
2.34787 0.74606 3.68014 0 0 0 128 128 0 255
2.33844 0.482309 3.68675 0 0 0 128 128 0 255
2.33699 0.420339 3.68836 0 0 0 128 128 0 255
2.34328 0.554155 3.6851 0 0 0 128 128 0 255
2.35344 0.760855 3.68011 0 0 0 128 128 0 255
2.34169 0.438169 3.6882 0 0 0 128 128 0 255
2.34122 0.401172 3.6892 0 0 0 128 128 0 255
2.35892 0.823674 3.67878 0 0 0 128 128 0 255
2.3447 0.464066 3.68772 0 0 0 128 128 0 255
2.35656 0.738729 3.68098 0 0 0 128 128 0 255
2.35597 0.723746 3.68135 0 0 0 128 128 0 255
2.34039 0.254146 3.69328 0 0 0 128 128 0 255
2.38177 1.19997 3.67018 0 0 0 128 128 0 255
2.36447 0.762444 3.68105 0 0 0 128 128 0 255
2.36396 0.749459 3.68137 0 0 0 128 128 0 255
2.35645 0.559665 3.68609 0 0 0 128 128 0 255
2.3473 0.302908 3.69257 0 0 0 128 128 0 255
2.34806 0.271869 3.69356 0 0 0 128 128 0 255
2.36813 0.729298 3.68243 0 0 0 128 128 0 255
2.3564 0.432621 3.6898 0 0 0 128 128 0 255
2.36873 0.719273 3.6828 0 0 0 128 128 0 255
2.36245 0.560446 3.68674 0 0 0 128 128 0 255
2.36238 0.533439 3.68754 0 0 0 128 128 0 255
2.36159 0.513461 3.68803 0 0 0 128 128 0 255
2.39121 1.23764 3.67017 0 0 0 128 128 0 255
2.38805 1.15772 3.67215 0 0 0 128 128 0 255
2.37257 0.74114 3.68263 0 0 0 128 128 0 255
2.36749 0.562263 3.68733 0 0 0 128 128 0 255
2.35655 0.285565 3.69421 0 0 0 128 128 0 255
2.36398 0.423343 3.69106 0 0 0 128 128 0 255
2.36978 0.545175 3.68817 0 0 0 128 128 0 255
2.36773 0.443215 3.691 0 0 0 128 128 0 255
2.36106 0.249391 3.69596 0 0 0 128 128 0 255
2.39407 1.03447 3.67677 0 0 0 128 128 0 255
2.3908 0.951555 3.67882 0 0 0 128 128 0 255
2.36521 0.304261 3.6949 0 0 0 128 128 0 255
2.36351 0.261307 3.69597 0 0 0 128 128 0 255
2.38542 0.765688 3.68376 0 0 0 128 128 0 255
2.38455 0.718704 3.68509 0 0 0 128 128 0 255
2.378 0.552885 3.68921 0 0 0 128 128 0 255
2.39818 1.03832 3.67731 0 0 0 128 128 0 255
2.39075 0.800511 3.68356 0 0 0 128 128 0 255
2.37862 0.44383 3.69277 0 0 0 128 128 0 255
2.40468 1.0781 3.67719 0 0 0 128 128 0 255
2.40586 1.08306 3.67725 0 0 0 128 128 0 255
2.38445 0.541655 3.6907 0 0 0 128 128 0 255
2.38078 0.423749 3.69381 0 0 0 128 128 0 255
2.3863 0.538589 3.69115 0 0 0 128 128 0 255
2.37678 0.297852 3.69713 0 0 0 128 128 0 255
2.40675 1.03102 3.67911 0 0 0 128 128 0 255
2.38155 0.393713 3.69494 0 0 0 128 128 0 255
2.37839 0.3138 3.69692 0 0 0 128 128 0 255
2.41534 1.19877 3.67533 0 0 0 128 128 0 255
2.41104 1.08989 3.67803 0 0 0 128 128 0 255
2.40962 1.05393 3.67892 0 0 0 128 128 0 255
2.40934 1.04693 3.6791 0 0 0 128 128 0 255
2.39469 0.676337 3.6883 0 0 0 128 128 0 255
2.41884 1.23766 3.67476 0 0 0 128 128 0 255
2.38315 0.260622 3.69964 0 0 0 128 128 0 255
2.38264 0.247636 3.69997 0 0 0 128 128 0 255
2.38488 0.279568 3.69938 0 0 0 128 128 0 255
2.41579 1.03671 3.68079 0 0 0 128 128 0 255
2.38886 0.355452 3.69771 0 0 0 128 128 0 255
2.3859 0.280534 3.69957 0 0 0 128 128 0 255
2.40294 0.687058 3.68969 0 0 0 128 128 0 255
2.39382 0.456309 3.69542 0 0 0 128 128 0 255
2.3877 0.301478 3.69927 0 0 0 128 128 0 255
2.40845 0.776894 3.6879 0 0 0 128 128 0 255
2.39885 0.534158 3.69393 0 0 0 128 128 0 255
2.39344 0.397307 3.69733 0 0 0 128 128 0 255
2.39036 0.319392 3.69927 0 0 0 128 128 0 255
2.38851 0.272443 3.70043 0 0 0 128 128 0 255
2.40046 0.550108 3.69376 0 0 0 128 128 0 255
2.42395 1.07044 3.68152 0 0 0 128 128 0 255
2.39299 0.287296 3.70098 0 0 0 128 128 0 255
2.42583 1.04437 3.68288 0 0 0 128 128 0 255
2.40068 0.408067 3.69869 0 0 0 128 128 0 255
2.40299 0.441997 3.69809 0 0 0 128 128 0 255
2.39592 0.263192 3.70253 0 0 0 128 128 0 255
2.41668 0.763615 3.69035 0 0 0 128 128 0 255
2.40651 0.48189 3.69759 0 0 0 128 128 0 255
2.40481 0.389926 3.70038 0 0 0 128 128 0 255
2.41205 0.548721 3.69669 0 0 0 128 128 0 255
2.4021 0.296995 3.70295 0 0 0 128 128 0 255
2.4112 0.502739 3.6981 0 0 0 128 128 0 255
2.41293 0.497682 3.69875 0 0 0 128 128 0 255
2.44829 1.3677 3.6774 0 0 0 128 128 0 255
2.41687 0.548564 3.69802 0 0 0 128 128 0 255
2.41249 0.437684 3.70077 0 0 0 128 128 0 255
2.41187 0.397697 3.70204 0 0 0 128 128 0 255
2.4071 0.252823 3.70591 0 0 0 128 128 0 255
2.41732 0.462533 3.70126 0 0 0 128 128 0 255
2.4413 1.04487 3.68708 0 0 0 128 128 0 255
2.42092 0.529429 3.69988 0 0 0 128 128 0 255
2.41792 0.453512 3.70177 0 0 0 128 128 0 255
2.42275 0.551374 3.69962 0 0 0 128 128 0 255
2.42272 0.526371 3.70053 0 0 0 128 128 0 255
2.41853 0.420486 3.70316 0 0 0 128 128 0 255
2.41198 0.254667 3.70728 0 0 0 128 128 0 255
2.42296 0.50836 3.70127 0 0 0 128 128 0 255
2.42146 0.470401 3.70221 0 0 0 128 128 0 255
2.41905 0.409468 3.70373 0 0 0 128 128 0 255
2.41803 0.383496 3.70437 0 0 0 128 128 0 255
2.44766 1.08467 3.68754 0 0 0 128 128 0 255
2.4276 0.55322 3.70104 0 0 0 128 128 0 255
2.42319 0.417338 3.70472 0 0 0 128 128 0 255
2.4343 0.55401 3.70318 0 0 0 128 128 0 255
2.43819 0.532886 3.70533 0 0 0 128 128 0 255
2.43333 0.41002 3.70838 0 0 0 128 128 0 255
2.43235 0.385047 3.709 0 0 0 128 128 0 255
2.46179 1.08223 3.69235 0 0 0 128 128 0 255
2.46297 1.08819 3.69254 0 0 0 128 128 0 255
2.43717 0.3879 3.71062 0 0 0 128 128 0 255
2.44739 0.551608 3.70795 0 0 0 128 128 0 255
2.44163 0.405767 3.71157 0 0 0 128 128 0 255
2.44871 0.537567 3.70901 0 0 0 128 128 0 255
2.45085 0.4975 3.71146 0 0 0 128 128 0 255
2.44631 0.382625 3.71432 0 0 0 128 128 0 255
2.45391 0.551414 3.71049 0 0 0 128 128 0 255
2.44997 0.381517 3.71584 0 0 0 128 128 0 255
2.45794 0.536294 3.71276 0 0 0 128 128 0 255
2.45468 0.430383 3.71578 0 0 0 128 128 0 255
2.45433 0.398391 3.71696 0 0 0 128 128 0 255
2.45577 0.41135 3.71703 0 0 0 128 128 0 255
2.48152 1.03964 3.70182 0 0 0 128 128 0 255
2.46111 0.523202 3.71465 0 0 0 128 128 0 255
2.48285 1.0266 3.70294 0 0 0 128 128 0 255
2.49345 1.2023 3.70019 0 0 0 128 128 0 255
2.48745 1.05047 3.70396 0 0 0 128 128 0 255
2.49227 1.08034 3.70488 0 0 0 128 128 0 255
2.49506 1.08226 3.7061 0 0 0 128 128 0 255
2.49804 1.06618 3.70823 0 0 0 128 128 0 255
2.49943 1.03314 3.71037 0 0 0 128 128 0 255
2.47411 0.279837 3.73134 0 0 0 128 128 0 255
2.48084 0.427653 3.72812 0 0 0 128 128 0 255
2.48659 0.550495 3.72553 0 0 0 128 128 0 255
2.4762 0.287781 3.73206 0 0 0 128 128 0 255
2.48361 0.385581 3.73149 0 0 0 128 128 0 255
2.49089 0.547382 3.72795 0 0 0 128 128 0 255
2.48724 0.388487 3.73333 0 0 0 128 128 0 255
2.48808 0.387465 3.73383 0 0 0 128 128 0 255
2.49244 0.409352 3.73524 0 0 0 128 128 0 255
2.48703 0.272501 3.73864 0 0 0 128 128 0 255
2.49887 0.550176 3.73224 0 0 0 128 128 0 255
2.49433 0.435301 3.73509 0 0 0 128 128 0 255
2.49429 0.390307 3.73721 0 0 0 128 128 0 255
2.49926 0.494172 3.73513 0 0 0 128 128 0 255
2.49195 0.309373 3.73972 0 0 0 128 128 0 255
2.50476 0.481037 3.73903 0 0 0 128 128 0 255
2.50431 0.448052 3.74037 0 0 0 128 128 0 255
2.5305 1.06734 3.72603 0 0 0 128 128 0 255
2.50676 0.46699 3.74094 0 0 0 128 128 0 255
2.50515 0.426035 3.74196 0 0 0 128 128 0 255
2.50438 0.385059 3.74351 0 0 0 128 128 0 255
2.5119 0.553855 3.73984 0 0 0 128 128 0 255
2.5115 0.543865 3.74009 0 0 0 128 128 0 255
2.50781 0.42897 3.74348 0 0 0 128 128 0 255
2.51179 0.486867 3.74311 0 0 0 128 128 0 255
2.50971 0.412928 3.74548 0 0 0 128 128 0 255
2.50477 0.288064 3.74858 0 0 0 128 128 0 255
2.51019 0.403918 3.74625 0 0 0 128 128 0 255
2.53626 1.0422 3.73094 0 0 0 128 128 0 255
2.51433 0.423818 3.74794 0 0 0 128 128 0 255
2.51816 0.415732 3.75093 0 0 0 128 128 0 255
2.52219 0.496625 3.74948 0 0 0 128 128 0 255
2.54556 1.06699 3.73588 0 0 0 128 128 0 255
2.52416 0.525575 3.74933 0 0 0 128 128 0 255
2.52082 0.399675 3.75359 0 0 0 128 128 0 255
2.52571 0.502545 3.75161 0 0 0 128 128 0 255
2.51875 0.305742 3.75707 0 0 0 128 128 0 255
2.55284 1.04483 3.74221 0 0 0 128 128 0 255
2.53757 0.436311 3.76394 0 0 0 128 128 0 255
2.56343 1.03062 3.75103 0 0 0 128 128 0 255
2.53938 0.402285 3.76726 0 0 0 128 128 0 255
2.54349 0.44719 3.76802 0 0 0 128 128 0 255
2.54504 0.44716 3.76928 0 0 0 128 128 0 255
2.54259 0.385228 3.77082 0 0 0 128 128 0 255
2.56888 1.03051 3.75543 0 0 0 128 128 0 255
2.54637 0.46113 3.76957 0 0 0 128 128 0 255
2.54534 0.396172 3.77246 0 0 0 128 128 0 255
2.54685 0.37615 3.77488 0 0 0 128 128 0 255
2.55656 0.544911 3.77329 0 0 0 128 128 0 255
2.58778 1.07116 3.76957 0 0 0 128 128 0 255
2.56835 0.54271 3.78407 0 0 0 128 128 0 255
2.56825 0.521722 3.78528 0 0 0 128 128 0 255
2.56763 0.378799 3.79369 0 0 0 128 128 0 255
2.57702 0.544577 3.7924 0 0 0 128 128 0 255
2.56999 0.260827 3.80374 0 0 0 128 128 0 255
2.64407 0.903776 3.85107 0 0 0 128 128 0 255
2.6616 0.891908 3.88481 0 0 0 128 128 0 255
2.66281 0.900909 3.8864 0 0 0 128 128 0 255
2.66426 0.905922 3.889 0 0 0 128 128 0 255
2.66531 0.890964 3.89302 0 0 0 128 128 0 255
2.6718 0.872135 3.91105 0 0 0 128 128 0 255
2.67145 0.751395 3.92628 0 0 0 128 128 0 255
2.6574 0.379821 3.9374 0 0 0 128 128 0 255
2.66004 0.414828 3.94033 0 0 0 128 128 0 255
2.67699 0.727686 3.94789 0 0 0 128 128 0 255
2.68934 1.03337 3.94126 0 0 0 128 128 0 255
2.66514 0.421034 3.95647 0 0 0 128 128 0 255
2.66626 0.386213 3.96702 0 0 0 128 128 0 255
2.66886 0.406314 3.97431 0 0 0 128 128 0 255
2.66914 0.397371 3.97747 0 0 0 128 128 0 255
2.66955 0.382469 3.98274 0 0 0 128 128 0 255
2.67335 0.420655 3.99458 0 0 0 128 128 0 255
2.67665 0.442978 4.01187 0 0 0 128 128 0 255
2.67752 0.452071 4.01662 0 0 0 128 128 0 255
2.67706 0.438107 4.01796 0 0 0 128 128 0 255
2.67817 0.453219 4.02356 0 0 0 128 128 0 255
2.67379 0.333459 4.03153 0 0 0 128 128 0 255
2.67885 0.458368 4.03042 0 0 0 128 128 0 255
2.67409 0.332596 4.03754 0 0 0 128 128 0 255
2.69246 0.793187 4.0301 0 0 0 128 128 0 255
2.69261 0.793305 4.0351 0 0 0 128 128 0 255
2.67517 0.349958 4.05311 0 0 0 128 128 0 255
2.66877 0.351939 4.12268 0 0 0 128 128 0 255
