ply
format ascii 1.0
comment VCGLIB generated
element vertex 139
property float x
property float y
property float z
property float nx
property float ny
property float nz
property uchar red
property uchar green
property uchar blue
property uchar alpha
element face 0
property list uchar int vertex_indices
end_header
3.6621 0.803708 3.96508 0 0 0 255 0 255 255
3.52645 0.702807 4.11807 0 0 0 255 0 255 255
3.53233 0.708907 4.11845 0 0 0 255 0 255 255
3.61027 0.770249 4.04184 0 0 0 255 0 255 255
3.56958 0.739827 4.08703 0 0 0 255 0 255 255
3.65249 0.802189 3.99603 0 0 0 255 0 255 255
3.61963 0.779222 4.03675 0 0 0 255 0 255 255
3.62407 0.784717 4.03693 0 0 0 255 0 255 255
3.57025 0.758101 4.1195 0 0 0 255 0 255 255
3.57938 0.765563 4.11018 0 0 0 255 0 255 255
3.58431 0.769897 4.1055 0 0 0 255 0 255 255
3.60711 0.790267 4.08407 0 0 0 255 0 255 255
3.57063 0.767206 4.12898 0 0 0 255 0 255 255
3.57027 0.769135 4.13146 0 0 0 255 0 255 255
3.59913 0.792206 4.10076 0 0 0 255 0 255 255
3.62172 0.846038 4.09565 0 0 0 255 0 255 255
3.67617 0.893818 4.03691 0 0 0 255 0 255 255
3.60209 0.872258 4.1212 0 0 0 255 0 255 255
3.63324 0.901323 4.08606 0 0 0 255 0 255 255
3.59965 0.882059 4.12259 0 0 0 255 0 255 255
3.55535 0.856055 4.17052 0 0 0 255 0 255 255
3.51202 0.826054 4.21814 0 0 0 255 0 255 255
3.50125 0.832518 4.22634 0 0 0 255 0 255 255
3.45862 0.80555 4.27211 0 0 0 255 0 255 255
3.54741 0.874375 4.17269 0 0 0 255 0 255 255
3.49713 0.836795 4.22852 0 0 0 255 0 255 255
3.49586 0.843249 4.2272 0 0 0 255 0 255 255
3.47513 0.831465 4.24875 0 0 0 255 0 255 255
3.54706 0.887724 4.16783 0 0 0 255 0 255 255
3.39547 0.790599 4.32856 0 0 0 255 0 255 255
3.51338 0.881239 4.19633 0 0 0 255 0 255 255
3.46605 0.853347 4.24477 0 0 0 255 0 255 255
3.4073 0.814417 4.3071 0 0 0 255 0 255 255
3.61371 0.971205 4.07639 0 0 0 255 0 255 255
3.46584 0.861916 4.23982 0 0 0 255 0 255 255
3.4045 0.823511 4.30317 0 0 0 255 0 255 255
3.4806 0.897636 4.20643 0 0 0 255 0 255 255
3.56221 0.96956 4.10715 0 0 0 255 0 255 255
3.52341 0.945355 4.1462 0 0 0 255 0 255 255
3.58286 0.993372 4.07708 0 0 0 255 0 255 255
3.39075 0.849762 4.29041 0 0 0 255 0 255 255
3.62282 1.02443 4.03165 0 0 0 255 0 255 255
3.57734 0.990431 4.08216 0 0 0 255 0 255 255
3.55328 0.978346 4.10353 0 0 0 255 0 255 255
3.51453 0.952882 4.14327 0 0 0 255 0 255 255
3.44181 0.900839 4.22181 0 0 0 255 0 255 255
3.63556 1.04683 4.00554 0 0 0 255 0 255 255
3.48861 0.939286 4.16645 0 0 0 255 0 255 255
3.52805 0.973337 4.11806 0 0 0 255 0 255 255
3.50907 0.965895 4.13207 0 0 0 255 0 255 255
3.43486 0.910419 4.21447 0 0 0 255 0 255 255
3.39667 0.888493 4.24959 0 0 0 255 0 255 255
3.36944 0.876739 4.26982 0 0 0 255 0 255 255
3.45684 0.94523 4.16892 0 0 0 255 0 255 255
3.44708 0.94515 4.17062 0 0 0 255 0 255 255
3.52109 1.01037 4.07502 0 0 0 255 0 255 255
3.40258 0.92465 4.20251 0 0 0 255 0 255 255
3.46441 0.975548 4.12693 0 0 0 255 0 255 255
3.39917 0.926783 4.19937 0 0 0 255 0 255 255
3.39837 0.927104 4.19887 0 0 0 255 0 255 255
3.34012 0.88447 4.26216 0 0 0 255 0 255 255
3.33451 0.886527 4.2585 0 0 0 255 0 255 255
3.52207 1.03836 4.03005 0 0 0 255 0 255 255
3.60847 1.11871 3.90163 0 0 0 255 0 255 255
3.53262 1.07294 3.9575 0 0 0 255 0 255 255
3.69765 1.19921 3.76529 0 0 0 255 0 255 255
3.2991 0.903499 4.20042 0 0 0 255 0 255 255
3.26141 0.87773 4.23339 0 0 0 255 0 255 255
3.26646 0.882955 4.22189 0 0 0 255 0 255 255
3.50221 1.06227 3.9455 0 0 0 255 0 255 255
3.47638 1.04349 3.97128 0 0 0 255 0 255 255
3.44675 1.02381 3.98703 0 0 0 255 0 255 255
3.47129 1.04273 3.95416 0 0 0 255 0 255 255
3.63778 1.1678 3.76095 0 0 0 255 0 255 255
3.59704 1.13771 3.79128 0 0 0 255 0 255 255
3.47443 1.04604 3.9261 0 0 0 255 0 255 255
3.65374 1.17827 3.70262 0 0 0 255 0 255 255
3.66277 1.18426 3.6877 0 0 0 255 0 255 255
3.24341 0.870568 4.15217 0 0 0 255 0 255 255
3.46898 1.03852 3.89809 0 0 0 255 0 255 255
3.65889 1.18025 3.68602 0 0 0 255 0 255 255
3.46977 1.03887 3.89602 0 0 0 255 0 255 255
3.6549 1.17701 3.68927 0 0 0 255 0 255 255
3.23119 0.859487 4.15627 0 0 0 255 0 255 255
3.47423 1.04031 3.88294 0 0 0 255 0 255 255
3.68056 1.19394 3.65155 0 0 0 255 0 255 255
3.69002 1.20036 3.63881 0 0 0 255 0 255 255
3.22225 0.850356 4.15712 0 0 0 255 0 255 255
3.22621 0.851156 4.14619 0 0 0 255 0 255 255
3.2495 0.866123 4.11404 0 0 0 255 0 255 255
3.66575 1.17685 3.65079 0 0 0 255 0 255 255
3.60795 1.12733 3.70232 0 0 0 255 0 255 255
3.59871 1.11651 3.70628 0 0 0 255 0 255 255
3.23065 0.841367 4.115 0 0 0 255 0 255 255
3.71882 1.20571 3.57204 0 0 0 255 0 255 255
3.32526 0.910307 4.00736 0 0 0 255 0 255 255
3.32671 0.91017 4.00406 0 0 0 255 0 255 255
3.32462 0.904761 4.00155 0 0 0 255 0 255 255
3.57978 1.08252 3.70547 0 0 0 255 0 255 255
3.65544 1.11491 3.60732 0 0 0 255 0 255 255
3.59844 1.06849 3.66919 0 0 0 255 0 255 255
3.27435 0.816337 4.02616 0 0 0 255 0 255 255
3.27299 0.798545 4.02499 0 0 0 255 0 255 255
3.57207 1.00659 3.69256 0 0 0 255 0 255 255
3.60581 1.02494 3.65554 0 0 0 255 0 255 255
3.5569 0.980235 3.71081 0 0 0 255 0 255 255
3.56066 0.977143 3.7076 0 0 0 255 0 255 255
3.64371 1.03446 3.61633 0 0 0 255 0 255 255
3.22549 0.702418 4.08604 0 0 0 255 0 255 255
3.69509 1.051 3.56541 0 0 0 255 0 255 255
3.76959 1.09185 3.48845 0 0 0 255 0 255 255
3.80066 1.11383 3.45449 0 0 0 255 0 255 255
3.7653 1.08615 3.4943 0 0 0 255 0 255 255
3.80871 1.10114 3.4547 0 0 0 255 0 255 255
3.24793 0.681941 4.07741 0 0 0 255 0 255 255
3.77524 1.07113 3.49464 0 0 0 255 0 255 255
3.76746 1.06531 3.50328 0 0 0 255 0 255 255
3.66118 0.975896 3.62725 0 0 0 255 0 255 255
3.82867 1.08994 3.44859 0 0 0 255 0 255 255
3.2511 0.649568 4.09609 0 0 0 255 0 255 255
3.83232 1.08282 3.45159 0 0 0 255 0 255 255
3.78119 1.02763 3.52187 0 0 0 255 0 255 255
3.68835 0.953459 3.62909 0 0 0 255 0 255 255
3.81324 1.03391 3.50229 0 0 0 255 0 255 255
3.82395 1.02603 3.50664 0 0 0 255 0 255 255
3.72528 0.944578 3.62477 0 0 0 255 0 255 255
3.68518 0.914603 3.66929 0 0 0 255 0 255 255
3.72676 0.930925 3.64099 0 0 0 255 0 255 255
3.85743 1.02758 3.49721 0 0 0 255 0 255 255
3.72796 0.928767 3.64362 0 0 0 255 0 255 255
3.63898 0.861248 3.74375 0 0 0 255 0 255 255
3.7499 0.943161 3.62191 0 0 0 255 0 255 255
3.81055 0.987498 3.5559 0 0 0 255 0 255 255
3.74471 0.938286 3.62901 0 0 0 255 0 255 255
3.8742 1.02823 3.49469 0 0 0 255 0 255 255
3.82093 0.988418 3.55384 0 0 0 255 0 255 255
3.86545 1.01236 3.51826 0 0 0 255 0 255 255
3.66996 0.862638 3.74098 0 0 0 255 0 255 255
3.60716 0.759465 3.97159 0 0 0 255 0 255 255
