ply
format ascii 1.0
comment VCGLIB generated
element vertex 518
property float x
property float y
property float z
property float nx
property float ny
property float nz
property uchar red
property uchar green
property uchar blue
property uchar alpha
element face 0
property list uchar int vertex_indices
end_header
0.54469 0.108463 4.29908 0 0 0 0 255 255 255
0.730661 0.130168 4.30218 0 0 0 0 255 255 255
0.579925 0.139943 4.30261 0 0 0 0 255 255 255
0.575082 0.14411 4.30304 0 0 0 0 255 255 255
0.727237 0.145225 4.30379 0 0 0 0 255 255 255
0.711554 0.153788 4.30464 0 0 0 0 255 255 255
0.574694 0.160044 4.30475 0 0 0 0 255 255 255
0.71559 0.154628 4.30475 0 0 0 0 255 255 255
0.689183 0.170568 4.30636 0 0 0 0 255 255 255
0.529333 0.203578 4.30925 0 0 0 0 255 255 255
0.531408 0.205488 4.30946 0 0 0 0 255 255 255
0.411325 0.283735 4.31738 0 0 0 0 255 255 255
0.406711 0.293862 4.31845 0 0 0 0 255 255 255
0.40475 0.294932 4.31855 0 0 0 0 255 255 255
1.05577 0.282838 4.31995 0 0 0 0 255 255 255
1.05796 0.287729 4.32048 0 0 0 0 255 255 255
1.05995 0.287652 4.32048 0 0 0 0 255 255 255
0.941615 0.307127 4.32209 0 0 0 0 255 255 255
0.942532 0.330971 4.32465 0 0 0 0 255 255 255
1.09857 0.328952 4.32508 0 0 0 0 255 255 255
1.25849 0.323799 4.32519 0 0 0 0 255 255 255
1.17278 0.333064 4.32583 0 0 0 0 255 255 255
1.17282 0.334057 4.32594 0 0 0 0 255 255 255
0.995989 0.341851 4.32604 0 0 0 0 255 255 255
1.09495 0.339041 4.32615 0 0 0 0 255 255 255
1.19196 0.337302 4.32637 0 0 0 0 255 255 255
1.28589 0.33369 4.32637 0 0 0 0 255 255 255
0.948407 0.35363 4.32711 0 0 0 0 255 255 255
1.34723 0.341282 4.32744 0 0 0 0 255 255 255
1.36026 0.341776 4.32754 0 0 0 0 255 255 255
1.2174 0.348264 4.32765 0 0 0 0 255 255 255
1.40126 0.341195 4.32765 0 0 0 0 255 255 255
1.37839 0.345059 4.32797 0 0 0 0 255 255 255
1.19461 0.354115 4.32818 0 0 0 0 255 255 255
1.1167 0.358105 4.32829 0 0 0 0 255 255 255
1.15168 0.35676 4.32829 0 0 0 0 255 255 255
1.26667 0.354329 4.32851 0 0 0 0 255 255 255
1.44254 0.347568 4.32851 0 0 0 0 255 255 255
1.21475 0.357321 4.32861 0 0 0 0 255 255 255
1.22774 0.356821 4.32861 0 0 0 0 255 255 255
0.950017 0.369488 4.32883 0 0 0 0 255 255 255
1.05394 0.365493 4.32883 0 0 0 0 255 255 255
1.27681 0.357919 4.32893 0 0 0 0 255 255 255
1.5656 0.346816 4.32893 0 0 0 0 255 255 255
1.4827 0.350999 4.32904 0 0 0 0 255 255 255
1.28488 0.359599 4.32915 0 0 0 0 255 255 255
1.4548 0.354061 4.32925 0 0 0 0 255 255 255
1.48877 0.352755 4.32925 0 0 0 0 255 255 255
1.55372 0.350258 4.32925 0 0 0 0 255 255 255
1.22105 0.365038 4.32947 0 0 0 0 255 255 255
1.45399 0.359067 4.32979 0 0 0 0 255 255 255
1.50806 0.359973 4.33011 0 0 0 0 255 255 255
1.71718 0.358899 4.33086 0 0 0 0 255 255 255
1.70822 0.360238 4.33097 0 0 0 0 255 255 255
1.68835 0.363987 4.33129 0 0 0 0 255 255 255
1.69738 0.364635 4.33139 0 0 0 0 255 255 255
1.4546 0.374964 4.3315 0 0 0 0 255 255 255
1.70146 0.366468 4.33161 0 0 0 0 255 255 255
1.71245 0.366046 4.33161 0 0 0 0 255 255 255
1.73443 0.3652 4.33161 0 0 0 0 255 255 255
1.11512 0.394981 4.33225 0 0 0 0 255 255 255
1.18507 0.392291 4.33225 0 0 0 0 255 255 255
0.984253 0.401007 4.33236 0 0 0 0 255 255 255
1.09617 0.396704 4.33236 0 0 0 0 255 255 255
0.524707 0.421659 4.33268 0 0 0 0 255 255 255
1.1793 0.398483 4.33289 0 0 0 0 255 255 255
1.23326 0.396408 4.33289 0 0 0 0 255 255 255
1.37719 0.39187 4.333 0 0 0 0 255 255 255
1.57804 0.384148 4.333 0 0 0 0 255 255 255
1.4722 0.390207 4.33321 0 0 0 0 255 255 255
1.04659 0.40856 4.33343 0 0 0 0 255 255 255
1.22945 0.40153 4.33343 0 0 0 0 255 255 255
1.29041 0.399186 4.33343 0 0 0 0 255 255 255
1.37535 0.395921 4.33343 0 0 0 0 255 255 255
1.7051 0.383243 4.33343 0 0 0 0 255 255 255
1.72009 0.382667 4.33343 0 0 0 0 255 255 255
0.444187 0.4357 4.33386 0 0 0 0 255 255 255
1.2338 0.410318 4.33439 0 0 0 0 255 255 255
1.37277 0.406965 4.3346 0 0 0 0 255 255 255
1.62458 0.397283 4.3346 0 0 0 0 255 255 255
1.29486 0.410955 4.33471 0 0 0 0 255 255 255
1.44683 0.407102 4.33493 0 0 0 0 255 255 255
1.4908 0.405412 4.33493 0 0 0 0 255 255 255
1.62969 0.400072 4.33493 0 0 0 0 255 255 255
1.47085 0.407174 4.33503 0 0 0 0 255 255 255
1.62673 0.401181 4.33503 0 0 0 0 255 255 255
1.56482 0.404556 4.33514 0 0 0 0 255 255 255
1.71678 0.400704 4.33535 0 0 0 0 255 255 255
0.448834 0.452436 4.33567 0 0 0 0 255 255 255
1.40224 0.418766 4.336 0 0 0 0 255 255 255
1.5702 0.414299 4.33621 0 0 0 0 255 255 255
1.48929 0.418405 4.33632 0 0 0 0 255 255 255
1.45247 0.4238 4.33674 0 0 0 0 255 255 255
1.60436 0.417961 4.33674 0 0 0 0 255 255 255
1.45351 0.424755 4.33685 0 0 0 0 255 255 255
1.54844 0.421106 4.33685 0 0 0 0 255 255 255
1.49863 0.427001 4.33728 0 0 0 0 255 255 255
1.50763 0.426655 4.33728 0 0 0 0 255 255 255
1.56174 0.428554 4.33771 0 0 0 0 255 255 255
1.46792 0.435146 4.33803 0 0 0 0 255 255 255
1.6868 0.427726 4.33814 0 0 0 0 255 255 255
1.68899 0.432617 4.33867 0 0 0 0 255 255 255
1.33037 0.44939 4.33899 0 0 0 0 255 255 255
1.70521 0.437964 4.33931 0 0 0 0 255 255 255
1.65036 0.443057 4.33963 0 0 0 0 255 255 255
1.34574 0.458749 4.34006 0 0 0 0 255 255 255
1.07244 0.482191 4.34145 0 0 0 0 255 255 255
1.04965 0.488042 4.34199 0 0 0 0 255 255 255
1.07966 0.487883 4.34209 0 0 0 0 255 255 255
1.05971 0.489645 4.3422 0 0 0 0 255 255 255
1.17163 0.485342 4.3422 0 0 0 0 255 255 255
1.21364 0.484722 4.34231 0 0 0 0 255 255 255
1.05583 0.492779 4.34252 0 0 0 0 255 255 255
1.08589 0.493614 4.34274 0 0 0 0 255 255 255
1.06294 0.495491 4.34284 0 0 0 0 255 255 255
1.15787 0.491841 4.34284 0 0 0 0 255 255 255
1.15887 0.491803 4.34284 0 0 0 0 255 255 255
1.341 0.491765 4.34359 0 0 0 0 255 255 255
1.08573 0.51551 4.34509 0 0 0 0 255 255 255
1.15072 0.514006 4.3452 0 0 0 0 255 255 255
0.477253 0.540893 4.3453 0 0 0 0 255 255 255
1.09133 0.531214 4.3468 0 0 0 0 255 255 255
1.26447 0.531523 4.34755 0 0 0 0 255 255 255
0.473135 0.563936 4.34777 0 0 0 0 255 255 255
1.40045 0.528285 4.34777 0 0 0 0 255 255 255
0.486202 0.565424 4.34798 0 0 0 0 255 255 255
1.28661 0.534651 4.34798 0 0 0 0 255 255 255
0.489238 0.566302 4.34809 0 0 0 0 255 255 255
1.20079 0.540936 4.3483 0 0 0 0 255 255 255
1.33792 0.541634 4.34894 0 0 0 0 255 255 255
1.29898 0.544126 4.34905 0 0 0 0 255 255 255
1.42493 0.540279 4.34916 0 0 0 0 255 255 255
1.25013 0.548989 4.34937 0 0 0 0 255 255 255
1.11627 0.55513 4.34948 0 0 0 0 255 255 255
1.24118 0.550328 4.34948 0 0 0 0 255 255 255
1.20824 0.552589 4.34958 0 0 0 0 255 255 255
1.3991 0.545251 4.34958 0 0 0 0 255 255 255
0.464868 0.583159 4.3498 0 0 0 0 255 255 255
1.12142 0.558912 4.34991 0 0 0 0 255 255 255
1.09655 0.562853 4.35023 0 0 0 0 255 255 255
1.27942 0.555823 4.35023 0 0 0 0 255 255 255
1.51129 0.547903 4.35033 0 0 0 0 255 255 255
0.481085 0.588506 4.35044 0 0 0 0 255 255 255
1.10263 0.56461 4.35044 0 0 0 0 255 255 255
0.484121 0.589384 4.35055 0 0 0 0 255 255 255
1.25155 0.559879 4.35055 0 0 0 0 255 255 255
1.42842 0.553079 4.35055 0 0 0 0 255 255 255
1.49038 0.550697 4.35055 0 0 0 0 255 255 255
1.34356 0.558332 4.35076 0 0 0 0 255 255 255
1.34072 0.562421 4.35119 0 0 0 0 255 255 255
1.42366 0.559232 4.35119 0 0 0 0 255 255 255
1.56255 0.553892 4.35119 0 0 0 0 255 255 255
0.49342 0.596986 4.3514 0 0 0 0 255 255 255
1.53473 0.558942 4.35162 0 0 0 0 255 255 255
1.10012 0.577641 4.35183 0 0 0 0 255 255 255
1.50982 0.56189 4.35183 0 0 0 0 255 255 255
1.55087 0.562302 4.35205 0 0 0 0 255 255 255
1.42204 0.569244 4.35226 0 0 0 0 255 255 255
1.54895 0.564365 4.35226 0 0 0 0 255 255 255
1.27945 0.582686 4.35312 0 0 0 0 255 255 255
1.56528 0.572692 4.35322 0 0 0 0 255 255 255
1.38745 0.580524 4.35333 0 0 0 0 255 255 255
1.52734 0.575146 4.35333 0 0 0 0 255 255 255
0.469164 0.616824 4.35344 0 0 0 0 255 255 255
1.10869 0.592236 4.35344 0 0 0 0 255 255 255
1.54141 0.576595 4.35354 0 0 0 0 255 255 255
1.10277 0.594454 4.35365 0 0 0 0 255 255 255
1.42054 0.582237 4.35365 0 0 0 0 255 255 255
1.19782 0.593785 4.35397 0 0 0 0 255 255 255
1.54756 0.580339 4.35397 0 0 0 0 255 255 255
1.19805 0.599746 4.35461 0 0 0 0 255 255 255
1.29398 0.596058 4.35461 0 0 0 0 255 255 255
1.26607 0.599121 4.35483 0 0 0 0 255 255 255
1.25712 0.60046 4.35493 0 0 0 0 255 255 255
1.53491 0.58978 4.35493 0 0 0 0 255 255 255
1.465 0.593463 4.35504 0 0 0 0 255 255 255
1.41408 0.596415 4.35515 0 0 0 0 255 255 255
1.28725 0.603281 4.35536 0 0 0 0 255 255 255
1.21046 0.610214 4.35579 0 0 0 0 255 255 255
1.41638 0.604287 4.356 0 0 0 0 255 255 255
1.27887 0.619524 4.35707 0 0 0 0 255 255 255
1.33083 0.617526 4.35707 0 0 0 0 255 255 255
1.33186 0.618481 4.35718 0 0 0 0 255 255 255
1.55186 0.614003 4.35761 0 0 0 0 255 255 255
1.453 0.619794 4.35782 0 0 0 0 255 255 255
1.49697 0.618103 4.35782 0 0 0 0 255 255 255
1.55431 0.625849 4.35889 0 0 0 0 255 255 255
1.43744 0.631337 4.359 0 0 0 0 255 255 255
0.672569 0.701538 4.36339 0 0 0 0 255 255 255
0.931454 0.693575 4.3636 0 0 0 0 255 255 255
0.945444 0.693037 4.3636 0 0 0 0 255 255 255
1.13634 0.686693 4.36371 0 0 0 0 255 255 255
1.13934 0.686577 4.36371 0 0 0 0 255 255 255
0.931645 0.698542 4.36414 0 0 0 0 255 255 255
0.991601 0.696237 4.36414 0 0 0 0 255 255 255
1.01758 0.695238 4.36414 0 0 0 0 255 255 255
1.03061 0.695733 4.36424 0 0 0 0 255 255 255
1.02377 0.699976 4.36467 0 0 0 0 255 255 255
1.18073 0.695931 4.36489 0 0 0 0 255 255 255
0.934949 0.706375 4.36499 0 0 0 0 255 255 255
1.00194 0.704795 4.3651 0 0 0 0 255 255 255
0.928106 0.710618 4.36542 0 0 0 0 255 255 255
0.946093 0.709927 4.36542 0 0 0 0 255 255 255
1.21889 0.699439 4.36542 0 0 0 0 255 255 255
1.02507 0.707885 4.36553 0 0 0 0 255 255 255
1.00217 0.710756 4.36574 0 0 0 0 255 255 255
0.999207 0.711865 4.36585 0 0 0 0 255 255 255
1.07919 0.709785 4.36596 0 0 0 0 255 255 255
1.13714 0.707557 4.36596 0 0 0 0 255 255 255
0.924377 0.717727 4.36617 0 0 0 0 255 255 255
0.665606 0.72867 4.36628 0 0 0 0 255 255 255
1.01035 0.715416 4.36628 0 0 0 0 255 255 255
1.26017 0.705812 4.36628 0 0 0 0 255 255 255
0.925452 0.719675 4.36638 0 0 0 0 255 255 255
0.94244 0.719022 4.36638 0 0 0 0 255 255 255
0.646697 0.731387 4.36649 0 0 0 0 255 255 255
1.17631 0.711026 4.36649 0 0 0 0 255 255 255
1.24625 0.708337 4.36649 0 0 0 0 255 255 255
1.29222 0.70657 4.36649 0 0 0 0 255 255 255
1.15636 0.712788 4.3666 0 0 0 0 255 255 255
1.00951 0.719429 4.3667 0 0 0 0 255 255 255
1.38523 0.704984 4.3667 0 0 0 0 255 255 255
1.03256 0.720532 4.36692 0 0 0 0 255 255 255
1.34134 0.708661 4.36692 0 0 0 0 255 255 255
0.922684 0.725752 4.36703 0 0 0 0 255 255 255
0.991633 0.723101 4.36703 0 0 0 0 255 255 255
0.948703 0.725746 4.36713 0 0 0 0 255 255 255
0.741894 0.734692 4.36724 0 0 0 0 255 255 255
0.747889 0.734462 4.36724 0 0 0 0 255 255 255
1.21358 0.717553 4.36735 0 0 0 0 255 255 255
1.46743 0.708788 4.36745 0 0 0 0 255 255 255
1.01181 0.7273 4.36756 0 0 0 0 255 255 255
1.51655 0.71088 4.36788 0 0 0 0 255 255 255
1.12987 0.726741 4.36799 0 0 0 0 255 255 255
1.2049 0.725847 4.3682 0 0 0 0 255 255 255
1.37181 0.720425 4.36831 0 0 0 0 255 255 255
0.729324 0.746121 4.36842 0 0 0 0 255 255 255
1.27692 0.725068 4.36842 0 0 0 0 255 255 255
1.32992 0.724025 4.36852 0 0 0 0 255 255 255
1.61671 0.712999 4.36852 0 0 0 0 255 255 255
1.54879 0.716605 4.36863 0 0 0 0 255 255 255
0.668483 0.751445 4.36874 0 0 0 0 255 255 255
1.17515 0.73296 4.36884 0 0 0 0 255 255 255
1.34702 0.726353 4.36884 0 0 0 0 255 255 255
1.51989 0.719706 4.36884 0 0 0 0 255 255 255
1.07434 0.739821 4.36917 0 0 0 0 255 255 255
0.722673 0.755331 4.36938 0 0 0 0 255 255 255
1.57005 0.722753 4.36938 0 0 0 0 255 255 255
1.12249 0.742945 4.3697 0 0 0 0 255 255 255
1.27038 0.737259 4.3697 0 0 0 0 255 255 255
1.5122 0.727962 4.3697 0 0 0 0 255 255 255
0.676859 0.761073 4.36981 0 0 0 0 255 255 255
1.17349 0.741979 4.36981 0 0 0 0 255 255 255
1.32842 0.737018 4.36992 0 0 0 0 255 255 255
0.659948 0.763713 4.37002 0 0 0 0 255 255 255
0.73593 0.761787 4.37013 0 0 0 0 255 255 255
1.33749 0.738659 4.37013 0 0 0 0 255 255 255
1.33948 0.738582 4.37013 0 0 0 0 255 255 255
1.39544 0.736431 4.37013 0 0 0 0 255 255 255
1.41447 0.736695 4.37024 0 0 0 0 255 255 255
1.37357 0.740257 4.37045 0 0 0 0 255 255 255
0.706105 0.766913 4.37056 0 0 0 0 255 255 255
1.31373 0.745542 4.37077 0 0 0 0 255 255 255
0.710255 0.770734 4.37098 0 0 0 0 255 255 255
0.747228 0.769312 4.37098 0 0 0 0 255 255 255
1.6227 0.738639 4.37131 0 0 0 0 255 255 255
1.64968 0.737602 4.37131 0 0 0 0 255 255 255
0.525544 0.781815 4.37141 0 0 0 0 255 255 255
1.41089 0.747777 4.37141 0 0 0 0 255 255 255
1.66274 0.739089 4.37152 0 0 0 0 255 255 255
1.57684 0.743387 4.37163 0 0 0 0 255 255 255
1.66778 0.739891 4.37163 0 0 0 0 255 255 255
1.50501 0.749133 4.37195 0 0 0 0 255 255 255
1.43014 0.754002 4.37216 0 0 0 0 255 255 255
0.716785 0.784412 4.37248 0 0 0 0 255 255 255
1.61512 0.749875 4.37248 0 0 0 0 255 255 255
1.64514 0.749716 4.37259 0 0 0 0 255 255 255
0.715939 0.788425 4.37291 0 0 0 0 255 255 255
0.500137 0.797717 4.37302 0 0 0 0 255 255 255
0.704139 0.793854 4.37345 0 0 0 0 255 255 255
0.711286 0.797559 4.37387 0 0 0 0 255 255 255
0.711325 0.798552 4.37398 0 0 0 0 255 255 255
1.61669 0.764739 4.37409 0 0 0 0 255 255 255
0.521732 0.812806 4.37473 0 0 0 0 255 255 255
0.529803 0.814486 4.37494 0 0 0 0 255 255 255
0.52888 0.816512 4.37516 0 0 0 0 255 255 255
0.533914 0.817313 4.37526 0 0 0 0 255 255 255
0.525959 0.818614 4.37537 0 0 0 0 255 255 255
0.546943 0.817807 4.37537 0 0 0 0 255 255 255
0.707977 0.815596 4.3758 0 0 0 0 255 255 255
0.531146 0.823389 4.37591 0 0 0 0 255 255 255
1.04192 0.807732 4.37633 0 0 0 0 255 255 255
0.87908 0.814988 4.37644 0 0 0 0 255 255 255
0.996032 0.811486 4.37655 0 0 0 0 255 255 255
0.878157 0.817013 4.37666 0 0 0 0 255 255 255
1.06905 0.810669 4.37676 0 0 0 0 255 255 255
0.994148 0.814544 4.37687 0 0 0 0 255 255 255
0.875274 0.820109 4.37698 0 0 0 0 255 255 255
1.04319 0.814648 4.37708 0 0 0 0 255 255 255
1.09119 0.813798 4.37719 0 0 0 0 255 255 255
0.916396 0.822508 4.3774 0 0 0 0 255 255 255
0.873466 0.825153 4.37751 0 0 0 0 255 255 255
0.882498 0.825801 4.37762 0 0 0 0 255 255 255
1.13935 0.816921 4.37773 0 0 0 0 255 255 255
0.963514 0.824676 4.37783 0 0 0 0 255 255 255
1.13839 0.817953 4.37783 0 0 0 0 255 255 255
1.18735 0.816071 4.37783 0 0 0 0 255 255 255
0.920661 0.829309 4.37815 0 0 0 0 255 255 255
1.02362 0.826345 4.37826 0 0 0 0 255 255 255
1.02466 0.827301 4.37837 0 0 0 0 255 255 255
0.87381 0.834095 4.37847 0 0 0 0 255 255 255
0.536136 0.849067 4.37869 0 0 0 0 255 255 255
0.970815 0.832356 4.37869 0 0 0 0 255 255 255
1.01178 0.830781 4.37869 0 0 0 0 255 255 255
1.25361 0.821483 4.37869 0 0 0 0 255 255 255
0.919891 0.835308 4.3788 0 0 0 0 255 255 255
1.25364 0.822477 4.3788 0 0 0 0 255 255 255
1.11478 0.828811 4.3789 0 0 0 0 255 255 255
1.24069 0.82397 4.3789 0 0 0 0 255 255 255
0.972928 0.835259 4.37901 0 0 0 0 255 255 255
1.07089 0.832488 4.37912 0 0 0 0 255 255 255
0.962051 0.838663 4.37933 0 0 0 0 255 255 255
1.10195 0.833284 4.37933 0 0 0 0 255 255 255
1.11893 0.832631 4.37933 0 0 0 0 255 255 255
1.16598 0.832812 4.37954 0 0 0 0 255 255 255
1.09507 0.836534 4.37965 0 0 0 0 255 255 255
1.16801 0.833729 4.37965 0 0 0 0 255 255 255
1.02616 0.840178 4.37976 0 0 0 0 255 255 255
1.25902 0.83222 4.37987 0 0 0 0 255 255 255
1.1182 0.839624 4.38008 0 0 0 0 255 255 255
1.21821 0.837769 4.38029 0 0 0 0 255 255 255
1.65288 0.821058 4.38029 0 0 0 0 255 255 255
1.33416 0.834306 4.3804 0 0 0 0 255 255 255
1.41214 0.832303 4.38051 0 0 0 0 255 255 255
1.47517 0.83187 4.38072 0 0 0 0 255 255 255
0.673799 0.863675 4.38083 0 0 0 0 255 255 255
1.2154 0.842852 4.38083 0 0 0 0 255 255 255
1.47724 0.83378 4.38094 0 0 0 0 255 255 255
1.52732 0.83484 4.38126 0 0 0 0 255 255 255
1.38047 0.841481 4.38136 0 0 0 0 255 255 255
1.33054 0.844395 4.38147 0 0 0 0 255 255 255
1.44746 0.839901 4.38147 0 0 0 0 255 255 255
1.4066 0.844456 4.38179 0 0 0 0 255 255 255
1.58159 0.840714 4.38211 0 0 0 0 255 255 255
1.51268 0.844358 4.38222 0 0 0 0 255 255 255
1.45387 0.850599 4.38265 0 0 0 0 255 255 255
1.69969 0.841148 4.38265 0 0 0 0 255 255 255
1.72379 0.843207 4.38297 0 0 0 0 255 255 255
1.51106 0.85437 4.38329 0 0 0 0 255 255 255
1.50214 0.856703 4.3835 0 0 0 0 255 255 255
1.60706 0.852669 4.3835 0 0 0 0 255 255 255
1.67701 0.84998 4.3835 0 0 0 0 255 255 255
1.55814 0.855545 4.38361 0 0 0 0 255 255 255
1.55118 0.856808 4.38372 0 0 0 0 255 255 255
1.49226 0.860068 4.38382 0 0 0 0 255 255 255
1.69811 0.852154 4.38382 0 0 0 0 255 255 255
1.56025 0.858449 4.38393 0 0 0 0 255 255 255
1.65318 0.854876 4.38393 0 0 0 0 255 255 255
1.65426 0.856825 4.38415 0 0 0 0 255 255 255
0.881945 0.889502 4.38447 0 0 0 0 255 255 255
1.60145 0.862835 4.38457 0 0 0 0 255 255 255
0.873028 0.891835 4.38468 0 0 0 0 255 255 255
1.65245 0.861869 4.38468 0 0 0 0 255 255 255
1.59961 0.866886 4.385 0 0 0 0 255 255 255
0.876522 0.904635 4.38607 0 0 0 0 255 255 255
0.883784 0.911321 4.38682 0 0 0 0 255 255 255
0.887781 0.911168 4.38682 0 0 0 0 255 255 255
0.5601 0.925756 4.38703 0 0 0 0 255 255 255
0.929941 0.914522 4.38736 0 0 0 0 255 255 255
0.9221 0.918803 4.38778 0 0 0 0 255 255 255
0.923443 0.927706 4.38875 0 0 0 0 255 255 255
0.518965 0.975097 4.39217 0 0 0 0 255 255 255
0.933041 0.969127 4.39324 0 0 0 0 255 255 255
1.0081 0.969226 4.39356 0 0 0 0 255 255 255
0.406539 1.01822 4.39634 0 0 0 0 255 255 255
0.796518 1.0102 4.39709 0 0 0 0 255 255 255
0.408843 1.0261 4.3972 0 0 0 0 255 255 255
0.518876 1.02485 4.39752 0 0 0 0 255 255 255
0.812965 1.0215 4.39838 0 0 0 0 255 255 255
0.536208 1.03314 4.39848 0 0 0 0 255 255 255
0.812004 1.02254 4.39848 0 0 0 0 255 255 255
0.804315 1.03079 4.39934 0 0 0 0 255 255 255
0.892289 1.0284 4.39945 0 0 0 0 255 255 255
0.516604 1.04384 4.39955 0 0 0 0 255 255 255
0.517604 1.0438 4.39955 0 0 0 0 255 255 255
0.507878 1.05114 4.4003 0 0 0 0 255 255 255
0.517101 1.05676 4.40094 0 0 0 0 255 255 255
0.790243 1.05521 4.40191 0 0 0 0 255 255 255
0.498497 1.06742 4.40201 0 0 0 0 255 255 255
0.505568 1.06914 4.40223 0 0 0 0 255 255 255
0.492616 1.07063 4.40234 0 0 0 0 255 255 255
0.79643 1.05995 4.40244 0 0 0 0 255 255 255
0.800771 1.06874 4.40341 0 0 0 0 255 255 255
0.492228 1.08657 4.40405 0 0 0 0 255 255 255
0.828247 1.08062 4.4048 0 0 0 0 255 255 255
0.83101 1.10041 4.40694 0 0 0 0 255 255 255
0.831812 1.12127 4.40918 0 0 0 0 255 255 255
1.03282 1.11753 4.40961 0 0 0 0 255 255 255
1.07498 1.12088 4.41015 0 0 0 0 255 255 255
1.06214 1.12535 4.41057 0 0 0 0 255 255 255
0.836649 1.14298 4.41154 0 0 0 0 255 255 255
1.09058 1.1362 4.41186 0 0 0 0 255 255 255
0.328216 1.1675 4.41207 0 0 0 0 255 255 255
1.05472 1.14056 4.41218 0 0 0 0 255 255 255
1.0717 1.13991 4.41218 0 0 0 0 255 255 255
0.838069 1.15387 4.41271 0 0 0 0 255 255 255
1.24304 1.14526 4.41346 0 0 0 0 255 255 255
1.25607 1.14576 4.41357 0 0 0 0 255 255 255
0.728799 1.17498 4.41453 0 0 0 0 255 255 255
0.736138 1.18366 4.4155 0 0 0 0 255 255 255
1.00901 1.17515 4.41571 0 0 0 0 255 255 255
1.15091 1.1697 4.41571 0 0 0 0 255 255 255
1.19903 1.17183 4.41614 0 0 0 0 255 255 255
1.05744 1.18523 4.417 0 0 0 0 255 255 255
0.902773 1.22302 4.42042 0 0 0 0 255 255 255
0.933865 1.22481 4.42074 0 0 0 0 255 255 255
0.515594 1.25183 4.42192 0 0 0 0 255 255 255
0.498836 1.25845 4.42256 0 0 0 0 255 255 255
1.204 1.24925 4.42449 0 0 0 0 255 255 255
1.20419 1.25422 4.42502 0 0 0 0 255 255 255
0.983434 1.26469 4.42523 0 0 0 0 255 255 255
1.0254 1.26308 4.42523 0 0 0 0 255 255 255
1.01556 1.26744 4.42566 0 0 0 0 255 255 255
1.16764 1.26657 4.4262 0 0 0 0 255 255 255
1.01083 1.27458 4.42641 0 0 0 0 255 255 255
0.998995 1.27902 4.42684 0 0 0 0 255 255 255
1.02897 1.27787 4.42684 0 0 0 0 255 255 255
1.04016 1.28241 4.42737 0 0 0 0 255 255 255
1.15715 1.2799 4.42759 0 0 0 0 255 255 255
1.03028 1.28578 4.4277 0 0 0 0 255 255 255
1.15822 1.28185 4.4278 0 0 0 0 255 255 255
1.22625 1.28123 4.42802 0 0 0 0 255 255 255
1.03343 1.28964 4.42812 0 0 0 0 255 255 255
1.10295 1.30189 4.42973 0 0 0 0 255 255 255
1.09715 1.30709 4.43026 0 0 0 0 255 255 255
1.04726 1.31099 4.43048 0 0 0 0 255 255 255
1.19119 1.30645 4.43058 0 0 0 0 255 255 255
0.303191 1.34955 4.43155 0 0 0 0 255 255 255
1.19857 1.31612 4.43165 0 0 0 0 255 255 255
0.505233 1.34676 4.43208 0 0 0 0 255 255 255
1.13988 1.32534 4.4324 0 0 0 0 255 255 255
0.303612 1.36048 4.43272 0 0 0 0 255 255 255
1.13504 1.32951 4.43283 0 0 0 0 255 255 255
1.10663 1.34553 4.43444 0 0 0 0 255 255 255
1.11012 1.35833 4.43583 0 0 0 0 255 255 255
1.10517 1.35951 4.43593 0 0 0 0 255 255 255
1.11285 1.37713 4.43786 0 0 0 0 255 255 255
1.04694 1.38066 4.43797 0 0 0 0 255 255 255
1.10397 1.38045 4.43818 0 0 0 0 255 255 255
1.11608 1.38297 4.4385 0 0 0 0 255 255 255
1.11415 1.38504 4.43872 0 0 0 0 255 255 255
1.08133 1.39028 4.43914 0 0 0 0 255 255 255
1.2843 1.38546 4.43947 0 0 0 0 255 255 255
1.05554 1.39624 4.43968 0 0 0 0 255 255 255
1.13083 1.40231 4.44064 0 0 0 0 255 255 255
0.985052 1.41089 4.44096 0 0 0 0 255 255 255
1.20108 1.40756 4.4415 0 0 0 0 255 255 255
1.01034 1.41788 4.44182 0 0 0 0 255 255 255
0.968408 1.42049 4.44193 0 0 0 0 255 255 255
1.02744 1.42021 4.44214 0 0 0 0 255 255 255
0.999499 1.42228 4.44225 0 0 0 0 255 255 255
0.987699 1.42771 4.44278 0 0 0 0 255 255 255
0.959911 1.43375 4.44332 0 0 0 0 255 255 255
0.955068 1.43792 4.44375 0 0 0 0 255 255 255
1.21895 1.42976 4.44396 0 0 0 0 255 255 255
0.959179 1.44074 4.44407 0 0 0 0 255 255 255
0.982353 1.44483 4.4446 0 0 0 0 255 255 255
0.957601 1.45175 4.44524 0 0 0 0 255 255 255
0.960637 1.45263 4.44535 0 0 0 0 255 255 255
1.21253 1.44493 4.44556 0 0 0 0 255 255 255
0.991843 1.4574 4.44599 0 0 0 0 255 255 255
0.984963 1.46065 4.44631 0 0 0 0 255 255 255
1.04392 1.45838 4.44631 0 0 0 0 255 255 255
0.967053 1.46333 4.44653 0 0 0 0 255 255 255
1.0551 1.46293 4.44685 0 0 0 0 255 255 255
1.1973 1.46542 4.4477 0 0 0 0 255 255 255
0.414111 1.5015 4.44835 0 0 0 0 255 255 255
1.33758 1.46998 4.44877 0 0 0 0 255 255 255
1.20706 1.48494 4.44984 0 0 0 0 255 255 255
1.00229 1.49481 4.45006 0 0 0 0 255 255 255
1.15517 1.48893 4.45006 0 0 0 0 255 255 255
1.18938 1.49358 4.4507 0 0 0 0 255 255 255
0.996248 1.51991 4.45273 0 0 0 0 255 255 255
0.801507 1.53039 4.45305 0 0 0 0 255 255 255
0.717066 1.54657 4.45445 0 0 0 0 255 255 255
1.34464 1.52343 4.45455 0 0 0 0 255 255 255
1.34372 1.52546 4.45477 0 0 0 0 255 255 255
0.734397 1.55486 4.45541 0 0 0 0 255 255 255
0.760378 1.55386 4.45541 0 0 0 0 255 255 255
1.17657 1.55079 4.4568 0 0 0 0 255 255 255
0.77494 1.56822 4.45701 0 0 0 0 255 255 255
0.42877 1.59646 4.45862 0 0 0 0 255 255 255
0.767749 1.58939 4.45926 0 0 0 0 255 255 255
0.484187 1.60626 4.4599 0 0 0 0 255 255 255
0.375344 1.61244 4.46012 0 0 0 0 255 255 255
0.438336 1.61101 4.46022 0 0 0 0 255 255 255
0.439679 1.61992 4.46119 0 0 0 0 255 255 255
0.426956 1.62737 4.46194 0 0 0 0 255 255 255
0.438985 1.6279 4.46204 0 0 0 0 255 255 255
0.484525 1.64108 4.46365 0 0 0 0 255 255 255
0.425798 1.6493 4.46429 0 0 0 0 255 255 255
0.426988 1.65423 4.46482 0 0 0 0 255 255 255
0.699322 1.65769 4.46632 0 0 0 0 255 255 255
0.413762 1.67464 4.46696 0 0 0 0 255 255 255
0.396813 1.67629 4.46707 0 0 0 0 255 255 255
0.417912 1.67846 4.46739 0 0 0 0 255 255 255
0.689749 1.66901 4.4675 0 0 0 0 255 255 255
0.415449 1.69249 4.46889 0 0 0 0 255 255 255
0.495734 1.69836 4.46985 0 0 0 0 255 255 255
0.210435 1.74813 4.47403 0 0 0 0 255 255 255
0.210512 1.75012 4.47424 0 0 0 0 255 255 255
0.698763 1.74726 4.47595 0 0 0 0 255 255 255
1.19823 1.74995 4.47831 0 0 0 0 255 255 255
1.30243 1.75291 4.47906 0 0 0 0 255 255 255
1.30069 1.75994 4.4798 0 0 0 0 255 255 255
0.483215 1.81525 4.48237 0 0 0 0 255 255 255
0.646554 1.82091 4.48366 0 0 0 0 255 255 255
0.823239 1.93949 4.49714 0 0 0 0 255 255 255
