ply
format ascii 1.0
comment VCGLIB generated
element vertex 4
property float x
property float y
property float z
property float nx
property float ny
property float nz
property uchar red
property uchar green
property uchar blue
property uchar alpha
element face 0
property list uchar int vertex_indices
end_header
-2.21943 0.0646071 5.69754 0 0 0 255 255 0 255
-2.18895 0.0948811 5.70192 0 0 0 255 255 0 255
-2.06543 0.157701 5.71576 0 0 0 255 255 0 255
-1.92771 0.190757 5.72879 0 0 0 255 255 0 255
