ply
format ascii 1.0
comment VCGLIB generated
element vertex 809
property float x
property float y
property float z
property float nx
property float ny
property float nz
property uchar red
property uchar green
property uchar blue
property uchar alpha
element face 0
property list uchar int vertex_indices
end_header
-0.188323 -0.155418 5.53826 0 0 0 128 128 128 255
-0.198833 -0.0749487 5.53874 0 0 0 128 128 128 255
-0.190553 -0.0967728 5.53913 0 0 0 128 128 128 255
-0.201116 -0.0264995 5.53943 0 0 0 128 128 128 255
-0.190095 -0.0467744 5.54011 0 0 0 128 128 128 255
-0.297752 0.530283 5.5405 0 0 0 128 128 128 255
-0.1977 0.0291644 5.54079 0 0 0 128 128 128 255
-0.177066 -0.056475 5.54118 0 0 0 128 128 128 255
-0.200527 0.0856569 5.54157 0 0 0 128 128 128 255
-0.280815 0.521339 5.54196 0 0 0 128 128 128 255
-0.188066 0.0422337 5.54196 0 0 0 128 128 128 255
-0.186194 0.0639858 5.54255 0 0 0 128 128 128 255
-0.190624 0.149706 5.54372 0 0 0 128 128 128 255
-0.256578 0.527049 5.5444 0 0 0 128 128 128 255
-0.185907 0.230068 5.54567 0 0 0 128 128 128 255
-0.139752 0.0230668 5.54626 0 0 0 128 128 128 255
-0.180588 0.239246 5.54635 0 0 0 128 128 128 255
-0.159411 0.145563 5.54665 0 0 0 128 128 128 255
-0.141085 0.0666071 5.54694 0 0 0 128 128 128 255
-0.126614 -0.00290966 5.54704 0 0 0 128 128 128 255
-0.159631 0.178115 5.54723 0 0 0 128 128 128 255
-0.118851 -0.0115924 5.54762 0 0 0 128 128 128 255
-0.219258 0.533255 5.54811 0 0 0 128 128 128 255
-0.186351 0.368507 5.54821 0 0 0 128 128 128 255
-0.136719 0.117362 5.54831 0 0 0 128 128 128 255
-0.185727 0.375757 5.5484 0 0 0 128 128 128 255
-0.167862 0.283471 5.5484 0 0 0 128 128 128 255
-0.117796 0.0405586 5.5487 0 0 0 128 128 128 255
-0.165286 0.327768 5.54948 0 0 0 128 128 128 255
-0.160888 0.310285 5.54957 0 0 0 128 128 128 255
-0.140362 0.204254 5.54957 0 0 0 128 128 128 255
-0.113373 0.0648418 5.54957 0 0 0 128 128 128 255
-0.205335 0.545118 5.54967 0 0 0 128 128 128 255
-0.147747 0.247641 5.54967 0 0 0 128 128 128 255
-0.131322 0.178502 5.54996 0 0 0 128 128 128 255
-0.107267 0.075191 5.55035 0 0 0 128 128 128 255
-0.19361 0.547388 5.55084 0 0 0 128 128 128 255
-0.132221 0.230275 5.55084 0 0 0 128 128 128 255
-0.0966531 0.0517816 5.55094 0 0 0 128 128 128 255
-0.112971 0.141312 5.55104 0 0 0 128 128 128 255
-0.10013 0.0959253 5.55143 0 0 0 128 128 128 255
-0.0919042 0.0639051 5.55162 0 0 0 128 128 128 255
-0.0751279 0.0243731 5.5525 0 0 0 128 128 128 255
-0.0991315 0.174548 5.55299 0 0 0 128 128 128 255
-0.103912 0.230662 5.55357 0 0 0 128 128 128 255
-0.0740194 0.0867202 5.55377 0 0 0 128 128 128 255
-0.105923 0.256756 5.55387 0 0 0 128 128 128 255
-0.132504 0.399302 5.55396 0 0 0 128 128 128 255
0.0138955 -0.346467 5.55416 0 0 0 128 128 128 255
-0.147982 0.5002 5.55435 0 0 0 128 128 128 255
-0.0760322 0.149482 5.55475 0 0 0 128 128 128 255
-0.0527913 0.0399014 5.55494 0 0 0 128 128 128 255
0.0183178 -0.322183 5.55504 0 0 0 128 128 128 255
-0.107231 0.342062 5.55533 0 0 0 128 128 128 255
-0.0988419 0.303962 5.55543 0 0 0 128 128 128 255
-0.126374 0.451417 5.55553 0 0 0 128 128 128 255
-0.127487 0.462406 5.55562 0 0 0 128 128 128 255
-0.0883911 0.286633 5.55611 0 0 0 128 128 128 255
-0.0381618 0.0376407 5.55631 0 0 0 128 128 128 255
-0.078781 0.257936 5.5565 0 0 0 128 128 128 255
-0.0794608 0.277157 5.55679 0 0 0 128 128 128 255
-0.0514953 0.137935 5.55689 0 0 0 128 128 128 255
-0.123258 0.524339 5.55718 0 0 0 128 128 128 255
-0.0459325 0.156327 5.55777 0 0 0 128 128 128 255
-0.114707 0.516827 5.55787 0 0 0 128 128 128 255
-0.123233 0.566105 5.55796 0 0 0 128 128 128 255
0.0438561 -0.291775 5.55806 0 0 0 128 128 128 255
-0.0496265 0.196355 5.55816 0 0 0 128 128 128 255
-0.000510812 -0.0416486 5.55845 0 0 0 128 128 128 255
0.00348049 -0.0622659 5.55845 0 0 0 128 128 128 255
-0.11528 0.55644 5.55855 0 0 0 128 128 128 255
-0.0398263 0.166676 5.55855 0 0 0 128 128 128 255
-0.0469682 0.219278 5.55884 0 0 0 128 128 128 255
-0.0929359 0.461965 5.55894 0 0 0 128 128 128 255
-0.0784645 0.392448 5.55904 0 0 0 128 128 128 255
-0.0749363 0.395168 5.55943 0 0 0 128 128 128 255
-0.0968761 0.529446 5.55982 0 0 0 128 128 128 255
-0.0888132 0.503505 5.56011 0 0 0 128 128 128 255
-0.034076 0.220755 5.56011 0 0 0 128 128 128 255
-0.0202845 0.170459 5.5605 0 0 0 128 128 128 255
-0.0241687 0.211469 5.56089 0 0 0 128 128 128 255
0.000539124 0.0838382 5.56089 0 0 0 128 128 128 255
-0.0455651 0.337703 5.56118 0 0 0 128 128 128 255
-0.0404335 0.311195 5.56118 0 0 0 128 128 128 255
0.021526 -0.00886273 5.56118 0 0 0 128 128 128 255
-0.067205 0.454723 5.56128 0 0 0 128 128 128 255
-0.057512 0.404653 5.56128 0 0 0 128 128 128 255
-0.0253919 0.238733 5.56128 0 0 0 128 128 128 255
0.00357503 0.141466 5.56226 0 0 0 128 128 128 255
0.00609934 0.138899 5.56245 0 0 0 128 128 128 255
0.00631618 0.143015 5.56255 0 0 0 128 128 128 255
-0.0689207 0.536895 5.56265 0 0 0 128 128 128 255
-0.0409819 0.392574 5.56265 0 0 0 128 128 128 255
-0.0189081 0.283787 5.56275 0 0 0 128 128 128 255
-0.0437524 0.422595 5.56294 0 0 0 128 128 128 255
-0.0428022 0.417686 5.56294 0 0 0 128 128 128 255
0.0334118 0.0239952 5.56294 0 0 0 128 128 128 255
-0.0676731 0.551396 5.56304 0 0 0 128 128 128 255
-0.00476336 0.22643 5.56304 0 0 0 128 128 128 255
-0.0613476 0.529194 5.56323 0 0 0 128 128 128 255
-0.062951 0.558422 5.56362 0 0 0 128 128 128 255
0.0440527 0.00568384 5.56362 0 0 0 128 128 128 255
0.00125992 0.258152 5.56421 0 0 0 128 128 128 255
-0.0336307 0.454093 5.5645 0 0 0 128 128 128 255
-0.00186402 0.295235 5.5646 0 0 0 128 128 128 255
0.0129607 0.218656 5.5646 0 0 0 128 128 128 255
0.0310699 0.135584 5.5648 0 0 0 128 128 128 255
-0.000943005 0.321896 5.56519 0 0 0 128 128 128 255
0.0555583 0.0405053 5.56538 0 0 0 128 128 128 255
0.0767086 -0.0582754 5.56558 0 0 0 128 128 128 255
-0.0397177 0.558845 5.56587 0 0 0 128 128 128 255
0.0287574 0.215603 5.56606 0 0 0 128 128 128 255
-0.0348859 0.549595 5.56616 0 0 0 128 128 128 255
-0.0280437 0.514251 5.56616 0 0 0 128 128 128 255
0.0285941 0.221683 5.56616 0 0 0 128 128 128 255
-0.0285603 0.527392 5.56636 0 0 0 128 128 128 255
0.0571834 0.089711 5.56645 0 0 0 128 128 128 255
0.0933483 -0.0866297 5.56665 0 0 0 128 128 128 255
0.0853927 -0.0402973 5.56675 0 0 0 128 128 128 255
0.103448 -0.133566 5.56675 0 0 0 128 128 128 255
0.00217324 0.394817 5.56684 0 0 0 128 128 128 255
0.102171 -0.116497 5.56694 0 0 0 128 128 128 255
0.113412 -0.169324 5.56704 0 0 0 128 128 128 255
0.0826757 -8.05855e-05 5.56723 0 0 0 128 128 128 255
0.0895178 -0.0354244 5.56723 0 0 0 128 128 128 255
0.109474 -0.13851 5.56723 0 0 0 128 128 128 255
-0.0258216 0.56561 5.56733 0 0 0 128 128 128 255
0.038092 0.24593 5.56753 0 0 0 128 128 128 255
0.120658 -0.164865 5.56782 0 0 0 128 128 128 255
0.12731 -0.199227 5.56782 0 0 0 128 128 128 255
0.0336377 0.289885 5.56792 0 0 0 128 128 128 255
0.0860114 0.0402893 5.56831 0 0 0 128 128 128 255
0.11365 -0.0867738 5.5686 0 0 0 128 128 128 255
0.141616 -0.225996 5.5687 0 0 0 128 128 128 255
0.115415 -0.0854136 5.5688 0 0 0 128 128 128 255
0.0557893 0.233059 5.56899 0 0 0 128 128 128 255
0.096082 0.0249232 5.56899 0 0 0 128 128 128 255
0.132003 -0.160632 5.56899 0 0 0 128 128 128 255
0.0952388 0.0502241 5.56938 0 0 0 128 128 128 255
0.156002 -0.237471 5.56987 0 0 0 128 128 128 255
0.0131572 0.516116 5.57016 0 0 0 128 128 128 255
0.161621 -0.245551 5.57026 0 0 0 128 128 128 255
0.067948 0.243561 5.57036 0 0 0 128 128 128 255
0.0162786 0.515701 5.57045 0 0 0 128 128 128 255
0.00965333 0.555162 5.57055 0 0 0 128 128 128 255
0.0630868 0.284381 5.57065 0 0 0 128 128 128 255
0.158877 -0.210432 5.57065 0 0 0 128 128 128 255
0.0916227 0.142214 5.57075 0 0 0 128 128 128 255
0.0171996 0.542362 5.57104 0 0 0 128 128 128 255
0.139949 -0.0602928 5.57162 0 0 0 128 128 128 255
0.0814908 0.257387 5.57192 0 0 0 128 128 128 255
0.04584 0.457255 5.57221 0 0 0 128 128 128 255
0.10818 0.135233 5.57221 0 0 0 128 128 128 255
0.162156 -0.14359 5.57221 0 0 0 128 128 128 255
0.163297 -0.149481 5.57221 0 0 0 128 128 128 255
0.111871 0.131873 5.5725 0 0 0 128 128 128 255
0.0331033 0.559701 5.57289 0 0 0 128 128 128 255
0.136686 0.0246351 5.57289 0 0 0 128 128 128 255
0.0883279 0.295379 5.57328 0 0 0 128 128 128 255
0.173989 -0.120928 5.57377 0 0 0 128 128 128 255
0.100923 0.277446 5.57416 0 0 0 128 128 128 255
0.196006 -0.203244 5.57436 0 0 0 128 128 128 255
0.210695 -0.268645 5.57455 0 0 0 128 128 128 255
0.0896532 0.361843 5.57465 0 0 0 128 128 128 255
0.0721945 0.457264 5.57475 0 0 0 128 128 128 255
0.0652695 0.513981 5.57514 0 0 0 128 128 128 255
0.0961127 0.36513 5.57533 0 0 0 128 128 128 255
0.129427 0.203516 5.57553 0 0 0 128 128 128 255
0.154269 0.101376 5.57602 0 0 0 128 128 128 255
0.14805 0.14397 5.57621 0 0 0 128 128 128 255
0.0954303 0.421019 5.57631 0 0 0 128 128 128 255
0.191627 -0.0706597 5.57641 0 0 0 128 128 128 255
0.204795 -0.128206 5.5766 0 0 0 128 128 128 255
0.0950209 0.454553 5.57689 0 0 0 128 128 128 255
0.0997723 0.430008 5.57689 0 0 0 128 128 128 255
0.134607 0.26054 5.57709 0 0 0 128 128 128 255
0.117908 0.352034 5.57719 0 0 0 128 128 128 255
0.177234 0.0508189 5.57728 0 0 0 128 128 128 255
0.121763 0.342594 5.57738 0 0 0 128 128 128 255
0.194746 -0.0344062 5.57738 0 0 0 128 128 128 255
0.194936 -0.0353879 5.57738 0 0 0 128 128 128 255
0.153583 0.193933 5.57767 0 0 0 128 128 128 255
0.176011 0.0780834 5.57767 0 0 0 128 128 128 255
0.223716 -0.168342 5.57767 0 0 0 128 128 128 255
0.250214 -0.289514 5.57797 0 0 0 128 128 128 255
0.141227 0.294416 5.57836 0 0 0 128 128 128 255
0.168783 0.188727 5.57904 0 0 0 128 128 128 255
0.241576 -0.187292 5.57904 0 0 0 128 128 128 255
0.270546 -0.321228 5.57933 0 0 0 128 128 128 255
0.221537 -0.0628324 5.57943 0 0 0 128 128 128 255
0.117979 0.514 5.58021 0 0 0 128 128 128 255
0.116702 0.531068 5.58041 0 0 0 128 128 128 255
0.118139 0.544588 5.5808 0 0 0 128 128 128 255
0.169646 0.278527 5.5808 0 0 0 128 128 128 255
0.288213 -0.302529 5.58138 0 0 0 128 128 128 255
0.143415 0.45068 5.58148 0 0 0 128 128 128 255
0.173118 0.307719 5.58167 0 0 0 128 128 128 255
0.255033 -0.115425 5.58167 0 0 0 128 128 128 255
0.198993 0.179296 5.58177 0 0 0 128 128 128 255
0.152915 0.438259 5.58216 0 0 0 128 128 128 255
0.190737 0.242886 5.58216 0 0 0 128 128 128 255
0.271349 -0.168287 5.58226 0 0 0 128 128 128 255
0.301949 -0.326353 5.58226 0 0 0 128 128 128 255
0.197089 0.225782 5.58246 0 0 0 128 128 128 255
0.247292 -0.0283081 5.58255 0 0 0 128 128 128 255
0.287015 -0.233499 5.58255 0 0 0 128 128 128 255
0.146451 0.508307 5.58285 0 0 0 128 128 128 255
0.213569 0.166839 5.58294 0 0 0 128 128 128 255
0.248783 -0.00459248 5.58314 0 0 0 128 128 128 255
0.222989 0.139125 5.58333 0 0 0 128 128 128 255
0.274522 -0.121838 5.58343 0 0 0 128 128 128 255
0.158042 0.485087 5.58353 0 0 0 128 128 128 255
0.278077 -0.11402 5.58392 0 0 0 128 128 128 255
0.302214 -0.238705 5.58392 0 0 0 128 128 128 255
0.29768 -0.210044 5.58402 0 0 0 128 128 128 255
0.31826 -0.305879 5.58421 0 0 0 128 128 128 255
0.174411 0.44242 5.58431 0 0 0 128 128 128 255
0.152391 0.561404 5.58441 0 0 0 128 128 128 255
0.21025 0.278239 5.5847 0 0 0 128 128 128 255
0.226975 0.191843 5.5847 0 0 0 128 128 128 255
0.291975 -0.143923 5.5847 0 0 0 128 128 128 255
0.185949 0.409004 5.5848 0 0 0 128 128 128 255
0.206502 0.308071 5.58489 0 0 0 128 128 128 255
0.235771 0.156878 5.58489 0 0 0 128 128 128 255
0.331208 -0.330874 5.58499 0 0 0 128 128 128 255
0.283203 -0.0671917 5.58528 0 0 0 128 128 128 255
0.233814 0.193167 5.58538 0 0 0 128 128 128 255
0.17742 0.49495 5.58558 0 0 0 128 128 128 255
0.279102 -0.0302986 5.58558 0 0 0 128 128 128 255
0.280433 -0.0371709 5.58558 0 0 0 128 128 128 255
0.309512 -0.187382 5.58558 0 0 0 128 128 128 255
0.342173 -0.324677 5.58616 0 0 0 128 128 128 255
0.323654 -0.208072 5.58655 0 0 0 128 128 128 255
0.20435 0.418678 5.58675 0 0 0 128 128 128 255
0.18138 0.54257 5.58685 0 0 0 128 128 128 255
0.312574 -0.124657 5.58704 0 0 0 128 128 128 255
0.348306 -0.30923 5.58704 0 0 0 128 128 128 255
0.304319 -0.0610667 5.58743 0 0 0 128 128 128 255
0.300164 -0.0343697 5.58753 0 0 0 128 128 128 255
0.309721 -0.0732622 5.58772 0 0 0 128 128 128 255
0.359327 -0.329505 5.58772 0 0 0 128 128 128 255
0.214662 0.449194 5.58831 0 0 0 128 128 128 255
0.309092 -0.00717729 5.58889 0 0 0 128 128 128 255
0.207437 0.523169 5.58899 0 0 0 128 128 128 255
0.311237 -0.0077807 5.58909 0 0 0 128 128 128 255
0.341536 -0.148589 5.58938 0 0 0 128 128 128 255
0.217671 0.501723 5.58958 0 0 0 128 128 128 255
0.286743 0.160634 5.58987 0 0 0 128 128 128 255
0.383564 -0.323794 5.59016 0 0 0 128 128 128 255
0.2225 0.529141 5.59055 0 0 0 128 128 128 255
0.334146 -0.0318655 5.59085 0 0 0 128 128 128 255
0.226136 0.552253 5.59133 0 0 0 128 128 128 255
0.361295 -0.140689 5.59143 0 0 0 128 128 128 255
0.357628 -0.0955637 5.59192 0 0 0 128 128 128 255
0.232785 0.554559 5.59202 0 0 0 128 128 128 255
0.309976 0.161057 5.59211 0 0 0 128 128 128 255
0.405033 -0.324731 5.59221 0 0 0 128 128 128 255
0.368242 -0.118973 5.5925 0 0 0 128 128 128 255
0.314672 0.162985 5.5926 0 0 0 128 128 128 255
0.364494 -0.0891415 5.5927 0 0 0 128 128 128 255
0.345325 0.0151155 5.5928 0 0 0 128 128 128 255
0.385481 -0.181843 5.59299 0 0 0 128 128 128 255
0.251923 0.51854 5.59319 0 0 0 128 128 128 255
0.381054 -0.13279 5.59348 0 0 0 128 128 128 255
0.365739 -0.0379723 5.59377 0 0 0 128 128 128 255
0.285044 0.394575 5.59407 0 0 0 128 128 128 255
0.257892 0.540067 5.59416 0 0 0 128 128 128 255
0.272308 0.497022 5.59475 0 0 0 128 128 128 255
0.276133 0.519152 5.59553 0 0 0 128 128 128 255
0.433502 -0.293755 5.59553 0 0 0 128 128 128 255
0.441539 -0.324794 5.59573 0 0 0 128 128 128 255
0.411046 -0.146336 5.59612 0 0 0 128 128 128 255
0.277081 0.550911 5.59621 0 0 0 128 128 128 255
0.411453 -0.143202 5.59621 0 0 0 128 128 128 255
0.281099 0.535392 5.59631 0 0 0 128 128 128 255
0.285821 0.542418 5.5969 0 0 0 128 128 128 255
0.438439 -0.245946 5.5969 0 0 0 128 128 128 255
0.326708 0.373102 5.59768 0 0 0 128 128 128 255
0.421221 -0.104643 5.59787 0 0 0 128 128 128 255
0.337078 0.340479 5.59807 0 0 0 128 128 128 255
0.334308 0.370499 5.59836 0 0 0 128 128 128 255
0.473132 -0.330901 5.59865 0 0 0 128 128 128 255
0.469167 -0.305185 5.59875 0 0 0 128 128 128 255
0.313589 0.51418 5.59904 0 0 0 128 128 128 255
0.3497 0.327644 5.59904 0 0 0 128 128 128 255
0.317305 0.552587 5.60012 0 0 0 128 128 128 255
0.354907 0.389766 5.6007 0 0 0 128 128 128 255
0.494465 -0.32066 5.6009 0 0 0 128 128 128 255
0.498127 -0.292449 5.60177 0 0 0 128 128 128 255
0.524021 -0.305771 5.60402 0 0 0 128 128 128 255
0.526382 -0.302258 5.60431 0 0 0 128 128 128 255
0.522985 -0.24282 5.60509 0 0 0 128 128 128 255
0.552003 -0.293224 5.60695 0 0 0 128 128 128 255
0.52838 -0.145012 5.60743 0 0 0 128 128 128 255
0.548526 -0.24908 5.60743 0 0 0 128 128 128 255
0.482353 0.160815 5.6087 0 0 0 128 128 128 255
0.483357 0.166102 5.6089 0 0 0 128 128 128 255
0.492884 0.158779 5.60968 0 0 0 128 128 128 255
0.572273 -0.22513 5.61017 0 0 0 128 128 128 255
0.4865 0.244121 5.61065 0 0 0 128 128 128 255
0.488237 0.240383 5.61075 0 0 0 128 128 128 255
0.512645 0.130011 5.61104 0 0 0 128 128 128 255
0.5919 -0.279389 5.61104 0 0 0 128 128 128 255
0.517475 0.157428 5.61202 0 0 0 128 128 128 255
0.587551 -0.178374 5.61251 0 0 0 128 128 128 255
0.623654 -0.254907 5.61456 0 0 0 128 128 128 255
0.58458 -0.000700086 5.61553 0 0 0 128 128 128 255
0.591693 -0.0217316 5.61582 0 0 0 128 128 128 255
0.640916 -0.239343 5.61651 0 0 0 128 128 128 255
0.565489 0.155519 5.61661 0 0 0 128 128 128 255
0.565352 0.166697 5.6168 0 0 0 128 128 128 255
0.567413 0.187467 5.61739 0 0 0 128 128 128 255
0.642731 -0.191119 5.61758 0 0 0 128 128 128 255
0.645798 -0.201729 5.61768 0 0 0 128 128 128 255
0.640557 -0.158946 5.61797 0 0 0 128 128 128 255
0.656059 -0.218077 5.61836 0 0 0 128 128 128 255
0.596431 0.137063 5.61924 0 0 0 128 128 128 255
0.610006 0.0826517 5.61953 0 0 0 128 128 128 255
0.524613 0.549939 5.62002 0 0 0 128 128 128 255
0.604789 0.167201 5.62061 0 0 0 128 128 128 255
0.624745 0.0641151 5.62061 0 0 0 128 128 128 255
0.639487 0.00891078 5.621 0 0 0 128 128 128 255
0.545895 0.513317 5.62139 0 0 0 128 128 128 255
0.613176 0.165769 5.62139 0 0 0 128 128 128 255
0.652409 -0.0211819 5.62168 0 0 0 128 128 128 255
0.661531 -0.068307 5.62168 0 0 0 128 128 128 255
0.668374 -0.103651 5.62168 0 0 0 128 128 128 255
0.544861 0.539599 5.62178 0 0 0 128 128 128 255
0.624306 0.129218 5.62178 0 0 0 128 128 128 255
0.653766 -0.0229563 5.62178 0 0 0 128 128 128 255
0.554608 0.499725 5.62197 0 0 0 128 128 128 255
0.645103 0.0374993 5.62207 0 0 0 128 128 128 255
0.631283 0.119365 5.62226 0 0 0 128 128 128 255
0.67285 -0.0691716 5.62275 0 0 0 128 128 128 255
0.619089 0.213768 5.62285 0 0 0 128 128 128 255
0.628592 0.164679 5.62285 0 0 0 128 128 128 255
0.620257 0.212975 5.62295 0 0 0 128 128 128 255
0.676324 -0.0766475 5.62295 0 0 0 128 128 128 255
0.622318 0.233746 5.62353 0 0 0 128 128 128 255
0.629377 0.202518 5.62363 0 0 0 128 128 128 255
0.568935 0.55139 5.62431 0 0 0 128 128 128 255
0.669124 0.0390936 5.62441 0 0 0 128 128 128 255
0.599018 0.406466 5.62451 0 0 0 128 128 128 255
0.636974 0.236583 5.625 0 0 0 128 128 128 255
0.632276 0.271323 5.62519 0 0 0 128 128 128 255
0.701348 -0.069766 5.62548 0 0 0 128 128 128 255
0.687718 0.0111176 5.62568 0 0 0 128 128 128 255
0.679082 0.0766713 5.62607 0 0 0 128 128 128 255
0.600341 0.509597 5.62656 0 0 0 128 128 128 255
0.65945 0.204266 5.62656 0 0 0 128 128 128 255
0.686112 0.0770136 5.62675 0 0 0 128 128 128 255
0.641665 0.311846 5.62685 0 0 0 128 128 128 255
0.624613 0.410402 5.62705 0 0 0 128 128 128 255
0.635037 0.387974 5.62763 0 0 0 128 128 128 255
0.657844 0.270162 5.62763 0 0 0 128 128 128 255
0.664874 0.270504 5.62831 0 0 0 128 128 128 255
0.667588 0.266955 5.62851 0 0 0 128 128 128 255
0.642174 0.408709 5.6287 0 0 0 128 128 128 255
0.656806 0.36978 5.62939 0 0 0 128 128 128 255
0.637363 0.496393 5.62988 0 0 0 128 128 128 255
0.742627 -0.0159394 5.63046 0 0 0 128 128 128 255
0.678631 0.325114 5.63066 0 0 0 128 128 128 255
0.665353 0.398936 5.63075 0 0 0 128 128 128 255
0.680178 0.322358 5.63075 0 0 0 128 128 128 255
0.69481 0.283429 5.63144 0 0 0 128 128 128 255
0.695731 0.31009 5.63202 0 0 0 128 128 128 255
0.658504 0.544284 5.6328 0 0 0 128 128 128 255
0.659264 0.540356 5.6328 0 0 0 128 128 128 255
0.723991 0.226946 5.63319 0 0 0 128 128 128 255
0.721737 0.243825 5.63329 0 0 0 128 128 128 255
0.679812 0.512759 5.63427 0 0 0 128 128 128 255
0.764959 0.0729246 5.63427 0 0 0 128 128 128 255
0.699062 0.423796 5.63446 0 0 0 128 128 128 255
0.678562 0.534925 5.63456 0 0 0 128 128 128 255
0.785022 -0.00976935 5.63466 0 0 0 128 128 128 255
0.731859 0.275323 5.63485 0 0 0 128 128 128 255
0.760775 0.131192 5.63495 0 0 0 128 128 128 255
0.761399 0.138442 5.63514 0 0 0 128 128 128 255
0.767914 0.115258 5.63534 0 0 0 128 128 128 255
0.759959 0.161591 5.63544 0 0 0 128 128 128 255
0.745568 0.246401 5.63563 0 0 0 128 128 128 255
0.718116 0.40915 5.63602 0 0 0 128 128 128 255
0.718386 0.423463 5.63631 0 0 0 128 128 128 255
0.707117 0.507859 5.6368 0 0 0 128 128 128 255
0.798562 0.0407244 5.6369 0 0 0 128 128 128 255
0.713169 0.508012 5.63739 0 0 0 128 128 128 255
0.706761 0.551588 5.63758 0 0 0 128 128 128 255
0.763343 0.285492 5.63807 0 0 0 128 128 128 255
0.800404 0.0940465 5.63807 0 0 0 128 128 128 255
0.799861 0.10209 5.63817 0 0 0 128 128 128 255
0.747292 0.426003 5.63914 0 0 0 128 128 128 255
0.768959 0.314081 5.63914 0 0 0 128 128 128 255
0.813623 0.0833641 5.63914 0 0 0 128 128 128 255
0.726059 0.546157 5.63934 0 0 0 128 128 128 255
0.732031 0.531016 5.63963 0 0 0 128 128 128 255
0.742185 0.494276 5.63993 0 0 0 128 128 128 255
0.775635 0.321484 5.63993 0 0 0 128 128 128 255
0.717884 0.625041 5.64002 0 0 0 128 128 128 255
0.756846 0.423778 5.64002 0 0 0 128 128 128 255
0.871669 -0.164115 5.64012 0 0 0 128 128 128 255
0.765643 0.388812 5.64022 0 0 0 128 128 128 255
0.771425 0.374653 5.64051 0 0 0 128 128 128 255
0.726217 0.613413 5.64061 0 0 0 128 128 128 255
0.728361 0.61281 5.6408 0 0 0 128 128 128 255
0.846579 0.00214729 5.6408 0 0 0 128 128 128 255
0.879106 -0.160638 5.6409 0 0 0 128 128 128 255
0.745167 0.541708 5.6411 0 0 0 128 128 128 255
0.843969 0.0627559 5.64168 0 0 0 128 128 128 255
0.737996 0.625879 5.64197 0 0 0 128 128 128 255
0.847877 0.0635126 5.64207 0 0 0 128 128 128 255
0.775301 0.443648 5.64217 0 0 0 128 128 128 255
0.764302 0.542356 5.64295 0 0 0 128 128 128 255
0.905433 -0.165727 5.64334 0 0 0 128 128 128 255
0.857429 0.0979557 5.64363 0 0 0 128 128 128 255
0.90307 -0.132572 5.64373 0 0 0 128 128 128 255
0.786968 0.509057 5.64451 0 0 0 128 128 128 255
0.907465 -0.113386 5.64451 0 0 0 128 128 128 255
0.903745 -0.078457 5.6448 0 0 0 128 128 128 255
0.791146 0.524126 5.64519 0 0 0 128 128 128 255
0.867794 0.138668 5.64539 0 0 0 128 128 128 255
0.892012 0.0292768 5.64568 0 0 0 128 128 128 255
0.763368 0.699035 5.64578 0 0 0 128 128 128 255
0.768198 0.726452 5.64676 0 0 0 128 128 128 255
0.923857 -0.0776193 5.64676 0 0 0 128 128 128 255
0.804146 0.545995 5.64685 0 0 0 128 128 128 255
0.813159 0.515146 5.64715 0 0 0 128 128 128 255
0.803273 0.602866 5.64783 0 0 0 128 128 128 255
0.954017 -0.170581 5.64793 0 0 0 128 128 128 255
0.866263 0.293194 5.64812 0 0 0 128 128 128 255
0.931888 -0.035322 5.64832 0 0 0 128 128 128 255
0.780817 0.750285 5.64841 0 0 0 128 128 128 255
0.830639 0.498159 5.64851 0 0 0 128 128 128 255
0.887058 0.238142 5.6491 0 0 0 128 128 128 255
0.792435 0.732163 5.64919 0 0 0 128 128 128 255
0.793385 0.727254 5.64919 0 0 0 128 128 128 255
0.832021 0.53815 5.64939 0 0 0 128 128 128 255
0.788144 0.770038 5.64949 0 0 0 128 128 128 255
0.881463 0.287988 5.64949 0 0 0 128 128 128 255
0.81896 0.616089 5.64958 0 0 0 128 128 128 255
0.961722 -0.116124 5.64968 0 0 0 128 128 128 255
0.879506 0.324277 5.64997 0 0 0 128 128 128 255
0.96487 -0.111441 5.65007 0 0 0 128 128 128 255
0.831312 0.588941 5.65027 0 0 0 128 128 128 255
0.89042 0.28361 5.65027 0 0 0 128 128 128 255
0.904809 0.235467 5.65076 0 0 0 128 128 128 255
0.954441 -0.0156775 5.65085 0 0 0 128 128 128 255
0.851835 0.519578 5.65095 0 0 0 128 128 128 255
0.882542 0.381905 5.65134 0 0 0 128 128 128 255
0.883873 0.375032 5.65134 0 0 0 128 128 128 255
0.835461 0.63558 5.65154 0 0 0 128 128 128 255
0.982187 -0.122348 5.65154 0 0 0 128 128 128 255
0.955089 0.0333393 5.65183 0 0 0 128 128 128 255
0.884033 0.40562 5.65193 0 0 0 128 128 128 255
0.992828 -0.14066 5.65222 0 0 0 128 128 128 255
0.86193 0.545978 5.65241 0 0 0 128 128 128 255
0.921443 0.280449 5.65319 0 0 0 128 128 128 255
0.912562 0.373456 5.65407 0 0 0 128 128 128 255
1.01294 -0.139822 5.65417 0 0 0 128 128 128 255
0.937267 0.282493 5.65476 0 0 0 128 128 128 255
1.01446 -0.111008 5.65485 0 0 0 128 128 128 255
1.04473 -0.256914 5.65505 0 0 0 128 128 128 255
1.02678 -0.143254 5.65544 0 0 0 128 128 128 255
0.909976 0.475831 5.65573 0 0 0 128 128 128 255
0.906772 0.497619 5.65583 0 0 0 128 128 128 255
0.887113 0.620115 5.65622 0 0 0 128 128 128 255
1.02523 -0.0671616 5.65671 0 0 0 128 128 128 255
0.915863 0.518731 5.6571 0 0 0 128 128 128 255
1.06791 -0.266687 5.6571 0 0 0 128 128 128 255
1.05558 -0.197773 5.6572 0 0 0 128 128 128 255
1.01021 0.0470662 5.65739 0 0 0 128 128 128 255
1.05716 -0.195432 5.65739 0 0 0 128 128 128 255
1.04296 -0.111603 5.65759 0 0 0 128 128 128 255
0.923543 0.531422 5.65807 0 0 0 128 128 128 255
1.02104 0.0277731 5.65807 0 0 0 128 128 128 255
0.923 0.539466 5.65817 0 0 0 128 128 128 255
0.980425 0.248068 5.65827 0 0 0 128 128 128 255
1.03611 -0.0395909 5.65827 0 0 0 128 128 128 255
1.06883 -0.203358 5.65837 0 0 0 128 128 128 255
0.966874 0.344246 5.65876 0 0 0 128 128 128 255
0.983083 0.270992 5.65895 0 0 0 128 128 128 255
1.05131 -0.0814648 5.65895 0 0 0 128 128 128 255
0.938066 0.50877 5.65905 0 0 0 128 128 128 255
0.944337 0.476371 5.65905 0 0 0 128 128 128 255
1.04966 -0.0624328 5.65915 0 0 0 128 128 128 255
0.966438 0.372682 5.65924 0 0 0 128 128 128 255
1.02669 0.0614596 5.65924 0 0 0 128 128 128 255
0.904315 0.698819 5.65934 0 0 0 128 128 128 255
0.988538 0.268992 5.65944 0 0 0 128 128 128 255
1.09804 -0.254743 5.66022 0 0 0 128 128 128 255
0.944686 0.542645 5.66032 0 0 0 128 128 128 255
0.960161 0.478416 5.66061 0 0 0 128 128 128 255
1.00287 0.283989 5.6611 0 0 0 128 128 128 255
1.05266 0.0267644 5.6611 0 0 0 128 128 128 255
1.08025 -0.110495 5.6612 0 0 0 128 128 128 255
0.960158 0.515084 5.66129 0 0 0 128 128 128 255
0.94251 0.611487 5.66139 0 0 0 128 128 128 255
1.07859 -0.0914626 5.66139 0 0 0 128 128 128 255
0.947205 0.613414 5.66188 0 0 0 128 128 128 255
1.09477 -0.133147 5.66217 0 0 0 128 128 128 255
0.98828 0.479785 5.66334 0 0 0 128 128 128 255
0.996642 0.436587 5.66334 0 0 0 128 128 128 255
0.989064 0.517624 5.66412 0 0 0 128 128 128 255
1.10489 -0.0649816 5.66442 0 0 0 128 128 128 255
1.01331 0.413331 5.66451 0 0 0 128 128 128 255
1.00066 0.494404 5.66481 0 0 0 128 128 128 255
1.0177 0.432516 5.66529 0 0 0 128 128 128 255
1.02593 0.400496 5.66549 0 0 0 128 128 128 255
0.97008 0.694235 5.66559 0 0 0 128 128 128 255
1.02492 0.431876 5.66598 0 0 0 128 128 128 255
1.01501 0.514498 5.66656 0 0 0 128 128 128 255
0.999507 0.610298 5.66685 0 0 0 128 128 128 255
1.00287 0.619098 5.66734 0 0 0 128 128 128 255
1.01998 0.530738 5.66734 0 0 0 128 128 128 255
1.02875 0.490675 5.66744 0 0 0 128 128 128 255
1.05465 0.36735 5.66764 0 0 0 128 128 128 255
1.06019 0.343976 5.66773 0 0 0 128 128 128 255
1.06458 0.363161 5.66851 0 0 0 128 128 128 255
1.07694 0.299346 5.66851 0 0 0 128 128 128 255
1.01753 0.621935 5.66881 0 0 0 128 128 128 255
1.03906 0.521191 5.669 0 0 0 128 128 128 255
1.1039 0.191504 5.6691 0 0 0 128 128 128 255
1.07373 0.39447 5.66998 0 0 0 128 128 128 255
1.11293 0.202421 5.67017 0 0 0 128 128 128 255
1.08494 0.373213 5.67066 0 0 0 128 128 128 255
1.08173 0.43167 5.67144 0 0 0 128 128 128 255
1.08192 0.430688 5.67144 0 0 0 128 128 128 255
1.03446 0.686327 5.67164 0 0 0 128 128 128 255
1.03563 0.685534 5.67173 0 0 0 128 128 128 255
1.07348 0.49526 5.67183 0 0 0 128 128 128 255
1.07334 0.506437 5.67203 0 0 0 128 128 128 255
1.08083 0.483442 5.67232 0 0 0 128 128 128 255
1.04217 0.704116 5.67271 0 0 0 128 128 128 255
1.04464 0.691353 5.67271 0 0 0 128 128 128 255
1.06277 0.613379 5.673 0 0 0 128 128 128 255
1.05254 0.671492 5.6731 0 0 0 128 128 128 255
1.11754 0.335726 5.6731 0 0 0 128 128 128 255
1.04936 0.698378 5.67329 0 0 0 128 128 128 255
1.08547 0.511842 5.67329 0 0 0 128 128 128 255
1.1067 0.428355 5.67378 0 0 0 128 128 128 255
1.12397 0.407251 5.67505 0 0 0 128 128 128 255
1.01908 0.954288 5.67515 0 0 0 128 128 128 255
1.0421 0.840591 5.67525 0 0 0 128 128 128 255
1.11153 0.492441 5.67544 0 0 0 128 128 128 255
1.06504 0.748269 5.67573 0 0 0 128 128 128 255
1.13423 0.390904 5.67573 0 0 0 128 128 128 255
1.14283 0.35692 5.67593 0 0 0 128 128 128 255
1.11565 0.533981 5.67661 0 0 0 128 128 128 255
1.079 0.728561 5.67671 0 0 0 128 128 128 255
1.14174 0.409674 5.67681 0 0 0 128 128 128 255
1.04525 0.918611 5.677 0 0 0 128 128 128 255
1.04812 0.908982 5.6771 0 0 0 128 128 128 255
1.07704 0.764851 5.6772 0 0 0 128 128 128 255
1.04742 0.923105 5.67729 0 0 0 128 128 128 255
1.0589 0.879493 5.67759 0 0 0 128 128 128 255
1.12903 0.517219 5.67759 0 0 0 128 128 128 255
1.13702 0.475985 5.67759 0 0 0 128 128 128 255
1.14432 0.453971 5.67788 0 0 0 128 128 128 255
1.11717 0.599463 5.67798 0 0 0 128 128 128 255
1.06949 0.887654 5.67876 0 0 0 128 128 128 255
1.1523 0.486073 5.67925 0 0 0 128 128 128 255
1.14725 0.527875 5.67954 0 0 0 128 128 128 255
1.06234 0.976923 5.67973 0 0 0 128 128 128 255
1.14692 0.540034 5.67973 0 0 0 128 128 128 255
1.16169 0.489928 5.68022 0 0 0 128 128 128 255
1.28088 -0.120546 5.68032 0 0 0 128 128 128 255
1.06614 0.993955 5.68042 0 0 0 128 128 128 255
1.10206 0.8084 5.68042 0 0 0 128 128 128 255
1.08254 0.919719 5.68061 0 0 0 128 128 128 255
1.17738 0.429814 5.68061 0 0 0 128 128 128 255
1.24466 0.0822669 5.68061 0 0 0 128 128 128 255
1.15786 0.541133 5.68081 0 0 0 128 128 128 255
1.2474 0.0838161 5.6809 0 0 0 128 128 128 255
1.09199 0.897102 5.6811 0 0 0 128 128 128 255
1.08332 0.957558 5.68139 0 0 0 128 128 128 255
1.17612 0.525317 5.68227 0 0 0 128 128 128 255
1.18109 0.504889 5.68237 0 0 0 128 128 128 255
1.26187 0.0876353 5.68237 0 0 0 128 128 128 255
1.16431 0.617756 5.68286 0 0 0 128 128 128 255
1.20162 0.435525 5.68305 0 0 0 128 128 128 255
1.28451 0.0125702 5.68315 0 0 0 128 128 128 255
1.11014 0.934229 5.68354 0 0 0 128 128 128 255
1.19548 0.493414 5.68354 0 0 0 128 128 128 255
1.12287 0.905119 5.68422 0 0 0 128 128 128 255
1.22051 0.426959 5.68471 0 0 0 128 128 128 255
1.2842 0.103163 5.68481 0 0 0 128 128 128 255
1.30386 0.017335 5.6851 0 0 0 128 128 128 255
1.30391 0.0275311 5.6853 0 0 0 128 128 128 255
1.21073 0.535071 5.68578 0 0 0 128 128 128 255
1.13003 0.967619 5.68608 0 0 0 128 128 128 255
1.15059 0.866685 5.68617 0 0 0 128 128 128 255
1.22015 0.507357 5.68617 0 0 0 128 128 128 255
1.32544 -0.0365453 5.68617 0 0 0 128 128 128 255
1.14855 0.887681 5.68637 0 0 0 128 128 128 255
1.32341 -0.0155498 5.68637 0 0 0 128 128 128 255
1.13378 0.974455 5.68656 0 0 0 128 128 128 255
1.16077 0.835044 5.68656 0 0 0 128 128 128 255
1.30453 0.108118 5.68686 0 0 0 128 128 128 255
1.30681 0.0963363 5.68686 0 0 0 128 128 128 255
1.14553 0.945155 5.68715 0 0 0 128 128 128 255
1.21284 0.602706 5.68725 0 0 0 128 128 128 255
1.25161 0.402424 5.68725 0 0 0 128 128 128 255
1.33014 0.0020501 5.68734 0 0 0 128 128 128 255
1.16082 0.881907 5.68744 0 0 0 128 128 128 255
1.18004 0.787846 5.68754 0 0 0 128 128 128 255
1.24132 0.48701 5.68783 0 0 0 128 128 128 255
1.25329 0.425158 5.68783 0 0 0 128 128 128 255
1.32329 0.0740617 5.68803 0 0 0 128 128 128 255
1.15055 0.971591 5.68813 0 0 0 128 128 128 255
1.31743 0.109595 5.68813 0 0 0 128 128 128 255
1.33651 0.0267116 5.68842 0 0 0 128 128 128 255
1.33659 0.0786735 5.68939 0 0 0 128 128 128 255
1.32733 0.136976 5.68959 0 0 0 128 128 128 255
1.20287 0.785135 5.68969 0 0 0 128 128 128 255
1.25608 0.510239 5.68969 0 0 0 128 128 128 255
1.20026 0.809076 5.68988 0 0 0 128 128 128 255
1.33083 0.134599 5.68988 0 0 0 128 128 128 255
1.17028 0.974392 5.69008 0 0 0 128 128 128 255
1.28076 0.414178 5.69027 0 0 0 128 128 128 255
1.33235 0.163412 5.69056 0 0 0 128 128 128 255
1.17832 0.980022 5.69095 0 0 0 128 128 128 255
1.25168 0.601058 5.69095 0 0 0 128 128 128 255
1.25608 0.620243 5.69174 0 0 0 128 128 128 255
1.20843 0.876864 5.69193 0 0 0 128 128 128 255
1.28469 0.493369 5.69213 0 0 0 128 128 128 255
1.19786 0.947137 5.69222 0 0 0 128 128 128 255
1.28176 0.529469 5.69252 0 0 0 128 128 128 255
1.32406 0.331908 5.69291 0 0 0 128 128 128 255
1.20837 0.940003 5.6931 0 0 0 128 128 128 255
1.30022 0.512671 5.69398 0 0 0 128 128 128 255
1.26131 0.724131 5.69417 0 0 0 128 128 128 255
1.46288 -0.296156 5.69456 0 0 0 128 128 128 255
1.3474 0.352723 5.69554 0 0 0 128 128 128 255
1.31987 0.500178 5.69564 0 0 0 128 128 128 255
1.36611 0.271804 5.69583 0 0 0 128 128 128 255
1.26331 0.808041 5.69593 0 0 0 128 128 128 255
1.25973 0.831792 5.69603 0 0 0 128 128 128 255
1.32399 0.505051 5.69613 0 0 0 128 128 128 255
1.46963 -0.23679 5.69632 0 0 0 128 128 128 255
1.37197 0.272939 5.69642 0 0 0 128 128 128 255
1.36382 0.320253 5.69652 0 0 0 128 128 128 255
1.2761 0.789126 5.69681 0 0 0 128 128 128 255
1.33078 0.532847 5.6973 0 0 0 128 128 128 255
1.29149 0.74627 5.69749 0 0 0 128 128 128 255
1.44625 -0.00602886 5.69837 0 0 0 128 128 128 255
1.49189 -0.236556 5.69847 0 0 0 128 128 128 255
1.29482 0.78664 5.69857 0 0 0 128 128 128 255
1.45154 -0.00194862 5.69896 0 0 0 128 128 128 255
1.49813 -0.237385 5.69905 0 0 0 128 128 128 255
1.30715 0.754395 5.69915 0 0 0 128 128 128 255
1.34299 0.590213 5.69954 0 0 0 128 128 128 255
1.50454 -0.244293 5.69954 0 0 0 128 128 128 255
1.38939 0.355759 5.69964 0 0 0 128 128 128 255
1.44502 0.0945715 5.70013 0 0 0 128 128 128 255
1.37339 0.506466 5.70091 0 0 0 128 128 128 255
1.51233 -0.21121 5.70091 0 0 0 128 128 128 255
1.35365 0.613668 5.701 0 0 0 128 128 128 255
1.30817 0.874783 5.70149 0 0 0 128 128 128 255
1.40548 0.372116 5.70149 0 0 0 128 128 128 255
1.36619 0.585539 5.70169 0 0 0 128 128 128 255
1.30942 0.889285 5.70188 0 0 0 128 128 128 255
1.46513 0.0954092 5.70208 0 0 0 128 128 128 255
1.31088 0.907903 5.70237 0 0 0 128 128 128 255
1.31773 0.872559 5.70237 0 0 0 128 128 128 255
1.52128 -0.17892 5.70237 0 0 0 128 128 128 255
1.3934 0.486911 5.70247 0 0 0 128 128 128 255
1.43008 0.297429 5.70247 0 0 0 128 128 128 255
1.38965 0.516743 5.70266 0 0 0 128 128 128 255
1.51042 -0.0913888 5.70296 0 0 0 128 128 128 255
1.28579 1.07416 5.70305 0 0 0 128 128 128 255
1.39567 0.511798 5.70315 0 0 0 128 128 128 255
1.33545 0.828118 5.70325 0 0 0 128 128 128 255
1.34425 0.793152 5.70344 0 0 0 128 128 128 255
1.50107 -0.0117121 5.70354 0 0 0 128 128 128 255
1.51484 -0.0671057 5.70383 0 0 0 128 128 128 255
1.43599 0.345428 5.70393 0 0 0 128 128 128 255
1.40827 0.493865 5.70403 0 0 0 128 128 128 255
1.42747 0.394706 5.70403 0 0 0 128 128 128 255
1.36426 0.73693 5.70432 0 0 0 128 128 128 255
1.48874 0.093869 5.70432 0 0 0 128 128 128 255
1.44948 0.31239 5.70462 0 0 0 128 128 128 255
1.41253 0.524228 5.70501 0 0 0 128 128 128 255
1.5226 -0.0391206 5.7051 0 0 0 128 128 128 255
1.32972 0.962477 5.7052 0 0 0 128 128 128 255
1.39854 0.612173 5.7053 0 0 0 128 128 128 255
1.45543 0.328819 5.70549 0 0 0 128 128 128 255
1.34527 0.913541 5.70579 0 0 0 128 128 128 255
1.41016 0.594051 5.70608 0 0 0 128 128 128 255
1.50443 0.107091 5.70608 0 0 0 128 128 128 255
1.34201 0.961801 5.70637 0 0 0 128 128 128 255
1.52466 0.0183177 5.70637 0 0 0 128 128 128 255
1.50495 0.130618 5.70657 0 0 0 128 128 128 255
1.51757 0.0811151 5.70686 0 0 0 128 128 128 255
1.5176 0.0862131 5.70696 0 0 0 128 128 128 255
1.52552 0.0714504 5.70744 0 0 0 128 128 128 255
1.35203 0.972907 5.70754 0 0 0 128 128 128 255
1.35675 0.979932 5.70813 0 0 0 128 128 128 255
1.35376 1.00584 5.70832 0 0 0 128 128 128 255
1.40388 0.773121 5.70881 0 0 0 128 128 128 255
1.34309 1.09239 5.70891 0 0 0 128 128 128 255
1.50162 0.278686 5.70901 0 0 0 128 128 128 255
1.5098 0.236469 5.70901 0 0 0 128 128 128 255
1.34393 1.10375 5.7092 0 0 0 128 128 128 255
1.40322 0.834108 5.70988 0 0 0 128 128 128 255
1.44789 0.603391 5.70988 0 0 0 128 128 128 255
1.47355 0.470852 5.70988 0 0 0 128 128 128 255
1.39644 0.879648 5.71008 0 0 0 128 128 128 255
1.51696 0.262302 5.71018 0 0 0 128 128 128 255
1.40282 0.867641 5.71047 0 0 0 128 128 128 255
1.51823 0.281901 5.71066 0 0 0 128 128 128 255
1.39917 0.917865 5.71105 0 0 0 128 128 128 255
1.43537 0.746622 5.71135 0 0 0 128 128 128 255
1.36716 1.14084 5.71213 0 0 0 128 128 128 255
1.44204 0.754026 5.71213 0 0 0 128 128 128 255
1.4974 0.478526 5.71232 0 0 0 128 128 128 255
1.49211 0.511114 5.71242 0 0 0 128 128 128 255
1.49352 0.519535 5.71271 0 0 0 128 128 128 255
1.4523 0.737678 5.71281 0 0 0 128 128 128 255
1.43919 0.842088 5.71349 0 0 0 128 128 128 255
1.4511 0.806708 5.71398 0 0 0 128 128 128 255
1.47109 0.70872 5.71408 0 0 0 128 128 128 255
1.39474 1.11359 5.71427 0 0 0 128 128 128 255
1.39704 1.10691 5.71437 0 0 0 128 128 128 255
1.43354 0.918405 5.71437 0 0 0 128 128 128 255
1.41133 1.03837 5.71447 0 0 0 128 128 128 255
1.5208 0.47287 5.71447 0 0 0 128 128 128 255
1.47562 0.753395 5.71535 0 0 0 128 128 128 255
1.50356 0.609075 5.71535 0 0 0 128 128 128 255
1.42699 1.0465 5.71613 0 0 0 128 128 128 255
1.43358 1.0386 5.71662 0 0 0 128 128 128 255
1.4338 1.04272 5.71671 0 0 0 128 128 128 255
1.46882 0.872271 5.71691 0 0 0 128 128 128 255
1.45842 0.936465 5.7171 0 0 0 128 128 128 255
1.54897 0.484435 5.7174 0 0 0 128 128 128 255
1.5131 0.680186 5.71759 0 0 0 128 128 128 255
1.47599 0.898103 5.71808 0 0 0 128 128 128 255
1.48476 0.85804 5.71818 0 0 0 128 128 128 255
1.55152 0.523634 5.71837 0 0 0 128 128 128 255
1.48967 0.864084 5.71876 0 0 0 128 128 128 255
1.47319 0.959694 5.71896 0 0 0 128 128 128 255
1.51234 0.757449 5.71896 0 0 0 128 128 128 255
1.51253 0.756467 5.71896 0 0 0 128 128 128 255
1.52988 0.677322 5.71915 0 0 0 128 128 128 255
1.48049 0.937681 5.71925 0 0 0 128 128 128 255
1.4522 1.08906 5.71935 0 0 0 128 128 128 255
1.56827 0.515672 5.71984 0 0 0 128 128 128 255
1.58135 0.479499 5.72042 0 0 0 128 128 128 255
1.46265 1.1084 5.72071 0 0 0 128 128 128 255
1.56289 0.606301 5.72101 0 0 0 128 128 128 255
1.49677 0.953056 5.7211 0 0 0 128 128 128 255
1.58211 0.51224 5.7211 0 0 0 128 128 128 255
1.59042 0.495514 5.72159 0 0 0 128 128 128 255
1.52278 0.850123 5.72169 0 0 0 128 128 128 255
1.58748 0.531614 5.72198 0 0 0 128 128 128 255
1.59709 0.502918 5.72237 0 0 0 128 128 128 255
1.49031 1.05977 5.72247 0 0 0 128 128 128 255
1.53823 0.817463 5.72257 0 0 0 128 128 128 255
1.50325 1.07145 5.72393 0 0 0 128 128 128 255
1.50442 1.07065 5.72403 0 0 0 128 128 128 255
1.51571 1.02802 5.72432 0 0 0 128 128 128 255
1.48313 1.21728 5.72471 0 0 0 128 128 128 255
1.52361 1.00816 5.72471 0 0 0 128 128 128 255
1.62587 0.479968 5.72471 0 0 0 128 128 128 255
1.59002 0.680817 5.72501 0 0 0 128 128 128 255
1.62415 0.525472 5.7254 0 0 0 128 128 128 255
1.53914 0.990796 5.72589 0 0 0 128 128 128 255
1.61486 0.615344 5.72618 0 0 0 128 128 128 255
1.50506 1.193 5.72637 0 0 0 128 128 128 255
1.53908 1.01727 5.72637 0 0 0 128 128 128 255
1.62572 0.601149 5.72696 0 0 0 128 128 128 255
1.55963 0.953002 5.72715 0 0 0 128 128 128 255
1.62749 0.602509 5.72715 0 0 0 128 128 128 255
1.56661 0.979816 5.72832 0 0 0 128 128 128 255
1.57445 0.94976 5.72852 0 0 0 128 128 128 255
1.66153 0.505206 5.72862 0 0 0 128 128 128 255
1.66707 0.481832 5.72871 0 0 0 128 128 128 255
1.67594 0.498829 5.72989 0 0 0 128 128 128 255
1.66315 0.591079 5.73037 0 0 0 128 128 128 255
1.61349 0.910462 5.73154 0 0 0 128 128 128 255
1.65334 0.730761 5.73203 0 0 0 128 128 128 255
1.70354 0.476671 5.73213 0 0 0 128 128 128 255
1.70414 0.478824 5.73223 0 0 0 128 128 128 255
1.69817 0.530633 5.73262 0 0 0 128 128 128 255
1.71169 0.502693 5.7334 0 0 0 128 128 128 255
1.62053 1.02591 5.73437 0 0 0 128 128 128 255
1.73519 0.480761 5.73525 0 0 0 128 128 128 255
1.64399 0.95711 5.73535 0 0 0 128 128 128 255
1.74914 0.461053 5.73623 0 0 0 128 128 128 255
1.60302 1.22113 5.73633 0 0 0 128 128 128 255
1.72218 0.605563 5.73633 0 0 0 128 128 128 255
1.73644 0.53193 5.73633 0 0 0 128 128 128 255
1.61257 1.18224 5.73652 0 0 0 128 128 128 255
1.67431 0.894736 5.73711 0 0 0 128 128 128 255
1.75389 0.509845 5.73759 0 0 0 128 128 128 255
1.71976 0.701858 5.73789 0 0 0 128 128 128 255
1.7282 0.673954 5.73818 0 0 0 128 128 128 255
1.67447 0.961992 5.73837 0 0 0 128 128 128 255
1.76133 0.513322 5.73837 0 0 0 128 128 128 255
1.76991 0.47424 5.73847 0 0 0 128 128 128 255
1.73154 0.677656 5.73857 0 0 0 128 128 128 255
1.76537 0.5029 5.73857 0 0 0 128 128 128 255
1.77012 0.515024 5.73925 0 0 0 128 128 128 255
1.64913 1.15571 5.73955 0 0 0 128 128 128 255
1.70533 0.96491 5.7414 0 0 0 128 128 128 255
1.78206 0.594746 5.74189 0 0 0 128 128 128 255
1.77155 0.675215 5.74237 0 0 0 128 128 128 255
1.72604 0.931233 5.74277 0 0 0 128 128 128 255
1.72908 0.915524 5.74277 0 0 0 128 128 128 255
1.73348 0.934709 5.74355 0 0 0 128 128 128 255
1.67608 1.26787 5.74423 0 0 0 128 128 128 255
