ply
format ascii 1.0
comment VCGLIB generated
element vertex 152
property float x
property float y
property float z
property float nx
property float ny
property float nz
property uchar red
property uchar green
property uchar blue
property uchar alpha
element face 0
property list uchar int vertex_indices
end_header
-0.566902 0.551103 3.79217 0 0 0 0 128 0 255
-0.565189 0.545018 3.79319 0 0 0 0 128 0 255
-0.631135 0.551776 3.8021 0 0 0 0 128 0 255
-0.633438 0.548669 3.80312 0 0 0 0 128 0 255
-0.640228 0.542869 3.80541 0 0 0 0 128 0 255
-0.64138 0.541315 3.80592 0 0 0 0 128 0 255
-0.633695 0.533211 3.80643 0 0 0 0 128 0 255
-0.639909 0.528187 3.80847 0 0 0 0 128 0 255
-0.68791 0.545717 3.81229 0 0 0 0 128 0 255
-0.69711 0.541704 3.81458 0 0 0 0 128 0 255
-0.56964 0.431552 3.8179 0 0 0 0 128 0 255
-0.710568 0.533625 3.81841 0 0 0 0 128 0 255
-0.586069 0.432898 3.82019 0 0 0 0 128 0 255
-0.578157 0.423421 3.82095 0 0 0 0 128 0 255
-0.570594 0.411795 3.82223 0 0 0 0 128 0 255
-0.758918 0.549006 3.82274 0 0 0 0 128 0 255
-0.578521 0.412857 3.82325 0 0 0 0 128 0 255
-0.766268 0.550844 3.8235 0 0 0 0 128 0 255
-0.757205 0.542921 3.82376 0 0 0 0 128 0 255
-0.749747 0.536189 3.82401 0 0 0 0 128 0 255
-0.607348 0.420987 3.82605 0 0 0 0 128 0 255
-0.64133 0.438958 3.82758 0 0 0 0 128 0 255
-0.611046 0.409283 3.82911 0 0 0 0 128 0 255
-0.778711 0.532382 3.82936 0 0 0 0 128 0 255
-0.600148 0.398796 3.82962 0 0 0 0 128 0 255
-0.64915 0.435125 3.82962 0 0 0 0 128 0 255
-0.654667 0.4344 3.83063 0 0 0 0 128 0 255
-0.645391 0.416689 3.83293 0 0 0 0 128 0 255
-0.833729 0.545485 3.83522 0 0 0 0 128 0 255
-0.835927 0.537483 3.83726 0 0 0 0 128 0 255
-0.83479 0.530622 3.83853 0 0 0 0 128 0 255
-0.695134 0.423473 3.8393 0 0 0 0 128 0 255
-0.696741 0.424664 3.8393 0 0 0 0 128 0 255
-0.65371 0.390355 3.83981 0 0 0 0 128 0 255
-0.658424 0.389035 3.84082 0 0 0 0 128 0 255
-0.663365 0.389086 3.84159 0 0 0 0 128 0 255
-0.666123 0.388724 3.8421 0 0 0 0 128 0 255
-0.721218 0.423551 3.84337 0 0 0 0 128 0 255
-0.755775 0.440744 3.84515 0 0 0 0 128 0 255
-0.756579 0.44134 3.84515 0 0 0 0 128 0 255
-0.720929 0.392038 3.85 0 0 0 0 128 0 255
-0.907873 0.529431 3.85025 0 0 0 0 128 0 255
-0.947144 0.545304 3.85305 0 0 0 0 128 0 255
-0.773401 0.415291 3.85331 0 0 0 0 128 0 255
-0.952661 0.544579 3.85407 0 0 0 0 128 0 255
-0.776281 0.411407 3.85458 0 0 0 0 128 0 255
-0.770096 0.399599 3.85611 0 0 0 0 128 0 255
-0.777932 0.387352 3.85993 0 0 0 0 128 0 255
-0.840256 0.427539 3.8612 0 0 0 0 128 0 255
-0.785752 0.38352 3.86197 0 0 0 0 128 0 255
-0.839574 0.423422 3.86197 0 0 0 0 128 0 255
-0.838679 0.409517 3.86477 0 0 0 0 128 0 255
-0.87886 0.430879 3.86655 0 0 0 0 128 0 255
-0.896911 0.425001 3.87063 0 0 0 0 128 0 255
-0.732004 0.30154 3.87088 0 0 0 0 128 0 255
-0.847681 0.3873 3.87088 0 0 0 0 128 0 255
-0.745796 0.299727 3.87343 0 0 0 0 128 0 255
-0.930104 0.433961 3.87394 0 0 0 0 128 0 255
-0.902245 0.397658 3.87725 0 0 0 0 128 0 255
-0.891574 0.388543 3.87751 0 0 0 0 128 0 255
-0.94873 0.427306 3.87827 0 0 0 0 128 0 255
-0.799344 0.299702 3.88184 0 0 0 0 128 0 255
-0.972859 0.428342 3.88184 0 0 0 0 128 0 255
-0.964947 0.418865 3.8826 0 0 0 0 128 0 255
-0.818183 0.302835 3.88413 0 0 0 0 128 0 255
-0.813712 0.297112 3.88464 0 0 0 0 128 0 255
-0.934209 0.386446 3.88464 0 0 0 0 128 0 255
-0.754388 0.24952 3.88541 0 0 0 0 128 0 255
-0.988288 0.41089 3.88795 0 0 0 0 128 0 255
-0.815469 0.277951 3.88897 0 0 0 0 128 0 255
-0.788413 0.242243 3.89228 0 0 0 0 128 0 255
-0.992228 0.392142 3.89254 0 0 0 0 128 0 255
-0.786246 0.233414 3.89381 0 0 0 0 128 0 255
-0.59151 0.0830228 3.89509 0 0 0 0 128 0 255
-0.879672 0.295455 3.89534 0 0 0 0 128 0 255
-0.885644 0.297475 3.89585 0 0 0 0 128 0 255
-0.767329 0.208556 3.8961 0 0 0 0 128 0 255
-0.783396 0.220467 3.8961 0 0 0 0 128 0 255
-0.802569 0.229866 3.89712 0 0 0 0 128 0 255
-0.787079 0.217178 3.89738 0 0 0 0 128 0 255
-0.776878 0.202393 3.89891 0 0 0 0 128 0 255
-0.598436 0.0652856 3.89993 0 0 0 0 128 0 255
-0.614275 0.0758244 3.90018 0 0 0 0 128 0 255
-0.618533 0.0717591 3.90171 0 0 0 0 128 0 255
-0.629552 0.0787245 3.90196 0 0 0 0 128 0 255
-1.05852 0.396752 3.90196 0 0 0 0 128 0 255
-0.586522 0.0444153 3.90247 0 0 0 0 128 0 255
-0.886506 0.264409 3.90298 0 0 0 0 128 0 255
-0.908999 0.281084 3.90298 0 0 0 0 128 0 255
-0.819952 0.211456 3.90375 0 0 0 0 128 0 255
-0.830638 0.212155 3.90528 0 0 0 0 128 0 255
-0.975143 0.306046 3.90808 0 0 0 0 128 0 255
-0.598055 0.0204637 3.90935 0 0 0 0 128 0 255
-0.981235 0.304544 3.90935 0 0 0 0 128 0 255
-0.669792 0.0664251 3.91088 0 0 0 0 128 0 255
-0.691481 0.0825051 3.91088 0 0 0 0 128 0 255
-0.599676 0.0132393 3.91114 0 0 0 0 128 0 255
-0.696074 0.0847061 3.91114 0 0 0 0 128 0 255
-0.5919 -0.00817478 3.91445 0 0 0 0 128 0 255
-0.917818 0.232249 3.9147 0 0 0 0 128 0 255
-0.920576 0.231886 3.91521 0 0 0 0 128 0 255
-0.695194 0.0623857 3.91572 0 0 0 0 128 0 255
-0.622456 -0.00237453 3.91801 0 0 0 0 128 0 255
-0.694072 0.0471085 3.91878 0 0 0 0 128 0 255
-1.03389 0.290613 3.92056 0 0 0 0 128 0 255
-0.703847 0.0423181 3.92133 0 0 0 0 128 0 255
-0.63649 -0.0112301 3.92209 0 0 0 0 128 0 255
-0.640052 -0.0109971 3.9226 0 0 0 0 128 0 255
-0.678959 0.0154405 3.92311 0 0 0 0 128 0 255
-0.950479 0.216739 3.92311 0 0 0 0 128 0 255
-1.04125 0.284036 3.92311 0 0 0 0 128 0 255
-0.761473 0.0754104 3.92336 0 0 0 0 128 0 255
-1.04504 0.285642 3.92336 0 0 0 0 128 0 255
-0.682066 0.0129288 3.92413 0 0 0 0 128 0 255
-0.775372 0.0784917 3.92489 0 0 0 0 128 0 255
-0.714668 0.0310803 3.9254 0 0 0 0 128 0 255
-0.777903 0.0767569 3.92566 0 0 0 0 128 0 255
-0.695737 0.0146378 3.92591 0 0 0 0 128 0 255
-0.706452 -0.00149399 3.93101 0 0 0 0 128 0 255
-0.779675 0.0491802 3.93177 0 0 0 0 128 0 255
-1.01104 0.212285 3.93355 0 0 0 0 128 0 255
-1.01185 0.21288 3.93355 0 0 0 0 128 0 255
-0.711195 -0.0196455 3.93559 0 0 0 0 128 0 255
-0.835709 0.0726658 3.93559 0 0 0 0 128 0 255
-0.712817 -0.0268698 3.93737 0 0 0 0 128 0 255
-0.772035 0.015829 3.93763 0 0 0 0 128 0 255
-0.720744 -0.0258081 3.93839 0 0 0 0 128 0 255
-0.725685 -0.0257564 3.93916 0 0 0 0 128 0 255
-0.720758 -0.0342236 3.94018 0 0 0 0 128 0 255
-0.855715 0.0658299 3.94018 0 0 0 0 128 0 255
-0.884179 0.0845252 3.94069 0 0 0 0 128 0 255
-0.787008 -0.00436804 3.94425 0 0 0 0 128 0 255
-0.881814 0.0574922 3.94604 0 0 0 0 128 0 255
-0.776928 -0.0226749 3.94655 0 0 0 0 128 0 255
-0.88436 0.0473419 3.94858 0 0 0 0 128 0 255
-0.878872 0.031236 3.95113 0 0 0 0 128 0 255
-0.81106 -0.025057 3.9524 0 0 0 0 128 0 255
-0.822655 -0.0188684 3.95291 0 0 0 0 128 0 255
-0.810378 -0.0291741 3.95317 0 0 0 0 128 0 255
-0.814197 -0.0443996 3.95699 0 0 0 0 128 0 255
-0.912095 0.0233644 3.95801 0 0 0 0 128 0 255
-0.869079 -0.0193603 3.9603 0 0 0 0 128 0 255
-0.872414 -0.0204996 3.96107 0 0 0 0 128 0 255
-0.874262 -0.0263516 3.96259 0 0 0 0 128 0 255
-0.918687 -0.000639081 3.96412 0 0 0 0 128 0 255
-0.982042 0.041516 3.96514 0 0 0 0 128 0 255
-0.926295 -0.0142591 3.9682 0 0 0 0 128 0 255
-0.928947 -0.0195156 3.96973 0 0 0 0 128 0 255
-0.985208 0.0053425 3.97329 0 0 0 0 128 0 255
-0.982964 -0.0252121 3.97941 0 0 0 0 128 0 255
-0.995589 -0.0170555 3.97966 0 0 0 0 128 0 255
-0.990891 -0.0241504 3.98043 0 0 0 0 128 0 255
