ply
format ascii 1.0
comment VCGLIB generated
element vertex 31
property float x
property float y
property float z
property float nx
property float ny
property float nz
property uchar red
property uchar green
property uchar blue
property uchar alpha
element face 0
property list uchar int vertex_indices
end_header
-0.324955 -0.605916 5.46172 0 0 0 0 128 128 255
-0.389155 -0.65539 5.64727 0 0 0 0 128 128 255
-0.390845 -0.664027 5.62336 0 0 0 0 128 128 255
-0.417103 -0.708248 5.66704 0 0 0 0 128 128 255
-0.430555 -0.73186 5.70939 0 0 0 0 128 128 255
-0.430409 -0.729759 5.7293 0 0 0 0 128 128 255
-0.426319 -0.721113 5.80571 0 0 0 0 128 128 255
-0.432223 -0.73355 5.73498 0 0 0 0 128 128 255
-0.431228 -0.736359 5.84042 0 0 0 0 128 128 255
-0.433773 -0.741048 5.83213 0 0 0 0 128 128 255
-0.434488 -0.751635 5.87903 0 0 0 0 128 128 255
-0.429841 -0.751507 5.91796 0 0 0 0 128 128 255
-0.447449 -0.77019 5.79354 0 0 0 0 128 128 255
-0.424749 -0.76886 5.99108 0 0 0 0 128 128 255
-0.409766 -0.882894 5.34213 0 0 0 0 128 128 255
-0.460748 -0.895486 5.49995 0 0 0 0 128 128 255
-0.463015 -0.911323 5.49056 0 0 0 0 128 128 255
-0.487163 -0.889452 5.81804 0 0 0 0 128 128 255
-0.491844 -0.90524 5.71639 0 0 0 0 128 128 255
-0.489392 -0.896767 5.81418 0 0 0 0 128 128 255
-0.4913 -0.902165 5.80294 0 0 0 0 128 128 255
-0.496334 -0.918874 5.77432 0 0 0 0 128 128 255
-0.495158 -0.952023 5.6137 0 0 0 0 128 128 255
-0.495552 -0.957198 5.60748 0 0 0 0 128 128 255
-0.500894 -0.936903 5.76511 0 0 0 0 128 128 255
-0.495007 -0.926852 5.85438 0 0 0 0 128 128 255
-0.500532 -0.941531 5.8235 0 0 0 0 128 128 255
-0.501584 -0.94507 5.81903 0 0 0 0 128 128 255
-0.48918 -0.94889 5.95115 0 0 0 0 128 128 255
-0.492264 -0.961741 5.95026 0 0 0 0 128 128 255
-0.501089 -0.979978 5.91527 0 0 0 0 128 128 255
