ply
format ascii 1.0
comment VCGLIB generated
element vertex 23
property float x
property float y
property float z
property float nx
property float ny
property float nz
property uchar red
property uchar green
property uchar blue
property uchar alpha
element face 0
property list uchar int vertex_indices
end_header
3.29946 1.76069 4.21559 0 0 0 255 255 0 255
3.30491 1.73734 4.20082 0 0 0 255 255 0 255
3.29468 1.70979 4.19774 0 0 0 255 255 0 255
3.30258 1.66441 4.17324 0 0 0 255 255 0 255
3.30809 1.66116 4.16749 0 0 0 255 255 0 255
3.08515 1.59976 4.32719 0 0 0 255 255 0 255
3.08664 1.57856 4.31817 0 0 0 255 255 0 255
3.11123 1.57645 4.29737 0 0 0 255 255 0 255
3.33899 1.61363 4.1252 0 0 0 255 255 0 255
3.30729 1.6007 4.14649 0 0 0 255 255 0 255
3.07915 1.51606 4.30288 0 0 0 255 255 0 255
3.12395 1.45291 4.24807 0 0 0 255 255 0 255
3.07804 1.43814 4.28044 0 0 0 255 255 0 255
3.03308 1.34003 4.29126 0 0 0 255 255 0 255
3.08265 1.31066 4.24642 0 0 0 255 255 0 255
3.14654 1.31044 4.19695 0 0 0 255 255 0 255
3.14215 1.27471 4.19379 0 0 0 255 255 0 255
3.15776 1.23703 4.17575 0 0 0 255 255 0 255
3.00622 1.18987 4.28408 0 0 0 255 255 0 255
3.17413 1.16727 4.15423 0 0 0 255 255 0 255
3.16917 1.1469 4.15579 0 0 0 255 255 0 255
3.16635 1.14316 4.15752 0 0 0 255 255 0 255
3.17916 1.11927 4.14575 0 0 0 255 255 0 255
