ply
format ascii 1.0
comment VCGLIB generated
element vertex 287
property float x
property float y
property float z
property float nx
property float ny
property float nz
property uchar red
property uchar green
property uchar blue
property uchar alpha
element face 0
property list uchar int vertex_indices
end_header
0.0999184 1.56928 3.66933 0 0 0 0 128 128 255
0.128083 1.53384 3.60335 0 0 0 0 128 128 255
0.136339 1.52734 3.5898 0 0 0 0 128 128 255
0.138314 1.53346 3.52146 0 0 0 0 128 128 255
0.230674 1.48773 3.67414 0 0 0 0 128 128 255
0.239752 1.48324 3.66876 0 0 0 0 128 128 255
0.151503 1.52911 3.50203 0 0 0 0 128 128 255
0.240064 1.47502 3.61314 0 0 0 0 128 128 255
0.173209 1.52 3.48677 0 0 0 0 128 128 255
0.184142 1.51294 3.48946 0 0 0 0 128 128 255
0.261341 1.47072 3.54368 0 0 0 0 128 128 255
0.264947 1.47125 3.53314 0 0 0 0 128 128 255
0.424116 1.50653 3.76816 0 0 0 0 128 128 255
0.409671 1.54047 3.82324 0 0 0 0 128 128 255
0.42716 1.523 3.79447 0 0 0 0 128 128 255
0.44072 1.50995 3.76755 0 0 0 0 128 128 255
0.441991 1.54452 3.819 0 0 0 0 128 128 255
0.43753 1.55125 3.82873 0 0 0 0 128 128 255
0.443138 1.4765 3.68202 0 0 0 0 128 128 255
0.419824 1.57926 3.86288 0 0 0 0 128 128 255
0.479302 1.49776 3.71552 0 0 0 0 128 128 255
0.471866 1.48731 3.69195 0 0 0 0 128 128 255
0.474577 1.54346 3.80299 0 0 0 0 128 128 255
0.471527 1.48555 3.68622 0 0 0 0 128 128 255
0.497692 1.51212 3.73284 0 0 0 0 128 128 255
0.517505 1.51808 3.72535 0 0 0 0 128 128 255
0.489912 1.58874 3.84644 0 0 0 0 128 128 255
0.228408 1.5257 3.41178 0 0 0 0 128 128 255
0.520457 1.57564 3.81422 0 0 0 0 128 128 255
0.487359 1.6036 3.86105 0 0 0 0 128 128 255
0.495043 1.60025 3.85436 0 0 0 0 128 128 255
0.520024 1.49574 3.64508 0 0 0 0 128 128 255
0.498688 1.61963 3.86846 0 0 0 0 128 128 255
0.558913 1.56328 3.76294 0 0 0 0 128 128 255
0.500921 1.4828 3.58964 0 0 0 0 128 128 255
0.400601 1.46593 3.50973 0 0 0 0 128 128 255
0.564717 1.57797 3.77778 0 0 0 0 128 128 255
0.496792 1.48125 3.58131 0 0 0 0 128 128 255
0.580083 1.60402 3.79329 0 0 0 0 128 128 255
0.42699 1.47107 3.50451 0 0 0 0 128 128 255
0.268051 1.53016 3.38189 0 0 0 0 128 128 255
0.620428 1.62556 3.76699 0 0 0 0 128 128 255
0.5797 1.65902 3.84236 0 0 0 0 128 128 255
0.5742 1.67183 3.85529 0 0 0 0 128 128 255
0.282863 1.52524 3.3832 0 0 0 0 128 128 255
0.273159 1.53474 3.37324 0 0 0 0 128 128 255
0.420962 1.48489 3.45578 0 0 0 0 128 128 255
0.334896 1.50629 3.40061 0 0 0 0 128 128 255
0.461195 1.49275 3.46036 0 0 0 0 128 128 255
0.666282 1.6326 3.68086 0 0 0 0 128 128 255
0.549897 1.71954 3.89558 0 0 0 0 128 128 255
0.29782 1.52969 3.37192 0 0 0 0 128 128 255
0.613218 1.55643 3.54732 0 0 0 0 128 128 255
0.56108 1.52705 3.49757 0 0 0 0 128 128 255
0.496991 1.50528 3.46121 0 0 0 0 128 128 255
0.353681 1.50763 3.39687 0 0 0 0 128 128 255
0.47176 1.50255 3.44456 0 0 0 0 128 128 255
0.487329 1.50603 3.44972 0 0 0 0 128 128 255
0.574513 1.74456 3.88745 0 0 0 0 128 128 255
0.340672 1.5212 3.37622 0 0 0 0 128 128 255
0.345653 1.52082 3.37641 0 0 0 0 128 128 255
0.502856 1.51722 3.43943 0 0 0 0 128 128 255
0.664314 1.61337 3.55047 0 0 0 0 128 128 255
0.379212 1.51425 3.38702 0 0 0 0 128 128 255
0.694853 1.70978 3.71222 0 0 0 0 128 128 255
0.497751 1.52008 3.42896 0 0 0 0 128 128 255
0.655082 1.60557 3.52958 0 0 0 0 128 128 255
0.699212 1.72096 3.711 0 0 0 0 128 128 255
0.70097 1.71913 3.70416 0 0 0 0 128 128 255
0.430511 1.51695 3.3946 0 0 0 0 128 128 255
0.70631 1.73099 3.69927 0 0 0 0 128 128 255
0.609975 1.77897 3.86734 0 0 0 0 128 128 255
0.610869 1.77883 3.8665 0 0 0 0 128 128 255
0.674093 1.63312 3.52799 0 0 0 0 128 128 255
0.559322 1.55064 3.43746 0 0 0 0 128 128 255
0.64282 1.77893 3.8337 0 0 0 0 128 128 255
0.492899 1.53088 3.40572 0 0 0 0 128 128 255
0.404249 1.52608 3.37321 0 0 0 0 128 128 255
0.373775 1.53145 3.36167 0 0 0 0 128 128 255
0.71457 1.75426 3.69194 0 0 0 0 128 128 255
0.369896 1.53299 3.35941 0 0 0 0 128 128 255
0.492399 1.53545 3.39802 0 0 0 0 128 128 255
0.669594 1.63799 3.49701 0 0 0 0 128 128 255
0.692166 1.78465 3.76215 0 0 0 0 128 128 255
0.528898 1.54784 3.40835 0 0 0 0 128 128 255
0.711334 1.77489 3.71453 0 0 0 0 128 128 255
0.675896 1.65208 3.48989 0 0 0 0 128 128 255
0.670525 1.64867 3.47971 0 0 0 0 128 128 255
0.71872 1.78464 3.69645 0 0 0 0 128 128 255
0.338886 1.55306 3.33581 0 0 0 0 128 128 255
0.473032 1.54139 3.37739 0 0 0 0 128 128 255
0.586066 1.58617 3.41469 0 0 0 0 128 128 255
0.496362 1.55661 3.37089 0 0 0 0 128 128 255
0.701257 1.70591 3.49014 0 0 0 0 128 128 255
0.628546 1.63189 3.41628 0 0 0 0 128 128 255
0.612954 1.61992 3.40729 0 0 0 0 128 128 255
0.64874 1.65031 3.42889 0 0 0 0 128 128 255
0.725434 1.75323 3.53876 0 0 0 0 128 128 255
0.413833 1.55122 3.34316 0 0 0 0 128 128 255
0.573977 1.59844 3.38493 0 0 0 0 128 128 255
0.447112 1.55325 3.35064 0 0 0 0 128 128 255
0.610676 1.62533 3.39808 0 0 0 0 128 128 255
0.686442 1.69916 3.45515 0 0 0 0 128 128 255
0.726804 1.76508 3.53167 0 0 0 0 128 128 255
0.726524 1.76574 3.52915 0 0 0 0 128 128 255
0.721631 1.75575 3.51357 0 0 0 0 128 128 255
0.676666 1.69102 3.44081 0 0 0 0 128 128 255
0.722298 1.7578 3.51469 0 0 0 0 128 128 255
0.669541 1.68583 3.43112 0 0 0 0 128 128 255
0.351117 1.57072 3.31689 0 0 0 0 128 128 255
0.720567 1.75935 3.5053 0 0 0 0 128 128 255
0.717825 1.75489 3.49792 0 0 0 0 128 128 255
0.430825 1.56203 3.33549 0 0 0 0 128 128 255
0.448237 1.56476 3.33813 0 0 0 0 128 128 255
0.631606 1.65846 3.39357 0 0 0 0 128 128 255
0.719758 1.76618 3.49648 0 0 0 0 128 128 255
0.71267 1.75347 3.48066 0 0 0 0 128 128 255
0.705218 1.74162 3.46691 0 0 0 0 128 128 255
0.562987 1.61203 3.35995 0 0 0 0 128 128 255
0.600572 1.63849 3.37279 0 0 0 0 128 128 255
0.367921 1.57227 3.31545 0 0 0 0 128 128 255
0.716329 1.76878 3.4824 0 0 0 0 128 128 255
0.709973 1.76038 3.46777 0 0 0 0 128 128 255
0.715084 1.7708 3.47715 0 0 0 0 128 128 255
0.642806 1.6811 3.39054 0 0 0 0 128 128 255
0.302109 1.62853 3.27602 0 0 0 0 128 128 255
0.713753 1.7746 3.47102 0 0 0 0 128 128 255
0.712648 1.77811 3.4661 0 0 0 0 128 128 255
0.595723 1.64909 3.35858 0 0 0 0 128 128 255
0.643216 1.69119 3.38373 0 0 0 0 128 128 255
0.436471 1.5766 3.3223 0 0 0 0 128 128 255
0.714215 1.78653 3.46709 0 0 0 0 128 128 255
0.644671 1.6981 3.38109 0 0 0 0 128 128 255
0.67078 1.72734 3.40268 0 0 0 0 128 128 255
0.67535 1.73368 3.40692 0 0 0 0 128 128 255
0.66565 1.72564 3.3953 0 0 0 0 128 128 255
0.735579 1.85909 3.55958 0 0 0 0 128 128 255
0.667453 1.72859 3.39654 0 0 0 0 128 128 255
0.662668 1.72309 3.39207 0 0 0 0 128 128 255
0.662727 1.72487 3.39117 0 0 0 0 128 128 255
0.702449 1.78023 3.4392 0 0 0 0 128 128 255
0.664604 1.7314 3.39057 0 0 0 0 128 128 255
0.64633 1.71126 3.37528 0 0 0 0 128 128 255
0.732411 1.89282 3.60964 0 0 0 0 128 128 255
0.60582 1.67606 3.34932 0 0 0 0 128 128 255
0.637733 1.70749 3.36628 0 0 0 0 128 128 255
0.602785 1.675 3.34693 0 0 0 0 128 128 255
0.578153 1.65811 3.33532 0 0 0 0 128 128 255
0.731685 1.89923 3.60194 0 0 0 0 128 128 255
0.690951 1.7798 3.41535 0 0 0 0 128 128 255
0.694991 1.79319 3.41951 0 0 0 0 128 128 255
0.627634 1.71118 3.35225 0 0 0 0 128 128 255
0.731305 1.9017 3.57836 0 0 0 0 128 128 255
0.462654 1.60452 3.30623 0 0 0 0 128 128 255
0.44734 1.6008 3.30407 0 0 0 0 128 128 255
0.664783 1.76197 3.37783 0 0 0 0 128 128 255
0.663678 1.7606 3.37671 0 0 0 0 128 128 255
0.66413 1.76217 3.37682 0 0 0 0 128 128 255
0.452814 1.60791 3.30012 0 0 0 0 128 128 255
0.573612 1.68114 3.31718 0 0 0 0 128 128 255
0.64289 1.75527 3.35132 0 0 0 0 128 128 255
0.478474 1.62379 3.29764 0 0 0 0 128 128 255
0.641541 1.75476 3.34989 0 0 0 0 128 128 255
0.656909 1.77524 3.363 0 0 0 0 128 128 255
0.567332 1.68618 3.30961 0 0 0 0 128 128 255
0.668422 1.79355 3.37477 0 0 0 0 128 128 255
0.652517 1.77306 3.35789 0 0 0 0 128 128 255
0.63111 1.75133 3.33919 0 0 0 0 128 128 255
0.568239 1.69046 3.30807 0 0 0 0 128 128 255
0.568242 1.69135 3.30762 0 0 0 0 128 128 255
0.56399 1.69495 3.30273 0 0 0 0 128 128 255
0.669926 1.81572 3.37392 0 0 0 0 128 128 255
0.647714 1.79072 3.34808 0 0 0 0 128 128 255
0.681642 1.84123 3.39122 0 0 0 0 128 128 255
0.71266 1.96901 3.59107 0 0 0 0 128 128 255
0.682042 1.84722 3.39219 0 0 0 0 128 128 255
0.678886 1.84206 3.38683 0 0 0 0 128 128 255
0.709818 1.91038 3.46914 0 0 0 0 128 128 255
0.694567 1.87274 3.41824 0 0 0 0 128 128 255
0.680133 1.85082 3.38936 0 0 0 0 128 128 255
0.703899 1.90374 3.44954 0 0 0 0 128 128 255
0.691371 1.87681 3.41304 0 0 0 0 128 128 255
0.686837 1.87108 3.4035 0 0 0 0 128 128 255
0.707616 1.93461 3.48121 0 0 0 0 128 128 255
0.707691 1.97046 3.5335 0 0 0 0 128 128 255
0.705207 1.94715 3.48599 0 0 0 0 128 128 255
0.704814 1.9546 3.49338 0 0 0 0 128 128 255
0.704306 1.96335 3.50349 0 0 0 0 128 128 255
0.703859 1.95901 3.49562 0 0 0 0 128 128 255
0.702979 1.96015 3.49392 0 0 0 0 128 128 255
0.703402 1.97186 3.51375 0 0 0 0 128 128 255
0.587336 1.77199 3.29354 0 0 0 0 128 128 255
0.701486 1.96486 3.49489 0 0 0 0 128 128 255
0.640727 1.84216 3.33636 0 0 0 0 128 128 255
0.580686 1.77454 3.288 0 0 0 0 128 128 255
0.526308 1.72449 3.26757 0 0 0 0 128 128 255
0.390817 1.63996 3.26541 0 0 0 0 128 128 255
0.561573 1.76694 3.27635 0 0 0 0 128 128 255
0.507874 1.72509 3.25842 0 0 0 0 128 128 255
0.689076 2.01218 3.53812 0 0 0 0 128 128 255
0.685261 1.96832 3.45197 0 0 0 0 128 128 255
0.497193 1.72046 3.25535 0 0 0 0 128 128 255
0.686396 2.01728 3.53889 0 0 0 0 128 128 255
0.601574 1.85202 3.29901 0 0 0 0 128 128 255
0.603756 1.85906 3.30138 0 0 0 0 128 128 255
0.67182 2.03772 3.52632 0 0 0 0 128 128 255
0.45923 1.72483 3.24064 0 0 0 0 128 128 255
0.565539 1.82621 3.2719 0 0 0 0 128 128 255
0.599171 1.87497 3.29935 0 0 0 0 128 128 255
0.465666 1.74452 3.23697 0 0 0 0 128 128 255
0.567203 1.84459 3.27308 0 0 0 0 128 128 255
0.558692 1.83501 3.26746 0 0 0 0 128 128 255
0.42916 1.71649 3.23601 0 0 0 0 128 128 255
0.66282 2.05227 3.53121 0 0 0 0 128 128 255
0.414318 1.70767 3.23641 0 0 0 0 128 128 255
0.657018 2.01811 3.44564 0 0 0 0 128 128 255
0.381498 1.69645 3.23697 0 0 0 0 128 128 255
0.431937 1.73757 3.23025 0 0 0 0 128 128 255
0.453229 1.75609 3.23072 0 0 0 0 128 128 255
0.405261 1.71938 3.23115 0 0 0 0 128 128 255
0.573766 1.88117 3.28092 0 0 0 0 128 128 255
0.569323 1.87571 3.27709 0 0 0 0 128 128 255
0.56662 1.87977 3.27586 0 0 0 0 128 128 255
0.562937 1.87972 3.27344 0 0 0 0 128 128 255
0.446903 1.77401 3.22571 0 0 0 0 128 128 255
0.417953 1.74999 3.2246 0 0 0 0 128 128 255
0.424493 1.75884 3.22379 0 0 0 0 128 128 255
0.39815 1.74758 3.22249 0 0 0 0 128 128 255
0.401413 1.75478 3.22123 0 0 0 0 128 128 255
0.587665 1.96142 3.31564 0 0 0 0 128 128 255
0.621665 2.08404 3.48053 0 0 0 0 128 128 255
0.357856 1.73366 3.22392 0 0 0 0 128 128 255
0.343005 1.71643 3.22944 0 0 0 0 128 128 255
0.619646 2.08373 3.47509 0 0 0 0 128 128 255
0.391379 1.76849 3.21753 0 0 0 0 128 128 255
0.612642 2.05076 3.41027 0 0 0 0 128 128 255
0.513603 1.89077 3.2482 0 0 0 0 128 128 255
0.579967 1.98698 3.3225 0 0 0 0 128 128 255
0.447875 1.83344 3.22104 0 0 0 0 128 128 255
0.607279 2.1032 3.4932 0 0 0 0 128 128 255
0.573087 1.99028 3.31882 0 0 0 0 128 128 255
0.316287 1.66867 3.25102 0 0 0 0 128 128 255
0.359749 1.77371 3.21523 0 0 0 0 128 128 255
0.324018 1.65047 3.25963 0 0 0 0 128 128 255
0.321465 1.72593 3.22806 0 0 0 0 128 128 255
0.345643 1.76313 3.21732 0 0 0 0 128 128 255
0.340781 1.76148 3.21784 0 0 0 0 128 128 255
0.311119 1.6614 3.25536 0 0 0 0 128 128 255
0.308053 1.65547 3.25896 0 0 0 0 128 128 255
0.306601 1.7723 3.21912 0 0 0 0 128 128 255
0.308085 1.77611 3.2183 0 0 0 0 128 128 255
0.411294 1.91953 3.22397 0 0 0 0 128 128 255
0.286228 1.77906 3.2215 0 0 0 0 128 128 255
0.405781 1.95447 3.2332 0 0 0 0 128 128 255
0.356586 1.91775 3.21982 0 0 0 0 128 128 255
0.365345 1.95426 3.2301 0 0 0 0 128 128 255
0.356517 1.98968 3.24394 0 0 0 0 128 128 255
0.321726 1.94534 3.22908 0 0 0 0 128 128 255
0.264992 1.85096 3.22261 0 0 0 0 128 128 255
0.369969 2.0319 3.26648 0 0 0 0 128 128 255
0.350927 2.02685 3.26334 0 0 0 0 128 128 255
0.301766 1.94599 3.2319 0 0 0 0 128 128 255
0.234017 1.82846 3.2316 0 0 0 0 128 128 255
0.263263 1.91763 3.23235 0 0 0 0 128 128 255
0.261127 1.91786 3.23299 0 0 0 0 128 128 255
0.207518 1.78691 3.24513 0 0 0 0 128 128 255
0.273781 2.08175 3.31566 0 0 0 0 128 128 255
0.19963 1.91554 3.25532 0 0 0 0 128 128 255
0.140011 1.80981 3.28094 0 0 0 0 128 128 255
0.105845 1.81101 3.30819 0 0 0 0 128 128 255
0.131794 1.68514 3.32498 0 0 0 0 128 128 255
0.0943958 1.98015 3.36077 0 0 0 0 128 128 255
0.0900517 2.01813 3.39604 0 0 0 0 128 128 255
0.0874626 2.04297 3.42751 0 0 0 0 128 128 255
0.0787166 1.77594 3.34087 0 0 0 0 128 128 255
0.0863551 2.05253 3.44273 0 0 0 0 128 128 255
0.140144 1.62563 3.36054 0 0 0 0 128 128 255
0.124869 1.62861 3.37332 0 0 0 0 128 128 255
0.0486637 1.97469 3.42346 0 0 0 0 128 128 255
0.0895016 1.67523 3.37525 0 0 0 0 128 128 255
0.0460937 1.78441 3.38126 0 0 0 0 128 128 255
0.0396565 1.81899 3.38573 0 0 0 0 128 128 255
0.0371728 1.81178 3.39035 0 0 0 0 128 128 255
0.0356922 1.80802 3.39323 0 0 0 0 128 128 255
0.0165853 1.92984 3.4582 0 0 0 0 128 128 255
0.0208044 1.8047 3.42074 0 0 0 0 128 128 255
0.0986831 1.61704 3.41955 0 0 0 0 128 128 255
