ply
format ascii 1.0
comment VCGLIB generated
element vertex 31
property float x
property float y
property float z
property float nx
property float ny
property float nz
property uchar red
property uchar green
property uchar blue
property uchar alpha
element face 0
property list uchar int vertex_indices
end_header
-0.69912 1.4478 3.38243 0 0 0 255 255 0 255
-0.312829 1.59209 3.39162 0 0 0 255 255 0 255
-0.319543 1.58763 3.39183 0 0 0 255 255 0 255
-1.01855 1.19686 3.39938 0 0 0 255 255 0 255
-1.04507 1.16495 3.40286 0 0 0 255 255 0 255
-0.852477 1.2516 3.40469 0 0 0 255 255 0 255
-1.06303 1.145 3.4049 0 0 0 255 255 0 255
-1.03712 1.1558 3.40531 0 0 0 255 255 0 255
-1.03631 1.14525 3.40735 0 0 0 255 255 0 255
-0.354717 1.47255 3.41 0 0 0 255 255 0 255
-0.671411 1.28759 3.41491 0 0 0 255 255 0 255
-0.429633 1.40107 3.41634 0 0 0 255 255 0 255
-0.992439 1.11796 3.41654 0 0 0 255 255 0 255
-0.510047 1.30932 3.42594 0 0 0 255 255 0 255
-0.508749 1.30449 3.42696 0 0 0 255 255 0 255
-0.467252 1.31543 3.4288 0 0 0 255 255 0 255
-0.468146 1.31498 3.4288 0 0 0 255 255 0 255
-0.51241 1.29171 3.429 0 0 0 255 255 0 255
-0.49959 1.27952 3.43247 0 0 0 255 255 0 255
-0.504061 1.27728 3.43247 0 0 0 255 255 0 255
-0.525534 1.26433 3.43288 0 0 0 255 255 0 255
-0.526041 1.25641 3.43431 0 0 0 255 255 0 255
-0.595575 1.18981 3.44023 0 0 0 255 255 0 255
-0.474913 1.2459 3.44105 0 0 0 255 255 0 255
-0.586685 1.1877 3.44146 0 0 0 255 255 0 255
-0.854746 1.01506 3.44861 0 0 0 255 255 0 255
-0.191488 1.33207 3.45147 0 0 0 255 255 0 255
-0.857465 0.951281 3.46025 0 0 0 255 255 0 255
-0.641664 1.04518 3.46291 0 0 0 255 255 0 255
-0.63765 1.0461 3.46311 0 0 0 255 255 0 255
-0.833512 0.939195 3.46475 0 0 0 255 255 0 255
