ply
format ascii 1.0
comment VCGLIB generated
element vertex 31
property float x
property float y
property float z
property float nx
property float ny
property float nz
property uchar red
property uchar green
property uchar blue
property uchar alpha
element face 0
property list uchar int vertex_indices
end_header
1.97631 1.39377 3.64508 0 0 0 0 128 0 255
2.0409 1.38499 3.65928 0 0 0 0 128 0 255
2.08509 1.39483 3.66424 0 0 0 0 128 0 255
2.08954 1.36781 3.67315 0 0 0 0 128 0 255
2.10054 1.36887 3.6748 0 0 0 0 128 0 255
2.25351 1.39735 3.69363 0 0 0 0 128 0 255
2.25716 1.39512 3.69495 0 0 0 0 128 0 255
2.26006 1.39026 3.69693 0 0 0 0 128 0 255
2.28503 1.39524 3.6999 0 0 0 0 128 0 255
2.24914 1.31674 3.71707 0 0 0 0 128 0 255
2.0085 1.14818 3.72467 0 0 0 0 128 0 255
2.32371 1.3205 3.72929 0 0 0 0 128 0 255
2.3712 1.22903 3.76529 0 0 0 0 128 0 255
2.26793 1.16205 3.76694 0 0 0 0 128 0 255
2.27485 1.15628 3.76991 0 0 0 0 128 0 255
2.39085 1.22535 3.76991 0 0 0 0 128 0 255
1.99864 0.902823 3.79666 0 0 0 0 128 0 255
2.35948 1.04739 3.8178 0 0 0 0 128 0 255
2.40394 1.0431 3.82705 0 0 0 0 128 0 255
2.28514 0.941598 3.83629 0 0 0 0 128 0 255
2.40159 0.939534 3.85776 0 0 0 0 128 0 255
2.33098 0.891991 3.85941 0 0 0 0 128 0 255
2.40707 0.936203 3.85974 0 0 0 0 128 0 255
2.3445 0.886863 3.86337 0 0 0 0 128 0 255
2.32694 0.875308 3.8637 0 0 0 0 128 0 255
2.33317 0.857042 3.87031 0 0 0 0 128 0 255
2.38595 0.871993 3.87526 0 0 0 0 128 0 255
2.38127 0.868112 3.87559 0 0 0 0 128 0 255
2.41342 0.835623 3.89111 0 0 0 0 128 0 255
2.40676 0.827263 3.89243 0 0 0 0 128 0 255
2.41243 0.749342 3.91687 0 0 0 0 128 0 255
