ply
format ascii 1.0
comment VCGLIB generated
element vertex 465
property float x
property float y
property float z
property float nx
property float ny
property float nz
property uchar red
property uchar green
property uchar blue
property uchar alpha
element face 0
property list uchar int vertex_indices
end_header
-0.495051 -0.571335 3.6131 0 0 0 128 0 0 255
-0.497082 -0.589221 3.61111 0 0 0 128 0 0 255
-0.497655 -0.525012 3.60643 0 0 0 128 0 0 255
-0.495203 -0.478084 3.60725 0 0 0 128 0 0 255
-0.497755 -0.504954 3.60514 0 0 0 128 0 0 255
-0.495877 -0.469009 3.60577 0 0 0 128 0 0 255
-0.495564 -0.463018 3.60587 0 0 0 128 0 0 255
-0.501303 -0.561824 3.60333 0 0 0 128 0 0 255
-0.502612 -0.575758 3.60227 0 0 0 128 0 0 255
-0.499169 -0.509858 3.60342 0 0 0 128 0 0 255
-0.500363 -0.487713 3.60056 0 0 0 128 0 0 255
-0.51745 -0.734022 3.59067 0 0 0 128 0 0 255
-0.507774 -0.525246 3.59274 0 0 0 128 0 0 255
-0.512344 -0.57703 3.58948 0 0 0 128 0 0 255
-0.509318 -0.507089 3.58992 0 0 0 128 0 0 255
-0.512401 -0.541943 3.58776 0 0 0 128 0 0 255
-0.507863 -0.455075 3.58927 0 0 0 128 0 0 255
-0.503167 -0.279014 3.58698 0 0 0 128 0 0 255
-0.516937 -0.517557 3.5813 0 0 0 128 0 0 255
-0.517662 -0.493451 3.57946 0 0 0 128 0 0 255
-0.516879 -0.478474 3.57972 0 0 0 128 0 0 255
-0.516813 -0.464447 3.57922 0 0 0 128 0 0 255
-0.522174 -0.554263 3.57691 0 0 0 128 0 0 255
-0.508342 -0.276636 3.58101 0 0 0 128 0 0 255
-0.507925 -0.268648 3.58115 0 0 0 128 0 0 255
-0.509014 -0.276588 3.58027 0 0 0 128 0 0 255
-0.526903 -0.566955 3.57227 0 0 0 128 0 0 255
-0.504637 -0.127572 3.57921 0 0 0 128 0 0 255
-0.506899 -0.144449 3.57746 0 0 0 128 0 0 255
-0.508269 -0.157381 3.57652 0 0 0 128 0 0 255
-0.523272 -0.417888 3.57053 0 0 0 128 0 0 255
-0.506915 -0.0913344 3.57552 0 0 0 128 0 0 255
-0.532966 -0.57655 3.56633 0 0 0 128 0 0 255
-0.527149 -0.45169 3.5678 0 0 0 128 0 0 255
-0.540895 -0.701262 3.56274 0 0 0 128 0 0 255
-0.540635 -0.69627 3.56283 0 0 0 128 0 0 255
-0.539487 -0.674303 3.56321 0 0 0 128 0 0 255
-0.52749 -0.444651 3.56722 0 0 0 128 0 0 255
-0.515107 -0.193982 3.57089 0 0 0 128 0 0 255
-0.511873 -0.132076 3.57197 0 0 0 128 0 0 255
-0.543671 -0.727124 3.56088 0 0 0 128 0 0 255
-0.546456 -0.752986 3.55903 0 0 0 128 0 0 255
-0.546131 -0.732966 3.55869 0 0 0 128 0 0 255
-0.516452 -0.164828 3.56861 0 0 0 128 0 0 255
-0.515461 -0.145856 3.56894 0 0 0 128 0 0 255
-0.540736 -0.588037 3.55915 0 0 0 128 0 0 255
-0.519296 -0.16363 3.56587 0 0 0 128 0 0 255
-0.547911 -0.626626 3.55373 0 0 0 128 0 0 255
-0.556077 -0.754332 3.55017 0 0 0 128 0 0 255
-0.545788 -0.528572 3.55279 0 0 0 128 0 0 255
-0.544744 -0.508602 3.55313 0 0 0 128 0 0 255
-0.545417 -0.492525 3.5521 0 0 0 128 0 0 255
-0.562108 -0.738896 3.54457 0 0 0 128 0 0 255
-0.554792 -0.584079 3.54663 0 0 0 128 0 0 255
-0.562865 -0.723816 3.54355 0 0 0 128 0 0 255
-0.555918 -0.575989 3.5455 0 0 0 128 0 0 255
-0.541305 -0.281384 3.55001 0 0 0 128 0 0 255
-0.527118 -0.00979521 3.55476 0 0 0 128 0 0 255
-0.556687 -0.560908 3.54451 0 0 0 128 0 0 255
-0.544586 -0.329259 3.54855 0 0 0 128 0 0 255
-0.565342 -0.711628 3.54125 0 0 0 128 0 0 255
-0.528048 0.00228973 3.55371 0 0 0 128 0 0 255
-0.569044 -0.752463 3.53929 0 0 0 128 0 0 255
-0.565915 -0.692554 3.54034 0 0 0 128 0 0 255
-0.547505 -0.325059 3.54614 0 0 0 128 0 0 255
-0.548613 -0.315969 3.54507 0 0 0 128 0 0 255
-0.57174 -0.728239 3.53665 0 0 0 128 0 0 255
-0.564223 -0.53837 3.53816 0 0 0 128 0 0 255
-0.573579 -0.70207 3.53471 0 0 0 128 0 0 255
-0.545361 -0.161889 3.54414 0 0 0 128 0 0 255
-0.57527 -0.718992 3.53382 0 0 0 128 0 0 255
-0.574383 -0.702018 3.53412 0 0 0 128 0 0 255
-0.559699 -0.374357 3.53807 0 0 0 128 0 0 255
-0.557404 -0.330423 3.53884 0 0 0 128 0 0 255
-0.552866 -0.243555 3.54036 0 0 0 128 0 0 255
-0.57965 -0.693662 3.53019 0 0 0 128 0 0 255
-0.553883 -0.200409 3.5388 0 0 0 128 0 0 255
-0.58266 -0.735545 3.52888 0 0 0 128 0 0 255
-0.56107 -0.226998 3.5344 0 0 0 128 0 0 255
-0.560705 -0.220009 3.53452 0 0 0 128 0 0 255
-0.55116 -0.0372856 3.53771 0 0 0 128 0 0 255
-0.550794 -0.0142673 3.53756 0 0 0 128 0 0 255
-0.590175 -0.752096 3.52413 0 0 0 128 0 0 255
-0.552411 -0.0291914 3.53675 0 0 0 128 0 0 255
-0.592856 -0.738902 3.52219 0 0 0 128 0 0 255
-0.579972 -0.492276 3.5265 0 0 0 128 0 0 255
-0.593503 -0.718826 3.52148 0 0 0 128 0 0 255
-0.598772 -0.688442 3.51786 0 0 0 128 0 0 255
-0.60219 -0.737314 3.51651 0 0 0 128 0 0 255
-0.599999 -0.695377 3.51724 0 0 0 128 0 0 255
-0.579135 -0.295983 3.52421 0 0 0 128 0 0 255
-0.565 -0.0253928 3.52894 0 0 0 128 0 0 255
-0.607049 -0.797115 3.51446 0 0 0 128 0 0 255
-0.581086 -0.199696 3.52196 0 0 0 128 0 0 255
-0.585346 -0.247515 3.52017 0 0 0 128 0 0 255
-0.588104 -0.283406 3.51907 0 0 0 128 0 0 255
-0.585074 -0.208466 3.51991 0 0 0 128 0 0 255
-0.582466 -0.158541 3.52079 0 0 0 128 0 0 255
-0.618035 -0.822481 3.50873 0 0 0 128 0 0 255
-0.583193 -0.155492 3.52037 0 0 0 128 0 0 255
-0.61334 -0.69856 3.50997 0 0 0 128 0 0 255
-0.599726 -0.437955 3.51452 0 0 0 128 0 0 255
-0.617841 -0.716315 3.50785 0 0 0 128 0 0 255
-0.620144 -0.743219 3.50694 0 0 0 128 0 0 255
-0.611903 -0.585458 3.50969 0 0 0 128 0 0 255
-0.623961 -0.79908 3.50552 0 0 0 128 0 0 255
-0.596108 -0.265888 3.51483 0 0 0 128 0 0 255
-0.594931 -0.208865 3.51495 0 0 0 128 0 0 255
-0.594566 -0.201876 3.51507 0 0 0 128 0 0 255
-0.585178 -0.0221485 3.51821 0 0 0 128 0 0 255
-0.625876 -0.783939 3.50448 0 0 0 128 0 0 255
-0.61487 -0.573258 3.50816 0 0 0 128 0 0 255
-0.610089 -0.412284 3.50927 0 0 0 128 0 0 255
-0.625654 -0.692804 3.50395 0 0 0 128 0 0 255
-0.619626 -0.55995 3.50586 0 0 0 128 0 0 255
-0.604315 -0.249366 3.51087 0 0 0 128 0 0 255
-0.621866 -0.567829 3.5049 0 0 0 128 0 0 255
-0.632481 -0.753492 3.50126 0 0 0 128 0 0 255
-0.624344 -0.597729 3.50398 0 0 0 128 0 0 255
-0.615216 -0.422993 3.50703 0 0 0 128 0 0 255
-0.604708 -0.20427 3.51044 0 0 0 128 0 0 255
-0.631651 -0.70246 3.50135 0 0 0 128 0 0 255
-0.625079 -0.576651 3.50354 0 0 0 128 0 0 255
-0.633873 -0.727367 3.50052 0 0 0 128 0 0 255
-0.607546 -0.188075 3.50915 0 0 0 128 0 0 255
-0.620098 -0.410683 3.50488 0 0 0 128 0 0 255
-0.630604 -0.576322 3.50123 0 0 0 128 0 0 255
-0.619233 -0.358652 3.50503 0 0 0 128 0 0 255
-0.643526 -0.805919 3.49684 0 0 0 128 0 0 255
-0.639822 -0.735026 3.49808 0 0 0 128 0 0 255
-0.638246 -0.687044 3.49855 0 0 0 128 0 0 255
-0.624099 -0.398426 3.50322 0 0 0 128 0 0 255
-0.63686 -0.607 3.49884 0 0 0 128 0 0 255
-0.645251 -0.749729 3.49599 0 0 0 128 0 0 255
-0.638105 -0.612936 3.49838 0 0 0 128 0 0 255
-0.628664 -0.43221 3.50154 0 0 0 128 0 0 255
-0.613903 -0.149638 3.50647 0 0 0 128 0 0 255
-0.6188 -0.225468 3.50479 0 0 0 128 0 0 255
-0.618639 -0.204445 3.5048 0 0 0 128 0 0 255
-0.631258 -0.428051 3.50055 0 0 0 128 0 0 255
-0.619572 -0.186363 3.50442 0 0 0 128 0 0 255
-0.641425 -0.586701 3.49709 0 0 0 128 0 0 255
-0.650396 -0.740413 3.49406 0 0 0 128 0 0 255
-0.648988 -0.713454 3.49453 0 0 0 128 0 0 255
-0.634175 -0.429883 3.49948 0 0 0 128 0 0 255
-0.635011 -0.427831 3.49918 0 0 0 128 0 0 255
-0.624161 -0.220146 3.50281 0 0 0 128 0 0 255
-0.657445 -0.821125 3.49165 0 0 0 128 0 0 255
-0.658753 -0.82806 3.4912 0 0 0 128 0 0 255
-0.6608 -0.830945 3.4905 0 0 0 128 0 0 255
-0.660174 -0.818963 3.49071 0 0 0 128 0 0 255
-0.658922 -0.795 3.49113 0 0 0 128 0 0 255
-0.618707 -0.0251664 3.50457 0 0 0 128 0 0 255
-0.661068 -0.81791 3.49041 0 0 0 128 0 0 255
-0.657 -0.740028 3.49177 0 0 0 128 0 0 255
-0.61981 -0.0281069 3.5042 0 0 0 128 0 0 255
-0.619767 -0.00908058 3.50422 0 0 0 128 0 0 255
-0.621916 -0.0319908 3.50351 0 0 0 128 0 0 255
-0.662663 -0.793781 3.4899 0 0 0 128 0 0 255
-0.659064 -0.724886 3.4911 0 0 0 128 0 0 255
-0.632411 -0.214659 3.50001 0 0 0 128 0 0 255
-0.66587 -0.818633 3.48886 0 0 0 128 0 0 255
-0.632085 -0.153586 3.50017 0 0 0 128 0 0 255
-0.668958 -0.804435 3.48793 0 0 0 128 0 0 255
-0.643366 -0.29615 3.49652 0 0 0 128 0 0 255
-0.667315 -0.699374 3.48864 0 0 0 128 0 0 255
-0.644365 -0.26004 3.49631 0 0 0 128 0 0 255
-0.674506 -0.800111 3.48634 0 0 0 128 0 0 255
-0.668139 -0.604188 3.48871 0 0 0 128 0 0 255
-0.679797 -0.808823 3.48489 0 0 0 128 0 0 255
-0.646913 -0.16075 3.49595 0 0 0 128 0 0 255
-0.681471 -0.803721 3.48448 0 0 0 128 0 0 255
-0.653931 -0.27652 3.49369 0 0 0 128 0 0 255
-0.678194 -0.703762 3.48574 0 0 0 128 0 0 255
-0.67979 -0.715689 3.4853 0 0 0 128 0 0 255
-0.681022 -0.720627 3.48498 0 0 0 128 0 0 255
-0.653013 -0.18444 3.49434 0 0 0 128 0 0 255
-0.683194 -0.743538 3.48435 0 0 0 128 0 0 255
-0.682063 -0.684517 3.48493 0 0 0 128 0 0 255
-0.660384 -0.232093 3.4924 0 0 0 128 0 0 255
-0.688639 -0.754247 3.48307 0 0 0 128 0 0 255
-0.693774 -0.815046 3.48159 0 0 0 128 0 0 255
-0.687724 -0.699221 3.48361 0 0 0 128 0 0 255
-0.694543 -0.810997 3.48146 0 0 0 128 0 0 255
-0.664865 -0.242858 3.49138 0 0 0 128 0 0 255
-0.659649 -0.14301 3.49312 0 0 0 128 0 0 255
-0.661201 -0.153938 3.49273 0 0 0 128 0 0 255
-0.661149 -0.15294 3.49275 0 0 0 128 0 0 255
-0.686371 -0.598156 3.48458 0 0 0 128 0 0 255
-0.675261 -0.385478 3.4883 0 0 0 128 0 0 255
-0.664725 -0.183784 3.49182 0 0 0 128 0 0 255
-0.695071 -0.745877 3.48182 0 0 0 128 0 0 255
-0.700268 -0.807675 3.48037 0 0 0 128 0 0 255
-0.695991 -0.725799 3.4818 0 0 0 128 0 0 255
-0.667356 -0.17763 3.49137 0 0 0 128 0 0 255
-0.698099 -0.690634 3.48171 0 0 0 128 0 0 255
-0.700127 -0.710549 3.4812 0 0 0 128 0 0 255
-0.684526 -0.392976 3.48658 0 0 0 128 0 0 255
-0.702563 -0.700402 3.4809 0 0 0 128 0 0 255
-0.701468 -0.679434 3.48127 0 0 0 128 0 0 255
-0.708394 -0.755156 3.4795 0 0 0 128 0 0 255
-0.712147 -0.808022 3.47843 0 0 0 128 0 0 255
-0.698325 -0.543423 3.48305 0 0 0 128 0 0 255
-0.679913 -0.190957 3.48921 0 0 0 128 0 0 255
-0.714908 -0.822891 3.4779 0 0 0 128 0 0 255
-0.7135 -0.795932 3.47837 0 0 0 128 0 0 255
-0.701503 -0.56628 3.48238 0 0 0 128 0 0 255
-0.703222 -0.542154 3.48241 0 0 0 128 0 0 255
-0.698267 -0.447298 3.48407 0 0 0 128 0 0 255
-0.706874 -0.593023 3.4814 0 0 0 128 0 0 255
-0.707239 -0.580988 3.4815 0 0 0 128 0 0 255
-0.716107 -0.731705 3.47875 0 0 0 128 0 0 255
-0.697591 -0.377242 3.48494 0 0 0 128 0 0 255
-0.709491 -0.528798 3.48186 0 0 0 128 0 0 255
-0.724682 -0.743258 3.47775 0 0 0 128 0 0 255
-0.709034 -0.443712 3.48298 0 0 0 128 0 0 255
-0.708204 -0.408712 3.4835 0 0 0 128 0 0 255
-0.718853 -0.574354 3.48045 0 0 0 128 0 0 255
-0.717194 -0.504353 3.48153 0 0 0 128 0 0 255
-0.730605 -0.74194 3.47732 0 0 0 128 0 0 255
-0.696023 -0.0799429 3.48887 0 0 0 128 0 0 255
-0.728837 -0.688967 3.47818 0 0 0 128 0 0 255
-0.737037 -0.80768 3.47599 0 0 0 128 0 0 255
-0.731978 -0.710827 3.47768 0 0 0 128 0 0 255
-0.725823 -0.593006 3.47973 0 0 0 128 0 0 255
-0.70565 -0.168543 3.48704 0 0 0 128 0 0 255
-0.703101 -0.100593 3.48818 0 0 0 128 0 0 255
-0.702996 -0.0985959 3.48821 0 0 0 128 0 0 255
-0.743068 -0.827385 3.47541 0 0 0 128 0 0 255
-0.742547 -0.817401 3.47558 0 0 0 128 0 0 255
-0.74166 -0.800426 3.47588 0 0 0 128 0 0 255
-0.742345 -0.794383 3.47595 0 0 0 128 0 0 255
-0.728843 -0.516751 3.48076 0 0 0 128 0 0 255
-0.706206 -0.0834075 3.48833 0 0 0 128 0 0 255
-0.729886 -0.402556 3.48262 0 0 0 128 0 0 255
-0.710125 -0.00510593 3.48955 0 0 0 128 0 0 255
-0.742948 -0.595107 3.47925 0 0 0 128 0 0 255
-0.729074 -0.32951 3.48388 0 0 0 128 0 0 255
-0.756898 -0.804633 3.47561 0 0 0 128 0 0 255
-0.734581 -0.358258 3.48342 0 0 0 128 0 0 255
-0.737248 -0.390158 3.48288 0 0 0 128 0 0 255
-0.760675 -0.819455 3.47541 0 0 0 128 0 0 255
-0.755824 -0.726596 3.47703 0 0 0 128 0 0 255
-0.747904 -0.555803 3.48004 0 0 0 128 0 0 255
-0.727092 -0.157407 3.48699 0 0 0 128 0 0 255
-0.761681 -0.800381 3.47579 0 0 0 128 0 0 255
-0.761524 -0.797385 3.47585 0 0 0 128 0 0 255
-0.761135 -0.713306 3.47746 0 0 0 128 0 0 255
-0.759622 -0.68435 3.47797 0 0 0 128 0 0 255
-0.762185 -0.714254 3.47749 0 0 0 128 0 0 255
-0.764538 -0.740163 3.47709 0 0 0 128 0 0 255
-0.757132 -0.598378 3.47956 0 0 0 128 0 0 255
-0.762771 -0.687192 3.47806 0 0 0 128 0 0 255
-0.754171 -0.503419 3.48133 0 0 0 128 0 0 255
-0.770607 -0.79892 3.47623 0 0 0 128 0 0 255
-0.766121 -0.71305 3.47773 0 0 0 128 0 0 255
-0.750317 -0.410509 3.48301 0 0 0 128 0 0 255
-0.769105 -0.73192 3.47753 0 0 0 128 0 0 255
-0.750954 -0.384447 3.48359 0 0 0 128 0 0 255
-0.762434 -0.585092 3.48016 0 0 0 128 0 0 255
-0.761396 -0.5461 3.48091 0 0 0 128 0 0 255
-0.753363 -0.392333 3.4836 0 0 0 128 0 0 255
-0.763283 -0.544002 3.4811 0 0 0 128 0 0 255
-0.756867 -0.421188 3.48325 0 0 0 128 0 0 255
-0.755359 -0.37321 3.48417 0 0 0 128 0 0 255
-0.745821 -0.152443 3.4882 0 0 0 128 0 0 255
-0.758919 -0.365021 3.48468 0 0 0 128 0 0 255
-0.763201 -0.408854 3.48411 0 0 0 128 0 0 255
-0.786729 -0.821129 3.47713 0 0 0 128 0 0 255
-0.761276 -0.314846 3.48609 0 0 0 128 0 0 255
-0.750897 -0.0971264 3.49 0 0 0 128 0 0 255
-0.78819 -0.734961 3.47937 0 0 0 128 0 0 255
-0.787615 -0.704957 3.48003 0 0 0 128 0 0 255
-0.793663 -0.801761 3.47847 0 0 0 128 0 0 255
-0.794287 -0.794723 3.47874 0 0 0 128 0 0 255
-0.763716 -0.171569 3.48991 0 0 0 128 0 0 255
-0.798085 -0.810551 3.4789 0 0 0 128 0 0 255
-0.761047 -0.0826058 3.49177 0 0 0 128 0 0 255
-0.768339 -0.184354 3.49031 0 0 0 128 0 0 255
-0.763743 -0.0774674 3.49234 0 0 0 128 0 0 255
-0.792574 -0.591591 3.4837 0 0 0 128 0 0 255
-0.805911 -0.809165 3.48026 0 0 0 128 0 0 255
-0.805547 -0.708078 3.48296 0 0 0 128 0 0 255
-0.798818 -0.579273 3.48521 0 0 0 128 0 0 255
-0.806461 -0.688013 3.48371 0 0 0 128 0 0 255
-0.801401 -0.59116 3.4854 0 0 0 128 0 0 255
-0.810971 -0.736844 3.48327 0 0 0 128 0 0 255
-0.801739 -0.560112 3.48636 0 0 0 128 0 0 255
-0.780562 -0.154726 3.49343 0 0 0 128 0 0 255
-0.804107 -0.568005 3.48664 0 0 0 128 0 0 255
-0.813271 -0.72472 3.48413 0 0 0 128 0 0 255
-0.810402 -0.669804 3.48508 0 0 0 128 0 0 255
-0.819259 -0.727435 3.48546 0 0 0 128 0 0 255
-0.813396 -0.596587 3.48798 0 0 0 128 0 0 255
-0.82206 -0.725299 3.48623 0 0 0 128 0 0 255
-0.823704 -0.738234 3.48625 0 0 0 128 0 0 255
-0.821149 -0.689308 3.48711 0 0 0 128 0 0 255
-0.828947 -0.820064 3.48508 0 0 0 128 0 0 255
-0.837946 -0.78961 3.48863 0 0 0 128 0 0 255
-0.833825 -0.71073 3.49 0 0 0 128 0 0 255
-0.835812 -0.675604 3.49181 0 0 0 128 0 0 255
-0.842163 -0.724354 3.49221 0 0 0 128 0 0 255
-0.8488 -0.815129 3.49127 0 0 0 128 0 0 255
-0.843428 -0.712284 3.49306 0 0 0 128 0 0 255
-0.849849 -0.817082 3.49156 0 0 0 128 0 0 255
-0.844841 -0.721227 3.49323 0 0 0 128 0 0 255
-0.842807 -0.682286 3.49391 0 0 0 128 0 0 255
-0.816575 -0.162031 3.50333 0 0 0 128 0 0 255
-0.849179 -0.732037 3.49438 0 0 0 128 0 0 255
-0.819657 -0.166894 3.50425 0 0 0 128 0 0 255
-0.815432 -0.0860164 3.50566 0 0 0 128 0 0 255
-0.8184 -0.0888832 3.50665 0 0 0 128 0 0 255
-0.857621 -0.714638 3.49826 0 0 0 128 0 0 255
-0.863247 -0.751416 3.49913 0 0 0 128 0 0 255
-0.859856 -0.686514 3.50027 0 0 0 128 0 0 255
-0.867088 -0.80729 3.49854 0 0 0 128 0 0 255
-0.868196 -0.793229 3.49957 0 0 0 128 0 0 255
-0.867674 -0.783244 3.49975 0 0 0 128 0 0 255
-0.862719 -0.688387 3.5014 0 0 0 128 0 0 255
-0.84992 -0.355688 3.50923 0 0 0 128 0 0 255
-0.871298 -0.73004 3.50352 0 0 0 128 0 0 255
-0.842337 -0.140853 3.51465 0 0 0 128 0 0 255
-0.843466 -0.127793 3.51573 0 0 0 128 0 0 255
-0.880252 -0.814712 3.50416 0 0 0 128 0 0 255
-0.883131 -0.732525 3.50916 0 0 0 128 0 0 255
-0.885635 -0.746427 3.50983 0 0 0 128 0 0 255
-0.867263 -0.343923 3.51826 0 0 0 128 0 0 255
-0.885512 -0.676381 3.51293 0 0 0 128 0 0 255
-0.877001 -0.496616 3.51655 0 0 0 128 0 0 255
-0.887892 -0.688288 3.51368 0 0 0 128 0 0 255
-0.89054 -0.7222 3.51357 0 0 0 128 0 0 255
-0.857836 -0.0961485 3.5245 0 0 0 128 0 0 255
-0.870393 -0.319772 3.52108 0 0 0 128 0 0 255
-0.896666 -0.805998 3.51308 0 0 0 128 0 0 255
-0.872307 -0.339705 3.52122 0 0 0 128 0 0 255
-0.893258 -0.724086 3.515 0 0 0 128 0 0 255
-0.872186 -0.320697 3.52205 0 0 0 128 0 0 255
-0.8947 -0.735032 3.51531 0 0 0 128 0 0 255
-0.89324 -0.707075 3.5158 0 0 0 128 0 0 255
-0.881484 -0.465404 3.52051 0 0 0 128 0 0 255
-0.898024 -0.748902 3.51657 0 0 0 128 0 0 255
-0.886027 -0.486228 3.52217 0 0 0 128 0 0 255
-0.887928 -0.506162 3.52233 0 0 0 128 0 0 255
-0.887897 -0.489152 3.52314 0 0 0 128 0 0 255
-0.872217 -0.172596 3.52919 0 0 0 128 0 0 255
-0.9016 -0.718732 3.52018 0 0 0 128 0 0 255
-0.872965 -0.170563 3.52975 0 0 0 128 0 0 255
-0.882266 -0.332283 3.52745 0 0 0 128 0 0 255
-0.881602 -0.303292 3.52848 0 0 0 128 0 0 255
-0.893454 -0.513937 3.52533 0 0 0 128 0 0 255
-0.870504 -0.0746032 3.533 0 0 0 128 0 0 255
-0.896021 -0.546853 3.52529 0 0 0 128 0 0 255
-0.910947 -0.816409 3.52112 0 0 0 128 0 0 255
-0.893585 -0.467903 3.52774 0 0 0 128 0 0 255
-0.911116 -0.787384 3.52271 0 0 0 128 0 0 255
-0.907207 -0.696488 3.52484 0 0 0 128 0 0 255
-0.915032 -0.814241 3.52388 0 0 0 128 0 0 255
-0.89015 -0.321953 3.53303 0 0 0 128 0 0 255
-0.891763 -0.336897 3.53332 0 0 0 128 0 0 255
-0.893939 -0.346815 3.53427 0 0 0 128 0 0 255
-0.906187 -0.56545 3.53101 0 0 0 128 0 0 255
-0.905665 -0.555465 3.53119 0 0 0 128 0 0 255
-0.906422 -0.538425 3.53262 0 0 0 128 0 0 255
-0.925726 -0.798804 3.53214 0 0 0 128 0 0 255
-0.922075 -0.72891 3.53336 0 0 0 128 0 0 255
-0.928151 -0.783701 3.53479 0 0 0 128 0 0 255
-0.915215 -0.536076 3.53911 0 0 0 128 0 0 255
-0.924619 -0.700795 3.53684 0 0 0 128 0 0 255
-0.915086 -0.503064 3.5409 0 0 0 128 0 0 255
-0.931908 -0.719524 3.54144 0 0 0 128 0 0 255
-0.92376 -0.533746 3.54594 0 0 0 128 0 0 255
-0.90201 -0.117377 3.55321 0 0 0 128 0 0 255
-0.937788 -0.699292 3.54753 0 0 0 128 0 0 255
-0.937555 -0.680293 3.54851 0 0 0 128 0 0 255
-0.945637 -0.806046 3.54763 0 0 0 128 0 0 255
-0.938543 -0.670252 3.55 0 0 0 128 0 0 255
-0.93291 -0.562416 3.55188 0 0 0 128 0 0 255
-0.911942 -0.161024 3.55889 0 0 0 128 0 0 255
-0.934496 -0.578364 3.55226 0 0 0 128 0 0 255
-0.930845 -0.50847 3.55348 0 0 0 128 0 0 255
-0.937071 -0.613283 3.55231 0 0 0 128 0 0 255
-0.935923 -0.591316 3.55269 0 0 0 128 0 0 255
-0.933107 -0.537398 3.55364 0 0 0 128 0 0 255
-0.913547 -0.162966 3.56017 0 0 0 128 0 0 255
-0.94958 -0.809903 3.55088 0 0 0 128 0 0 255
-0.94473 -0.717044 3.5525 0 0 0 128 0 0 255
-0.935403 -0.524309 3.55653 0 0 0 128 0 0 255
-0.947042 -0.732966 3.55357 0 0 0 128 0 0 255
-0.913034 -0.0819527 3.56493 0 0 0 128 0 0 255
-0.942199 -0.584086 3.55889 0 0 0 128 0 0 255
-0.94896 -0.671875 3.55942 0 0 0 128 0 0 255
-0.932362 -0.340352 3.5659 0 0 0 128 0 0 255
-0.958621 -0.815582 3.559 0 0 0 128 0 0 255
-0.951049 -0.629789 3.56436 0 0 0 128 0 0 255
-0.957022 -0.730612 3.5633 0 0 0 128 0 0 255
-0.954177 -0.66269 3.5652 0 0 0 128 0 0 255
-0.955868 -0.681637 3.56558 0 0 0 128 0 0 255
-0.936465 -0.3102 3.57207 0 0 0 128 0 0 255
-0.921912 -0.0316226 3.57693 0 0 0 128 0 0 255
-0.96279 -0.787429 3.56517 0 0 0 128 0 0 255
-0.938223 -0.317142 3.57338 0 0 0 128 0 0 255
-0.959988 -0.720507 3.56706 0 0 0 128 0 0 255
-0.939332 -0.325106 3.57396 0 0 0 128 0 0 255
-0.960374 -0.701489 3.56884 0 0 0 128 0 0 255
-0.954741 -0.593653 3.57072 0 0 0 128 0 0 255
-0.95302 -0.560703 3.5713 0 0 0 128 0 0 255
-0.972018 -0.898145 3.56686 0 0 0 128 0 0 255
-0.926848 -0.0334556 3.58196 0 0 0 128 0 0 255
-0.960962 -0.673463 3.57152 0 0 0 128 0 0 255
-0.957047 -0.572571 3.57475 0 0 0 128 0 0 255
-0.9357 -0.138185 3.58382 0 0 0 128 0 0 255
-0.946458 -0.305865 3.58313 0 0 0 128 0 0 255
-0.93533 -0.080186 3.58782 0 0 0 128 0 0 255
-0.974197 -0.799054 3.57677 0 0 0 128 0 0 255
-0.938937 -0.124077 3.58856 0 0 0 128 0 0 255
-0.93985 -0.129049 3.58923 0 0 0 128 0 0 255
-0.96997 -0.693173 3.58014 0 0 0 128 0 0 255
-0.961781 -0.536411 3.58288 0 0 0 128 0 0 255
-0.944881 -0.212901 3.58852 0 0 0 128 0 0 255
-0.943964 -0.182926 3.58981 0 0 0 128 0 0 255
-0.971875 -0.66811 3.58441 0 0 0 128 0 0 255
-0.94789 -0.196805 3.59341 0 0 0 128 0 0 255
-0.967142 -0.553245 3.58796 0 0 0 128 0 0 255
-0.980054 -0.728866 3.58959 0 0 0 128 0 0 255
-0.951911 -0.166682 3.60099 0 0 0 128 0 0 255
-0.950242 -0.13473 3.60155 0 0 0 128 0 0 255
-0.99219 -0.914513 3.58952 0 0 0 128 0 0 255
-0.95281 -0.160655 3.60268 0 0 0 128 0 0 255
-0.949263 -0.0927581 3.60387 0 0 0 128 0 0 255
-0.94775 -0.063802 3.60437 0 0 0 128 0 0 255
-0.982151 -0.710804 3.59388 0 0 0 128 0 0 255
-0.98116 -0.691833 3.59421 0 0 0 128 0 0 255
-0.972602 -0.505081 3.59907 0 0 0 128 0 0 255
-0.983293 -0.675772 3.59851 0 0 0 128 0 0 255
-0.956849 -0.169539 3.60735 0 0 0 128 0 0 255
-0.957121 -0.163532 3.60826 0 0 0 128 0 0 255
-0.950045 0.00526043 3.61365 0 0 0 128 0 0 255
-0.982056 -0.563815 3.607 0 0 0 128 0 0 255
-0.956394 -0.0725598 3.61558 0 0 0 128 0 0 255
-0.953107 -0.00965512 3.61668 0 0 0 128 0 0 255
-0.958126 -0.0735139 3.61805 0 0 0 128 0 0 255
-0.982339 -0.515815 3.61199 0 0 0 128 0 0 255
-0.953755 0.0313559 3.62154 0 0 0 128 0 0 255
-0.957096 0.0194426 3.62553 0 0 0 128 0 0 255
-0.961292 -0.0404405 3.62618 0 0 0 128 0 0 255
-0.992534 -0.578551 3.6219 0 0 0 128 0 0 255
-0.992927 -0.566546 3.62383 0 0 0 128 0 0 255
-1.00635 -0.78517 3.62347 0 0 0 128 0 0 255
-1.00573 -0.699221 3.63198 0 0 0 128 0 0 255
-0.998792 -0.548431 3.63638 0 0 0 128 0 0 255
-0.982265 -0.104991 3.65757 0 0 0 128 0 0 255
-0.976214 0.010833 3.65959 0 0 0 128 0 0 255
-1.02146 -0.792906 3.65287 0 0 0 128 0 0 255
-0.983667 -0.0620097 3.66655 0 0 0 128 0 0 255
-0.979905 0.0248669 3.66991 0 0 0 128 0 0 255
-0.997 -0.211739 3.67788 0 0 0 128 0 0 255
-1.0419 -0.90672 3.69343 0 0 0 128 0 0 255
-1.04105 -0.885755 3.69477 0 0 0 128 0 0 255
-1.04156 -0.881775 3.69775 0 0 0 128 0 0 255
-1.04851 -0.905973 3.72779 0 0 0 128 0 0 255
-1.0026 -0.0223331 3.7452 0 0 0 128 0 0 255
-1.00156 0.00657841 3.74968 0 0 0 128 0 0 255
-1.00154 0.0303626 3.76404 0 0 0 128 0 0 255
-1.05137 -0.919256 3.75146 0 0 0 128 0 0 255
-1.00233 0.020305 3.76886 0 0 0 128 0 0 255
