ply
format ascii 1.0
comment VCGLIB generated
element vertex 538
property float x
property float y
property float z
property float nx
property float ny
property float nz
property uchar red
property uchar green
property uchar blue
property uchar alpha
element face 0
property list uchar int vertex_indices
end_header
-1.08754 -0.921711 3.75898 0 0 0 128 0 0 255
-1.07243 -0.899331 3.71789 0 0 0 128 0 0 255
-1.07227 -0.907329 3.71788 0 0 0 128 0 0 255
-1.05699 -0.88296 3.68668 0 0 0 128 0 0 255
-1.05592 -0.886936 3.68494 0 0 0 128 0 0 255
-1.05551 -0.906932 3.68491 0 0 0 128 0 0 255
-1.06368 -0.237944 3.6765 0 0 0 128 0 0 255
-1.06311 -0.239932 3.67564 0 0 0 128 0 0 255
-1.0587 -0.246832 3.66887 0 0 0 128 0 0 255
-1.04163 -0.266447 3.64511 0 0 0 128 0 0 255
-1.03077 -0.794335 3.64427 0 0 0 128 0 0 255
-1.01866 -0.86708 3.63087 0 0 0 128 0 0 255
-1.01798 -0.869065 3.63011 0 0 0 128 0 0 255
-1.03067 -0.0631496 3.62682 0 0 0 128 0 0 255
-1.02692 -0.213103 3.62583 0 0 0 128 0 0 255
-1.00981 -0.785862 3.61895 0 0 0 128 0 0 255
-1.00864 -0.743826 3.61681 0 0 0 128 0 0 255
-1.01204 -0.545852 3.61639 0 0 0 128 0 0 255
-1.00829 -0.694806 3.61542 0 0 0 128 0 0 255
-1.0073 -0.742795 3.61535 0 0 0 128 0 0 255
-1.0089 -0.564787 3.61345 0 0 0 128 0 0 255
-1.00792 -0.578769 3.6127 0 0 0 128 0 0 255
-1.01259 0.0232739 3.60582 0 0 0 128 0 0 255
-1.00994 -0.105699 3.60562 0 0 0 128 0 0 255
-0.996919 -0.703555 3.60397 0 0 0 128 0 0 255
-0.997629 -0.564537 3.6021 0 0 0 128 0 0 255
-0.99649 -0.5145 3.60011 0 0 0 128 0 0 255
-0.996408 -0.518499 3.6001 0 0 0 128 0 0 255
-0.988259 -0.914415 3.59947 0 0 0 128 0 0 255
-0.992451 -0.67545 3.59916 0 0 0 128 0 0 255
-0.989891 -0.693398 3.59709 0 0 0 128 0 0 255
-0.989521 -0.711394 3.59706 0 0 0 128 0 0 255
-0.987661 -0.730358 3.59567 0 0 0 128 0 0 255
-0.986656 -0.743339 3.59497 0 0 0 128 0 0 255
-0.99446 -0.147367 3.5919 0 0 0 128 0 0 255
-0.986373 -0.540284 3.59128 0 0 0 128 0 0 255
-0.980709 -0.66919 3.58844 0 0 0 128 0 0 255
-0.991066 0.0187467 3.58628 0 0 0 128 0 0 255
-0.987131 -0.135204 3.5854 0 0 0 128 0 0 255
-0.974882 -0.693068 3.58387 0 0 0 128 0 0 255
-0.972334 -0.742024 3.58252 0 0 0 128 0 0 255
-0.971161 -0.799012 3.58243 0 0 0 128 0 0 255
-0.974657 -0.55403 3.58155 0 0 0 128 0 0 255
-0.983347 -0.0941111 3.58164 0 0 0 128 0 0 255
-0.985142 0.0308792 3.58121 0 0 0 128 0 0 255
-0.982487 -0.0980933 3.58101 0 0 0 128 0 0 255
-0.966066 -0.895923 3.57975 0 0 0 128 0 0 255
-0.979896 -0.0720306 3.57856 0 0 0 128 0 0 255
-0.966891 -0.703896 3.57756 0 0 0 128 0 0 255
-0.966702 -0.674885 3.57699 0 0 0 128 0 0 255
-0.978344 -0.0709965 3.57732 0 0 0 128 0 0 255
-0.975621 -0.164959 3.57656 0 0 0 128 0 0 255
-0.975497 -0.170958 3.57655 0 0 0 128 0 0 255
-0.967966 -0.53688 3.57597 0 0 0 128 0 0 255
-0.976392 -0.01194 3.57497 0 0 0 128 0 0 255
-0.960987 -0.721771 3.57325 0 0 0 128 0 0 255
-0.95932 -0.802754 3.57312 0 0 0 128 0 0 255
-0.975129 0.00409126 3.57379 0 0 0 128 0 0 255
-0.97147 -0.134862 3.57297 0 0 0 128 0 0 255
-0.970914 -0.161856 3.57292 0 0 0 128 0 0 255
-0.962683 -0.561771 3.57229 0 0 0 128 0 0 255
-0.971534 -0.0928533 3.57243 0 0 0 128 0 0 255
-0.961677 -0.571751 3.57168 0 0 0 128 0 0 255
-0.959784 -0.663732 3.57153 0 0 0 128 0 0 255
-0.959373 -0.683727 3.5715 0 0 0 128 0 0 255
-0.957253 -0.786705 3.57134 0 0 0 128 0 0 255
-0.969189 -0.16782 3.57172 0 0 0 128 0 0 255
-0.960443 -0.592729 3.57105 0 0 0 128 0 0 255
-0.956368 -0.751678 3.5702 0 0 0 128 0 0 255
-0.955954 -0.732664 3.56964 0 0 0 128 0 0 255
-0.954246 -0.815647 3.56951 0 0 0 128 0 0 255
-0.969407 -0.0397946 3.57014 0 0 0 128 0 0 255
-0.968893 -0.0647893 3.5701 0 0 0 128 0 0 255
-0.964538 -0.197726 3.56872 0 0 0 128 0 0 255
-0.950279 -0.81156 3.56658 0 0 0 128 0 0 255
-0.96177 -0.213669 3.56695 0 0 0 128 0 0 255
-0.95321 -0.629581 3.56629 0 0 0 128 0 0 255
-0.952304 -0.673571 3.56622 0 0 0 128 0 0 255
-0.959934 -0.183623 3.56527 0 0 0 128 0 0 255
-0.946253 -0.808472 3.56371 0 0 0 128 0 0 255
-0.943743 -0.890436 3.56301 0 0 0 128 0 0 255
-0.954998 -0.303544 3.56337 0 0 0 128 0 0 255
-0.946129 -0.734452 3.56269 0 0 0 128 0 0 255
-0.944807 -0.718419 3.56159 0 0 0 128 0 0 255
-0.955968 -0.0955162 3.56145 0 0 0 128 0 0 255
-0.955269 -0.129509 3.5614 0 0 0 128 0 0 255
-0.945116 -0.582394 3.56013 0 0 0 128 0 0 255
-0.953708 -0.124474 3.5603 0 0 0 128 0 0 255
-0.948902 -0.317415 3.55944 0 0 0 128 0 0 255
-0.948758 -0.324413 3.55943 0 0 0 128 0 0 255
-0.940782 -0.671321 3.55834 0 0 0 128 0 0 255
-0.950892 -0.139417 3.55863 0 0 0 128 0 0 255
-0.947374 -0.31038 3.55836 0 0 0 128 0 0 255
-0.939328 -0.701297 3.55774 0 0 0 128 0 0 255
-0.943393 -0.340301 3.55615 0 0 0 128 0 0 255
-0.936931 -0.613225 3.55518 0 0 0 128 0 0 255
-0.933859 -0.680174 3.55401 0 0 0 128 0 0 255
-0.933015 -0.721165 3.55395 0 0 0 128 0 0 255
-0.931122 -0.813146 3.5538 0 0 0 128 0 0 255
-0.936241 -0.523189 3.55373 0 0 0 128 0 0 255
-0.935103 -0.537168 3.55318 0 0 0 128 0 0 255
-0.934588 -0.562163 3.55314 0 0 0 128 0 0 255
-0.943656 -0.0802468 3.55338 0 0 0 128 0 0 255
-0.933161 -0.590138 3.55257 0 0 0 128 0 0 255
-0.932575 -0.577123 3.55207 0 0 0 128 0 0 255
-0.926565 -0.786041 3.55071 0 0 0 128 0 0 255
-0.941064 0.00182783 3.55092 0 0 0 128 0 0 255
-0.940344 -0.0331647 3.55087 0 0 0 128 0 0 255
-0.938575 -0.119146 3.55073 0 0 0 128 0 0 255
-0.933373 -0.330083 3.54989 0 0 0 128 0 0 255
-0.929731 -0.507045 3.54961 0 0 0 128 0 0 255
-0.932512 -0.330064 3.54938 0 0 0 128 0 0 255
-0.921114 -0.799927 3.54763 0 0 0 128 0 0 255
-0.925723 -0.533965 3.54755 0 0 0 128 0 0 255
-0.934318 -0.0320349 3.54734 0 0 0 128 0 0 255
-0.920552 -0.700892 3.54629 0 0 0 128 0 0 255
-0.92049 -0.703892 3.54628 0 0 0 128 0 0 255
-0.919086 -0.729868 3.54575 0 0 0 128 0 0 255
-0.912073 -0.815737 3.5427 0 0 0 128 0 0 255
-0.923901 -0.11283 3.54238 0 0 0 128 0 0 255
-0.922872 -0.162819 3.5423 0 0 0 128 0 0 255
-0.915896 -0.501747 3.54177 0 0 0 128 0 0 255
-0.922752 -0.0827985 3.54149 0 0 0 128 0 0 255
-0.921147 -0.160782 3.54137 0 0 0 128 0 0 255
-0.912546 -0.535683 3.54031 0 0 0 128 0 0 255
-0.90734 -0.788629 3.53991 0 0 0 128 0 0 255
-0.90495 -0.818585 3.53894 0 0 0 128 0 0 255
-0.906551 -0.697592 3.53867 0 0 0 128 0 0 255
-0.90355 -0.539492 3.53577 0 0 0 128 0 0 255
-0.9032 -0.556488 3.53575 0 0 0 128 0 0 255
-0.899826 -0.720453 3.53549 0 0 0 128 0 0 255
-0.902097 -0.566467 3.53529 0 0 0 128 0 0 255
-0.908615 -0.118504 3.53469 0 0 0 128 0 0 255
-0.894707 -0.750351 3.53327 0 0 0 128 0 0 255
-0.893534 -0.807338 3.53318 0 0 0 128 0 0 255
-0.908496 -0.0364834 3.53397 0 0 0 128 0 0 255
-0.908435 0.00452717 3.53361 0 0 0 128 0 0 255
-0.892239 -0.738295 3.53201 0 0 0 128 0 0 255
-0.895242 -0.548316 3.53189 0 0 0 128 0 0 255
-0.891041 -0.708263 3.53122 0 0 0 128 0 0 255
-0.895091 -0.467295 3.53118 0 0 0 128 0 0 255
-0.894124 -0.514285 3.53111 0 0 0 128 0 0 255
-0.889782 -0.72524 3.53078 0 0 0 128 0 0 255
-0.901732 -0.100354 3.53135 0 0 0 128 0 0 255
-0.888001 -0.723202 3.52996 0 0 0 128 0 0 255
-0.886853 -0.69017 3.52919 0 0 0 128 0 0 255
-0.893223 -0.336226 3.52935 0 0 0 128 0 0 255
-0.893038 -0.345224 3.52934 0 0 0 128 0 0 255
-0.889159 -0.489174 3.52871 0 0 0 128 0 0 255
-0.882883 -0.794109 3.52823 0 0 0 128 0 0 255
-0.887872 -0.50715 3.52828 0 0 0 128 0 0 255
-0.89076 -0.32217 3.52818 0 0 0 128 0 0 255
-0.881994 -0.748079 3.5275 0 0 0 128 0 0 255
-0.885546 -0.486096 3.52713 0 0 0 128 0 0 255
-0.881616 -0.677055 3.52683 0 0 0 128 0 0 255
-0.879501 -0.735023 3.52635 0 0 0 128 0 0 255
-0.878846 -0.722007 3.52599 0 0 0 128 0 0 255
-0.875989 -0.815967 3.52546 0 0 0 128 0 0 255
-0.885024 -0.332051 3.52584 0 0 0 128 0 0 255
-0.882308 -0.464022 3.52563 0 0 0 128 0 0 255
-0.887391 -0.127055 3.52541 0 0 0 128 0 0 255
-0.884338 -0.139993 3.52427 0 0 0 128 0 0 255
-0.880054 -0.302939 3.52365 0 0 0 128 0 0 255
-0.876061 -0.496897 3.52334 0 0 0 128 0 0 255
-0.875037 -0.319836 3.52183 0 0 0 128 0 0 255
-0.86658 -0.730749 3.52118 0 0 0 128 0 0 255
-0.864327 -0.794715 3.52073 0 0 0 128 0 0 255
-0.863616 -0.783698 3.5204 0 0 0 128 0 0 255
-0.875272 -0.171808 3.52102 0 0 0 128 0 0 255
-0.872226 -0.319777 3.52078 0 0 0 128 0 0 255
-0.874292 -0.173788 3.52067 0 0 0 128 0 0 255
-0.870856 -0.340752 3.52041 0 0 0 128 0 0 255
-0.861266 -0.806653 3.51967 0 0 0 128 0 0 255
-0.869181 -0.330715 3.51974 0 0 0 128 0 0 255
-0.860476 -0.753624 3.51907 0 0 0 128 0 0 255
-0.867972 -0.343692 3.51939 0 0 0 128 0 0 255
-0.871621 -0.0747094 3.51915 0 0 0 128 0 0 255
-0.858966 -0.689578 3.51817 0 0 0 128 0 0 255
-0.856172 -0.687519 3.5172 0 0 0 128 0 0 255
-0.854648 -0.715493 3.51683 0 0 0 128 0 0 255
-0.847741 -0.82037 3.5151 0 0 0 128 0 0 255
-0.847606 -0.734349 3.51463 0 0 0 128 0 0 255
-0.859801 -0.0954645 3.51534 0 0 0 128 0 0 255
-0.854595 -0.348411 3.51494 0 0 0 128 0 0 255
-0.844944 -0.817311 3.5142 0 0 0 128 0 0 255
-0.850629 -0.355329 3.51375 0 0 0 128 0 0 255
-0.841161 -0.72221 3.5126 0 0 0 128 0 0 255
-0.840984 -0.684198 3.51238 0 0 0 128 0 0 255
-0.839448 -0.712172 3.51205 0 0 0 128 0 0 255
-0.83822 -0.725149 3.51175 0 0 0 128 0 0 255
-0.833997 -0.790074 3.51083 0 0 0 128 0 0 255
-0.845692 -0.128175 3.51135 0 0 0 128 0 0 255
-0.84448 -0.140152 3.51107 0 0 0 128 0 0 255
-0.832485 -0.676018 3.50996 0 0 0 128 0 0 255
-0.830778 -0.71199 3.50965 0 0 0 128 0 0 255
-0.824663 -0.820885 3.50847 0 0 0 128 0 0 255
-0.822427 -0.740821 3.50764 0 0 0 128 0 0 255
-0.822077 -0.757817 3.50761 0 0 0 128 0 0 255
-0.818823 -0.726742 3.50674 0 0 0 128 0 0 255
-0.81861 -0.68973 3.50658 0 0 0 128 0 0 255
-0.816852 -0.727701 3.5063 0 0 0 128 0 0 255
-0.810051 -0.725558 3.50483 0 0 0 128 0 0 255
-0.820575 -0.166657 3.50551 0 0 0 128 0 0 255
-0.808784 -0.739535 3.50461 0 0 0 128 0 0 255
-0.809203 -0.671529 3.50452 0 0 0 128 0 0 255
-0.809765 -0.596524 3.50444 0 0 0 128 0 0 255
-0.818235 -0.0895914 3.50486 0 0 0 128 0 0 255
-0.816753 -0.161576 3.50475 0 0 0 128 0 0 255
-0.803923 -0.689423 3.50355 0 0 0 128 0 0 255
-0.803512 -0.709418 3.50351 0 0 0 128 0 0 255
-0.801454 -0.809397 3.50336 0 0 0 128 0 0 255
-0.814365 -0.08651 3.50414 0 0 0 128 0 0 255
-0.804446 -0.568407 3.50338 0 0 0 128 0 0 255
-0.801225 -0.581343 3.50284 0 0 0 128 0 0 255
-0.799068 -0.5903 3.50249 0 0 0 128 0 0 255
-0.79452 -0.811253 3.50214 0 0 0 128 0 0 255
-0.798761 -0.557286 3.50238 0 0 0 128 0 0 255
-0.797321 -0.579261 3.50218 0 0 0 128 0 0 255
-0.791868 -0.796194 3.50168 0 0 0 128 0 0 255
-0.790757 -0.802173 3.50152 0 0 0 128 0 0 255
-0.791144 -0.591135 3.50126 0 0 0 128 0 0 255
-0.78538 -0.823065 3.50075 0 0 0 128 0 0 255
-0.78618 -0.736063 3.50075 0 0 0 128 0 0 255
-0.785828 -0.705049 3.50066 0 0 0 128 0 0 255
-0.768977 -0.799719 3.49879 0 0 0 128 0 0 255
-0.779262 -0.154795 3.49953 0 0 0 128 0 0 255
-0.767368 -0.732672 3.49862 0 0 0 128 0 0 255
-0.76477 -0.713614 3.4984 0 0 0 128 0 0 255
-0.763218 -0.740588 3.49828 0 0 0 128 0 0 255
-0.760986 -0.800554 3.49811 0 0 0 128 0 0 255
-0.762314 -0.687558 3.49822 0 0 0 128 0 0 255
-0.759989 -0.800534 3.49804 0 0 0 128 0 0 255
-0.759578 -0.820529 3.49801 0 0 0 128 0 0 255
-0.760761 -0.714531 3.49811 0 0 0 128 0 0 255
-0.764682 -0.475561 3.49842 0 0 0 128 0 0 255
-0.759785 -0.713511 3.49804 0 0 0 128 0 0 255
-0.761441 -0.584518 3.49818 0 0 0 128 0 0 255
-0.759363 -0.685496 3.49802 0 0 0 128 0 0 255
-0.768675 -0.184582 3.49875 0 0 0 128 0 0 255
-0.761287 -0.543506 3.49818 0 0 0 128 0 0 255
-0.755916 -0.80445 3.49777 0 0 0 128 0 0 255
-0.760248 -0.545485 3.49812 0 0 0 128 0 0 255
-0.762069 -0.408493 3.49828 0 0 0 128 0 0 255
-0.755505 -0.727425 3.49778 0 0 0 128 0 0 255
-0.756162 -0.598412 3.49788 0 0 0 128 0 0 255
-0.762931 -0.172461 3.49846 0 0 0 128 0 0 255
-0.759988 -0.315431 3.49823 0 0 0 128 0 0 255
-0.758959 -0.36542 3.49815 0 0 0 128 0 0 255
-0.762888 -0.0774399 3.49852 0 0 0 128 0 0 255
-0.755809 -0.421367 3.49798 0 0 0 128 0 0 255
-0.760787 -0.0823976 3.49844 0 0 0 128 0 0 255
-0.754799 -0.373336 3.49798 0 0 0 128 0 0 255
-0.753409 -0.392311 3.49792 0 0 0 128 0 0 255
-0.751125 -0.503287 3.49775 0 0 0 128 0 0 255
-0.744746 -0.813221 3.49726 0 0 0 128 0 0 255
-0.745639 -0.72122 3.49737 0 0 0 128 0 0 255
-0.743602 -0.820199 3.49722 0 0 0 128 0 0 255
-0.743437 -0.828198 3.4972 0 0 0 128 0 0 255
-0.746089 -0.602204 3.49751 0 0 0 128 0 0 255
-0.742056 -0.798163 3.4972 0 0 0 128 0 0 255
-0.742015 -0.800162 3.4972 0 0 0 128 0 0 255
-0.749575 -0.38423 3.49783 0 0 0 128 0 0 255
-0.74904 -0.410225 3.49779 0 0 0 128 0 0 255
-0.746057 -0.555194 3.49756 0 0 0 128 0 0 255
-0.737851 -0.808078 3.49711 0 0 0 128 0 0 255
-0.741255 -0.594103 3.49744 0 0 0 128 0 0 255
-0.750483 -0.0971884 3.49822 0 0 0 128 0 0 255
-0.746331 -0.153115 3.49812 0 0 0 128 0 0 255
-0.731849 -0.710934 3.49726 0 0 0 128 0 0 255
-0.731211 -0.741928 3.49721 0 0 0 128 0 0 255
-0.736455 -0.389961 3.49779 0 0 0 128 0 0 255
-0.734274 -0.495939 3.49762 0 0 0 128 0 0 255
-0.730282 -0.689898 3.49731 0 0 0 128 0 0 255
-0.727813 -0.809872 3.49712 0 0 0 128 0 0 255
-0.730843 -0.516873 3.49764 0 0 0 128 0 0 255
-0.726172 -0.743824 3.49728 0 0 0 128 0 0 255
-0.733115 -0.357886 3.49792 0 0 0 128 0 0 255
-0.725343 -0.589775 3.49764 0 0 0 128 0 0 255
-0.728213 -0.401795 3.49797 0 0 0 128 0 0 255
-0.728716 -0.32879 3.49812 0 0 0 128 0 0 255
-0.723654 -0.574737 3.49774 0 0 0 128 0 0 255
-0.720997 -0.606689 3.49777 0 0 0 128 0 0 255
-0.716532 -0.823643 3.49743 0 0 0 128 0 0 255
-0.717406 -0.732642 3.49761 0 0 0 128 0 0 255
-0.719658 -0.574655 3.49791 0 0 0 128 0 0 255
-0.717251 -0.69163 3.49773 0 0 0 128 0 0 255
-0.714452 -0.827601 3.49751 0 0 0 128 0 0 255
-0.727241 -0.157724 3.49862 0 0 0 128 0 0 255
-0.721438 -0.439664 3.49818 0 0 0 128 0 0 255
-0.713845 -0.808585 3.49759 0 0 0 128 0 0 255
-0.713011 -0.800566 3.49766 0 0 0 128 0 0 255
-0.718145 -0.502609 3.49819 0 0 0 128 0 0 255
-0.708886 -0.758473 3.49803 0 0 0 128 0 0 255
-0.711624 -0.528481 3.49854 0 0 0 128 0 0 255
-0.710266 -0.594467 3.49843 0 0 0 128 0 0 255
-0.709537 -0.581449 3.49853 0 0 0 128 0 0 255
-0.711359 -0.444458 3.49882 0 0 0 128 0 0 255
-0.719211 -0.0145294 3.49958 0 0 0 128 0 0 255
-0.705074 -0.701383 3.4985 0 0 0 128 0 0 255
-0.710107 -0.408425 3.49904 0 0 0 128 0 0 255
-0.701876 -0.80834 3.49841 0 0 0 128 0 0 255
-0.703534 -0.679347 3.4987 0 0 0 128 0 0 255
-0.702876 -0.71134 3.49865 0 0 0 128 0 0 255
-0.705337 -0.543356 3.499 0 0 0 128 0 0 255
-0.704822 -0.56835 3.49896 0 0 0 128 0 0 255
-0.7003 -0.691283 3.49895 0 0 0 128 0 0 255
-0.698153 -0.747251 3.49896 0 0 0 128 0 0 255
-0.696753 -0.815237 3.49885 0 0 0 128 0 0 255
-0.701335 -0.544274 3.49938 0 0 0 128 0 0 255
-0.69757 -0.727235 3.49909 0 0 0 128 0 0 255
-0.708057 -0.169334 3.50007 0 0 0 128 0 0 255
-0.710437 -0.0053483 3.50044 0 0 0 128 0 0 255
-0.701301 -0.449254 3.49974 0 0 0 128 0 0 255
-0.69377 -0.815176 3.49916 0 0 0 128 0 0 255
-0.707859 -0.0823116 3.50042 0 0 0 128 0 0 255
-0.699781 -0.378208 3.50018 0 0 0 128 0 0 255
-0.692002 -0.756127 3.49958 0 0 0 128 0 0 255
-0.704549 -0.0982474 3.50073 0 0 0 128 0 0 255
-0.704487 -0.101247 3.50073 0 0 0 128 0 0 255
-0.690176 -0.700079 3.50002 0 0 0 128 0 0 255
-0.68506 -0.803996 3.50023 0 0 0 128 0 0 255
-0.688308 -0.59802 3.50069 0 0 0 128 0 0 255
-0.685283 -0.744988 3.50046 0 0 0 128 0 0 255
-0.697997 -0.0791099 3.50164 0 0 0 128 0 0 255
-0.682955 -0.809954 3.50049 0 0 0 128 0 0 255
-0.684537 -0.684961 3.50082 0 0 0 128 0 0 255
-0.683775 -0.721953 3.50076 0 0 0 128 0 0 255
-0.682888 -0.716934 3.50091 0 0 0 128 0 0 255
-0.687555 -0.393962 3.5017 0 0 0 128 0 0 255
-0.683749 -0.578923 3.50141 0 0 0 128 0 0 255
-0.68241 -0.595899 3.50153 0 0 0 128 0 0 255
-0.680146 -0.705876 3.50136 0 0 0 128 0 0 255
-0.674198 -0.802775 3.50182 0 0 0 128 0 0 255
-0.680497 -0.40082 3.50278 0 0 0 128 0 0 255
-0.672184 -0.804734 3.50214 0 0 0 128 0 0 255
-0.682826 -0.191825 3.50344 0 0 0 128 0 0 255
-0.677828 -0.386763 3.5033 0 0 0 128 0 0 255
-0.668918 -0.819671 3.50262 0 0 0 128 0 0 255
-0.672337 -0.605696 3.50313 0 0 0 128 0 0 255
-0.670403 -0.699676 3.50298 0 0 0 128 0 0 255
-0.663017 -0.819551 3.5037 0 0 0 128 0 0 255
-0.66185 -0.828529 3.50387 0 0 0 128 0 0 255
-0.669943 -0.387603 3.50476 0 0 0 128 0 0 255
-0.661548 -0.795516 3.50411 0 0 0 128 0 0 255
-0.661507 -0.797516 3.50411 0 0 0 128 0 0 255
-0.661033 -0.820511 3.50407 0 0 0 128 0 0 255
-0.661013 -0.821511 3.50407 0 0 0 128 0 0 255
-0.660766 -0.833508 3.50405 0 0 0 128 0 0 255
-0.662028 -0.724512 3.50442 0 0 0 128 0 0 255
-0.659759 -0.739469 3.50479 0 0 0 128 0 0 255
-0.670345 -0.177569 3.50588 0 0 0 128 0 0 255
-0.668029 -0.242535 3.50598 0 0 0 128 0 0 255
-0.667287 -0.183508 3.50649 0 0 0 128 0 0 255
-0.666178 -0.142477 3.50699 0 0 0 128 0 0 255
-0.653872 -0.74035 3.50604 0 0 0 128 0 0 255
-0.66335 -0.232438 3.50706 0 0 0 128 0 0 255
-0.664 -0.153435 3.50741 0 0 0 128 0 0 255
-0.652456 -0.714316 3.50652 0 0 0 128 0 0 255
-0.657574 -0.27633 3.50812 0 0 0 128 0 0 255
-0.64782 -0.750229 3.50737 0 0 0 128 0 0 255
-0.645675 -0.807198 3.50752 0 0 0 128 0 0 255
-0.656532 -0.185291 3.50897 0 0 0 128 0 0 255
-0.643274 -0.735135 3.50859 0 0 0 128 0 0 255
-0.645372 -0.586147 3.50907 0 0 0 128 0 0 255
-0.641357 -0.687086 3.50941 0 0 0 128 0 0 255
-0.651214 -0.161179 3.5105 0 0 0 128 0 0 255
-0.641913 -0.613082 3.50978 0 0 0 128 0 0 255
-0.648231 -0.259138 3.5106 0 0 0 128 0 0 255
-0.64747 -0.29613 3.51054 0 0 0 128 0 0 255
-0.640104 -0.607045 3.51031 0 0 0 128 0 0 255
-0.63665 -0.728 3.51038 0 0 0 128 0 0 255
-0.635151 -0.753975 3.5106 0 0 0 128 0 0 255
-0.634253 -0.703946 3.51122 0 0 0 128 0 0 255
-0.637968 -0.429966 3.5122 0 0 0 128 0 0 255
-0.637927 -0.431966 3.51219 0 0 0 128 0 0 255
-0.634003 -0.575916 3.51224 0 0 0 128 0 0 255
-0.635089 -0.429908 3.51304 0 0 0 128 0 0 255
-0.627784 -0.784833 3.51248 0 0 0 128 0 0 255
-0.628718 -0.692833 3.51291 0 0 0 128 0 0 255
-0.637577 -0.215915 3.51395 0 0 0 128 0 0 255
-0.628256 -0.5758 3.51396 0 0 0 128 0 0 255
-0.627824 -0.596795 3.51393 0 0 0 128 0 0 255
-0.635984 -0.153871 3.51492 0 0 0 128 0 0 255
-0.625537 -0.568744 3.51487 0 0 0 128 0 0 255
-0.621936 -0.743707 3.51459 0 0 0 128 0 0 255
-0.62031 -0.82269 3.51447 0 0 0 128 0 0 255
-0.628061 -0.399761 3.51544 0 0 0 128 0 0 255
-0.623776 -0.561707 3.51549 0 0 0 128 0 0 255
-0.620586 -0.716674 3.51524 0 0 0 128 0 0 255
-0.617824 -0.804636 3.51541 0 0 0 128 0 0 255
-0.628871 -0.221741 3.51664 0 0 0 128 0 0 255
-0.62494 -0.412701 3.51634 0 0 0 128 0 0 255
-0.623435 -0.439676 3.51661 0 0 0 128 0 0 255
-0.624133 -0.359674 3.51705 0 0 0 128 0 0 255
-0.617814 -0.57459 3.51735 0 0 0 128 0 0 255
-0.615242 -0.699564 3.51716 0 0 0 128 0 0 255
-0.628021 -0.0326867 3.51853 0 0 0 128 0 0 255
-0.624852 -0.186654 3.51829 0 0 0 128 0 0 255
-0.623516 -0.205631 3.51858 0 0 0 128 0 0 255
-0.623104 -0.225627 3.51855 0 0 0 128 0 0 255
-0.619009 -0.424584 3.51824 0 0 0 128 0 0 255
-0.614731 -0.586531 3.51831 0 0 0 128 0 0 255
-0.625661 -0.00963488 3.51955 0 0 0 128 0 0 255
-0.62527 -0.0286308 3.51952 0 0 0 128 0 0 255
-0.623448 -0.0255938 3.5202 0 0 0 128 0 0 255
-0.618076 -0.149511 3.52102 0 0 0 128 0 0 255
-0.611665 -0.415436 3.52095 0 0 0 128 0 0 255
-0.603742 -0.800353 3.52034 0 0 0 128 0 0 255
-0.604081 -0.738348 3.52079 0 0 0 128 0 0 255
-0.612593 -0.188409 3.52272 0 0 0 128 0 0 255
-0.601206 -0.696282 3.52228 0 0 0 128 0 0 255
-0.609493 -0.248359 3.52334 0 0 0 128 0 0 255
-0.600418 -0.689265 3.52265 0 0 0 128 0 0 255
-0.609446 -0.20535 3.52377 0 0 0 128 0 0 255
-0.60368 -0.440281 3.52377 0 0 0 128 0 0 255
-0.608631 -0.0192966 3.52592 0 0 0 128 0 0 255
-0.594227 -0.719148 3.52482 0 0 0 128 0 0 255
-0.593795 -0.740143 3.52479 0 0 0 128 0 0 255
-0.600776 -0.266189 3.52668 0 0 0 128 0 0 255
-0.590754 -0.753085 3.52591 0 0 0 128 0 0 255
-0.600249 -0.202166 3.52755 0 0 0 128 0 0 255
-0.600105 -0.209164 3.52754 0 0 0 128 0 0 255
-0.595916 -0.234086 3.52908 0 0 0 128 0 0 255
-0.592162 -0.283021 3.53021 0 0 0 128 0 0 255
-0.587862 -0.491976 3.52988 0 0 0 128 0 0 255
-0.59093 -0.209982 3.53156 0 0 0 128 0 0 255
-0.590148 -0.247974 3.5315 0 0 0 128 0 0 255
-0.580065 -0.737869 3.53073 0 0 0 128 0 0 255
-0.580061 -0.693861 3.53121 0 0 0 128 0 0 255
-0.592052 -0.0229675 3.53311 0 0 0 128 0 0 255
-0.589316 -0.155939 3.5329 0 0 0 128 0 0 255
-0.588368 -0.157921 3.53332 0 0 0 128 0 0 255
-0.586599 -0.199894 3.53367 0 0 0 128 0 0 255
-0.58372 -0.295855 3.53395 0 0 0 128 0 0 255
-0.574463 -0.701751 3.53374 0 0 0 128 0 0 255
-0.574092 -0.719747 3.53371 0 0 0 128 0 0 255
-0.573541 -0.702733 3.53417 0 0 0 128 0 0 255
-0.571206 -0.728692 3.535 0 0 0 128 0 0 255
-0.576304 -0.393728 3.53641 0 0 0 128 0 0 255
-0.568021 -0.752633 3.53629 0 0 0 128 0 0 255
-0.565685 -0.692576 3.53819 0 0 0 128 0 0 255
-0.564405 -0.711554 3.53861 0 0 0 128 0 0 255
-0.56621 -0.537556 3.53981 0 0 0 128 0 0 255
-0.560611 -0.723481 3.54044 0 0 0 128 0 0 255
-0.560282 -0.739478 3.54042 0 0 0 128 0 0 255
-0.571448 -0.0255604 3.54343 0 0 0 128 0 0 255
-0.564287 -0.373486 3.54288 0 0 0 128 0 0 255
-0.565516 -0.228483 3.54407 0 0 0 128 0 0 255
-0.564784 -0.221467 3.54456 0 0 0 128 0 0 255
-0.556975 -0.558378 3.54451 0 0 0 128 0 0 255
-0.552942 -0.754336 3.5442 0 0 0 128 0 0 255
-0.560793 -0.330409 3.54536 0 0 0 128 0 0 255
-0.555641 -0.538348 3.54552 0 0 0 128 0 0 255
-0.55488 -0.57534 3.54546 0 0 0 128 0 0 255
-0.553844 -0.583321 3.54594 0 0 0 128 0 0 255
-0.558236 -0.201334 3.54854 0 0 0 128 0 0 255
-0.556981 -0.262321 3.54844 0 0 0 128 0 0 255
-0.556466 -0.245308 3.54897 0 0 0 128 0 0 255
-0.559187 -0.0293198 3.55032 0 0 0 128 0 0 255
-0.558163 -0.0373012 3.55082 0 0 0 128 0 0 255
-0.557778 -0.0142892 3.55137 0 0 0 128 0 0 255
-0.551563 -0.316225 3.55089 0 0 0 128 0 0 255
-0.54716 -0.530179 3.55056 0 0 0 128 0 0 255
-0.545164 -0.627159 3.5504 0 0 0 128 0 0 255
-0.550521 -0.325206 3.55139 0 0 0 128 0 0 255
-0.547084 -0.492171 3.55113 0 0 0 128 0 0 255
-0.545508 -0.527146 3.55159 0 0 0 128 0 0 255
-0.541269 -0.733102 3.55127 0 0 0 128 0 0 255
-0.540858 -0.753098 3.55124 0 0 0 128 0 0 255
-0.547875 -0.329155 3.55295 0 0 0 128 0 0 255
-0.544192 -0.508117 3.55266 0 0 0 128 0 0 255
-0.550501 -0.160174 3.55374 0 0 0 128 0 0 255
-0.537135 -0.72702 3.5539 0 0 0 128 0 0 255
-0.53608 -0.695994 3.55501 0 0 0 128 0 0 255
-0.543754 -0.282065 3.5562 0 0 0 128 0 0 255
-0.536615 -0.587984 3.55625 0 0 0 128 0 0 255
-0.533983 -0.674949 3.55665 0 0 0 128 0 0 255
-0.531113 -0.61088 3.55949 0 0 0 128 0 0 255
-0.527664 -0.576807 3.56233 0 0 0 128 0 0 255
-0.526268 -0.444755 3.56538 0 0 0 128 0 0 255
-0.526165 -0.449753 3.56537 0 0 0 128 0 0 255
-0.534381 -0.0108311 3.56664 0 0 0 128 0 0 255
-0.522158 -0.604705 3.56571 0 0 0 128 0 0 255
-0.520038 -0.707683 3.56554 0 0 0 128 0 0 255
-0.522144 -0.565697 3.56634 0 0 0 128 0 0 255
-0.52133 -0.565681 3.56692 0 0 0 128 0 0 255
-0.528039 -0.160736 3.56873 0 0 0 128 0 0 255
-0.522002 -0.414666 3.56892 0 0 0 128 0 0 255
-0.518885 -0.487619 3.56998 0 0 0 128 0 0 255
-0.517527 -0.553605 3.56988 0 0 0 128 0 0 255
-0.528122 0.000292642 3.57134 0 0 0 128 0 0 255
-0.519949 -0.163579 3.57468 0 0 0 128 0 0 255
-0.513796 -0.462516 3.57421 0 0 0 128 0 0 255
-0.513488 -0.477512 3.57419 0 0 0 128 0 0 255
-0.511871 -0.517489 3.57473 0 0 0 128 0 0 255
-0.518733 -0.145552 3.57593 0 0 0 128 0 0 255
-0.517766 -0.192542 3.57586 0 0 0 128 0 0 255
-0.509412 -0.598456 3.57522 0 0 0 128 0 0 255
-0.503481 -0.733366 3.57746 0 0 0 128 0 0 255
-0.515084 -0.131479 3.57903 0 0 0 128 0 0 255
-0.508746 -0.439414 3.57855 0 0 0 128 0 0 255
-0.506688 -0.539392 3.57839 0 0 0 128 0 0 255
-0.504364 -0.576354 3.57958 0 0 0 128 0 0 255
-0.517578 0.103516 3.58128 0 0 0 128 0 0 255
-0.505066 -0.504355 3.58032 0 0 0 128 0 0 255
-0.509087 -0.158368 3.58339 0 0 0 128 0 0 255
-0.501576 -0.523291 3.58282 0 0 0 128 0 0 255
-0.505888 -0.276328 3.58384 0 0 0 128 0 0 255
-0.505283 -0.268315 3.5845 0 0 0 128 0 0 255
-0.505119 -0.276314 3.58448 0 0 0 128 0 0 255
-0.501436 -0.455276 3.5842 0 0 0 128 0 0 255
-0.507068 -0.144327 3.58533 0 0 0 128 0 0 255
-0.504497 -0.0472598 3.58938 0 0 0 128 0 0 255
-0.493652 -0.574148 3.58854 0 0 0 128 0 0 255
-0.502116 -0.126228 3.58991 0 0 0 128 0 0 255
-0.498988 -0.278196 3.58967 0 0 0 128 0 0 255
-0.492432 -0.560122 3.58988 0 0 0 128 0 0 255
-0.493203 -0.486123 3.59066 0 0 0 128 0 0 255
-0.491253 -0.508089 3.59195 0 0 0 128 0 0 255
-0.489865 -0.503062 3.59329 0 0 0 128 0 0 255
-0.489453 -0.523058 3.59326 0 0 0 128 0 0 255
-0.497621 -0.0901357 3.59461 0 0 0 128 0 0 255
-0.487625 -0.468013 3.59603 0 0 0 128 0 0 255
-0.485156 -0.587987 3.59584 0 0 0 128 0 0 255
-0.486993 -0.463 3.59672 0 0 0 128 0 0 255
-0.486684 -0.477997 3.59669 0 0 0 128 0 0 255
-0.484078 -0.568963 3.59723 0 0 0 128 0 0 255
-0.473945 -0.954839 3.59867 0 0 0 128 0 0 255
-0.479986 -0.0397907 3.61278 0 0 0 128 0 0 255
-0.403957 -0.0334087 3.72929 0 0 0 128 0 0 255
-0.402142 -0.0303781 3.73393 0 0 0 128 0 0 255
-0.396456 -0.0192839 3.74988 0 0 0 128 0 0 255
-0.387378 -0.07715 3.77561 0 0 0 128 0 0 255
-0.387205 -0.0731471 3.77658 0 0 0 128 0 0 255
-0.387075 -0.0671447 3.77756 0 0 0 128 0 0 255
-0.386108 -0.0201271 3.7854 0 0 0 128 0 0 255
-0.384526 -0.011105 3.79321 0 0 0 128 0 0 255
-0.382312 -0.00507675 3.80499 0 0 0 128 0 0 255
