ply
format ascii 1.0
comment VCGLIB generated
element vertex 505
property float x
property float y
property float z
property float nx
property float ny
property float nz
property uchar red
property uchar green
property uchar blue
property uchar alpha
element face 0
property list uchar int vertex_indices
end_header
4.09879 0.641782 3.34438 0 0 0 128 0 128 255
4.09771 0.65082 3.34585 0 0 0 128 0 128 255
4.06743 0.813838 3.38401 0 0 0 128 0 128 255
4.06645 0.847885 3.38621 0 0 0 128 0 128 255
4.05144 0.933392 3.4053 0 0 0 128 0 128 255
4.04378 0.927626 3.41337 0 0 0 128 0 128 255
4.02979 0.651928 3.41924 0 0 0 128 0 128 255
4.02387 0.658114 3.42585 0 0 0 128 0 128 255
4.02189 0.660177 3.42805 0 0 0 128 0 128 255
4.02802 1.14222 3.43759 0 0 0 128 0 128 255
4.0382 1.49207 3.43832 0 0 0 128 0 128 255
4.03435 1.56523 3.44493 0 0 0 128 0 128 255
4.01722 1.16657 3.45007 0 0 0 128 0 128 255
4.00782 1.19187 3.46108 0 0 0 128 0 128 255
4.00359 1.187 3.46548 0 0 0 128 0 128 255
4.00555 1.27198 3.46621 0 0 0 128 0 128 255
4.00919 1.49897 3.46988 0 0 0 128 0 128 255
4.00929 1.50197 3.46988 0 0 0 128 0 128 255
4.00947 1.50797 3.46988 0 0 0 128 0 128 255
3.99905 1.56632 3.48309 0 0 0 128 0 128 255
3.99548 1.58244 3.4875 0 0 0 128 0 128 255
3.99412 1.58248 3.48897 0 0 0 128 0 128 255
3.99239 1.57053 3.49043 0 0 0 128 0 128 255
3.98179 1.49182 3.49924 0 0 0 128 0 128 255
3.96591 1.02409 3.50071 0 0 0 128 0 128 255
3.96486 1.01212 3.50144 0 0 0 128 0 128 255
3.96474 1.03013 3.50218 0 0 0 128 0 128 255
3.96233 1.0182 3.50438 0 0 0 128 0 128 255
3.96308 1.04219 3.50438 0 0 0 128 0 128 255
3.96504 1.32426 3.51172 0 0 0 128 0 128 255
3.95642 1.09042 3.51319 0 0 0 128 0 128 255
3.95332 1.01247 3.51392 0 0 0 128 0 128 255
3.96438 1.43433 3.51612 0 0 0 128 0 128 255
3.96246 1.4384 3.51832 0 0 0 128 0 128 255
3.94975 1.09462 3.52052 0 0 0 128 0 128 255
3.95888 1.41049 3.52126 0 0 0 128 0 128 255
3.94893 1.13367 3.52273 0 0 0 128 0 128 255
3.94553 1.13377 3.5264 0 0 0 128 0 128 255
3.94269 1.08584 3.52786 0 0 0 128 0 128 255
3.94049 1.0809 3.53007 0 0 0 128 0 128 255
3.94146 1.1339 3.5308 0 0 0 128 0 128 255
3.93517 0.997029 3.533 0 0 0 128 0 128 255
3.96133 1.83962 3.533 0 0 0 128 0 128 255
3.93507 1.10308 3.53667 0 0 0 128 0 128 255
3.94413 1.39494 3.53667 0 0 0 128 0 128 255
3.93163 1.01415 3.53741 0 0 0 128 0 128 255
3.94267 1.39199 3.53814 0 0 0 128 0 128 255
3.94435 1.44596 3.53814 0 0 0 128 0 128 255
3.95555 1.80679 3.53814 0 0 0 128 0 128 255
3.92761 0.994263 3.54107 0 0 0 128 0 128 255
3.92763 1.10432 3.54474 0 0 0 128 0 128 255
3.92701 1.10634 3.54548 0 0 0 128 0 128 255
3.95217 1.91694 3.54548 0 0 0 128 0 128 255
3.9497 1.85899 3.54621 0 0 0 128 0 128 255
3.9259 1.11437 3.54695 0 0 0 128 0 128 255
3.95107 1.94699 3.54768 0 0 0 128 0 128 255
3.92061 1.00949 3.54915 0 0 0 128 0 128 255
3.92337 1.09844 3.54915 0 0 0 128 0 128 255
3.93067 1.39936 3.55135 0 0 0 128 0 128 255
3.91831 1.0886 3.55429 0 0 0 128 0 128 255
3.91532 1.12371 3.55869 0 0 0 128 0 128 255
3.91015 1.00081 3.56016 0 0 0 128 0 128 255
3.91359 1.13376 3.56089 0 0 0 128 0 128 255
3.92855 1.81263 3.5675 0 0 0 128 0 128 255
3.90108 1.0151 3.57043 0 0 0 128 0 128 255
3.89978 1.01714 3.5719 0 0 0 128 0 128 255
3.89047 1.04544 3.58291 0 0 0 128 0 128 255
3.88743 0.969497 3.58364 0 0 0 128 0 128 255
3.88076 0.973706 3.59098 0 0 0 128 0 128 255
3.8808 0.974706 3.59098 0 0 0 128 0 128 255
3.9104 1.95026 3.59172 0 0 0 128 0 128 255
3.87299 0.963943 3.59906 0 0 0 128 0 128 255
3.91376 2.32133 3.60052 0 0 0 128 0 128 255
3.86902 1.05511 3.6064 0 0 0 128 0 128 255
3.86387 1.04226 3.61153 0 0 0 128 0 128 255
3.90438 2.34763 3.61153 0 0 0 128 0 128 255
3.86378 1.1053 3.61373 0 0 0 128 0 128 255
3.88637 1.83295 3.61373 0 0 0 128 0 128 255
3.8632 1.10832 3.61447 0 0 0 128 0 128 255
3.86208 1.09434 3.6152 0 0 0 128 0 128 255
3.88517 1.83799 3.6152 0 0 0 128 0 128 255
3.85954 1.03439 3.61594 0 0 0 128 0 128 255
3.86035 1.08239 3.61667 0 0 0 128 0 128 255
3.87591 1.82427 3.62474 0 0 0 128 0 128 255
3.87343 1.96341 3.63208 0 0 0 128 0 128 255
3.83361 0.76807 3.63502 0 0 0 128 0 128 255
3.87161 1.99248 3.63502 0 0 0 128 0 128 255
3.8324 0.751099 3.63575 0 0 0 128 0 128 255
3.83117 0.75514 3.63722 0 0 0 128 0 128 255
3.82916 0.756202 3.63942 0 0 0 128 0 128 255
3.8811 2.4294 3.63942 0 0 0 128 0 128 255
3.86575 1.95665 3.64016 0 0 0 128 0 128 255
3.87408 2.35658 3.64456 0 0 0 128 0 128 255
3.86072 1.96981 3.64603 0 0 0 128 0 128 255
3.85979 1.96183 3.64676 0 0 0 128 0 128 255
3.87246 2.41366 3.64823 0 0 0 128 0 128 255
3.82043 0.759475 3.64896 0 0 0 128 0 128 255
3.82224 0.883478 3.65117 0 0 0 128 0 128 255
3.83047 1.17036 3.6519 0 0 0 128 0 128 255
3.8119 0.834776 3.66071 0 0 0 128 0 128 255
3.81357 0.88875 3.66071 0 0 0 128 0 128 255
3.84304 1.96936 3.66511 0 0 0 128 0 128 255
3.85564 2.41918 3.66658 0 0 0 128 0 128 255
3.80374 0.768997 3.66731 0 0 0 128 0 128 255
3.80569 0.831967 3.66731 0 0 0 128 0 128 255
3.84318 2.08341 3.66878 0 0 0 128 0 128 255
3.84287 2.09542 3.66951 0 0 0 128 0 128 255
3.84173 2.08045 3.67025 0 0 0 128 0 128 255
3.80466 0.952057 3.67245 0 0 0 128 0 128 255
3.79475 0.742263 3.67612 0 0 0 128 0 128 255
3.83726 2.13361 3.67685 0 0 0 128 0 128 255
3.81617 1.49796 3.67832 0 0 0 128 0 128 255
3.81376 1.48603 3.68052 0 0 0 128 0 128 255
3.79519 0.931341 3.68199 0 0 0 128 0 128 255
3.81008 1.43312 3.68272 0 0 0 128 0 128 255
3.7766 0.879893 3.70034 0 0 0 128 0 128 255
3.77589 0.878914 3.70107 0 0 0 128 0 128 255
3.78998 1.52979 3.70768 0 0 0 128 0 128 255
3.76485 0.742191 3.70841 0 0 0 128 0 128 255
3.78708 1.52388 3.71061 0 0 0 128 0 128 255
3.77222 1.06712 3.71135 0 0 0 128 0 128 255
3.76229 0.922357 3.71722 0 0 0 128 0 128 255
3.75414 0.747526 3.72016 0 0 0 128 0 128 255
3.74744 0.859788 3.73116 0 0 0 128 0 128 255
3.79236 2.3291 3.7319 0 0 0 128 0 128 255
3.78591 2.3183 3.7385 0 0 0 128 0 128 255
3.78199 2.32342 3.74291 0 0 0 128 0 128 255
3.74204 1.05805 3.74364 0 0 0 128 0 128 255
3.74068 1.05809 3.74511 0 0 0 128 0 128 255
3.77354 2.31368 3.75172 0 0 0 128 0 128 255
3.77018 2.33679 3.75612 0 0 0 128 0 128 255
3.76937 2.33282 3.75685 0 0 0 128 0 128 255
3.73218 1.1564 3.75759 0 0 0 128 0 128 255
3.72793 1.04148 3.75832 0 0 0 128 0 128 255
3.7286 1.15051 3.76126 0 0 0 128 0 128 255
3.75107 1.91818 3.76272 0 0 0 128 0 128 255
3.72312 1.06164 3.76419 0 0 0 128 0 128 255
3.72496 1.38374 3.773 0 0 0 128 0 128 255
3.74113 1.9265 3.77373 0 0 0 128 0 128 255
3.7399 1.90853 3.77447 0 0 0 128 0 128 255
3.69442 0.465243 3.7752 0 0 0 128 0 128 255
3.73817 1.91858 3.77667 0 0 0 128 0 128 255
3.73122 1.9138 3.78401 0 0 0 128 0 128 255
3.68519 0.649618 3.79135 0 0 0 128 0 128 255
3.7164 1.83022 3.79722 0 0 0 128 0 128 255
3.70155 1.39547 3.79869 0 0 0 128 0 128 255
3.69033 1.12169 3.80162 0 0 0 128 0 128 255
3.66886 0.452029 3.80236 0 0 0 128 0 128 255
3.67968 0.909914 3.80603 0 0 0 128 0 128 255
3.67573 0.914039 3.81043 0 0 0 128 0 128 255
3.65781 0.993633 3.83245 0 0 0 128 0 128 255
3.6833 1.88027 3.83465 0 0 0 128 0 128 255
3.62276 0.608535 3.8574 0 0 0 128 0 128 255
3.62743 0.890526 3.86181 0 0 0 128 0 128 255
3.62567 0.899585 3.86401 0 0 0 128 0 128 255
3.60659 0.437954 3.86915 0 0 0 128 0 128 255
3.59202 0.77857 3.8963 0 0 0 128 0 128 255
3.5833 0.694801 3.90291 0 0 0 128 0 128 255
3.5852 0.821803 3.90511 0 0 0 128 0 128 255
3.58838 1.0118 3.90804 0 0 0 128 0 128 255
3.58786 1.01681 3.90878 0 0 0 128 0 128 255
3.59791 1.49373 3.91392 0 0 0 128 0 128 255
3.59658 1.47276 3.91465 0 0 0 128 0 128 255
3.57756 1.03514 3.92052 0 0 0 128 0 128 255
3.58763 1.46904 3.92419 0 0 0 128 0 128 255
3.58661 1.50209 3.92639 0 0 0 128 0 128 255
3.56916 1.0274 3.92933 0 0 0 128 0 128 255
3.55899 0.721568 3.93006 0 0 0 128 0 128 255
3.56851 1.02842 3.93006 0 0 0 128 0 128 255
3.56172 0.831536 3.9308 0 0 0 128 0 128 255
3.56166 0.851547 3.93153 0 0 0 128 0 128 255
3.57843 1.47933 3.93447 0 0 0 128 0 128 255
3.5592 0.903649 3.93593 0 0 0 128 0 128 255
3.57819 1.51535 3.93593 0 0 0 128 0 128 255
3.56032 0.961642 3.93667 0 0 0 128 0 128 255
3.5562 0.850716 3.9374 0 0 0 128 0 128 255
3.58543 1.79226 3.9374 0 0 0 128 0 128 255
3.55506 0.835745 3.93814 0 0 0 128 0 128 255
3.55506 0.857755 3.93887 0 0 0 128 0 128 255
3.54426 0.640986 3.94327 0 0 0 128 0 128 255
3.54454 0.649982 3.94327 0 0 0 128 0 128 255
3.55252 0.9949 3.94621 0 0 0 128 0 128 255
3.54018 0.641113 3.94768 0 0 0 128 0 128 255
3.56466 1.45174 3.94841 0 0 0 128 0 128 255
3.56479 1.45574 3.94841 0 0 0 128 0 128 255
3.53434 0.73734 3.95722 0 0 0 128 0 128 255
3.5379 0.852285 3.95722 0 0 0 128 0 128 255
3.55943 1.54595 3.95722 0 0 0 128 0 128 255
3.55669 1.54504 3.96015 0 0 0 128 0 128 255
3.53101 0.783466 3.96236 0 0 0 128 0 128 255
3.56018 1.76703 3.96382 0 0 0 128 0 128 255
3.53527 0.986431 3.96456 0 0 0 128 0 128 255
3.5291 0.809537 3.96529 0 0 0 128 0 128 255
3.55702 1.7091 3.96529 0 0 0 128 0 128 255
3.5275 0.801583 3.96676 0 0 0 128 0 128 255
3.55592 1.73915 3.96749 0 0 0 128 0 128 255
3.52819 0.867594 3.96823 0 0 0 128 0 128 255
3.52896 0.892582 3.96823 0 0 0 128 0 128 255
3.53172 0.981539 3.96823 0 0 0 128 0 128 255
3.52484 0.781656 3.96896 0 0 0 128 0 128 255
3.52407 0.778679 3.96969 0 0 0 128 0 128 255
3.55123 1.7413 3.97263 0 0 0 128 0 128 255
3.54897 1.71236 3.9741 0 0 0 128 0 128 255
3.54978 1.76035 3.97483 0 0 0 128 0 128 255
3.51333 0.62994 3.9763 0 0 0 128 0 128 255
3.54669 1.72643 3.97703 0 0 0 128 0 128 255
3.54437 1.69549 3.9785 0 0 0 128 0 128 255
3.51643 0.860955 3.9807 0 0 0 128 0 128 255
3.51009 0.766106 3.98437 0 0 0 128 0 128 255
3.50525 0.632192 3.98511 0 0 0 128 0 128 255
3.51102 0.840113 3.98584 0 0 0 128 0 128 255
3.53808 1.71169 3.98584 0 0 0 128 0 128 255
3.5074 0.74518 3.98658 0 0 0 128 0 128 255
3.51106 0.863123 3.98658 0 0 0 128 0 128 255
3.50318 0.631256 3.98731 0 0 0 128 0 128 255
3.50226 0.645291 3.98878 0 0 0 128 0 128 255
3.50235 0.64829 3.98878 0 0 0 128 0 128 255
3.5057 0.756238 3.98878 0 0 0 128 0 128 255
3.51504 1.05709 3.98878 0 0 0 128 0 128 255
3.53639 1.74476 3.98878 0 0 0 128 0 128 255
3.50903 0.907207 3.99025 0 0 0 128 0 128 255
3.50974 0.930196 3.99025 0 0 0 128 0 128 255
3.51331 1.04514 3.99025 0 0 0 128 0 128 255
3.51307 1.08117 3.99171 0 0 0 128 0 128 255
3.5043 0.842323 3.99318 0 0 0 128 0 128 255
3.50721 0.936277 3.99318 0 0 0 128 0 128 255
3.50901 0.99425 3.99318 0 0 0 128 0 128 255
3.50591 0.916308 3.99391 0 0 0 128 0 128 255
3.49593 0.616474 3.99465 0 0 0 128 0 128 255
3.50158 0.820397 3.99538 0 0 0 128 0 128 255
3.5246 1.56204 3.99538 0 0 0 128 0 128 255
3.49926 0.811464 3.99758 0 0 0 128 0 128 255
3.49963 0.823458 3.99758 0 0 0 128 0 128 255
3.52703 1.72804 3.99832 0 0 0 128 0 128 255
3.49487 0.735564 3.99979 0 0 0 128 0 128 255
3.50085 0.928471 3.99979 0 0 0 128 0 128 255
3.49521 0.768569 4.00052 0 0 0 128 0 128 255
3.49636 0.805551 4.00052 0 0 0 128 0 128 255
3.4941 0.754597 4.00125 0 0 0 128 0 128 255
3.5224 1.68817 4.00199 0 0 0 128 0 128 255
3.52193 1.69519 4.00272 0 0 0 128 0 128 255
3.4951 0.852613 4.00346 0 0 0 128 0 128 255
3.49757 1.04163 4.00713 0 0 0 128 0 128 255
3.48694 0.764824 4.00933 0 0 0 128 0 128 255
3.4862 0.762846 4.01006 0 0 0 128 0 128 255
3.48791 0.817819 4.01006 0 0 0 128 0 128 255
3.49185 0.944758 4.01006 0 0 0 128 0 128 255
3.49572 1.0697 4.01006 0 0 0 128 0 128 255
3.51422 1.70943 4.01153 0 0 0 128 0 128 255
3.48988 0.990841 4.01373 0 0 0 128 0 128 255
3.51098 1.71454 4.0152 0 0 0 128 0 128 255
3.48908 1.03089 4.01593 0 0 0 128 0 128 255
3.50851 1.70061 4.0174 0 0 0 128 0 128 255
3.50907 1.7186 4.0174 0 0 0 128 0 128 255
3.48615 1.04598 4.0196 0 0 0 128 0 128 255
3.48631 1.05098 4.0196 0 0 0 128 0 128 255
3.48798 1.10496 4.0196 0 0 0 128 0 128 255
3.47732 0.805142 4.02107 0 0 0 128 0 128 255
3.47834 0.838126 4.02107 0 0 0 128 0 128 255
3.50546 1.71171 4.02107 0 0 0 128 0 128 255
3.47599 0.806183 4.02254 0 0 0 128 0 128 255
3.47842 0.928167 4.02401 0 0 0 128 0 128 255
3.47669 0.894204 4.02474 0 0 0 128 0 128 255
3.47447 0.910281 4.02768 0 0 0 128 0 128 255
3.47055 0.915405 4.03208 0 0 0 128 0 128 255
3.4734 1.00736 4.03208 0 0 0 128 0 128 255
3.47356 1.01236 4.03208 0 0 0 128 0 128 255
3.47233 1.06042 4.03502 0 0 0 128 0 128 255
3.46121 0.811645 4.03869 0 0 0 128 0 128 255
3.46782 1.02454 4.03869 0 0 0 128 0 128 255
3.46804 1.03154 4.03869 0 0 0 128 0 128 255
3.48498 1.57728 4.03869 0 0 0 128 0 128 255
3.48402 1.5683 4.03942 0 0 0 128 0 128 255
3.45958 0.802691 4.04015 0 0 0 128 0 128 255
3.45852 0.790718 4.04089 0 0 0 128 0 128 255
3.46604 1.05461 4.04162 0 0 0 128 0 128 255
3.4572 0.79176 4.04236 0 0 0 128 0 128 255
3.4573 0.838779 4.04382 0 0 0 128 0 128 255
3.4417 0.358032 4.04456 0 0 0 128 0 128 255
3.46075 1.01576 4.04602 0 0 0 128 0 128 255
3.46026 1.04379 4.04749 0 0 0 128 0 128 255
3.4764 1.56354 4.04749 0 0 0 128 0 128 255
3.47717 1.58852 4.04749 0 0 0 128 0 128 255
3.45051 0.816979 4.05043 0 0 0 128 0 128 255
3.45094 0.830973 4.05043 0 0 0 128 0 128 255
3.45407 0.931924 4.05043 0 0 0 128 0 128 255
3.45482 0.955912 4.05043 0 0 0 128 0 128 255
3.46686 1.34373 4.05043 0 0 0 128 0 128 255
3.465 1.32778 4.0519 0 0 0 128 0 128 255
3.45951 1.32595 4.05777 0 0 0 128 0 128 255
3.44567 0.90217 4.0585 0 0 0 128 0 128 255
3.44403 0.871206 4.05924 0 0 0 128 0 128 255
3.44552 0.919183 4.05924 0 0 0 128 0 128 255
3.44562 0.966203 4.0607 0 0 0 128 0 128 255
3.44135 0.85028 4.06144 0 0 0 128 0 128 255
3.44313 0.973284 4.06364 0 0 0 128 0 128 255
3.44027 0.903338 4.06437 0 0 0 128 0 128 255
3.43569 0.799431 4.06584 0 0 0 128 0 128 255
3.44252 1.01932 4.06584 0 0 0 128 0 128 255
3.45323 1.40818 4.06731 0 0 0 128 0 128 255
3.43831 0.949422 4.06804 0 0 0 128 0 128 255
3.43887 0.967413 4.06804 0 0 0 128 0 128 255
3.43258 0.808532 4.06951 0 0 0 128 0 128 255
3.43729 0.982469 4.07024 0 0 0 128 0 128 255
3.43817 1.03247 4.07098 0 0 0 128 0 128 255
3.43674 1.0085 4.07171 0 0 0 128 0 128 255
3.44419 1.27039 4.07245 0 0 0 128 0 128 255
3.4483 1.44635 4.07391 0 0 0 128 0 128 255
3.42854 0.831668 4.07465 0 0 0 128 0 128 255
3.43055 0.896637 4.07465 0 0 0 128 0 128 255
3.4456 1.3814 4.07465 0 0 0 128 0 128 255
3.42916 0.873669 4.07538 0 0 0 128 0 128 255
3.43586 1.08956 4.07538 0 0 0 128 0 128 255
3.44114 1.28149 4.07612 0 0 0 128 0 128 255
3.42529 0.79275 4.07685 0 0 0 128 0 128 255
3.42517 0.810762 4.07758 0 0 0 128 0 128 255
3.42734 0.902739 4.07832 0 0 0 128 0 128 255
3.43719 1.28562 4.08052 0 0 0 128 0 128 255
3.42736 0.990781 4.08125 0 0 0 128 0 128 255
3.43636 1.28064 4.08125 0 0 0 128 0 128 255
3.44017 1.40358 4.08125 0 0 0 128 0 128 255
3.42268 0.861864 4.08199 0 0 0 128 0 128 255
3.41955 0.782923 4.08272 0 0 0 128 0 128 255
3.42206 0.863884 4.08272 0 0 0 128 0 128 255
3.42154 0.868903 4.08346 0 0 0 128 0 128 255
3.4216 0.870902 4.08346 0 0 0 128 0 128 255
3.43503 1.30369 4.08346 0 0 0 128 0 128 255
3.42291 0.934892 4.08419 0 0 0 128 0 128 255
3.43361 1.27973 4.08419 0 0 0 128 0 128 255
3.42396 0.990886 4.08492 0 0 0 128 0 128 255
3.43679 1.44771 4.08639 0 0 0 128 0 128 255
3.41929 0.905991 4.08712 0 0 0 128 0 128 255
3.4366 1.46372 4.08712 0 0 0 128 0 128 255
3.42082 0.998988 4.08859 0 0 0 128 0 128 255
3.42895 1.26086 4.08859 0 0 0 128 0 128 255
3.43431 1.43378 4.08859 0 0 0 128 0 128 255
3.41729 0.929064 4.09006 0 0 0 128 0 128 255
3.43296 1.43382 4.09006 0 0 0 128 0 128 255
3.41227 0.789152 4.09079 0 0 0 128 0 128 255
3.4181 0.977062 4.09079 0 0 0 128 0 128 255
3.4181 0.999072 4.09153 0 0 0 128 0 128 255
3.42583 1.26996 4.09226 0 0 0 128 0 128 255
3.42546 1.27998 4.093 0 0 0 128 0 128 255
3.41033 0.836235 4.09446 0 0 0 128 0 128 255
3.42582 1.35701 4.0952 0 0 0 128 0 128 255
3.41149 0.939249 4.09667 0 0 0 128 0 128 255
3.40634 0.795339 4.0974 0 0 0 128 0 128 255
3.41103 0.946266 4.0974 0 0 0 128 0 128 255
3.42704 1.46202 4.0974 0 0 0 128 0 128 255
3.40415 0.812415 4.10034 0 0 0 128 0 128 255
3.41957 1.30918 4.10034 0 0 0 128 0 128 255
3.40239 0.777453 4.10107 0 0 0 128 0 128 255
3.40261 0.80646 4.1018 0 0 0 128 0 128 255
3.40119 0.826514 4.10401 0 0 0 128 0 128 255
3.40067 0.831532 4.10474 0 0 0 128 0 128 255
3.39569 0.780662 4.10841 0 0 0 128 0 128 255
3.39642 0.869683 4.11061 0 0 0 128 0 128 255
3.39614 0.882698 4.11134 0 0 0 128 0 128 255
3.39333 0.879783 4.11428 0 0 0 128 0 128 255
3.4064 1.30058 4.11428 0 0 0 128 0 128 255
3.39039 0.806839 4.11501 0 0 0 128 0 128 255
3.39223 0.887822 4.11575 0 0 0 128 0 128 255
3.38739 0.775918 4.11722 0 0 0 128 0 128 255
3.38761 0.804925 4.11795 0 0 0 128 0 128 255
3.38631 0.784955 4.11868 0 0 0 128 0 128 255
3.39184 0.96287 4.11868 0 0 0 128 0 128 255
3.39895 1.23578 4.12015 0 0 0 128 0 128 255
3.38949 0.952938 4.12089 0 0 0 128 0 128 255
3.38634 0.917018 4.12309 0 0 0 128 0 128 255
3.38088 0.785124 4.12456 0 0 0 128 0 128 255
3.39475 1.23191 4.12456 0 0 0 128 0 128 255
3.36838 0.404328 4.12529 0 0 0 128 0 128 255
3.39826 1.38888 4.12602 0 0 0 128 0 128 255
3.38505 1.0071 4.12749 0 0 0 128 0 128 255
3.39213 1.23499 4.12749 0 0 0 128 0 128 255
3.39225 1.23899 4.12749 0 0 0 128 0 128 255
3.39877 1.44889 4.12749 0 0 0 128 0 128 255
3.37703 0.814258 4.12969 0 0 0 128 0 128 255
3.37652 0.907318 4.13336 0 0 0 128 0 128 255
3.36524 0.784609 4.14144 0 0 0 128 0 128 255
3.38447 1.40431 4.14144 0 0 0 128 0 128 255
3.36533 0.809618 4.14217 0 0 0 128 0 128 255
3.38792 1.53727 4.14217 0 0 0 128 0 128 255
3.36172 0.780716 4.14511 0 0 0 128 0 128 255
3.36418 0.92571 4.14731 0 0 0 128 0 128 255
3.37467 1.26355 4.14731 0 0 0 128 0 128 255
3.35823 0.755813 4.14804 0 0 0 128 0 128 255
3.38385 1.58142 4.14804 0 0 0 128 0 128 255
3.37331 1.26359 4.14878 0 0 0 128 0 128 255
3.37346 1.26859 4.14878 0 0 0 128 0 128 255
3.35663 0.769869 4.15024 0 0 0 128 0 128 255
3.3579 0.81085 4.15024 0 0 0 128 0 128 255
3.3615 0.926794 4.15024 0 0 0 128 0 128 255
3.34422 0.392072 4.15098 0 0 0 128 0 128 255
3.35775 0.827862 4.15098 0 0 0 128 0 128 255
3.3606 0.919818 4.15098 0 0 0 128 0 128 255
3.35374 0.851998 4.15612 0 0 0 128 0 128 255
3.3516 0.827053 4.15758 0 0 0 128 0 128 255
3.33786 0.406276 4.15832 0 0 0 128 0 128 255
3.35139 0.842066 4.15832 0 0 0 128 0 128 255
3.34901 0.831135 4.16052 0 0 0 128 0 128 255
3.33402 0.45742 4.16419 0 0 0 128 0 128 255
3.34351 0.763273 4.16419 0 0 0 128 0 128 255
3.34385 0.774268 4.16419 0 0 0 128 0 128 255
3.34444 0.793259 4.16419 0 0 0 128 0 128 255
3.34286 0.786304 4.16566 0 0 0 128 0 128 255
3.3438 0.860311 4.16712 0 0 0 128 0 128 255
3.32979 0.452549 4.16859 0 0 0 128 0 128 255
3.34028 0.812397 4.16933 0 0 0 128 0 128 255
3.3344 0.754551 4.17373 0 0 0 128 0 128 255
3.32877 0.660681 4.17667 0 0 0 128 0 128 255
3.32986 0.717674 4.1774 0 0 0 128 0 128 255
3.32989 0.718674 4.1774 0 0 0 128 0 128 255
3.33393 0.848611 4.1774 0 0 0 128 0 128 255
3.32937 0.745703 4.17887 0 0 0 128 0 128 255
3.33217 0.85767 4.1796 0 0 0 128 0 128 255
3.32842 0.758739 4.18034 0 0 0 128 0 128 255
3.32868 0.832767 4.18254 0 0 0 128 0 128 255
3.31408 0.428025 4.18474 0 0 0 128 0 128 255
3.32832 0.886804 4.18474 0 0 0 128 0 128 255
3.32364 0.757887 4.18547 0 0 0 128 0 128 255
3.32751 0.882827 4.18547 0 0 0 128 0 128 255
3.3268 0.881848 4.18621 0 0 0 128 0 128 255
3.35414 1.76242 4.18621 0 0 0 128 0 128 255
3.35901 1.94136 4.18694 0 0 0 128 0 128 255
3.34868 1.63053 4.18767 0 0 0 128 0 128 255
3.32443 0.892927 4.18914 0 0 0 128 0 128 255
3.31916 0.76703 4.19061 0 0 0 128 0 128 255
3.32258 0.876977 4.19061 0 0 0 128 0 128 255
3.34873 1.74158 4.19134 0 0 0 128 0 128 255
3.32008 0.884058 4.19355 0 0 0 128 0 128 255
3.30289 0.352335 4.19428 0 0 0 128 0 128 255
3.31626 0.783128 4.19428 0 0 0 128 0 128 255
3.34211 1.61573 4.19428 0 0 0 128 0 128 255
3.31664 0.839143 4.19575 0 0 0 128 0 128 255
3.3397 1.58179 4.19575 0 0 0 128 0 128 255
3.31727 0.881144 4.19648 0 0 0 128 0 128 255
3.35093 1.96562 4.19648 0 0 0 128 0 128 255
3.31526 0.860196 4.19795 0 0 0 128 0 128 255
3.3385 1.63085 4.19868 0 0 0 128 0 128 255
3.30407 0.543391 4.19942 0 0 0 128 0 128 255
3.3007 0.544496 4.20309 0 0 0 128 0 128 255
3.30847 0.838396 4.20456 0 0 0 128 0 128 255
3.30878 0.848392 4.20456 0 0 0 128 0 128 255
3.3429 1.94786 4.20456 0 0 0 128 0 128 255
3.33267 1.64003 4.20529 0 0 0 128 0 128 255
3.34068 1.91992 4.20602 0 0 0 128 0 128 255
3.34 1.94195 4.20749 0 0 0 128 0 128 255
3.32934 1.64214 4.20896 0 0 0 128 0 128 255
3.33713 1.91503 4.20969 0 0 0 128 0 128 255
3.34411 2.13992 4.20969 0 0 0 128 0 128 255
3.30431 0.879545 4.21043 0 0 0 128 0 128 255
3.28621 0.405879 4.2141 0 0 0 128 0 128 255
3.34273 2.227 4.2141 0 0 0 128 0 128 255
3.3402 2.23308 4.21703 0 0 0 128 0 128 255
3.33115 1.96323 4.21777 0 0 0 128 0 128 255
3.32145 1.73843 4.2207 0 0 0 128 0 128 255
3.32751 1.95534 4.22144 0 0 0 128 0 128 255
3.31966 1.72448 4.22217 0 0 0 128 0 128 255
3.32522 1.9254 4.2229 0 0 0 128 0 128 255
3.31862 1.75652 4.22437 0 0 0 128 0 128 255
3.27661 0.425186 4.22511 0 0 0 128 0 128 255
3.31698 1.72556 4.22511 0 0 0 128 0 128 255
3.31537 1.69559 4.22584 0 0 0 128 0 128 255
3.27231 0.330274 4.22657 0 0 0 128 0 128 255
3.32353 1.98048 4.22657 0 0 0 128 0 128 255
3.3159 1.75661 4.22731 0 0 0 128 0 128 255
3.32162 1.98454 4.22878 0 0 0 128 0 128 255
3.31241 1.75371 4.23098 0 0 0 128 0 128 255
3.26493 0.333504 4.23465 0 0 0 128 0 128 255
3.30896 1.75182 4.23465 0 0 0 128 0 128 255
3.24633 0.347088 4.2552 0 0 0 128 0 128 255
3.26489 1.01083 4.2574 0 0 0 128 0 128 255
3.24389 0.925442 4.27722 0 0 0 128 0 128 255
3.25193 1.18432 4.27722 0 0 0 128 0 128 255
3.24912 1.1814 4.28015 0 0 0 128 0 128 255
3.24873 1.25645 4.28309 0 0 0 128 0 128 255
3.22391 1.0041 4.30143 0 0 0 128 0 128 255
3.23239 1.32099 4.3029 0 0 0 128 0 128 255
3.22518 1.19815 4.30657 0 0 0 128 0 128 255
3.22869 1.33311 4.30731 0 0 0 128 0 128 255
3.20376 0.989718 4.32272 0 0 0 128 0 128 255
3.20848 1.20768 4.32492 0 0 0 128 0 128 255
3.20858 1.21067 4.32492 0 0 0 128 0 128 255
3.21134 1.29963 4.32492 0 0 0 128 0 128 255
3.2098 1.3377 4.32786 0 0 0 128 0 128 255
3.18213 2.13194 4.38437 0 0 0 128 0 128 255
3.16218 1.51126 4.3851 0 0 0 128 0 128 255
3.18275 2.17394 4.3851 0 0 0 128 0 128 255
3.17788 2.17009 4.39024 0 0 0 128 0 128 255
3.16626 2.10242 4.40052 0 0 0 128 0 128 255
3.16358 2.12551 4.40419 0 0 0 128 0 128 255
3.15236 2.02681 4.41299 0 0 0 128 0 128 255
3.1453 2.04004 4.42107 0 0 0 128 0 128 255
3.14441 2.07708 4.42327 0 0 0 128 0 128 255
3.14423 2.11511 4.42474 0 0 0 128 0 128 255
3.13714 2.14934 4.43354 0 0 0 128 0 128 255
3.13265 2.04843 4.43501 0 0 0 128 0 128 255
3.12259 2.05275 4.44602 0 0 0 128 0 128 255
3.1212 2.0738 4.44822 0 0 0 128 0 128 255
3.12304 2.17679 4.44969 0 0 0 128 0 128 255
3.06456 2.13159 4.51134 0 0 0 128 0 128 255
3.05971 2.12874 4.51648 0 0 0 128 0 128 255
3.05888 2.12376 4.51721 0 0 0 128 0 128 255
3.05433 2.21795 4.52529 0 0 0 128 0 128 255
