ply
format ascii 1.0
comment VCGLIB generated
element vertex 309
property float x
property float y
property float z
property float nx
property float ny
property float nz
property uchar red
property uchar green
property uchar blue
property uchar alpha
element face 0
property list uchar int vertex_indices
end_header
1.56768 1.19994 3.55333 0 0 0 255 0 255 255
1.46789 1.18822 3.57418 0 0 0 255 0 255 255
1.55892 1.18794 3.57871 0 0 0 255 0 255 255
1.52499 1.18388 3.58596 0 0 0 255 0 255 255
1.65405 1.18226 3.59503 0 0 0 255 0 255 255
1.64531 1.16941 3.62222 0 0 0 255 0 255 255
1.66632 1.16899 3.62403 0 0 0 255 0 255 255
1.66434 1.1681 3.62585 0 0 0 255 0 255 255
1.60145 1.16177 3.63672 0 0 0 255 0 255 255
1.61749 1.15998 3.64126 0 0 0 255 0 255 255
1.41259 1.1529 3.6476 0 0 0 255 0 255 255
1.52258 1.15469 3.64851 0 0 0 255 0 255 255
1.53459 1.15409 3.65032 0 0 0 255 0 255 255
1.65761 1.15446 3.65485 0 0 0 255 0 255 255
1.65063 1.15347 3.65667 0 0 0 255 0 255 255
1.44169 1.14842 3.65848 0 0 0 255 0 255 255
1.5337 1.14858 3.66211 0 0 0 255 0 255 255
1.42883 1.14098 3.67389 0 0 0 255 0 255 255
1.59686 1.14141 3.68024 0 0 0 255 0 255 255
1.4179 1.1378 3.68024 0 0 0 255 0 255 255
1.58587 1.14076 3.68114 0 0 0 255 0 255 255
1.35401 1.13145 3.69111 0 0 0 255 0 255 255
1.35805 1.12942 3.69565 0 0 0 255 0 255 255
1.33807 1.1286 3.69655 0 0 0 255 0 255 255
1.35407 1.1285 3.69746 0 0 0 255 0 255 255
1.34808 1.12795 3.69837 0 0 0 255 0 255 255
1.57905 1.13176 3.70018 0 0 0 255 0 255 255
1.59207 1.13075 3.7029 0 0 0 255 0 255 255
1.34217 1.12361 3.70743 0 0 0 255 0 255 255
1.5882 1.12434 3.7165 0 0 0 255 0 255 255
1.40443 1.11135 3.73644 0 0 0 255 0 255 255
1.80249 1.11219 3.75185 0 0 0 255 0 255 255
1.36358 1.10335 3.75185 0 0 0 255 0 255 255
1.81712 1.08081 3.81984 0 0 0 255 0 255 255
1.29644 1.05977 3.8425 0 0 0 255 0 255 255
-0.245135 1.02324 3.85428 0 0 0 255 0 255 255
1.7885 1.06165 3.85972 0 0 0 255 0 255 255
-0.246075 1.02027 3.86063 0 0 0 255 0 255 255
1.79653 1.06054 3.86244 0 0 0 255 0 255 255
1.76964 1.05451 3.87422 0 0 0 255 0 255 255
1.27493 1.03526 3.89417 0 0 0 255 0 255 255
1.84 1.03735 3.91411 0 0 0 255 0 255 255
1.73908 1.03236 3.92046 0 0 0 255 0 255 255
1.27419 1.02216 3.92227 0 0 0 255 0 255 255
1.25226 1.01876 3.92861 0 0 0 255 0 255 255
1.19835 1.01387 3.93677 0 0 0 255 0 255 255
-0.751251 0.9742 3.93768 0 0 0 255 0 255 255
1.19739 1.01174 3.9413 0 0 0 255 0 255 255
1.25539 1.01249 3.94221 0 0 0 255 0 255 255
1.24442 1.01058 3.94584 0 0 0 255 0 255 255
1.13645 1.00798 3.94674 0 0 0 255 0 255 255
-0.757147 0.969014 3.94856 0 0 0 255 0 255 255
-0.75813 0.968149 3.95037 0 0 0 255 0 255 255
-0.761129 0.968089 3.95037 0 0 0 255 0 255 255
1.2975 1.00742 3.9549 0 0 0 255 0 255 255
-0.45409 0.969202 3.96125 0 0 0 255 0 255 255
-0.761019 0.962601 3.96215 0 0 0 255 0 255 255
1.27658 1.0032 3.96306 0 0 0 255 0 255 255
-0.52904 0.966004 3.96487 0 0 0 255 0 255 255
1.26462 1.00085 3.96759 0 0 0 255 0 255 255
1.76053 1.01041 3.9685 0 0 0 255 0 255 255
1.80054 1.01037 3.97031 0 0 0 255 0 255 255
1.76155 1.00958 3.97031 0 0 0 255 0 255 255
-0.757901 0.956752 3.97485 0 0 0 255 0 255 255
1.7726 1.00685 3.97666 0 0 0 255 0 255 255
0.0999595 0.972333 3.97847 0 0 0 255 0 255 255
-0.45492 0.96074 3.97938 0 0 0 255 0 255 255
-0.457877 0.958569 3.98391 0 0 0 255 0 255 255
-0.434873 0.958609 3.98482 0 0 0 255 0 255 255
-0.503825 0.955532 3.98844 0 0 0 255 0 255 255
1.73476 0.99891 3.99207 0 0 0 255 0 255 255
1.26687 0.988646 3.99388 0 0 0 255 0 255 255
1.77883 0.995574 4.00113 0 0 0 255 0 255 255
-0.449708 0.950287 4.00204 0 0 0 255 0 255 255
-0.436668 0.948438 4.00657 0 0 0 255 0 255 255
1.75196 0.988698 4.01473 0 0 0 255 0 255 255
-0.459587 0.944176 4.01473 0 0 0 255 0 255 255
-0.822412 0.931804 4.02561 0 0 0 255 0 255 255
0.0424387 0.947948 4.02833 0 0 0 255 0 255 255
-0.58141 0.934122 4.03105 0 0 0 255 0 255 255
-0.584409 0.934061 4.03105 0 0 0 255 0 255 255
1.77014 0.980196 4.03377 0 0 0 255 0 255 255
1.73519 0.977381 4.0383 0 0 0 255 0 255 255
1.64423 0.974283 4.04102 0 0 0 255 0 255 255
1.77032 0.971331 4.0528 0 0 0 255 0 255 255
1.74137 0.968637 4.05734 0 0 0 255 0 255 255
1.75941 0.966466 4.06278 0 0 0 255 0 255 255
1.82542 0.96695 4.06459 0 0 0 255 0 255 255
1.34253 0.956384 4.0664 0 0 0 255 0 255 255
-0.0791287 0.92523 4.07184 0 0 0 255 0 255 255
-0.283036 0.918591 4.07728 0 0 0 255 0 255 255
-0.358004 0.916237 4.07909 0 0 0 255 0 255 255
1.34066 0.950012 4.08 0 0 0 255 0 255 255
-0.287993 0.916379 4.08181 0 0 0 255 0 255 255
1.70362 0.95563 4.08362 0 0 0 255 0 255 255
1.8676 0.958509 4.08453 0 0 0 255 0 255 255
-0.107004 0.918756 4.08453 0 0 0 255 0 255 255
1.83162 0.95694 4.08634 0 0 0 255 0 255 255
-0.540814 0.904955 4.09541 0 0 0 255 0 255 255
1.34081 0.942413 4.09632 0 0 0 255 0 255 255
1.82483 0.946245 4.10901 0 0 0 255 0 255 255
1.71208 0.932995 4.13258 0 0 0 255 0 255 255
1.44021 0.923721 4.14073 0 0 0 255 0 255 255
0.0465853 0.89102 4.1507 0 0 0 255 0 255 255
1.83032 0.922284 4.16068 0 0 0 255 0 255 255
-0.0622481 0.881649 4.16612 0 0 0 255 0 255 255
-0.180207 0.87843 4.16793 0 0 0 255 0 255 255
1.8364 0.918184 4.16974 0 0 0 255 0 255 255
-0.0621036 0.874473 4.18153 0 0 0 255 0 255 255
0.0189224 0.873993 4.18606 0 0 0 255 0 255 255
-0.181969 0.86657 4.19331 0 0 0 255 0 255 255
-0.0909788 0.867979 4.19422 0 0 0 255 0 255 255
-0.0729654 0.867497 4.19603 0 0 0 255 0 255 255
1.85371 0.902907 4.20328 0 0 0 255 0 255 255
-0.20887 0.861383 4.20328 0 0 0 255 0 255 255
0.861939 0.881673 4.206 0 0 0 255 0 255 255
-0.206819 0.85889 4.20872 0 0 0 255 0 255 255
0.885053 0.876226 4.21869 0 0 0 255 0 255 255
-0.0927318 0.855697 4.2205 0 0 0 255 0 255 255
1.50397 0.886575 4.22322 0 0 0 255 0 255 255
0.958242 0.867564 4.24045 0 0 0 255 0 255 255
0.720299 0.862352 4.24135 0 0 0 255 0 255 255
1.78809 0.883426 4.24226 0 0 0 255 0 255 255
-0.123488 0.843253 4.24589 0 0 0 255 0 255 255
-0.127487 0.843173 4.24589 0 0 0 255 0 255 255
0.262613 0.842158 4.26492 0 0 0 255 0 255 255
0.859594 0.849109 4.2758 0 0 0 255 0 255 255
0.0418274 0.829267 4.28305 0 0 0 255 0 255 255
0.0688643 0.8277 4.28759 0 0 0 255 0 255 255
0.0818787 0.827117 4.2894 0 0 0 255 0 255 255
0.0829041 0.825871 4.29212 0 0 0 255 0 255 255
0.0829465 0.82376 4.29665 0 0 0 255 0 255 255
0.0229671 0.82213 4.29756 0 0 0 255 0 255 255
0.87482 0.838013 4.30028 0 0 0 255 0 255 255
0.695856 0.83441 4.30028 0 0 0 255 0 255 255
0.684901 0.832078 4.30481 0 0 0 255 0 255 255
0.668972 0.828379 4.31206 0 0 0 255 0 255 255
0.878964 0.830917 4.31569 0 0 0 255 0 255 255
0.517088 0.821098 4.32113 0 0 0 255 0 255 255
0.0772027 0.810975 4.32384 0 0 0 255 0 255 255
0.692095 0.822509 4.32566 0 0 0 255 0 255 255
0.537127 0.81939 4.32566 0 0 0 255 0 255 255
0.88409 0.824686 4.32928 0 0 0 255 0 255 255
0.675158 0.819212 4.332 0 0 0 255 0 255 255
1.12208 0.827787 4.33291 0 0 0 255 0 255 255
0.876126 0.822836 4.33291 0 0 0 255 0 255 255
1.50402 0.834632 4.33472 0 0 0 255 0 255 255
0.918134 0.822837 4.33472 0 0 0 255 0 255 255
0.875143 0.821972 4.33472 0 0 0 255 0 255 255
0.534212 0.815108 4.33472 0 0 0 255 0 255 255
0.0623162 0.805185 4.33563 0 0 0 255 0 255 255
1.51106 0.832662 4.33926 0 0 0 255 0 255 255
0.69124 0.815313 4.34107 0 0 0 255 0 255 255
0.711261 0.814449 4.34379 0 0 0 255 0 255 255
0.956237 0.818114 4.34651 0 0 0 255 0 255 255
0.538322 0.809701 4.34651 0 0 0 255 0 255 255
1.09523 0.820068 4.34832 0 0 0 255 0 255 255
1.21622 0.821659 4.35013 0 0 0 255 0 255 255
0.963278 0.816144 4.35104 0 0 0 255 0 255 255
1.10226 0.81852 4.35195 0 0 0 255 0 255 255
0.547379 0.806927 4.35285 0 0 0 255 0 255 255
1.12027 0.818038 4.35376 0 0 0 255 0 255 255
0.916313 0.813932 4.35376 0 0 0 255 0 255 255
0.886328 0.812906 4.35467 0 0 0 255 0 255 255
0.526401 0.80566 4.35467 0 0 0 255 0 255 255
0.724386 0.808379 4.35739 0 0 0 255 0 255 255
1.51223 0.823817 4.35829 0 0 0 255 0 255 255
0.883362 0.811157 4.35829 0 0 0 255 0 255 255
0.525443 0.803529 4.3592 0 0 0 255 0 255 255
1.34529 0.819612 4.3601 0 0 0 255 0 255 255
1.11434 0.81454 4.36101 0 0 0 255 0 255 255
1.3633 0.81913 4.36192 0 0 0 255 0 255 255
1.11935 0.814219 4.36192 0 0 0 255 0 255 255
0.862401 0.809046 4.36192 0 0 0 255 0 255 255
0.982393 0.810617 4.36373 0 0 0 255 0 255 255
0.971395 0.810395 4.36373 0 0 0 255 0 255 255
0.660459 0.804136 4.36373 0 0 0 255 0 255 255
0.976403 0.810074 4.36464 0 0 0 255 0 255 255
0.721455 0.804941 4.36464 0 0 0 255 0 255 255
1.65427 0.823298 4.36554 0 0 0 255 0 255 255
1.49431 0.820078 4.36554 0 0 0 255 0 255 255
0.874432 0.807599 4.36554 0 0 0 255 0 255 255
1.20737 0.813879 4.36645 0 0 0 255 0 255 255
1.16738 0.813074 4.36645 0 0 0 255 0 255 255
0.918432 0.808062 4.36645 0 0 0 255 0 255 255
0.883447 0.806936 4.36736 0 0 0 255 0 255 255
1.33236 0.815551 4.36826 0 0 0 255 0 255 255
1.49334 0.818369 4.36917 0 0 0 255 0 255 255
1.2084 0.812633 4.36917 0 0 0 255 0 255 255
0.874466 0.80591 4.36917 0 0 0 255 0 255 255
1.51235 0.81833 4.37008 0 0 0 255 0 255 255
1.51135 0.818309 4.37008 0 0 0 255 0 255 255
0.708508 0.802147 4.37008 0 0 0 255 0 255 255
0.863485 0.804844 4.37098 0 0 0 255 0 255 255
0.678523 0.801121 4.37098 0 0 0 255 0 255 255
1.09145 0.809012 4.37189 0 0 0 255 0 255 255
1.33141 0.81342 4.3728 0 0 0 255 0 255 255
1.65536 0.819097 4.37461 0 0 0 255 0 255 255
1.65236 0.819037 4.37461 0 0 0 255 0 255 255
1.4474 0.814911 4.37461 0 0 0 255 0 255 255
1.18745 0.809677 4.37461 0 0 0 255 0 255 255
0.994493 0.805793 4.37461 0 0 0 255 0 255 255
1.69836 0.819541 4.37551 0 0 0 255 0 255 255
0.525596 0.795931 4.37551 0 0 0 255 0 255 255
1.64838 0.818112 4.37642 0 0 0 255 0 255 255
1.33944 0.811893 4.37642 0 0 0 255 0 255 255
0.964516 0.804345 4.37642 0 0 0 255 0 255 255
0.533603 0.795669 4.37642 0 0 0 255 0 255 255
1.51043 0.814068 4.37914 0 0 0 255 0 255 255
1.50643 0.813987 4.37914 0 0 0 255 0 255 255
1.51244 0.813686 4.38005 0 0 0 255 0 255 255
0.919567 0.801328 4.38095 0 0 0 255 0 255 255
1.67843 0.815761 4.38277 0 0 0 255 0 255 255
1.67444 0.815258 4.38367 0 0 0 255 0 255 255
0.72365 0.795272 4.38549 0 0 0 255 0 255 255
0.731682 0.793745 4.38911 0 0 0 255 0 255 255
0.722701 0.792719 4.39093 0 0 0 255 0 255 255
1.63854 0.80989 4.39364 0 0 0 255 0 255 255
1.52756 0.807656 4.39364 0 0 0 255 0 255 255
0.514768 0.787266 4.39364 0 0 0 255 0 255 255
0.531774 0.787187 4.39455 0 0 0 255 0 255 255
1.61656 0.808603 4.39546 0 0 0 255 0 255 255
0.711746 0.790387 4.39546 0 0 0 255 0 255 255
0.710754 0.789945 4.39636 0 0 0 255 0 255 255
0.746764 0.789825 4.39818 0 0 0 255 0 255 255
0.973735 0.79355 4.39999 0 0 0 255 0 255 255
0.989749 0.793028 4.4018 0 0 0 255 0 255 255
0.678812 0.786768 4.4018 0 0 0 255 0 255 255
0.676829 0.785884 4.40362 0 0 0 255 0 255 255
1.32771 0.798143 4.40543 0 0 0 255 0 255 255
0.726845 0.785624 4.40634 0 0 0 255 0 255 255
0.709848 0.785281 4.40634 0 0 0 255 0 255 255
0.529893 0.781236 4.40724 0 0 0 255 0 255 255
1.22876 0.794884 4.40815 0 0 0 255 0 255 255
0.72887 0.784397 4.40905 0 0 0 255 0 255 255
1.67369 0.802996 4.40996 0 0 0 255 0 255 255
1.52072 0.799917 4.40996 0 0 0 255 0 255 255
1.03982 0.790235 4.40996 0 0 0 255 0 255 255
1.57971 0.800682 4.41087 0 0 0 255 0 255 255
0.95684 0.788142 4.41087 0 0 0 255 0 255 255
0.921865 0.786594 4.41268 0 0 0 255 0 255 255
1.23481 0.792471 4.41359 0 0 0 255 0 255 255
1.58176 0.798612 4.4154 0 0 0 255 0 255 255
1.13985 0.789715 4.4154 0 0 0 255 0 255 255
1.57277 0.798008 4.41631 0 0 0 255 0 255 255
1.56578 0.797445 4.41721 0 0 0 255 0 255 255
1.02393 0.784425 4.42175 0 0 0 255 0 255 255
0.998951 0.783078 4.42356 0 0 0 255 0 255 255
0.492071 0.772029 4.42537 0 0 0 255 0 255 255
0.976981 0.781369 4.42628 0 0 0 255 0 255 255
1.19694 0.785375 4.42719 0 0 0 255 0 255 255
1.02401 0.780204 4.43081 0 0 0 255 0 255 255
0.682092 0.772898 4.43172 0 0 0 255 0 255 255
1.61293 0.790371 4.43444 0 0 0 255 0 255 255
1.49196 0.787513 4.43534 0 0 0 255 0 255 255
1.10605 0.779322 4.43625 0 0 0 255 0 255 255
1.23403 0.781476 4.43716 0 0 0 255 0 255 255
1.06107 0.777994 4.43716 0 0 0 255 0 255 255
1.61596 0.788742 4.43806 0 0 0 255 0 255 255
1.60496 0.788521 4.43806 0 0 0 255 0 255 255
0.652166 0.768917 4.43897 0 0 0 255 0 255 255
1.30304 0.781598 4.43988 0 0 0 255 0 255 255
0.5222 0.765878 4.43988 0 0 0 255 0 255 255
1.66799 0.788101 4.44169 0 0 0 255 0 255 255
0.530216 0.765195 4.44169 0 0 0 255 0 255 255
0.676195 0.767712 4.4426 0 0 0 255 0 255 255
1.57605 0.784138 4.44622 0 0 0 255 0 255 255
1.08315 0.774215 4.44622 0 0 0 255 0 255 255
1.51807 0.782549 4.44713 0 0 0 255 0 255 255
1.23513 0.77643 4.44803 0 0 0 255 0 255 255
1.54908 0.782328 4.44894 0 0 0 255 0 255 255
1.31812 0.777679 4.44894 0 0 0 255 0 255 255
1.17616 0.774398 4.44985 0 0 0 255 0 255 255
0.908216 0.769004 4.44985 0 0 0 255 0 255 255
1.57012 0.78064 4.45347 0 0 0 255 0 255 255
1.21219 0.773435 4.45347 0 0 0 255 0 255 255
1.49415 0.778266 4.45529 0 0 0 255 0 255 255
1.31721 0.773437 4.45801 0 0 0 255 0 255 255
1.29524 0.771728 4.46072 0 0 0 255 0 255 255
1.25925 0.771003 4.46072 0 0 0 255 0 255 255
1.25425 0.770903 4.46072 0 0 0 255 0 255 255
1.72416 0.779941 4.46163 0 0 0 255 0 255 255
1.5952 0.7765 4.46344 0 0 0 255 0 255 255
1.43624 0.7733 4.46344 0 0 0 255 0 255 255
1.72919 0.778353 4.46526 0 0 0 255 0 255 255
0.660436 0.75557 4.46798 0 0 0 255 0 255 255
1.38233 0.767991 4.47251 0 0 0 255 0 255 255
1.33638 0.764955 4.47704 0 0 0 255 0 255 255
1.38438 0.765499 4.47795 0 0 0 255 0 255 255
0.70752 0.751872 4.47795 0 0 0 255 0 255 255
1.71232 0.771679 4.47885 0 0 0 255 0 255 255
0.583554 0.748954 4.47885 0 0 0 255 0 255 255
1.73034 0.771197 4.48067 0 0 0 255 0 255 255
0.576598 0.746703 4.48339 0 0 0 255 0 255 255
1.41044 0.763067 4.48429 0 0 0 255 0 255 255
1.92935 0.772669 4.48611 0 0 0 255 0 255 255
1.46645 0.762928 4.48701 0 0 0 255 0 255 255
1.6955 0.762894 4.49698 0 0 0 255 0 255 255
1.43655 0.757681 4.49698 0 0 0 255 0 255 255
1.09362 0.750777 4.49698 0 0 0 255 0 255 255
1.94852 0.764187 4.50514 0 0 0 255 0 255 255
1.9066 0.759964 4.51239 0 0 0 255 0 255 255
1.57673 0.749945 4.51965 0 0 0 255 0 255 255
1.5269 0.74134 4.53596 0 0 0 255 0 255 255
1.46994 0.738504 4.53959 0 0 0 255 0 255 255
1.49803 0.734424 4.54956 0 0 0 255 0 255 255
1.40708 0.730904 4.55319 0 0 0 255 0 255 255
1.44426 0.722362 4.57313 0 0 0 255 0 255 255
1.48558 0.707146 4.60758 0 0 0 255 0 255 255
