ply
format ascii 1.0
comment VCGLIB generated
element vertex 73
property float x
property float y
property float z
property float nx
property float ny
property float nz
property uchar red
property uchar green
property uchar blue
property uchar alpha
element face 0
property list uchar int vertex_indices
end_header
3.86293 1.44939 3.30101 0 0 0 128 128 128 255
3.88178 1.44817 3.3202 0 0 0 128 128 128 255
3.8567 1.52519 3.3202 0 0 0 128 128 128 255
3.87637 1.54106 3.34604 0 0 0 128 128 128 255
3.89008 1.53816 3.35932 0 0 0 128 128 128 255
3.82351 1.7426 3.35932 0 0 0 128 128 128 255
3.82478 1.7409 3.36006 0 0 0 128 128 128 255
3.82215 1.76424 3.36523 0 0 0 128 128 128 255
3.81715 1.80573 3.37409 0 0 0 128 128 128 255
3.86186 1.83185 3.42944 0 0 0 128 128 128 255
3.89574 1.74087 3.43387 0 0 0 128 128 128 255
4.00106 1.4828 3.45602 0 0 0 128 128 128 255
3.98775 1.55419 3.46635 0 0 0 128 128 128 255
3.89346 1.91786 3.49144 0 0 0 128 128 128 255
3.85327 2.04781 3.49366 0 0 0 128 128 128 255
3.87198 2.00342 3.49809 0 0 0 128 128 128 255
3.89505 1.94783 3.50325 0 0 0 128 128 128 255
3.8901 1.96304 3.50325 0 0 0 128 128 128 255
4.02265 1.74118 3.56599 0 0 0 128 128 128 255
3.83947 2.31465 3.56968 0 0 0 128 128 128 255
4.01635 1.78014 3.57264 0 0 0 128 128 128 255
4.00768 1.80677 3.57264 0 0 0 128 128 128 255
3.83465 2.34252 3.57411 0 0 0 128 128 128 255
3.84183 2.41637 3.60659 0 0 0 128 128 128 255
3.92806 2.19731 3.62209 0 0 0 128 128 128 255
4.16129 1.55075 3.64571 0 0 0 128 128 128 255
4.21087 1.40283 3.64718 0 0 0 128 128 128 255
3.90035 2.35866 3.64792 0 0 0 128 128 128 255
4.21446 1.40926 3.65309 0 0 0 128 128 128 255
4.18973 1.48955 3.65456 0 0 0 128 128 128 255
3.93585 2.29975 3.6649 0 0 0 128 128 128 255
4.20926 1.46225 3.66564 0 0 0 128 128 128 255
4.16689 1.62724 3.67745 0 0 0 128 128 128 255
4.15931 1.66579 3.68261 0 0 0 128 128 128 255
4.15745 1.67149 3.68261 0 0 0 128 128 128 255
3.95811 2.28807 3.68409 0 0 0 128 128 128 255
4.15206 1.70549 3.68852 0 0 0 128 128 128 255
4.13815 1.75039 3.68926 0 0 0 128 128 128 255
3.94931 2.36303 3.70033 0 0 0 128 128 128 255
4.11126 1.86784 3.70107 0 0 0 128 128 128 255
4.11221 1.8671 3.7018 0 0 0 128 128 128 255
3.95378 2.36238 3.70476 0 0 0 128 128 128 255
4.16854 1.72243 3.7114 0 0 0 128 128 128 255
4.15762 1.77777 3.71878 0 0 0 128 128 128 255
3.9807 2.33854 3.72468 0 0 0 128 128 128 255
4.13497 1.87346 3.72764 0 0 0 128 128 128 255
4.11337 1.97685 3.74018 0 0 0 128 128 128 255
4.08646 2.06168 3.74092 0 0 0 128 128 128 255
4.1212 1.96152 3.74314 0 0 0 128 128 128 255
4.12684 1.95074 3.74535 0 0 0 128 128 128 255
4.11335 2.00524 3.74978 0 0 0 128 128 128 255
4.11273 2.00714 3.74978 0 0 0 128 128 128 255
4.11399 2.00545 3.75052 0 0 0 128 128 128 255
4.03869 2.26067 3.75864 0 0 0 128 128 128 255
4.11302 2.03458 3.75937 0 0 0 128 128 128 255
4.20151 1.8173 3.77783 0 0 0 128 128 128 255
4.05438 2.29313 3.78595 0 0 0 128 128 128 255
4.0406 2.35069 3.79111 0 0 0 128 128 128 255
4.21525 1.81651 3.79185 0 0 0 128 128 128 255
4.20231 1.86278 3.79407 0 0 0 128 128 128 255
4.05834 2.30493 3.79407 0 0 0 128 128 128 255
4.20463 1.8709 3.79923 0 0 0 128 128 128 255
4.21589 1.84722 3.80292 0 0 0 128 128 128 255
4.25554 1.72762 3.80366 0 0 0 128 128 128 255
4.22306 1.82957 3.8044 0 0 0 128 128 128 255
4.27167 1.71079 3.81473 0 0 0 128 128 128 255
4.20811 1.92777 3.82211 0 0 0 128 128 128 255
4.05795 2.38894 3.82211 0 0 0 128 128 128 255
4.21154 1.94992 3.83318 0 0 0 128 128 128 255
4.29392 1.7296 3.84426 0 0 0 128 128 128 255
4.10998 2.35119 3.86345 0 0 0 128 128 128 255
4.11093 2.35045 3.86419 0 0 0 128 128 128 255
4.30163 1.79311 3.87378 0 0 0 128 128 128 255
