ply
format ascii 1.0
comment VCGLIB generated
element vertex 25
property float x
property float y
property float z
property float nx
property float ny
property float nz
property uchar red
property uchar green
property uchar blue
property uchar alpha
element face 0
property list uchar int vertex_indices
end_header
1.10169 2.55872 3.125 0 0 0 128 0 128 255
1.28145 2.51744 3.1625 0 0 0 128 0 128 255
1.57059 2.48997 3.19472 0 0 0 128 0 128 255
1.33529 2.47112 3.19824 0 0 0 128 0 128 255
1.69891 2.45457 3.22577 0 0 0 128 0 128 255
1.07046 2.40993 3.23105 0 0 0 128 0 128 255
1.50262 2.40313 3.25448 0 0 0 128 0 128 255
1.27336 2.38383 3.25858 0 0 0 128 0 128 255
1.74338 2.3468 3.30546 0 0 0 128 0 128 255
1.13655 2.30913 3.30663 0 0 0 128 0 128 255
1.24959 2.31179 3.30956 0 0 0 128 0 128 255
1.13803 2.3011 3.31249 0 0 0 128 0 128 255
1.11227 2.29632 3.31483 0 0 0 128 0 128 255
1.75576 2.324 3.32245 0 0 0 128 0 128 255
1.19313 2.28408 3.32713 0 0 0 128 0 128 255
1.1224 2.27744 3.32889 0 0 0 128 0 128 255
1.11794 2.26825 3.33534 0 0 0 128 0 128 255
2.04631 2.23897 3.39627 0 0 0 128 0 128 255
1.45878 2.19676 3.40154 0 0 0 128 0 128 255
1.86746 2.19749 3.41854 0 0 0 128 0 128 255
1.19726 2.14713 3.42615 0 0 0 128 0 128 255
1.90504 2.15508 3.45076 0 0 0 128 0 128 255
1.60368 2.03408 3.52517 0 0 0 128 0 128 255
1.80766 2.04051 3.52927 0 0 0 128 0 128 255
1.73861 2.00556 3.55154 0 0 0 128 0 128 255
