ply
format ascii 1.0
comment VCGLIB generated
element vertex 131
property float x
property float y
property float z
property float nx
property float ny
property float nz
property uchar red
property uchar green
property uchar blue
property uchar alpha
element face 0
property list uchar int vertex_indices
end_header
3.39286 1.04553 4.11458 0 0 0 255 0 255 255
3.47258 1.07994 3.94222 0 0 0 255 0 255 255
3.50975 1.09599 3.86184 0 0 0 255 0 255 255
3.52261 1.10134 3.83862 0 0 0 255 0 255 255
3.46578 1.07617 3.97303 0 0 0 255 0 255 255
3.59184 1.13029 3.7051 0 0 0 255 0 255 255
3.50111 1.0906 3.90827 0 0 0 255 0 255 255
3.50323 1.09133 3.90604 0 0 0 255 0 255 255
3.51025 1.09436 3.89085 0 0 0 255 0 255 255
3.52316 1.09953 3.86763 0 0 0 255 0 255 255
3.81105 1.22382 3.24515 0 0 0 255 0 255 255
3.60701 1.1341 3.7028 0 0 0 255 0 255 255
3.61177 1.13352 3.71385 0 0 0 255 0 255 255
3.60341 1.12001 3.78902 0 0 0 255 0 255 255
3.67957 1.14644 3.65261 0 0 0 255 0 255 255
3.67177 1.1395 3.68344 0 0 0 255 0 255 255
3.6914 1.1461 3.64793 0 0 0 255 0 255 255
3.67411 1.13404 3.70135 0 0 0 255 0 255 255
3.6537 1.12246 3.75454 0 0 0 255 0 255 255
3.68597 1.13569 3.68701 0 0 0 255 0 255 255
3.49718 1.04834 4.113 0 0 0 255 0 255 255
3.69048 1.1318 3.69504 0 0 0 255 0 255 255
3.71609 1.14285 3.63967 0 0 0 255 0 255 255
3.49316 1.04433 4.12826 0 0 0 255 0 255 255
3.48708 1.03858 4.15005 0 0 0 255 0 255 255
3.49702 1.04208 4.13071 0 0 0 255 0 255 255
3.52191 1.04375 4.10001 0 0 0 255 0 255 255
3.53883 1.04935 4.06752 0 0 0 255 0 255 255
3.53626 1.04387 4.08316 0 0 0 255 0 255 255
3.5593 1.05115 4.03928 0 0 0 255 0 255 255
3.5192 1.03294 4.12795 0 0 0 255 0 255 255
3.55881 1.04913 4.04425 0 0 0 255 0 255 255
3.80645 1.15239 3.51652 0 0 0 255 0 255 255
3.80838 1.14571 3.52728 0 0 0 255 0 255 255
3.56741 1.03589 4.05902 0 0 0 255 0 255 255
3.55811 1.02992 4.08264 0 0 0 255 0 255 255
3.57772 1.03344 4.04874 0 0 0 255 0 255 255
3.83789 1.13971 3.49606 0 0 0 255 0 255 255
3.74184 1.0921 3.71311 0 0 0 255 0 255 255
3.54554 0.994814 4.15491 0 0 0 255 0 255 255
3.55297 0.998024 4.13884 0 0 0 255 0 255 255
3.83624 1.1182 3.52907 0 0 0 255 0 255 255
3.62713 1.02579 3.98385 0 0 0 255 0 255 255
3.83132 1.11288 3.54365 0 0 0 255 0 255 255
3.56709 0.994534 4.12004 0 0 0 255 0 255 255
3.58137 0.998552 4.09161 0 0 0 255 0 255 255
3.58467 0.999978 4.08447 0 0 0 255 0 255 255
3.75729 1.06479 3.72152 0 0 0 255 0 255 255
3.76072 1.0641 3.71624 0 0 0 255 0 255 255
3.62743 1.0033 4.00749 0 0 0 255 0 255 255
3.64732 1.00971 3.96646 0 0 0 255 0 255 255
3.5573 0.969757 4.16207 0 0 0 255 0 255 255
3.5788 0.977949 4.11654 0 0 0 255 0 255 255
3.64903 1.005 3.96743 0 0 0 255 0 255 255
3.60388 0.971364 4.07532 0 0 0 255 0 255 255
3.85906 1.05154 3.5364 0 0 0 255 0 255 255
3.85025 1.02725 3.55658 0 0 0 255 0 255 255
3.6089 0.904727 4.07329 0 0 0 255 0 255 255
3.86433 1.0095 3.51813 0 0 0 255 0 255 255
3.58766 0.877837 4.10737 0 0 0 255 0 255 255
3.63598 0.8987 4.00288 0 0 0 255 0 255 255
3.58583 0.8721 4.1065 0 0 0 255 0 255 255
3.58916 0.855002 4.07327 0 0 0 255 0 255 255
3.6072 0.843301 3.98298 0 0 0 255 0 255 255
3.61881 0.847452 3.95447 0 0 0 255 0 255 255
3.5573 0.819257 4.08051 0 0 0 255 0 255 255
3.56307 0.820972 4.06449 0 0 0 255 0 255 255
3.68531 0.872994 3.79661 0 0 0 255 0 255 255
3.69481 0.877096 3.77607 0 0 0 255 0 255 255
3.57911 0.826426 4.02261 0 0 0 255 0 255 255
3.57549 0.823841 4.0249 0 0 0 255 0 255 255
3.53921 0.807217 4.09773 0 0 0 255 0 255 255
3.54251 0.808643 4.09059 0 0 0 255 0 255 255
3.56868 0.819637 4.03211 0 0 0 255 0 255 255
3.52452 0.79793 4.10812 0 0 0 255 0 255 255
3.52421 0.797574 4.10679 0 0 0 255 0 255 255
3.5245 0.797077 4.1001 0 0 0 255 0 255 255
3.74374 0.889252 3.57943 0 0 0 255 0 255 255
3.60538 0.829497 3.87637 0 0 0 255 0 255 255
3.71672 0.878442 3.595 0 0 0 255 0 255 255
3.71713 0.87862 3.59411 0 0 0 255 0 255 255
3.71376 0.877415 3.59679 0 0 0 255 0 255 255
3.7164 0.87949 3.57715 0 0 0 255 0 255 255
3.67105 0.866364 3.6185 0 0 0 255 0 255 255
3.66908 0.867 3.61323 0 0 0 255 0 255 255
3.38424 0.798379 4.04221 0 0 0 255 0 255 255
3.57255 0.898218 3.59722 0 0 0 255 0 255 255
3.36881 0.813172 4.03243 0 0 0 255 0 255 255
3.34654 0.813485 4.06362 0 0 0 255 0 255 255
3.32603 0.81073 4.09838 0 0 0 255 0 255 255
3.33943 0.817539 4.06786 0 0 0 255 0 255 255
3.6773 0.963404 3.33732 0 0 0 255 0 255 255
3.33832 0.822226 4.06268 0 0 0 255 0 255 255
3.32738 0.820633 4.08194 0 0 0 255 0 255 255
3.50067 0.89649 3.70583 0 0 0 255 0 255 255
3.5555 0.943633 3.55921 0 0 0 255 0 255 255
3.55425 0.950685 3.55444 0 0 0 255 0 255 255
3.55422 0.951756 3.55352 0 0 0 255 0 255 255
3.29479 0.840844 4.11345 0 0 0 255 0 255 255
3.7174 1.03636 3.18904 0 0 0 255 0 255 255
3.28578 0.857631 4.11712 0 0 0 255 0 255 255
3.68671 1.03397 3.24827 0 0 0 255 0 255 255
3.38152 0.913013 3.9026 0 0 0 255 0 255 255
3.49817 0.964443 3.64994 0 0 0 255 0 255 255
3.49392 0.971139 3.65603 0 0 0 255 0 255 255
3.37979 0.930284 3.90077 0 0 0 255 0 255 255
3.27753 0.891328 4.12115 0 0 0 255 0 255 255
3.25676 0.883395 4.16595 0 0 0 255 0 255 255
3.44184 0.967396 3.76556 0 0 0 255 0 255 255
3.27363 0.905813 4.13008 0 0 0 255 0 255 255
3.25297 0.898859 4.17512 0 0 0 255 0 255 255
3.50122 1.00701 3.63858 0 0 0 255 0 255 255
3.71291 1.10515 3.18278 0 0 0 255 0 255 255
3.25696 0.909259 4.16896 0 0 0 255 0 255 255
3.52317 1.02701 3.5945 0 0 0 255 0 255 255
3.2632 0.928349 4.16446 0 0 0 255 0 255 255
3.49581 1.07028 3.72485 0 0 0 255 0 255 255
3.54063 1.0907 3.63096 0 0 0 255 0 255 255
3.49156 1.07534 3.75636 0 0 0 255 0 255 255
3.45539 1.06016 3.83626 0 0 0 255 0 255 255
3.67737 1.15643 3.35798 0 0 0 255 0 255 255
3.42847 1.05181 3.90836 0 0 0 255 0 255 255
3.53672 1.09928 3.6779 0 0 0 255 0 255 255
3.45044 1.06441 3.87737 0 0 0 255 0 255 255
3.44601 1.06311 3.89074 0 0 0 255 0 255 255
3.44545 1.06316 3.89385 0 0 0 255 0 255 255
3.60399 1.13436 3.57269 0 0 0 255 0 255 255
3.64121 1.15121 3.50033 0 0 0 255 0 255 255
3.48678 1.08534 3.84461 0 0 0 255 0 255 255
3.45905 1.07439 3.92589 0 0 0 255 0 255 255
3.45147 1.07138 3.95762 0 0 0 255 0 255 255
