ply
format ascii 1.0
comment VCGLIB generated
element vertex 523
property float x
property float y
property float z
property float nx
property float ny
property float nz
property uchar red
property uchar green
property uchar blue
property uchar alpha
element face 0
property list uchar int vertex_indices
end_header
4.20175 0.642573 3.39385 0 0 0 0 128 0 255
4.18057 0.61124 3.40864 0 0 0 0 128 0 255
4.17702 0.626362 3.4116 0 0 0 0 128 0 255
4.17503 0.639434 3.41337 0 0 0 0 128 0 255
4.17129 0.648559 3.41633 0 0 0 0 128 0 255
4.13857 0.859724 3.44531 0 0 0 0 128 0 255
4.13087 0.845965 3.45064 0 0 0 0 128 0 255
4.12413 0.812165 3.45478 0 0 0 0 128 0 255
4.11507 0.931519 3.46424 0 0 0 0 128 0 255
4.10805 0.988775 3.47075 0 0 0 0 128 0 255
4.10531 1.02888 3.47371 0 0 0 0 128 0 255
4.09796 0.926068 3.47666 0 0 0 0 128 0 255
4.08583 0.650316 3.47903 0 0 0 0 128 0 255
4.07793 0.655573 3.48495 0 0 0 0 128 0 255
4.07481 0.658676 3.48731 0 0 0 0 128 0 255
4.0859 1.15257 3.49086 0 0 0 0 128 0 255
4.08445 1.15762 3.49204 0 0 0 0 128 0 255
4.05128 0.854536 3.5092 0 0 0 0 128 0 255
4.05767 1.1775 3.51215 0 0 0 0 128 0 255
4.05738 1.26855 3.51452 0 0 0 0 128 0 255
4.04793 1.17581 3.51925 0 0 0 0 128 0 255
4.02273 1.86998 3.55415 0 0 0 0 128 0 255
3.98497 1.02476 3.56184 0 0 0 0 128 0 255
3.98323 1.02082 3.56302 0 0 0 0 128 0 255
3.98326 1.02182 3.56302 0 0 0 0 128 0 255
3.97614 1.10109 3.57012 0 0 0 0 128 0 255
3.95134 0.532592 3.57485 0 0 0 0 128 0 255
3.96731 1.10237 3.57663 0 0 0 0 128 0 255
3.99227 2.00104 3.57959 0 0 0 0 128 0 255
3.99063 2.0251 3.58136 0 0 0 0 128 0 255
3.95393 1.03777 3.58491 0 0 0 0 128 0 255
3.96477 1.39861 3.5855 0 0 0 0 128 0 255
3.9351 0.529114 3.58668 0 0 0 0 128 0 255
3.94671 0.988979 3.58905 0 0 0 0 128 0 255
3.94726 1.00597 3.58905 0 0 0 0 128 0 255
3.94655 1.00899 3.58964 0 0 0 0 128 0 255
3.94942 1.12296 3.59023 0 0 0 0 128 0 255
3.94532 1.02104 3.59082 0 0 0 0 128 0 255
3.93901 1.10028 3.59733 0 0 0 0 128 0 255
3.93378 1.11346 3.60147 0 0 0 0 128 0 255
3.96158 2.00002 3.60206 0 0 0 0 128 0 255
3.95098 1.79626 3.60502 0 0 0 0 128 0 255
3.92714 1.13268 3.6068 0 0 0 0 128 0 255
3.91995 1.00985 3.60916 0 0 0 0 128 0 255
3.92099 1.14189 3.61153 0 0 0 0 128 0 255
3.9196 1.12392 3.61212 0 0 0 0 128 0 255
3.91099 1.03215 3.61626 0 0 0 0 128 0 255
3.90787 1.11029 3.6204 0 0 0 0 128 0 255
3.88504 0.602766 3.62513 0 0 0 0 128 0 255
3.89143 0.975754 3.62927 0 0 0 0 128 0 255
3.89146 0.976754 3.62927 0 0 0 0 128 0 255
3.88898 0.974833 3.63105 0 0 0 0 128 0 255
3.9222 2.27944 3.63755 0 0 0 0 128 0 255
3.92287 2.30043 3.63755 0 0 0 0 128 0 255
3.86986 1.10752 3.6482 0 0 0 0 128 0 255
3.89295 1.82315 3.6482 0 0 0 0 128 0 255
3.86802 1.10057 3.64938 0 0 0 0 128 0 255
3.86673 1.08561 3.64998 0 0 0 0 128 0 255
3.88151 1.96859 3.66003 0 0 0 0 128 0 255
3.83695 0.7624 3.66417 0 0 0 0 128 0 255
3.87494 1.9648 3.66476 0 0 0 0 128 0 255
3.83527 0.760453 3.66535 0 0 0 0 128 0 255
3.8353 0.761453 3.66535 0 0 0 0 128 0 255
3.87416 1.96583 3.66535 0 0 0 0 128 0 255
3.87236 1.95988 3.66654 0 0 0 0 128 0 255
3.83134 1.01371 3.67423 0 0 0 0 128 0 255
3.83727 1.19762 3.67423 0 0 0 0 128 0 255
3.82766 0.949797 3.67541 0 0 0 0 128 0 255
3.82783 0.954795 3.67541 0 0 0 0 128 0 255
3.82318 0.885909 3.67719 0 0 0 0 128 0 255
3.85808 1.96735 3.67719 0 0 0 0 128 0 255
3.86314 2.12426 3.67719 0 0 0 0 128 0 255
3.83163 1.17279 3.67778 0 0 0 0 128 0 255
3.82451 0.976913 3.67837 0 0 0 0 128 0 255
3.82983 1.19185 3.67955 0 0 0 0 128 0 255
3.81615 0.8181 3.68073 0 0 0 0 128 0 255
3.81848 0.890062 3.68073 0 0 0 0 128 0 255
3.81544 0.821124 3.68133 0 0 0 0 128 0 255
3.81309 0.773175 3.68192 0 0 0 0 128 0 255
3.81961 1.00008 3.68251 0 0 0 0 128 0 255
3.85518 2.10251 3.68251 0 0 0 0 128 0 255
3.8147 0.898188 3.68369 0 0 0 0 128 0 255
3.82116 1.17312 3.68547 0 0 0 0 128 0 255
3.82199 1.19911 3.68547 0 0 0 0 128 0 255
3.82109 1.19614 3.68606 0 0 0 0 128 0 255
3.84805 2.08173 3.68724 0 0 0 0 128 0 255
3.84847 2.09472 3.68724 0 0 0 0 128 0 255
3.80545 0.786429 3.68783 0 0 0 0 128 0 255
3.82596 1.4221 3.68783 0 0 0 0 128 0 255
3.84776 2.09775 3.68783 0 0 0 0 128 0 255
3.8478 2.09875 3.68783 0 0 0 0 128 0 255
3.84634 2.07878 3.68842 0 0 0 0 128 0 255
3.80297 0.759495 3.68902 0 0 0 0 128 0 255
3.80419 0.797475 3.68902 0 0 0 0 128 0 255
3.80139 0.760546 3.6902 0 0 0 0 128 0 255
3.80303 0.836533 3.69079 0 0 0 0 128 0 255
3.80416 0.871514 3.69079 0 0 0 0 128 0 255
3.80671 0.975486 3.69138 0 0 0 0 128 0 255
3.81368 1.19137 3.69138 0 0 0 0 128 0 255
3.80965 1.09145 3.69197 0 0 0 0 128 0 255
3.80971 1.09345 3.69197 0 0 0 0 128 0 255
3.80468 0.962545 3.69256 0 0 0 0 128 0 255
3.80455 0.98356 3.69316 0 0 0 0 128 0 255
3.80826 1.14853 3.69434 0 0 0 0 128 0 255
3.79781 0.874721 3.69552 0 0 0 0 128 0 255
3.79685 0.869749 3.69611 0 0 0 0 128 0 255
3.79046 0.746891 3.69789 0 0 0 0 128 0 255
3.79049 0.747891 3.69789 0 0 0 0 128 0 255
3.8033 1.19471 3.69907 0 0 0 0 128 0 255
3.80336 1.22172 3.69966 0 0 0 0 128 0 255
3.80075 1.2158 3.70144 0 0 0 0 128 0 255
3.79969 1.20783 3.70203 0 0 0 0 128 0 255
3.79356 1.06796 3.70321 0 0 0 0 128 0 255
3.78627 0.942128 3.70558 0 0 0 0 128 0 255
3.78618 0.964143 3.70617 0 0 0 0 128 0 255
3.79053 1.09907 3.70617 0 0 0 0 128 0 255
3.79369 1.22203 3.70676 0 0 0 0 128 0 255
3.7795 0.857302 3.70853 0 0 0 0 128 0 255
3.78992 1.18013 3.70853 0 0 0 0 128 0 255
3.78295 0.98926 3.70913 0 0 0 0 128 0 255
3.78628 1.09221 3.70913 0 0 0 0 128 0 255
3.78811 1.17419 3.70972 0 0 0 0 128 0 255
3.78647 1.19825 3.71149 0 0 0 0 128 0 255
3.79289 1.47219 3.71327 0 0 0 0 128 0 255
3.77306 0.882523 3.71386 0 0 0 0 128 0 255
3.78241 1.19739 3.71445 0 0 0 0 128 0 255
3.7777 1.17653 3.71741 0 0 0 0 128 0 255
3.77122 1.05067 3.71918 0 0 0 0 128 0 255
3.77635 1.20959 3.71918 0 0 0 0 128 0 255
3.78215 1.41451 3.71977 0 0 0 0 128 0 255
3.75984 0.74788 3.72037 0 0 0 0 128 0 255
3.75868 0.761924 3.72155 0 0 0 0 128 0 255
3.768 1.07579 3.72214 0 0 0 0 128 0 255
3.77832 1.42063 3.72273 0 0 0 0 128 0 255
3.76903 1.1578 3.72332 0 0 0 0 128 0 255
3.78125 1.5366 3.72332 0 0 0 0 128 0 255
3.76452 1.0679 3.72451 0 0 0 0 128 0 255
3.75249 0.745115 3.72569 0 0 0 0 128 0 255
3.75407 0.819103 3.72628 0 0 0 0 128 0 255
3.77452 1.45277 3.72628 0 0 0 0 128 0 255
3.75439 0.929149 3.72865 0 0 0 0 128 0 255
3.75504 0.949139 3.72865 0 0 0 0 128 0 255
3.74453 0.748374 3.7316 0 0 0 0 128 0 255
3.74443 0.820414 3.73338 0 0 0 0 128 0 255
3.74398 0.856447 3.73456 0 0 0 0 128 0 255
3.77188 1.721 3.73456 0 0 0 0 128 0 255
3.74176 0.812496 3.73515 0 0 0 0 128 0 255
3.76146 1.42318 3.73515 0 0 0 0 128 0 255
3.78662 2.32784 3.73811 0 0 0 0 128 0 255
3.74005 0.934615 3.73929 0 0 0 0 128 0 255
3.78558 2.34588 3.73929 0 0 0 0 128 0 255
3.73447 0.861757 3.74166 0 0 0 0 128 0 255
3.7417 1.16068 3.74343 0 0 0 0 128 0 255
3.72799 0.760913 3.74403 0 0 0 0 128 0 255
3.74927 1.44558 3.74462 0 0 0 0 128 0 255
3.77707 2.33215 3.74521 0 0 0 0 128 0 255
3.72196 0.64905 3.7458 0 0 0 0 128 0 255
3.73118 0.934901 3.7458 0 0 0 0 128 0 255
3.73744 1.17883 3.74698 0 0 0 0 128 0 255
3.77433 2.32223 3.74698 0 0 0 0 128 0 255
3.74347 1.39074 3.74757 0 0 0 0 128 0 255
3.73457 1.1399 3.74817 0 0 0 0 128 0 255
3.72735 0.941028 3.74876 0 0 0 0 128 0 255
3.72545 0.907071 3.74935 0 0 0 0 128 0 255
3.71558 0.651257 3.75053 0 0 0 0 128 0 255
3.72109 0.847181 3.75112 0 0 0 0 128 0 255
3.76827 2.33443 3.75171 0 0 0 0 128 0 255
3.74699 1.69979 3.75231 0 0 0 0 128 0 255
3.72567 1.06415 3.7529 0 0 0 0 128 0 255
3.76595 2.3125 3.7529 0 0 0 0 128 0 255
3.7666 2.33249 3.7529 0 0 0 0 128 0 255
3.72332 1.04121 3.75408 0 0 0 0 128 0 255
3.72703 1.15615 3.75408 0 0 0 0 128 0 255
3.71494 0.831371 3.75526 0 0 0 0 128 0 255
3.712 0.815457 3.75704 0 0 0 0 128 0 255
3.70594 0.652568 3.75763 0 0 0 0 128 0 255
3.72971 1.38918 3.75763 0 0 0 0 128 0 255
3.71516 0.963432 3.75822 0 0 0 0 128 0 255
3.71752 1.06141 3.75881 0 0 0 0 128 0 255
3.74516 1.91796 3.75881 0 0 0 0 128 0 255
3.71358 0.964484 3.7594 0 0 0 0 128 0 255
3.70317 0.666665 3.76 0 0 0 0 128 0 255
3.70197 0.654697 3.76059 0 0 0 0 128 0 255
3.71436 1.06351 3.76118 0 0 0 0 128 0 255
3.72461 1.38135 3.76118 0 0 0 0 128 0 255
3.70069 0.664744 3.76177 0 0 0 0 128 0 255
3.72607 1.45133 3.76177 0 0 0 0 128 0 255
3.70407 0.794702 3.76236 0 0 0 0 128 0 255
3.71526 1.16653 3.76295 0 0 0 0 128 0 255
3.70627 0.937706 3.76414 0 0 0 0 128 0 255
3.71423 1.38468 3.76887 0 0 0 0 128 0 255
3.7311 1.90741 3.76887 0 0 0 0 128 0 255
3.70246 1.04488 3.76946 0 0 0 0 128 0 255
3.69917 0.96795 3.77005 0 0 0 0 128 0 255
3.72981 1.91746 3.77005 0 0 0 0 128 0 255
3.70076 1.06695 3.77123 0 0 0 0 128 0 255
3.6906 0.827154 3.77301 0 0 0 0 128 0 255
3.6924 0.908138 3.7736 0 0 0 0 128 0 255
3.69286 0.92213 3.7736 0 0 0 0 128 0 255
3.69985 1.13902 3.7736 0 0 0 0 128 0 255
3.68083 0.649376 3.77597 0 0 0 0 128 0 255
3.67973 0.640407 3.77656 0 0 0 0 128 0 255
3.68025 0.656399 3.77656 0 0 0 0 128 0 255
3.68554 0.820313 3.77656 0 0 0 0 128 0 255
3.71998 1.91277 3.77715 0 0 0 0 128 0 255
3.67322 0.613603 3.7807 0 0 0 0 128 0 255
3.68925 1.13536 3.78129 0 0 0 0 128 0 255
3.67254 0.64264 3.78188 0 0 0 0 128 0 255
3.68851 1.13738 3.78188 0 0 0 0 128 0 255
3.68522 1.13549 3.78425 0 0 0 0 128 0 255
3.69302 1.37736 3.78425 0 0 0 0 128 0 255
3.66703 0.64682 3.78602 0 0 0 0 128 0 255
3.66526 0.616862 3.78661 0 0 0 0 128 0 255
3.67835 1.04766 3.78721 0 0 0 0 128 0 255
3.68067 1.11963 3.78721 0 0 0 0 128 0 255
3.65984 0.599027 3.79016 0 0 0 0 128 0 255
3.67768 1.15174 3.79016 0 0 0 0 128 0 255
3.69954 1.82939 3.79016 0 0 0 0 128 0 255
3.65994 0.627038 3.79075 0 0 0 0 128 0 255
3.6581 0.595081 3.79135 0 0 0 0 128 0 255
3.66755 0.887929 3.79135 0 0 0 0 128 0 255
3.66829 0.910917 3.79135 0 0 0 0 128 0 255
3.67016 0.993899 3.79194 0 0 0 0 128 0 255
3.66436 0.914045 3.7943 0 0 0 0 128 0 255
3.65269 0.602259 3.79549 0 0 0 0 128 0 255
3.66991 1.16099 3.79608 0 0 0 0 128 0 255
3.65259 0.649287 3.79667 0 0 0 0 128 0 255
3.66033 0.889162 3.79667 0 0 0 0 128 0 255
3.65769 0.832218 3.79726 0 0 0 0 128 0 255
3.66127 1.0182 3.79904 0 0 0 0 128 0 255
3.65466 0.838319 3.79963 0 0 0 0 128 0 255
3.65375 0.835346 3.80022 0 0 0 0 128 0 255
3.64869 0.703441 3.80081 0 0 0 0 128 0 255
3.6624 1.12822 3.80081 0 0 0 0 128 0 255
3.6484 0.719459 3.8014 0 0 0 0 128 0 255
3.65804 1.0183 3.8014 0 0 0 0 128 0 255
3.64427 0.616538 3.80199 0 0 0 0 128 0 255
3.6624 1.17825 3.80199 0 0 0 0 128 0 255
3.65582 0.999365 3.80258 0 0 0 0 128 0 255
3.65637 1.04137 3.80318 0 0 0 0 128 0 255
3.65814 1.14637 3.80436 0 0 0 0 128 0 255
3.6405 0.624664 3.80495 0 0 0 0 128 0 255
3.64669 0.841577 3.80554 0 0 0 0 128 0 255
3.65411 1.09647 3.80613 0 0 0 0 128 0 255
3.64302 0.802675 3.80732 0 0 0 0 128 0 255
3.64702 0.926611 3.80732 0 0 0 0 128 0 255
3.64434 0.918693 3.80909 0 0 0 0 128 0 255
3.64502 0.939682 3.80909 0 0 0 0 128 0 255
3.65031 1.12861 3.80968 0 0 0 0 128 0 255
3.63767 0.761827 3.81027 0 0 0 0 128 0 255
3.63109 0.607959 3.81146 0 0 0 0 128 0 255
3.6316 0.623951 3.81146 0 0 0 0 128 0 255
3.63028 0.607985 3.81205 0 0 0 0 128 0 255
3.63938 0.939864 3.81323 0 0 0 0 128 0 255
3.63896 0.976897 3.81441 0 0 0 0 128 0 255
3.64125 1.07287 3.81501 0 0 0 0 128 0 255
3.64164 1.10988 3.8156 0 0 0 0 128 0 255
3.63396 0.92203 3.81678 0 0 0 0 128 0 255
3.63906 1.07995 3.81678 0 0 0 0 128 0 255
3.66353 1.83855 3.81678 0 0 0 0 128 0 255
3.6347 0.995044 3.81796 0 0 0 0 128 0 255
3.63016 0.87913 3.81856 0 0 0 0 128 0 255
3.66244 1.87961 3.81856 0 0 0 0 128 0 255
3.62613 0.804221 3.81974 0 0 0 0 128 0 255
3.63635 1.12106 3.81974 0 0 0 0 128 0 255
3.63145 0.994148 3.82033 0 0 0 0 128 0 255
3.65847 1.83171 3.82033 0 0 0 0 128 0 255
3.61758 0.589385 3.82092 0 0 0 0 128 0 255
3.62355 0.799302 3.82151 0 0 0 0 128 0 255
3.6161 0.593435 3.8221 0 0 0 0 128 0 255
3.61616 0.595434 3.8221 0 0 0 0 128 0 255
3.62929 1.00222 3.8221 0 0 0 0 128 0 255
3.63335 1.12816 3.8221 0 0 0 0 128 0 255
3.65522 1.83082 3.8227 0 0 0 0 128 0 255
3.61413 0.632518 3.82447 0 0 0 0 128 0 255
3.6111 0.588593 3.82565 0 0 0 0 128 0 255
3.61184 0.636594 3.82624 0 0 0 0 128 0 255
3.62458 1.03139 3.82624 0 0 0 0 128 0 255
3.62594 1.12339 3.82743 0 0 0 0 128 0 255
3.63777 1.51522 3.82802 0 0 0 0 128 0 255
3.61636 0.876574 3.82861 0 0 0 0 128 0 255
3.6468 1.82008 3.82861 0 0 0 0 128 0 255
3.62465 1.15845 3.8292 0 0 0 0 128 0 255
3.63391 1.52034 3.83098 0 0 0 0 128 0 255
3.61427 0.936672 3.83157 0 0 0 0 128 0 255
3.61633 1.02565 3.83216 0 0 0 0 128 0 255
3.60179 0.5999 3.83275 0 0 0 0 128 0 255
3.60743 0.824835 3.83393 0 0 0 0 128 0 255
3.60875 0.890826 3.83453 0 0 0 0 128 0 255
3.59711 0.58004 3.83571 0 0 0 0 128 0 255
3.60253 0.822992 3.83748 0 0 0 0 128 0 255
3.60356 0.905001 3.83867 0 0 0 0 128 0 255
3.60398 0.917994 3.83867 0 0 0 0 128 0 255
3.60805 1.06894 3.83926 0 0 0 0 128 0 255
3.59928 0.822096 3.83985 0 0 0 0 128 0 255
3.58922 0.610311 3.84222 0 0 0 0 128 0 255
3.60402 1.06907 3.84222 0 0 0 0 128 0 255
3.63682 2.08554 3.84222 0 0 0 0 128 0 255
3.60402 1.1191 3.8434 0 0 0 0 128 0 255
3.59596 0.919254 3.84458 0 0 0 0 128 0 255
3.59638 0.95726 3.84517 0 0 0 0 128 0 255
3.63066 2.09475 3.84695 0 0 0 0 128 0 255
3.59757 1.09429 3.84754 0 0 0 0 128 0 255
3.6295 2.08378 3.84754 0 0 0 0 128 0 255
3.5887 0.869462 3.84872 0 0 0 0 128 0 255
3.58793 0.870487 3.84931 0 0 0 0 128 0 255
3.58332 0.802601 3.85109 0 0 0 0 128 0 255
3.58838 0.959519 3.85109 0 0 0 0 128 0 255
3.5818 0.805651 3.85227 0 0 0 0 128 0 255
3.5848 0.923616 3.85286 0 0 0 0 128 0 255
3.58954 1.07054 3.85286 0 0 0 0 128 0 255
3.59064 1.10452 3.85286 0 0 0 0 128 0 255
3.60573 1.59729 3.85345 0 0 0 0 128 0 255
3.57574 0.692788 3.85405 0 0 0 0 128 0 255
3.60161 1.59442 3.85641 0 0 0 0 128 0 255
3.58013 1.00381 3.85819 0 0 0 0 128 0 255
3.60558 1.7924 3.85819 0 0 0 0 128 0 255
3.57262 0.795942 3.85878 0 0 0 0 128 0 255
3.57284 0.877978 3.86055 0 0 0 0 128 0 255
3.5651 0.688129 3.86174 0 0 0 0 128 0 255
3.5671 0.775109 3.86233 0 0 0 0 128 0 255
3.56288 0.694203 3.86351 0 0 0 0 128 0 255
3.57604 1.10199 3.86351 0 0 0 0 128 0 255
3.57488 1.09102 3.8641 0 0 0 0 128 0 255
3.57439 1.10104 3.86469 0 0 0 0 128 0 255
3.57446 1.10304 3.86469 0 0 0 0 128 0 255
3.5731 1.11109 3.86588 0 0 0 0 128 0 255
3.56953 1.02516 3.86647 0 0 0 0 128 0 255
3.57188 1.09812 3.86647 0 0 0 0 128 0 255
3.57043 1.12819 3.86824 0 0 0 0 128 0 255
3.55676 0.779445 3.87002 0 0 0 0 128 0 255
3.56321 1.00435 3.87061 0 0 0 0 128 0 255
3.55544 0.863532 3.87297 0 0 0 0 128 0 255
3.5596 0.992464 3.87297 0 0 0 0 128 0 255
3.55844 1.00651 3.87416 0 0 0 0 128 0 255
3.55811 1.07155 3.87593 0 0 0 0 128 0 255
3.58111 1.83421 3.87711 0 0 0 0 128 0 255
3.54215 0.701876 3.87889 0 0 0 0 128 0 255
3.5786 1.83129 3.87889 0 0 0 0 128 0 255
3.54331 0.787883 3.88007 0 0 0 0 128 0 255
3.55334 1.09872 3.88007 0 0 0 0 128 0 255
3.56508 1.48755 3.88066 0 0 0 0 128 0 255
3.53983 0.729965 3.88126 0 0 0 0 128 0 255
3.53564 0.700085 3.88362 0 0 0 0 128 0 255
3.56057 1.47268 3.88362 0 0 0 0 128 0 255
3.53974 0.977097 3.88717 0 0 0 0 128 0 255
3.57467 2.08455 3.88776 0 0 0 0 128 0 255
3.55535 1.51087 3.88835 0 0 0 0 128 0 255
3.57289 2.0796 3.88894 0 0 0 0 128 0 255
3.57035 2.10069 3.89131 0 0 0 0 128 0 255
3.54919 1.47005 3.8919 0 0 0 0 128 0 255
3.53278 0.986326 3.89249 0 0 0 0 128 0 255
3.53603 1.08727 3.89249 0 0 0 0 128 0 255
3.52987 0.921386 3.89309 0 0 0 0 128 0 255
3.52543 0.858497 3.89486 0 0 0 0 128 0 255
3.52572 0.892505 3.89545 0 0 0 0 128 0 255
3.52307 0.860574 3.89663 0 0 0 0 128 0 255
3.56919 2.28983 3.89663 0 0 0 0 128 0 255
3.55232 1.79211 3.89723 0 0 0 0 128 0 255
3.55071 1.81718 3.899 0 0 0 0 128 0 255
3.52236 0.96365 3.89959 0 0 0 0 128 0 255
3.52333 0.993635 3.89959 0 0 0 0 128 0 255
3.5263 1.08559 3.89959 0 0 0 0 128 0 255
3.51746 0.836742 3.90018 0 0 0 0 128 0 255
3.52246 0.991662 3.90018 0 0 0 0 128 0 255
3.5382 1.47941 3.90018 0 0 0 0 128 0 255
3.55474 2.06718 3.90196 0 0 0 0 128 0 255
3.51495 0.958887 3.90492 0 0 0 0 128 0 255
3.51518 0.965883 3.90492 0 0 0 0 128 0 255
3.55539 2.21223 3.90492 0 0 0 0 128 0 255
3.53004 1.45166 3.90551 0 0 0 0 128 0 255
3.55468 2.24027 3.9061 0 0 0 0 128 0 255
3.54914 2.21844 3.90965 0 0 0 0 128 0 255
3.52218 1.45791 3.91142 0 0 0 0 128 0 255
3.52179 1.47093 3.91201 0 0 0 0 128 0 255
3.54569 2.23656 3.91261 0 0 0 0 128 0 255
3.49999 0.84531 3.9132 0 0 0 0 128 0 255
3.52811 1.76688 3.91438 0 0 0 0 128 0 255
3.53437 2.03582 3.91615 0 0 0 0 128 0 255
3.53527 2.06381 3.91615 0 0 0 0 128 0 255
3.50964 1.4193 3.9197 0 0 0 0 128 0 255
3.51815 1.70817 3.92029 0 0 0 0 128 0 255
3.52299 2.03319 3.92444 0 0 0 0 128 0 255
3.50942 1.68744 3.92621 0 0 0 0 128 0 255
3.48391 0.921869 3.9268 0 0 0 0 128 0 255
3.51016 1.76046 3.92739 0 0 0 0 128 0 255
3.48136 0.917949 3.92858 0 0 0 0 128 0 255
3.48275 0.960926 3.92858 0 0 0 0 128 0 255
3.47962 0.88899 3.92917 0 0 0 0 128 0 255
3.48168 1.05301 3.93153 0 0 0 0 128 0 255
3.5111 2.01456 3.93272 0 0 0 0 128 0 255
3.51065 2.02558 3.93331 0 0 0 0 128 0 255
3.46763 0.842352 3.93686 0 0 0 0 128 0 255
3.46795 0.927386 3.93863 0 0 0 0 128 0 255
3.46273 0.840509 3.94041 0 0 0 0 128 0 255
3.46315 0.928542 3.94218 0 0 0 0 128 0 255
3.49965 2.05995 3.94218 0 0 0 0 128 0 255
3.45905 0.826621 3.94277 0 0 0 0 128 0 255
3.46524 1.04353 3.94336 0 0 0 0 128 0 255
3.46092 0.934617 3.94395 0 0 0 0 128 0 255
3.47914 1.49932 3.94395 0 0 0 0 128 0 255
3.48121 1.56329 3.94395 0 0 0 0 128 0 255
3.46276 1.04161 3.94514 0 0 0 0 128 0 255
3.45731 1.04779 3.94928 0 0 0 0 128 0 255
3.44806 0.911019 3.95283 0 0 0 0 128 0 255
3.47306 1.71063 3.95342 0 0 0 0 128 0 255
3.44555 0.933112 3.95519 0 0 0 0 128 0 255
3.44268 0.919197 3.95697 0 0 0 0 128 0 255
3.46551 1.70187 3.95874 0 0 0 0 128 0 255
3.43988 1.00733 3.96111 0 0 0 0 128 0 255
3.43994 1.00933 3.96111 0 0 0 0 128 0 255
3.46187 1.71399 3.9617 0 0 0 0 128 0 255
3.43675 1.01044 3.96347 0 0 0 0 128 0 255
3.42936 0.806568 3.96407 0 0 0 0 128 0 255
3.42778 0.807619 3.96525 0 0 0 0 128 0 255
3.466 2.04203 3.96643 0 0 0 0 128 0 255
3.43108 1.05964 3.9688 0 0 0 0 128 0 255
3.42933 1.03069 3.96939 0 0 0 0 128 0 255
3.44272 1.44547 3.96939 0 0 0 0 128 0 255
3.42714 1.03776 3.97116 0 0 0 0 128 0 255
3.42476 1.03884 3.97294 0 0 0 0 128 0 255
3.43041 1.58894 3.98181 0 0 0 0 128 0 255
3.40464 0.840383 3.98299 0 0 0 0 128 0 255
3.42315 1.4391 3.98359 0 0 0 0 128 0 255
3.40806 1.04638 3.98536 0 0 0 0 128 0 255
3.41999 1.41619 3.98536 0 0 0 0 128 0 255
3.41699 1.37326 3.98654 0 0 0 0 128 0 255
3.41448 1.34533 3.98773 0 0 0 0 128 0 255
3.41235 1.32939 3.98891 0 0 0 0 128 0 255
3.40839 1.38154 3.99305 0 0 0 0 128 0 255
3.43548 2.24612 3.99364 0 0 0 0 128 0 255
3.38817 0.92996 3.99719 0 0 0 0 128 0 255
3.38975 1.00395 3.99778 0 0 0 0 128 0 255
3.38565 0.92704 3.99897 0 0 0 0 128 0 255
3.38698 1.01804 4.00015 0 0 0 0 128 0 255
3.423 2.2095 4.00192 0 0 0 0 128 0 255
3.37618 0.783271 4.00251 0 0 0 0 128 0 255
3.37943 0.98427 4.00488 0 0 0 0 128 0 255
3.39978 1.61494 4.00488 0 0 0 0 128 0 255
3.37024 0.799471 4.00725 0 0 0 0 128 0 255
3.38585 1.28322 4.00725 0 0 0 0 128 0 255
3.36889 0.807518 4.00843 0 0 0 0 128 0 255
3.3805 1.26738 4.0108 0 0 0 0 128 0 255
3.38086 1.27838 4.0108 0 0 0 0 128 0 255
3.39172 1.6152 4.0108 0 0 0 0 128 0 255
3.36325 0.782687 4.01198 0 0 0 0 128 0 255
3.39031 1.62125 4.01198 0 0 0 0 128 0 255
3.40979 2.24995 4.01257 0 0 0 0 128 0 255
3.3626 0.837737 4.01375 0 0 0 0 128 0 255
3.36373 0.872719 4.01375 0 0 0 0 128 0 255
3.36144 0.826769 4.01434 0 0 0 0 128 0 255
3.38125 1.46546 4.01494 0 0 0 0 128 0 255
3.37963 1.4405 4.01553 0 0 0 0 128 0 255
3.4004 2.20923 4.01849 0 0 0 0 128 0 255
3.37283 1.42972 4.02026 0 0 0 0 128 0 255
3.37338 1.44671 4.02026 0 0 0 0 128 0 255
3.39912 2.24429 4.02026 0 0 0 0 128 0 255
3.35035 0.783103 4.02144 0 0 0 0 128 0 255
3.35868 1.04097 4.02144 0 0 0 0 128 0 255
3.3688 1.47987 4.0244 0 0 0 0 128 0 255
3.3541 1.04912 4.02499 0 0 0 0 128 0 255
3.34855 0.902224 4.02558 0 0 0 0 128 0 255
3.36445 1.44499 4.02677 0 0 0 0 128 0 255
3.34304 0.806352 4.02736 0 0 0 0 128 0 255
3.34546 0.881313 4.02736 0 0 0 0 128 0 255
3.34459 0.904353 4.02854 0 0 0 0 128 0 255
3.34323 0.9124 4.02972 0 0 0 0 128 0 255
3.3393 0.915529 4.03268 0 0 0 0 128 0 255
3.35794 1.59328 4.03505 0 0 0 0 128 0 255
3.31896 0.81013 4.0451 0 0 0 0 128 0 255
3.32073 0.890114 4.04569 0 0 0 0 128 0 255
3.3117 0.760338 4.04924 0 0 0 0 128 0 255
3.3118 0.78835 4.04983 0 0 0 0 128 0 255
3.30468 0.767569 4.05457 0 0 0 0 128 0 255
3.30461 0.790583 4.05516 0 0 0 0 128 0 255
3.30465 0.816595 4.05575 0 0 0 0 128 0 255
3.30162 0.797683 4.05752 0 0 0 0 128 0 255
3.30213 0.813675 4.05752 0 0 0 0 128 0 255
3.32471 1.53832 4.05812 0 0 0 0 128 0 255
3.34299 2.18007 4.05989 0 0 0 0 128 0 255
3.30017 0.927797 4.06167 0 0 0 0 128 0 255
3.28998 0.787053 4.06581 0 0 0 0 128 0 255
3.2894 0.794075 4.0664 0 0 0 0 128 0 255
3.28908 0.859119 4.06817 0 0 0 0 128 0 255
3.28021 0.759353 4.07231 0 0 0 0 128 0 255
3.27767 0.855485 4.07645 0 0 0 0 128 0 255
3.2667 0.765792 4.08237 0 0 0 0 128 0 255
3.25868 0.892117 4.09124 0 0 0 0 128 0 255
3.25491 0.850217 4.09301 0 0 0 0 128 0 255
3.23344 0.684823 4.10485 0 0 0 0 128 0 255
3.21571 0.910512 4.12318 0 0 0 0 128 0 255
3.20191 0.882943 4.13265 0 0 0 0 128 0 255
3.19311 0.935254 4.14034 0 0 0 0 128 0 255
3.18567 0.904478 4.14507 0 0 0 0 128 0 255
3.18299 1.12168 4.15217 0 0 0 0 128 0 255
3.17655 1.17191 4.15808 0 0 0 0 128 0 255
3.17065 1.01402 4.15867 0 0 0 0 128 0 255
3.17265 1.15103 4.16045 0 0 0 0 128 0 255
3.16929 1.14713 4.16281 0 0 0 0 128 0 255
3.15624 1.2426 4.17464 0 0 0 0 128 0 255
3.13874 1.27518 4.18825 0 0 0 0 128 0 255
3.13996 1.31316 4.18825 0 0 0 0 128 0 255
3.10311 0.796084 4.20304 0 0 0 0 128 0 255
3.09995 0.798187 4.2054 0 0 0 0 128 0 255
3.10064 1.46951 4.22078 0 0 0 0 128 0 255
3.09687 1.57769 4.2261 0 0 0 0 128 0 255
3.0775 1.67737 4.24267 0 0 0 0 128 0 255
3.0644 1.29659 4.24326 0 0 0 0 128 0 255
3.0684 1.59562 4.2474 0 0 0 0 128 0 255
3.06966 1.68462 4.24858 0 0 0 0 128 0 255
3.05561 1.44896 4.25331 0 0 0 0 128 0 255
3.05554 1.59703 4.25686 0 0 0 0 128 0 255
3.04803 1.51423 4.26041 0 0 0 0 128 0 255
3.04232 1.41236 4.26219 0 0 0 0 128 0 255
3.04549 1.58535 4.26396 0 0 0 0 128 0 255
3.03591 1.41357 4.26692 0 0 0 0 128 0 255
3.04246 1.61647 4.26692 0 0 0 0 128 0 255
3.0391 1.61257 4.26928 0 0 0 0 128 0 255
3.03955 1.62657 4.26928 0 0 0 0 128 0 255
3.02089 1.34802 4.27638 0 0 0 0 128 0 255
3.00557 1.19844 4.28407 0 0 0 0 128 0 255
2.993 1.35893 4.29708 0 0 0 0 128 0 255
2.9853 1.62031 4.30892 0 0 0 0 128 0 255
