ply
format ascii 1.0
comment VCGLIB generated
element vertex 63
property float x
property float y
property float z
property float nx
property float ny
property float nz
property uchar red
property uchar green
property uchar blue
property uchar alpha
element face 0
property list uchar int vertex_indices
end_header
2.17313 1.04886 4.43137 0 0 0 255 255 0 255
2.15435 1.05541 4.43254 0 0 0 255 255 0 255
2.00861 1.06545 4.43352 0 0 0 255 255 0 255
2.17675 1.0664 4.43489 0 0 0 255 255 0 255
2.19374 1.0658 4.43489 0 0 0 255 255 0 255
2.22393 1.12754 4.44743 0 0 0 255 255 0 255
2.25412 1.16082 4.45429 0 0 0 255 255 0 255
2.22131 1.16688 4.45527 0 0 0 255 255 0 255
2.13864 1.17764 4.45684 0 0 0 255 255 0 255
2.23041 1.19796 4.46154 0 0 0 255 255 0 255
2.2466 1.20327 4.46271 0 0 0 255 255 0 255
2.26687 1.21041 4.46428 0 0 0 255 255 0 255
2.23199 1.21458 4.46487 0 0 0 255 255 0 255
2.06799 1.24587 4.46996 0 0 0 255 255 0 255
2.5457 1.22905 4.46996 0 0 0 255 255 0 255
1.91257 1.26508 4.4727 0 0 0 255 255 0 255
1.9236 1.26567 4.4729 0 0 0 255 255 0 255
2.16893 1.27077 4.47564 0 0 0 255 255 0 255
1.85127 1.28588 4.47643 0 0 0 255 255 0 255
1.93725 1.28383 4.47662 0 0 0 255 255 0 255
1.94342 1.28852 4.4776 0 0 0 255 255 0 255
2.52006 1.26822 4.4776 0 0 0 255 255 0 255
1.93249 1.29087 4.47799 0 0 0 255 255 0 255
1.88669 1.29739 4.47897 0 0 0 255 255 0 255
2.15659 1.28985 4.47936 0 0 0 255 255 0 255
2.54935 1.27602 4.47936 0 0 0 255 255 0 255
1.90799 1.30547 4.48074 0 0 0 255 255 0 255
1.91633 1.31499 4.48269 0 0 0 255 255 0 255
2.19888 1.32565 4.48681 0 0 0 255 255 0 255
1.96527 1.36919 4.49386 0 0 0 255 255 0 255
2.36502 1.41203 4.50522 0 0 0 255 255 0 255
1.92757 1.43528 4.50679 0 0 0 255 255 0 255
2.40234 1.44899 4.51286 0 0 0 255 255 0 255
2.06807 1.47547 4.5158 0 0 0 255 255 0 255
1.91665 1.49454 4.51854 0 0 0 255 255 0 255
2.05966 1.49245 4.51913 0 0 0 255 255 0 255
2.06094 1.50025 4.5207 0 0 0 255 255 0 255
2.10712 1.50452 4.52187 0 0 0 255 255 0 255
2.07931 1.5104 4.52285 0 0 0 255 255 0 255
2.06435 1.51191 4.52305 0 0 0 255 255 0 255
2.08861 1.51891 4.52462 0 0 0 255 255 0 255
2.08296 1.52892 4.52658 0 0 0 255 255 0 255
2.08916 1.53459 4.52775 0 0 0 255 255 0 255
2.04629 1.53904 4.52834 0 0 0 255 255 0 255
2.06342 1.54236 4.52912 0 0 0 255 255 0 255
2.34294 1.55215 4.53304 0 0 0 255 255 0 255
1.96624 1.56737 4.53343 0 0 0 255 255 0 255
2.45918 1.55689 4.5348 0 0 0 255 255 0 255
1.94529 1.626 4.54499 0 0 0 255 255 0 255
1.94443 1.62995 4.54577 0 0 0 255 255 0 255
2.05181 1.69584 4.55968 0 0 0 255 255 0 255
1.84108 1.70718 4.56047 0 0 0 255 255 0 255
1.87723 1.71082 4.56145 0 0 0 255 255 0 255
2.06884 1.72468 4.56556 0 0 0 255 255 0 255
2.20823 1.73351 4.5683 0 0 0 255 255 0 255
2.05636 1.73984 4.5685 0 0 0 255 255 0 255
2.25758 1.74257 4.57046 0 0 0 255 255 0 255
2.39085 1.8046 4.58378 0 0 0 255 255 0 255
1.85166 1.83731 4.58652 0 0 0 255 255 0 255
1.86094 1.90175 4.59945 0 0 0 255 255 0 255
1.89471 1.92313 4.60396 0 0 0 255 255 0 255
1.85394 1.93045 4.60513 0 0 0 255 255 0 255
1.89878 1.98186 4.61571 0 0 0 255 255 0 255
