ply
format ascii 1.0
comment VCGLIB generated
element vertex 135
property float x
property float y
property float z
property float nx
property float ny
property float nz
property uchar red
property uchar green
property uchar blue
property uchar alpha
element face 0
property list uchar int vertex_indices
end_header
3.55833 0.666784 4.12414 0 0 0 255 0 255 255
3.56282 0.673175 4.124 0 0 0 255 0 255 255
3.59106 0.69946 4.09378 0 0 0 255 0 255 255
3.59181 0.702128 4.09666 0 0 0 255 0 255 255
3.5969 0.708342 4.09376 0 0 0 255 0 255 255
3.64102 0.756128 4.05614 0 0 0 255 0 255 255
3.6039 0.762788 4.12935 0 0 0 255 0 255 255
3.60837 0.771596 4.12645 0 0 0 255 0 255 255
3.68236 0.906274 4.05327 0 0 0 255 0 255 255
3.63876 0.904311 4.09447 0 0 0 255 0 255 255
3.51308 0.82788 4.2197 0 0 0 255 0 255 255
3.54797 0.874591 4.17441 0 0 0 255 0 255 255
3.49975 0.833231 4.2263 0 0 0 255 0 255 255
3.4587 0.802491 4.26815 0 0 0 255 0 255 255
3.49458 0.83798 4.22713 0 0 0 255 0 255 255
3.49293 0.843247 4.22524 0 0 0 255 0 255 255
3.47314 0.829224 4.24478 0 0 0 255 0 255 255
3.51322 0.878023 4.19326 0 0 0 255 0 255 255
3.6161 0.973385 4.07888 0 0 0 255 0 255 255
3.46205 0.848761 4.23824 0 0 0 255 0 255 255
3.38698 0.785512 4.31734 0 0 0 255 0 255 255
3.39928 0.807396 4.29594 0 0 0 255 0 255 255
3.39737 0.814875 4.2909 0 0 0 255 0 255 255
3.5616 0.968875 4.10651 0 0 0 255 0 255 255
3.47612 0.892071 4.19978 0 0 0 255 0 255 255
3.62109 1.02714 4.03766 0 0 0 255 0 255 255
3.58425 0.994778 4.07723 0 0 0 255 0 255 255
3.57889 0.991178 4.08206 0 0 0 255 0 255 255
3.63599 1.05109 4.01242 0 0 0 255 0 255 255
3.55393 0.977387 4.10185 0 0 0 255 0 255 255
3.38355 0.836862 4.276 0 0 0 255 0 255 255
3.52731 0.970721 4.11496 0 0 0 255 0 255 255
3.50792 0.961623 4.12786 0 0 0 255 0 255 255
3.62462 1.07432 3.99286 0 0 0 255 0 255 255
3.62357 1.07576 3.99151 0 0 0 255 0 255 255
3.5912 1.0533 4.01958 0 0 0 255 0 255 255
3.59161 1.05718 4.01525 0 0 0 255 0 255 255
3.60657 1.07317 3.99613 0 0 0 255 0 255 255
3.66217 1.12628 3.93215 0 0 0 255 0 255 255
3.56274 1.03999 4.03659 0 0 0 255 0 255 255
3.51922 1.00805 4.07521 0 0 0 255 0 255 255
3.52535 1.01694 4.06437 0 0 0 255 0 255 255
3.45528 0.953997 4.14034 0 0 0 255 0 255 255
3.62362 1.10999 3.95182 0 0 0 255 0 255 255
3.46467 0.969015 4.1217 0 0 0 255 0 255 255
3.47148 0.987597 4.09735 0 0 0 255 0 255 255
3.52123 1.03799 4.03532 0 0 0 255 0 255 255
3.46339 0.989954 4.09197 0 0 0 255 0 255 255
3.54145 1.06503 4.00004 0 0 0 255 0 255 255
3.60373 1.13608 3.9079 0 0 0 255 0 255 255
3.32182 0.886553 4.20422 0 0 0 255 0 255 255
3.53453 1.0817 3.96799 0 0 0 255 0 255 255
3.41663 0.973965 4.0981 0 0 0 255 0 255 255
3.52808 1.08322 3.96024 0 0 0 255 0 255 255
3.31995 0.899152 4.17653 0 0 0 255 0 255 255
3.49507 1.07387 3.94475 0 0 0 255 0 255 255
3.47103 1.05191 3.97128 0 0 0 255 0 255 255
3.46382 1.05344 3.95018 0 0 0 255 0 255 255
3.6175 1.19632 3.76918 0 0 0 255 0 255 255
3.46405 1.05829 3.92591 0 0 0 255 0 255 255
3.57744 1.16288 3.79385 0 0 0 255 0 255 255
3.45468 1.05269 3.8922 0 0 0 255 0 255 255
3.45538 1.05329 3.89016 0 0 0 255 0 255 255
3.62377 1.20712 3.70306 0 0 0 255 0 255 255
3.63149 1.21375 3.68705 0 0 0 255 0 255 255
3.45766 1.05481 3.87765 0 0 0 255 0 255 255
3.62712 1.20878 3.68214 0 0 0 255 0 255 255
3.64489 1.22166 3.64399 0 0 0 255 0 255 255
3.46389 1.05452 3.83714 0 0 0 255 0 255 255
3.62954 1.20081 3.63973 0 0 0 255 0 255 255
3.57663 1.14846 3.68935 0 0 0 255 0 255 255
3.57032 1.14125 3.6935 0 0 0 255 0 255 255
3.56732 1.13646 3.69315 0 0 0 255 0 255 255
3.47599 1.05195 3.79215 0 0 0 255 0 255 255
3.49934 1.06817 3.75866 0 0 0 255 0 255 255
3.54925 1.09754 3.68571 0 0 0 255 0 255 255
3.50918 1.05708 3.72673 0 0 0 255 0 255 255
3.42199 0.945491 3.80548 0 0 0 255 0 255 255
3.56697 1.07698 3.64515 0 0 0 255 0 255 255
3.62245 1.12469 3.58295 0 0 0 255 0 255 255
3.45077 0.964765 3.77151 0 0 0 255 0 255 255
3.38153 0.881278 3.84389 0 0 0 255 0 255 255
3.54254 1.00546 3.66513 0 0 0 255 0 255 255
3.43434 0.89941 3.78485 0 0 0 255 0 255 255
3.57656 1.02329 3.62839 0 0 0 255 0 255 255
3.52858 0.975765 3.68172 0 0 0 255 0 255 255
3.53276 0.970884 3.6783 0 0 0 255 0 255 255
3.44364 0.878064 3.77877 0 0 0 255 0 255 255
3.42572 0.859131 3.7991 0 0 0 255 0 255 255
3.61924 1.02693 3.58775 0 0 0 255 0 255 255
3.44113 0.86158 3.78501 0 0 0 255 0 255 255
3.45846 0.857681 3.77215 0 0 0 255 0 255 255
3.44647 0.840065 3.78786 0 0 0 255 0 255 255
3.50315 0.890518 3.72584 0 0 0 255 0 255 255
3.68042 1.03639 3.53703 0 0 0 255 0 255 255
3.42289 0.78891 3.82705 0 0 0 255 0 255 255
3.75565 1.0808 3.46623 0 0 0 255 0 255 255
3.75311 1.07441 3.4713 0 0 0 255 0 255 255
3.4302 0.773925 3.83077 0 0 0 255 0 255 255
3.64857 0.958603 3.59892 0 0 0 255 0 255 255
3.79866 1.09441 3.43414 0 0 0 255 0 255 255
3.64272 0.949215 3.60801 0 0 0 255 0 255 255
3.76478 1.0594 3.4742 0 0 0 255 0 255 255
3.75733 1.05261 3.48241 0 0 0 255 0 255 255
3.80911 1.08386 3.43646 0 0 0 255 0 255 255
3.83036 1.07569 3.4347 0 0 0 255 0 255 255
3.67933 0.933806 3.60468 0 0 0 255 0 255 255
3.66224 0.914335 3.6269 0 0 0 255 0 255 255
3.83517 1.06853 3.43946 0 0 0 255 0 255 255
3.77644 1.01359 3.50541 0 0 0 255 0 255 255
3.44666 0.697206 3.88348 0 0 0 255 0 255 255
3.81337 1.0213 3.48985 0 0 0 255 0 255 255
3.67526 0.890302 3.64729 0 0 0 255 0 255 255
3.8212 1.01539 3.49521 0 0 0 255 0 255 255
3.72161 0.924392 3.60511 0 0 0 255 0 255 255
3.69528 0.900335 3.63416 0 0 0 255 0 255 255
3.71973 0.918036 3.6124 0 0 0 255 0 255 255
3.71942 0.908661 3.62335 0 0 0 255 0 255 255
3.72017 0.905999 3.62657 0 0 0 255 0 255 255
3.7429 0.922382 3.60691 0 0 0 255 0 255 255
3.70914 0.891526 3.64417 0 0 0 255 0 255 255
3.73915 0.917859 3.61242 0 0 0 255 0 255 255
3.70881 0.890141 3.6459 0 0 0 255 0 255 255
3.85435 1.0199 3.4894 0 0 0 255 0 255 255
3.67374 0.853789 3.6901 0 0 0 255 0 255 255
3.80734 0.974804 3.54404 0 0 0 255 0 255 255
3.72149 0.896356 3.63878 0 0 0 255 0 255 255
3.68102 0.856206 3.68761 0 0 0 255 0 255 255
3.66442 0.84104 3.70593 0 0 0 255 0 255 255
3.68028 0.851372 3.69402 0 0 0 255 0 255 255
3.86906 1.02183 3.4885 0 0 0 255 0 255 255
3.81927 0.976329 3.54345 0 0 0 255 0 255 255
3.73992 0.895818 3.64237 0 0 0 255 0 255 255
3.86196 1.00442 3.51199 0 0 0 255 0 255 255
3.62982 0.718845 3.96763 0 0 0 255 0 255 255
