ply
format ascii 1.0
comment VCGLIB generated
element vertex 1054
property float x
property float y
property float z
property float nx
property float ny
property float nz
property uchar red
property uchar green
property uchar blue
property uchar alpha
element face 0
property list uchar int vertex_indices
end_header
-0.335656 1.11266 4.10808 0 0 0 255 255 255 255
-0.31781 1.11497 3.94538 0 0 0 255 255 255 255
-0.301033 0.883357 4.11697 0 0 0 255 255 255 255
-0.282413 0.670167 4.0959 0 0 0 255 255 255 255
-0.295975 0.766476 4.08712 0 0 0 255 255 255 255
-0.295648 0.769534 4.08718 0 0 0 255 255 255 255
-0.341806 1.10173 4.11681 0 0 0 255 255 255 255
-0.301408 0.752749 4.08531 0 0 0 255 255 255 255
-0.345381 1.13288 3.98314 0 0 0 255 255 255 255
-0.329189 1.1943 4.88088 0 0 0 255 255 255 255
0.416923 0.220962 4.43586 0 0 0 255 255 255 255
0.390856 0.245083 4.41727 0 0 0 255 255 255 255
0.431801 0.30098 4.42972 0 0 0 255 255 255 255
0.494208 0.120331 4.48042 0 0 0 255 255 255 255
0.340051 0.23315 4.57745 0 0 0 255 255 255 255
0.33123 0.182567 4.82166 0 0 0 255 255 255 255
0.400963 0.219058 4.57698 0 0 0 255 255 255 255
0.330875 0.179452 4.83222 0 0 0 255 255 255 255
-0.120708 0.625398 4.24088 0 0 0 255 255 255 255
-0.17456 0.63918 4.18745 0 0 0 255 255 255 255
-0.257497 1.10784 3.97938 0 0 0 255 255 255 255
-0.209533 0.878515 4.21114 0 0 0 255 255 255 255
-0.144262 0.942802 4.28481 0 0 0 255 255 255 255
-0.153967 0.867805 4.23883 0 0 0 255 255 255 255
-0.136642 0.874096 4.23451 0 0 0 255 255 255 255
-0.105962 0.93165 4.29776 0 0 0 255 255 255 255
-0.103165 0.993591 4.28999 0 0 0 255 255 255 255
-0.0877541 1.01534 4.29486 0 0 0 255 255 255 255
-0.044084 0.808715 4.29845 0 0 0 255 255 255 255
0.129348 0.961007 4.3183 0 0 0 255 255 255 255
0.0934641 0.955269 4.44182 0 0 0 255 255 255 255
-0.0437672 0.817292 4.29902 0 0 0 255 255 255 255
-0.0577186 0.978938 4.38932 0 0 0 255 255 255 255
0.0963153 1.06403 4.02494 0 0 0 255 255 255 255
0.129921 1.00277 4.35627 0 0 0 255 255 255 255
0.537184 0.458232 4.15517 0 0 0 255 255 255 255
0.536972 1.04198 4.31979 0 0 0 255 255 255 255
0.560886 0.998533 4.24241 0 0 0 255 255 255 255
0.547766 1.00927 4.32052 0 0 0 255 255 255 255
-0.0625075 0.900853 4.59637 0 0 0 255 255 255 255
-0.154463 1.15028 4.71638 0 0 0 255 255 255 255
-0.156715 1.07114 4.47309 0 0 0 255 255 255 255
-0.0683214 0.903555 4.59212 0 0 0 255 255 255 255
-0.115343 1.06274 4.45299 0 0 0 255 255 255 255
0.127073 1.06518 4.51222 0 0 0 255 255 255 255
-0.195605 0.910873 5.11541 0 0 0 255 255 255 255
0.326026 0.422972 4.48129 0 0 0 255 255 255 255
0.206939 0.764274 4.73933 0 0 0 255 255 255 255
0.280022 0.445872 4.52021 0 0 0 255 255 255 255
0.355116 0.431132 4.48328 0 0 0 255 255 255 255
0.316472 0.426547 4.49276 0 0 0 255 255 255 255
0.208907 0.83441 4.75907 0 0 0 255 255 255 255
0.163934 1.03956 4.51095 0 0 0 255 255 255 255
0.274423 1.16431 4.64026 0 0 0 255 255 255 255
0.165249 1.06282 4.51363 0 0 0 255 255 255 255
0.201448 0.828471 4.83582 0 0 0 255 255 255 255
0.304144 1.0585 4.65804 0 0 0 255 255 255 255
1.02556 0.268889 4.40419 0 0 0 255 255 255 255
0.957362 0.317416 4.19467 0 0 0 255 255 255 255
1.06981 0.303141 4.19743 0 0 0 255 255 255 255
0.960369 0.317697 4.19898 0 0 0 255 255 255 255
0.676129 0.754862 4.43684 0 0 0 255 255 255 255
1.00527 0.411079 4.13788 0 0 0 255 255 255 255
0.911982 1.02147 4.35266 0 0 0 255 255 255 255
0.93301 0.965269 4.42916 0 0 0 255 255 255 255
0.893996 1.01704 4.34689 0 0 0 255 255 255 255
0.858616 0.870767 4.28813 0 0 0 255 255 255 255
0.896076 1.03162 4.32695 0 0 0 255 255 255 255
0.901067 1.02882 4.35266 0 0 0 255 255 255 255
0.677155 0.869962 4.44005 0 0 0 255 255 255 255
0.721606 0.862136 4.23836 0 0 0 255 255 255 255
0.890193 1.0305 4.32861 0 0 0 255 255 255 255
0.899633 1.02301 4.44696 0 0 0 255 255 255 255
0.917234 1.20936 4.39209 0 0 0 255 255 255 255
0.892572 1.02369 4.44459 0 0 0 255 255 255 255
0.906608 1.01895 4.34407 0 0 0 255 255 255 255
1.12498 0.379564 4.20636 0 0 0 255 255 255 255
1.14076 0.42314 4.15628 0 0 0 255 255 255 255
1.17697 0.424159 4.06164 0 0 0 255 255 255 255
1.12292 0.594874 4.21581 0 0 0 255 255 255 255
1.0889 0.688717 4.25381 0 0 0 255 255 255 255
1.12367 0.610341 4.25908 0 0 0 255 255 255 255
1.37605 0.371683 4.20519 0 0 0 255 255 255 255
1.29 0.411779 4.04035 0 0 0 255 255 255 255
1.38304 0.356488 4.2299 0 0 0 255 255 255 255
1.41239 0.402636 4.22348 0 0 0 255 255 255 255
1.37946 0.412046 4.21049 0 0 0 255 255 255 255
1.37913 0.35155 4.23945 0 0 0 255 255 255 255
1.34156 0.438441 4.29046 0 0 0 255 255 255 255
1.37754 0.366045 4.2638 0 0 0 255 255 255 255
1.37713 0.381579 4.285 0 0 0 255 255 255 255
1.36199 0.468677 4.27055 0 0 0 255 255 255 255
1.35978 0.446618 4.29637 0 0 0 255 255 255 255
1.39196 0.346983 4.25417 0 0 0 255 255 255 255
1.29677 0.342595 4.33766 0 0 0 255 255 255 255
1.34312 0.471237 4.24986 0 0 0 255 255 255 255
1.41189 0.573791 4.18129 0 0 0 255 255 255 255
1.46759 0.609672 4.2412 0 0 0 255 255 255 255
1.43074 0.635841 4.25671 0 0 0 255 255 255 255
1.29773 0.940626 3.94359 0 0 0 255 255 255 255
1.29885 0.965342 3.93504 0 0 0 255 255 255 255
1.35744 0.938671 4.03144 0 0 0 255 255 255 255
1.24359 1.17427 4.33145 0 0 0 255 255 255 255
0.788169 1.10359 4.57386 0 0 0 255 255 255 255
1.22195 0.357637 4.57568 0 0 0 255 255 255 255
0.940514 0.683175 5.00471 0 0 0 255 255 255 255
0.718295 0.828417 4.47349 0 0 0 255 255 255 255
1.4075 0.737845 4.55263 0 0 0 255 255 255 255
1.09371 0.731913 4.4893 0 0 0 255 255 255 255
0.993006 1.147 4.71223 0 0 0 255 255 255 255
1.43787 0.725008 4.48107 0 0 0 255 255 255 255
0.665155 0.771344 4.77574 0 0 0 255 255 255 255
1.4687 0.407739 4.5532 0 0 0 255 255 255 255
2.02282 0.225423 4.43211 0 0 0 255 255 255 255
1.77582 0.119628 4.64028 0 0 0 255 255 255 255
2.08716 0.194886 4.57323 0 0 0 255 255 255 255
2.10595 0.193477 4.60226 0 0 0 255 255 255 255
2.08058 0.184862 4.57972 0 0 0 255 255 255 255
1.75517 0.118062 4.63542 0 0 0 255 255 255 255
1.946 0.137058 4.60937 0 0 0 255 255 255 255
1.58559 0.362007 4.19215 0 0 0 255 255 255 255
1.56578 0.349154 4.18363 0 0 0 255 255 255 255
2.36413 1.11248 4.24898 0 0 0 255 255 255 255
1.57958 1.12614 3.69752 0 0 0 255 255 255 255
1.65797 0.372344 4.34974 0 0 0 255 255 255 255
1.63251 0.444015 4.22454 0 0 0 255 255 255 255
1.64314 0.362429 4.14648 0 0 0 255 255 255 255
1.61691 0.469792 3.70724 0 0 0 255 255 255 255
1.61705 0.468651 3.70677 0 0 0 255 255 255 255
1.69027 0.432308 4.3469 0 0 0 255 255 255 255
1.64747 1.10228 3.79215 0 0 0 255 255 255 255
1.54103 0.739745 4.48631 0 0 0 255 255 255 255
1.91484 1.04269 4.85257 0 0 0 255 255 255 255
1.88925 0.84633 4.49382 0 0 0 255 255 255 255
1.92194 1.12852 4.66704 0 0 0 255 255 255 255
1.92237 0.95 4.644 0 0 0 255 255 255 255
1.89525 0.896294 4.5297 0 0 0 255 255 255 255
1.90616 0.803675 4.53265 0 0 0 255 255 255 255
1.90055 0.92951 4.58291 0 0 0 255 255 255 255
1.89767 0.787533 4.46846 0 0 0 255 255 255 255
1.91808 0.988658 4.8097 0 0 0 255 255 255 255
1.91527 0.930723 4.57673 0 0 0 255 255 255 255
1.98696 1.0613 4.67277 0 0 0 255 255 255 255
1.94304 0.988974 4.73267 0 0 0 255 255 255 255
1.95523 0.834606 4.52126 0 0 0 255 255 255 255
1.94551 0.820071 4.51151 0 0 0 255 255 255 255
1.94076 0.850524 4.5315 0 0 0 255 255 255 255
1.93054 0.89382 4.53222 0 0 0 255 255 255 255
1.94458 1.02914 4.70484 0 0 0 255 255 255 255
1.94252 1.01481 4.75706 0 0 0 255 255 255 255
1.93464 1.05725 4.65968 0 0 0 255 255 255 255
1.97168 1.03939 4.7323 0 0 0 255 255 255 255
1.9403 1.02519 4.71489 0 0 0 255 255 255 255
1.9291 0.79147 4.49494 0 0 0 255 255 255 255
1.94147 0.907793 4.64135 0 0 0 255 255 255 255
0.414865 1.48666 3.2835 0 0 0 255 255 255 255
0.439532 1.54126 3.28605 0 0 0 255 255 255 255
0.485048 1.4733 3.32285 0 0 0 255 255 255 255
0.480841 1.58294 3.21366 0 0 0 255 255 255 255
0.44037 2.069 3.05325 0 0 0 255 255 255 255
0.466016 1.69459 2.89795 0 0 0 255 255 255 255
0.505656 1.72908 3.06826 0 0 0 255 255 255 255
0.466149 1.71912 3.02013 0 0 0 255 255 255 255
0.476153 1.74468 2.95872 0 0 0 255 255 255 255
0.492772 1.69972 3.06522 0 0 0 255 255 255 255
0.37845 1.92177 3.12435 0 0 0 255 255 255 255
0.494681 1.9404 2.94518 0 0 0 255 255 255 255
0.44117 2.06864 3.04761 0 0 0 255 255 255 255
0.498744 1.92947 2.87954 0 0 0 255 255 255 255
0.464966 1.69488 2.97443 0 0 0 255 255 255 255
0.340368 1.92912 3.13982 0 0 0 255 255 255 255
0.379166 1.78437 3.1388 0 0 0 255 255 255 255
0.376159 1.92624 3.12852 0 0 0 255 255 255 255
0.467348 1.81537 3.23763 0 0 0 255 255 255 255
0.436145 1.75076 3.37841 0 0 0 255 255 255 255
0.47805 1.79296 3.17273 0 0 0 255 255 255 255
0.480302 1.7973 3.20187 0 0 0 255 255 255 255
0.415127 2.36626 2.50389 0 0 0 255 255 255 255
0.559682 2.69928 2.62715 0 0 0 255 255 255 255
0.397643 2.47962 3.20891 0 0 0 255 255 255 255
0.553888 2.3681 3.10689 0 0 0 255 255 255 255
0.542259 2.38661 3.12393 0 0 0 255 255 255 255
0.502328 2.47202 2.90425 0 0 0 255 255 255 255
0.315734 2.27521 2.89834 0 0 0 255 255 255 255
0.558702 2.39967 3.1421 0 0 0 255 255 255 255
0.539719 2.22875 3.18781 0 0 0 255 255 255 255
-0.361261 1.49111 4.20829 0 0 0 255 255 255 255
-0.30447 1.4408 4.25918 0 0 0 255 255 255 255
-0.366356 1.48779 4.20603 0 0 0 255 255 255 255
-0.432165 1.2126 5.10095 0 0 0 255 255 255 255
0.0242835 1.5277 3.77648 0 0 0 255 255 255 255
-0.0693036 1.23226 4.36883 0 0 0 255 255 255 255
-0.163751 1.35933 4.35573 0 0 0 255 255 255 255
-0.170093 1.30885 4.35555 0 0 0 255 255 255 255
-0.155389 1.35122 4.34784 0 0 0 255 255 255 255
-0.10555 1.55965 4.0238 0 0 0 255 255 255 255
-0.114719 1.55401 4.05563 0 0 0 255 255 255 255
-0.0180852 1.74823 4.00386 0 0 0 255 255 255 255
-0.0226363 1.75463 4.01724 0 0 0 255 255 255 255
-0.0974583 1.83517 4.36252 0 0 0 255 255 255 255
-0.0726987 1.88341 4.1046 0 0 0 255 255 255 255
-0.057548 1.86578 4.06023 0 0 0 255 255 255 255
0.493225 1.54659 4.00643 0 0 0 255 255 255 255
0.498271 1.64823 3.76211 0 0 0 255 255 255 255
0.541223 1.64454 3.76029 0 0 0 255 255 255 255
0.396317 1.5147 4.1273 0 0 0 255 255 255 255
0.436138 1.51843 4.09538 0 0 0 255 255 255 255
0.454403 1.60882 4.24037 0 0 0 255 255 255 255
0.30722 1.54854 4.29602 0 0 0 255 255 255 255
0.386526 1.51317 4.13439 0 0 0 255 255 255 255
0.441118 1.61056 4.2681 0 0 0 255 255 255 255
0.47993 1.53356 4.07038 0 0 0 255 255 255 255
0.522747 1.67829 3.67707 0 0 0 255 255 255 255
0.414056 1.67876 4.42907 0 0 0 255 255 255 255
0.115815 1.44876 4.726 0 0 0 255 255 255 255
0.0940443 1.47532 4.60309 0 0 0 255 255 255 255
0.0968663 1.22025 4.55347 0 0 0 255 255 255 255
0.0218213 1.51351 4.98549 0 0 0 255 255 255 255
0.185353 1.21237 4.53062 0 0 0 255 255 255 255
0.78483 1.77889 3.54816 0 0 0 255 255 255 255
0.708164 1.76639 3.56395 0 0 0 255 255 255 255
1.47543 1.71263 3.4886 0 0 0 255 255 255 255
1.05181 2.33663 2.61305 0 0 0 255 255 255 255
1.30371 2.38282 2.4929 0 0 0 255 255 255 255
1.00956 2.3483 2.67338 0 0 0 255 255 255 255
0.822676 2.43335 2.35833 0 0 0 255 255 255 255
1.35272 2.37775 2.42355 0 0 0 255 255 255 255
1.2995 2.67337 2.64311 0 0 0 255 255 255 255
1.11098 2.1227 3.53905 0 0 0 255 255 255 255
1.16445 2.30339 3.35327 0 0 0 255 255 255 255
1.39708 2.37369 3.26838 0 0 0 255 255 255 255
1.28289 2.36515 3.4409 0 0 0 255 255 255 255
1.46248 2.14583 3.33906 0 0 0 255 255 255 255
0.673072 2.25709 2.99288 0 0 0 255 255 255 255
1.19235 2.28909 3.33456 0 0 0 255 255 255 255
1.13084 2.46459 3.11121 0 0 0 255 255 255 255
1.34813 2.56166 2.81314 0 0 0 255 255 255 255
0.836023 2.34111 3.34066 0 0 0 255 255 255 255
0.722367 2.24567 2.74646 0 0 0 255 255 255 255
1.73934 1.99018 3.53129 0 0 0 255 255 255 255
1.50193 2.74237 2.28696 0 0 0 255 255 255 255
1.55826 2.77666 2.354 0 0 0 255 255 255 255
1.75222 2.85402 2.60329 0 0 0 255 255 255 255
1.92841 2.77359 2.46348 0 0 0 255 255 255 255
1.72657 2.64577 2.6524 0 0 0 255 255 255 255
1.90771 2.10693 3.3841 0 0 0 255 255 255 255
1.081 1.90659 4.24965 0 0 0 255 255 255 255
1.20479 1.83453 4.41356 0 0 0 255 255 255 255
1.19545 1.34356 4.34882 0 0 0 255 255 255 255
1.22724 1.22458 4.26916 0 0 0 255 255 255 255
1.39329 1.59119 3.62997 0 0 0 255 255 255 255
0.90545 1.83194 4.42216 0 0 0 255 255 255 255
0.773259 1.79005 3.91449 0 0 0 255 255 255 255
1.11761 1.8669 4.34381 0 0 0 255 255 255 255
0.795687 1.53511 4.32045 0 0 0 255 255 255 255
1.01429 1.24871 4.29959 0 0 0 255 255 255 255
0.70677 1.76526 3.57406 0 0 0 255 255 255 255
0.960222 1.8556 4.43712 0 0 0 255 255 255 255
1.02292 1.86374 4.08011 0 0 0 255 255 255 255
1.00823 1.83497 4.25306 0 0 0 255 255 255 255
0.985295 1.84345 4.41 0 0 0 255 255 255 255
1.07279 1.8935 4.15405 0 0 0 255 255 255 255
1.12247 1.85136 4.29813 0 0 0 255 255 255 255
0.99393 1.47907 4.62182 0 0 0 255 255 255 255
1.14932 1.94655 4.67248 0 0 0 255 255 255 255
0.904808 1.86439 4.58998 0 0 0 255 255 255 255
1.4675 2.23558 4.17315 0 0 0 255 255 255 255
1.16974 2.43336 3.58735 0 0 0 255 255 255 255
1.43539 2.2711 4.01891 0 0 0 255 255 255 255
1.37702 2.13201 4.55677 0 0 0 255 255 255 255
1.89187 1.57372 4.32538 0 0 0 255 255 255 255
1.89611 1.23179 4.32267 0 0 0 255 255 255 255
1.87233 1.62859 4.39531 0 0 0 255 255 255 255
1.84219 1.29385 4.29028 0 0 0 255 255 255 255
1.80445 2.09106 3.60157 0 0 0 255 255 255 255
1.82758 2.08641 3.65103 0 0 0 255 255 255 255
1.83719 1.91754 4.30199 0 0 0 255 255 255 255
1.84296 1.90086 4.17842 0 0 0 255 255 255 255
1.90009 1.91359 4.35435 0 0 0 255 255 255 255
1.79112 1.69054 4.43098 0 0 0 255 255 255 255
1.87798 1.75912 4.4508 0 0 0 255 255 255 255
2.2973 1.55075 4.3486 0 0 0 255 255 255 255
2.14548 1.28699 4.37128 0 0 0 255 255 255 255
2.32857 1.54983 4.34699 0 0 0 255 255 255 255
2.04934 2.08763 3.86557 0 0 0 255 255 255 255
2.3328 1.76856 4.37865 0 0 0 255 255 255 255
2.35356 1.76759 4.36548 0 0 0 255 255 255 255
1.9704 1.9539 4.11331 0 0 0 255 255 255 255
1.88258 1.63128 4.59939 0 0 0 255 255 255 255
1.91159 1.34384 4.78793 0 0 0 255 255 255 255
1.86943 1.73228 4.82162 0 0 0 255 255 255 255
1.87394 1.68607 4.83839 0 0 0 255 255 255 255
1.81405 1.91044 4.50183 0 0 0 255 255 255 255
1.8837 1.75943 4.47736 0 0 0 255 255 255 255
1.8453 1.8996 4.49517 0 0 0 255 255 255 255
2.13469 1.305 4.57634 0 0 0 255 255 255 255
2.09063 1.21348 4.48349 0 0 0 255 255 255 255
2.24979 1.79432 4.69273 0 0 0 255 255 255 255
1.96223 1.66026 4.76953 0 0 0 255 255 255 255
2.13895 2.30663 3.81838 0 0 0 255 255 255 255
2.06464 2.17765 3.84551 0 0 0 255 255 255 255
2.04559 2.26055 3.9778 0 0 0 255 255 255 255
2.27769 2.34642 3.71313 0 0 0 255 255 255 255
2.2411 2.38158 3.77748 0 0 0 255 255 255 255
2.24877 2.21494 4.27184 0 0 0 255 255 255 255
1.53531 2.25138 3.95594 0 0 0 255 255 255 255
2.21478 2.33032 3.92143 0 0 0 255 255 255 255
2.16972 2.25787 3.82193 0 0 0 255 255 255 255
2.04651 2.18163 3.81452 0 0 0 255 255 255 255
1.94761 2.20534 3.72737 0 0 0 255 255 255 255
2.03552 2.33162 5.1762 0 0 0 255 255 255 255
3.75311 1.05137 3.20711 0 0 0 255 255 255 255
3.66456 0.951701 3.32793 0 0 0 255 255 255 255
3.62488 0.839189 3.35083 0 0 0 255 255 255 255
3.64356 1.14637 3.4988 0 0 0 255 255 255 255
3.66171 1.17039 3.35205 0 0 0 255 255 255 255
3.5739 0.744706 3.43579 0 0 0 255 255 255 255
3.56004 0.729964 3.46078 0 0 0 255 255 255 255
3.54832 0.782413 3.47702 0 0 0 255 255 255 255
3.55685 0.953314 3.55385 0 0 0 255 255 255 255
3.55593 0.951608 3.55428 0 0 0 255 255 255 255
3.99321 0.662009 3.18127 0 0 0 255 255 255 255
3.60937 0.747311 3.36118 0 0 0 255 255 255 255
2.59737 0.711099 4.30502 0 0 0 255 255 255 255
2.65843 0.845768 4.28711 0 0 0 255 255 255 255
3.18794 0.413273 3.9189 0 0 0 255 255 255 255
3.19453 0.548548 3.93665 0 0 0 255 255 255 255
3.22759 0.426707 4.17923 0 0 0 255 255 255 255
3.18587 0.675862 4.03115 0 0 0 255 255 255 255
3.24842 0.485697 4.07746 0 0 0 255 255 255 255
3.24779 0.348092 4.16905 0 0 0 255 255 255 255
3.23784 0.35478 4.13539 0 0 0 255 255 255 255
2.89989 0.773616 4.16661 0 0 0 255 255 255 255
3.13371 1.21006 4.25402 0 0 0 255 255 255 255
3.21115 1.18329 4.37314 0 0 0 255 255 255 255
3.48002 0.28649 4.43381 0 0 0 255 255 255 255
3.47434 0.289412 4.42127 0 0 0 255 255 255 255
3.66962 0.767112 3.57309 0 0 0 255 255 255 255
3.59 0.719602 3.71425 0 0 0 255 255 255 255
3.5668 0.601208 3.79339 0 0 0 255 255 255 255
3.56431 0.580454 3.80632 0 0 0 255 255 255 255
3.40038 0.635351 3.75123 0 0 0 255 255 255 255
3.66846 0.37468 4.2618 0 0 0 255 255 255 255
3.26094 0.663395 4.11407 0 0 0 255 255 255 255
3.25184 0.428846 4.13737 0 0 0 255 255 255 255
3.2667 0.406827 4.19557 0 0 0 255 255 255 255
3.27234 0.454612 4.11485 0 0 0 255 255 255 255
3.27906 0.545536 4.18092 0 0 0 255 255 255 255
3.28401 0.333279 4.40149 0 0 0 255 255 255 255
3.34264 0.354567 4.39101 0 0 0 255 255 255 255
3.30405 0.406238 4.06556 0 0 0 255 255 255 255
3.28405 0.544926 4.17901 0 0 0 255 255 255 255
3.65225 0.350857 4.1724 0 0 0 255 255 255 255
3.27187 0.459163 4.10728 0 0 0 255 255 255 255
3.46829 0.799721 3.63747 0 0 0 255 255 255 255
3.67268 0.862482 3.66104 0 0 0 255 255 255 255
3.57617 0.803387 3.73994 0 0 0 255 255 255 255
3.67245 0.815957 3.60293 0 0 0 255 255 255 255
3.57505 0.798007 3.69603 0 0 0 255 255 255 255
3.67644 0.828909 3.6622 0 0 0 255 255 255 255
3.66656 0.908426 3.76816 0 0 0 255 255 255 255
3.64392 0.919246 3.78559 0 0 0 255 255 255 255
3.58119 0.938403 3.82635 0 0 0 255 255 255 255
3.60835 0.877862 3.81602 0 0 0 255 255 255 255
3.66211 1.05692 3.69142 0 0 0 255 255 255 255
3.6753 1.06015 3.68058 0 0 0 255 255 255 255
3.46971 1.05721 4.20372 0 0 0 255 255 255 255
3.48218 1.02797 4.22676 0 0 0 255 255 255 255
3.48565 1.03038 4.22926 0 0 0 255 255 255 255
3.62468 1.11964 4.07222 0 0 0 255 255 255 255
3.56729 1.10148 4.10874 0 0 0 255 255 255 255
3.5035 1.0751 4.15954 0 0 0 255 255 255 255
3.61395 1.09747 4.09315 0 0 0 255 255 255 255
3.64937 1.11529 4.07247 0 0 0 255 255 255 255
3.54259 1.04496 4.18447 0 0 0 255 255 255 255
3.63495 1.10001 4.08833 0 0 0 255 255 255 255
3.48875 1.06715 4.18528 0 0 0 255 255 255 255
3.77725 0.422748 3.91898 0 0 0 255 255 255 255
3.71794 0.745435 3.60417 0 0 0 255 255 255 255
3.99048 0.468493 3.98297 0 0 0 255 255 255 255
3.7673 0.40049 4.00237 0 0 0 255 255 255 255
3.75679 0.457397 3.93082 0 0 0 255 255 255 255
3.76706 0.386003 4.10482 0 0 0 255 255 255 255
3.78324 0.388193 4.08108 0 0 0 255 255 255 255
3.76905 1.17234 3.59346 0 0 0 255 255 255 255
3.72356 1.16816 3.64646 0 0 0 255 255 255 255
3.7421 1.15776 3.74069 0 0 0 255 255 255 255
3.73667 0.771719 3.60401 0 0 0 255 255 255 255
3.69127 1.13925 3.69615 0 0 0 255 255 255 255
3.77143 1.0698 3.72252 0 0 0 255 255 255 255
3.73177 1.06797 3.6431 0 0 0 255 255 255 255
3.73112 1.05261 3.63445 0 0 0 255 255 255 255
3.73879 0.954887 3.61013 0 0 0 255 255 255 255
3.92472 1.18626 4.42755 0 0 0 255 255 255 255
3.55695 0.338084 4.48732 0 0 0 255 255 255 255
4.27772 0.780849 3.5221 0 0 0 255 255 255 255
4.29694 0.772089 3.53657 0 0 0 255 255 255 255
4.46567 0.839125 3.74168 0 0 0 255 255 255 255
4.36378 0.960665 3.64676 0 0 0 255 255 255 255
4.15762 1.16773 3.57209 0 0 0 255 255 255 255
3.98661 -0.272975 8.81876 0 0 0 255 255 255 255
4.13375 -0.0440319 8.53514 0 0 0 255 255 255 255
3.61591 -0.0434009 7.97647 0 0 0 255 255 255 255
4.31007 -0.351517 8.82715 0 0 0 255 255 255 255
3.66542 -0.0384727 8.06524 0 0 0 255 255 255 255
4.30262 -0.322918 8.86379 0 0 0 255 255 255 255
3.57076 -0.0647429 7.95337 0 0 0 255 255 255 255
4.30454 -0.323138 8.86037 0 0 0 255 255 255 255
3.81744 -0.136947 8.5174 0 0 0 255 255 255 255
2.5863 2.42832 3.26425 0 0 0 255 255 255 255
2.59685 2.40289 3.25416 0 0 0 255 255 255 255
2.72824 2.71668 2.80071 0 0 0 255 255 255 255
2.9742 2.43318 3.27578 0 0 0 255 255 255 255
2.96245 2.46346 3.27088 0 0 0 255 255 255 255
2.6749 2.7142 2.72309 0 0 0 255 255 255 255
3.22871 2.33504 3.36113 0 0 0 255 255 255 255
2.99863 2.58114 3.1706 0 0 0 255 255 255 255
3.67757 1.41667 3.50005 0 0 0 255 255 255 255
3.68146 1.50478 3.49631 0 0 0 255 255 255 255
3.82364 1.82271 3.53936 0 0 0 255 255 255 255
3.82889 1.82401 3.53814 0 0 0 255 255 255 255
3.81741 1.80188 3.53475 0 0 0 255 255 255 255
3.83695 1.81061 3.52416 0 0 0 255 255 255 255
3.40255 2.488 3.52425 0 0 0 255 255 255 255
2.5587 1.36034 4.22387 0 0 0 255 255 255 255
2.41161 1.40518 4.39776 0 0 0 255 255 255 255
2.50949 1.41352 4.31046 0 0 0 255 255 255 255
2.49624 1.61989 4.28678 0 0 0 255 255 255 255
2.43527 1.49881 4.29787 0 0 0 255 255 255 255
2.46522 1.5568 4.42017 0 0 0 255 255 255 255
2.36681 1.5845 4.33634 0 0 0 255 255 255 255
2.41264 1.60321 4.44284 0 0 0 255 255 255 255
2.66667 1.35478 4.18683 0 0 0 255 255 255 255
2.63053 1.38156 4.18838 0 0 0 255 255 255 255
2.62261 1.27954 4.37431 0 0 0 255 255 255 255
2.62202 1.28476 4.38493 0 0 0 255 255 255 255
2.59609 1.21624 4.37037 0 0 0 255 255 255 255
2.62777 1.54319 4.353 0 0 0 255 255 255 255
2.62928 1.60782 4.23792 0 0 0 255 255 255 255
2.67646 1.52693 4.3648 0 0 0 255 255 255 255
2.63599 1.57715 4.26766 0 0 0 255 255 255 255
2.66924 1.59995 4.31489 0 0 0 255 255 255 255
2.48545 1.72723 4.3193 0 0 0 255 255 255 255
2.50355 1.72287 4.3704 0 0 0 255 255 255 255
2.45931 1.77145 4.34094 0 0 0 255 255 255 255
2.4365 1.67629 4.36717 0 0 0 255 255 255 255
2.69912 1.837 4.23588 0 0 0 255 255 255 255
2.92513 1.53692 3.91472 0 0 0 255 255 255 255
2.92325 1.54756 3.92625 0 0 0 255 255 255 255
3.09963 1.29515 4.16254 0 0 0 255 255 255 255
3.09087 1.21783 4.21979 0 0 0 255 255 255 255
2.85935 1.62122 4.12643 0 0 0 255 255 255 255
3.18572 1.29608 4.32725 0 0 0 255 255 255 255
2.88983 1.37983 4.06692 0 0 0 255 255 255 255
3.2215 1.33845 4.3509 0 0 0 255 255 255 255
3.09123 1.31958 4.21005 0 0 0 255 255 255 255
2.99581 1.64077 4.18226 0 0 0 255 255 255 255
2.97597 1.34417 4.02573 0 0 0 255 255 255 255
2.92158 1.37956 4.16059 0 0 0 255 255 255 255
2.88783 1.88003 4.19527 0 0 0 255 255 255 255
3.06161 2.07646 4.33546 0 0 0 255 255 255 255
3.07783 2.03577 4.36122 0 0 0 255 255 255 255
3.01883 1.68737 4.1328 0 0 0 255 255 255 255
2.91803 1.89619 4.26748 0 0 0 255 255 255 255
3.04591 2.00573 4.19713 0 0 0 255 255 255 255
2.9166 1.80658 4.2411 0 0 0 255 255 255 255
2.84772 1.87022 4.18055 0 0 0 255 255 255 255
3.05857 2.02736 4.27279 0 0 0 255 255 255 255
3.01027 2.01068 4.17589 0 0 0 255 255 255 255
3.02581 1.9965 4.12888 0 0 0 255 255 255 255
2.45661 1.59309 4.46419 0 0 0 255 255 255 255
2.39352 1.47995 4.54574 0 0 0 255 255 255 255
3.19324 2.04492 4.4879 0 0 0 255 255 255 255
3.09053 1.66069 4.61632 0 0 0 255 255 255 255
3.00452 1.86186 4.63861 0 0 0 255 255 255 255
2.98027 2.13529 4.24358 0 0 0 255 255 255 255
2.95155 2.12133 4.23847 0 0 0 255 255 255 255
3.10645 2.12117 4.33078 0 0 0 255 255 255 255
2.97972 2.14893 4.26974 0 0 0 255 255 255 255
3.00438 2.14715 4.30123 0 0 0 255 255 255 255
3.15464 2.16602 4.35116 0 0 0 255 255 255 255
2.41203 2.28428 4.07905 0 0 0 255 255 255 255
3.63411 1.38259 3.58594 0 0 0 255 255 255 255
3.60933 1.50671 3.97284 0 0 0 255 255 255 255
3.59907 1.45825 4.09226 0 0 0 255 255 255 255
3.34826 1.64216 4.22887 0 0 0 255 255 255 255
3.4488 1.30798 4.12243 0 0 0 255 255 255 255
3.37324 1.59913 4.16674 0 0 0 255 255 255 255
3.35559 1.63868 4.22541 0 0 0 255 255 255 255
3.42806 1.26703 4.19924 0 0 0 255 255 255 255
3.61108 1.82598 3.71603 0 0 0 255 255 255 255
3.57696 1.8198 3.84435 0 0 0 255 255 255 255
3.63882 1.86049 3.94345 0 0 0 255 255 255 255
3.43042 1.99543 4.14366 0 0 0 255 255 255 255
3.35272 1.94186 4.25663 0 0 0 255 255 255 255
3.40652 1.95137 4.21105 0 0 0 255 255 255 255
3.41198 2.00259 4.14368 0 0 0 255 255 255 255
3.36965 1.9724 4.16088 0 0 0 255 255 255 255
3.35495 1.93748 4.2616 0 0 0 255 255 255 255
3.33004 1.94725 4.19011 0 0 0 255 255 255 255
3.66095 1.78154 4.09582 0 0 0 255 255 255 255
3.3566 1.95343 4.24625 0 0 0 255 255 255 255
3.32492 1.69429 4.23286 0 0 0 255 255 255 255
3.46383 2.01903 4.08469 0 0 0 255 255 255 255
3.48053 1.98932 4.10195 0 0 0 255 255 255 255
3.33319 1.74032 4.16505 0 0 0 255 255 255 255
3.32612 1.98466 4.23294 0 0 0 255 255 255 255
3.4226 2.01664 4.1049 0 0 0 255 255 255 255
3.40942 1.96125 4.22121 0 0 0 255 255 255 255
3.33113 1.72305 4.23088 0 0 0 255 255 255 255
3.73642 1.42614 3.69373 0 0 0 255 255 255 255
3.77893 1.6053 3.71872 0 0 0 255 255 255 255
3.82376 1.45325 3.81787 0 0 0 255 255 255 255
3.78177 1.5985 3.69096 0 0 0 255 255 255 255
4.12398 1.22166 3.57338 0 0 0 255 255 255 255
3.78475 1.59211 3.69202 0 0 0 255 255 255 255
3.72873 1.52573 3.65511 0 0 0 255 255 255 255
3.72019 1.70673 3.65587 0 0 0 255 255 255 255
3.54373 2.23598 4.05413 0 0 0 255 255 255 255
3.47123 2.26887 4.10226 0 0 0 255 255 255 255
3.49892 2.15421 3.69102 0 0 0 255 255 255 255
3.84979 2.41849 3.6601 0 0 0 255 255 255 255
3.35805 2.11004 4.17435 0 0 0 255 255 255 255
3.52259 2.21673 4.00341 0 0 0 255 255 255 255
3.65065 2.26425 3.99343 0 0 0 255 255 255 255
3.38963 2.20988 4.13337 0 0 0 255 255 255 255
3.63391 2.24328 4.03321 0 0 0 255 255 255 255
3.64018 2.1104 3.95369 0 0 0 255 255 255 255
3.29747 2.47552 3.74199 0 0 0 255 255 255 255
3.44735 2.22798 4.11486 0 0 0 255 255 255 255
5.22775 2.20091 4.75287 0 0 0 255 255 255 255
4.16531 1.21787 3.60025 0 0 0 255 255 255 255
-0.305914 1.01292 4.14477 0 0 0 255 255 255 255
-0.303649 0.883397 4.11536 0 0 0 255 255 255 255
-0.337808 1.10431 3.94634 0 0 0 255 255 255 255
-0.308306 1.12196 3.98738 0 0 0 255 255 255 255
-0.366869 1.12549 4.09191 0 0 0 255 255 255 255
-0.323776 1.11569 4.11716 0 0 0 255 255 255 255
-0.303502 1.09952 3.93451 0 0 0 255 255 255 255
-0.365819 1.12876 4.09108 0 0 0 255 255 255 255
-0.330107 1.19613 4.89336 0 0 0 255 255 255 255
0.451738 0.224064 4.43701 0 0 0 255 255 255 255
0.413242 0.221996 4.43265 0 0 0 255 255 255 255
0.435613 0.249538 4.43991 0 0 0 255 255 255 255
0.427325 0.212329 4.47961 0 0 0 255 255 255 255
0.435593 0.21985 4.45474 0 0 0 255 255 255 255
0.286189 0.224597 4.67728 0 0 0 255 255 255 255
0.497372 0.0891666 4.4926 0 0 0 255 255 255 255
0.327482 0.181865 4.82467 0 0 0 255 255 255 255
-0.16602 0.601982 4.16266 0 0 0 255 255 255 255
-0.130101 0.686913 4.24345 0 0 0 255 255 255 255
-0.207212 0.871482 4.21497 0 0 0 255 255 255 255
-0.125294 0.808933 4.24544 0 0 0 255 255 255 255
-0.122727 0.813982 4.24374 0 0 0 255 255 255 255
-0.0620259 0.97999 4.39379 0 0 0 255 255 255 255
-0.0899198 1.01317 4.29178 0 0 0 255 255 255 255
-0.127692 1.01335 4.27638 0 0 0 255 255 255 255
0.0984462 0.77102 4.20226 0 0 0 255 255 255 255
0.0691714 0.984386 4.16762 0 0 0 255 255 255 255
-0.032396 0.81613 4.29923 0 0 0 255 255 255 255
0.143265 0.961127 4.32378 0 0 0 255 255 255 255
-0.028304 1.05603 4.35076 0 0 0 255 255 255 255
0.00511321 1.08147 4.36791 0 0 0 255 255 255 255
0.23693 0.453292 4.44027 0 0 0 255 255 255 255
0.207023 0.479817 4.44585 0 0 0 255 255 255 255
0.53376 0.446578 4.15815 0 0 0 255 255 255 255
0.245324 0.447841 4.44222 0 0 0 255 255 255 255
0.163788 1.02863 4.44479 0 0 0 255 255 255 255
0.262152 0.825245 4.25472 0 0 0 255 255 255 255
-0.0110631 0.710989 5.27979 0 0 0 255 255 255 255
-0.0601124 0.983601 4.68513 0 0 0 255 255 255 255
0.143904 0.938131 4.69811 0 0 0 255 255 255 255
0.0451881 0.939662 4.52658 0 0 0 255 255 255 255
-0.0691228 0.905427 4.57613 0 0 0 255 255 255 255
-0.00374031 1.08155 4.61316 0 0 0 255 255 255 255
0.195261 0.418788 4.47024 0 0 0 255 255 255 255
0.339248 0.446646 4.46819 0 0 0 255 255 255 255
0.499385 0.82463 4.88328 0 0 0 255 255 255 255
0.288831 1.14722 4.63071 0 0 0 255 255 255 255
0.36744 1.13608 4.55119 0 0 0 255 255 255 255
0.19494 1.10995 4.55973 0 0 0 255 255 255 255
0.240613 0.948195 4.54012 0 0 0 255 255 255 255
1.11121 0.304619 4.41025 0 0 0 255 255 255 255
0.96402 0.319304 4.20423 0 0 0 255 255 255 255
0.988204 0.286161 4.21251 0 0 0 255 255 255 255
0.975109 0.240726 4.42721 0 0 0 255 255 255 255
0.682549 0.768307 4.42925 0 0 0 255 255 255 255
0.675921 0.765234 4.43702 0 0 0 255 255 255 255
0.748276 0.732176 4.39268 0 0 0 255 255 255 255
0.974272 0.371126 4.14711 0 0 0 255 255 255 255
0.680412 0.861613 4.32096 0 0 0 255 255 255 255
0.673971 0.866625 4.35501 0 0 0 255 255 255 255
0.675059 0.866724 4.44128 0 0 0 255 255 255 255
0.807996 1.02825 4.3467 0 0 0 255 255 255 255
1.02056 1.0475 4.19593 0 0 0 255 255 255 255
0.932403 1.18481 4.26155 0 0 0 255 255 255 255
0.87957 1.00686 4.3892 0 0 0 255 255 255 255
0.936534 1.16544 4.25483 0 0 0 255 255 255 255
1.12223 0.355401 4.22098 0 0 0 255 255 255 255
1.12558 0.544109 4.22507 0 0 0 255 255 255 255
1.20028 0.373516 4.16201 0 0 0 255 255 255 255
1.06342 0.404483 4.19666 0 0 0 255 255 255 255
1.12416 0.372563 4.19908 0 0 0 255 255 255 255
1.12935 0.390728 4.20576 0 0 0 255 255 255 255
1.15117 0.390948 4.24852 0 0 0 255 255 255 255
1.08864 0.723693 4.15328 0 0 0 255 255 255 255
1.09165 0.730179 4.27993 0 0 0 255 255 255 255
1.07976 0.7126 4.3404 0 0 0 255 255 255 255
1.39291 0.370799 4.26634 0 0 0 255 255 255 255
1.43094 0.35176 4.31238 0 0 0 255 255 255 255
1.43362 0.634665 4.18592 0 0 0 255 255 255 255
1.28059 0.623443 4.16 0 0 0 255 255 255 255
1.39792 0.601951 4.25523 0 0 0 255 255 255 255
1.44036 1.19834 3.71109 0 0 0 255 255 255 255
1.24933 1.17244 4.31277 0 0 0 255 255 255 255
1.23962 1.18066 4.33632 0 0 0 255 255 255 255
1.02616 1.14206 4.61233 0 0 0 255 255 255 255
1.47102 0.730017 4.53213 0 0 0 255 255 255 255
0.936472 0.685276 5.06538 0 0 0 255 255 255 255
0.938479 0.831552 4.4804 0 0 0 255 255 255 255
0.788952 0.844564 4.68178 0 0 0 255 255 255 255
0.660777 0.724589 4.4536 0 0 0 255 255 255 255
0.635069 0.783006 5.05038 0 0 0 255 255 255 255
1.9422 0.13154 4.61625 0 0 0 255 255 255 255
2.00921 0.153304 4.74778 0 0 0 255 255 255 255
1.93808 0.148532 4.60612 0 0 0 255 255 255 255
1.71978 0.112595 4.65486 0 0 0 255 255 255 255
1.91842 0.141236 4.48373 0 0 0 255 255 255 255
1.73577 0.121644 4.59714 0 0 0 255 255 255 255
1.71317 0.115066 4.64025 0 0 0 255 255 255 255
2.08623 0.188307 4.5854 0 0 0 255 255 255 255
1.93895 0.14862 4.48701 0 0 0 255 255 255 255
1.61256 0.399759 4.13709 0 0 0 255 255 255 255
1.626 0.421839 4.22598 0 0 0 255 255 255 255
1.63062 0.416831 4.14329 0 0 0 255 255 255 255
1.5726 0.377521 4.23911 0 0 0 255 255 255 255
1.68257 0.432305 4.29955 0 0 0 255 255 255 255
1.6311 0.411061 4.3523 0 0 0 255 255 255 255
1.61705 0.434288 4.34274 0 0 0 255 255 255 255
1.88395 0.972661 4.10118 0 0 0 255 255 255 255
1.76528 0.968156 4.29408 0 0 0 255 255 255 255
1.86672 0.977828 4.09324 0 0 0 255 255 255 255
1.70208 1.01403 4.11219 0 0 0 255 255 255 255
1.48522 0.751718 4.62447 0 0 0 255 255 255 255
1.90511 0.853459 4.49445 0 0 0 255 255 255 255
1.9134 0.852728 4.62483 0 0 0 255 255 255 255
1.89912 1.08617 4.72522 0 0 0 255 255 255 255
1.90452 0.88663 4.61525 0 0 0 255 255 255 255
1.92517 1.10385 4.6172 0 0 0 255 255 255 255
1.92061 1.04429 4.80193 0 0 0 255 255 255 255
1.92382 1.09346 4.72775 0 0 0 255 255 255 255
1.7011 0.871306 5.24049 0 0 0 255 255 255 255
1.94856 0.792935 4.51565 0 0 0 255 255 255 255
1.9409 0.91931 4.64247 0 0 0 255 255 255 255
1.9275 1.11863 4.60956 0 0 0 255 255 255 255
1.95308 1.02859 4.77234 0 0 0 255 255 255 255
2.00121 1.03518 4.59957 0 0 0 255 255 255 255
1.94164 0.946606 4.59219 0 0 0 255 255 255 255
1.94242 1.02163 4.78385 0 0 0 255 255 255 255
-0.0723327 0.67742 5.62953 0 0 0 255 255 255 255
0.448135 1.5966 3.11524 0 0 0 255 255 255 255
0.449328 1.58914 3.08914 0 0 0 255 255 255 255
0.347025 1.6351 3.13043 0 0 0 255 255 255 255
0.423419 1.49167 3.32596 0 0 0 255 255 255 255
0.446047 1.54348 3.28862 0 0 0 255 255 255 255
0.40049 1.49532 3.35568 0 0 0 255 255 255 255
0.508165 1.50145 3.37658 0 0 0 255 255 255 255
0.509323 1.77422 3.06315 0 0 0 255 255 255 255
0.506113 1.73135 3.06542 0 0 0 255 255 255 255
0.500247 1.76198 3.06174 0 0 0 255 255 255 255
0.487008 1.8111 3.10933 0 0 0 255 255 255 255
0.486639 1.66835 3.05994 0 0 0 255 255 255 255
0.464833 1.68295 2.97488 0 0 0 255 255 255 255
0.464681 1.69635 2.90817 0 0 0 255 255 255 255
0.494758 1.79035 2.89762 0 0 0 255 255 255 255
0.493246 1.93742 2.95604 0 0 0 255 255 255 255
0.484165 1.78493 3.10123 0 0 0 255 255 255 255
0.487902 1.92605 2.76248 0 0 0 255 255 255 255
0.355414 1.93595 3.1483 0 0 0 255 255 255 255
0.480635 1.79187 3.18285 0 0 0 255 255 255 255
0.477973 1.79171 3.17339 0 0 0 255 255 255 255
0.451347 1.91049 3.35151 0 0 0 255 255 255 255
0.442607 1.93461 3.35695 0 0 0 255 255 255 255
0.46395 1.9027 3.38292 0 0 0 255 255 255 255
0.509193 2.19058 2.66153 0 0 0 255 255 255 255
0.581613 2.43091 2.43878 0 0 0 255 255 255 255
0.561751 2.41788 2.4235 0 0 0 255 255 255 255
0.402476 2.35946 2.49784 0 0 0 255 255 255 255
0.314916 2.2546 2.90304 0 0 0 255 255 255 255
0.256682 2.30691 2.70294 0 0 0 255 255 255 255
0.367703 2.34924 2.87167 0 0 0 255 255 255 255
0.600329 2.13462 3.19372 0 0 0 255 255 255 255
0.198445 2.62208 3.20675 0 0 0 255 255 255 255
-0.395255 1.4618 4.46251 0 0 0 255 255 255 255
-0.207674 1.24879 4.34581 0 0 0 255 255 255 255
-0.110791 1.22638 4.35206 0 0 0 255 255 255 255
-0.216895 1.25967 4.34109 0 0 0 255 255 255 255
0.061373 1.48252 4.18905 0 0 0 255 255 255 255
0.0393741 1.47966 4.30807 0 0 0 255 255 255 255
0.055072 1.75495 3.57801 0 0 0 255 255 255 255
-0.123785 1.86654 4.42139 0 0 0 255 255 255 255
-0.120524 1.9798 4.25613 0 0 0 255 255 255 255
-0.0534938 1.91937 4.07218 0 0 0 255 255 255 255
-0.102441 1.94431 4.22192 0 0 0 255 255 255 255
-0.0287595 1.76016 4.02653 0 0 0 255 255 255 255
0.422753 1.47732 4.00627 0 0 0 255 255 255 255
0.446959 1.47276 3.91763 0 0 0 255 255 255 255
0.515364 1.59958 4.07114 0 0 0 255 255 255 255
0.5109 1.58895 4.0781 0 0 0 255 255 255 255
0.435397 1.61904 4.35206 0 0 0 255 255 255 255
0.426983 1.6293 4.44534 0 0 0 255 255 255 255
0.295494 1.56526 4.21945 0 0 0 255 255 255 255
0.382781 1.54549 4.44418 0 0 0 255 255 255 255
0.500919 1.56629 4.09544 0 0 0 255 255 255 255
0.521056 1.60863 4.03085 0 0 0 255 255 255 255
0.385803 1.54825 4.43606 0 0 0 255 255 255 255
0.526132 1.65846 3.73595 0 0 0 255 255 255 255
0.427747 1.65928 4.41913 0 0 0 255 255 255 255
0.426573 1.65582 4.41197 0 0 0 255 255 255 255
0.502439 1.68442 4.15686 0 0 0 255 255 255 255
0.397808 1.68524 4.38992 0 0 0 255 255 255 255
0.415727 1.69632 4.43547 0 0 0 255 255 255 255
0.418301 1.68194 4.43496 0 0 0 255 255 255 255
0.114706 1.45389 4.60322 0 0 0 255 255 255 255
0.0809721 1.21351 4.55883 0 0 0 255 255 255 255
0.184081 1.22562 4.52756 0 0 0 255 255 255 255
0.272356 1.25147 4.57515 0 0 0 255 255 255 255
0.375528 1.61042 4.47936 0 0 0 255 255 255 255
0.407784 1.51719 4.59358 0 0 0 255 255 255 255
0.919384 2.6309 2.47639 0 0 0 255 255 255 255
0.988177 2.58373 2.582 0 0 0 255 255 255 255
1.29838 2.51835 2.34033 0 0 0 255 255 255 255
1.30787 2.58064 2.04266 0 0 0 255 255 255 255
0.643961 2.29138 2.89667 0 0 0 255 255 255 255
0.67942 2.25514 2.99094 0 0 0 255 255 255 255
0.819622 2.45227 3.15763 0 0 0 255 255 255 255
0.706818 2.38329 3.31756 0 0 0 255 255 255 255
0.844952 2.19843 3.22224 0 0 0 255 255 255 255
0.965388 2.28277 3.37303 0 0 0 255 255 255 255
0.83722 2.33475 3.34719 0 0 0 255 255 255 255
0.928673 2.60455 2.82439 0 0 0 255 255 255 255
0.710678 2.59007 3.53772 0 0 0 255 255 255 255
1.10725 2.42378 3.05124 0 0 0 255 255 255 255
1.06514 2.44385 3.08257 0 0 0 255 255 255 255
1.09495 2.46606 3.09617 0 0 0 255 255 255 255
1.17553 2.29166 3.32253 0 0 0 255 255 255 255
1.17727 2.30549 3.33917 0 0 0 255 255 255 255
1.19452 2.18635 3.48125 0 0 0 255 255 255 255
1.09323 2.34014 3.26027 0 0 0 255 255 255 255
1.38512 2.37173 3.22466 0 0 0 255 255 255 255
1.11738 2.85794 2.6894 0 0 0 255 255 255 255
1.55758 2.45745 1.97856 0 0 0 255 255 255 255
1.69548 2.51179 2.38675 0 0 0 255 255 255 255
1.61178 2.70365 2.19451 0 0 0 255 255 255 255
1.61075 2.70342 2.19661 0 0 0 255 255 255 255
1.73791 2.41759 2.77706 0 0 0 255 255 255 255
1.8692 2.17483 3.38974 0 0 0 255 255 255 255
2.04927 2.19381 3.33421 0 0 0 255 255 255 255
1.00651 1.25577 4.30988 0 0 0 255 255 255 255
1.02774 1.42281 4.42351 0 0 0 255 255 255 255
0.764608 1.78856 3.90928 0 0 0 255 255 255 255
1.02162 1.91646 4.29616 0 0 0 255 255 255 255
1.12838 1.29032 4.29309 0 0 0 255 255 255 255
1.40437 2.01251 3.94588 0 0 0 255 255 255 255
1.1416 1.87877 4.3975 0 0 0 255 255 255 255
0.905933 1.89369 4.62535 0 0 0 255 255 255 255
1.16534 1.8581 4.46778 0 0 0 255 255 255 255
0.823348 1.93876 4.4544 0 0 0 255 255 255 255
0.898127 1.83414 4.5687 0 0 0 255 255 255 255
1.37072 2.29326 3.69185 0 0 0 255 255 255 255
1.08095 2.25168 3.81691 0 0 0 255 255 255 255
1.48067 2.12235 3.59705 0 0 0 255 255 255 255
1.66141 1.51447 3.7844 0 0 0 255 255 255 255
1.84014 1.26909 4.32106 0 0 0 255 255 255 255
1.84076 1.26261 4.18438 0 0 0 255 255 255 255
1.85273 1.26892 4.19093 0 0 0 255 255 255 255
1.86734 1.26897 4.35243 0 0 0 255 255 255 255
1.60037 2.08828 3.60154 0 0 0 255 255 255 255
1.81725 1.67636 4.33056 0 0 0 255 255 255 255
1.8764 1.88088 4.33977 0 0 0 255 255 255 255
1.79348 1.9326 4.39392 0 0 0 255 255 255 255
2.33557 1.55606 4.30917 0 0 0 255 255 255 255
2.34977 1.52072 4.42627 0 0 0 255 255 255 255
2.34451 1.48149 4.31772 0 0 0 255 255 255 255
1.93782 2.08813 3.73647 0 0 0 255 255 255 255
2.26672 1.9603 3.90831 0 0 0 255 255 255 255
2.0321 1.66656 4.26211 0 0 0 255 255 255 255
2.11018 1.97542 4.25399 0 0 0 255 255 255 255
2.2145 1.7465 4.43438 0 0 0 255 255 255 255
2.22393 1.73884 4.42937 0 0 0 255 255 255 255
2.06185 1.69096 4.42371 0 0 0 255 255 255 255
1.87555 1.32054 4.71396 0 0 0 255 255 255 255
1.90367 1.3916 4.70493 0 0 0 255 255 255 255
1.9197 1.24283 4.66523 0 0 0 255 255 255 255
1.89201 1.58715 4.66271 0 0 0 255 255 255 255
1.8778 1.32034 4.73462 0 0 0 255 255 255 255
1.90622 1.35406 4.68618 0 0 0 255 255 255 255
1.87694 1.91868 4.50538 0 0 0 255 255 255 255
1.87672 1.7878 4.56969 0 0 0 255 255 255 255
1.82296 1.79812 4.82716 0 0 0 255 255 255 255
1.87435 1.89496 4.46215 0 0 0 255 255 255 255
1.84453 1.76096 4.8161 0 0 0 255 255 255 255
1.88357 1.94608 4.51599 0 0 0 255 255 255 255
1.82735 1.72558 4.53669 0 0 0 255 255 255 255
1.83814 1.90329 4.47252 0 0 0 255 255 255 255
1.85258 1.74716 4.49731 0 0 0 255 255 255 255
1.80661 1.9381 4.46031 0 0 0 255 255 255 255
1.97415 1.36088 4.69605 0 0 0 255 255 255 255
1.9842 1.34611 4.82922 0 0 0 255 255 255 255
2.27983 1.21299 4.45476 0 0 0 255 255 255 255
2.20099 1.78602 4.66806 0 0 0 255 255 255 255
1.85482 2.26714 3.95864 0 0 0 255 255 255 255
1.57121 2.12646 3.72222 0 0 0 255 255 255 255
1.89903 2.2106 4.3889 0 0 0 255 255 255 255
1.98344 2.18989 3.78782 0 0 0 255 255 255 255
2.0736 2.16248 3.84603 0 0 0 255 255 255 255
2.09781 2.17043 3.8674 0 0 0 255 255 255 255
2.09209 2.17795 3.85078 0 0 0 255 255 255 255
2.12869 2.27634 3.98931 0 0 0 255 255 255 255
2.33905 2.16935 4.32002 0 0 0 255 255 255 255
2.16523 2.18327 4.36833 0 0 0 255 255 255 255
1.96617 2.22349 4.09233 0 0 0 255 255 255 255
3.56757 0.713551 3.43539 0 0 0 255 255 255 255
3.57591 0.730951 3.43531 0 0 0 255 255 255 255
3.54612 0.751077 3.46659 0 0 0 255 255 255 255
3.54366 0.682192 3.39301 0 0 0 255 255 255 255
3.51303 0.769031 3.56565 0 0 0 255 255 255 255
3.56739 0.713538 3.43501 0 0 0 255 255 255 255
3.51662 0.823144 3.55574 0 0 0 255 255 255 255
3.60871 0.988559 3.47469 0 0 0 255 255 255 255
3.55025 0.940708 3.55541 0 0 0 255 255 255 255
3.57745 0.97335 3.55609 0 0 0 255 255 255 255
3.75399 0.759101 3.5688 0 0 0 255 255 255 255
3.75338 0.758224 3.56436 0 0 0 255 255 255 255
3.72192 0.798421 3.56856 0 0 0 255 255 255 255
3.75052 1.09918 3.19759 0 0 0 255 255 255 255
3.70447 1.04016 3.25663 0 0 0 255 255 255 255
3.92683 0.818734 3.13155 0 0 0 255 255 255 255
2.57628 1.20373 4.37842 0 0 0 255 255 255 255
3.19431 0.613122 4.00576 0 0 0 255 255 255 255
3.19216 0.443477 3.91863 0 0 0 255 255 255 255
3.18871 0.581097 3.95169 0 0 0 255 255 255 255
3.18857 0.43058 3.98562 0 0 0 255 255 255 255
3.18946 0.468499 3.92406 0 0 0 255 255 255 255
3.21988 0.661368 4.0383 0 0 0 255 255 255 255
3.20086 0.44797 4.09241 0 0 0 255 255 255 255
3.19686 0.456064 4.08482 0 0 0 255 255 255 255
3.23081 1.19793 4.31021 0 0 0 255 255 255 255
3.23831 1.19913 4.32054 0 0 0 255 255 255 255
2.99319 0.779872 4.94517 0 0 0 255 255 255 255
2.99791 0.794584 4.99932 0 0 0 255 255 255 255
3.43788 0.302505 4.38344 0 0 0 255 255 255 255
3.43894 0.297123 4.39045 0 0 0 255 255 255 255
3.67251 0.7613 3.58441 0 0 0 255 255 255 255
3.58914 0.695657 3.71358 0 0 0 255 255 255 255
3.59368 0.654552 3.70506 0 0 0 255 255 255 255
3.64411 0.662496 3.68638 0 0 0 255 255 255 255
3.61536 0.650394 3.7163 0 0 0 255 255 255 255
3.64904 0.380057 4.31086 0 0 0 255 255 255 255
3.25948 0.429465 4.13447 0 0 0 255 255 255 255
3.5744 0.349438 4.11103 0 0 0 255 255 255 255
3.33064 0.353674 4.38584 0 0 0 255 255 255 255
3.28119 0.361366 4.3701 0 0 0 255 255 255 255
3.49144 0.356325 4.09009 0 0 0 255 255 255 255
3.66356 0.381754 4.25156 0 0 0 255 255 255 255
3.56671 0.331203 4.38515 0 0 0 255 255 255 255
3.26967 0.346467 4.27689 0 0 0 255 255 255 255
3.67578 0.909265 3.67877 0 0 0 255 255 255 255
3.59701 0.809104 3.731 0 0 0 255 255 255 255
3.57557 0.799476 3.73479 0 0 0 255 255 255 255
3.49004 0.875387 3.81201 0 0 0 255 255 255 255
3.58347 0.892231 3.82004 0 0 0 255 255 255 255
3.58194 0.901742 3.82284 0 0 0 255 255 255 255
3.59059 0.940497 3.8193 0 0 0 255 255 255 255
3.64643 1.04264 3.68533 0 0 0 255 255 255 255
3.65189 1.04716 3.91463 0 0 0 255 255 255 255
3.65609 1.01462 3.97173 0 0 0 255 255 255 255
3.65869 1.00977 3.97301 0 0 0 255 255 255 255
3.45631 1.06413 4.18855 0 0 0 255 255 255 255
3.5186 1.01922 4.21791 0 0 0 255 255 255 255
3.52169 1.03909 4.19361 0 0 0 255 255 255 255
3.51414 1.08679 4.1472 0 0 0 255 255 255 255
3.54664 1.09837 4.1222 0 0 0 255 255 255 255
3.50871 1.09012 4.14503 0 0 0 255 255 255 255
3.54606 1.08141 4.15032 0 0 0 255 255 255 255
3.71786 0.746918 3.57608 0 0 0 255 255 255 255
3.79183 0.405001 3.99065 0 0 0 255 255 255 255
3.76647 0.406679 3.99578 0 0 0 255 255 255 255
3.75986 0.762044 3.59173 0 0 0 255 255 255 255
3.76688 0.463248 3.84189 0 0 0 255 255 255 255
3.74729 0.454059 3.95066 0 0 0 255 255 255 255
3.99117 0.434858 3.99129 0 0 0 255 255 255 255
3.69366 0.745283 3.64198 0 0 0 255 255 255 255
3.71082 0.341495 4.32525 0 0 0 255 255 255 255
3.70951 0.43382 4.04713 0 0 0 255 255 255 255
3.73739 0.817371 3.57347 0 0 0 255 255 255 255
3.7277 0.789801 3.58244 0 0 0 255 255 255 255
3.73943 1.05547 3.71017 0 0 0 255 255 255 255
3.72897 1.08011 3.70305 0 0 0 255 255 255 255
3.71723 1.1507 3.74987 0 0 0 255 255 255 255
3.70039 1.14463 3.76232 0 0 0 255 255 255 255
4.27289 0.773125 3.51296 0 0 0 255 255 255 255
4.18334 0.585368 3.56219 0 0 0 255 255 255 255
4.17823 1.03293 3.54916 0 0 0 255 255 255 255
4.38719 1.02603 3.70754 0 0 0 255 255 255 255
4.45197 0.832195 3.72742 0 0 0 255 255 255 255
4.18671 0.545731 3.68574 0 0 0 255 255 255 255
4.35524 0.957251 3.64169 0 0 0 255 255 255 255
3.19176 -0.104169 8.00224 0 0 0 255 255 255 255
4.3934 -0.0388274 8.6557 0 0 0 255 255 255 255
3.15432 -0.118981 7.92133 0 0 0 255 255 255 255
3.30664 -0.352662 8.10212 0 0 0 255 255 255 255
4.12441 -0.436499 8.46551 0 0 0 255 255 255 255
3.34803 -0.357058 8.12935 0 0 0 255 255 255 255
3.70575 -0.0693317 8.16192 0 0 0 255 255 255 255
3.31436 -0.311455 8.11445 0 0 0 255 255 255 255
2.49108 1.60668 2.62674 0 0 0 255 255 255 255
2.53916 2.44723 3.23378 0 0 0 255 255 255 255
2.5507 2.43649 3.25846 0 0 0 255 255 255 255
2.59799 2.43979 3.27718 0 0 0 255 255 255 255
2.96428 2.47687 3.26006 0 0 0 255 255 255 255
3.13966 2.35315 3.22613 0 0 0 255 255 255 255
3.14814 2.34348 3.25982 0 0 0 255 255 255 255
3.96517 1.44526 3.55655 0 0 0 255 255 255 255
3.88012 1.38102 3.47188 0 0 0 255 255 255 255
3.88556 1.41249 3.45237 0 0 0 255 255 255 255
3.87592 1.37961 3.47415 0 0 0 255 255 255 255
3.85632 1.84352 3.44562 0 0 0 255 255 255 255
3.82351 1.80477 3.53008 0 0 0 255 255 255 255
2.51026 1.31283 4.23419 0 0 0 255 255 255 255
2.46514 1.40123 4.26435 0 0 0 255 255 255 255
2.38534 1.40025 4.29342 0 0 0 255 255 255 255
2.43845 1.53235 4.30524 0 0 0 255 255 255 255
2.42235 1.56969 4.31723 0 0 0 255 255 255 255
2.54151 1.64546 4.36161 0 0 0 255 255 255 255
2.4976 1.62991 4.28387 0 0 0 255 255 255 255
2.64723 1.3598 4.16452 0 0 0 255 255 255 255
2.60755 1.31406 4.39442 0 0 0 255 255 255 255
2.64905 1.36769 4.27006 0 0 0 255 255 255 255
2.72733 1.33092 4.36177 0 0 0 255 255 255 255
2.6142 1.53743 4.21193 0 0 0 255 255 255 255
2.6821 1.59997 4.11327 0 0 0 255 255 255 255
2.6197 1.57809 4.2389 0 0 0 255 255 255 255
2.65914 1.57851 4.37631 0 0 0 255 255 255 255
2.65695 1.56008 4.36865 0 0 0 255 255 255 255
2.64067 1.50274 4.23875 0 0 0 255 255 255 255
2.64837 1.58241 4.33609 0 0 0 255 255 255 255
2.60576 1.52678 4.25659 0 0 0 255 255 255 255
2.6462 1.53933 4.32428 0 0 0 255 255 255 255
2.6763 1.5299 4.36702 0 0 0 255 255 255 255
2.71958 1.83792 4.33541 0 0 0 255 255 255 255
2.4697 1.7028 4.28679 0 0 0 255 255 255 255
2.63649 1.83145 4.28206 0 0 0 255 255 255 255
2.71088 1.85823 4.32847 0 0 0 255 255 255 255
2.62011 1.82706 4.28546 0 0 0 255 255 255 255
2.49102 1.79278 4.32628 0 0 0 255 255 255 255
2.70597 1.86705 4.34661 0 0 0 255 255 255 255
2.43845 2.06266 4.03645 0 0 0 255 255 255 255
2.39022 1.77683 4.34959 0 0 0 255 255 255 255
2.50018 1.73524 4.30859 0 0 0 255 255 255 255
2.51456 1.73249 4.39645 0 0 0 255 255 255 255
2.40861 1.65354 4.31852 0 0 0 255 255 255 255
2.9908 1.35648 4.13971 0 0 0 255 255 255 255
2.93177 1.37286 4.15957 0 0 0 255 255 255 255
3.01297 1.41154 4.10659 0 0 0 255 255 255 255
2.93138 1.39131 4.11723 0 0 0 255 255 255 255
2.95084 1.36557 4.03533 0 0 0 255 255 255 255
2.99337 1.34979 4.14198 0 0 0 255 255 255 255
2.95125 1.22014 4.43155 0 0 0 255 255 255 255
2.95129 1.56749 4.06788 0 0 0 255 255 255 255
2.89243 1.59147 4.11002 0 0 0 255 255 255 255
3.01894 1.49178 4.16054 0 0 0 255 255 255 255
3.08059 1.27879 4.14944 0 0 0 255 255 255 255
3.17421 1.22117 4.25884 0 0 0 255 255 255 255
3.13414 1.28979 4.2595 0 0 0 255 255 255 255
3.16425 1.30044 4.27944 0 0 0 255 255 255 255
3.22045 1.34888 4.34578 0 0 0 255 255 255 255
3.13647 1.21249 4.25588 0 0 0 255 255 255 255
3.03555 1.46392 4.12017 0 0 0 255 255 255 255
3.042 2.07474 4.23453 0 0 0 255 255 255 255
2.89935 1.89328 4.24593 0 0 0 255 255 255 255
2.98287 1.65298 4.26172 0 0 0 255 255 255 255
3.03629 2.05861 4.24223 0 0 0 255 255 255 255
2.90007 1.88557 4.26171 0 0 0 255 255 255 255
2.91454 1.82789 4.3665 0 0 0 255 255 255 255
3.07924 2.08186 4.31152 0 0 0 255 255 255 255
3.04605 2.08771 4.2476 0 0 0 255 255 255 255
2.48045 1.62488 4.56438 0 0 0 255 255 255 255
3.18797 2.04861 4.50338 0 0 0 255 255 255 255
2.48491 1.616 4.53846 0 0 0 255 255 255 255
2.96909 1.93571 4.48936 0 0 0 255 255 255 255
2.54239 1.43114 4.51681 0 0 0 255 255 255 255
2.4917 1.69923 4.50606 0 0 0 255 255 255 255
2.41398 2.20832 4.39373 0 0 0 255 255 255 255
2.59656 2.2123 4.23972 0 0 0 255 255 255 255
2.51077 2.17896 4.34526 0 0 0 255 255 255 255
2.71133 2.239 4.4099 0 0 0 255 255 255 255
3.02204 2.16801 4.34638 0 0 0 255 255 255 255
3.07545 2.1071 4.26584 0 0 0 255 255 255 255
3.1219 2.13743 4.33659 0 0 0 255 255 255 255
3.13439 2.17456 4.33974 0 0 0 255 255 255 255
3.07754 2.13446 4.27704 0 0 0 255 255 255 255
3.10026 2.1339 4.3172 0 0 0 255 255 255 255
3.11758 2.12884 4.55666 0 0 0 255 255 255 255
3.10647 2.12076 4.55785 0 0 0 255 255 255 255
3.10912 2.1252 4.55927 0 0 0 255 255 255 255
3.39689 1.235 4.13047 0 0 0 255 255 255 255
3.42518 1.29946 4.12595 0 0 0 255 255 255 255
3.40062 1.38821 4.12688 0 0 0 255 255 255 255
3.43178 1.26192 4.20315 0 0 0 255 255 255 255
3.37505 1.26368 4.14599 0 0 0 255 255 255 255
3.35509 1.58068 4.20539 0 0 0 255 255 255 255
3.53537 1.32341 4.2721 0 0 0 255 255 255 255
3.53797 1.31677 4.2878 0 0 0 255 255 255 255
3.4768 1.58109 4.05792 0 0 0 255 255 255 255
3.47787 1.57932 4.05885 0 0 0 255 255 255 255
3.59601 1.54667 4.1898 0 0 0 255 255 255 255
3.574 1.83789 3.84226 0 0 0 255 255 255 255
3.61554 1.82992 3.70929 0 0 0 255 255 255 255
3.65932 1.90107 3.61527 0 0 0 255 255 255 255
3.41666 1.68958 3.85852 0 0 0 255 255 255 255
3.32366 1.74725 4.24417 0 0 0 255 255 255 255
3.31988 1.918 4.17798 0 0 0 255 255 255 255
3.35431 1.93909 4.25976 0 0 0 255 255 255 255
3.42562 2.01269 4.10513 0 0 0 255 255 255 255
3.4865 2.0151 4.09255 0 0 0 255 255 255 255
3.31878 1.96223 4.20392 0 0 0 255 255 255 255
3.47969 1.99896 4.09829 0 0 0 255 255 255 255
3.43762 1.99153 4.13593 0 0 0 255 255 255 255
3.31369 1.93665 4.16645 0 0 0 255 255 255 255
3.8381 1.44392 3.83152 0 0 0 255 255 255 255
3.75999 1.63158 3.70388 0 0 0 255 255 255 255
3.78447 1.59295 3.69087 0 0 0 255 255 255 255
3.7706 1.60412 3.71098 0 0 0 255 255 255 255
3.7052 1.66666 3.63194 0 0 0 255 255 255 255
3.74136 1.73288 3.71953 0 0 0 255 255 255 255
3.74728 1.73264 3.72836 0 0 0 255 255 255 255
3.62257 2.23569 3.96915 0 0 0 255 255 255 255
3.59768 2.22375 3.91062 0 0 0 255 255 255 255
3.64196 2.10549 3.95913 0 0 0 255 255 255 255
3.62818 2.22914 3.91763 0 0 0 255 255 255 255
3.55853 2.28616 3.93439 0 0 0 255 255 255 255
3.56036 2.28166 3.94664 0 0 0 255 255 255 255
3.5019 2.24224 4.19132 0 0 0 255 255 255 255
3.47673 2.23316 4.13178 0 0 0 255 255 255 255
3.37246 2.23117 4.24537 0 0 0 255 255 255 255
3.47802 2.23291 4.13162 0 0 0 255 255 255 255
3.49271 2.26454 4.05262 0 0 0 255 255 255 255
3.70406 2.37441 4.04681 0 0 0 255 255 255 255
5.13319 2.08623 4.90979 0 0 0 255 255 255 255
4.66418 1.92545 4.32072 0 0 0 255 255 255 255
5.00178 2.03124 4.75067 0 0 0 255 255 255 255
4.97298 2.10831 4.74198 0 0 0 255 255 255 255
5.08394 2.06979 4.85492 0 0 0 255 255 255 255
