ply
format ascii 1.0
comment VCGLIB generated
element vertex 966
property float x
property float y
property float z
property float nx
property float ny
property float nz
property uchar red
property uchar green
property uchar blue
property uchar alpha
element face 0
property list uchar int vertex_indices
end_header
3.96948 0.524817 3.62872 0 0 0 0 128 128 255
3.95099 0.521048 3.63571 0 0 0 0 128 128 255
3.90006 0.597226 3.66564 0 0 0 0 128 128 255
3.85777 0.758588 3.70255 0 0 0 0 128 128 255
3.8563 0.756944 3.70294 0 0 0 0 128 128 255
3.9202 0.966413 3.70294 0 0 0 0 128 128 255
3.856 0.759126 3.70333 0 0 0 0 128 128 255
3.91961 0.967639 3.70333 0 0 0 0 128 128 255
3.91698 0.965307 3.70411 0 0 0 0 128 128 255
3.83249 0.77048 3.71421 0 0 0 0 128 128 255
3.82107 0.758283 3.71732 0 0 0 0 128 128 255
3.8196 0.759777 3.7181 0 0 0 0 128 128 255
3.83564 0.815522 3.71848 0 0 0 0 128 128 255
3.83534 0.817704 3.71887 0 0 0 0 128 128 255
3.82337 0.784765 3.71965 0 0 0 0 128 128 255
3.80905 0.747312 3.72082 0 0 0 0 128 128 255
3.80788 0.746624 3.7212 0 0 0 0 128 128 255
3.82247 0.794449 3.7212 0 0 0 0 128 128 255
3.84168 0.879545 3.72392 0 0 0 0 128 128 255
3.82063 0.832646 3.72664 0 0 0 0 128 128 255
3.83639 0.884296 3.72664 0 0 0 0 128 128 255
3.84949 0.943029 3.72859 0 0 0 0 128 128 255
3.83314 0.892605 3.72898 0 0 0 0 128 128 255
3.85007 0.948081 3.72898 0 0 0 0 128 128 255
3.82057 0.867167 3.73092 0 0 0 0 128 128 255
3.84738 0.970855 3.73286 0 0 0 0 128 128 255
3.81323 0.865223 3.73364 0 0 0 0 128 128 255
3.85642 1.00678 3.73364 0 0 0 0 128 128 255
3.81293 0.870544 3.73442 0 0 0 0 128 128 255
3.77147 0.747276 3.73597 0 0 0 0 128 128 255
3.77086 0.761055 3.73791 0 0 0 0 128 128 255
3.76296 0.744645 3.73908 0 0 0 0 128 128 255
3.82715 0.958209 3.73947 0 0 0 0 128 128 255
3.79358 0.85449 3.74025 0 0 0 0 128 128 255
3.72673 0.651147 3.74219 0 0 0 0 128 128 255
3.82126 0.967324 3.74297 0 0 0 0 128 128 255
3.81772 0.974676 3.7453 0 0 0 0 128 128 255
3.7188 0.653567 3.74569 0 0 0 0 128 128 255
3.80458 0.937911 3.74607 0 0 0 0 128 128 255
3.78561 0.878878 3.74646 0 0 0 0 128 128 255
3.76488 0.817244 3.74724 0 0 0 0 128 128 255
3.80513 0.958654 3.74841 0 0 0 0 128 128 255
3.71087 0.655987 3.74918 0 0 0 0 128 128 255
3.86404 1.16442 3.74996 0 0 0 0 128 128 255
3.70675 0.658287 3.75113 0 0 0 0 128 128 255
3.8684 1.18818 3.75113 0 0 0 0 128 128 255
3.7546 0.818289 3.75151 0 0 0 0 128 128 255
3.70732 0.669615 3.75229 0 0 0 0 128 128 255
3.73533 0.761438 3.75229 0 0 0 0 128 128 255
3.75021 0.810218 3.75229 0 0 0 0 128 128 255
3.83337 1.08282 3.75229 0 0 0 0 128 128 255
3.83336 1.08595 3.75268 0 0 0 0 128 128 255
3.70468 0.667284 3.75307 0 0 0 0 128 128 255
3.85171 1.16504 3.75501 0 0 0 0 128 128 255
3.79275 0.981248 3.75618 0 0 0 0 128 128 255
3.75277 0.853348 3.75657 0 0 0 0 128 128 255
3.81521 1.06117 3.75695 0 0 0 0 128 128 255
3.83913 1.14274 3.75734 0 0 0 0 128 128 255
3.85079 1.18728 3.75812 0 0 0 0 128 128 255
3.85166 1.19015 3.75812 0 0 0 0 128 128 255
3.67688 0.620354 3.75851 0 0 0 0 128 128 255
3.68358 0.645491 3.7589 0 0 0 0 128 128 255
3.68444 0.654637 3.75967 0 0 0 0 128 128 255
3.76702 0.925322 3.75967 0 0 0 0 128 128 255
3.68384 0.662139 3.76084 0 0 0 0 128 128 255
3.77021 0.945258 3.76084 0 0 0 0 128 128 255
3.84258 1.18247 3.76084 0 0 0 0 128 128 255
3.74102 0.859025 3.76201 0 0 0 0 128 128 255
3.67448 0.647224 3.76278 0 0 0 0 128 128 255
3.65988 0.602538 3.76317 0 0 0 0 128 128 255
3.66105 0.606364 3.76317 0 0 0 0 128 128 255
3.67535 0.653231 3.76317 0 0 0 0 128 128 255
3.79116 1.04551 3.76473 0 0 0 0 128 128 255
3.72695 0.844497 3.76589 0 0 0 0 128 128 255
3.66713 0.651556 3.76628 0 0 0 0 128 128 255
3.71702 0.815115 3.76628 0 0 0 0 128 128 255
3.72081 0.830687 3.76667 0 0 0 0 128 128 255
3.82936 1.1865 3.76667 0 0 0 0 128 128 255
3.65953 0.632964 3.76706 0 0 0 0 128 128 255
3.83166 1.21298 3.769 0 0 0 0 128 128 255
3.78701 1.06978 3.76939 0 0 0 0 128 128 255
3.81735 1.16925 3.76939 0 0 0 0 128 128 255
3.82902 1.20751 3.76939 0 0 0 0 128 128 255
3.82552 1.19917 3.76978 0 0 0 0 128 128 255
3.73476 0.904843 3.77017 0 0 0 0 128 128 255
3.74234 0.93285 3.77056 0 0 0 0 128 128 255
3.81558 1.17293 3.77056 0 0 0 0 128 128 255
3.64195 0.613235 3.77172 0 0 0 0 128 128 255
3.64311 0.623338 3.7725 0 0 0 0 128 128 255
3.7391 0.93802 3.7725 0 0 0 0 128 128 255
3.65068 0.654483 3.77328 0 0 0 0 128 128 255
3.68919 0.787015 3.77405 0 0 0 0 128 128 255
3.81903 1.21265 3.77405 0 0 0 0 128 128 255
3.80006 1.15362 3.77444 0 0 0 0 128 128 255
3.81115 1.18996 3.77444 0 0 0 0 128 128 255
3.63023 0.600082 3.77483 0 0 0 0 128 128 255
3.69646 0.82348 3.77561 0 0 0 0 128 128 255
3.80821 1.18981 3.77561 0 0 0 0 128 128 255
3.63955 0.643243 3.77638 0 0 0 0 128 128 255
3.69557 0.826887 3.77638 0 0 0 0 128 128 255
3.79886 1.16862 3.77677 0 0 0 0 128 128 255
3.62786 0.614398 3.77755 0 0 0 0 128 128 255
3.62694 0.630359 3.77988 0 0 0 0 128 128 255
3.80055 1.2026 3.78027 0 0 0 0 128 128 255
3.64764 0.707684 3.78105 0 0 0 0 128 128 255
3.72497 0.961152 3.78105 0 0 0 0 128 128 255
3.61321 0.597957 3.78144 0 0 0 0 128 128 255
3.71621 0.935596 3.78144 0 0 0 0 128 128 255
3.72321 0.96169 3.78182 0 0 0 0 128 128 255
3.62457 0.644675 3.7826 0 0 0 0 128 128 255
3.61698 0.622945 3.78299 0 0 0 0 128 128 255
3.64702 0.724601 3.78338 0 0 0 0 128 128 255
3.60528 0.597239 3.78454 0 0 0 0 128 128 255
3.67152 0.81436 3.78454 0 0 0 0 128 128 255
3.69865 0.906451 3.78493 0 0 0 0 128 128 255
3.73657 1.03707 3.78571 0 0 0 0 128 128 255
3.60204 0.605547 3.78688 0 0 0 0 128 128 255
3.69833 0.921187 3.78688 0 0 0 0 128 128 255
3.74093 1.06083 3.78688 0 0 0 0 128 128 255
3.60377 0.617563 3.78765 0 0 0 0 128 128 255
3.60843 0.639143 3.78843 0 0 0 0 128 128 255
3.70705 0.965573 3.78882 0 0 0 0 128 128 255
3.61979 0.685861 3.7896 0 0 0 0 128 128 255
3.58915 0.588568 3.78998 0 0 0 0 128 128 255
3.60461 0.6424 3.79037 0 0 0 0 128 128 255
3.59322 0.608236 3.79076 0 0 0 0 128 128 255
3.72919 1.0571 3.79115 0 0 0 0 128 128 255
3.62151 0.71043 3.79193 0 0 0 0 128 128 255
3.75077 1.13415 3.79193 0 0 0 0 128 128 255
3.58386 0.590182 3.79232 0 0 0 0 128 128 255
3.58503 0.594008 3.79232 0 0 0 0 128 128 255
3.72684 1.05886 3.79232 0 0 0 0 128 128 255
3.63667 0.766443 3.7927 0 0 0 0 128 128 255
3.67196 0.888454 3.79348 0 0 0 0 128 128 255
3.75774 1.1728 3.79387 0 0 0 0 128 128 255
3.65503 0.839255 3.79426 0 0 0 0 128 128 255
3.65327 0.836654 3.79465 0 0 0 0 128 128 255
3.64159 0.804672 3.79542 0 0 0 0 128 128 255
3.67398 0.910841 3.79542 0 0 0 0 128 128 255
3.61211 0.711205 3.79581 0 0 0 0 128 128 255
3.71072 1.04077 3.79659 0 0 0 0 128 128 255
3.67045 0.915055 3.79737 0 0 0 0 128 128 255
3.74223 1.15035 3.79737 0 0 0 0 128 128 255
3.58348 0.6363 3.79815 0 0 0 0 128 128 255
3.64037 0.825952 3.79853 0 0 0 0 128 128 255
3.57909 0.631367 3.79931 0 0 0 0 128 128 255
3.57849 0.635731 3.80009 0 0 0 0 128 128 255
3.7378 1.16425 3.80087 0 0 0 0 128 128 255
3.62574 0.800096 3.80125 0 0 0 0 128 128 255
3.64937 0.883848 3.80203 0 0 0 0 128 128 255
3.70335 1.0608 3.80203 0 0 0 0 128 128 255
3.62075 0.802666 3.80359 0 0 0 0 128 128 255
3.62191 0.806492 3.80359 0 0 0 0 128 128 255
3.63037 0.837368 3.80397 0 0 0 0 128 128 255
3.6747 0.992168 3.80514 0 0 0 0 128 128 255
3.55711 0.609844 3.80553 0 0 0 0 128 128 255
3.71465 1.13576 3.80669 0 0 0 0 128 128 255
3.64783 0.919863 3.80708 0 0 0 0 128 128 255
3.6055 0.790588 3.80825 0 0 0 0 128 128 255
3.63146 0.881992 3.80903 0 0 0 0 128 128 255
3.60403 0.795221 3.80941 0 0 0 0 128 128 255
3.64838 0.940606 3.80941 0 0 0 0 128 128 255
3.66556 1.01587 3.81175 0 0 0 0 128 128 255
3.65913 0.997964 3.81213 0 0 0 0 128 128 255
3.5675 0.700767 3.81252 0 0 0 0 128 128 255
3.63491 0.921714 3.81252 0 0 0 0 128 128 255
3.69003 1.11504 3.81408 0 0 0 0 128 128 255
3.69499 1.1313 3.81408 0 0 0 0 128 128 255
3.77144 1.3819 3.81408 0 0 0 0 128 128 255
3.62904 0.921415 3.81485 0 0 0 0 128 128 255
3.64683 0.97976 3.81485 0 0 0 0 128 128 255
3.59956 0.827948 3.81524 0 0 0 0 128 128 255
3.62989 0.936837 3.81641 0 0 0 0 128 128 255
3.60886 0.877385 3.81757 0 0 0 0 128 128 255
3.65 1.01225 3.81757 0 0 0 0 128 128 255
3.6917 1.16158 3.81913 0 0 0 0 128 128 255
3.54785 0.693172 3.81952 0 0 0 0 128 128 255
3.60912 0.894033 3.81952 0 0 0 0 128 128 255
3.68645 1.1475 3.81952 0 0 0 0 128 128 255
3.60211 0.874216 3.81991 0 0 0 0 128 128 255
3.65025 1.03517 3.82029 0 0 0 0 128 128 255
3.63682 0.994314 3.82068 0 0 0 0 128 128 255
3.54607 0.699986 3.82107 0 0 0 0 128 128 255
3.58137 0.818859 3.82146 0 0 0 0 128 128 255
3.75294 1.38127 3.82146 0 0 0 0 128 128 255
3.75002 1.37484 3.82185 0 0 0 0 128 128 255
3.61638 0.939914 3.82224 0 0 0 0 128 128 255
3.66365 1.09486 3.82224 0 0 0 0 128 128 255
3.6721 1.12574 3.82263 0 0 0 0 128 128 255
3.57667 0.819247 3.8234 0 0 0 0 128 128 255
3.63182 1.00316 3.82379 0 0 0 0 128 128 255
3.67588 1.14759 3.82379 0 0 0 0 128 128 255
3.60205 0.908738 3.82418 0 0 0 0 128 128 255
3.68374 1.17969 3.82457 0 0 0 0 128 128 255
3.60291 0.921022 3.82535 0 0 0 0 128 128 255
3.55854 0.781913 3.82612 0 0 0 0 128 128 255
3.58538 0.873048 3.82651 0 0 0 0 128 128 255
3.61981 0.989051 3.8269 0 0 0 0 128 128 255
3.64753 1.07992 3.8269 0 0 0 0 128 128 255
3.75782 1.44461 3.82729 0 0 0 0 128 128 255
3.63117 1.03263 3.82768 0 0 0 0 128 128 255
3.5591 0.799518 3.82807 0 0 0 0 128 128 255
3.65771 1.12595 3.82846 0 0 0 0 128 128 255
3.52873 0.709458 3.82923 0 0 0 0 128 128 255
3.58533 0.901293 3.83001 0 0 0 0 128 128 255
3.64865 1.10885 3.83001 0 0 0 0 128 128 255
3.59494 0.939133 3.83079 0 0 0 0 128 128 255
3.63052 1.06524 3.83195 0 0 0 0 128 128 255
3.56836 0.867785 3.83273 0 0 0 0 128 128 255
3.59549 0.959876 3.83312 0 0 0 0 128 128 255
3.58177 0.91806 3.83351 0 0 0 0 128 128 255
3.52574 0.737553 3.8339 0 0 0 0 128 128 255
3.56804 0.88252 3.83467 0 0 0 0 128 128 255
3.61093 1.02312 3.83467 0 0 0 0 128 128 255
3.58087 0.927743 3.83506 0 0 0 0 128 128 255
3.512 0.705152 3.83545 0 0 0 0 128 128 255
3.53535 0.78167 3.83545 0 0 0 0 128 128 255
3.63834 1.12559 3.83623 0 0 0 0 128 128 255
3.71304 1.37045 3.83623 0 0 0 0 128 128 255
3.48774 0.647732 3.83817 0 0 0 0 128 128 255
3.63072 1.11641 3.83817 0 0 0 0 128 128 255
3.6313 1.12146 3.83856 0 0 0 0 128 128 255
3.53033 0.793655 3.83895 0 0 0 0 128 128 255
3.57876 0.958708 3.83972 0 0 0 0 128 128 255
3.61173 1.06993 3.84011 0 0 0 0 128 128 255
3.63827 1.16011 3.8405 0 0 0 0 128 128 255
3.54751 0.868917 3.84128 0 0 0 0 128 128 255
3.59676 1.06508 3.84555 0 0 0 0 128 128 255
3.57662 1.00536 3.84633 0 0 0 0 128 128 255
3.60518 1.11793 3.84866 0 0 0 0 128 128 255
3.59052 1.10463 3.85294 0 0 0 0 128 128 255
3.51669 0.865774 3.85332 0 0 0 0 128 128 255
3.44578 0.636487 3.85371 0 0 0 0 128 128 255
3.58174 1.08848 3.85449 0 0 0 0 128 128 255
3.50616 0.843894 3.85488 0 0 0 0 128 128 255
3.57269 1.06511 3.85527 0 0 0 0 128 128 255
3.55254 1.00539 3.85605 0 0 0 0 128 128 255
3.50818 0.866281 3.85682 0 0 0 0 128 128 255
3.50817 0.869419 3.85721 0 0 0 0 128 128 255
3.51487 0.897695 3.85799 0 0 0 0 128 128 255
3.50348 0.86353 3.85838 0 0 0 0 128 128 255
3.58518 1.13448 3.85877 0 0 0 0 128 128 255
3.57232 1.10181 3.85993 0 0 0 0 128 128 255
3.57465 1.1126 3.86032 0 0 0 0 128 128 255
3.51218 0.923608 3.86226 0 0 0 0 128 128 255
3.56237 1.08812 3.86226 0 0 0 0 128 128 255
3.56469 1.09891 3.86265 0 0 0 0 128 128 255
3.52617 0.978934 3.86343 0 0 0 0 128 128 255
3.56293 1.09945 3.86343 0 0 0 0 128 128 255
3.48061 0.851691 3.86615 0 0 0 0 128 128 255
3.52262 0.989424 3.86615 0 0 0 0 128 128 255
3.55443 1.09368 3.86615 0 0 0 0 128 128 255
3.51239 0.968501 3.8677 0 0 0 0 128 128 255
3.53862 1.06714 3.86926 0 0 0 0 128 128 255
3.50418 0.963687 3.87042 0 0 0 0 128 128 255
3.51233 0.996745 3.8712 0 0 0 0 128 128 255
3.49888 0.968439 3.87314 0 0 0 0 128 128 255
3.50559 0.993576 3.87353 0 0 0 0 128 128 255
3.53681 1.09592 3.87353 0 0 0 0 128 128 255
3.65875 1.51142 3.87547 0 0 0 0 128 128 255
3.42997 0.767815 3.87625 0 0 0 0 128 128 255
3.65433 1.5159 3.87781 0 0 0 0 128 128 255
3.51921 1.08561 3.87936 0 0 0 0 128 128 255
3.46931 0.925185 3.87975 0 0 0 0 128 128 255
3.47077 0.929967 3.87975 0 0 0 0 128 128 255
3.45498 0.894009 3.88169 0 0 0 0 128 128 255
3.43775 0.846991 3.88286 0 0 0 0 128 128 255
3.50248 1.0813 3.88558 0 0 0 0 128 128 255
3.45696 0.935226 3.88597 0 0 0 0 128 128 255
3.41842 0.821523 3.88752 0 0 0 0 128 128 255
3.44756 0.936001 3.88985 0 0 0 0 128 128 255
3.44551 0.932444 3.89024 0 0 0 0 128 128 255
3.41516 0.839247 3.89102 0 0 0 0 128 128 255
3.45251 0.961676 3.89102 0 0 0 0 128 128 255
3.44256 0.941709 3.89257 0 0 0 0 128 128 255
3.47698 1.06085 3.89335 0 0 0 0 128 128 255
3.47199 1.06028 3.89529 0 0 0 0 128 128 255
3.40892 0.87565 3.89801 0 0 0 0 128 128 255
3.69895 1.82953 3.8984 0 0 0 0 128 128 255
3.45703 1.0523 3.90034 0 0 0 0 128 128 255
3.41355 0.912922 3.90073 0 0 0 0 128 128 255
3.61603 1.58927 3.90229 0 0 0 0 128 128 255
3.61222 1.58625 3.90345 0 0 0 0 128 128 255
3.40883 0.922725 3.90384 0 0 0 0 128 128 255
3.41174 0.935428 3.90423 0 0 0 0 128 128 255
3.57307 1.48319 3.90656 0 0 0 0 128 128 255
3.5827 1.51476 3.90656 0 0 0 0 128 128 255
3.56693 1.46938 3.90734 0 0 0 0 128 128 255
3.43591 1.04306 3.90773 0 0 0 0 128 128 255
3.41806 1.01296 3.91123 0 0 0 0 128 128 255
3.41776 1.01514 3.91161 0 0 0 0 128 128 255
3.41423 1.01622 3.91317 0 0 0 0 128 128 255
3.55167 1.46672 3.91317 0 0 0 0 128 128 255
3.56421 1.50785 3.91317 0 0 0 0 128 128 255
3.54171 1.45303 3.9155 0 0 0 0 128 128 255
3.64236 1.78929 3.91628 0 0 0 0 128 128 255
3.5449 1.4761 3.91705 0 0 0 0 128 128 255
3.41183 1.04622 3.91783 0 0 0 0 128 128 255
3.53758 1.46161 3.91822 0 0 0 0 128 128 255
3.54108 1.47622 3.91861 0 0 0 0 128 128 255
3.32747 0.788631 3.92016 0 0 0 0 128 128 255
3.40625 1.04688 3.92016 0 0 0 0 128 128 255
3.40886 1.0649 3.92133 0 0 0 0 128 128 255
3.328 0.815651 3.92327 0 0 0 0 128 128 255
3.51095 1.4185 3.92366 0 0 0 0 128 128 255
3.31367 0.787613 3.9256 0 0 0 0 128 128 255
3.39155 1.05555 3.92716 0 0 0 0 128 128 255
3.32385 0.836781 3.92755 0 0 0 0 128 128 255
3.63488 1.86581 3.92871 0 0 0 0 128 128 255
3.34891 0.93473 3.92949 0 0 0 0 128 128 255
3.34628 0.932399 3.93027 0 0 0 0 128 128 255
3.35963 1.01092 3.93454 0 0 0 0 128 128 255
3.6053 1.82569 3.93571 0 0 0 0 128 128 255
3.57806 1.79009 3.94231 0 0 0 0 128 128 255
3.19727 0.548156 3.94309 0 0 0 0 128 128 255
3.30668 0.909976 3.94348 0 0 0 0 128 128 255
3.48613 1.50135 3.94387 0 0 0 0 128 128 255
3.58213 1.81603 3.94387 0 0 0 0 128 128 255
3.3014 0.911589 3.94581 0 0 0 0 128 128 255
3.3002 0.920316 3.94736 0 0 0 0 128 128 255
3.49423 1.56579 3.94853 0 0 0 0 128 128 255
3.53069 1.68849 3.94892 0 0 0 0 128 128 255
3.53536 1.70693 3.94931 0 0 0 0 128 128 255
3.29521 0.922886 3.9497 0 0 0 0 128 128 255
3.44864 1.4511 3.9528 0 0 0 0 128 128 255
3.41098 1.33713 3.95397 0 0 0 0 128 128 255
3.41594 1.35339 3.95397 0 0 0 0 128 128 255
3.64088 2.10653 3.95591 0 0 0 0 128 128 255
3.41883 1.38179 3.9563 0 0 0 0 128 128 255
3.64117 2.11063 3.9563 0 0 0 0 128 128 255
3.1894 0.670788 3.96135 0 0 0 0 128 128 255
3.40883 1.39006 3.96135 0 0 0 0 128 128 255
3.61247 2.07338 3.9633 0 0 0 0 128 128 255
3.62005 2.09825 3.9633 0 0 0 0 128 128 255
3.61275 2.07747 3.96368 0 0 0 0 128 128 255
3.17446 0.656529 3.96563 0 0 0 0 128 128 255
3.16452 0.633424 3.96679 0 0 0 0 128 128 255
3.16539 0.636293 3.96679 0 0 0 0 128 128 255
3.64859 2.22337 3.96718 0 0 0 0 128 128 255
3.5981 2.06417 3.96796 0 0 0 0 128 128 255
3.57555 2.03446 3.9734 0 0 0 0 128 128 255
3.16237 0.683218 3.97379 0 0 0 0 128 128 255
3.64263 2.267 3.97495 0 0 0 0 128 128 255
3.42349 1.55496 3.97573 0 0 0 0 128 128 255
3.16554 0.712569 3.97612 0 0 0 0 128 128 255
3.62423 2.21616 3.97612 0 0 0 0 128 128 255
3.6753 2.38354 3.97612 0 0 0 0 128 128 255
3.15882 0.693708 3.97651 0 0 0 0 128 128 255
3.56234 2.03222 3.97845 0 0 0 0 128 128 255
3.56669 2.05912 3.98001 0 0 0 0 128 128 255
3.15554 0.720846 3.98117 0 0 0 0 128 128 255
3.16254 0.74694 3.98156 0 0 0 0 128 128 255
3.54593 2.01317 3.98273 0 0 0 0 128 128 255
3.54973 2.02561 3.98273 0 0 0 0 128 128 255
3.61419 2.24954 3.98428 0 0 0 0 128 128 255
3.60599 2.23532 3.98583 0 0 0 0 128 128 255
3.6153 2.28161 3.98778 0 0 0 0 128 128 255
3.5966 2.23295 3.98933 0 0 0 0 128 128 255
3.40163 1.62227 3.99283 0 0 0 0 128 128 255
3.53352 2.05774 3.99322 0 0 0 0 128 128 255
3.39871 1.61898 3.99361 0 0 0 0 128 128 255
3.40191 1.6295 3.99361 0 0 0 0 128 128 255
3.14298 0.843866 4.00138 0 0 0 0 128 128 255
3.49597 2.04201 4.00643 0 0 0 0 128 128 255
3.35294 1.59844 4.00954 0 0 0 0 128 128 255
3.13701 0.893779 4.00993 0 0 0 0 128 128 255
3.52764 2.21531 4.01498 0 0 0 0 128 128 255
3.45695 2.02464 4.02003 0 0 0 0 128 128 255
3.44817 2.0085 4.02158 0 0 0 0 128 128 255
3.44021 2.02661 4.02703 0 0 0 0 128 128 255
3.40059 2.01674 4.04179 0 0 0 0 128 128 255
3.02037 0.782993 4.04335 0 0 0 0 128 128 255
3.39794 2.02068 4.04335 0 0 0 0 128 128 255
3.46563 2.24572 4.04373 0 0 0 0 128 128 255
3.45219 2.21114 4.0449 0 0 0 0 128 128 255
3.43545 2.21311 4.05189 0 0 0 0 128 128 255
3.44536 2.25191 4.05267 0 0 0 0 128 128 255
3.45148 2.27513 4.05306 0 0 0 0 128 128 255
2.99569 0.793659 4.05462 0 0 0 0 128 128 255
2.98575 0.767416 4.05539 0 0 0 0 128 128 255
2.99567 0.803074 4.05578 0 0 0 0 128 128 255
2.98778 0.783526 4.05656 0 0 0 0 128 128 255
2.98456 0.776143 4.05695 0 0 0 0 128 128 255
3.43304 2.24626 4.05695 0 0 0 0 128 128 255
2.99593 0.819722 4.05772 0 0 0 0 128 128 255
2.98892 0.799905 4.05811 0 0 0 0 128 128 255
3.42456 2.23107 4.0585 0 0 0 0 128 128 255
2.974 0.773093 4.06083 0 0 0 0 128 128 255
2.9801 0.80887 4.06278 0 0 0 0 128 128 255
3.00372 0.892622 4.06355 0 0 0 0 128 128 255
2.95993 0.761703 4.06511 0 0 0 0 128 128 255
2.99872 0.895192 4.06588 0 0 0 0 128 128 255
3.11892 1.29868 4.06705 0 0 0 0 128 128 255
3.07777 1.16695 4.06744 0 0 0 0 128 128 255
2.96543 0.801844 4.06783 0 0 0 0 128 128 255
2.96835 0.811409 4.06783 0 0 0 0 128 128 255
2.96366 0.808658 4.06938 0 0 0 0 128 128 255
2.99692 0.917697 4.06938 0 0 0 0 128 128 255
3.09875 1.25151 4.06938 0 0 0 0 128 128 255
3.11305 1.29838 4.06938 0 0 0 0 128 128 255
2.99573 0.926425 4.07094 0 0 0 0 128 128 255
2.98048 0.914347 4.0756 0 0 0 0 128 128 255
3.35683 2.17959 4.07948 0 0 0 0 128 128 255
2.96174 0.887654 4.07987 0 0 0 0 128 128 255
3.36733 2.21716 4.07987 0 0 0 0 128 128 255
2.97514 0.944205 4.08143 0 0 0 0 128 128 255
2.96229 0.908397 4.0822 0 0 0 0 128 128 255
2.92083 0.785129 4.08376 0 0 0 0 128 128 255
2.96373 0.925732 4.08376 0 0 0 0 128 128 255
2.96513 0.958759 4.08726 0 0 0 0 128 128 255
3.05734 1.26101 4.08726 0 0 0 0 128 128 255
2.91494 0.797383 4.08765 0 0 0 0 128 128 255
2.87987 0.71085 4.09114 0 0 0 0 128 128 255
2.928 0.878084 4.09231 0 0 0 0 128 128 255
2.95103 0.966199 4.09386 0 0 0 0 128 128 255
2.94635 0.954034 4.09425 0 0 0 0 128 128 255
2.88067 0.751379 4.09581 0 0 0 0 128 128 255
2.94953 0.980247 4.09619 0 0 0 0 128 128 255
2.95039 0.989393 4.09697 0 0 0 0 128 128 255
2.93841 0.959592 4.09814 0 0 0 0 128 128 255
3.03528 1.28028 4.09853 0 0 0 0 128 128 255
2.94306 0.984311 4.0993 0 0 0 0 128 128 255
2.94423 0.988137 4.0993 0 0 0 0 128 128 255
2.90833 0.876766 4.10008 0 0 0 0 128 128 255
2.87621 0.784106 4.10163 0 0 0 0 128 128 255
2.87708 0.786975 4.10163 0 0 0 0 128 128 255
2.87357 0.781774 4.10241 0 0 0 0 128 128 255
2.85167 0.716315 4.10319 0 0 0 0 128 128 255
2.93804 0.999434 4.10319 0 0 0 0 128 128 255
2.85546 0.731887 4.10358 0 0 0 0 128 128 255
2.90214 0.888063 4.10397 0 0 0 0 128 128 255
2.89715 0.887494 4.10591 0 0 0 0 128 128 255
2.89831 0.894458 4.1063 0 0 0 0 128 128 255
2.86796 0.798122 4.10669 0 0 0 0 128 128 255
3.00855 1.28739 4.11018 0 0 0 0 128 128 255
2.85885 0.802993 4.11096 0 0 0 0 128 128 255
2.89236 0.938095 4.11407 0 0 0 0 128 128 255
2.89353 0.941921 4.11407 0 0 0 0 128 128 255
2.87076 0.870453 4.11446 0 0 0 0 128 128 255
2.89059 0.941771 4.11524 0 0 0 0 128 128 255
2.82756 0.738309 4.11562 0 0 0 0 128 128 255
2.88794 0.945716 4.11679 0 0 0 0 128 128 255
2.88706 0.945985 4.11718 0 0 0 0 128 128 255
2.86078 0.869316 4.11834 0 0 0 0 128 128 255
3.04665 1.4786 4.11834 0 0 0 0 128 128 255
2.85347 0.851681 4.11912 0 0 0 0 128 128 255
2.8126 0.730326 4.12068 0 0 0 0 128 128 255
2.80705 0.715291 4.12106 0 0 0 0 128 128 255
3.01889 1.4097 4.12106 0 0 0 0 128 128 255
2.8085 0.723212 4.12145 0 0 0 0 128 128 255
2.82221 0.771305 4.12184 0 0 0 0 128 128 255
2.95439 1.20459 4.12184 0 0 0 0 128 128 255
2.82279 0.776356 4.12223 0 0 0 0 128 128 255
2.98852 1.32278 4.12262 0 0 0 0 128 128 255
3.00223 1.36773 4.12262 0 0 0 0 128 128 255
2.8505 0.873499 4.12301 0 0 0 0 128 128 255
2.81867 0.781795 4.12456 0 0 0 0 128 128 255
2.7997 0.722762 4.12495 0 0 0 0 128 128 255
2.84521 0.871974 4.12495 0 0 0 0 128 128 255
2.8099 0.759378 4.12534 0 0 0 0 128 128 255
2.8134 0.770855 4.12534 0 0 0 0 128 128 255
2.8414 0.872093 4.1265 0 0 0 0 128 128 255
2.86182 0.942185 4.12689 0 0 0 0 128 128 255
2.9867 1.35156 4.12689 0 0 0 0 128 128 255
2.98581 1.3581 4.12806 0 0 0 0 128 128 255
2.8492 0.935577 4.13117 0 0 0 0 128 128 255
2.84685 0.93734 4.13233 0 0 0 0 128 128 255
2.82408 0.869011 4.13311 0 0 0 0 128 128 255
2.8357 0.935515 4.13661 0 0 0 0 128 128 255
2.94833 1.30472 4.13661 0 0 0 0 128 128 255
2.91096 1.19484 4.13816 0 0 0 0 128 128 255
2.96435 1.37302 4.13855 0 0 0 0 128 128 255
2.81553 0.888348 4.13894 0 0 0 0 128 128 255
2.93924 1.29703 4.13933 0 0 0 0 128 128 255
2.812 0.889423 4.14049 0 0 0 0 128 128 255
2.97453 1.42218 4.14049 0 0 0 0 128 128 255
2.93161 1.29727 4.14244 0 0 0 0 128 128 255
2.7965 0.85756 4.14283 0 0 0 0 128 128 255
2.80262 0.883922 4.1436 0 0 0 0 128 128 255
2.88635 1.16471 4.14438 0 0 0 0 128 128 255
2.90532 1.22688 4.14438 0 0 0 0 128 128 255
2.96513 1.42296 4.14438 0 0 0 0 128 128 255
2.75182 0.730048 4.14516 0 0 0 0 128 128 255
2.75036 0.728403 4.14555 0 0 0 0 128 128 255
2.78623 0.855466 4.14671 0 0 0 0 128 128 255
2.74916 0.740269 4.14749 0 0 0 0 128 128 255
2.78796 0.87062 4.14788 0 0 0 0 128 128 255
2.80135 0.933448 4.15021 0 0 0 0 128 128 255
2.73948 0.73695 4.15099 0 0 0 0 128 128 255
3.01842 1.65449 4.15137 0 0 0 0 128 128 255
3.02542 1.68372 4.15215 0 0 0 0 128 128 255
2.92882 1.3734 4.15293 0 0 0 0 128 128 255
3.01751 1.67045 4.15371 0 0 0 0 128 128 255
3.02101 1.68192 4.15371 0 0 0 0 128 128 255
3.02247 1.68671 4.15371 0 0 0 0 128 128 255
2.77763 0.903047 4.15604 0 0 0 0 128 128 255
2.78667 0.932698 4.15604 0 0 0 0 128 128 255
2.72977 0.749322 4.15643 0 0 0 0 128 128 255
2.92029 1.38018 4.1572 0 0 0 0 128 128 255
2.73471 0.774997 4.15759 0 0 0 0 128 128 255
2.7814 0.928035 4.15759 0 0 0 0 128 128 255
2.77263 0.905617 4.15837 0 0 0 0 128 128 255
2.77934 0.930754 4.15876 0 0 0 0 128 128 255
2.77992 0.932667 4.15876 0 0 0 0 128 128 255
2.71892 0.742177 4.15992 0 0 0 0 128 128 255
2.7761 0.932786 4.16031 0 0 0 0 128 128 255
2.72533 0.769496 4.1607 0 0 0 0 128 128 255
2.76151 0.8881 4.1607 0 0 0 0 128 128 255
2.98791 1.64288 4.16225 0 0 0 0 128 128 255
2.9809 1.62307 4.16264 0 0 0 0 128 128 255
2.69143 0.683651 4.16381 0 0 0 0 128 128 255
2.76263 0.917033 4.16381 0 0 0 0 128 128 255
2.7632 0.922084 4.1642 0 0 0 0 128 128 255
2.69054 0.687058 4.16459 0 0 0 0 128 128 255
2.97619 1.63287 4.16575 0 0 0 0 128 128 255
2.68964 0.696742 4.16614 0 0 0 0 128 128 255
2.68817 0.698236 4.16692 0 0 0 0 128 128 255
2.72078 0.84616 4.17197 0 0 0 0 128 128 255
2.69012 0.755144 4.17314 0 0 0 0 128 128 255
2.72133 0.863764 4.17391 0 0 0 0 128 128 255
2.7283 0.902412 4.17586 0 0 0 0 128 128 255
2.71106 0.861671 4.1778 0 0 0 0 128 128 255
2.82894 1.24809 4.1778 0 0 0 0 128 128 255
2.70988 0.860983 4.17819 0 0 0 0 128 128 255
2.72418 0.910989 4.17858 0 0 0 0 128 128 255
2.82279 1.24056 4.17935 0 0 0 0 128 128 255
2.92138 1.58268 4.18168 0 0 0 0 128 128 255
2.81662 1.24244 4.18207 0 0 0 0 128 128 255
2.7139 0.908895 4.18246 0 0 0 0 128 128 255
3.05092 2.01363 4.18246 0 0 0 0 128 128 255
2.70135 0.870905 4.18285 0 0 0 0 128 128 255
2.70194 0.872818 4.18285 0 0 0 0 128 128 255
2.84694 1.35447 4.18363 0 0 0 0 128 128 255
2.81629 1.26031 4.1844 0 0 0 0 128 128 255
3.04124 2.00718 4.18557 0 0 0 0 128 128 255
2.81156 1.27953 4.18868 0 0 0 0 128 128 255
2.63822 0.717656 4.18946 0 0 0 0 128 128 255
2.91105 1.61197 4.18946 0 0 0 0 128 128 255
2.63996 0.729671 4.19023 0 0 0 0 128 128 255
2.62974 0.699332 4.19062 0 0 0 0 128 128 255
2.8337 1.37105 4.19101 0 0 0 0 128 128 255
2.62563 0.701633 4.19256 0 0 0 0 128 128 255
2.90486 1.62326 4.19334 0 0 0 0 128 128 255
2.82315 1.36173 4.19412 0 0 0 0 128 128 255
3.02419 2.02074 4.19412 0 0 0 0 128 128 255
3.02126 2.01745 4.1949 0 0 0 0 128 128 255
2.89754 1.61504 4.19528 0 0 0 0 128 128 255
3.02213 2.02346 4.19528 0 0 0 0 128 128 255
3.01745 2.01443 4.19606 0 0 0 0 128 128 255
3.0472 2.11513 4.19645 0 0 0 0 128 128 255
2.65882 0.848332 4.19723 0 0 0 0 128 128 255
2.89575 1.62813 4.19762 0 0 0 0 128 128 255
2.59957 0.663581 4.19839 0 0 0 0 128 128 255
2.62992 0.763055 4.19839 0 0 0 0 128 128 255
2.67135 0.898876 4.19839 0 0 0 0 128 128 255
2.67047 0.899145 4.19878 0 0 0 0 128 128 255
2.78339 1.2693 4.19878 0 0 0 0 128 128 255
2.88814 1.61268 4.19878 0 0 0 0 128 128 255
2.89543 1.64287 4.19956 0 0 0 0 128 128 255
3.01885 2.04746 4.19956 0 0 0 0 128 128 255
3.02848 2.07903 4.19956 0 0 0 0 128 128 255
2.65586 0.863874 4.20034 0 0 0 0 128 128 255
2.66782 0.903089 4.20034 0 0 0 0 128 128 255
2.6687 0.905959 4.20034 0 0 0 0 128 128 255
2.78541 1.28855 4.20034 0 0 0 0 128 128 255
3.04627 2.14365 4.20034 0 0 0 0 128 128 255
3.01971 2.05975 4.20073 0 0 0 0 128 128 255
2.65175 0.859898 4.2015 0 0 0 0 128 128 255
3.01503 2.05072 4.2015 0 0 0 0 128 128 255
3.02787 2.0928 4.2015 0 0 0 0 128 128 255
2.61878 0.754954 4.20189 0 0 0 0 128 128 255
2.65087 0.863305 4.20228 0 0 0 0 128 128 255
2.59774 0.701778 4.20383 0 0 0 0 128 128 255
3.01732 2.08034 4.20422 0 0 0 0 128 128 255
2.63097 0.829647 4.20617 0 0 0 0 128 128 255
2.61374 0.776353 4.20655 0 0 0 0 128 128 255
2.60849 0.762275 4.20694 0 0 0 0 128 128 255
2.61024 0.768013 4.20694 0 0 0 0 128 128 255
2.62626 0.836312 4.20889 0 0 0 0 128 128 255
2.76455 1.29596 4.20966 0 0 0 0 128 128 255
2.58916 0.733668 4.21122 0 0 0 0 128 128 255
2.76391 1.32543 4.21355 0 0 0 0 128 128 255
2.76124 1.33879 4.21627 0 0 0 0 128 128 255
2.55902 0.679087 4.21666 0 0 0 0 128 128 255
2.76211 1.3448 4.21666 0 0 0 0 128 128 255
2.55842 0.686589 4.21782 0 0 0 0 128 128 255
2.62291 0.897971 4.21782 0 0 0 0 128 128 255
2.61678 0.881023 4.21821 0 0 0 0 128 128 255
2.61677 0.884162 4.2186 0 0 0 0 128 128 255
2.75245 1.32893 4.2186 0 0 0 0 128 128 255
2.61501 0.884699 4.21938 0 0 0 0 128 128 255
2.74573 1.3132 4.21938 0 0 0 0 128 128 255
2.55489 0.693941 4.22015 0 0 0 0 128 128 255
2.739 1.29748 4.22015 0 0 0 0 128 128 255
2.77285 1.40843 4.22015 0 0 0 0 128 128 255
2.73111 1.27793 4.22093 0 0 0 0 128 128 255
2.77283 1.41785 4.22132 0 0 0 0 128 128 255
2.58754 0.816758 4.2221 0 0 0 0 128 128 255
2.90384 1.85359 4.2221 0 0 0 0 128 128 255
2.68293 1.13894 4.22326 0 0 0 0 128 128 255
2.55775 0.73175 4.22365 0 0 0 0 128 128 255
2.68526 1.14973 4.22365 0 0 0 0 128 128 255
2.68321 1.14618 4.22404 0 0 0 0 128 128 255
2.76199 1.40756 4.22443 0 0 0 0 128 128 255
2.53147 0.655082 4.22482 0 0 0 0 128 128 255
2.97557 2.11399 4.22521 0 0 0 0 128 128 255
2.52591 0.646323 4.22598 0 0 0 0 128 128 255
2.76313 1.42394 4.22598 0 0 0 0 128 128 255
2.52736 0.657382 4.22676 0 0 0 0 128 128 255
2.55274 0.740596 4.22676 0 0 0 0 128 128 255
2.75816 1.4171 4.22715 0 0 0 0 128 128 255
2.96415 2.09551 4.22754 0 0 0 0 128 128 255
2.96503 2.09838 4.22754 0 0 0 0 128 128 255
2.67703 1.15747 4.22793 0 0 0 0 128 128 255
2.97406 2.13745 4.2287 0 0 0 0 128 128 255
2.52265 0.660909 4.22909 0 0 0 0 128 128 255
2.57253 0.833882 4.23026 0 0 0 0 128 128 255
2.7085 1.2796 4.23026 0 0 0 0 128 128 255
2.97578 2.15574 4.23026 0 0 0 0 128 128 255
2.66297 1.13981 4.23142 0 0 0 0 128 128 255
2.66471 1.14868 4.23181 0 0 0 0 128 128 255
2.69242 1.24583 4.23259 0 0 0 0 128 128 255
2.56432 0.829069 4.23298 0 0 0 0 128 128 255
2.96551 2.15365 4.23414 0 0 0 0 128 128 255
2.56429 0.84476 4.23492 0 0 0 0 128 128 255
2.70814 1.31631 4.23492 0 0 0 0 128 128 255
2.56369 0.852262 4.23609 0 0 0 0 128 128 255
2.95089 2.12151 4.23609 0 0 0 0 128 128 255
2.68448 1.25452 4.23686 0 0 0 0 128 128 255
2.87005 1.86285 4.23686 0 0 0 0 128 128 255
2.56163 0.854982 4.23725 0 0 0 0 128 128 255
2.51989 0.724481 4.23803 0 0 0 0 128 128 255
2.51842 0.722837 4.23842 0 0 0 0 128 128 255
2.67016 1.22021 4.23842 0 0 0 0 128 128 255
2.55869 0.85797 4.23881 0 0 0 0 128 128 255
2.55954 0.870254 4.23997 0 0 0 0 128 128 255
2.56246 0.882958 4.24036 0 0 0 0 128 128 255
2.69959 1.33564 4.24075 0 0 0 0 128 128 255
2.56069 0.886634 4.24153 0 0 0 0 128 128 255
2.70161 1.35175 4.24192 0 0 0 0 128 128 255
2.55075 0.863528 4.24269 0 0 0 0 128 128 255
2.55221 0.868311 4.24269 0 0 0 0 128 128 255
2.49355 0.682334 4.24347 0 0 0 0 128 128 255
2.53875 0.840004 4.24464 0 0 0 0 128 128 255
2.49001 0.686548 4.24541 0 0 0 0 128 128 255
2.69689 1.36469 4.24541 0 0 0 0 128 128 255
2.50285 0.731771 4.2458 0 0 0 0 128 128 255
2.69076 1.34775 4.2458 0 0 0 0 128 128 255
2.69046 1.35307 4.24658 0 0 0 0 128 128 255
2.67819 1.31603 4.24697 0 0 0 0 128 128 255
2.54103 0.879039 4.24852 0 0 0 0 128 128 255
2.67992 1.33432 4.24852 0 0 0 0 128 128 255
2.48732 0.712461 4.24969 0 0 0 0 128 128 255
2.53254 0.863854 4.25008 0 0 0 0 128 128 255
2.53778 0.887347 4.25085 0 0 0 0 128 128 255
2.6866 1.37515 4.25085 0 0 0 0 128 128 255
2.68162 1.36517 4.25163 0 0 0 0 128 128 255
2.51382 0.827745 4.25318 0 0 0 0 128 128 255
2.50565 0.804102 4.25357 0 0 0 0 128 128 255
2.4712 0.700652 4.25474 0 0 0 0 128 128 255
2.4709 0.702834 4.25513 0 0 0 0 128 128 255
2.4595 0.678084 4.25668 0 0 0 0 128 128 255
2.69905 1.4665 4.25707 0 0 0 0 128 128 255
2.47174 0.724533 4.25746 0 0 0 0 128 128 255
2.50325 0.830972 4.25785 0 0 0 0 128 128 255
2.65614 1.33217 4.25785 0 0 0 0 128 128 255
2.63248 1.26725 4.2594 0 0 0 0 128 128 255
2.4542 0.685974 4.25979 0 0 0 0 128 128 255
2.48948 0.811124 4.26096 0 0 0 0 128 128 255
2.49153 0.817819 4.26096 0 0 0 0 128 128 255
2.64326 1.31519 4.26096 0 0 0 0 128 128 255
2.43489 0.647953 4.2629 0 0 0 0 128 128 255
2.45823 0.724471 4.2629 0 0 0 0 128 128 255
2.64117 1.3336 4.26407 0 0 0 0 128 128 255
2.43166 0.649985 4.26445 0 0 0 0 128 128 255
2.48329 0.825559 4.26523 0 0 0 0 128 128 255
2.64785 1.36815 4.26562 0 0 0 0 128 128 255
2.65515 1.39207 4.26562 0 0 0 0 128 128 255
2.42842 0.655155 4.2664 0 0 0 0 128 128 255
2.44855 0.721152 4.2664 0 0 0 0 128 128 255
2.49465 0.875415 4.26679 0 0 0 0 128 128 255
2.42636 0.654736 4.26717 0 0 0 0 128 128 255
2.62273 1.30159 4.26756 0 0 0 0 128 128 255
2.49112 0.87649 4.26834 0 0 0 0 128 128 255
2.42284 0.655812 4.26873 0 0 0 0 128 128 255
2.65042 1.41128 4.26989 0 0 0 0 128 128 255
2.48555 0.874009 4.27028 0 0 0 0 128 128 255
2.64224 1.38764 4.27028 0 0 0 0 128 128 255
2.47796 0.852278 4.27067 0 0 0 0 128 128 255
2.62093 1.32409 4.27106 0 0 0 0 128 128 255
2.47414 0.852397 4.27223 0 0 0 0 128 128 255
2.61302 1.31082 4.27261 0 0 0 0 128 128 255
2.41285 0.660951 4.27339 0 0 0 0 128 128 255
2.47644 0.875741 4.27417 0 0 0 0 128 128 255
2.42595 0.716546 4.27495 0 0 0 0 128 128 255
2.57943 1.22279 4.27533 0 0 0 0 128 128 255
2.60452 1.30819 4.27572 0 0 0 0 128 128 255
2.61239 1.33401 4.27572 0 0 0 0 128 128 255
2.4055 0.665284 4.27689 0 0 0 0 128 128 255
2.42009 0.713108 4.27689 0 0 0 0 128 128 255
2.58407 1.25065 4.27689 0 0 0 0 128 128 255
2.40987 0.682769 4.27728 0 0 0 0 128 128 255
2.437 0.77486 4.27767 0 0 0 0 128 128 255
2.63191 1.41379 4.27767 0 0 0 0 128 128 255
2.5966 1.30119 4.27805 0 0 0 0 128 128 255
2.65642 1.49727 4.27805 0 0 0 0 128 128 255
2.43349 0.769659 4.27844 0 0 0 0 128 128 255
2.46499 0.876098 4.27883 0 0 0 0 128 128 255
2.4282 0.768134 4.28039 0 0 0 0 128 128 255
2.58985 1.30116 4.28077 0 0 0 0 128 128 255
2.38966 0.654431 4.28194 0 0 0 0 128 128 255
2.58837 1.3058 4.28194 0 0 0 0 128 128 255
2.39695 0.68462 4.28272 0 0 0 0 128 128 255
2.42203 0.770016 4.28311 0 0 0 0 128 128 255
2.5787 1.29934 4.28505 0 0 0 0 128 128 255
2.43192 0.821366 4.28544 0 0 0 0 128 128 255
2.41528 0.769985 4.28583 0 0 0 0 128 128 255
2.55096 1.21475 4.28583 0 0 0 0 128 128 255
2.64725 1.53353 4.28621 0 0 0 0 128 128 255
2.57429 1.30068 4.28699 0 0 0 0 128 128 255
2.64636 1.53693 4.28699 0 0 0 0 128 128 255
2.58301 1.34507 4.28894 0 0 0 0 128 128 255
2.58505 1.35176 4.28894 0 0 0 0 128 128 255
2.64516 1.5488 4.28894 0 0 0 0 128 128 255
2.41988 0.81981 4.2901 0 0 0 0 128 128 255
2.37319 0.673049 4.29088 0 0 0 0 128 128 255
2.37493 0.681927 4.29127 0 0 0 0 128 128 255
2.3653 0.653501 4.29166 0 0 0 0 128 128 255
2.63403 1.53442 4.29166 0 0 0 0 128 128 255
2.35974 0.641605 4.29243 0 0 0 0 128 128 255
2.36062 0.644474 4.29243 0 0 0 0 128 128 255
2.72214 1.82956 4.29243 0 0 0 0 128 128 255
2.57944 1.37125 4.2936 0 0 0 0 128 128 255
2.41107 0.822499 4.29399 0 0 0 0 128 128 255
2.38597 0.746518 4.29476 0 0 0 0 128 128 255
2.54149 1.25632 4.29476 0 0 0 0 128 128 255
2.4058 0.817835 4.29554 0 0 0 0 128 128 255
2.41834 0.862102 4.29593 0 0 0 0 128 128 255
2.41425 0.85185 4.29632 0 0 0 0 128 128 255
2.41979 0.870023 4.29632 0 0 0 0 128 128 255
2.56247 1.33774 4.29632 0 0 0 0 128 128 255
2.70104 1.8109 4.29865 0 0 0 0 128 128 255
2.41216 0.867123 4.29904 0 0 0 0 128 128 255
2.40369 0.842523 4.29943 0 0 0 0 128 128 255
2.35729 0.69358 4.29982 0 0 0 0 128 128 255
2.7016 1.82223 4.29982 0 0 0 0 128 128 255
2.35612 0.692893 4.3002 0 0 0 0 128 128 255
2.39842 0.837859 4.30098 0 0 0 0 128 128 255
2.406 0.865866 4.30137 0 0 0 0 128 128 255
2.3666 0.739879 4.30176 0 0 0 0 128 128 255
2.56531 1.39124 4.30176 0 0 0 0 128 128 255
2.53787 1.30447 4.30215 0 0 0 0 128 128 255
2.54575 1.3303 4.30215 0 0 0 0 128 128 255
2.4833 1.12875 4.30254 0 0 0 0 128 128 255
2.69776 1.83804 4.30331 0 0 0 0 128 128 255
2.70242 1.85648 4.3037 0 0 0 0 128 128 255
2.38115 0.809672 4.30448 0 0 0 0 128 128 255
2.52092 1.26783 4.30448 0 0 0 0 128 128 255
2.54045 1.33819 4.30526 0 0 0 0 128 128 255
2.53867 1.35128 4.30759 0 0 0 0 128 128 255
2.35948 0.776552 4.30914 0 0 0 0 128 128 255
2.38428 0.860991 4.30953 0 0 0 0 128 128 255
2.69153 1.87131 4.30992 0 0 0 0 128 128 255
2.36733 0.818068 4.31108 0 0 0 0 128 128 255
2.50126 1.25709 4.31108 0 0 0 0 128 128 255
2.35449 0.779121 4.31147 0 0 0 0 128 128 255
2.4677 1.15024 4.31147 0 0 0 0 128 128 255
2.49775 1.25503 4.31225 0 0 0 0 128 128 255
2.58061 1.52981 4.31264 0 0 0 0 128 128 255
2.50763 1.30638 4.31458 0 0 0 0 128 128 255
2.51697 1.33699 4.31458 0 0 0 0 128 128 255
2.36202 0.832235 4.31497 0 0 0 0 128 128 255
2.34392 0.776071 4.31536 0 0 0 0 128 128 255
2.49506 1.27781 4.31614 0 0 0 0 128 128 255
2.35616 0.828796 4.31691 0 0 0 0 128 128 255
2.34681 0.801327 4.3173 0 0 0 0 128 128 255
2.35294 0.821413 4.3173 0 0 0 0 128 128 255
2.49621 1.29105 4.3173 0 0 0 0 128 128 255
2.3576 0.842994 4.31808 0 0 0 0 128 128 255
2.65463 1.81983 4.31847 0 0 0 0 128 128 255
2.66164 1.84279 4.31847 0 0 0 0 128 128 255
2.48829 1.28405 4.31963 0 0 0 0 128 128 255
2.33947 0.802522 4.32041 0 0 0 0 128 128 255
2.65198 1.82691 4.32041 0 0 0 0 128 128 255
2.33683 0.803328 4.32158 0 0 0 0 128 128 255
2.45092 1.17731 4.32158 0 0 0 0 128 128 255
2.33361 0.795945 4.32197 0 0 0 0 128 128 255
2.49584 1.33089 4.32235 0 0 0 0 128 128 255
2.64494 1.81965 4.32235 0 0 0 0 128 128 255
2.4824 1.2963 4.32352 0 0 0 0 128 128 255
2.63701 1.82207 4.32585 0 0 0 0 128 128 255
2.34259 0.863256 4.32663 0 0 0 0 128 128 255
2.48351 1.32838 4.32702 0 0 0 0 128 128 255
2.49249 1.39255 4.33129 0 0 0 0 128 128 255
2.48253 1.382 4.33401 0 0 0 0 128 128 255
2.48749 1.39826 4.33401 0 0 0 0 128 128 255
2.4942 1.42025 4.33401 0 0 0 0 128 128 255
2.42311 1.28826 4.34645 0 0 0 0 128 128 255
2.52085 1.61182 4.34684 0 0 0 0 128 128 255
2.5334 1.65294 4.34684 0 0 0 0 128 128 255
2.52289 1.62165 4.34722 0 0 0 0 128 128 255
2.51521 1.64699 4.35344 0 0 0 0 128 128 255
2.37979 1.21574 4.355 0 0 0 0 128 128 255
2.45913 1.49159 4.35694 0 0 0 0 128 128 255
2.36137 1.17431 4.35733 0 0 0 0 128 128 255
2.41446 1.3578 4.35849 0 0 0 0 128 128 255
2.42292 1.38554 4.35849 0 0 0 0 128 128 255
2.46083 1.52558 4.36044 0 0 0 0 128 128 255
2.41322 1.39164 4.36316 0 0 0 0 128 128 255
2.51505 1.72859 4.36354 0 0 0 0 128 128 255
2.40737 1.38192 4.36432 0 0 0 0 128 128 255
2.40912 1.38766 4.36432 0 0 0 0 128 128 255
2.40793 1.39639 4.36588 0 0 0 0 128 128 255
2.41375 1.4218 4.36665 0 0 0 0 128 128 255
2.50508 1.72118 4.36665 0 0 0 0 128 128 255
2.33784 1.19822 4.36976 0 0 0 0 128 128 255
2.44755 1.56099 4.37015 0 0 0 0 128 128 255
2.40027 1.40918 4.37054 0 0 0 0 128 128 255
2.5199 1.80134 4.37054 0 0 0 0 128 128 255
2.44608 1.56249 4.37093 0 0 0 0 128 128 255
2.44431 1.56302 4.37171 0 0 0 0 128 128 255
2.50966 1.78669 4.37287 0 0 0 0 128 128 255
2.48514 1.70949 4.37326 0 0 0 0 128 128 255
2.47605 1.70494 4.37637 0 0 0 0 128 128 255
2.47623 1.76553 4.38375 0 0 0 0 128 128 255
2.47942 1.78546 4.38492 0 0 0 0 128 128 255
2.4444 1.67382 4.38531 0 0 0 0 128 128 255
2.37783 1.47457 4.38764 0 0 0 0 128 128 255
2.37343 1.47278 4.38919 0 0 0 0 128 128 255
2.43208 1.66817 4.38958 0 0 0 0 128 128 255
2.2727 1.17731 4.39347 0 0 0 0 128 128 255
2.42822 1.69026 4.39385 0 0 0 0 128 128 255
2.39085 1.57724 4.39502 0 0 0 0 128 128 255
2.35893 1.53261 4.4024 0 0 0 0 128 128 255
2.25941 1.21901 4.40396 0 0 0 0 128 128 255
2.24189 1.16789 4.40474 0 0 0 0 128 128 255
2.35216 1.542 4.40629 0 0 0 0 128 128 255
2.42511 1.78112 4.40629 0 0 0 0 128 128 255
2.22727 1.13576 4.40668 0 0 0 0 128 128 255
2.3431 1.52176 4.40746 0 0 0 0 128 128 255
2.41456 1.76865 4.40901 0 0 0 0 128 128 255
2.34306 1.54373 4.41018 0 0 0 0 128 128 255
2.19336 1.05619 4.41056 0 0 0 0 128 128 255
2.18952 1.06887 4.41367 0 0 0 0 128 128 255
2.19036 1.09056 4.416 0 0 0 0 128 128 255
2.41066 1.81271 4.416 0 0 0 0 128 128 255
2.32515 1.54187 4.41717 0 0 0 0 128 128 255
2.22564 1.22199 4.41795 0 0 0 0 128 128 255
2.17719 1.06949 4.41872 0 0 0 0 128 128 255
2.21862 1.20531 4.41872 0 0 0 0 128 128 255
2.30702 1.50454 4.41989 0 0 0 0 128 128 255
2.20196 1.16962 4.42106 0 0 0 0 128 128 255
2.37729 1.76016 4.423 0 0 0 0 128 128 255
2.16632 1.0749 4.42378 0 0 0 0 128 128 255
2.20454 1.2002 4.42378 0 0 0 0 128 128 255
2.37932 1.77313 4.42378 0 0 0 0 128 128 255
2.36701 1.76434 4.42766 0 0 0 0 128 128 255
2.35468 1.76183 4.43233 0 0 0 0 128 128 255
2.35555 1.76784 4.43271 0 0 0 0 128 128 255
2.13495 1.05101 4.43349 0 0 0 0 128 128 255
2.17533 1.27811 4.44515 0 0 0 0 128 128 255
2.16245 1.258 4.44787 0 0 0 0 128 128 255
2.12473 1.17541 4.45292 0 0 0 0 128 128 255
2.14129 1.26759 4.45758 0 0 0 0 128 128 255
2.25048 1.74552 4.47235 0 0 0 0 128 128 255
2.08737 1.21399 4.47274 0 0 0 0 128 128 255
2.24199 1.73348 4.47429 0 0 0 0 128 128 255
2.24198 1.73975 4.47507 0 0 0 0 128 128 255
1.96098 0.821799 4.47546 0 0 0 0 128 128 255
2.24138 1.74726 4.47624 0 0 0 0 128 128 255
2.23259 1.73739 4.47857 0 0 0 0 128 128 255
2.23258 1.74053 4.47896 0 0 0 0 128 128 255
2.01108 1.03339 4.48129 0 0 0 0 128 128 255
1.9261 0.792712 4.48595 0 0 0 0 128 128 255
2.00458 1.05314 4.48634 0 0 0 0 128 128 255
2.20297 1.71924 4.48828 0 0 0 0 128 128 255
2.20031 1.72947 4.49061 0 0 0 0 128 128 255
2.04798 1.23646 4.49139 0 0 0 0 128 128 255
1.91755 0.812049 4.49178 0 0 0 0 128 128 255
1.9082 0.78458 4.49217 0 0 0 0 128 128 255
1.93008 0.862592 4.49295 0 0 0 0 128 128 255
2.19852 1.74256 4.49295 0 0 0 0 128 128 255
1.92569 0.854522 4.49372 0 0 0 0 128 128 255
1.97061 1.0081 4.4945 0 0 0 0 128 128 255
2.19293 1.74949 4.49605 0 0 0 0 128 128 255
1.89378 0.806755 4.50072 0 0 0 0 128 128 255
1.91856 0.897471 4.50188 0 0 0 0 128 128 255
2.1012 1.50878 4.50344 0 0 0 0 128 128 255
1.89459 0.844146 4.50499 0 0 0 0 128 128 255
2.08943 1.52074 4.50965 0 0 0 0 128 128 255
2.07218 1.48313 4.51199 0 0 0 0 128 128 255
2.08881 1.53765 4.51199 0 0 0 0 128 128 255
1.91052 0.95638 4.51237 0 0 0 0 128 128 255
1.88979 0.897884 4.51354 0 0 0 0 128 128 255
2.08295 1.53108 4.51354 0 0 0 0 128 128 255
2.07623 1.51535 4.51432 0 0 0 0 128 128 255
2.07243 1.50606 4.51471 0 0 0 0 128 128 255
2.07038 1.5025 4.51509 0 0 0 0 128 128 255
2.06716 1.49512 4.51548 0 0 0 0 128 128 255
1.89235 0.937876 4.51743 0 0 0 0 128 128 255
1.96092 1.16579 4.51782 0 0 0 0 128 128 255
2.07412 1.54318 4.51859 0 0 0 0 128 128 255
1.95678 1.18064 4.52131 0 0 0 0 128 128 255
1.87738 0.93617 4.52326 0 0 0 0 128 128 255
2.06032 1.54216 4.52403 0 0 0 0 128 128 255
1.94092 1.18234 4.52792 0 0 0 0 128 128 255
1.9365 1.1931 4.53103 0 0 0 0 128 128 255
1.96217 1.28041 4.53142 0 0 0 0 128 128 255
1.92217 1.16193 4.53297 0 0 0 0 128 128 255
1.93326 1.19827 4.53297 0 0 0 0 128 128 255
1.89992 1.12689 4.53763 0 0 0 0 128 128 255
1.89466 1.11281 4.53802 0 0 0 0 128 128 255
1.904 1.14656 4.53841 0 0 0 0 128 128 255
1.94775 1.29631 4.53919 0 0 0 0 128 128 255
2.06971 1.7024 4.53996 0 0 0 0 128 128 255
1.89868 1.16386 4.54269 0 0 0 0 128 128 255
1.89897 1.16482 4.54269 0 0 0 0 128 128 255
1.76591 0.731804 4.54307 0 0 0 0 128 128 255
1.95556 1.35666 4.54346 0 0 0 0 128 128 255
1.93423 1.30566 4.54579 0 0 0 0 128 128 255
2.04413 1.72275 4.55279 0 0 0 0 128 128 255
1.73657 0.72089 4.55357 0 0 0 0 128 128 255
1.91891 1.33438 4.55551 0 0 0 0 128 128 255
1.90431 1.2897 4.5559 0 0 0 0 128 128 255
1.9046 1.29065 4.5559 0 0 0 0 128 128 255
2.035 1.73703 4.55823 0 0 0 0 128 128 255
1.90194 1.30401 4.55862 0 0 0 0 128 128 255
1.69563 0.634057 4.55939 0 0 0 0 128 128 255
1.72534 0.756724 4.5625 0 0 0 0 128 128 255
1.68595 0.630737 4.56289 0 0 0 0 128 128 255
1.92696 1.42393 4.56328 0 0 0 0 128 128 255
1.93016 1.44073 4.56406 0 0 0 0 128 128 255
1.89978 1.35695 4.566 0 0 0 0 128 128 255
1.87818 1.2893 4.56639 0 0 0 0 128 128 255
1.95225 1.55736 4.5695 0 0 0 0 128 128 255
1.92743 1.48547 4.57066 0 0 0 0 128 128 255
1.90145 1.40348 4.57105 0 0 0 0 128 128 255
1.91224 1.44515 4.57183 0 0 0 0 128 128 255
1.89998 1.40812 4.57222 0 0 0 0 128 128 255
1.68695 0.719298 4.57338 0 0 0 0 128 128 255
1.86258 1.31079 4.57533 0 0 0 0 128 128 255
1.86316 1.3127 4.57533 0 0 0 0 128 128 255
1.95125 1.62039 4.57766 0 0 0 0 128 128 255
1.64807 0.629745 4.57805 0 0 0 0 128 128 255
1.72977 0.89756 4.57805 0 0 0 0 128 128 255
1.95153 1.62449 4.57805 0 0 0 0 128 128 255
1.64719 0.630014 4.57844 0 0 0 0 128 128 255
1.72508 0.89481 4.5796 0 0 0 0 128 128 255
1.94033 1.64777 4.58543 0 0 0 0 128 128 255
1.90344 1.59629 4.59398 0 0 0 0 128 128 255
1.56708 0.610544 4.60836 0 0 0 0 128 128 255
1.56328 0.601248 4.60875 0 0 0 0 128 128 255
1.55855 0.617327 4.61263 0 0 0 0 128 128 255
1.54915 0.621241 4.61691 0 0 0 0 128 128 255
1.88729 1.75177 4.61963 0 0 0 0 128 128 255
1.89633 1.78142 4.61963 0 0 0 0 128 128 255
1.87907 1.7501 4.62273 0 0 0 0 128 128 255
1.94005 1.95 4.62273 0 0 0 0 128 128 255
1.54106 0.705257 4.63051 0 0 0 0 128 128 255
1.90688 1.94862 4.63595 0 0 0 0 128 128 255
1.8854 1.97295 4.6476 0 0 0 0 128 128 255
1.80893 1.7349 4.64916 0 0 0 0 128 128 255
1.87073 1.96906 4.65304 0 0 0 0 128 128 255
1.80557 1.80284 4.65887 0 0 0 0 128 128 255
1.80255 2.0045 4.68491 0 0 0 0 128 128 255
1.79139 2.00581 4.68957 0 0 0 0 128 128 255
