ply
format ascii 1.0
comment VCGLIB generated
element vertex 225
property float x
property float y
property float z
property float nx
property float ny
property float nz
property uchar red
property uchar green
property uchar blue
property uchar alpha
element face 0
property list uchar int vertex_indices
end_header
-0.351843 1.34814 3.97498 0 0 0 128 0 128 255
-0.406447 1.25814 4.0209 0 0 0 128 0 128 255
-0.434919 1.24467 4.02627 0 0 0 128 0 128 255
-0.21853 1.24089 4.04435 0 0 0 128 0 128 255
-0.438586 1.11302 4.09907 0 0 0 128 0 128 255
-0.319705 1.1218 4.10298 0 0 0 128 0 128 255
-0.293587 1.12264 4.10444 0 0 0 128 0 128 255
-0.435753 1.09932 4.10688 0 0 0 128 0 128 255
-0.282594 1.10825 4.11323 0 0 0 128 0 128 255
-0.196106 1.09512 4.12691 0 0 0 128 0 128 255
-0.416166 1.06583 4.12691 0 0 0 128 0 128 255
-0.195875 1.09339 4.12789 0 0 0 128 0 128 255
0.140512 1.03692 4.18407 0 0 0 128 0 128 255
0.079399 1.02615 4.18554 0 0 0 128 0 128 255
0.117297 1.02943 4.18652 0 0 0 128 0 128 255
0.941081 1.13113 4.19091 0 0 0 128 0 128 255
0.124511 1.02071 4.19189 0 0 0 128 0 128 255
0.737616 1.09085 4.19824 0 0 0 128 0 128 255
-0.0891933 0.958824 4.21045 0 0 0 128 0 128 255
-0.0928836 0.94865 4.21583 0 0 0 128 0 128 255
-0.354347 0.912097 4.21681 0 0 0 128 0 128 255
0.0344583 0.962075 4.21778 0 0 0 128 0 128 255
0.0382378 0.956416 4.2212 0 0 0 128 0 128 255
-0.074536 0.939649 4.22218 0 0 0 128 0 128 255
-0.0914133 0.922439 4.23048 0 0 0 128 0 128 255
1.01804 1.06831 4.23146 0 0 0 128 0 128 255
-0.12786 0.915829 4.23146 0 0 0 128 0 128 255
0.562103 0.99972 4.23586 0 0 0 128 0 128 255
-0.211612 0.893241 4.23781 0 0 0 128 0 128 255
-0.101653 0.900831 4.24172 0 0 0 128 0 128 255
0.55267 0.972058 4.25052 0 0 0 128 0 128 255
0.901497 0.99647 4.26273 0 0 0 128 0 128 255
0.895665 0.994814 4.26322 0 0 0 128 0 128 255
-0.122361 0.859345 4.26322 0 0 0 128 0 128 255
-0.128955 0.855827 4.26468 0 0 0 128 0 128 255
-0.12483 0.847574 4.26957 0 0 0 128 0 128 255
0.882912 0.969351 4.27641 0 0 0 128 0 128 255
0.858361 0.964323 4.27739 0 0 0 128 0 128 255
-0.124856 0.832606 4.27787 0 0 0 128 0 128 255
-0.128246 0.827754 4.28032 0 0 0 128 0 128 255
0.259286 0.849395 4.29693 0 0 0 128 0 128 255
0.0416688 0.816916 4.29888 0 0 0 128 0 128 255
0.0480767 0.814248 4.30084 0 0 0 128 0 128 255
0.716763 0.898829 4.30328 0 0 0 128 0 128 255
0.0399611 0.807006 4.30426 0 0 0 128 0 128 255
0.0171621 0.803972 4.30426 0 0 0 128 0 128 255
0.0670704 0.807973 4.30572 0 0 0 128 0 128 255
0.0803021 0.807093 4.30719 0 0 0 128 0 128 255
0.0194193 0.79459 4.30963 0 0 0 128 0 128 255
0.0769571 0.794325 4.31403 0 0 0 128 0 128 255
0.0442901 0.782055 4.31842 0 0 0 128 0 128 255
0.880499 0.888929 4.32087 0 0 0 128 0 128 255
0.680265 0.862283 4.32087 0 0 0 128 0 128 255
-0.072289 0.755979 4.32429 0 0 0 128 0 128 255
0.926487 0.884485 4.32673 0 0 0 128 0 128 255
1.76205 0.988632 4.33064 0 0 0 128 0 128 255
0.881509 0.866177 4.33357 0 0 0 128 0 128 255
0.240738 0.776508 4.33601 0 0 0 128 0 128 255
0.681089 0.833345 4.33699 0 0 0 128 0 128 255
0.877058 0.854142 4.33992 0 0 0 128 0 128 255
0.536754 0.803576 4.34285 0 0 0 128 0 128 255
-0.0559052 0.723831 4.34334 0 0 0 128 0 128 255
0.532489 0.797727 4.34578 0 0 0 128 0 128 255
0.521329 0.783039 4.35311 0 0 0 128 0 128 255
0.513859 0.778524 4.35506 0 0 0 128 0 128 255
0.908496 0.830158 4.35555 0 0 0 128 0 128 255
0.534145 0.777702 4.35702 0 0 0 128 0 128 255
0.52633 0.775782 4.35751 0 0 0 128 0 128 255
0.0525064 0.71273 4.35751 0 0 0 128 0 128 255
0.704987 0.797795 4.35848 0 0 0 128 0 128 255
0.0913957 0.716145 4.35848 0 0 0 128 0 128 255
0.0547191 0.711264 4.35848 0 0 0 128 0 128 255
1.00645 0.83703 4.35897 0 0 0 128 0 128 255
0.975717 0.832941 4.35897 0 0 0 128 0 128 255
0.916241 0.825027 4.35897 0 0 0 128 0 128 255
0.913267 0.824631 4.35897 0 0 0 128 0 128 255
0.883529 0.820674 4.35897 0 0 0 128 0 128 255
1.02154 0.837279 4.35995 0 0 0 128 0 128 255
0.504221 0.767559 4.36044 0 0 0 128 0 128 255
0.97023 0.82869 4.36093 0 0 0 128 0 128 255
0.971451 0.827092 4.3619 0 0 0 128 0 128 255
0.879379 0.81396 4.36239 0 0 0 128 0 128 255
0.082634 0.706177 4.36337 0 0 0 128 0 128 255
1.01454 0.829304 4.36386 0 0 0 128 0 128 255
1.10101 0.839051 4.36483 0 0 0 128 0 128 255
1.01092 0.826182 4.36532 0 0 0 128 0 128 255
1.0715 0.833364 4.36581 0 0 0 128 0 128 255
1.01797 0.826241 4.36581 0 0 0 128 0 128 255
1.11931 0.837965 4.36679 0 0 0 128 0 128 255
0.713582 0.778694 4.36972 0 0 0 128 0 128 255
1.11417 0.831119 4.37021 0 0 0 128 0 128 255
0.725592 0.779412 4.37021 0 0 0 128 0 128 255
1.15714 0.834197 4.37167 0 0 0 128 0 128 255
0.732991 0.776875 4.37216 0 0 0 128 0 128 255
1.12168 0.827718 4.37265 0 0 0 128 0 128 255
0.994799 0.810834 4.37265 0 0 0 128 0 128 255
1.16255 0.831397 4.37363 0 0 0 128 0 128 255
0.997127 0.808503 4.37412 0 0 0 128 0 128 255
0.724645 0.771364 4.37461 0 0 0 128 0 128 255
1.04196 0.812709 4.37509 0 0 0 128 0 128 255
1.091 0.815713 4.37705 0 0 0 128 0 128 255
0.0531451 0.677606 4.37705 0 0 0 128 0 128 255
1.13782 0.820183 4.37803 0 0 0 128 0 128 255
1.13904 0.818585 4.379 0 0 0 128 0 128 255
0.728239 0.759519 4.38144 0 0 0 128 0 128 255
0.107293 0.672488 4.38389 0 0 0 128 0 128 255
0.685775 0.745066 4.38633 0 0 0 128 0 128 255
1.45435 0.844699 4.3878 0 0 0 128 0 128 255
1.56053 0.857948 4.38828 0 0 0 128 0 128 255
1.55172 0.855896 4.38877 0 0 0 128 0 128 255
1.55778 0.855823 4.38926 0 0 0 128 0 128 255
1.45965 0.842764 4.38926 0 0 0 128 0 128 255
0.679526 0.738953 4.38926 0 0 0 128 0 128 255
1.26133 0.809331 4.39317 0 0 0 128 0 128 255
0.679571 0.731037 4.39366 0 0 0 128 0 128 255
0.0530933 0.647671 4.39366 0 0 0 128 0 128 255
0.0676615 0.644328 4.39659 0 0 0 128 0 128 255
1.47747 0.830171 4.39757 0 0 0 128 0 128 255
1.02358 0.768892 4.39806 0 0 0 128 0 128 255
1.69688 0.856727 4.39903 0 0 0 128 0 128 255
1.47583 0.827312 4.39903 0 0 0 128 0 128 255
1.54632 0.835813 4.39952 0 0 0 128 0 128 255
0.987252 0.761417 4.39952 0 0 0 128 0 128 255
1.52684 0.83058 4.40099 0 0 0 128 0 128 255
1.58205 0.832645 4.40392 0 0 0 128 0 128 255
1.11913 0.771044 4.40392 0 0 0 128 0 128 255
1.00846 0.753676 4.40538 0 0 0 128 0 128 255
0.988633 0.751038 4.40538 0 0 0 128 0 128 255
0.720992 0.715423 4.40538 0 0 0 128 0 128 255
1.5649 0.825081 4.40685 0 0 0 128 0 128 255
1.55411 0.822765 4.40734 0 0 0 128 0 128 255
1.00495 0.749689 4.40734 0 0 0 128 0 128 255
1.11323 0.762337 4.40831 0 0 0 128 0 128 255
0.664535 0.699988 4.40978 0 0 0 128 0 128 255
1.61924 0.82615 4.41027 0 0 0 128 0 128 255
1.69976 0.835105 4.41125 0 0 0 128 0 128 255
0.992227 0.739193 4.41222 0 0 0 128 0 128 255
1.15525 0.757366 4.41418 0 0 0 128 0 128 255
1.14039 0.755387 4.41418 0 0 0 128 0 128 255
1.02936 0.740614 4.41418 0 0 0 128 0 128 255
1.67514 0.823026 4.41613 0 0 0 128 0 128 255
1.20837 0.760033 4.41662 0 0 0 128 0 128 255
0.987315 0.730617 4.41662 0 0 0 128 0 128 255
0.996697 0.728345 4.41857 0 0 0 128 0 128 255
1.02556 0.731305 4.41906 0 0 0 128 0 128 255
1.0129 0.727861 4.42004 0 0 0 128 0 128 255
1.00013 0.725281 4.42053 0 0 0 128 0 128 255
1.14013 0.74215 4.42151 0 0 0 128 0 128 255
1.03506 0.728168 4.42151 0 0 0 128 0 128 255
1.0224 0.724723 4.42248 0 0 0 128 0 128 255
0.995865 0.719432 4.42346 0 0 0 128 0 128 255
1.02274 0.722128 4.42395 0 0 0 128 0 128 255
0.987289 0.71565 4.42493 0 0 0 128 0 128 255
0.969447 0.713276 4.42493 0 0 0 128 0 128 255
1.23225 0.747366 4.42541 0 0 0 128 0 128 255
1.09813 0.724237 4.42835 0 0 0 128 0 128 255
1.17358 0.733397 4.42883 0 0 0 128 0 128 255
1.126 0.727066 4.42883 0 0 0 128 0 128 255
1.22139 0.737999 4.42981 0 0 0 128 0 128 255
1.12855 0.723005 4.43128 0 0 0 128 0 128 255
0.46639 0.634891 4.43128 0 0 0 128 0 128 255
1.3061 0.745751 4.43176 0 0 0 128 0 128 255
1.4763 0.763118 4.4347 0 0 0 128 0 128 255
1.32067 0.742409 4.4347 0 0 0 128 0 128 255
0.432732 0.62249 4.43567 0 0 0 128 0 128 255
1.46277 0.758677 4.43616 0 0 0 128 0 128 255
0.990052 0.694892 4.43665 0 0 0 128 0 128 255
1.04381 0.700285 4.43763 0 0 0 128 0 128 255
1.09757 0.705678 4.4386 0 0 0 128 0 128 255
1.6181 0.774065 4.43909 0 0 0 128 0 128 255
1.25762 0.723456 4.44056 0 0 0 128 0 128 255
1.08812 0.7009 4.44056 0 0 0 128 0 128 255
1.44211 0.747126 4.44105 0 0 0 128 0 128 255
1.32019 0.730901 4.44105 0 0 0 128 0 128 255
0.447 0.613826 4.44154 0 0 0 128 0 128 255
1.38653 0.732687 4.44496 0 0 0 128 0 128 255
1.26186 0.714337 4.44593 0 0 0 128 0 128 255
1.29766 0.718221 4.44642 0 0 0 128 0 128 255
1.17101 0.699607 4.4474 0 0 0 128 0 128 255
1.57457 0.752428 4.44789 0 0 0 128 0 128 255
1.3892 0.727762 4.44789 0 0 0 128 0 128 255
1.41491 0.72414 4.4518 0 0 0 128 0 128 255
1.47152 0.730794 4.45228 0 0 0 128 0 128 255
1.33969 0.71325 4.45228 0 0 0 128 0 128 255
1.51624 0.735865 4.45277 0 0 0 128 0 128 255
1.62936 0.750037 4.45326 0 0 0 128 0 128 255
1.52609 0.730133 4.45668 0 0 0 128 0 128 255
1.73338 0.756836 4.45717 0 0 0 128 0 128 255
1.60165 0.738428 4.45766 0 0 0 128 0 128 255
1.43943 0.7142 4.45912 0 0 0 128 0 128 255
1.54275 0.726189 4.4601 0 0 0 128 0 128 255
1.71756 0.74681 4.46157 0 0 0 128 0 128 255
1.52041 0.719695 4.46205 0 0 0 128 0 128 255
1.41633 0.705845 4.46205 0 0 0 128 0 128 255
1.58992 0.728064 4.46254 0 0 0 128 0 128 255
1.65546 0.735905 4.46303 0 0 0 128 0 128 255
1.53948 0.720472 4.46303 0 0 0 128 0 128 255
1.65493 0.732313 4.46499 0 0 0 128 0 128 255
1.65847 0.728384 4.46743 0 0 0 128 0 128 255
1.5359 0.709433 4.46889 0 0 0 128 0 128 255
1.59549 0.716483 4.46938 0 0 0 128 0 128 255
1.47502 0.69693 4.47134 0 0 0 128 0 128 255
1.57339 0.708259 4.47231 0 0 0 128 0 128 255
0.366143 0.546731 4.4728 0 0 0 128 0 128 255
0.364276 0.545603 4.47329 0 0 0 128 0 128 255
0.368471 0.5444 4.47427 0 0 0 128 0 128 255
0.203595 0.502215 4.4855 0 0 0 128 0 128 255
1.44772 0.651926 4.4943 0 0 0 128 0 128 255
0.233121 0.485019 4.49723 0 0 0 128 0 128 255
1.34094 0.628034 4.49967 0 0 0 128 0 128 255
0.240866 0.479888 4.50065 0 0 0 128 0 128 255
1.34723 0.626231 4.50114 0 0 0 128 0 128 255
1.34174 0.62198 4.50309 0 0 0 128 0 128 255
1.41422 0.630744 4.50358 0 0 0 128 0 128 255
1.41533 0.630011 4.50407 0 0 0 128 0 128 255
1.29962 0.604932 4.50944 0 0 0 128 0 128 255
1.3111 0.602059 4.51189 0 0 0 128 0 128 255
1.31034 0.600197 4.51286 0 0 0 128 0 128 255
1.45045 0.616201 4.51433 0 0 0 128 0 128 255
0.191897 0.446084 4.51579 0 0 0 128 0 128 255
1.22403 0.58167 4.51677 0 0 0 128 0 128 255
1.22438 0.579075 4.51824 0 0 0 128 0 128 255
1.22781 0.576011 4.52019 0 0 0 128 0 128 255
0.279403 0.448046 4.52117 0 0 0 128 0 128 255
1.59695 0.61457 4.52605 0 0 0 128 0 128 255
