ply
format ascii 1.0
comment VCGLIB generated
element vertex 244
property float x
property float y
property float z
property float nx
property float ny
property float nz
property uchar red
property uchar green
property uchar blue
property uchar alpha
element face 0
property list uchar int vertex_indices
end_header
3.87765 1.09205 3.16015 0 0 0 0 0 128 255
3.87391 1.14846 3.18393 0 0 0 0 0 128 255
3.8552 1.27708 3.26957 0 0 0 0 0 128 255
3.86598 1.45677 3.27528 0 0 0 0 0 128 255
3.86137 1.45709 3.28955 0 0 0 0 0 128 255
3.8625 1.53019 3.30192 0 0 0 0 0 128 255
3.85831 1.54954 3.31905 0 0 0 0 0 128 255
3.85541 1.54773 3.32761 0 0 0 0 0 128 255
3.84714 1.73277 3.39327 0 0 0 0 0 128 255
3.84669 1.7308 3.39422 0 0 0 0 0 128 255
3.84425 1.75302 3.40659 0 0 0 0 0 128 255
3.84169 1.7913 3.42277 0 0 0 0 0 128 255
3.84235 1.83135 3.42943 0 0 0 0 0 128 255
3.83934 1.84559 3.4418 0 0 0 0 0 128 255
3.80358 1.38497 3.45226 0 0 0 0 0 128 255
3.77955 1.122 3.46939 0 0 0 0 0 128 255
3.83523 1.92307 3.47129 0 0 0 0 0 128 255
3.83495 1.95417 3.47891 0 0 0 0 0 128 255
3.76801 1.02357 3.48366 0 0 0 0 0 128 255
3.77124 1.09151 3.48842 0 0 0 0 0 128 255
3.76932 1.06859 3.48937 0 0 0 0 0 128 255
3.83477 2.0043 3.49033 0 0 0 0 0 128 255
3.76789 1.08774 3.49794 0 0 0 0 0 128 255
3.76476 1.05187 3.49984 0 0 0 0 0 128 255
3.76427 1.06694 3.5046 0 0 0 0 0 128 255
3.8329 2.04353 3.5046 0 0 0 0 0 128 255
3.82715 2.00985 3.51506 0 0 0 0 0 128 255
3.75753 1.03233 3.51792 0 0 0 0 0 128 255
3.81234 1.8124 3.51792 0 0 0 0 0 128 255
3.80916 1.80661 3.52648 0 0 0 0 0 128 255
3.81923 1.95427 3.52743 0 0 0 0 0 128 255
3.80865 1.8257 3.53219 0 0 0 0 0 128 255
3.80673 1.80277 3.53314 0 0 0 0 0 128 255
3.80766 1.82476 3.53505 0 0 0 0 0 128 255
3.84019 2.32271 3.54266 0 0 0 0 0 128 255
3.83772 2.34895 3.55598 0 0 0 0 0 128 255
3.72574 0.759887 3.55693 0 0 0 0 0 128 255
3.72458 0.76097 3.56074 0 0 0 0 0 128 255
3.7238 0.798117 3.5712 0 0 0 0 0 128 255
3.7252 0.818067 3.5712 0 0 0 0 0 128 255
3.72888 0.887981 3.57501 0 0 0 0 0 128 255
3.71801 0.746395 3.57787 0 0 0 0 0 128 255
3.71866 0.764394 3.57977 0 0 0 0 0 128 255
3.72637 0.874124 3.57977 0 0 0 0 0 128 255
3.71986 0.790373 3.58167 0 0 0 0 0 128 255
3.74501 1.17456 3.58738 0 0 0 0 0 128 255
3.72487 0.892273 3.58833 0 0 0 0 0 128 255
3.71552 0.763612 3.58928 0 0 0 0 0 128 255
3.71964 0.8355 3.59214 0 0 0 0 0 128 255
3.71931 0.839533 3.59404 0 0 0 0 0 128 255
3.72099 0.863474 3.59404 0 0 0 0 0 128 255
3.72118 0.870478 3.59499 0 0 0 0 0 128 255
3.71339 0.772784 3.59785 0 0 0 0 0 128 255
3.73358 1.06008 3.59785 0 0 0 0 0 128 255
3.7121 0.75884 3.5988 0 0 0 0 0 128 255
3.70965 0.74598 3.60356 0 0 0 0 0 128 255
3.72345 0.955528 3.60641 0 0 0 0 0 128 255
3.74042 1.19693 3.60641 0 0 0 0 0 128 255
3.71922 0.934774 3.61497 0 0 0 0 0 128 255
3.71005 0.813117 3.61688 0 0 0 0 0 128 255
3.72297 1.00569 3.61878 0 0 0 0 0 128 255
3.79041 1.96532 3.61878 0 0 0 0 0 128 255
3.7088 0.852301 3.62925 0 0 0 0 0 128 255
3.71487 0.943099 3.6302 0 0 0 0 0 128 255
3.79391 2.08537 3.63401 0 0 0 0 0 128 255
3.79309 2.08242 3.63591 0 0 0 0 0 128 255
3.70814 0.882422 3.63781 0 0 0 0 0 128 255
3.79322 2.09745 3.63876 0 0 0 0 0 128 255
3.70746 0.881467 3.63971 0 0 0 0 0 128 255
3.69632 0.744912 3.64447 0 0 0 0 0 128 255
3.72482 1.16796 3.64828 0 0 0 0 0 128 255
3.75897 1.66278 3.65018 0 0 0 0 0 128 255
3.7911 2.12867 3.65208 0 0 0 0 0 128 255
3.77985 1.97308 3.65304 0 0 0 0 0 128 255
3.7412 1.42744 3.65399 0 0 0 0 0 128 255
3.70963 0.982564 3.65494 0 0 0 0 0 128 255
3.78863 2.10679 3.65494 0 0 0 0 0 128 255
3.70813 0.965627 3.65589 0 0 0 0 0 128 255
3.71419 1.06946 3.6597 0 0 0 0 0 128 255
3.70372 0.924836 3.66065 0 0 0 0 0 128 255
3.70391 0.93184 3.6616 0 0 0 0 0 128 255
3.74555 1.52438 3.6616 0 0 0 0 0 128 255
3.71517 1.09646 3.66255 0 0 0 0 0 128 255
3.72023 1.1773 3.66445 0 0 0 0 0 128 255
3.69476 0.819204 3.66541 0 0 0 0 0 128 255
3.78491 2.10204 3.66541 0 0 0 0 0 128 255
3.78505 2.10404 3.66541 0 0 0 0 0 128 255
3.68931 0.750417 3.66731 0 0 0 0 0 128 255
3.71788 1.16143 3.66826 0 0 0 0 0 128 255
3.69409 0.827271 3.66921 0 0 0 0 0 128 255
3.75571 1.70411 3.66921 0 0 0 0 0 128 255
3.69617 0.861209 3.67016 0 0 0 0 0 128 255
3.73781 1.45375 3.67016 0 0 0 0 0 128 255
3.6925 0.813348 3.67111 0 0 0 0 0 128 255
3.67975 0.65385 3.67587 0 0 0 0 0 128 255
3.745 1.59559 3.67873 0 0 0 0 0 128 255
3.73621 1.47491 3.67968 0 0 0 0 0 128 255
3.74462 1.59462 3.67968 0 0 0 0 0 128 255
3.74511 1.6016 3.67968 0 0 0 0 0 128 255
3.67821 0.653958 3.68063 0 0 0 0 0 128 255
3.69012 0.836572 3.68348 0 0 0 0 0 128 255
3.69418 0.907462 3.68634 0 0 0 0 0 128 255
3.72915 1.41827 3.68919 0 0 0 0 0 128 255
3.72919 1.42328 3.69015 0 0 0 0 0 128 255
3.69468 0.936499 3.6911 0 0 0 0 0 128 255
3.70323 1.0582 3.6911 0 0 0 0 0 128 255
3.72855 1.42733 3.693 0 0 0 0 0 128 255
3.67347 0.652286 3.6949 0 0 0 0 0 128 255
3.74146 1.63293 3.69776 0 0 0 0 0 128 255
3.70743 1.15314 3.69871 0 0 0 0 0 128 255
3.70159 1.07435 3.69966 0 0 0 0 0 128 255
3.70769 1.16114 3.69966 0 0 0 0 0 128 255
3.70515 1.13826 3.70252 0 0 0 0 0 128 255
3.7381 1.6071 3.70252 0 0 0 0 0 128 255
3.69784 1.03853 3.70347 0 0 0 0 0 128 255
3.69865 1.05451 3.70442 0 0 0 0 0 128 255
3.73279 1.54031 3.70442 0 0 0 0 0 128 255
3.73664 1.60821 3.70727 0 0 0 0 0 128 255
3.78657 2.32748 3.70918 0 0 0 0 0 128 255
3.74286 1.72306 3.71298 0 0 0 0 0 128 255
3.70194 1.14951 3.71489 0 0 0 0 0 128 255
3.71989 1.42694 3.71964 0 0 0 0 0 128 255
3.74111 1.7332 3.72059 0 0 0 0 0 128 255
3.78209 2.32078 3.72155 0 0 0 0 0 128 255
3.73749 1.69937 3.7244 0 0 0 0 0 128 255
3.71945 1.44702 3.72535 0 0 0 0 0 128 255
3.69903 1.16075 3.7263 0 0 0 0 0 128 255
3.73926 1.73333 3.7263 0 0 0 0 0 128 255
3.69893 1.16376 3.72725 0 0 0 0 0 128 255
3.7774 2.31108 3.73392 0 0 0 0 0 128 255
3.6921 1.1061 3.73582 0 0 0 0 0 128 255
3.69318 1.15213 3.74248 0 0 0 0 0 128 255
3.77709 2.34619 3.74248 0 0 0 0 0 128 255
3.68384 1.04553 3.74819 0 0 0 0 0 128 255
3.77365 2.3324 3.75009 0 0 0 0 0 128 255
3.70675 1.38475 3.75104 0 0 0 0 0 128 255
3.74357 1.91748 3.75295 0 0 0 0 0 128 255
3.77202 2.33552 3.7558 0 0 0 0 0 128 255
3.77144 2.33155 3.75675 0 0 0 0 0 128 255
3.68747 1.14552 3.75866 0 0 0 0 0 128 255
3.73912 1.90677 3.76436 0 0 0 0 0 128 255
3.73982 1.91675 3.76436 0 0 0 0 0 128 255
3.68384 1.13775 3.76817 0 0 0 0 0 128 255
3.73817 1.91085 3.76817 0 0 0 0 0 128 255
3.6821 1.13487 3.77293 0 0 0 0 0 128 255
3.682 1.13788 3.77388 0 0 0 0 0 128 255
3.72891 1.82729 3.77864 0 0 0 0 0 128 255
3.66875 1.12478 3.81194 0 0 0 0 0 128 255
3.63037 0.596169 3.81575 0 0 0 0 0 128 255
3.71755 1.87621 3.82431 0 0 0 0 0 128 255
3.62528 0.576477 3.82717 0 0 0 0 0 128 255
3.64286 0.888012 3.84049 0 0 0 0 0 128 255
3.63525 0.797322 3.84429 0 0 0 0 0 128 255
3.70743 1.8288 3.84524 0 0 0 0 0 128 255
3.70675 1.82785 3.84715 0 0 0 0 0 128 255
3.64363 0.934071 3.8481 0 0 0 0 0 128 255
3.71299 2.07903 3.88235 0 0 0 0 0 128 255
3.61689 0.803625 3.90234 0 0 0 0 0 128 255
3.63192 1.04817 3.909 0 0 0 0 0 128 255
3.63457 1.1342 3.91946 0 0 0 0 0 128 255
3.6228 1.02375 3.93183 0 0 0 0 0 128 255
3.6198 0.989879 3.93374 0 0 0 0 0 128 255
3.61949 1.00293 3.93754 0 0 0 0 0 128 255
3.62414 1.09985 3.9442 0 0 0 0 0 128 255
3.60373 0.822594 3.94706 0 0 0 0 0 128 255
3.59459 0.696925 3.94801 0 0 0 0 0 128 255
3.61699 1.03318 3.95181 0 0 0 0 0 128 255
3.61344 1.01338 3.95848 0 0 0 0 0 128 255
3.61372 1.01737 3.95848 0 0 0 0 0 128 255
3.59447 0.831264 3.97751 0 0 0 0 0 128 255
3.60798 1.0278 3.97846 0 0 0 0 0 128 255
3.60912 1.07484 3.98512 0 0 0 0 0 128 255
3.59591 0.904343 3.98892 0 0 0 0 0 128 255
3.60406 1.09925 4.00605 0 0 0 0 0 128 255
3.57875 0.809312 4.02128 0 0 0 0 0 128 255
3.5775 0.800378 4.02318 0 0 0 0 0 128 255
3.59014 0.988956 4.02508 0 0 0 0 0 128 255
3.59532 1.07581 4.02794 0 0 0 0 0 128 255
3.57402 0.781575 4.02984 0 0 0 0 0 128 255
3.59622 1.13689 4.0384 0 0 0 0 0 128 255
3.59005 1.11928 4.05363 0 0 0 0 0 128 255
3.58811 1.12243 4.06029 0 0 0 0 0 128 255
3.57191 0.905027 4.06314 0 0 0 0 0 128 255
3.56487 0.809285 4.0641 0 0 0 0 0 128 255
3.56741 0.854218 4.066 0 0 0 0 0 128 255
3.58575 1.11958 4.06695 0 0 0 0 0 128 255
3.57525 0.978975 4.06885 0 0 0 0 0 128 255
3.58417 1.11468 4.07076 0 0 0 0 0 128 255
3.5831 1.10373 4.07171 0 0 0 0 0 128 255
3.55159 0.694935 4.08027 0 0 0 0 0 128 255
3.55951 0.807657 4.08027 0 0 0 0 0 128 255
3.57288 1.0022 4.08122 0 0 0 0 0 128 255
3.57944 1.09998 4.08217 0 0 0 0 0 128 255
3.54922 0.683072 4.08503 0 0 0 0 0 128 255
3.57028 1.00038 4.08883 0 0 0 0 0 128 255
3.55422 0.784972 4.09169 0 0 0 0 0 128 255
3.5759 1.10223 4.09359 0 0 0 0 0 128 255
3.55855 0.872885 4.0974 0 0 0 0 0 128 255
3.55911 0.880865 4.0974 0 0 0 0 0 128 255
3.55137 0.775147 4.09835 0 0 0 0 0 128 255
3.54882 0.778334 4.10691 0 0 0 0 0 128 255
3.56221 0.968864 4.10691 0 0 0 0 0 128 255
3.57061 1.1016 4.10977 0 0 0 0 0 128 255
3.54761 0.787441 4.11262 0 0 0 0 0 128 255
3.54707 0.788482 4.11453 0 0 0 0 0 128 255
3.56102 0.986992 4.11453 0 0 0 0 0 128 255
3.5372 0.65685 4.11643 0 0 0 0 0 128 255
3.53755 0.661838 4.11643 0 0 0 0 0 128 255
3.56443 1.09702 4.12785 0 0 0 0 0 128 255
3.55449 0.977427 4.1326 0 0 0 0 0 128 255
3.54945 0.962744 4.14497 0 0 0 0 0 128 255
3.54647 0.937892 4.14878 0 0 0 0 0 128 255
3.54696 0.944874 4.14878 0 0 0 0 0 128 255
3.55496 1.08065 4.15354 0 0 0 0 0 128 255
3.55354 1.08676 4.15925 0 0 0 0 0 128 255
3.55302 1.08379 4.1602 0 0 0 0 0 128 255
3.53642 0.856395 4.1621 0 0 0 0 0 128 255
3.53822 0.886343 4.16305 0 0 0 0 0 128 255
3.53584 0.87448 4.16781 0 0 0 0 0 128 255
3.54788 1.07212 4.17352 0 0 0 0 0 128 255
3.54262 1.04543 4.18399 0 0 0 0 0 128 255
3.53495 0.940706 4.18494 0 0 0 0 0 128 255
3.53745 1.03777 4.19826 0 0 0 0 0 128 255
3.53835 1.06377 4.20111 0 0 0 0 0 128 255
3.52956 0.956122 4.20492 0 0 0 0 0 128 255
3.52404 0.886337 4.20682 0 0 0 0 0 128 255
3.52203 0.888483 4.21348 0 0 0 0 0 128 255
3.53402 1.05906 4.21348 0 0 0 0 0 128 255
3.51638 0.825725 4.21729 0 0 0 0 0 128 255
3.52869 1.01834 4.2211 0 0 0 0 0 128 255
3.53053 1.05329 4.223 0 0 0 0 0 128 255
3.51392 0.83893 4.22776 0 0 0 0 0 128 255
3.51305 0.830971 4.22871 0 0 0 0 0 128 255
3.51319 0.832966 4.22871 0 0 0 0 0 128 255
3.52297 1.02475 4.24013 0 0 0 0 0 128 255
3.52287 1.02777 4.24108 0 0 0 0 0 128 255
3.51321 0.91216 4.24584 0 0 0 0 0 128 255
3.51185 0.897218 4.24679 0 0 0 0 0 128 255
3.50775 0.856405 4.25059 0 0 0 0 0 128 255
3.50565 0.848533 4.25535 0 0 0 0 0 128 255
3.50395 0.828604 4.2563 0 0 0 0 0 128 255
3.53381 1.32373 4.27153 0 0 0 0 0 128 255
3.52902 1.31705 4.28485 0 0 0 0 0 128 255
3.49214 0.805374 4.2877 0 0 0 0 0 128 255
