ply
format ascii 1.0
comment VCGLIB generated
element vertex 6
property float x
property float y
property float z
property float nx
property float ny
property float nz
property uchar red
property uchar green
property uchar blue
property uchar alpha
element face 0
property list uchar int vertex_indices
end_header
-0.319002 0.871177 5.49508 0 0 0 0 128 0 255
-0.283826 1.07261 5.49618 0 0 0 0 128 0 255
-0.278333 1.07965 5.49669 0 0 0 0 128 0 255
-0.242687 1.00824 5.50251 0 0 0 0 128 0 255
-0.283316 1.13252 5.49491 0 0 0 0 128 0 255
-0.254866 1.09525 5.49908 0 0 0 0 128 0 255
