ply
format ascii 1.0
comment VCGLIB generated
element vertex 179
property float x
property float y
property float z
property float nx
property float ny
property float nz
property uchar red
property uchar green
property uchar blue
property uchar alpha
element face 0
property list uchar int vertex_indices
end_header
-1.62051 0.641099 5.16993 0 0 0 255 255 0 255
-1.49373 0.566234 5.20187 0 0 0 255 255 0 255
-1.5115 0.649686 5.20879 0 0 0 255 255 0 255
-1.49079 0.65897 5.21708 0 0 0 255 255 0 255
-1.4432 0.635678 5.22945 0 0 0 255 255 0 255
-1.48539 0.760421 5.23277 0 0 0 255 255 0 255
-1.30557 0.61628 5.27105 0 0 0 255 255 0 255
-1.30164 0.617861 5.27248 0 0 0 255 255 0 255
-1.42582 0.749661 5.2501 0 0 0 255 255 0 255
-1.4006 0.728949 5.25539 0 0 0 255 255 0 255
-1.30406 0.640984 5.27458 0 0 0 255 255 0 255
-1.42428 0.801847 5.25674 0 0 0 255 255 0 255
-1.34892 0.734774 5.2719 0 0 0 255 255 0 255
-1.42542 0.808137 5.25711 0 0 0 255 255 0 255
-1.28472 0.709483 5.28835 0 0 0 255 255 0 255
-1.29282 0.718279 5.28689 0 0 0 255 255 0 255
-1.29384 0.723167 5.28712 0 0 0 255 255 0 255
-1.26435 0.699834 5.29335 0 0 0 255 255 0 255
-1.47875 0.917798 5.25318 0 0 0 255 255 0 255
-1.20284 0.665271 5.30784 0 0 0 255 255 0 255
-1.52116 0.970158 5.24618 0 0 0 255 255 0 255
-1.3933 0.871645 5.27338 0 0 0 255 255 0 255
-1.40158 0.883256 5.27213 0 0 0 255 255 0 255
-1.3374 0.830485 5.28543 0 0 0 255 255 0 255
-1.29001 0.814337 5.29743 0 0 0 255 255 0 255
-1.42356 0.945745 5.27184 0 0 0 255 255 0 255
-1.53909 1.05258 5.24907 0 0 0 255 255 0 255
-1.25788 0.822897 5.30725 0 0 0 255 255 0 255
-1.63291 1.17103 5.23343 0 0 0 255 255 0 255
-1.61095 1.15865 5.23846 0 0 0 255 255 0 255
-1.48824 1.04649 5.26276 0 0 0 255 255 0 255
-1.28934 0.865197 5.3022 0 0 0 255 255 0 255
-1.34212 0.920617 5.29236 0 0 0 255 255 0 255
-1.29008 0.876461 5.30296 0 0 0 255 255 0 255
-1.34539 0.928937 5.29217 0 0 0 255 255 0 255
-1.27674 0.870734 5.30615 0 0 0 255 255 0 255
-1.44605 1.03789 5.27365 0 0 0 255 255 0 255
-1.56367 1.17713 5.2529 0 0 0 255 255 0 255
-1.59146 1.20548 5.24762 0 0 0 255 255 0 255
-1.41063 1.03957 5.28337 0 0 0 255 255 0 255
-1.23288 0.879173 5.31872 0 0 0 255 255 0 255
-1.22742 0.879433 5.3202 0 0 0 255 255 0 255
-1.33359 0.989546 5.30017 0 0 0 255 255 0 255
-1.23466 0.907354 5.32035 0 0 0 255 255 0 255
-1.1232 0.810921 5.3428 0 0 0 255 255 0 255
-1.2322 0.911713 5.32131 0 0 0 255 255 0 255
-1.11301 0.812116 5.34556 0 0 0 255 255 0 255
-1.05889 0.789978 5.35814 0 0 0 255 255 0 255
-1.12963 0.859386 5.34445 0 0 0 255 255 0 255
-0.983928 0.729964 5.37352 0 0 0 255 255 0 255
-1.04941 0.791849 5.3607 0 0 0 255 255 0 255
-1.0336 0.779887 5.36399 0 0 0 255 255 0 255
-1.03411 0.788347 5.3644 0 0 0 255 255 0 255
-1.03855 0.793788 5.36361 0 0 0 255 255 0 255
-1.04219 0.797148 5.36289 0 0 0 255 255 0 255
-1.12455 0.877307 5.3469 0 0 0 255 255 0 255
-1.10801 0.864674 5.35033 0 0 0 255 255 0 255
-0.94635 0.732491 5.38325 0 0 0 255 255 0 255
-0.946213 0.741691 5.38383 0 0 0 255 255 0 255
-1.10825 0.891535 5.35188 0 0 0 255 255 0 255
-1.02125 0.825744 5.36987 0 0 0 255 255 0 255
-1.30432 1.09418 5.31444 0 0 0 255 255 0 255
-1.31046 1.1052 5.31352 0 0 0 255 255 0 255
-1.17402 0.981698 5.34056 0 0 0 255 255 0 255
-1.21407 1.02007 5.33274 0 0 0 255 255 0 255
-0.920847 0.754243 5.39083 0 0 0 255 255 0 255
-1.21585 1.02705 5.33267 0 0 0 255 255 0 255
-1.32784 1.13194 5.31067 0 0 0 255 255 0 255
-1.14408 0.963351 5.34696 0 0 0 255 255 0 255
-1.21045 1.02873 5.33409 0 0 0 255 255 0 255
-0.914074 0.755988 5.39258 0 0 0 255 255 0 255
-1.03106 0.864171 5.36952 0 0 0 255 255 0 255
-0.965674 0.815722 5.38302 0 0 0 255 255 0 255
-1.09792 0.938016 5.35696 0 0 0 255 255 0 255
-0.972539 0.827414 5.38194 0 0 0 255 255 0 255
-0.964305 0.827816 5.38395 0 0 0 255 255 0 255
-1.00887 0.873038 5.37536 0 0 0 255 255 0 255
-0.879692 0.768283 5.40151 0 0 0 255 255 0 255
-1.07588 0.949708 5.36284 0 0 0 255 255 0 255
-1.11019 0.984111 5.35619 0 0 0 255 255 0 255
-1.14297 1.01576 5.34979 0 0 0 255 255 0 255
-1.16121 1.03397 5.34626 0 0 0 255 255 0 255
-1.31977 1.18328 5.31512 0 0 0 255 255 0 255
-1.03461 0.926259 5.37163 0 0 0 255 255 0 255
-0.864176 0.773997 5.40546 0 0 0 255 255 0 255
-0.837746 0.769635 5.4115 0 0 0 255 255 0 255
-1.05726 0.973975 5.36828 0 0 0 255 255 0 255
-0.984914 0.912426 5.38275 0 0 0 255 255 0 255
-0.965374 0.895695 5.38665 0 0 0 255 255 0 255
-0.961897 0.895159 5.38744 0 0 0 255 255 0 255
-0.889702 0.836434 5.40198 0 0 0 255 255 0 255
-1.10647 1.04091 5.3594 0 0 0 255 255 0 255
-0.830507 0.788393 5.41389 0 0 0 255 255 0 255
-1.13794 1.07404 5.35334 0 0 0 255 255 0 255
-0.885389 0.845847 5.40332 0 0 0 255 255 0 255
-1.13711 1.08399 5.35388 0 0 0 255 255 0 255
-0.873001 0.846458 5.40617 0 0 0 255 255 0 255
-1.00096 0.966133 5.38099 0 0 0 255 255 0 255
-1.00169 0.966805 5.38085 0 0 0 255 255 0 255
-0.802749 0.785515 5.42016 0 0 0 255 255 0 255
-0.770341 0.786408 5.4275 0 0 0 255 255 0 255
-0.843805 0.855686 5.41306 0 0 0 255 255 0 255
-0.841123 0.857235 5.4137 0 0 0 255 255 0 255
-1.07446 1.08779 5.3681 0 0 0 255 255 0 255
-1.07519 1.08846 5.36796 0 0 0 255 255 0 255
-1.13311 1.15143 5.35678 0 0 0 255 255 0 255
-1.1305 1.15439 5.35742 0 0 0 255 255 0 255
-1.12106 1.15911 5.35959 0 0 0 255 255 0 255
-0.922408 0.996918 5.39919 0 0 0 255 255 0 255
-0.949405 1.06496 5.39456 0 0 0 255 255 0 255
-0.834014 0.960946 5.41735 0 0 0 255 255 0 255
-1.12145 1.23484 5.36078 0 0 0 255 255 0 255
-0.881432 1.02231 5.4082 0 0 0 255 255 0 255
-1.10748 1.2327 5.36365 0 0 0 255 255 0 255
-0.973753 1.12251 5.39014 0 0 0 255 255 0 255
-0.964377 1.11519 5.39199 0 0 0 255 255 0 255
-1.10607 1.24622 5.36406 0 0 0 255 255 0 255
-0.778809 0.966515 5.42872 0 0 0 255 255 0 255
-0.775382 0.967393 5.42942 0 0 0 255 255 0 255
-1.08751 1.26413 5.36792 0 0 0 255 255 0 255
-1.03158 1.22726 5.37897 0 0 0 255 255 0 255
-1.00721 1.21148 5.38378 0 0 0 255 255 0 255
-1.01012 1.21416 5.38321 0 0 0 255 255 0 255
-0.992493 1.20866 5.38668 0 0 0 255 255 0 255
-1.09132 1.31492 5.36716 0 0 0 255 255 0 255
-1.07395 1.3002 5.37058 0 0 0 255 255 0 255
-0.84876 1.12304 5.4148 0 0 0 255 255 0 255
-0.901934 1.17492 5.40429 0 0 0 255 255 0 255
-0.836929 1.12292 5.41704 0 0 0 255 255 0 255
-1.07868 1.3573 5.36927 0 0 0 255 255 0 255
-1.07445 1.3561 5.37007 0 0 0 255 255 0 255
-1.04755 1.3461 5.3752 0 0 0 255 255 0 255
-0.807831 1.12577 5.42243 0 0 0 255 255 0 255
-1.03268 1.34046 5.37802 0 0 0 255 255 0 255
-1.03982 1.3755 5.37615 0 0 0 255 255 0 255
-1.03571 1.37712 5.37686 0 0 0 255 255 0 255
-0.754425 1.1468 5.43168 0 0 0 255 255 0 255
-0.993859 1.39262 5.38388 0 0 0 255 255 0 255
-0.967945 1.37408 5.38884 0 0 0 255 255 0 255
-0.985384 1.3902 5.38541 0 0 0 255 255 0 255
-0.888378 1.32491 5.40383 0 0 0 255 255 0 255
-0.894252 1.33169 5.40263 0 0 0 255 255 0 255
-0.876992 1.3198 5.40591 0 0 0 255 255 0 255
-0.829395 1.28393 5.41503 0 0 0 255 255 0 255
-0.756423 1.22594 5.4291 0 0 0 255 255 0 255
-0.802437 1.27392 5.41985 0 0 0 255 255 0 255
-0.763496 1.2447 5.42729 0 0 0 255 255 0 255
-0.743936 1.22796 5.4311 0 0 0 255 255 0 255
-0.754894 1.23946 5.42889 0 0 0 255 255 0 255
-0.838405 1.34926 5.4112 0 0 0 255 255 0 255
-0.906823 1.41525 5.3976 0 0 0 255 255 0 255
-0.843723 1.35961 5.40993 0 0 0 255 255 0 255
-0.862904 1.38414 5.40587 0 0 0 255 255 0 255
-0.763472 1.29491 5.42536 0 0 0 255 255 0 255
-0.862082 1.39832 5.4054 0 0 0 255 255 0 255
-0.920957 1.52343 5.39037 0 0 0 255 255 0 255
-0.788879 1.40537 5.41619 0 0 0 255 255 0 255
-0.779543 1.39946 5.41788 0 0 0 255 255 0 255
-0.893881 1.52967 5.39398 0 0 0 255 255 0 255
-0.901637 1.54908 5.39174 0 0 0 255 255 0 255
-0.807878 1.48006 5.40915 0 0 0 255 255 0 255
-0.832797 1.50855 5.4039 0 0 0 255 255 0 255
-0.827732 1.52291 5.40369 0 0 0 255 255 0 255
-0.813623 1.52075 5.40576 0 0 0 255 255 0 255
-0.795575 1.54489 5.40651 0 0 0 255 255 0 255
-0.891644 1.63781 5.38727 0 0 0 255 255 0 255
-0.793706 1.55133 5.40629 0 0 0 255 255 0 255
-0.799519 1.5567 5.40514 0 0 0 255 255 0 255
-0.766599 1.55893 5.40918 0 0 0 255 255 0 255
-0.720654 1.53142 5.41707 0 0 0 255 255 0 255
-0.7169 1.54429 5.41649 0 0 0 255 255 0 255
-0.71735 1.55696 5.4154 0 0 0 255 255 0 255
-0.847137 1.68924 5.38878 0 0 0 255 255 0 255
-0.847236 1.69206 5.38853 0 0 0 255 255 0 255
-0.803025 1.67432 5.39524 0 0 0 255 255 0 255
-0.750331 1.65556 5.40293 0 0 0 255 255 0 255
-0.754158 1.66454 5.40167 0 0 0 255 255 0 255
-0.689905 1.65824 5.40921 0 0 0 255 255 0 255
-0.610276 1.65679 5.41734 0 0 0 255 255 0 255
