ply
format ascii 1.0
comment VCGLIB generated
element vertex 232
property float x
property float y
property float z
property float nx
property float ny
property float nz
property uchar red
property uchar green
property uchar blue
property uchar alpha
element face 0
property list uchar int vertex_indices
end_header
3.76204 0.747427 3.73888 0 0 0 0 0 128 255
3.75802 0.932806 3.75039 0 0 0 0 0 128 255
3.75874 1.15701 3.75919 0 0 0 0 0 128 255
3.7574 1.16007 3.76055 0 0 0 0 0 128 255
3.78068 1.73161 3.76325 0 0 0 0 0 128 255
3.77995 1.73164 3.76393 0 0 0 0 0 128 255
3.73047 0.829961 3.77138 0 0 0 0 0 128 255
3.7703 1.69805 3.77138 0 0 0 0 0 128 255
3.74468 1.15565 3.77206 0 0 0 0 0 128 255
3.74073 1.14983 3.77544 0 0 0 0 0 128 255
3.72497 1.14354 3.78966 0 0 0 0 0 128 255
3.70981 1.13423 3.80321 0 0 0 0 0 128 255
3.7099 1.13623 3.80321 0 0 0 0 0 128 255
3.70687 1.13436 3.80591 0 0 0 0 0 128 255
3.692 1.83778 3.84925 0 0 0 0 0 128 255
3.68727 1.83099 3.85331 0 0 0 0 0 128 255
3.68424 1.82913 3.85602 0 0 0 0 0 128 255
3.67937 1.81934 3.86009 0 0 0 0 0 128 255
3.62714 0.88976 3.86889 0 0 0 0 0 128 255
3.6241 0.935948 3.87363 0 0 0 0 0 128 255
3.61346 0.800293 3.87769 0 0 0 0 0 128 255
3.62758 1.10797 3.87769 0 0 0 0 0 128 255
3.62115 1.0482 3.88108 0 0 0 0 0 128 255
3.58802 0.695349 3.89665 0 0 0 0 0 128 255
3.59016 0.822384 3.90004 0 0 0 0 0 128 255
3.5952 1.01235 3.90342 0 0 0 0 0 128 255
3.63141 1.81754 3.9041 0 0 0 0 0 128 255
3.59396 1.01742 3.90478 0 0 0 0 0 128 255
3.6315 1.83555 3.90478 0 0 0 0 0 128 255
3.59359 1.02544 3.90545 0 0 0 0 0 128 255
3.59606 1.12743 3.90749 0 0 0 0 0 128 255
3.59266 1.10156 3.90952 0 0 0 0 0 128 255
3.58468 0.991814 3.91223 0 0 0 0 0 128 255
3.58385 1.00587 3.91358 0 0 0 0 0 128 255
3.58371 1.0349 3.91493 0 0 0 0 0 128 255
3.61882 1.83213 3.91629 0 0 0 0 0 128 255
3.61432 1.83034 3.92035 0 0 0 0 0 128 255
3.61514 1.86433 3.92103 0 0 0 0 0 128 255
3.57383 1.02835 3.92374 0 0 0 0 0 128 255
3.56407 0.83159 3.92441 0 0 0 0 0 128 255
3.57241 1.02942 3.92509 0 0 0 0 0 128 255
3.563 0.904716 3.92848 0 0 0 0 0 128 255
3.61764 2.11148 3.92915 0 0 0 0 0 128 255
3.61599 2.10755 3.93051 0 0 0 0 0 128 255
3.57819 1.50865 3.93999 0 0 0 0 0 128 255
3.60386 2.1001 3.94134 0 0 0 0 0 128 255
3.58643 1.8166 3.94541 0 0 0 0 0 128 255
3.60348 2.23626 3.94744 0 0 0 0 0 128 255
3.59127 2.06664 3.9515 0 0 0 0 0 128 255
3.52998 0.811131 3.95489 0 0 0 0 0 128 255
3.5281 0.802208 3.95624 0 0 0 0 0 128 255
3.55665 1.45659 3.9576 0 0 0 0 0 128 255
3.59006 2.21685 3.95895 0 0 0 0 0 128 255
3.55431 1.46971 3.9603 0 0 0 0 0 128 255
3.56351 1.7666 3.96437 0 0 0 0 0 128 255
3.57138 2.03452 3.96843 0 0 0 0 0 128 255
3.52136 1.10483 3.9752 0 0 0 0 0 128 255
3.5473 1.68626 3.97588 0 0 0 0 0 128 255
3.55065 1.75918 3.97588 0 0 0 0 0 128 255
3.56096 2.03199 3.97791 0 0 0 0 0 128 255
3.51291 1.0812 3.98197 0 0 0 0 0 128 255
3.55126 2.01342 3.98604 0 0 0 0 0 128 255
3.54956 2.02451 3.98807 0 0 0 0 0 128 255
3.50023 1.04574 3.99213 0 0 0 0 0 128 255
3.52168 1.5613 3.99416 0 0 0 0 0 128 255
3.54156 2.05891 3.99687 0 0 0 0 0 128 255
3.48816 0.991237 4.00093 0 0 0 0 0 128 255
3.51298 1.70885 4.00838 0 0 0 0 0 128 255
3.46709 0.805007 4.01244 0 0 0 0 0 128 255
3.46566 0.806074 4.0138 0 0 0 0 0 128 255
3.50595 1.70017 4.01448 0 0 0 0 0 128 255
3.50209 1.71236 4.01854 0 0 0 0 0 128 255
3.48535 1.44384 4.0226 0 0 0 0 0 128 255
3.51056 2.04131 4.02463 0 0 0 0 0 128 255
3.43263 0.359118 4.02531 0 0 0 0 0 128 255
3.47206 1.5876 4.04088 0 0 0 0 0 128 255
3.46445 1.43779 4.04156 0 0 0 0 0 128 255
3.46266 1.41485 4.04224 0 0 0 0 0 128 255
3.45995 1.37193 4.04292 0 0 0 0 0 128 255
3.45793 1.34399 4.04359 0 0 0 0 0 128 255
3.43914 0.966458 4.04495 0 0 0 0 0 128 255
3.45568 1.32708 4.04495 0 0 0 0 0 128 255
3.46581 1.57988 4.0463 0 0 0 0 0 128 255
3.4659 1.58188 4.0463 0 0 0 0 0 128 255
3.4373 0.974551 4.04698 0 0 0 0 0 128 255
3.45223 1.38029 4.05036 0 0 0 0 0 128 255
3.42432 0.803967 4.05172 0 0 0 0 0 128 255
3.43298 1.0248 4.05307 0 0 0 0 0 128 255
3.43187 1.01684 4.05375 0 0 0 0 0 128 255
3.42027 0.828178 4.05646 0 0 0 0 0 128 255
3.42343 0.897105 4.05646 0 0 0 0 0 128 255
3.4171 0.807301 4.05849 0 0 0 0 0 128 255
3.42365 0.982184 4.05984 0 0 0 0 0 128 255
3.42136 0.980288 4.06188 0 0 0 0 0 128 255
3.41132 0.777535 4.06255 0 0 0 0 0 128 255
3.44973 1.61465 4.06255 0 0 0 0 0 128 255
3.41425 0.857484 4.06323 0 0 0 0 0 128 255
3.41361 0.859516 4.06391 0 0 0 0 0 128 255
3.4131 0.864544 4.06458 0 0 0 0 0 128 255
3.41768 0.980456 4.06526 0 0 0 0 0 128 255
3.41461 0.929543 4.06594 0 0 0 0 0 128 255
3.43005 1.28221 4.06662 0 0 0 0 0 128 255
3.46227 2.0165 4.06797 0 0 0 0 0 128 255
3.42491 1.26643 4.07068 0 0 0 0 0 128 255
3.42537 1.27641 4.07068 0 0 0 0 0 128 255
3.4085 0.924819 4.07136 0 0 0 0 0 128 255
3.41336 1.03071 4.07136 0 0 0 0 0 128 255
3.43861 1.61316 4.07271 0 0 0 0 0 128 255
3.45639 2.00075 4.07271 0 0 0 0 0 128 255
3.39969 0.781071 4.07339 0 0 0 0 0 128 255
3.45447 1.99083 4.07406 0 0 0 0 0 128 255
3.43668 1.61926 4.07474 0 0 0 0 0 128 255
3.45506 2.01984 4.07474 0 0 0 0 0 128 255
3.42622 1.43955 4.07677 0 0 0 0 0 128 255
3.3957 0.790264 4.07745 0 0 0 0 0 128 255
3.42663 1.46455 4.07745 0 0 0 0 0 128 255
3.39436 0.809345 4.07948 0 0 0 0 0 128 255
3.39257 0.80242 4.08084 0 0 0 0 0 128 255
3.40343 1.03917 4.08084 0 0 0 0 0 128 255
3.41979 1.42783 4.08219 0 0 0 0 0 128 255
3.42057 1.44481 4.08219 0 0 0 0 0 128 255
3.39128 0.8225 4.08287 0 0 0 0 0 128 255
3.39078 0.827529 4.08354 0 0 0 0 0 128 255
3.41291 1.31002 4.08354 0 0 0 0 0 128 255
3.39939 1.04736 4.0849 0 0 0 0 0 128 255
3.38467 0.774753 4.08693 0 0 0 0 0 128 255
3.4162 1.47805 4.08761 0 0 0 0 0 128 255
3.41313 1.44315 4.08896 0 0 0 0 0 128 255
3.38586 0.864793 4.08964 0 0 0 0 0 128 255
3.38572 0.877813 4.09032 0 0 0 0 0 128 255
3.38919 1.00178 4.09235 0 0 0 0 0 128 255
3.38264 0.874951 4.09302 0 0 0 0 0 128 255
3.37562 0.770163 4.09506 0 0 0 0 0 128 255
3.39849 1.30067 4.09641 0 0 0 0 0 128 255
3.41183 1.59137 4.09641 0 0 0 0 0 128 255
3.42662 2.01013 4.10047 0 0 0 0 0 128 255
3.37492 0.915348 4.10183 0 0 0 0 0 128 255
3.42534 2.01419 4.10183 0 0 0 0 0 128 255
3.36923 0.807495 4.1025 0 0 0 0 0 128 255
3.3441 0.404223 4.1086 0 0 0 0 0 128 255
3.36417 0.905831 4.11131 0 0 0 0 0 128 255
3.37929 1.23548 4.11131 0 0 0 0 0 128 255
3.38635 1.38932 4.11131 0 0 0 0 0 128 255
3.35559 0.815129 4.11537 0 0 0 0 0 128 255
3.35095 0.810336 4.11943 0 0 0 0 0 128 255
3.34801 0.778437 4.12079 0 0 0 0 0 128 255
3.34162 0.767719 4.1262 0 0 0 0 0 128 255
3.3424 0.784701 4.1262 0 0 0 0 0 128 255
3.39828 2.00242 4.1262 0 0 0 0 0 128 255
3.34291 0.811706 4.12688 0 0 0 0 0 128 255
3.34818 0.926585 4.12688 0 0 0 0 0 128 255
3.34295 0.828722 4.12756 0 0 0 0 0 128 255
3.36298 1.26526 4.12756 0 0 0 0 0 128 255
3.37545 1.53698 4.12756 0 0 0 0 0 128 255
3.36247 1.27029 4.12824 0 0 0 0 0 128 255
3.34524 0.92672 4.12959 0 0 0 0 0 128 255
3.40262 2.1774 4.12959 0 0 0 0 0 128 255
3.35999 1.2644 4.13027 0 0 0 0 0 128 255
3.33624 0.827028 4.13365 0 0 0 0 0 128 255
3.33349 0.831159 4.13636 0 0 0 0 0 128 255
3.32715 0.773388 4.13975 0 0 0 0 0 128 255
3.32807 0.793367 4.13975 0 0 0 0 0 128 255
3.33082 0.853304 4.13975 0 0 0 0 0 128 255
3.32628 0.786442 4.1411 0 0 0 0 0 128 255
3.3094 0.482896 4.14381 0 0 0 0 0 128 255
3.30679 0.45799 4.14516 0 0 0 0 0 128 255
3.3231 0.813616 4.14516 0 0 0 0 0 128 255
3.31934 0.763736 4.14652 0 0 0 0 0 128 255
3.30288 0.453164 4.14855 0 0 0 0 0 128 255
3.3555 1.59996 4.14855 0 0 0 0 0 128 255
3.31731 0.847917 4.15194 0 0 0 0 0 128 255
3.31547 0.85601 4.15397 0 0 0 0 0 128 255
3.31011 0.75515 4.15464 0 0 0 0 0 128 255
3.30671 0.713262 4.156 0 0 0 0 0 128 255
3.36451 1.97294 4.156 0 0 0 0 0 128 255
3.30593 0.712296 4.15668 0 0 0 0 0 128 255
3.31198 0.844158 4.15668 0 0 0 0 0 128 255
3.30139 0.661451 4.15871 0 0 0 0 0 128 255
3.31005 0.882286 4.16006 0 0 0 0 0 128 255
3.30651 0.869435 4.16277 0 0 0 0 0 128 255
3.3545 1.91533 4.16277 0 0 0 0 0 128 255
3.28552 0.427933 4.16345 0 0 0 0 0 128 255
3.30064 0.757586 4.16345 0 0 0 0 0 128 255
3.30385 0.875564 4.16548 0 0 0 0 0 128 255
3.29793 0.778733 4.16683 0 0 0 0 0 128 255
3.28033 0.42717 4.16819 0 0 0 0 0 128 255
3.29596 0.767812 4.16819 0 0 0 0 0 128 255
3.29944 0.875766 4.16954 0 0 0 0 0 128 255
3.33331 1.61399 4.16954 0 0 0 0 0 128 255
3.29558 0.839905 4.17157 0 0 0 0 0 128 255
3.33161 1.62508 4.17157 0 0 0 0 0 128 255
3.27252 0.353451 4.17225 0 0 0 0 0 128 255
3.33541 1.74003 4.17293 0 0 0 0 0 128 255
3.27912 0.54535 4.17428 0 0 0 0 0 128 255
3.32596 1.58229 4.17496 0 0 0 0 0 128 255
3.27544 0.545519 4.17767 0 0 0 0 0 128 255
3.28717 0.8493 4.1797 0 0 0 0 0 128 255
3.33457 1.88221 4.1797 0 0 0 0 0 128 255
3.28818 0.887294 4.18038 0 0 0 0 0 128 255
3.28767 0.892323 4.18105 0 0 0 0 0 128 255
3.33227 1.88032 4.18173 0 0 0 0 0 128 255
3.26118 0.346964 4.18241 0 0 0 0 0 128 255
3.33177 1.88535 4.18241 0 0 0 0 0 128 255
3.31833 1.6407 4.18444 0 0 0 0 0 128 255
3.25878 0.407137 4.18715 0 0 0 0 0 128 255
3.3274 1.91858 4.18782 0 0 0 0 0 128 255
3.32964 1.96753 4.18782 0 0 0 0 0 128 255
3.32799 1.94758 4.1885 0 0 0 0 0 128 255
3.32689 1.93963 4.18918 0 0 0 0 0 128 255
3.31259 1.64397 4.18986 0 0 0 0 0 128 255
3.27058 0.905119 4.1973 0 0 0 0 0 128 255
3.31756 1.96108 4.19866 0 0 0 0 0 128 255
3.24638 0.425725 4.19934 0 0 0 0 0 128 255
3.31683 1.96111 4.19934 0 0 0 0 0 128 255
3.26718 0.911282 4.20069 0 0 0 0 0 128 255
3.31508 1.95518 4.20069 0 0 0 0 0 128 255
3.30376 1.72446 4.20137 0 0 0 0 0 128 255
3.23871 0.338985 4.20272 0 0 0 0 0 128 255
3.29875 1.69566 4.20475 0 0 0 0 0 128 255
3.30723 1.94453 4.20746 0 0 0 0 0 128 255
3.30626 1.93957 4.20814 0 0 0 0 0 128 255
3.30635 1.94157 4.20814 0 0 0 0 0 128 255
3.25419 0.868833 4.21085 0 0 0 0 0 128 255
3.30543 1.98566 4.21085 0 0 0 0 0 128 255
3.29383 1.74894 4.21152 0 0 0 0 0 128 255
3.22135 0.329771 4.2183 0 0 0 0 0 128 255
3.23423 1.0119 4.23522 0 0 0 0 0 128 255
3.21151 1.27121 4.26705 0 0 0 0 0 128 255
3.12634 1.58244 4.35847 0 0 0 0 0 128 255
3.15274 2.17385 4.35914 0 0 0 0 0 128 255
3.1442 2.1322 4.36524 0 0 0 0 0 128 255
2.98485 1.9343 4.50337 0 0 0 0 0 128 255
