ply
format ascii 1.0
comment VCGLIB generated
element vertex 648
property float x
property float y
property float z
property float nx
property float ny
property float nz
property uchar red
property uchar green
property uchar blue
property uchar alpha
element face 0
property list uchar int vertex_indices
end_header
-0.942453 1.09225 3.83077 0 0 0 128 128 128 255
-0.468349 0.349589 3.86909 0 0 0 128 128 128 255
-0.467796 0.348633 3.86714 0 0 0 128 128 128 255
-0.463201 0.31146 3.83843 0 0 0 128 128 128 255
-0.460802 0.321699 3.83004 0 0 0 128 128 128 255
-0.456861 0.334496 3.80679 0 0 0 128 128 128 255
-0.456312 0.34247 3.80715 0 0 0 128 128 128 255
-0.432827 0.6795 3.81806 0 0 0 128 128 128 255
-0.432555 0.681572 3.81615 0 0 0 128 128 128 255
-0.456669 0.327914 3.79652 0 0 0 128 128 128 255
-0.454362 0.358106 3.79085 0 0 0 128 128 128 255
-0.433247 0.664301 3.79939 0 0 0 128 128 128 255
-0.41638 0.909527 3.80923 0 0 0 128 128 128 255
-0.443736 0.511899 3.79065 0 0 0 128 128 128 255
-0.447925 0.453458 3.78005 0 0 0 128 128 128 255
-0.430927 0.701723 3.78903 0 0 0 128 128 128 255
-0.439664 0.580463 3.77667 0 0 0 128 128 128 255
-0.444062 0.519813 3.771 0 0 0 128 128 128 255
-0.44155 0.558783 3.77072 0 0 0 128 128 128 255
-0.433761 0.68068 3.77014 0 0 0 128 128 128 255
-0.459373 0.33148 3.74278 0 0 0 128 128 128 255
-0.45884 0.341501 3.74224 0 0 0 128 128 128 255
-0.4441 0.555785 3.75172 0 0 0 128 128 128 255
-0.433174 0.719349 3.75697 0 0 0 128 128 128 255
-0.439165 0.634686 3.75224 0 0 0 128 128 128 255
-0.457572 0.374721 3.73779 0 0 0 128 128 128 255
-0.446895 0.535297 3.74292 0 0 0 128 128 128 255
-0.429364 0.798588 3.75161 0 0 0 128 128 128 255
-0.43312 0.749864 3.7475 0 0 0 128 128 128 255
-0.449026 0.524731 3.73558 0 0 0 128 128 128 255
-0.42935 0.810776 3.74823 0 0 0 128 128 128 255
-0.437034 0.702196 3.74245 0 0 0 128 128 128 255
-0.452244 0.494125 3.72934 0 0 0 128 128 128 255
-0.454931 0.465398 3.72515 0 0 0 128 128 128 255
-0.45524 0.464461 3.72414 0 0 0 128 128 128 255
-0.433838 0.786565 3.73548 0 0 0 128 128 128 255
-0.465407 0.335193 3.71358 0 0 0 128 128 128 255
-0.450667 0.549478 3.72306 0 0 0 128 128 128 255
-0.459087 0.430934 3.71685 0 0 0 128 128 128 255
-0.450997 0.548542 3.72205 0 0 0 128 128 128 255
-0.458867 0.44202 3.71541 0 0 0 128 128 128 255
-0.458385 0.453044 3.71494 0 0 0 128 128 128 255
-0.448856 0.591582 3.72106 0 0 0 128 128 128 255
-0.466217 0.351568 3.70756 0 0 0 128 128 128 255
-0.434751 0.826234 3.72473 0 0 0 128 128 128 255
-0.444308 0.691746 3.71783 0 0 0 128 128 128 255
-0.440263 0.75055 3.72043 0 0 0 128 128 128 255
-0.431899 0.872144 3.7258 0 0 0 128 128 128 255
-0.469106 0.35419 3.69814 0 0 0 128 128 128 255
-0.460262 0.482761 3.70383 0 0 0 128 128 128 255
-0.459281 0.501762 3.70372 0 0 0 128 128 128 255
-0.444867 0.716111 3.71225 0 0 0 128 128 128 255
-0.437158 0.842882 3.71503 0 0 0 128 128 128 255
-0.422426 1.07736 3.72164 0 0 0 128 128 128 255
-0.462474 0.500352 3.69519 0 0 0 128 128 128 255
-0.459937 0.537229 3.69682 0 0 0 128 128 128 255
-0.44235 0.803472 3.70673 0 0 0 128 128 128 255
-0.453844 0.647127 3.69795 0 0 0 128 128 128 255
-0.442052 0.818555 3.70553 0 0 0 128 128 128 255
-0.456029 0.62633 3.69517 0 0 0 128 128 128 255
-0.467551 0.469986 3.68641 0 0 0 128 128 128 255
-0.463986 0.521813 3.6887 0 0 0 128 128 128 255
-0.467686 0.485138 3.68431 0 0 0 128 128 128 255
-0.462545 0.559889 3.68762 0 0 0 128 128 128 255
-0.460471 0.595837 3.68829 0 0 0 128 128 128 255
-0.452107 0.717431 3.69366 0 0 0 128 128 128 255
-0.429676 1.04939 3.70743 0 0 0 128 128 128 255
-0.472514 0.432518 3.67923 0 0 0 128 128 128 255
-0.454141 0.699627 3.69104 0 0 0 128 128 128 255
-0.428905 1.07245 3.70661 0 0 0 128 128 128 255
-0.463455 0.576176 3.68375 0 0 0 128 128 128 255
-0.432557 1.04987 3.70106 0 0 0 128 128 128 255
-0.445666 0.865555 3.69201 0 0 0 128 128 128 255
-0.473106 0.472935 3.67374 0 0 0 128 128 128 255
-0.430027 1.11194 3.7002 0 0 0 128 128 128 255
-0.435809 1.04737 3.69465 0 0 0 128 128 128 255
-0.442537 0.962791 3.68912 0 0 0 128 128 128 255
-0.475488 0.490439 3.66734 0 0 0 128 128 128 255
-0.47494 0.498412 3.6677 0 0 0 128 128 128 255
-0.476975 0.475559 3.6658 0 0 0 128 128 128 255
-0.454625 0.800475 3.68016 0 0 0 128 128 128 255
-0.453117 0.822402 3.68113 0 0 0 128 128 128 255
-0.438138 1.05377 3.68959 0 0 0 128 128 128 255
-0.473571 0.54554 3.66623 0 0 0 128 128 128 255
-0.472191 0.572521 3.66654 0 0 0 128 128 128 255
-0.462113 0.719032 3.67302 0 0 0 128 128 128 255
-0.464163 0.703228 3.67057 0 0 0 128 128 128 255
-0.460324 0.759042 3.67303 0 0 0 128 128 128 255
-0.477533 0.515925 3.66141 0 0 0 128 128 128 255
-0.443758 1.02843 3.68145 0 0 0 128 128 128 255
-0.480883 0.525475 3.65488 0 0 0 128 128 128 255
-0.479542 0.552458 3.65521 0 0 0 128 128 128 255
-0.460346 0.831526 3.66755 0 0 0 128 128 128 255
-0.459866 0.838503 3.66786 0 0 0 128 128 128 255
-0.451845 0.955114 3.67302 0 0 0 128 128 128 255
-0.440396 1.12156 3.68038 0 0 0 128 128 128 255
-0.45267 0.95825 3.67144 0 0 0 128 128 128 255
-0.434816 1.22543 3.68241 0 0 0 128 128 128 255
-0.48614 0.486971 3.6489 0 0 0 128 128 128 255
-0.479147 0.588631 3.65339 0 0 0 128 128 128 255
-0.471332 0.702252 3.65842 0 0 0 128 128 128 255
-0.471104 0.713289 3.65805 0 0 0 128 128 128 255
-0.451713 1.02654 3.66852 0 0 0 128 128 128 255
-0.456639 0.970875 3.66438 0 0 0 128 128 128 255
-0.453485 1.01672 3.66641 0 0 0 128 128 128 255
-0.486804 0.540387 3.64451 0 0 0 128 128 128 255
-0.482485 0.603178 3.64729 0 0 0 128 128 128 255
-0.469596 0.790552 3.65557 0 0 0 128 128 128 255
-0.469187 0.80458 3.65536 0 0 0 128 128 128 255
-0.468022 0.821524 3.65611 0 0 0 128 128 128 255
-0.466656 0.849505 3.65651 0 0 0 128 128 128 255
-0.447597 1.12658 3.66877 0 0 0 128 128 128 255
-0.452199 1.06785 3.66534 0 0 0 128 128 128 255
-0.490961 0.520828 3.63949 0 0 0 128 128 128 255
-0.491733 0.517913 3.63854 0 0 0 128 128 128 255
-0.482499 0.660513 3.64403 0 0 0 128 128 128 255
-0.496166 0.470224 3.63479 0 0 0 128 128 128 255
-0.490408 0.553945 3.63849 0 0 0 128 128 128 255
-0.47889 0.721386 3.6459 0 0 0 128 128 128 255
-0.460368 1.00758 3.65692 0 0 0 128 128 128 255
-0.485493 0.650849 3.64033 0 0 0 128 128 128 255
-0.458929 1.04561 3.65698 0 0 0 128 128 128 255
-0.492193 0.579317 3.63474 0 0 0 128 128 128 255
-0.485611 0.674997 3.63897 0 0 0 128 128 128 255
-0.464632 0.979979 3.65246 0 0 0 128 128 128 255
-0.481591 0.750897 3.64072 0 0 0 128 128 128 255
-0.481094 0.76692 3.64063 0 0 0 128 128 128 255
-0.499041 0.514839 3.62869 0 0 0 128 128 128 255
-0.485124 0.717163 3.63763 0 0 0 128 128 128 255
-0.476611 0.849797 3.6427 0 0 0 128 128 128 255
-0.464682 1.02322 3.65037 0 0 0 128 128 128 255
-0.484007 0.751204 3.63755 0 0 0 128 128 128 255
-0.499767 0.540063 3.62663 0 0 0 128 128 128 255
-0.490515 0.692708 3.63181 0 0 0 128 128 128 255
-0.488596 0.720615 3.63305 0 0 0 128 128 128 255
-0.481329 0.826262 3.63772 0 0 0 128 128 128 255
-0.453357 1.2329 3.6557 0 0 0 128 128 128 255
-0.507044 0.461557 3.62081 0 0 0 128 128 128 255
-0.481755 0.838377 3.63669 0 0 0 128 128 128 255
-0.480247 0.860304 3.63766 0 0 0 128 128 128 255
-0.489377 0.736794 3.63142 0 0 0 128 128 128 255
-0.470866 1.0059 3.64333 0 0 0 128 128 128 255
-0.493299 0.689031 3.62854 0 0 0 128 128 128 255
-0.457581 1.2083 3.6515 0 0 0 128 128 128 255
-0.50312 0.555554 3.62186 0 0 0 128 128 128 255
-0.501886 0.573494 3.62266 0 0 0 128 128 128 255
-0.487969 0.775819 3.6316 0 0 0 128 128 128 255
-0.508283 0.489852 3.61819 0 0 0 128 128 128 255
-0.503251 0.600794 3.62004 0 0 0 128 128 128 255
-0.497458 0.69456 3.62343 0 0 0 128 128 128 255
-0.461983 1.21988 3.6459 0 0 0 128 128 128 255
-0.515224 0.455515 3.61135 0 0 0 128 128 128 255
-0.510719 0.540389 3.6136 0 0 0 128 128 128 255
-0.482473 0.951018 3.63176 0 0 0 128 128 128 255
-0.520745 0.424014 3.60622 0 0 0 128 128 128 255
-0.499629 0.73099 3.6198 0 0 0 128 128 128 255
-0.490305 0.866537 3.62579 0 0 0 128 128 128 255
-0.517648 0.47891 3.60791 0 0 0 128 128 128 255
-0.516399 0.516942 3.60813 0 0 0 128 128 128 255
-0.508785 0.637618 3.61273 0 0 0 128 128 128 255
-0.504672 0.697419 3.61538 0 0 0 128 128 128 255
-0.503643 0.712369 3.61604 0 0 0 128 128 128 255
-0.49576 0.847078 3.62054 0 0 0 128 128 128 255
-0.516538 0.555132 3.60691 0 0 0 128 128 128 255
-0.511755 0.644991 3.60944 0 0 0 128 128 128 255
-0.510247 0.666918 3.61041 0 0 0 128 128 128 255
-0.512591 0.643077 3.60864 0 0 0 128 128 128 255
-0.497356 0.895475 3.61768 0 0 0 128 128 128 255
-0.529626 0.447131 3.59644 0 0 0 128 128 128 255
-0.522222 0.554772 3.6012 0 0 0 128 128 128 255
-0.523758 0.542892 3.59998 0 0 0 128 128 128 255
-0.515874 0.657509 3.60505 0 0 0 128 128 128 255
-0.529376 0.482255 3.59591 0 0 0 128 128 128 255
-0.508466 0.78624 3.60935 0 0 0 128 128 128 255
-0.535867 0.419704 3.59107 0 0 0 128 128 128 255
-0.506524 0.846281 3.60994 0 0 0 128 128 128 255
-0.519457 0.668953 3.60141 0 0 0 128 128 128 255
-0.52108 0.656076 3.60016 0 0 0 128 128 128 255
-0.510896 0.825672 3.60631 0 0 0 128 128 128 255
-0.497321 1.02301 3.61504 0 0 0 128 128 128 255
-0.539594 0.430153 3.58748 0 0 0 128 128 128 255
-0.512102 0.829819 3.60515 0 0 0 128 128 128 255
-0.509291 0.870683 3.60696 0 0 0 128 128 128 255
-0.499214 1.01719 3.61344 0 0 0 128 128 128 255
-0.539988 0.446261 3.58686 0 0 0 128 128 128 255
-0.51661 0.786127 3.60189 0 0 0 128 128 128 255
-0.532647 0.563949 3.5914 0 0 0 128 128 128 255
-0.535455 0.53413 3.58943 0 0 0 128 128 128 255
-0.533675 0.582131 3.59024 0 0 0 128 128 128 255
-0.519758 0.784456 3.59919 0 0 0 128 128 128 255
-0.516536 0.8313 3.60126 0 0 0 128 128 128 255
-0.492278 1.20621 3.61654 0 0 0 128 128 128 255
-0.542197 0.491677 3.5843 0 0 0 128 128 128 255
-0.541455 0.513684 3.58463 0 0 0 128 128 128 255
-0.549507 0.419162 3.57918 0 0 0 128 128 128 255
-0.529557 0.709194 3.592 0 0 0 128 128 128 255
-0.516758 0.940746 3.59973 0 0 0 128 128 128 255
-0.554659 0.435758 3.57493 0 0 0 128 128 128 255
-0.549106 0.516488 3.5785 0 0 0 128 128 128 255
-0.521995 0.922215 3.59583 0 0 0 128 128 128 255
-0.540065 0.671135 3.58412 0 0 0 128 128 128 255
-0.537528 0.708012 3.58576 0 0 0 128 128 128 255
-0.55873 0.423126 3.57195 0 0 0 128 128 128 255
-0.556947 0.44904 3.5731 0 0 0 128 128 128 255
-0.549955 0.5507 3.57759 0 0 0 128 128 128 255
-0.543125 0.673454 3.58183 0 0 0 128 128 128 255
-0.530648 0.854848 3.58985 0 0 0 128 128 128 255
-0.530442 0.857838 3.58999 0 0 0 128 128 128 255
-0.555213 0.533167 3.57386 0 0 0 128 128 128 255
-0.508251 1.21589 3.60405 0 0 0 128 128 128 255
-0.507497 1.22685 3.60454 0 0 0 128 128 128 255
-0.527504 0.947864 3.59162 0 0 0 128 128 128 255
-0.524625 0.989725 3.59347 0 0 0 128 128 128 255
-0.508573 1.23499 3.60374 0 0 0 128 128 128 255
-0.530093 0.934074 3.58985 0 0 0 128 128 128 255
-0.526117 0.991881 3.59241 0 0 0 128 128 128 255
-0.56265 0.496779 3.5688 0 0 0 128 128 128 255
-0.537558 0.861561 3.58494 0 0 0 128 128 128 255
-0.560187 0.556742 3.57033 0 0 0 128 128 128 255
-0.558678 0.578669 3.5713 0 0 0 128 128 128 255
-0.565351 0.518116 3.56696 0 0 0 128 128 128 255
-0.533746 0.977583 3.58728 0 0 0 128 128 128 255
-0.541368 0.878993 3.58237 0 0 0 128 128 128 255
-0.578677 0.348845 3.55838 0 0 0 128 128 128 255
-0.519375 1.21097 3.5965 0 0 0 128 128 128 255
-0.518209 1.22791 3.59725 0 0 0 128 128 128 255
-0.568683 0.506401 3.5648 0 0 0 128 128 128 255
-0.567861 0.518361 3.56533 0 0 0 128 128 128 255
-0.534971 1.00881 3.58648 0 0 0 128 128 128 255
-0.552747 0.762709 3.57506 0 0 0 128 128 128 255
-0.545137 0.873339 3.57995 0 0 0 128 128 128 255
-0.568835 0.55357 3.56475 0 0 0 128 128 128 255
-0.559331 0.704149 3.57088 0 0 0 128 128 128 255
-0.548967 0.879727 3.5776 0 0 0 128 128 128 255
-0.580673 0.431305 3.55726 0 0 0 128 128 128 255
-0.57985 0.443266 3.55778 0 0 0 128 128 128 255
-0.579678 0.458297 3.55793 0 0 0 128 128 128 255
-0.576704 0.539272 3.55999 0 0 0 128 128 128 255
-0.56335 0.758703 3.5687 0 0 0 128 128 128 255
-0.544953 1.03885 3.58059 0 0 0 128 128 128 255
-0.532707 1.24233 3.58861 0 0 0 128 128 128 255
-0.589454 0.430126 3.55221 0 0 0 128 128 128 255
-0.585515 0.513013 3.55491 0 0 0 128 128 128 255
-0.590164 0.458277 3.55202 0 0 0 128 128 128 255
-0.581526 0.583858 3.55757 0 0 0 128 128 128 255
-0.584531 0.553042 3.55574 0 0 0 128 128 128 255
-0.573812 0.747637 3.56295 0 0 0 128 128 128 255
-0.539808 1.24199 3.58481 0 0 0 128 128 128 255
-0.575106 0.767813 3.56247 0 0 0 128 128 128 255
-0.598005 0.447962 3.54788 0 0 0 128 128 128 255
-0.594446 0.525865 3.55044 0 0 0 128 128 128 255
-0.570593 0.885745 3.56591 0 0 0 128 128 128 255
-0.570943 0.893799 3.56583 0 0 0 128 128 128 255
-0.594262 0.567968 3.55099 0 0 0 128 128 128 255
-0.596054 0.555092 3.54999 0 0 0 128 128 128 255
-0.581383 0.76838 3.55943 0 0 0 128 128 128 255
-0.589841 0.671864 3.55431 0 0 0 128 128 128 255
-0.588538 0.690801 3.55515 0 0 0 128 128 128 255
-0.602951 0.494537 3.54605 0 0 0 128 128 128 255
-0.591929 0.668039 3.55331 0 0 0 128 128 128 255
-0.585229 0.77875 3.55779 0 0 0 128 128 128 255
-0.591281 0.70408 3.55408 0 0 0 128 128 128 255
-0.588127 0.790035 3.55668 0 0 0 128 128 128 255
-0.606869 0.530981 3.54483 0 0 0 128 128 128 255
-0.606183 0.540947 3.54527 0 0 0 128 128 128 255
-0.583546 0.89692 3.56023 0 0 0 128 128 128 255
-0.615318 0.448498 3.54002 0 0 0 128 128 128 255
-0.61905 0.434785 3.53828 0 0 0 128 128 128 255
-0.610206 0.563355 3.54396 0 0 0 128 128 128 255
-0.588062 0.885281 3.5582 0 0 0 128 128 128 255
-0.612847 0.538518 3.54249 0 0 0 128 128 128 255
-0.617858 0.492831 3.53974 0 0 0 128 128 128 255
-0.58783 0.929374 3.55905 0 0 0 128 128 128 255
-0.583153 1.03825 3.56279 0 0 0 128 128 128 255
-0.619988 0.530107 3.53963 0 0 0 128 128 128 255
-0.619006 0.558093 3.54052 0 0 0 128 128 128 255
-0.595217 0.903938 3.55581 0 0 0 128 128 128 255
-0.628994 0.426612 3.53437 0 0 0 128 128 128 255
-0.62255 0.520299 3.53851 0 0 0 128 128 128 255
-0.629386 0.434664 3.53439 0 0 0 128 128 128 255
-0.627672 0.459581 3.53549 0 0 0 128 128 128 255
-0.620747 0.560245 3.53994 0 0 0 128 128 128 255
-0.579937 1.1673 3.56645 0 0 0 128 128 128 255
-0.618212 0.652256 3.5427 0 0 0 128 128 128 255
-0.616086 0.683153 3.54407 0 0 0 128 128 128 255
-0.615607 0.690129 3.54438 0 0 0 128 128 128 255
-0.603321 0.882566 3.55257 0 0 0 128 128 128 255
-0.616951 0.69826 3.5441 0 0 0 128 128 128 255
-0.633991 0.492185 3.53407 0 0 0 128 128 128 255
-0.596147 1.04235 3.5584 0 0 0 128 128 128 255
-0.613141 0.809206 3.54779 0 0 0 128 128 128 255
-0.629313 0.588023 3.53771 0 0 0 128 128 128 255
-0.631638 0.568168 3.53654 0 0 0 128 128 128 255
-0.640477 0.453629 3.53118 0 0 0 128 128 128 255
-0.613123 0.851302 3.54877 0 0 0 128 128 128 255
-0.612849 0.855288 3.54894 0 0 0 128 128 128 255
-0.628953 0.649133 3.53926 0 0 0 128 128 128 255
-0.593989 1.15744 3.56174 0 0 0 128 128 128 255
-0.626003 0.706022 3.54149 0 0 0 128 128 128 255
-0.640194 0.513742 3.53272 0 0 0 128 128 128 255
-0.647324 0.424119 3.52848 0 0 0 128 128 128 255
-0.633134 0.644462 3.53796 0 0 0 128 128 128 255
-0.615789 0.89662 3.54911 0 0 0 128 128 128 255
-0.639924 0.559822 3.53395 0 0 0 128 128 128 255
-0.633483 0.667541 3.53845 0 0 0 128 128 128 255
-0.618948 0.878835 3.5478 0 0 0 128 128 128 255
-0.614972 0.936643 3.55035 0 0 0 128 128 128 255
-0.636366 0.639711 3.53696 0 0 0 128 128 128 255
-0.637194 0.641782 3.5368 0 0 0 128 128 128 255
-0.625265 0.815203 3.54447 0 0 0 128 128 128 255
-0.609154 1.04942 3.55483 0 0 0 128 128 128 255
-0.65242 0.434552 3.52739 0 0 0 128 128 128 255
-0.650432 0.463455 3.52866 0 0 0 128 128 128 255
-0.63247 0.724584 3.54021 0 0 0 128 128 128 255
-0.647697 0.517353 3.5308 0 0 0 128 128 128 255
-0.623976 0.862202 3.54605 0 0 0 128 128 128 255
-0.620959 0.906055 3.54799 0 0 0 128 128 128 255
-0.613829 1.00971 3.55257 0 0 0 128 128 128 255
-0.645451 0.578304 3.53301 0 0 0 128 128 128 255
-0.616588 0.997904 3.55157 0 0 0 128 128 128 255
-0.655196 0.450807 3.52714 0 0 0 128 128 128 255
-0.649368 0.535524 3.53089 0 0 0 128 128 128 255
-0.638216 0.726042 3.53885 0 0 0 128 128 128 255
-0.637324 0.738999 3.53942 0 0 0 128 128 128 255
-0.636982 0.743982 3.53964 0 0 0 128 128 128 255
-0.619979 0.991157 3.55057 0 0 0 128 128 128 255
-0.650088 0.567648 3.53162 0 0 0 128 128 128 255
-0.616769 1.05203 3.55304 0 0 0 128 128 128 255
-0.641463 0.707259 3.53757 0 0 0 128 128 128 255
-0.631331 0.868796 3.5445 0 0 0 128 128 128 255
-0.640548 0.763302 3.53941 0 0 0 128 128 128 255
-0.665896 0.437618 3.5244 0 0 0 128 128 128 255
-0.658511 0.559288 3.52958 0 0 0 128 128 128 255
-0.667805 0.452795 3.52449 0 0 0 128 128 128 255
-0.669561 0.455936 3.52426 0 0 0 128 128 128 255
-0.626507 1.08185 3.55194 0 0 0 128 128 128 255
-0.672531 0.427107 3.52281 0 0 0 128 128 128 255
-0.640995 0.885577 3.54308 0 0 0 128 128 128 255
-0.629888 1.04704 3.55023 0 0 0 128 128 128 255
-0.653405 0.748261 3.5365 0 0 0 128 128 128 255
-0.632999 1.0593 3.55009 0 0 0 128 128 128 255
-0.632657 1.06428 3.55031 0 0 0 128 128 128 255
-0.629348 1.14117 3.5534 0 0 0 128 128 128 255
-0.632308 1.1414 3.55296 0 0 0 128 128 128 255
-0.681657 0.452844 3.52224 0 0 0 128 128 128 255
-0.651109 0.911387 3.54238 0 0 0 128 128 128 255
-0.648024 0.956238 3.54436 0 0 0 128 128 128 255
-0.660805 0.784883 3.53666 0 0 0 128 128 128 255
-0.687603 0.424235 3.52046 0 0 0 128 128 128 255
-0.678721 0.567829 3.52669 0 0 0 128 128 128 255
-0.683346 0.515078 3.52424 0 0 0 128 128 128 255
-0.66367 0.801123 3.53689 0 0 0 128 128 128 255
-0.690882 0.434494 3.52046 0 0 0 128 128 128 255
-0.670589 0.729509 3.53351 0 0 0 128 128 128 255
-0.667162 0.779343 3.53571 0 0 0 128 128 128 255
-0.64584 1.08931 3.54942 0 0 0 128 128 128 255
-0.668085 0.780412 3.53565 0 0 0 128 128 128 255
-0.65413 1.05586 3.54737 0 0 0 128 128 128 255
-0.653582 1.06383 3.54772 0 0 0 128 128 128 255
-0.699379 0.427098 3.5194 0 0 0 128 128 128 255
-0.69931 0.428095 3.51945 0 0 0 128 128 128 255
-0.66558 0.918458 3.54113 0 0 0 128 128 128 255
-0.700203 0.444184 3.52001 0 0 0 128 128 128 255
-0.698832 0.464118 3.5209 0 0 0 128 128 128 255
-0.695062 0.518935 3.52332 0 0 0 128 128 128 255
-0.692319 0.558802 3.52508 0 0 0 128 128 128 255
-0.680631 0.743258 3.53317 0 0 0 128 128 128 255
-0.683994 0.723466 3.53218 0 0 0 128 128 128 255
-0.690818 0.63882 3.52838 0 0 0 128 128 128 255
-0.679848 0.798288 3.53543 0 0 0 128 128 128 255
-0.681736 0.785402 3.53481 0 0 0 128 128 128 255
-0.670424 0.949853 3.54208 0 0 0 128 128 128 255
-0.702751 0.494444 3.52189 0 0 0 128 128 128 255
-0.700737 0.567411 3.525 0 0 0 128 128 128 255
-0.699297 0.588342 3.52592 0 0 0 128 128 128 255
-0.681927 0.884563 3.53893 0 0 0 128 128 128 255
-0.708702 0.509883 3.52234 0 0 0 128 128 128 255
-0.681005 0.912539 3.54015 0 0 0 128 128 128 255
-0.680937 0.913536 3.54019 0 0 0 128 128 128 255
-0.698799 0.668424 3.52933 0 0 0 128 128 128 255
-0.696742 0.698324 3.53065 0 0 0 128 128 128 255
-0.698083 0.69341 3.53042 0 0 0 128 128 128 255
-0.687251 0.850884 3.53739 0 0 0 128 128 128 255
-0.682246 0.923641 3.5406 0 0 0 128 128 128 255
-0.671863 1.08916 3.54791 0 0 0 128 128 128 255
-0.701723 0.669627 3.52935 0 0 0 128 128 128 255
-0.693877 0.798267 3.53504 0 0 0 128 128 128 255
-0.689421 0.86305 3.5379 0 0 0 128 128 128 255
-0.710574 0.570097 3.52495 0 0 0 128 128 128 255
-0.699986 0.738603 3.5324 0 0 0 128 128 128 255
-0.69543 0.819402 3.53598 0 0 0 128 128 128 255
-0.706026 0.679936 3.52983 0 0 0 128 128 128 255
-0.724026 0.432828 3.51891 0 0 0 128 128 128 255
-0.72286 0.449772 3.51966 0 0 0 128 128 128 255
-0.695917 0.841464 3.53699 0 0 0 128 128 128 255
-0.691804 0.901265 3.53963 0 0 0 128 128 128 255
-0.724338 0.442863 3.51938 0 0 0 128 128 128 255
-0.720841 0.493693 3.52162 0 0 0 128 128 128 255
-0.682487 1.06585 3.54695 0 0 0 128 128 128 255
-0.706557 0.745057 3.53282 0 0 0 128 128 128 255
-0.685167 1.05602 3.54657 0 0 0 128 128 128 255
-0.684481 1.06599 3.54701 0 0 0 128 128 128 255
-0.685341 1.06805 3.54714 0 0 0 128 128 128 255
-0.71047 0.717284 3.53166 0 0 0 128 128 128 255
-0.708345 0.74818 3.53303 0 0 0 128 128 128 255
-0.687198 1.07017 3.54731 0 0 0 128 128 128 255
-0.702386 0.863928 3.53823 0 0 0 128 128 128 255
-0.688674 1.06326 3.54705 0 0 0 128 128 128 255
-0.704205 0.852034 3.53776 0 0 0 128 128 128 255
-0.683811 1.16306 3.55156 0 0 0 128 128 128 255
-0.713569 0.759541 3.53383 0 0 0 128 128 128 255
-0.736881 0.449707 3.52026 0 0 0 128 128 128 255
-0.705688 0.903193 3.54032 0 0 0 128 128 128 255
-0.736917 0.463725 3.52095 0 0 0 128 128 128 255
-0.722555 0.687045 3.5309 0 0 0 128 128 128 255
-0.707233 0.924318 3.54147 0 0 0 128 128 128 255
-0.690779 1.16352 3.55205 0 0 0 128 128 128 255
-0.722487 0.717075 3.53239 0 0 0 128 128 128 255
-0.713129 0.867637 3.53913 0 0 0 128 128 128 255
-0.719813 0.784977 3.53557 0 0 0 128 128 128 255
-0.714122 0.867701 3.53923 0 0 0 128 128 128 255
-0.710078 0.926505 3.54183 0 0 0 128 128 128 255
-0.700615 1.09308 3.54938 0 0 0 128 128 128 255
-0.724812 0.770282 3.53531 0 0 0 128 128 128 255
-0.749762 0.436523 3.52077 0 0 0 128 128 128 255
-0.695259 1.22888 3.55581 0 0 0 128 128 128 255
-0.755193 0.429859 3.52109 0 0 0 128 128 128 255
-0.736437 0.716963 3.53392 0 0 0 128 128 128 255
-0.741607 0.656228 3.53137 0 0 0 128 128 128 255
-0.704573 1.22346 3.55674 0 0 0 128 128 128 255
-0.731414 0.890813 3.54265 0 0 0 128 128 128 255
-0.731439 0.904826 3.54343 0 0 0 128 128 128 255
-0.71686 1.13113 3.5536 0 0 0 128 128 128 255
-0.722505 1.06342 3.55078 0 0 0 128 128 128 255
-0.742957 0.780422 3.53844 0 0 0 128 128 128 255
-0.754471 0.656016 3.53348 0 0 0 128 128 128 255
-0.725951 1.07063 3.55182 0 0 0 128 128 128 255
-0.722543 1.13448 3.55483 0 0 0 128 128 128 255
-0.776396 0.437156 3.5252 0 0 0 128 128 128 255
-0.742392 0.931506 3.54706 0 0 0 128 128 128 255
-0.750153 0.832893 3.54292 0 0 0 128 128 128 255
-0.725212 1.20969 3.5598 0 0 0 128 128 128 255
-0.730299 1.14995 3.55738 0 0 0 128 128 128 255
-0.736618 1.07227 3.55417 0 0 0 128 128 128 255
-0.780301 0.451395 3.52694 0 0 0 128 128 128 255
-0.75418 0.831127 3.54373 0 0 0 128 128 128 255
-0.737795 1.06933 3.55427 0 0 0 128 128 128 255
-0.738491 1.07337 3.55468 0 0 0 128 128 128 255
-0.728756 1.2149 3.56094 0 0 0 128 128 128 255
-0.727933 1.22686 3.56147 0 0 0 128 128 128 255
-0.733565 1.15915 3.55871 0 0 0 128 128 128 255
-0.771288 0.638993 3.53619 0 0 0 128 128 128 255
-0.763 0.7736 3.54239 0 0 0 128 128 128 255
-0.741747 1.08257 3.55605 0 0 0 128 128 128 255
-0.789204 0.434896 3.52817 0 0 0 128 128 128 255
-0.771311 0.695027 3.53967 0 0 0 128 128 128 255
-0.79051 0.429967 3.52821 0 0 0 128 128 128 255
-0.766515 0.778803 3.54364 0 0 0 128 128 128 255
-0.789141 0.463908 3.52998 0 0 0 128 128 128 255
-0.784068 0.537662 3.53324 0 0 0 128 128 128 255
-0.792365 0.445079 3.52969 0 0 0 128 128 128 255
-0.791131 0.46302 3.53048 0 0 0 128 128 128 255
-0.769121 0.810966 3.54642 0 0 0 128 128 128 255
-0.741421 1.22763 3.56513 0 0 0 128 128 128 255
-0.752513 1.10819 3.56072 0 0 0 128 128 128 255
-0.799399 0.440467 3.53149 0 0 0 128 128 128 255
-0.754562 1.09229 3.56031 0 0 0 128 128 128 255
-0.754349 1.10929 3.56137 0 0 0 128 128 128 255
-0.789007 0.646985 3.54184 0 0 0 128 128 128 255
-0.787472 0.696921 3.54469 0 0 0 128 128 128 255
-0.786618 0.736889 3.5471 0 0 0 128 128 128 255
-0.806601 0.473867 3.53613 0 0 0 128 128 128 255
-0.774242 0.944297 3.55693 0 0 0 128 128 128 255
-0.763135 1.10576 3.56407 0 0 0 128 128 128 255
-0.762107 1.12071 3.56474 0 0 0 128 128 128 255
-0.764486 1.09983 3.56415 0 0 0 128 128 128 255
-0.798241 0.636473 3.54434 0 0 0 128 128 128 255
-0.809642 0.498033 3.53891 0 0 0 128 128 128 255
-0.811123 0.490109 3.53892 0 0 0 128 128 128 255
-0.800977 0.637616 3.54544 0 0 0 128 128 128 255
-0.781575 0.919675 3.55791 0 0 0 128 128 128 255
-0.765651 1.19191 3.57103 0 0 0 128 128 128 255
-0.782965 0.953753 3.56087 0 0 0 128 128 128 255
-0.770281 1.13814 3.56902 0 0 0 128 128 128 255
-0.765278 1.2379 3.57418 0 0 0 128 128 128 255
-0.801714 0.721669 3.55173 0 0 0 128 128 128 255
-0.767984 1.21203 3.57341 0 0 0 128 128 128 255
-0.767535 1.23201 3.57468 0 0 0 128 128 128 255
-0.816995 0.526414 3.54386 0 0 0 128 128 128 255
-0.817024 0.539417 3.54482 0 0 0 128 128 128 255
-0.794537 0.866326 3.55928 0 0 0 128 128 128 255
-0.79296 0.889249 3.56029 0 0 0 128 128 128 255
-0.771433 1.2022 3.57413 0 0 0 128 128 128 255
-0.8062 0.736895 3.55474 0 0 0 128 128 128 255
-0.783713 1.0638 3.5692 0 0 0 128 128 128 255
-0.778045 1.15953 3.57383 0 0 0 128 128 128 255
-0.80686 0.753928 3.5563 0 0 0 128 128 128 255
-0.778546 1.16555 3.5745 0 0 0 128 128 128 255
-0.810326 0.730096 3.55607 0 0 0 128 128 128 255
-0.800042 0.879597 3.56268 0 0 0 128 128 128 255
-0.827413 0.494926 3.54608 0 0 0 128 128 128 255
-0.811028 0.73313 3.55661 0 0 0 128 128 128 255
-0.808986 0.776031 3.55893 0 0 0 128 128 128 255
-0.80165 0.882675 3.56365 0 0 0 128 128 128 255
-0.797194 0.947459 3.56651 0 0 0 128 128 128 255
-0.81085 0.762121 3.55874 0 0 0 128 128 128 255
-0.831498 0.475123 3.54647 0 0 0 128 128 128 255
-0.819021 0.656517 3.55449 0 0 0 128 128 128 255
-0.802567 0.895719 3.56507 0 0 0 128 128 128 255
-0.799962 0.933592 3.56675 0 0 0 128 128 128 255
-0.790991 1.07716 3.57352 0 0 0 128 128 128 255
-0.813219 0.780233 3.56126 0 0 0 128 128 128 255
-0.820903 0.681604 3.55734 0 0 0 128 128 128 255
-0.813979 0.782268 3.56179 0 0 0 128 128 128 255
-0.807671 0.873962 3.56584 0 0 0 128 128 128 255
-0.794234 1.06931 3.57448 0 0 0 128 128 128 255
-0.831467 0.554114 3.55259 0 0 0 128 128 128 255
-0.815767 0.782352 3.56268 0 0 0 128 128 128 255
-0.807815 0.910964 3.56882 0 0 0 128 128 128 255
-0.838733 0.474462 3.54997 0 0 0 128 128 128 255
-0.805757 0.953862 3.57117 0 0 0 128 128 128 255
-0.837497 0.5054 3.55179 0 0 0 128 128 128 255
-0.83427 0.565241 3.55489 0 0 0 128 128 128 255
-0.824877 0.701785 3.56093 0 0 0 128 128 128 255
-0.790112 1.2201 3.58432 0 0 0 128 128 128 255
-0.838917 0.523461 3.55397 0 0 0 128 128 128 255
-0.835206 0.590278 3.5574 0 0 0 128 128 128 255
-0.801738 1.08965 3.57995 0 0 0 128 128 128 255
-0.812214 0.950156 3.57426 0 0 0 128 128 128 255
-0.794252 1.21128 3.58581 0 0 0 128 128 128 255
-0.792744 1.23321 3.58678 0 0 0 128 128 128 255
-0.79758 1.18844 3.58576 0 0 0 128 128 128 255
-0.796375 1.23137 3.58863 0 0 0 128 128 128 255
-0.837693 0.643373 3.56312 0 0 0 128 128 128 255
-0.818199 0.939423 3.5767 0 0 0 128 128 128 255
-0.838466 0.657402 3.56473 0 0 0 128 128 128 255
-0.835381 0.702252 3.56671 0 0 0 128 128 128 255
-0.801102 1.20059 3.58875 0 0 0 128 128 128 255
-0.799388 1.22551 3.58985 0 0 0 128 128 128 255
-0.845157 0.572722 3.56149 0 0 0 128 128 128 255
-0.806833 1.12986 3.58613 0 0 0 128 128 128 255
-0.809409 1.10498 3.58553 0 0 0 128 128 128 255
-0.822572 0.963599 3.58133 0 0 0 128 128 128 255
-0.824206 0.964667 3.58242 0 0 0 128 128 128 255
-0.813605 1.13115 3.59031 0 0 0 128 128 128 255
-0.85161 0.590984 3.56695 0 0 0 128 128 128 255
-0.853962 0.569092 3.56651 0 0 0 128 128 128 255
-0.819772 1.07843 3.58958 0 0 0 128 128 128 255
-0.820628 1.09045 3.59119 0 0 0 128 128 128 255
-0.834182 0.954073 3.58792 0 0 0 128 128 128 255
-0.866408 0.497629 3.56829 0 0 0 128 128 128 255
-0.851669 0.723905 3.57886 0 0 0 128 128 128 255
-0.857084 0.65716 3.57648 0 0 0 128 128 128 255
-0.837063 0.960179 3.59045 0 0 0 128 128 128 255
-0.855346 0.73004 3.582 0 0 0 128 128 128 255
-0.841594 0.965344 3.59417 0 0 0 128 128 128 255
-0.869136 0.57667 3.57757 0 0 0 128 128 128 255
-0.873161 0.529855 3.57609 0 0 0 128 128 128 255
-0.869047 0.589656 3.57874 0 0 0 128 128 128 255
-0.876378 0.51798 3.57737 0 0 0 128 128 128 255
-0.866643 0.659508 3.58363 0 0 0 128 128 128 255
-0.86432 0.716373 3.58736 0 0 0 128 128 128 255
-0.88122 0.482182 3.57761 0 0 0 128 128 128 255
-0.864218 0.729357 3.58855 0 0 0 128 128 128 255
-0.852495 0.899788 3.59608 0 0 0 128 128 128 255
-0.865104 0.739377 3.59022 0 0 0 128 128 128 255
-0.88234 0.500202 3.58027 0 0 0 128 128 128 255
-0.882777 0.505211 3.58111 0 0 0 128 128 128 255
-0.894593 0.344773 3.57464 0 0 0 128 128 128 255
-0.879921 0.558061 3.58408 0 0 0 128 128 128 255
-0.858964 0.874032 3.59868 0 0 0 128 128 128 255
-0.868992 0.739506 3.59336 0 0 0 128 128 128 255
-0.860945 0.890077 3.60194 0 0 0 128 128 128 255
-0.861297 0.896081 3.60285 0 0 0 128 128 128 255
-0.862401 0.891121 3.60327 0 0 0 128 128 128 255
-0.861926 0.909085 3.60472 0 0 0 128 128 128 255
-0.893121 0.477571 3.58694 0 0 0 128 128 128 255
-0.867618 0.848334 3.60334 0 0 0 128 128 128 255
-0.875294 0.747692 3.59955 0 0 0 128 128 128 255
-0.90134 0.379942 3.58395 0 0 0 128 128 128 255
-0.893867 0.48858 3.58875 0 0 0 128 128 128 255
-0.882822 0.660029 3.597 0 0 0 128 128 128 255
-0.874527 0.780627 3.60233 0 0 0 128 128 128 255
-0.880893 0.698921 3.59938 0 0 0 128 128 128 255
-0.892398 0.542465 3.59313 0 0 0 128 128 128 255
-0.889655 0.582332 3.5949 0 0 0 128 128 128 255
-0.873941 0.821554 3.60615 0 0 0 128 128 128 255
-0.898672 0.47274 3.5914 0 0 0 128 128 128 255
-0.873992 0.831542 3.60727 0 0 0 128 128 128 255
-0.907565 0.354156 3.58683 0 0 0 128 128 128 255
-0.879936 0.755815 3.60459 0 0 0 128 128 128 255
-0.892048 0.590388 3.59796 0 0 0 128 128 128 255
-0.88293 0.722945 3.60382 0 0 0 128 128 128 255
-0.875638 0.839576 3.60966 0 0 0 128 128 128 255
-0.888332 0.676161 3.60381 0 0 0 128 128 128 255
-0.882367 0.762871 3.60764 0 0 0 128 128 128 255
-0.896971 0.571548 3.60057 0 0 0 128 128 128 255
-0.883328 0.769886 3.60934 0 0 0 128 128 128 255
-0.891776 0.678246 3.60739 0 0 0 128 128 128 255
-0.885332 0.771933 3.61153 0 0 0 128 128 128 255
-0.895364 0.636403 3.60624 0 0 0 128 128 128 255
-0.879596 0.865638 3.61638 0 0 0 128 128 128 255
-0.881622 0.856702 3.6174 0 0 0 128 128 128 255
-0.893373 0.706237 3.61217 0 0 0 128 128 128 255
-0.895371 0.687317 3.61206 0 0 0 128 128 128 255
-0.891669 0.741137 3.61444 0 0 0 128 128 128 255
-0.897503 0.666402 3.61185 0 0 0 128 128 128 255
-0.894212 0.714243 3.61397 0 0 0 128 128 128 255
-0.889898 0.787015 3.61791 0 0 0 128 128 128 255
-0.887292 0.824889 3.61958 0 0 0 128 128 128 255
-0.890241 0.801995 3.62002 0 0 0 128 128 128 255
-0.888047 0.833889 3.62143 0 0 0 128 128 128 255
-0.901001 0.655499 3.61428 0 0 0 128 128 128 255
-0.899561 0.676429 3.6152 0 0 0 128 128 128 255
-0.893933 0.768137 3.61999 0 0 0 128 128 128 255
-0.89311 0.780097 3.62052 0 0 0 128 128 128 255
-0.896037 0.757202 3.62098 0 0 0 128 128 128 255
-0.896091 0.766185 3.62212 0 0 0 128 128 128 255
-0.892184 0.822995 3.62463 0 0 0 128 128 128 255
-0.903341 0.670517 3.61863 0 0 0 128 128 128 255
-0.892372 0.829985 3.62568 0 0 0 128 128 128 255
-0.90003 0.728337 3.62193 0 0 0 128 128 128 255
-0.89939 0.747287 3.62352 0 0 0 128 128 128 255
-0.88705 0.926688 3.63145 0 0 0 128 128 128 255
-0.885662 0.97556 3.63587 0 0 0 128 128 128 255
-0.889508 0.966644 3.63929 0 0 0 128 128 128 255
-0.891243 0.950707 3.63936 0 0 0 128 128 128 255
-0.926677 0.481318 3.62249 0 0 0 128 128 128 255
-0.917485 0.650782 3.63313 0 0 0 128 128 128 255
-0.915283 0.691653 3.63573 0 0 0 128 128 128 255
-0.904713 0.854117 3.64371 0 0 0 128 128 128 255
-0.905504 0.860109 3.64558 0 0 0 128 128 128 255
-0.912727 0.772412 3.64331 0 0 0 128 128 128 255
-0.899907 0.95879 3.65155 0 0 0 128 128 128 255
-0.926246 0.593021 3.63699 0 0 0 128 128 128 255
-0.904138 0.922924 3.65239 0 0 0 128 128 128 255
-0.911108 0.855164 3.65266 0 0 0 128 128 128 255
-0.957243 0.34885 3.64796 0 0 0 128 128 128 255
-0.960697 0.341848 3.65286 0 0 0 128 128 128 255
-0.957475 0.388691 3.65493 0 0 0 128 128 128 255
-0.962184 0.361744 3.65901 0 0 0 128 128 128 255
-0.961656 0.428446 3.67 0 0 0 128 128 128 255
-0.916884 1.22742 3.72924 0 0 0 128 128 128 255
-0.916816 1.22842 3.72929 0 0 0 128 128 128 255
-0.918873 1.21342 3.73144 0 0 0 128 128 128 255
-0.940411 1.06778 3.76846 0 0 0 128 128 128 255
-0.963434 0.773075 3.77525 0 0 0 128 128 128 255
-0.960569 0.823641 3.78446 0 0 0 128 128 128 255
