ply
format ascii 1.0
comment VCGLIB generated
element vertex 289
property float x
property float y
property float z
property float nx
property float ny
property float nz
property uchar red
property uchar green
property uchar blue
property uchar alpha
element face 0
property list uchar int vertex_indices
end_header
0.376587 0.450799 4.29188 0 0 0 0 128 0 255
0.371017 0.347015 4.2961 0 0 0 0 128 0 255
0.421921 1.30348 4.27761 0 0 0 0 128 0 255
0.371946 0.367075 4.29967 0 0 0 0 128 0 255
0.358938 0.132659 4.31268 0 0 0 0 128 0 255
0.404471 0.998392 4.3001 0 0 0 0 128 0 255
0.363436 0.242806 4.32224 0 0 0 0 128 0 255
0.36333 0.240809 4.32228 0 0 0 0 128 0 255
0.405491 1.0436 4.30904 0 0 0 0 128 0 255
0.403368 1.01677 4.31355 0 0 0 0 128 0 255
0.378768 0.558555 4.32435 0 0 0 0 128 0 255
0.400543 0.986008 4.3201 0 0 0 0 128 0 255
0.396985 1.03473 4.34122 0 0 0 0 128 0 255
0.404105 1.29904 4.35324 0 0 0 0 128 0 255
0.381738 1.0132 4.3737 0 0 0 0 128 0 255
-0.000295654 0.400971 4.39499 0 0 0 0 128 0 255
-0.00954847 0.256236 4.39552 0 0 0 0 128 0 255
0.0206193 0.841289 4.38126 0 0 0 0 128 0 255
0.0172822 0.806369 4.37939 0 0 0 0 128 0 255
-0.00527707 0.392059 4.3874 0 0 0 0 128 0 255
0.0167059 0.831354 4.37534 0 0 0 0 128 0 255
-0.0126588 0.306236 4.38393 0 0 0 0 128 0 255
0.0122083 0.846381 4.36426 0 0 0 0 128 0 255
-0.000239491 0.612766 4.36926 0 0 0 0 128 0 255
-0.0148018 0.347206 4.37404 0 0 0 0 128 0 255
-0.0155715 0.370176 4.36896 0 0 0 0 128 0 255
-0.0158602 0.458016 4.35399 0 0 0 0 128 0 255
-0.00974356 0.578814 4.35046 0 0 0 0 128 0 255
-0.0142652 0.493953 4.35228 0 0 0 0 128 0 255
-0.0285315 0.249341 4.35371 0 0 0 0 128 0 255
-0.0179229 0.453999 4.34837 0 0 0 0 128 0 255
-0.0190657 0.43802 4.34776 0 0 0 0 128 0 255
-0.0225767 0.372129 4.34917 0 0 0 0 128 0 255
-0.0159646 0.506896 4.34437 0 0 0 0 128 0 255
-0.0313497 0.223357 4.34948 0 0 0 0 128 0 255
-0.0118337 0.594739 4.34056 0 0 0 0 128 0 255
-0.0204534 0.437991 4.34296 0 0 0 0 128 0 255
-0.0273586 0.318175 4.34359 0 0 0 0 128 0 255
-0.00106756 0.816347 4.33195 0 0 0 0 128 0 255
-0.0244205 0.378069 4.34134 0 0 0 0 128 0 255
-0.0257504 0.35311 4.34188 0 0 0 0 128 0 255
-0.0350425 0.183382 4.34454 0 0 0 0 128 0 255
-0.0356589 0.176386 4.34372 0 0 0 0 128 0 255
-0.0263229 0.356082 4.3389 0 0 0 0 128 0 255
-0.0165566 0.543764 4.33391 0 0 0 0 128 0 255
-0.00147784 0.835266 4.32572 0 0 0 0 128 0 255
-0.0198303 0.490834 4.33309 0 0 0 0 128 0 255
-0.0285544 0.327104 4.3366 0 0 0 0 128 0 255
-0.0289872 0.323101 4.33571 0 0 0 0 128 0 255
-0.0294683 0.3181 4.33484 0 0 0 0 128 0 255
-0.0136135 0.619593 4.32741 0 0 0 0 128 0 255
-0.025178 0.420868 4.32676 0 0 0 0 128 0 255
-0.0169383 0.591527 4.31818 0 0 0 0 128 0 255
-0.00394832 0.849035 4.30771 0 0 0 0 128 0 255
-0.00438337 0.847994 4.30476 0 0 0 0 128 0 255
-0.0248289 0.47057 4.30986 0 0 0 0 128 0 255
-0.023327 0.502485 4.30719 0 0 0 0 128 0 255
-0.0184554 0.600257 4.30111 0 0 0 0 128 0 255
-0.0198385 0.574299 4.30166 0 0 0 0 128 0 255
-0.029454 0.40431 4.29132 0 0 0 0 128 0 255
-0.0179131 0.62091 4.28468 0 0 0 0 128 0 255
-0.0179489 0.619868 4.2827 0 0 0 0 128 0 255
-0.0193159 0.593889 4.28226 0 0 0 0 128 0 255
-0.00808096 0.675352 4.2321 0 0 0 0 128 0 255
0.0156002 0.845476 4.19019 0 0 0 0 128 0 255
0.0201401 0.842042 4.18144 0 0 0 0 128 0 255
0.0249794 0.595925 4.16022 0 0 0 0 128 0 255
0.0262273 0.583795 4.15815 0 0 0 0 128 0 255
0.0515324 0.960766 4.144 0 0 0 0 128 0 255
0.02669 0.494534 4.15399 0 0 0 0 128 0 255
0.0315907 0.561321 4.15107 0 0 0 0 128 0 255
0.0376563 0.597948 4.1459 0 0 0 0 128 0 255
0.0376031 0.59695 4.14593 0 0 0 0 128 0 255
0.034679 0.475886 4.14497 0 0 0 0 128 0 255
0.0426405 0.557485 4.13975 0 0 0 0 128 0 255
0.0479218 0.601198 4.13611 0 0 0 0 128 0 255
0.0472823 0.575187 4.136 0 0 0 0 128 0 255
0.0470163 0.570195 4.1361 0 0 0 0 128 0 255
0.0443565 0.520277 4.13717 0 0 0 0 128 0 255
0.0431862 0.498313 4.13764 0 0 0 0 128 0 255
0.0450555 0.505194 4.13617 0 0 0 0 128 0 255
0.0478971 0.486951 4.13332 0 0 0 0 128 0 255
0.0483473 0.480907 4.13281 0 0 0 0 128 0 255
0.0560661 0.596606 4.12907 0 0 0 0 128 0 255
0.0580249 0.499269 4.12566 0 0 0 0 128 0 255
0.0654348 0.561887 4.12141 0 0 0 0 128 0 255
0.0702246 0.542526 4.11791 0 0 0 0 128 0 255
0.0701182 0.540529 4.11796 0 0 0 0 128 0 255
0.0703637 0.513461 4.11746 0 0 0 0 128 0 255
0.0806 0.576903 4.11195 0 0 0 0 128 0 255
0.0763443 0.497034 4.11366 0 0 0 0 128 0 255
0.0785927 0.522935 4.11261 0 0 0 0 128 0 255
0.0896985 0.599353 4.10713 0 0 0 0 128 0 255
0.10798 0.925758 4.09968 0 0 0 0 128 0 255
0.0905798 0.498119 4.10618 0 0 0 0 128 0 255
0.0903138 0.493127 4.10628 0 0 0 0 128 0 255
0.103562 0.535369 4.10053 0 0 0 0 128 0 255
0.101319 0.423324 4.10146 0 0 0 0 128 0 255
0.112869 0.604909 4.09687 0 0 0 0 128 0 255
0.103028 0.420214 4.10082 0 0 0 0 128 0 255
0.111465 0.560925 4.09746 0 0 0 0 128 0 255
0.114248 0.577782 4.09642 0 0 0 0 128 0 255
0.112865 0.551825 4.09698 0 0 0 0 128 0 255
0.11519 0.577725 4.09609 0 0 0 0 128 0 255
0.108609 0.400844 4.09891 0 0 0 0 128 0 255
0.10829 0.394854 4.09904 0 0 0 0 128 0 255
0.138222 0.920873 4.08715 0 0 0 0 128 0 255
0.118901 0.522415 4.09508 0 0 0 0 128 0 255
0.113685 0.406548 4.09727 0 0 0 0 128 0 255
0.149767 0.957241 4.08354 0 0 0 0 128 0 255
0.136309 0.704657 4.08895 0 0 0 0 128 0 255
0.13083 0.601827 4.09115 0 0 0 0 128 0 255
0.130191 0.589846 4.09141 0 0 0 0 128 0 255
0.122007 0.418073 4.09483 0 0 0 0 128 0 255
0.143889 0.719235 4.08694 0 0 0 0 128 0 255
0.156103 0.911804 4.08237 0 0 0 0 128 0 255
0.147078 0.724057 4.08618 0 0 0 0 128 0 255
0.129949 0.402587 4.09307 0 0 0 0 128 0 255
0.149139 0.725941 4.08573 0 0 0 0 128 0 255
0.150224 0.727881 4.08549 0 0 0 0 128 0 255
0.149852 0.720893 4.08564 0 0 0 0 128 0 255
0.14391 0.553999 4.08865 0 0 0 0 128 0 255
0.143281 0.393814 4.09079 0 0 0 0 128 0 255
0.147579 0.418607 4.08985 0 0 0 0 128 0 255
0.157347 0.58328 4.0862 0 0 0 0 128 0 255
0.156815 0.573296 4.08641 0 0 0 0 128 0 255
0.166371 0.733976 4.08285 0 0 0 0 128 0 255
0.165095 0.710015 4.08336 0 0 0 0 128 0 255
0.156158 0.542292 4.08696 0 0 0 0 128 0 255
0.155163 0.486273 4.08793 0 0 0 0 128 0 255
0.161974 0.55799 4.08609 0 0 0 0 128 0 255
0.153888 0.40624 4.08934 0 0 0 0 128 0 255
0.159989 0.502027 4.0872 0 0 0 0 128 0 255
0.162527 0.530924 4.0865 0 0 0 0 128 0 255
0.180395 0.791277 4.08062 0 0 0 0 128 0 255
0.166483 0.49266 4.08691 0 0 0 0 128 0 255
0.19219 0.918795 4.07764 0 0 0 0 128 0 255
0.172242 0.544412 4.08566 0 0 0 0 128 0 255
0.179762 0.55402 4.0853 0 0 0 0 128 0 255
0.175109 0.429119 4.08798 0 0 0 0 128 0 255
0.173088 0.391182 4.08879 0 0 0 0 128 0 255
0.206552 0.944059 4.07701 0 0 0 0 128 0 255
0.185953 0.538674 4.08573 0 0 0 0 128 0 255
0.188494 0.567574 4.08514 0 0 0 0 128 0 255
0.210557 0.962871 4.07671 0 0 0 0 128 0 255
0.207352 0.883948 4.07844 0 0 0 0 128 0 255
0.198415 0.716225 4.08204 0 0 0 0 128 0 255
0.192032 0.596422 4.0846 0 0 0 0 128 0 255
0.200849 0.743128 4.08151 0 0 0 0 128 0 255
0.186179 0.411519 4.08879 0 0 0 0 128 0 255
0.193186 0.524281 4.08644 0 0 0 0 128 0 255
0.198848 0.593065 4.08512 0 0 0 0 128 0 255
0.206599 0.719805 4.08249 0 0 0 0 128 0 255
0.195944 0.501114 4.08726 0 0 0 0 128 0 255
0.235098 1.17984 4.07301 0 0 0 0 128 0 255
0.213544 0.663392 4.08479 0 0 0 0 128 0 255
0.218151 0.73123 4.08348 0 0 0 0 128 0 255
0.221699 0.742064 4.08369 0 0 0 0 128 0 255
0.213188 0.582327 4.08711 0 0 0 0 128 0 255
0.204226 0.395586 4.09127 0 0 0 0 128 0 255
0.222181 0.714012 4.08461 0 0 0 0 128 0 255
0.211383 0.511346 4.08895 0 0 0 0 128 0 255
0.216889 0.596157 4.0873 0 0 0 0 128 0 255
0.213059 0.524275 4.08884 0 0 0 0 128 0 255
0.235506 0.908545 4.08095 0 0 0 0 128 0 255
0.228874 0.728696 4.08536 0 0 0 0 128 0 255
0.239801 0.915341 4.08156 0 0 0 0 128 0 255
0.220993 0.488853 4.09153 0 0 0 0 128 0 255
0.21927 0.419872 4.09345 0 0 0 0 128 0 255
0.218153 0.398907 4.0939 0 0 0 0 128 0 255
0.248223 0.94496 4.08243 0 0 0 0 128 0 255
0.236385 0.686293 4.08845 0 0 0 0 128 0 255
0.230427 0.574477 4.09085 0 0 0 0 128 0 255
0.253215 0.96574 4.08296 0 0 0 0 128 0 255
0.242957 0.755041 4.08772 0 0 0 0 128 0 255
0.235849 0.549197 4.0932 0 0 0 0 128 0 255
0.234147 0.51725 4.09388 0 0 0 0 128 0 255
0.234361 0.503228 4.09446 0 0 0 0 128 0 255
0.234522 0.488208 4.09507 0 0 0 0 128 0 255
0.230213 0.407341 4.0968 0 0 0 0 128 0 255
0.232712 0.436248 4.09647 0 0 0 0 128 0 255
0.235832 0.423092 4.09794 0 0 0 0 128 0 255
0.245548 0.569763 4.09543 0 0 0 0 128 0 255
0.278518 1.17073 4.08287 0 0 0 0 128 0 255
0.241334 0.472879 4.09783 0 0 0 0 128 0 255
0.248541 0.572628 4.09634 0 0 0 0 128 0 255
0.247921 0.52562 4.09802 0 0 0 0 128 0 255
0.252582 0.595462 4.09687 0 0 0 0 128 0 255
0.250242 0.551534 4.09781 0 0 0 0 128 0 255
0.27235 0.948837 4.08965 0 0 0 0 128 0 255
0.252454 0.575452 4.09765 0 0 0 0 128 0 255
0.286505 1.17937 4.08542 0 0 0 0 128 0 255
0.253071 0.534394 4.0996 0 0 0 0 128 0 255
0.276076 0.94867 4.09109 0 0 0 0 128 0 255
0.246393 0.391587 4.10303 0 0 0 0 128 0 255
0.275354 0.917679 4.09213 0 0 0 0 128 0 255
0.253278 0.503362 4.10101 0 0 0 0 128 0 255
0.257554 0.566217 4.10003 0 0 0 0 128 0 255
0.254877 0.481275 4.10262 0 0 0 0 128 0 255
0.260471 0.483031 4.10499 0 0 0 0 128 0 255
0.26888 0.589737 4.10397 0 0 0 0 128 0 255
0.265361 0.489825 4.10698 0 0 0 0 128 0 255
0.274166 0.554491 4.1083 0 0 0 0 128 0 255
0.274358 0.541475 4.10904 0 0 0 0 128 0 255
0.280027 0.598271 4.10925 0 0 0 0 128 0 255
0.298742 0.916674 4.1034 0 0 0 0 128 0 255
0.273527 0.443454 4.11354 0 0 0 0 128 0 255
0.309343 0.954265 4.10771 0 0 0 0 128 0 255
0.308864 0.945279 4.1079 0 0 0 0 128 0 255
0.296625 0.574597 4.12081 0 0 0 0 128 0 255
0.287901 0.410867 4.12432 0 0 0 0 128 0 255
0.299377 0.5955 4.12151 0 0 0 0 128 0 255
0.29677 0.54658 4.12256 0 0 0 0 128 0 255
0.30256 0.594379 4.12388 0 0 0 0 128 0 255
0.298415 0.486497 4.12739 0 0 0 0 128 0 255
0.304259 0.566307 4.12689 0 0 0 0 128 0 255
0.301591 0.501385 4.12889 0 0 0 0 128 0 255
0.303176 0.516332 4.12919 0 0 0 0 128 0 255
0.320025 0.817806 4.12335 0 0 0 0 128 0 255
0.305023 0.53627 4.12938 0 0 0 0 128 0 255
0.299899 0.425425 4.13238 0 0 0 0 128 0 255
0.309128 0.526121 4.1334 0 0 0 0 128 0 255
0.31755 0.669858 4.13097 0 0 0 0 128 0 255
0.313424 0.563979 4.13454 0 0 0 0 128 0 255
0.31252 0.547007 4.13491 0 0 0 0 128 0 255
0.310878 0.502055 4.13653 0 0 0 0 128 0 255
0.317051 0.575857 4.13694 0 0 0 0 128 0 255
0.313525 0.481962 4.1403 0 0 0 0 128 0 255
0.322388 0.56668 4.14262 0 0 0 0 128 0 255
0.328253 0.597496 4.14623 0 0 0 0 128 0 255
0.347402 0.943904 4.13953 0 0 0 0 128 0 255
0.325007 0.523596 4.14853 0 0 0 0 128 0 255
0.329548 0.507462 4.15478 0 0 0 0 128 0 255
0.335008 0.585296 4.15462 0 0 0 0 128 0 255
0.330232 0.483445 4.15757 0 0 0 0 128 0 255
0.338486 0.590199 4.15835 0 0 0 0 128 0 255
0.33252 0.385407 4.16902 0 0 0 0 128 0 255
0.34562 0.620006 4.1648 0 0 0 0 128 0 255
0.346542 0.614986 4.16651 0 0 0 0 128 0 255
0.338389 0.418255 4.17398 0 0 0 0 128 0 255
0.354312 0.653794 4.1739 0 0 0 0 128 0 255
0.354657 0.639795 4.17587 0 0 0 0 128 0 255
0.34906 0.45602 4.18662 0 0 0 0 128 0 255
0.348901 0.453025 4.18669 0 0 0 0 128 0 255
0.352348 0.384042 4.20136 0 0 0 0 128 0 255
0.368649 0.673557 4.19696 0 0 0 0 128 0 255
0.35732 0.436937 4.20474 0 0 0 0 128 0 255
0.362175 0.504818 4.20602 0 0 0 0 128 0 255
0.370877 0.660559 4.2036 0 0 0 0 128 0 255
0.383776 0.873204 4.20272 0 0 0 0 128 0 255
0.348454 0.210296 4.21692 0 0 0 0 128 0 255
0.38562 0.840267 4.21275 0 0 0 0 128 0 255
0.385539 0.826295 4.21494 0 0 0 0 128 0 255
0.378312 0.678544 4.22 0 0 0 0 128 0 255
0.361392 0.355081 4.22788 0 0 0 0 128 0 255
0.349969 0.123474 4.2357 0 0 0 0 128 0 255
0.367023 0.437961 4.22991 0 0 0 0 128 0 255
0.356782 0.240292 4.23511 0 0 0 0 128 0 255
0.3688 0.430022 4.23778 0 0 0 0 128 0 255
0.392525 0.820494 4.24208 0 0 0 0 128 0 255
0.398368 0.916381 4.24395 0 0 0 0 128 0 255
0.39439 0.838521 4.24661 0 0 0 0 128 0 255
0.404666 1.02524 4.24458 0 0 0 0 128 0 255
0.394878 0.841541 4.24852 0 0 0 0 128 0 255
0.367905 0.332393 4.26041 0 0 0 0 128 0 255
0.362905 0.238547 4.26242 0 0 0 0 128 0 255
0.361142 0.20262 4.26418 0 0 0 0 128 0 255
0.377272 0.49023 4.26397 0 0 0 0 128 0 255
0.364718 0.254618 4.26901 0 0 0 0 128 0 255
0.420855 1.29996 4.25059 0 0 0 0 128 0 255
0.356852 0.096956 4.27736 0 0 0 0 128 0 255
0.356108 0.082979 4.27766 0 0 0 0 128 0 255
0.361361 0.179836 4.27658 0 0 0 0 128 0 255
0.373952 0.411505 4.27461 0 0 0 0 128 0 255
0.360227 0.153929 4.28013 0 0 0 0 128 0 255
0.355546 0.0660741 4.28201 0 0 0 0 128 0 255
0.376046 0.44946 4.27479 0 0 0 0 128 0 255
0.356645 0.0840797 4.28362 0 0 0 0 128 0 255
0.356326 0.0780895 4.28375 0 0 0 0 128 0 255
0.401765 0.929704 4.2665 0 0 0 0 128 0 255
0.368465 0.304734 4.27989 0 0 0 0 128 0 255
0.362028 0.183933 4.28248 0 0 0 0 128 0 255
0.400654 0.907759 4.26797 0 0 0 0 128 0 255
0.378525 0.491463 4.27789 0 0 0 0 128 0 255
0.369104 0.313775 4.28269 0 0 0 0 128 0 255
0.364414 0.22494 4.2856 0 0 0 0 128 0 255
0.400393 0.898869 4.27316 0 0 0 0 128 0 255
0.370473 0.336815 4.2862 0 0 0 0 128 0 255
0.377338 0.464666 4.28646 0 0 0 0 128 0 255
