ply
format ascii 1.0
comment VCGLIB generated
element vertex 506
property float x
property float y
property float z
property float nx
property float ny
property float nz
property uchar red
property uchar green
property uchar blue
property uchar alpha
element face 0
property list uchar int vertex_indices
end_header
-0.999849 0.351384 3.70095 0 0 0 128 128 128 255
-0.996931 0.358401 3.69573 0 0 0 128 128 128 255
-0.996033 0.35941 3.69395 0 0 0 128 128 128 255
-0.971415 0.429164 3.66068 0 0 0 128 128 128 255
-0.970797 0.363325 3.64969 0 0 0 128 128 128 255
-0.969504 0.342353 3.64474 0 0 0 128 128 128 255
-0.965402 0.390175 3.64583 0 0 0 128 128 128 255
-0.965499 0.349265 3.64014 0 0 0 128 128 128 255
-0.920213 0.856317 3.65 0 0 0 128 128 128 255
-0.928037 0.698775 3.63908 0 0 0 128 128 128 255
-0.913486 0.861138 3.64248 0 0 0 128 128 128 255
-0.932527 0.594056 3.63109 0 0 0 128 128 128 255
-0.923052 0.650706 3.62735 0 0 0 128 128 128 255
-0.897627 0.949556 3.63557 0 0 0 128 128 128 255
-0.931403 0.482172 3.61624 0 0 0 128 128 128 255
-0.894466 0.964438 3.63398 0 0 0 128 128 128 255
-0.892274 0.975355 3.63298 0 0 0 128 128 128 255
-0.913143 0.673368 3.61952 0 0 0 128 128 128 255
-0.913952 0.662406 3.61909 0 0 0 128 128 128 255
-0.90066 0.75586 3.61648 0 0 0 128 128 128 255
-0.890775 0.860415 3.61857 0 0 0 128 128 128 255
-0.892686 0.834506 3.61754 0 0 0 128 128 128 255
-0.900702 0.715895 3.61213 0 0 0 128 128 128 255
-0.901216 0.70892 3.61186 0 0 0 128 128 128 255
-0.89189 0.825485 3.61581 0 0 0 128 128 128 255
-0.903133 0.643042 3.60652 0 0 0 128 128 128 255
-0.896222 0.726721 3.60918 0 0 0 128 128 128 255
-0.899743 0.668896 3.60621 0 0 0 128 128 128 255
-0.892965 0.740588 3.60773 0 0 0 128 128 128 255
-0.897447 0.679801 3.60531 0 0 0 128 128 128 255
-0.897655 0.666818 3.60413 0 0 0 128 128 128 255
-0.887758 0.770367 3.60628 0 0 0 128 128 128 255
-0.899837 0.585953 3.59763 0 0 0 128 128 128 255
-0.885998 0.763301 3.60405 0 0 0 128 128 128 255
-0.885133 0.754272 3.6024 0 0 0 128 128 128 255
-0.88741 0.72338 3.60117 0 0 0 128 128 128 255
-0.891084 0.673554 3.59918 0 0 0 128 128 128 255
-0.887492 0.701394 3.59901 0 0 0 128 128 128 255
-0.880879 0.77009 3.60048 0 0 0 128 128 128 255
-0.87771 0.791949 3.60009 0 0 0 128 128 128 255
-0.878519 0.780988 3.59966 0 0 0 128 128 128 255
-0.878034 0.776969 3.59887 0 0 0 128 128 128 255
-0.871081 0.860643 3.60158 0 0 0 128 128 128 255
-0.877963 0.745978 3.59578 0 0 0 128 128 128 255
-0.86564 0.902397 3.60139 0 0 0 128 128 128 255
-0.865659 0.891401 3.60034 0 0 0 128 128 128 255
-0.871096 0.81766 3.59741 0 0 0 128 128 128 255
-0.863354 0.890302 3.59848 0 0 0 128 128 128 255
-0.885261 0.582346 3.58562 0 0 0 128 128 128 255
-0.901876 0.346139 3.57562 0 0 0 128 128 128 255
-0.891891 0.470667 3.57998 0 0 0 128 128 128 255
-0.871396 0.737696 3.59001 0 0 0 128 128 128 255
-0.889036 0.476539 3.57844 0 0 0 128 128 128 255
-0.858247 0.87208 3.59301 0 0 0 128 128 128 255
-0.869856 0.714632 3.58674 0 0 0 128 128 128 255
-0.866613 0.736481 3.58646 0 0 0 128 128 128 255
-0.893138 0.376742 3.57214 0 0 0 128 128 128 255
-0.894305 0.349799 3.57049 0 0 0 128 128 128 255
-0.88025 0.518133 3.57605 0 0 0 128 128 128 255
-0.882074 0.482221 3.57405 0 0 0 128 128 128 255
-0.858122 0.728086 3.57994 0 0 0 128 128 128 255
-0.840019 0.962226 3.58872 0 0 0 128 128 128 255
-0.872434 0.499766 3.56923 0 0 0 128 128 128 255
-0.836326 0.955047 3.58575 0 0 0 128 128 128 255
-0.822082 1.09036 3.58852 0 0 0 128 128 128 255
-0.821178 1.07932 3.58705 0 0 0 128 128 128 255
-0.82611 0.965541 3.5805 0 0 0 128 128 128 255
-0.823584 0.964412 3.57897 0 0 0 128 128 128 255
-0.846582 0.652505 3.56656 0 0 0 128 128 128 255
-0.812353 1.10488 3.58407 0 0 0 128 128 128 255
-0.803555 1.20045 3.58691 0 0 0 128 128 128 255
-0.808772 1.1297 3.58409 0 0 0 128 128 128 255
-0.849771 0.573647 3.56196 0 0 0 128 128 128 255
-0.847795 0.588549 3.56207 0 0 0 128 128 128 255
-0.840971 0.657217 3.56385 0 0 0 128 128 128 255
-0.794901 1.23401 3.58494 0 0 0 128 128 128 255
-0.796518 1.21209 3.58407 0 0 0 128 128 128 255
-0.838472 0.64308 3.56142 0 0 0 128 128 128 255
-0.833325 0.700831 3.56326 0 0 0 128 128 128 255
-0.802894 1.08937 3.57781 0 0 0 128 128 128 255
-0.792379 1.21987 3.58255 0 0 0 128 128 128 255
-0.842774 0.524259 3.55441 0 0 0 128 128 128 255
-0.808423 0.95361 3.57018 0 0 0 128 128 128 255
-0.820693 0.787193 3.56355 0 0 0 128 128 128 255
-0.828335 0.683556 3.55943 0 0 0 128 128 128 255
-0.810685 0.910711 3.56803 0 0 0 128 128 128 255
-0.819118 0.784106 3.56256 0 0 0 128 128 128 255
-0.835944 0.555905 3.55347 0 0 0 128 128 128 255
-0.838718 0.506031 3.55106 0 0 0 128 128 128 255
-0.831791 0.587695 3.55388 0 0 0 128 128 128 255
-0.833481 0.564775 3.55297 0 0 0 128 128 128 255
-0.795326 1.06996 3.57265 0 0 0 128 128 128 255
-0.808897 0.873594 3.56441 0 0 0 128 128 128 255
-0.838287 0.47499 3.54855 0 0 0 128 128 128 255
-0.792021 1.07778 3.57171 0 0 0 128 128 128 255
-0.823028 0.657251 3.55497 0 0 0 128 128 128 255
-0.80365 0.895315 3.56362 0 0 0 128 128 128 255
-0.81232 0.777727 3.55894 0 0 0 128 128 128 255
-0.818124 0.699003 3.5558 0 0 0 128 128 128 255
-0.799108 0.932084 3.56427 0 0 0 128 128 128 255
-0.81204 0.756699 3.55729 0 0 0 128 128 128 255
-0.797166 0.945984 3.56442 0 0 0 128 128 128 255
-0.801795 0.883204 3.56192 0 0 0 128 128 128 255
-0.780086 1.16516 3.57275 0 0 0 128 128 128 255
-0.779537 1.16013 3.57215 0 0 0 128 128 128 255
-0.800184 0.880111 3.56101 0 0 0 128 128 128 255
-0.830089 0.474533 3.54486 0 0 0 128 128 128 255
-0.827701 0.494411 3.54526 0 0 0 128 128 128 255
-0.796619 0.890916 3.56027 0 0 0 128 128 128 255
-0.771851 1.20172 3.57188 0 0 0 128 128 128 255
-0.820566 0.541037 3.54558 0 0 0 128 128 128 255
-0.821594 0.527086 3.54502 0 0 0 128 128 128 255
-0.805344 0.722295 3.55204 0 0 0 128 128 128 255
-0.76543 1.23838 3.57185 0 0 0 128 128 128 255
-0.784586 0.95327 3.55977 0 0 0 128 128 128 255
-0.782344 0.920111 3.55669 0 0 0 128 128 128 255
-0.812488 0.498533 3.53956 0 0 0 128 128 128 255
-0.812211 0.489509 3.53886 0 0 0 128 128 128 255
-0.765292 1.10026 3.5625 0 0 0 128 128 128 255
-0.799458 0.636881 3.54406 0 0 0 128 128 128 255
-0.762807 1.12113 3.563 0 0 0 128 128 128 255
-0.796631 0.636712 3.54307 0 0 0 128 128 128 255
-0.78732 0.737245 3.54643 0 0 0 128 128 128 255
-0.806718 0.474167 3.53596 0 0 0 128 128 128 255
-0.787417 0.697213 3.5439 0 0 0 128 128 128 255
-0.790142 0.64733 3.5416 0 0 0 128 128 128 255
-0.753268 1.10854 3.55906 0 0 0 128 128 128 255
-0.769356 0.812222 3.54555 0 0 0 128 128 128 255
-0.771634 0.78133 3.54432 0 0 0 128 128 128 255
-0.796836 0.439528 3.53072 0 0 0 128 128 128 255
-0.791232 0.463205 3.53058 0 0 0 128 128 128 255
-0.784759 0.537882 3.53329 0 0 0 128 128 128 255
-0.790196 0.464141 3.53035 0 0 0 128 128 128 255
-0.790629 0.445146 3.52934 0 0 0 128 128 128 255
-0.74264 1.08285 3.55447 0 0 0 128 128 128 255
-0.77519 0.641398 3.53689 0 0 0 128 128 128 255
-0.769365 0.69409 3.53849 0 0 0 128 128 128 255
-0.734085 1.1594 3.55676 0 0 0 128 128 128 255
-0.787576 0.43394 3.52789 0 0 0 128 128 128 255
-0.78787 0.429954 3.52773 0 0 0 128 128 128 255
-0.739657 1.07065 3.55299 0 0 0 128 128 128 255
-0.725493 1.20991 3.55759 0 0 0 128 128 128 255
-0.744948 0.932819 3.54633 0 0 0 128 128 128 255
-0.751691 0.828123 3.54194 0 0 0 128 128 128 255
-0.74765 0.829864 3.54114 0 0 0 128 128 128 255
-0.773671 0.437048 3.52489 0 0 0 128 128 128 255
-0.755477 0.657148 3.53326 0 0 0 128 128 128 255
-0.723541 1.06359 3.54906 0 0 0 128 128 128 255
-0.716584 1.13123 3.55138 0 0 0 128 128 128 255
-0.740558 0.77933 3.53702 0 0 0 128 128 128 255
-0.728498 0.9027 3.54142 0 0 0 128 128 128 255
-0.729453 0.889745 3.54091 0 0 0 128 128 128 255
-0.703855 1.22351 3.55403 0 0 0 128 128 128 255
-0.744605 0.657427 3.53133 0 0 0 128 128 128 255
-0.735266 0.716884 3.53295 0 0 0 128 128 128 255
-0.753537 0.428692 3.52107 0 0 0 128 128 128 255
-0.701561 1.09316 3.54713 0 0 0 128 128 128 255
-0.748992 0.436392 3.52087 0 0 0 128 128 128 255
-0.721552 0.768024 3.53373 0 0 0 128 128 128 255
-0.708033 0.924338 3.53974 0 0 0 128 128 128 255
-0.717548 0.781769 3.53396 0 0 0 128 128 128 255
-0.705203 0.922138 3.53935 0 0 0 128 128 128 255
-0.736942 0.464602 3.52096 0 0 0 128 128 128 255
-0.71971 0.68476 3.52964 0 0 0 128 128 128 255
-0.736977 0.450581 3.52032 0 0 0 128 128 128 255
-0.683448 1.16301 3.5486 0 0 0 128 128 128 255
-0.702772 0.900932 3.53816 0 0 0 128 128 128 255
-0.71151 0.755302 3.53221 0 0 0 128 128 128 255
-0.703462 0.850897 3.53595 0 0 0 128 128 128 255
-0.686302 1.07006 3.5446 0 0 0 128 128 128 255
-0.70059 0.862713 3.53628 0 0 0 128 128 128 255
-0.684532 1.06693 3.54435 0 0 0 128 128 128 255
-0.685267 1.05696 3.54395 0 0 0 128 128 128 255
-0.707123 0.746977 3.53155 0 0 0 128 128 128 255
-0.7094 0.716085 3.53032 0 0 0 128 128 128 255
-0.682468 1.06778 3.54427 0 0 0 128 128 128 255
-0.705351 0.743845 3.53132 0 0 0 128 128 128 255
-0.691823 0.900154 3.53745 0 0 0 128 128 128 255
-0.724552 0.442685 3.5192 0 0 0 128 128 128 255
-0.723041 0.449589 3.51943 0 0 0 128 128 128 255
-0.695006 0.816232 3.53399 0 0 0 128 128 128 255
-0.723294 0.432576 3.51872 0 0 0 128 128 128 255
-0.704222 0.677645 3.52844 0 0 0 128 128 128 255
-0.689559 0.862923 3.53579 0 0 0 128 128 128 255
-0.698743 0.73836 3.53083 0 0 0 128 128 128 255
-0.708243 0.568736 3.52401 0 0 0 128 128 128 255
-0.699898 0.668314 3.52795 0 0 0 128 128 128 255
-0.680826 0.913382 3.5377 0 0 0 128 128 128 255
-0.680899 0.912386 3.53766 0 0 0 128 128 128 255
-0.69677 0.69714 3.52909 0 0 0 128 128 128 255
-0.697138 0.692157 3.52889 0 0 0 128 128 128 255
-0.68196 0.88441 3.53653 0 0 0 128 128 128 255
-0.697977 0.667172 3.52788 0 0 0 128 128 128 255
-0.671977 0.951806 3.53921 0 0 0 128 128 128 255
-0.698795 0.58808 3.52474 0 0 0 128 128 128 255
-0.682106 0.787234 3.53269 0 0 0 128 128 128 255
-0.680227 0.799118 3.53318 0 0 0 128 128 128 255
-0.68389 0.722239 3.53016 0 0 0 128 128 128 255
-0.680427 0.74202 3.531 0 0 0 128 128 128 255
-0.700853 0.464991 3.51997 0 0 0 128 128 128 255
-0.7014 0.443989 3.51917 0 0 0 128 128 128 255
-0.665355 0.919249 3.53812 0 0 0 128 128 128 255
-0.691953 0.558513 3.52377 0 0 0 128 128 128 255
-0.693896 0.518578 3.52221 0 0 0 128 128 128 255
-0.652708 1.06359 3.54395 0 0 0 128 128 128 255
-0.653222 1.05662 3.54367 0 0 0 128 128 128 255
-0.699512 0.428817 3.51868 0 0 0 128 128 128 255
-0.699586 0.42782 3.51864 0 0 0 128 128 128 255
-0.668375 0.783197 3.53305 0 0 0 128 128 128 255
-0.644823 1.08905 3.54529 0 0 0 128 128 128 255
-0.667527 0.781128 3.53303 0 0 0 128 128 128 255
-0.664768 0.804968 3.53405 0 0 0 128 128 128 255
-0.670352 0.729234 3.53103 0 0 0 128 128 128 255
-0.691033 0.435188 3.5194 0 0 0 128 128 128 255
-0.678277 0.567495 3.52489 0 0 0 128 128 128 255
-0.682171 0.51468 3.52279 0 0 0 128 128 128 255
-0.651787 0.913207 3.53873 0 0 0 128 128 128 255
-0.661118 0.78665 3.53369 0 0 0 128 128 128 255
-0.680767 0.452436 3.52085 0 0 0 128 128 128 255
-0.62893 1.14194 3.5484 0 0 0 128 128 128 255
-0.632604 1.06506 3.54555 0 0 0 128 128 128 255
-0.632054 1.059 3.54542 0 0 0 128 128 128 255
-0.652924 0.748932 3.53331 0 0 0 128 128 128 255
-0.626256 1.0836 3.54687 0 0 0 128 128 128 255
-0.628975 1.04673 3.54541 0 0 0 128 128 128 255
-0.671711 0.42667 3.52112 0 0 0 128 128 128 255
-0.668592 0.455491 3.5224 0 0 0 128 128 128 255
-0.666838 0.452345 3.52256 0 0 0 128 128 128 255
-0.65799 0.558892 3.52695 0 0 0 128 128 128 255
-0.664982 0.437161 3.52241 0 0 0 128 128 128 255
-0.63014 0.869409 3.54009 0 0 0 128 128 128 255
-0.615564 1.05368 3.54759 0 0 0 128 128 128 255
-0.61921 0.990825 3.54526 0 0 0 128 128 128 255
-0.639783 0.711803 3.53415 0 0 0 128 128 128 255
-0.636302 0.745605 3.53567 0 0 0 128 128 128 255
-0.635761 0.739547 3.53561 0 0 0 128 128 128 255
-0.63657 0.728585 3.53517 0 0 0 128 128 128 255
-0.648473 0.567151 3.52874 0 0 0 128 128 128 255
-0.61553 1.00055 3.54617 0 0 0 128 128 128 255
-0.612908 1.00936 3.54689 0 0 0 128 128 128 255
-0.647882 0.535024 3.52801 0 0 0 128 128 128 255
-0.608695 1.05313 3.54882 0 0 0 128 128 128 255
-0.61957 0.905646 3.54295 0 0 0 128 128 128 255
-0.622803 0.861799 3.54121 0 0 0 128 128 128 255
-0.631743 0.727191 3.53604 0 0 0 128 128 128 255
-0.623322 0.814724 3.53992 0 0 0 128 128 128 255
-0.63596 0.643325 3.5331 0 0 0 128 128 128 255
-0.649185 0.463953 3.52596 0 0 0 128 128 128 255
-0.65139 0.434058 3.52477 0 0 0 128 128 128 255
-0.613381 0.936218 3.54496 0 0 0 128 128 128 255
-0.617569 0.879417 3.5427 0 0 0 128 128 128 255
-0.635203 0.640255 3.53318 0 0 0 128 128 128 255
-0.614295 0.897194 3.54382 0 0 0 128 128 128 255
-0.639203 0.559378 3.53037 0 0 0 128 128 128 255
-0.630072 0.66991 3.53498 0 0 0 128 128 128 255
-0.631836 0.645994 3.53403 0 0 0 128 128 128 255
-0.646274 0.423612 3.52561 0 0 0 128 128 128 255
-0.638762 0.512221 3.52936 0 0 0 128 128 128 255
-0.627503 0.651652 3.53513 0 0 0 128 128 128 255
-0.611543 0.854859 3.54345 0 0 0 128 128 128 255
-0.611763 0.851869 3.54333 0 0 0 128 128 128 255
-0.63914 0.454101 3.52796 0 0 0 128 128 128 255
-0.612013 0.808777 3.54232 0 0 0 128 128 128 255
-0.629721 0.568619 3.53276 0 0 0 128 128 128 255
-0.593631 1.04487 3.55195 0 0 0 128 128 128 255
-0.627283 0.588468 3.53379 0 0 0 128 128 128 255
-0.632477 0.491645 3.53042 0 0 0 128 128 128 255
-0.602782 0.881199 3.54618 0 0 0 128 128 128 255
-0.614144 0.687633 3.53924 0 0 0 128 128 128 255
-0.577839 1.16687 3.55858 0 0 0 128 128 128 255
-0.61274 0.693531 3.53974 0 0 0 128 128 128 255
-0.614497 0.656579 3.53853 0 0 0 128 128 128 255
-0.593543 0.901475 3.5491 0 0 0 128 128 128 255
-0.618672 0.560669 3.53553 0 0 0 128 128 128 255
-0.626019 0.461019 3.53156 0 0 0 128 128 128 255
-0.620652 0.520728 3.53422 0 0 0 128 128 128 255
-0.626971 0.435028 3.53081 0 0 0 128 128 128 255
-0.627559 0.427056 3.53049 0 0 0 128 128 128 255
-0.616903 0.558513 3.536 0 0 0 128 128 128 255
-0.618004 0.530529 3.53517 0 0 0 128 128 128 255
-0.579576 1.03867 3.55569 0 0 0 128 128 128 255
-0.585678 0.929884 3.55194 0 0 0 128 128 128 255
-0.586277 0.882802 3.55097 0 0 0 128 128 128 255
-0.614932 0.494164 3.5355 0 0 0 128 128 128 255
-0.610603 0.539921 3.53763 0 0 0 128 128 128 255
-0.60687 0.564669 3.53923 0 0 0 128 128 128 255
-0.616422 0.435123 3.53408 0 0 0 128 128 128 255
-0.581603 0.894431 3.55267 0 0 0 128 128 128 255
-0.612557 0.448828 3.53558 0 0 0 128 128 128 255
-0.586632 0.787558 3.54939 0 0 0 128 128 128 255
-0.603838 0.541338 3.53991 0 0 0 128 128 128 255
-0.604573 0.531373 3.53952 0 0 0 128 128 128 255
-0.58274 0.776184 3.5506 0 0 0 128 128 128 255
-0.58781 0.707425 3.54787 0 0 0 128 128 128 255
-0.589813 0.667482 3.54662 0 0 0 128 128 128 255
-0.586568 0.673213 3.5479 0 0 0 128 128 128 255
-0.59972 0.494838 3.5408 0 0 0 128 128 128 255
-0.568467 0.893276 3.55737 0 0 0 128 128 128 255
-0.592445 0.555377 3.54428 0 0 0 128 128 128 255
-0.567196 0.885138 3.55777 0 0 0 128 128 128 255
-0.590561 0.568248 3.54516 0 0 0 128 128 128 255
-0.573161 0.766305 3.55416 0 0 0 128 128 128 255
-0.590869 0.526146 3.5446 0 0 0 128 128 128 255
-0.536267 1.24147 3.57383 0 0 0 128 128 128 255
-0.594753 0.448253 3.54225 0 0 0 128 128 128 255
-0.581529 0.552387 3.54874 0 0 0 128 128 128 255
-0.582569 0.513357 3.548 0 0 0 128 128 128 255
-0.58661 0.458549 3.54581 0 0 0 128 128 128 255
-0.527947 1.24172 3.5774 0 0 0 128 128 128 255
-0.575458 0.584939 3.55166 0 0 0 128 128 128 255
-0.541192 1.03727 3.57008 0 0 0 128 128 128 255
-0.585032 0.430314 3.54634 0 0 0 128 128 128 255
-0.560026 0.757085 3.55976 0 0 0 128 128 128 255
-0.572435 0.539513 3.55281 0 0 0 128 128 128 255
-0.575621 0.459542 3.55094 0 0 0 128 128 128 255
-0.57501 0.443431 3.55118 0 0 0 128 128 128 255
-0.541715 0.882807 3.56912 0 0 0 128 128 128 255
-0.530899 1.00521 3.5749 0 0 0 128 128 128 255
-0.564257 0.552796 3.55689 0 0 0 128 128 128 255
-0.552055 0.706175 3.56345 0 0 0 128 128 128 255
-0.546982 0.762893 3.56617 0 0 0 128 128 128 255
-0.537721 0.876411 3.57115 0 0 0 128 128 128 255
-0.563217 0.518581 3.55738 0 0 0 128 128 128 255
-0.52861 0.975895 3.57605 0 0 0 128 128 128 255
-0.560578 0.518331 3.55878 0 0 0 128 128 128 255
-0.532883 0.881973 3.57374 0 0 0 128 128 128 255
-0.5526 0.578784 3.56312 0 0 0 128 128 128 255
-0.557755 0.496987 3.56035 0 0 0 128 128 128 255
-0.500709 1.23515 3.59122 0 0 0 128 128 128 255
-0.527969 0.865444 3.5765 0 0 0 128 128 128 255
-0.517774 0.991917 3.58204 0 0 0 128 128 128 255
-0.522035 0.93412 3.57974 0 0 0 128 128 128 255
-0.499571 1.22701 3.5919 0 0 0 128 128 128 255
-0.50038 1.21605 3.59146 0 0 0 128 128 128 255
-0.517059 0.989841 3.58246 0 0 0 128 128 128 255
-0.520145 0.947987 3.58079 0 0 0 128 128 128 255
-0.538852 0.670791 3.57077 0 0 0 128 128 128 255
-0.549065 0.532277 3.56526 0 0 0 128 128 128 255
-0.532863 0.705335 3.57421 0 0 0 128 128 128 255
-0.535581 0.668465 3.57274 0 0 0 128 128 128 255
-0.544251 0.550877 3.56806 0 0 0 128 128 128 255
-0.550047 0.449066 3.56506 0 0 0 128 128 128 255
-0.551037 0.42407 3.56459 0 0 0 128 128 128 255
-0.51801 0.860457 3.5825 0 0 0 128 128 128 255
-0.543359 0.516662 3.56881 0 0 0 128 128 128 255
-0.510783 0.923984 3.58664 0 0 0 128 128 128 255
-0.546786 0.435695 3.5672 0 0 0 128 128 128 255
-0.506951 0.941671 3.58898 0 0 0 128 128 128 255
-0.542133 0.419168 3.5704 0 0 0 128 128 128 255
-0.534401 0.512757 3.57468 0 0 0 128 128 128 255
-0.535194 0.490751 3.57437 0 0 0 128 128 128 255
-0.505828 0.833135 3.59086 0 0 0 128 128 128 255
-0.519274 0.650774 3.5836 0 0 0 128 128 128 255
-0.527944 0.533186 3.57892 0 0 0 128 128 128 255
-0.524117 0.562915 3.58127 0 0 0 128 128 128 255
-0.50685 0.78605 3.59074 0 0 0 128 128 128 255
-0.531978 0.445245 3.57717 0 0 0 128 128 128 255
-0.499798 0.870671 3.5947 0 0 0 128 128 128 255
-0.514202 0.664311 3.58707 0 0 0 128 128 128 255
-0.486948 1.02297 3.60194 0 0 0 128 128 128 255
-0.53074 0.429052 3.5783 0 0 0 128 128 128 255
-0.500622 0.826576 3.59472 0 0 0 128 128 128 255
-0.51348 0.652187 3.58778 0 0 0 128 128 128 255
-0.496688 0.847255 3.59735 0 0 0 128 128 128 255
-0.52749 0.418674 3.5809 0 0 0 128 128 128 255
-0.499733 0.78431 3.59606 0 0 0 128 128 128 255
-0.520494 0.481207 3.58522 0 0 0 128 128 128 255
-0.50641 0.661493 3.59302 0 0 0 128 128 128 255
-0.52228 0.446247 3.58445 0 0 0 128 128 128 255
-0.513663 0.541747 3.58949 0 0 0 128 128 128 255
-0.50561 0.640319 3.59404 0 0 0 128 128 128 255
-0.511928 0.55462 3.59063 0 0 0 128 128 128 255
-0.503984 0.641152 3.59533 0 0 0 128 128 128 255
-0.484402 0.896176 3.60611 0 0 0 128 128 128 255
-0.496749 0.707672 3.59988 0 0 0 128 128 128 255
-0.497778 0.693721 3.59933 0 0 0 128 128 128 255
-0.484932 0.847019 3.60671 0 0 0 128 128 128 255
-0.500582 0.634763 3.59826 0 0 0 128 128 128 255
-0.4923 0.726278 3.6032 0 0 0 128 128 128 255
-0.504937 0.554879 3.59638 0 0 0 128 128 128 255
-0.513269 0.421184 3.59236 0 0 0 128 128 128 255
-0.505682 0.513777 3.5967 0 0 0 128 128 128 255
-0.507649 0.476825 3.59589 0 0 0 128 128 128 255
-0.472145 0.948092 3.61531 0 0 0 128 128 128 255
-0.477423 0.866297 3.61271 0 0 0 128 128 128 255
-0.488052 0.691664 3.60776 0 0 0 128 128 128 255
-0.504874 0.453418 3.59895 0 0 0 128 128 128 255
-0.447634 1.21965 3.63013 0 0 0 128 128 128 255
-0.49341 0.598827 3.60541 0 0 0 128 128 128 255
-0.497892 0.53804 3.603 0 0 0 128 128 128 255
-0.476976 0.771815 3.61571 0 0 0 128 128 128 255
-0.497193 0.48773 3.60509 0 0 0 128 128 128 255
-0.490227 0.572352 3.60915 0 0 0 128 128 128 255
-0.470037 0.836346 3.62035 0 0 0 128 128 128 255
-0.477678 0.73271 3.61623 0 0 0 128 128 128 255
-0.490188 0.553258 3.60978 0 0 0 128 128 128 255
-0.4412 1.20788 3.63654 0 0 0 128 128 128 255
-0.469561 0.823231 3.62123 0 0 0 128 128 128 255
-0.496454 0.458509 3.60671 0 0 0 128 128 128 255
-0.478475 0.692608 3.61673 0 0 0 128 128 128 255
-0.437308 1.23156 3.63959 0 0 0 128 128 128 255
-0.464788 0.858865 3.62475 0 0 0 128 128 128 255
-0.475221 0.717361 3.61912 0 0 0 128 128 128 255
-0.452212 1.01017 3.6322 0 0 0 128 128 128 255
-0.47543 0.695278 3.61966 0 0 0 128 128 128 255
-0.487113 0.536833 3.61335 0 0 0 128 128 128 255
-0.469807 0.761964 3.62303 0 0 0 128 128 128 255
-0.470909 0.747016 3.62243 0 0 0 128 128 128 255
-0.449932 1.02197 3.63409 0 0 0 128 128 128 255
-0.462094 0.847504 3.62787 0 0 0 128 128 128 255
-0.485398 0.512518 3.61597 0 0 0 128 128 128 255
-0.450543 0.975815 3.63514 0 0 0 128 128 128 255
-0.467369 0.747614 3.62605 0 0 0 128 128 128 255
-0.479934 0.577212 3.61927 0 0 0 128 128 128 255
-0.472465 0.659763 3.62401 0 0 0 128 128 128 255
-0.485964 0.467358 3.61708 0 0 0 128 128 128 255
-0.469782 0.677542 3.62618 0 0 0 128 128 128 255
-0.441993 1.04517 3.64155 0 0 0 128 128 128 255
-0.44411 1.00723 3.64078 0 0 0 128 128 128 255
-0.469596 0.652392 3.62739 0 0 0 128 128 128 255
-0.476348 0.551666 3.62413 0 0 0 128 128 128 255
-0.443788 0.965978 3.64286 0 0 0 128 128 128 255
-0.470094 0.600181 3.62905 0 0 0 128 128 128 255
-0.476266 0.516474 3.62572 0 0 0 128 128 128 255
-0.453345 0.818338 3.63848 0 0 0 128 128 128 255
-0.454521 0.802394 3.63785 0 0 0 128 128 128 255
-0.475314 0.520382 3.62662 0 0 0 128 128 128 255
-0.437554 1.02354 3.64741 0 0 0 128 128 128 255
-0.433019 1.06723 3.65066 0 0 0 128 128 128 255
-0.44911 0.848995 3.64197 0 0 0 128 128 128 255
-0.453592 0.788208 3.63955 0 0 0 128 128 128 255
-0.428037 1.12595 3.65376 0 0 0 128 128 128 255
-0.457795 0.722361 3.6377 0 0 0 128 128 128 255
-0.467934 0.584843 3.63222 0 0 0 128 128 128 255
-0.471388 0.538007 3.63036 0 0 0 128 128 128 255
-0.434832 1.01618 3.65092 0 0 0 128 128 128 255
-0.473355 0.484959 3.63054 0 0 0 128 128 128 255
-0.437475 0.954159 3.65076 0 0 0 128 128 128 255
-0.437696 0.95117 3.65064 0 0 0 128 128 128 255
-0.442389 0.836109 3.65074 0 0 0 128 128 128 255
-0.463403 0.551108 3.63939 0 0 0 128 128 128 255
-0.442286 0.829057 3.65124 0 0 0 128 128 128 255
-0.418922 1.1208 3.66522 0 0 0 128 128 128 255
-0.449635 0.704264 3.64864 0 0 0 128 128 128 255
-0.462861 0.524893 3.6415 0 0 0 128 128 128 255
-0.423753 1.04699 3.66308 0 0 0 128 128 128 255
-0.465471 0.472922 3.64103 0 0 0 128 128 128 255
-0.446342 0.715918 3.6523 0 0 0 128 128 128 255
-0.456546 0.569355 3.64726 0 0 0 128 128 128 255
-0.459329 0.515393 3.64673 0 0 0 128 128 128 255
-0.461313 0.488487 3.64566 0 0 0 128 128 128 255
-0.420974 1.02752 3.66792 0 0 0 128 128 128 255
-0.460137 0.496384 3.64678 0 0 0 128 128 128 255
-0.462047 0.470474 3.64575 0 0 0 128 128 128 255
-0.418122 1.04224 3.67094 0 0 0 128 128 128 255
-0.412842 1.10595 3.67429 0 0 0 128 128 128 255
-0.441951 0.703282 3.65908 0 0 0 128 128 128 255
-0.452988 0.545759 3.65363 0 0 0 128 128 128 255
-0.432286 0.818728 3.66532 0 0 0 128 128 128 255
-0.432697 0.797652 3.66613 0 0 0 128 128 128 255
-0.435001 0.758714 3.66541 0 0 0 128 128 128 255
-0.437307 0.719776 3.66468 0 0 0 128 128 128 255
-0.453611 0.483456 3.65694 0 0 0 128 128 128 255
-0.444344 0.571778 3.66464 0 0 0 128 128 128 255
-0.407216 1.06797 3.68524 0 0 0 128 128 128 255
-0.408445 1.04398 3.68513 0 0 0 128 128 128 255
-0.421138 0.864532 3.67883 0 0 0 128 128 128 255
-0.407016 1.04881 3.68702 0 0 0 128 128 128 255
-0.428097 0.699388 3.68082 0 0 0 128 128 128 255
-0.435311 0.594684 3.67752 0 0 0 128 128 128 255
-0.437458 0.558738 3.67695 0 0 0 128 128 128 255
-0.441224 0.50087 3.67552 0 0 0 128 128 128 255
-0.438968 0.524715 3.67734 0 0 0 128 128 128 255
-0.440594 0.48265 3.67828 0 0 0 128 128 128 255
-0.415645 0.814417 3.69237 0 0 0 128 128 128 255
-0.414778 0.800186 3.69532 0 0 0 128 128 128 255
-0.420336 0.718403 3.69295 0 0 0 128 128 128 255
-0.434824 0.50295 3.68704 0 0 0 128 128 128 255
-0.408485 0.841556 3.70319 0 0 0 128 128 128 255
-0.430748 0.539614 3.69117 0 0 0 128 128 128 255
-0.420358 0.587367 3.70756 0 0 0 128 128 128 255
-0.401609 0.825336 3.71979 0 0 0 128 128 128 255
-0.429617 0.429527 3.7068 0 0 0 128 128 128 255
-0.405199 0.750273 3.72142 0 0 0 128 128 128 255
-0.405778 0.717068 3.72475 0 0 0 128 128 128 255
-0.421803 0.494783 3.71683 0 0 0 128 128 128 255
-0.400065 0.784703 3.72931 0 0 0 128 128 128 255
-0.414258 0.549961 3.72843 0 0 0 128 128 128 255
-0.413462 0.551831 3.73039 0 0 0 128 128 128 255
-0.393554 0.808747 3.74347 0 0 0 128 128 128 255
-0.414111 0.525678 3.73315 0 0 0 128 128 128 255
-0.393212 0.796547 3.74679 0 0 0 128 128 128 255
-0.395853 0.748536 3.74775 0 0 0 128 128 128 255
-0.398243 0.700467 3.74967 0 0 0 128 128 128 255
-0.409743 0.536923 3.74508 0 0 0 128 128 128 255
-0.395052 0.717999 3.75712 0 0 0 128 128 128 255
-0.404038 0.556888 3.76237 0 0 0 128 128 128 255
-0.390216 0.699483 3.78474 0 0 0 128 128 128 255
-0.4001 0.558822 3.78211 0 0 0 128 128 128 255
-0.403039 0.518962 3.78052 0 0 0 128 128 128 255
-0.373593 0.906304 3.80188 0 0 0 128 128 128 255
-0.397561 0.5794 3.78986 0 0 0 128 128 128 255
-0.391083 0.661964 3.79613 0 0 0 128 128 128 255
-0.401384 0.510115 3.79804 0 0 0 128 128 128 255
-0.388114 0.678026 3.8157 0 0 0 128 128 128 255
-0.388024 0.676898 3.81865 0 0 0 128 128 128 255
