ply
format ascii 1.0
comment VCGLIB generated
element vertex 20
property float x
property float y
property float z
property float nx
property float ny
property float nz
property uchar red
property uchar green
property uchar blue
property uchar alpha
element face 0
property list uchar int vertex_indices
end_header
0.170525 0.91258 4.0712 0 0 0 0 128 0 255
0.19673 0.921019 4.08803 0 0 0 0 128 0 255
0.231716 0.894807 4.10642 0 0 0 0 128 0 255
0.226801 0.910832 4.10663 0 0 0 0 128 0 255
0.207409 0.947826 4.1013 0 0 0 0 128 0 255
0.194202 0.976012 4.09845 0 0 0 0 128 0 255
0.206527 0.964603 4.10501 0 0 0 0 128 0 255
0.228008 0.93929 4.11515 0 0 0 0 128 0 255
0.254993 0.914772 4.1305 0 0 0 0 128 0 255
0.247148 0.947595 4.13475 0 0 0 0 128 0 255
0.249256 0.946839 4.13648 0 0 0 0 128 0 255
0.271124 0.913116 4.14481 0 0 0 0 128 0 255
0.239255 0.968984 4.13522 0 0 0 0 128 0 255
0.273409 0.94095 4.15881 0 0 0 0 128 0 255
0.270805 0.950333 4.16029 0 0 0 0 128 0 255
0.296256 0.93322 4.18176 0 0 0 0 128 0 255
0.366316 0.849125 4.22552 0 0 0 0 128 0 255
0.373667 0.845863 4.23449 0 0 0 0 128 0 255
0.383873 0.834625 4.24233 0 0 0 0 128 0 255
0.393214 0.835327 4.25922 0 0 0 0 128 0 255
