ply
format ascii 1.0
comment VCGLIB generated
element vertex 10
property float x
property float y
property float z
property float nx
property float ny
property float nz
property uchar red
property uchar green
property uchar blue
property uchar alpha
element face 0
property list uchar int vertex_indices
end_header
-2.71796 1.4323 6.0266 0 0 0 128 128 0 255
-2.72421 1.4547 6.02922 0 0 0 128 128 0 255
-2.67231 1.52728 6.0384 0 0 0 128 128 0 255
-2.65639 1.55091 6.04138 0 0 0 128 128 0 255
-2.65348 1.58753 6.04579 0 0 0 128 128 0 255
-2.64941 1.58821 6.04591 0 0 0 128 128 0 255
-2.65133 1.58936 6.04603 0 0 0 128 128 0 255
-2.54543 1.58394 6.04638 0 0 0 128 128 0 255
-2.54349 1.59574 6.04781 0 0 0 128 128 0 255
-2.56624 1.68818 6.05866 0 0 0 128 128 0 255
