ply
format ascii 1.0
comment VCGLIB generated
element vertex 606
property float x
property float y
property float z
property float nx
property float ny
property float nz
property uchar red
property uchar green
property uchar blue
property uchar alpha
element face 0
property list uchar int vertex_indices
end_header
-2.01789 -0.658411 5.77813 0 0 0 128 0 0 255
-1.92221 -0.667258 5.77861 0 0 0 128 0 0 255
-2.06156 -0.645532 5.77897 0 0 0 128 0 0 255
-2.05363 -0.646597 5.77897 0 0 0 128 0 0 255
-1.92855 -0.654386 5.78005 0 0 0 128 0 0 255
-1.92518 -0.651833 5.78041 0 0 0 128 0 0 255
-2.08052 -0.613934 5.78244 0 0 0 128 0 0 255
-2.09327 -0.611219 5.78256 0 0 0 128 0 0 255
-2.0453 -0.614659 5.78292 0 0 0 128 0 0 255
-1.83863 -0.623393 5.7852 0 0 0 128 0 0 255
-2.06255 -0.585295 5.78616 0 0 0 128 0 0 255
-1.87424 -0.610595 5.78616 0 0 0 128 0 0 255
-1.82964 -0.616587 5.78616 0 0 0 128 0 0 255
-1.88402 -0.608279 5.78628 0 0 0 128 0 0 255
-1.70311 -0.628578 5.78676 0 0 0 128 0 0 255
-1.87543 -0.604425 5.78687 0 0 0 128 0 0 255
-1.64721 -0.633082 5.78711 0 0 0 128 0 0 255
-1.76165 -0.613701 5.78759 0 0 0 128 0 0 255
-1.76139 -0.611733 5.78783 0 0 0 128 0 0 255
-1.88712 -0.593838 5.78795 0 0 0 128 0 0 255
-1.62336 -0.628273 5.78807 0 0 0 128 0 0 255
-1.25163 -0.670201 5.78903 0 0 0 128 0 0 255
-2.05799 -0.558862 5.78939 0 0 0 128 0 0 255
-1.54447 -0.626852 5.78951 0 0 0 128 0 0 255
-1.5115 -0.629278 5.78975 0 0 0 128 0 0 255
-1.49068 -0.632074 5.78975 0 0 0 128 0 0 255
-1.88897 -0.577562 5.78987 0 0 0 128 0 0 255
-1.54804 -0.623367 5.78987 0 0 0 128 0 0 255
-1.49551 -0.630424 5.78987 0 0 0 128 0 0 255
-1.83023 -0.58345 5.79011 0 0 0 128 0 0 255
-1.70932 -0.599695 5.79011 0 0 0 128 0 0 255
-1.7524 -0.5899 5.79059 0 0 0 128 0 0 255
-1.85831 -0.574669 5.79071 0 0 0 128 0 0 255
-1.66902 -0.600101 5.79071 0 0 0 128 0 0 255
-1.38457 -0.638317 5.79071 0 0 0 128 0 0 255
-1.24879 -0.656559 5.79071 0 0 0 128 0 0 255
-1.72042 -0.592193 5.79083 0 0 0 128 0 0 255
-1.25262 -0.655042 5.79083 0 0 0 128 0 0 255
-1.89062 -0.567323 5.79107 0 0 0 128 0 0 255
-1.15523 -0.666123 5.79107 0 0 0 128 0 0 255
-1.62686 -0.601758 5.79119 0 0 0 128 0 0 255
-1.26412 -0.650492 5.79119 0 0 0 128 0 0 255
-1.24727 -0.652756 5.79119 0 0 0 128 0 0 255
-1.79706 -0.576887 5.79142 0 0 0 128 0 0 255
-1.64827 -0.595877 5.79154 0 0 0 128 0 0 255
-1.3222 -0.639684 5.79154 0 0 0 128 0 0 255
-1.15569 -0.662054 5.79154 0 0 0 128 0 0 255
-1.16448 -0.659872 5.79166 0 0 0 128 0 0 255
-1.63314 -0.595906 5.79178 0 0 0 128 0 0 255
-1.31004 -0.639314 5.79178 0 0 0 128 0 0 255
-1.52696 -0.60917 5.7919 0 0 0 128 0 0 255
-1.31671 -0.636414 5.79202 0 0 0 128 0 0 255
-1.21833 -0.647629 5.79226 0 0 0 128 0 0 255
-1.84246 -0.561774 5.7925 0 0 0 128 0 0 255
-1.7074 -0.577915 5.79274 0 0 0 128 0 0 255
-1.43968 -0.612882 5.79286 0 0 0 128 0 0 255
-1.50581 -0.601993 5.7931 0 0 0 128 0 0 255
-1.88527 -0.550011 5.79322 0 0 0 128 0 0 255
-1.77572 -0.560722 5.7937 0 0 0 128 0 0 255
-2.03823 -0.524452 5.79382 0 0 0 128 0 0 255
-1.1512 -0.643625 5.79382 0 0 0 128 0 0 255
-1.70311 -0.568474 5.79394 0 0 0 128 0 0 255
-1.3255 -0.619206 5.79394 0 0 0 128 0 0 255
-2.04153 -0.519 5.79442 0 0 0 128 0 0 255
-1.49531 -0.591384 5.79454 0 0 0 128 0 0 255
-1.22956 -0.626085 5.79466 0 0 0 128 0 0 255
-1.14532 -0.637403 5.79466 0 0 0 128 0 0 255
-1.61695 -0.573038 5.79478 0 0 0 128 0 0 255
-1.64556 -0.568193 5.7949 0 0 0 128 0 0 255
-1.05982 -0.646887 5.7949 0 0 0 128 0 0 255
-1.83671 -0.54151 5.79502 0 0 0 128 0 0 255
-1.45216 -0.593174 5.79502 0 0 0 128 0 0 255
-1.01311 -0.652161 5.79502 0 0 0 128 0 0 255
-1.40248 -0.598847 5.79514 0 0 0 128 0 0 255
-1.01582 -0.649794 5.79526 0 0 0 128 0 0 255
-1.04938 -0.644282 5.79538 0 0 0 128 0 0 255
-1.7777 -0.54543 5.7955 0 0 0 128 0 0 255
-1.72888 -0.549987 5.79574 0 0 0 128 0 0 255
-1.34915 -0.600001 5.79586 0 0 0 128 0 0 255
-1.83895 -0.528186 5.79657 0 0 0 128 0 0 255
-1.58114 -0.561822 5.79669 0 0 0 128 0 0 255
-1.4809 -0.574286 5.79681 0 0 0 128 0 0 255
-2.02984 -0.499535 5.79693 0 0 0 128 0 0 255
-1.91943 -0.511363 5.79729 0 0 0 128 0 0 255
-1.65778 -0.546516 5.79729 0 0 0 128 0 0 255
-1.49128 -0.568886 5.79729 0 0 0 128 0 0 255
-1.12358 -0.618286 5.79729 0 0 0 128 0 0 255
-1.11056 -0.619033 5.79741 0 0 0 128 0 0 255
-1.17188 -0.609794 5.79753 0 0 0 128 0 0 255
-1.3479 -0.58314 5.79789 0 0 0 128 0 0 255
-1.22883 -0.598135 5.79801 0 0 0 128 0 0 255
-1.1436 -0.609586 5.79801 0 0 0 128 0 0 255
-1.94982 -0.497263 5.79849 0 0 0 128 0 0 255
-1.8932 -0.503868 5.79861 0 0 0 128 0 0 255
-1.81576 -0.51327 5.79873 0 0 0 128 0 0 255
-1.73099 -0.520653 5.79921 0 0 0 128 0 0 255
-1.7191 -0.522251 5.79921 0 0 0 128 0 0 255
-1.65851 -0.529389 5.79933 0 0 0 128 0 0 255
-1.02916 -0.613942 5.79933 0 0 0 128 0 0 255
-1.1617 -0.594131 5.79957 0 0 0 128 0 0 255
-1.96436 -0.485293 5.79969 0 0 0 128 0 0 255
-1.48764 -0.54934 5.79969 0 0 0 128 0 0 255
-1.82349 -0.503217 5.79981 0 0 0 128 0 0 255
-1.64807 -0.526785 5.79981 0 0 0 128 0 0 255
-1.3325 -0.566176 5.80017 0 0 0 128 0 0 255
-1.57208 -0.531985 5.80041 0 0 0 128 0 0 255
-1.14096 -0.589907 5.80041 0 0 0 128 0 0 255
-1.7294 -0.508845 5.80065 0 0 0 128 0 0 255
-1.56884 -0.530416 5.80065 0 0 0 128 0 0 255
-1.20016 -0.57995 5.80065 0 0 0 128 0 0 255
-1.35959 -0.557528 5.80077 0 0 0 128 0 0 255
-1.57948 -0.526984 5.80088 0 0 0 128 0 0 255
-1.35523 -0.555108 5.80112 0 0 0 128 0 0 255
-1.17683 -0.579076 5.80112 0 0 0 128 0 0 255
-1.44747 -0.535704 5.80196 0 0 0 128 0 0 255
-1.39269 -0.54106 5.8022 0 0 0 128 0 0 255
-1.14888 -0.573816 5.8022 0 0 0 128 0 0 255
-1.22381 -0.560744 5.80256 0 0 0 128 0 0 255
-1.47218 -0.524371 5.80292 0 0 0 128 0 0 255
-1.3625 -0.534098 5.80352 0 0 0 128 0 0 255
-1.1504 -0.562593 5.80352 0 0 0 128 0 0 255
-1.36917 -0.531198 5.80376 0 0 0 128 0 0 255
-1.30574 -0.53972 5.80376 0 0 0 128 0 0 255
-1.10871 -0.56018 5.80448 0 0 0 128 0 0 255
-1.28896 -0.534962 5.8046 0 0 0 128 0 0 255
-1.21396 -0.540029 5.8052 0 0 0 128 0 0 255
-1.22672 -0.537314 5.80532 0 0 0 128 0 0 255
-1.11373 -0.552494 5.80532 0 0 0 128 0 0 255
-1.49874 -0.496761 5.80579 0 0 0 128 0 0 255
-1.1428 -0.543579 5.80591 0 0 0 128 0 0 255
-1.05235 -0.553728 5.80615 0 0 0 128 0 0 255
-1.12926 -0.54039 5.80651 0 0 0 128 0 0 255
-1.23121 -0.525692 5.80663 0 0 0 128 0 0 255
-1.52418 -0.483326 5.80699 0 0 0 128 0 0 255
-1.03259 -0.54937 5.80699 0 0 0 128 0 0 255
-1.52107 -0.482741 5.80711 0 0 0 128 0 0 255
-1.05783 -0.541973 5.80747 0 0 0 128 0 0 255
-1.50158 -0.480352 5.80771 0 0 0 128 0 0 255
-1.49048 -0.472827 5.80879 0 0 0 128 0 0 255
-1.52688 -0.465933 5.80903 0 0 0 128 0 0 255
-1.48856 -0.466073 5.80963 0 0 0 128 0 0 255
-1.87687 -0.404888 5.8107 0 0 0 128 0 0 255
-1.86135 -0.401965 5.8113 0 0 0 128 0 0 255
-1.87185 -0.397548 5.81166 0 0 0 128 0 0 255
-1.75748 -0.409909 5.81202 0 0 0 128 0 0 255
-1.75239 -0.409591 5.81214 0 0 0 128 0 0 255
-1.74829 -0.40914 5.81226 0 0 0 128 0 0 255
-1.69894 -0.409761 5.81298 0 0 0 128 0 0 255
-1.83359 -0.390668 5.8131 0 0 0 128 0 0 255
-1.50957 -0.427188 5.81394 0 0 0 128 0 0 255
-1.85566 -0.37468 5.81466 0 0 0 128 0 0 255
-1.6803 -0.34615 5.82088 0 0 0 128 0 0 255
-1.57399 -0.35843 5.82112 0 0 0 128 0 0 255
-1.61832 -0.35047 5.82136 0 0 0 128 0 0 255
-1.41713 -0.3775 5.82136 0 0 0 128 0 0 255
-1.61125 -0.350418 5.82148 0 0 0 128 0 0 255
-1.68645 -0.339315 5.8216 0 0 0 128 0 0 255
-1.62387 -0.346719 5.82172 0 0 0 128 0 0 255
-1.49292 -0.363312 5.82184 0 0 0 128 0 0 255
-1.42176 -0.366862 5.82256 0 0 0 128 0 0 255
-1.52245 -0.350328 5.82292 0 0 0 128 0 0 255
-1.52146 -0.350461 5.82292 0 0 0 128 0 0 255
-1.56864 -0.341118 5.82328 0 0 0 128 0 0 255
-1.417 -0.361491 5.82328 0 0 0 128 0 0 255
-1.60339 -0.329437 5.82412 0 0 0 128 0 0 255
-1.35661 -0.362592 5.82412 0 0 0 128 0 0 255
-1.62209 -0.325923 5.82424 0 0 0 128 0 0 255
-1.79798 -0.298286 5.82471 0 0 0 128 0 0 255
-1.28459 -0.36726 5.82471 0 0 0 128 0 0 255
-1.2873 -0.364892 5.82495 0 0 0 128 0 0 255
-1.27243 -0.366889 5.82495 0 0 0 128 0 0 255
-1.20847 -0.371475 5.82543 0 0 0 128 0 0 255
-1.45301 -0.336618 5.82567 0 0 0 128 0 0 255
-1.20755 -0.364588 5.82627 0 0 0 128 0 0 255
-1.38542 -0.336684 5.82675 0 0 0 128 0 0 255
-1.22618 -0.353069 5.82735 0 0 0 128 0 0 255
-1.81377 -0.273124 5.82747 0 0 0 128 0 0 255
-1.4982 -0.312516 5.82783 0 0 0 128 0 0 255
-1.3317 -0.334886 5.82783 0 0 0 128 0 0 255
-1.26807 -0.334419 5.82891 0 0 0 128 0 0 255
-1.77921 -0.263743 5.82914 0 0 0 128 0 0 255
-1.44072 -0.305213 5.82962 0 0 0 128 0 0 255
-1.23358 -0.333042 5.82962 0 0 0 128 0 0 255
-1.38607 -0.311552 5.82974 0 0 0 128 0 0 255
-1.33553 -0.318343 5.82974 0 0 0 128 0 0 255
-1.33441 -0.317492 5.82986 0 0 0 128 0 0 255
-1.77789 -0.253903 5.83034 0 0 0 128 0 0 255
-1.23549 -0.324771 5.83058 0 0 0 128 0 0 255
-1.56441 -0.27958 5.8307 0 0 0 128 0 0 255
-1.44349 -0.295824 5.8307 0 0 0 128 0 0 255
-1.68915 -0.261818 5.83082 0 0 0 128 0 0 255
-1.7761 -0.248133 5.83106 0 0 0 128 0 0 255
-1.39255 -0.299664 5.83106 0 0 0 128 0 0 255
-1.58456 -0.271864 5.8313 0 0 0 128 0 0 255
-1.33665 -0.304168 5.83142 0 0 0 128 0 0 255
-1.55674 -0.267587 5.83226 0 0 0 128 0 0 255
-1.6686 -0.251557 5.83238 0 0 0 128 0 0 255
-1.56255 -0.265804 5.83238 0 0 0 128 0 0 255
-1.61693 -0.257497 5.8325 0 0 0 128 0 0 255
-1.67699 -0.246422 5.83286 0 0 0 128 0 0 255
-1.66596 -0.246903 5.83298 0 0 0 128 0 0 255
-1.38634 -0.283469 5.8331 0 0 0 128 0 0 255
-1.2684 -0.299314 5.8331 0 0 0 128 0 0 255
-1.59989 -0.250772 5.83358 0 0 0 128 0 0 255
-1.32733 -0.287389 5.83358 0 0 0 128 0 0 255
-1.3864 -0.276448 5.83393 0 0 0 128 0 0 255
-1.20688 -0.299565 5.83405 0 0 0 128 0 0 255
-1.48723 -0.260898 5.83417 0 0 0 128 0 0 255
-1.57517 -0.24708 5.83441 0 0 0 128 0 0 255
-1.55832 -0.249343 5.83441 0 0 0 128 0 0 255
-1.49589 -0.257732 5.83441 0 0 0 128 0 0 255
-1.47309 -0.260794 5.83441 0 0 0 128 0 0 255
-1.41012 -0.265247 5.83489 0 0 0 128 0 0 255
-1.59037 -0.240029 5.83501 0 0 0 128 0 0 255
-1.58713 -0.238461 5.83525 0 0 0 128 0 0 255
-1.60074 -0.234629 5.83549 0 0 0 128 0 0 255
-1.27639 -0.276202 5.83573 0 0 0 128 0 0 255
-1.36645 -0.263101 5.83585 0 0 0 128 0 0 255
-1.40398 -0.257057 5.83597 0 0 0 128 0 0 255
-1.1936 -0.283318 5.83621 0 0 0 128 0 0 255
-1.19505 -0.279116 5.83669 0 0 0 128 0 0 255
-1.28075 -0.263596 5.83717 0 0 0 128 0 0 255
-1.26291 -0.265992 5.83717 0 0 0 128 0 0 255
-1.3796 -0.248312 5.83741 0 0 0 128 0 0 255
-1.18904 -0.27191 5.83765 0 0 0 128 0 0 255
-1.20252 -0.267094 5.83801 0 0 0 128 0 0 255
-2.01687 -0.102591 5.84459 0 0 0 128 0 0 255
-1.81316 -0.125952 5.84507 0 0 0 128 0 0 255
-1.93428 -0.10367 5.84579 0 0 0 128 0 0 255
-2.0174 -0.0915012 5.84591 0 0 0 128 0 0 255
-1.83688 -0.114751 5.84603 0 0 0 128 0 0 255
-1.77841 -0.122607 5.84603 0 0 0 128 0 0 255
-1.91009 -0.103914 5.84615 0 0 0 128 0 0 255
-1.76559 -0.117318 5.84687 0 0 0 128 0 0 255
-2.0168 -0.0795605 5.84735 0 0 0 128 0 0 255
-1.70064 -0.122037 5.84735 0 0 0 128 0 0 255
-1.73804 -0.115009 5.84759 0 0 0 128 0 0 255
-1.89027 -0.0915512 5.84795 0 0 0 128 0 0 255
-1.64844 -0.124041 5.84795 0 0 0 128 0 0 255
-1.5642 -0.135359 5.84795 0 0 0 128 0 0 255
-2.03034 -0.0677235 5.84854 0 0 0 128 0 0 255
-1.59426 -0.126311 5.84854 0 0 0 128 0 0 255
-1.99837 -0.0700165 5.84878 0 0 0 128 0 0 255
-1.41957 -0.147779 5.84878 0 0 0 128 0 0 255
-1.81785 -0.0932666 5.8489 0 0 0 128 0 0 255
-1.47639 -0.135136 5.84938 0 0 0 128 0 0 255
-1.44864 -0.138864 5.84938 0 0 0 128 0 0 255
-1.75079 -0.0972681 5.8495 0 0 0 128 0 0 255
-1.58131 -0.120037 5.8495 0 0 0 128 0 0 255
-1.36922 -0.148532 5.8495 0 0 0 128 0 0 255
-1.55442 -0.122649 5.84962 0 0 0 128 0 0 255
-1.92892 -0.0713325 5.84974 0 0 0 128 0 0 255
-1.7899 -0.0880061 5.84998 0 0 0 128 0 0 255
-1.28544 -0.155782 5.84998 0 0 0 128 0 0 255
-1.62426 -0.109259 5.8501 0 0 0 128 0 0 255
-1.91551 -0.0691276 5.85022 0 0 0 128 0 0 255
-1.47844 -0.127849 5.85022 0 0 0 128 0 0 255
-1.38217 -0.139781 5.85034 0 0 0 128 0 0 255
-1.69112 -0.0962686 5.85058 0 0 0 128 0 0 255
-1.64454 -0.102527 5.85058 0 0 0 128 0 0 255
-1.898 -0.0664714 5.85082 0 0 0 128 0 0 255
-1.22901 -0.15635 5.85082 0 0 0 128 0 0 255
-1.22293 -0.156165 5.85094 0 0 0 128 0 0 255
-1.10981 -0.170361 5.85106 0 0 0 128 0 0 255
-1.64487 -0.0974738 5.85118 0 0 0 128 0 0 255
-1.62888 -0.0986203 5.8513 0 0 0 128 0 0 255
-1.56122 -0.105707 5.85154 0 0 0 128 0 0 255
-1.55131 -0.107038 5.85154 0 0 0 128 0 0 255
-1.82274 -0.0695702 5.85166 0 0 0 128 0 0 255
-1.16565 -0.157851 5.85166 0 0 0 128 0 0 255
-1.81765 -0.069252 5.85178 0 0 0 128 0 0 255
-1.40536 -0.124644 5.85178 0 0 0 128 0 0 255
-1.80748 -0.0686157 5.85202 0 0 0 128 0 0 255
-2.28505 -0.00345132 5.85214 0 0 0 128 0 0 255
-1.4337 -0.117831 5.85214 0 0 0 128 0 0 255
-1.10823 -0.158554 5.8525 0 0 0 128 0 0 255
-1.75627 -0.0704867 5.85261 0 0 0 128 0 0 255
-1.45696 -0.110699 5.85261 0 0 0 128 0 0 255
-1.68564 -0.0779727 5.85285 0 0 0 128 0 0 255
-1.54775 -0.0954972 5.85297 0 0 0 128 0 0 255
-1.1186 -0.153153 5.85297 0 0 0 128 0 0 255
-1.21064 -0.139786 5.85309 0 0 0 128 0 0 255
-1.23628 -0.13534 5.85321 0 0 0 128 0 0 255
-1.36842 -0.112577 5.85381 0 0 0 128 0 0 255
-1.59922 -0.0805683 5.85393 0 0 0 128 0 0 255
-1.55957 -0.0858945 5.85393 0 0 0 128 0 0 255
-1.44758 -0.100941 5.85393 0 0 0 128 0 0 255
-2.28849 0.0160429 5.85441 0 0 0 128 0 0 255
-1.48967 -0.0912794 5.85441 0 0 0 128 0 0 255
-1.119 -0.141079 5.85441 0 0 0 128 0 0 255
-1.39512 -0.100977 5.85477 0 0 0 128 0 0 255
-1.09752 -0.138955 5.85501 0 0 0 128 0 0 255
-1.42346 -0.0941638 5.85513 0 0 0 128 0 0 255
-1.02478 -0.145724 5.85537 0 0 0 128 0 0 255
-2.29027 0.0252981 5.85549 0 0 0 128 0 0 255
-1.17291 -0.121815 5.85585 0 0 0 128 0 0 255
-1.15904 -0.123679 5.85585 0 0 0 128 0 0 255
-1.15084 -0.122776 5.85609 0 0 0 128 0 0 255
-2.29331 0.0327184 5.85633 0 0 0 128 0 0 255
-1.11312 -0.119831 5.85705 0 0 0 128 0 0 255
-1.2339 -0.102603 5.85717 0 0 0 128 0 0 255
-1.10803 -0.119513 5.85717 0 0 0 128 0 0 255
-1.22782 -0.102418 5.85729 0 0 0 128 0 0 255
-1.15877 -0.106685 5.85788 0 0 0 128 0 0 255
-1.1449 -0.108549 5.85788 0 0 0 128 0 0 255
-1.09283 -0.111538 5.85836 0 0 0 128 0 0 255
-2.27184 0.0498678 5.85872 0 0 0 128 0 0 255
-1.08708 -0.1063 5.85908 0 0 0 128 0 0 255
-2.26193 0.063562 5.86052 0 0 0 128 0 0 255
-2.25664 0.072869 5.86172 0 0 0 128 0 0 255
-2.11531 0.0659018 5.86315 0 0 0 128 0 0 255
-1.97827 0.0494945 5.86339 0 0 0 128 0 0 255
-2.0604 0.0615302 5.86351 0 0 0 128 0 0 255
-1.94986 0.0657117 5.86579 0 0 0 128 0 0 255
-1.94081 0.0654973 5.86591 0 0 0 128 0 0 255
-2.19823 0.102085 5.86615 0 0 0 128 0 0 255
-2.02624 0.0829855 5.86663 0 0 0 128 0 0 255
-1.88154 0.063545 5.86663 0 0 0 128 0 0 255
-1.81586 0.0567247 5.86686 0 0 0 128 0 0 255
-2.0863 0.0940598 5.86698 0 0 0 128 0 0 255
-1.68015 0.0455035 5.8677 0 0 0 128 0 0 255
-1.95455 0.0833712 5.86782 0 0 0 128 0 0 255
-1.9383 0.0841926 5.86818 0 0 0 128 0 0 255
-1.74305 0.0579613 5.86818 0 0 0 128 0 0 255
-1.88465 0.0779863 5.8683 0 0 0 128 0 0 255
-1.87077 0.0761221 5.8683 0 0 0 128 0 0 255
-1.80536 0.0673339 5.8683 0 0 0 128 0 0 255
-1.68022 0.0525244 5.86854 0 0 0 128 0 0 255
-1.62557 0.0461849 5.86866 0 0 0 128 0 0 255
-1.38375 0.0136953 5.86866 0 0 0 128 0 0 255
-1.60535 0.0464737 5.86902 0 0 0 128 0 0 255
-1.37542 0.0155819 5.86902 0 0 0 128 0 0 255
-1.33882 0.0176762 5.86986 0 0 0 128 0 0 255
-1.45424 0.0371911 5.87034 0 0 0 128 0 0 255
-1.44453 0.0418964 5.87106 0 0 0 128 0 0 255
-1.22537 0.0134533 5.87118 0 0 0 128 0 0 255
-1.51364 0.0531851 5.8713 0 0 0 128 0 0 255
-1.28556 0.0235436 5.87142 0 0 0 128 0 0 255
-1.76908 0.0895069 5.87153 0 0 0 128 0 0 255
-1.29534 0.0258592 5.87153 0 0 0 128 0 0 255
-1.20799 0.0151256 5.87165 0 0 0 128 0 0 255
-0.963652 -0.0136945 5.87213 0 0 0 128 0 0 255
-1.70585 0.0870219 5.87225 0 0 0 128 0 0 255
-1.29203 0.0354325 5.87273 0 0 0 128 0 0 255
-2.1192 0.149568 5.87309 0 0 0 128 0 0 255
-1.24393 0.032977 5.87321 0 0 0 128 0 0 255
-1.15969 0.0216589 5.87321 0 0 0 128 0 0 255
-1.08906 0.0141728 5.87345 0 0 0 128 0 0 255
-1.21479 0.0320674 5.87357 0 0 0 128 0 0 255
-2.0826 0.151662 5.87393 0 0 0 128 0 0 255
-1.20535 0.0348048 5.87405 0 0 0 128 0 0 255
-1.2249 0.0394359 5.87429 0 0 0 128 0 0 255
-1.13518 0.0313879 5.87477 0 0 0 128 0 0 255
-1.08364 0.0244638 5.87477 0 0 0 128 0 0 255
-1.01499 0.0172441 5.87501 0 0 0 128 0 0 255
-1.02166 0.0201441 5.87525 0 0 0 128 0 0 255
-1.02074 0.0270319 5.87609 0 0 0 128 0 0 255
-2.08293 0.171741 5.87632 0 0 0 128 0 0 255
-2.04236 0.188328 5.87896 0 0 0 128 0 0 255
-1.98388 0.180472 5.87896 0 0 0 128 0 0 255
-2.07671 0.217987 5.88195 0 0 0 128 0 0 255
-2.00126 0.208852 5.88207 0 0 0 128 0 0 255
-1.92712 0.204902 5.88279 0 0 0 128 0 0 255
-1.96062 0.218418 5.88387 0 0 0 128 0 0 255
-2.0109 0.227177 5.88411 0 0 0 128 0 0 255
-1.31165 0.137239 5.88459 0 0 0 128 0 0 255
-2.13353 0.290733 5.88974 0 0 0 128 0 0 255
-2.00258 0.274141 5.88986 0 0 0 128 0 0 255
-1.99544 0.282198 5.89093 0 0 0 128 0 0 255
-1.9883 0.290254 5.89201 0 0 0 128 0 0 255
-2.09818 0.306018 5.89213 0 0 0 128 0 0 255
-1.97654 0.302698 5.89369 0 0 0 128 0 0 255
-2.12758 0.335012 5.89512 0 0 0 128 0 0 255
-2.12838 0.344134 5.8962 0 0 0 128 0 0 255
-2.06382 0.336463 5.89632 0 0 0 128 0 0 255
-2.15011 0.355068 5.89716 0 0 0 128 0 0 255
-2.15031 0.361105 5.89788 0 0 0 128 0 0 255
-2.04473 0.350926 5.89836 0 0 0 128 0 0 255
-1.9435 0.338329 5.89848 0 0 0 128 0 0 255
-2.03257 0.351296 5.8986 0 0 0 128 0 0 255
-2.01275 0.348633 5.8986 0 0 0 128 0 0 255
-2.00469 0.348552 5.89872 0 0 0 128 0 0 255
-2.13723 0.368363 5.89896 0 0 0 128 0 0 255
-2.14721 0.376715 5.8998 0 0 0 128 0 0 255
-2.14529 0.413521 5.90423 0 0 0 128 0 0 255
-2.12011 0.443196 5.90818 0 0 0 128 0 0 255
-1.86315 0.410677 5.90842 0 0 0 128 0 0 255
-2.06395 0.455685 5.91057 0 0 0 128 0 0 255
-1.71198 0.409399 5.91069 0 0 0 128 0 0 255
-1.80177 0.424468 5.91105 0 0 0 128 0 0 255
-2.05794 0.462891 5.91153 0 0 0 128 0 0 255
-1.69757 0.426496 5.91297 0 0 0 128 0 0 255
-1.53094 0.420136 5.91488 0 0 0 128 0 0 255
-1.58915 0.42996 5.91512 0 0 0 128 0 0 255
-1.77455 0.461881 5.91596 0 0 0 128 0 0 255
-1.69969 0.45583 5.91644 0 0 0 128 0 0 255
-1.67722 0.457821 5.91704 0 0 0 128 0 0 255
-2.10214 0.516912 5.91728 0 0 0 128 0 0 255
-1.55195 0.443995 5.9174 0 0 0 128 0 0 255
-2.23964 0.537388 5.91752 0 0 0 128 0 0 255
-1.74316 0.477699 5.91836 0 0 0 128 0 0 255
-1.81062 0.493774 5.91919 0 0 0 128 0 0 255
-1.75116 0.485785 5.91919 0 0 0 128 0 0 255
-1.5497 0.460723 5.91943 0 0 0 128 0 0 255
-1.79708 0.496963 5.91979 0 0 0 128 0 0 255
-1.55016 0.464792 5.91991 0 0 0 128 0 0 255
-1.7314 0.490143 5.92003 0 0 0 128 0 0 255
-2.06335 0.542754 5.92099 0 0 0 128 0 0 255
-1.84637 0.520614 5.92183 0 0 0 128 0 0 255
-1.46222 0.481025 5.92326 0 0 0 128 0 0 255
-1.6494 0.507175 5.92338 0 0 0 128 0 0 255
-1.24081 0.454283 5.92362 0 0 0 128 0 0 255
-1.63506 0.516267 5.9247 0 0 0 128 0 0 255
-1.49691 0.500711 5.92506 0 0 0 128 0 0 255
-1.94263 0.562598 5.9253 0 0 0 128 0 0 255
-1.66883 0.527815 5.92554 0 0 0 128 0 0 255
-2.0245 0.576602 5.92566 0 0 0 128 0 0 255
-1.96351 0.572415 5.92614 0 0 0 128 0 0 255
-1.51507 0.523186 5.92746 0 0 0 128 0 0 255
-1.94428 0.587863 5.92829 0 0 0 128 0 0 255
-1.52723 0.537842 5.92901 0 0 0 128 0 0 255
-2.20785 0.631287 5.92925 0 0 0 128 0 0 255
-1.53166 0.542443 5.92949 0 0 0 128 0 0 255
-1.58537 0.555671 5.93021 0 0 0 128 0 0 255
-1.61504 0.56767 5.93117 0 0 0 128 0 0 255
-1.17334 0.513336 5.93177 0 0 0 128 0 0 255
-1.20493 0.518581 5.93189 0 0 0 128 0 0 255
-1.99073 0.625157 5.93201 0 0 0 128 0 0 255
-1.72201 0.590056 5.93213 0 0 0 128 0 0 255
-1.71408 0.588991 5.93213 0 0 0 128 0 0 255
-1.90424 0.61554 5.93225 0 0 0 128 0 0 255
-1.59489 0.57498 5.93237 0 0 0 128 0 0 255
-1.60447 0.586284 5.93356 0 0 0 128 0 0 255
-1.14546 0.525618 5.93368 0 0 0 128 0 0 255
-1.69908 0.603003 5.93404 0 0 0 128 0 0 255
-1.11123 0.540052 5.93596 0 0 0 128 0 0 255
-1.64814 0.61419 5.9362 0 0 0 128 0 0 255
-1.64715 0.614057 5.9362 0 0 0 128 0 0 255
-1.05434 0.535414 5.93632 0 0 0 128 0 0 255
-1.05038 0.534882 5.93632 0 0 0 128 0 0 255
-1.05917 0.537064 5.93644 0 0 0 128 0 0 255
-1.08579 0.541643 5.93656 0 0 0 128 0 0 255
-1.25613 0.56553 5.93668 0 0 0 128 0 0 255
-1.51058 0.601718 5.93692 0 0 0 128 0 0 255
-1.27965 0.570693 5.93692 0 0 0 128 0 0 255
-1.48243 0.600942 5.93728 0 0 0 128 0 0 255
-1.26683 0.575983 5.93775 0 0 0 128 0 0 255
-1.0258 0.552616 5.93883 0 0 0 128 0 0 255
-1.33872 0.59666 5.93907 0 0 0 128 0 0 255
-1.47523 0.617003 5.93931 0 0 0 128 0 0 255
-1.5602 0.630423 5.93955 0 0 0 128 0 0 255
-1.34797 0.602912 5.93967 0 0 0 128 0 0 255
-1.82885 0.673528 5.94039 0 0 0 128 0 0 255
-1.83202 0.679965 5.94111 0 0 0 128 0 0 255
-1.78154 0.680195 5.94195 0 0 0 128 0 0 255
-1.25712 0.61074 5.94207 0 0 0 128 0 0 255
-1.19171 0.601952 5.94207 0 0 0 128 0 0 255
-0.975516 0.573908 5.94218 0 0 0 128 0 0 255
-1.78795 0.685063 5.94242 0 0 0 128 0 0 255
-1.79462 0.687963 5.94266 0 0 0 128 0 0 255
-1.19105 0.606872 5.94266 0 0 0 128 0 0 255
-0.965935 0.57763 5.94278 0 0 0 128 0 0 255
-0.958733 0.578666 5.94302 0 0 0 128 0 0 255
-1.61887 0.674367 5.94386 0 0 0 128 0 0 255
-1.10945 0.605926 5.94386 0 0 0 128 0 0 255
-1.1103 0.607043 5.94398 0 0 0 128 0 0 255
-1.61662 0.676069 5.9441 0 0 0 128 0 0 255
-1.75187 0.698247 5.94458 0 0 0 128 0 0 255
-1.50952 0.669693 5.94506 0 0 0 128 0 0 255
-1.5193 0.672009 5.94518 0 0 0 128 0 0 255
-1.24972 0.635791 5.94518 0 0 0 128 0 0 255
-1.4488 0.663539 5.9453 0 0 0 128 0 0 255
-1.21919 0.6377 5.9459 0 0 0 128 0 0 255
-1.33561 0.657348 5.94638 0 0 0 128 0 0 255
-1.06603 0.62113 5.94638 0 0 0 128 0 0 255
-1.69657 0.711853 5.94709 0 0 0 128 0 0 255
-1.21093 0.646607 5.94709 0 0 0 128 0 0 255
-1.60922 0.701119 5.94721 0 0 0 128 0 0 255
-1.35259 0.673653 5.94805 0 0 0 128 0 0 255
-1.32385 0.669792 5.94805 0 0 0 128 0 0 255
-1.44708 0.691356 5.94865 0 0 0 128 0 0 255
-1.18219 0.657772 5.94889 0 0 0 128 0 0 255
-1.17301 0.658541 5.94913 0 0 0 128 0 0 255
-1.73245 0.737709 5.94961 0 0 0 128 0 0 255
-1.56171 0.716775 5.94985 0 0 0 128 0 0 255
-1.20551 0.671924 5.95021 0 0 0 128 0 0 255
-1.63955 0.73825 5.95117 0 0 0 128 0 0 255
-1.73119 0.75457 5.95164 0 0 0 128 0 0 255
-1.26405 0.701827 5.95284 0 0 0 128 0 0 255
-1.68996 0.761051 5.95308 0 0 0 128 0 0 255
-1.31665 0.715905 5.95368 0 0 0 128 0 0 255
-1.29253 0.722682 5.95488 0 0 0 128 0 0 255
-1.51837 0.754025 5.955 0 0 0 128 0 0 255
-1.34116 0.736228 5.95572 0 0 0 128 0 0 255
-1.54935 0.771211 5.95655 0 0 0 128 0 0 255
-1.05962 0.706416 5.95667 0 0 0 128 0 0 255
-1.225 0.729637 5.95679 0 0 0 128 0 0 255
-1.65203 0.788011 5.95691 0 0 0 128 0 0 255
-1.28123 0.739195 5.95703 0 0 0 128 0 0 255
-1.05922 0.709368 5.95703 0 0 0 128 0 0 255
-1.40122 0.762328 5.95787 0 0 0 128 0 0 255
-1.33481 0.753406 5.95787 0 0 0 128 0 0 255
-1.54863 0.784136 5.95811 0 0 0 128 0 0 255
-1.1432 0.73768 5.95907 0 0 0 128 0 0 255
-1.1399 0.747254 5.96027 0 0 0 128 0 0 255
-1.6669 0.82006 5.96051 0 0 0 128 0 0 255
-1.35245 0.779818 5.96075 0 0 0 128 0 0 255
-1.68989 0.829159 5.96122 0 0 0 128 0 0 255
-0.970949 0.735574 5.96158 0 0 0 128 0 0 255
-1.14003 0.761295 5.96194 0 0 0 128 0 0 255
-1.75709 0.847202 5.9623 0 0 0 128 0 0 255
-1.09774 0.760623 5.96254 0 0 0 128 0 0 255
-1.37386 0.800725 5.9629 0 0 0 128 0 0 255
-1.66709 0.841122 5.96302 0 0 0 128 0 0 255
-1.10217 0.765224 5.96302 0 0 0 128 0 0 255
-0.922516 0.743091 5.96326 0 0 0 128 0 0 255
-1.44059 0.814699 5.9635 0 0 0 128 0 0 255
-1.44132 0.8168 5.96374 0 0 0 128 0 0 255
-1.32338 0.800955 5.96374 0 0 0 128 0 0 255
-1.60274 0.839488 5.96386 0 0 0 128 0 0 255
-1.64694 0.848432 5.96422 0 0 0 128 0 0 255
-1.53924 0.838971 5.96482 0 0 0 128 0 0 255
-1.49834 0.83548 5.96506 0 0 0 128 0 0 255
-0.961036 0.764294 5.96518 0 0 0 128 0 0 255
-1.7409 0.87007 5.9653 0 0 0 128 0 0 255
-1.53574 0.842507 5.9653 0 0 0 128 0 0 255
-1.49709 0.837314 5.9653 0 0 0 128 0 0 255
-1.76528 0.876351 5.96566 0 0 0 128 0 0 255
-1.81734 0.894365 5.96697 0 0 0 128 0 0 255
-1.76488 0.894329 5.96781 0 0 0 128 0 0 255
-1.17293 0.816804 5.96805 0 0 0 128 0 0 255
-1.84152 0.909635 5.96841 0 0 0 128 0 0 255
-1.51829 0.86721 5.96853 0 0 0 128 0 0 255
-1.35694 0.851543 5.96925 0 0 0 128 0 0 255
-1.29834 0.844671 5.96937 0 0 0 128 0 0 255
-1.62824 0.889995 5.96949 0 0 0 128 0 0 255
-1.53825 0.883915 5.97021 0 0 0 128 0 0 255
-1.51843 0.881252 5.97021 0 0 0 128 0 0 255
-1.84179 0.937718 5.97176 0 0 0 128 0 0 255
-1.86392 0.945701 5.97236 0 0 0 128 0 0 255
-1.82434 0.947395 5.9732 0 0 0 128 0 0 255
-1.5095 0.910105 5.9738 0 0 0 128 0 0 255
-1.06609 0.853537 5.97416 0 0 0 128 0 0 255
-1.03028 0.849728 5.97428 0 0 0 128 0 0 255
-1.87951 0.964825 5.9744 0 0 0 128 0 0 255
-1.05294 0.853774 5.9744 0 0 0 128 0 0 255
-1.7109 0.943173 5.97452 0 0 0 128 0 0 255
-1.83168 0.960401 5.97464 0 0 0 128 0 0 255
-1.88705 0.968842 5.97476 0 0 0 128 0 0 255
-1.20008 0.87755 5.97488 0 0 0 128 0 0 255
-1.85044 0.970936 5.97559 0 0 0 128 0 0 255
-1.77571 0.963901 5.97595 0 0 0 128 0 0 255
-1.34207 0.909649 5.97643 0 0 0 128 0 0 255
-1.42467 0.925754 5.97703 0 0 0 128 0 0 255
-0.983562 0.874505 5.97799 0 0 0 128 0 0 255
-1.12027 0.900885 5.97895 0 0 0 128 0 0 255
-1.7921 0.992148 5.97907 0 0 0 128 0 0 255
-1.10956 0.905457 5.97967 0 0 0 128 0 0 255
-1.12615 0.909689 5.9799 0 0 0 128 0 0 255
-1.55205 0.968913 5.98014 0 0 0 128 0 0 255
-1.41746 0.956841 5.98086 0 0 0 128 0 0 255
-1.7917 1.01013 5.98122 0 0 0 128 0 0 255
-1.22142 0.951539 5.98338 0 0 0 128 0 0 255
-1.23992 0.964042 5.98457 0 0 0 128 0 0 255
-1.23457 0.966328 5.98493 0 0 0 128 0 0 255
-1.32991 0.985148 5.98565 0 0 0 128 0 0 255
-1.54498 1.02907 5.98745 0 0 0 128 0 0 255
-1.32654 1.00273 5.98781 0 0 0 128 0 0 255
-1.32007 1.00586 5.98829 0 0 0 128 0 0 255
-1.98139 1.10773 5.98984 0 0 0 128 0 0 255
-1.54128 1.05662 5.9908 0 0 0 128 0 0 255
-1.28254 1.02987 5.99176 0 0 0 128 0 0 255
-1.05359 0.999112 5.99176 0 0 0 128 0 0 255
-1.05121 1.0018 5.99212 0 0 0 128 0 0 255
-1.00225 0.998225 5.99248 0 0 0 128 0 0 255
-1.09661 1.01691 5.9932 0 0 0 128 0 0 255
-1.24745 1.07324 5.99751 0 0 0 128 0 0 255
-1.05564 1.05148 5.99799 0 0 0 128 0 0 255
-1.28716 1.08559 5.99835 0 0 0 128 0 0 255
-1.27328 1.08372 5.99835 0 0 0 128 0 0 255
-1.27275 1.08766 5.99882 0 0 0 128 0 0 255
-1.06429 1.06967 6.00002 0 0 0 128 0 0 255
-1.07156 1.07565 6.00062 0 0 0 128 0 0 255
-1.24401 1.11385 6.00242 0 0 0 128 0 0 255
-1.07513 1.09416 6.00278 0 0 0 128 0 0 255
-1.0783 1.1006 6.00349 0 0 0 128 0 0 255
-1.2197 1.12961 6.00469 0 0 0 128 0 0 255
-1.0113 1.10362 6.00493 0 0 0 128 0 0 255
-1.41276 1.16457 6.00577 0 0 0 128 0 0 255
-0.893822 1.1219 6.009 0 0 0 128 0 0 255
-1.06938 1.15951 6.01068 0 0 0 128 0 0 255
-1.01724 1.17955 6.01391 0 0 0 128 0 0 255
-1.13168 1.21396 6.01619 0 0 0 128 0 0 255
-1.05114 1.20514 6.01643 0 0 0 128 0 0 255
-1.10697 1.21765 6.01703 0 0 0 128 0 0 255
-1.00403 1.21784 6.0187 0 0 0 128 0 0 255
-0.981628 1.22685 6.02014 0 0 0 128 0 0 255
-1.02035 1.23907 6.02098 0 0 0 128 0 0 255
-1.09897 1.29972 6.02697 0 0 0 128 0 0 255
-1.01625 1.32967 6.03187 0 0 0 128 0 0 255
-1.01486 1.33249 6.03223 0 0 0 128 0 0 255
-1.0691 1.37183 6.03607 0 0 0 128 0 0 255
-1.06831 1.37774 6.03678 0 0 0 128 0 0 255
-1.11343 1.42487 6.04169 0 0 0 128 0 0 255
-1.15466 1.5386 6.05463 0 0 0 128 0 0 255
-1.18446 1.54961 6.05546 0 0 0 128 0 0 255
