ply
format ascii 1.0
comment VCGLIB generated
element vertex 545
property float x
property float y
property float z
property float nx
property float ny
property float nz
property uchar red
property uchar green
property uchar blue
property uchar alpha
element face 0
property list uchar int vertex_indices
end_header
0.389798 0.12378 4.61071 0 0 0 128 0 0 255
0.396165 0.12318 4.61104 0 0 0 128 0 0 255
0.386651 0.157618 4.61175 0 0 0 128 0 0 255
0.410622 0.133886 4.61221 0 0 0 128 0 0 255
0.398323 0.165295 4.61267 0 0 0 128 0 0 255
0.391911 0.316678 4.61776 0 0 0 128 0 0 255
0.39661 0.314982 4.61796 0 0 0 128 0 0 255
0.460697 0.23026 4.61842 0 0 0 128 0 0 255
0.456338 0.24415 4.61868 0 0 0 128 0 0 255
0.472084 0.236553 4.61926 0 0 0 128 0 0 255
0.47703 0.229034 4.61926 0 0 0 128 0 0 255
0.45863 0.258824 4.61933 0 0 0 128 0 0 255
0.391359 0.370177 4.61966 0 0 0 128 0 0 255
0.411976 0.340648 4.61972 0 0 0 128 0 0 255
0.486163 0.22786 4.61972 0 0 0 128 0 0 255
0.415557 0.337019 4.61979 0 0 0 128 0 0 255
0.46564 0.275404 4.62031 0 0 0 128 0 0 255
0.482429 0.255327 4.6205 0 0 0 128 0 0 255
0.400036 0.387854 4.62077 0 0 0 128 0 0 255
0.432212 0.344384 4.62096 0 0 0 128 0 0 255
0.41601 0.370831 4.62103 0 0 0 128 0 0 255
0.495427 0.251907 4.62109 0 0 0 128 0 0 255
0.390788 0.420072 4.62142 0 0 0 128 0 0 255
0.81645 -0.217992 4.62175 0 0 0 128 0 0 255
0.525215 0.228411 4.62188 0 0 0 128 0 0 255
0.515892 0.246217 4.62201 0 0 0 128 0 0 255
0.389252 0.444198 4.6222 0 0 0 128 0 0 255
0.531582 0.227811 4.6222 0 0 0 128 0 0 255
0.414 0.410205 4.62233 0 0 0 128 0 0 255
0.514015 0.258149 4.62233 0 0 0 128 0 0 255
0.456598 0.347257 4.6224 0 0 0 128 0 0 255
0.510187 0.2676 4.62246 0 0 0 128 0 0 255
0.835322 -0.210366 4.62305 0 0 0 128 0 0 255
0.42209 0.421511 4.62318 0 0 0 128 0 0 255
0.444905 0.38864 4.62325 0 0 0 128 0 0 255
0.528719 0.263033 4.62331 0 0 0 128 0 0 255
0.466356 0.35966 4.62338 0 0 0 128 0 0 255
0.555399 0.227917 4.62351 0 0 0 128 0 0 255
0.495519 0.322586 4.62364 0 0 0 128 0 0 255
0.487048 0.344544 4.62397 0 0 0 128 0 0 255
0.553542 0.243452 4.62397 0 0 0 128 0 0 255
0.539557 0.270161 4.62416 0 0 0 128 0 0 255
0.43378 0.432791 4.62423 0 0 0 128 0 0 255
0.484072 0.358147 4.62429 0 0 0 128 0 0 255
0.495347 0.342821 4.62436 0 0 0 128 0 0 255
0.461295 0.398224 4.62449 0 0 0 128 0 0 255
0.457183 0.406291 4.62455 0 0 0 128 0 0 255
0.449527 0.425194 4.62482 0 0 0 128 0 0 255
0.582552 0.230217 4.62508 0 0 0 128 0 0 255
0.483105 0.38504 4.62521 0 0 0 128 0 0 255
0.483938 0.385588 4.62527 0 0 0 128 0 0 255
0.586152 0.230191 4.62527 0 0 0 128 0 0 255
0.505692 0.361595 4.6256 0 0 0 128 0 0 255
0.469707 0.41812 4.62566 0 0 0 128 0 0 255
0.595038 0.234839 4.62593 0 0 0 128 0 0 255
0.575539 0.2663 4.62599 0 0 0 128 0 0 255
0.513214 0.370133 4.62632 0 0 0 128 0 0 255
0.559184 0.316586 4.62691 0 0 0 128 0 0 255
0.607562 0.246667 4.62704 0 0 0 128 0 0 255
0.523843 0.390291 4.62762 0 0 0 128 0 0 255
0.604624 0.267477 4.62762 0 0 0 128 0 0 255
0.630452 0.228209 4.62762 0 0 0 128 0 0 255
0.392523 0.593571 4.62775 0 0 0 128 0 0 255
0.550239 0.353791 4.62775 0 0 0 128 0 0 255
0.510957 0.415329 4.62782 0 0 0 128 0 0 255
0.61264 0.26437 4.62795 0 0 0 128 0 0 255
0.39311 0.599942 4.62802 0 0 0 128 0 0 255
0.42773 0.547308 4.62802 0 0 0 128 0 0 255
0.536273 0.384104 4.62808 0 0 0 128 0 0 255
0.948992 -0.239732 4.62821 0 0 0 128 0 0 255
0.394796 0.604642 4.62828 0 0 0 128 0 0 255
0.531099 0.401048 4.62841 0 0 0 128 0 0 255
0.953142 -0.240593 4.62841 0 0 0 128 0 0 255
0.394284 0.612684 4.62854 0 0 0 128 0 0 255
0.551451 0.373739 4.62854 0 0 0 128 0 0 255
0.562498 0.367839 4.62893 0 0 0 128 0 0 255
0.567444 0.36032 4.62893 0 0 0 128 0 0 255
0.577354 0.348885 4.62906 0 0 0 128 0 0 255
0.645781 0.24667 4.62913 0 0 0 128 0 0 255
0.410314 0.606471 4.62919 0 0 0 128 0 0 255
0.581807 0.35301 4.62945 0 0 0 128 0 0 255
0.666454 0.227951 4.62958 0 0 0 128 0 0 255
0.545291 0.413974 4.62965 0 0 0 128 0 0 255
0.668386 0.226828 4.62965 0 0 0 128 0 0 255
0.562895 0.390842 4.62978 0 0 0 128 0 0 255
0.395021 0.64788 4.62984 0 0 0 128 0 0 255
0.580801 0.372697 4.63011 0 0 0 128 0 0 255
0.610476 0.327581 4.63011 0 0 0 128 0 0 255
0.488498 0.516659 4.63024 0 0 0 128 0 0 255
0.599239 0.350113 4.6303 0 0 0 128 0 0 255
0.453347 0.573732 4.63037 0 0 0 128 0 0 255
0.675378 0.239805 4.6305 0 0 0 128 0 0 255
0.502293 0.506582 4.63063 0 0 0 128 0 0 255
0.661393 0.266514 4.63069 0 0 0 128 0 0 255
0.445198 0.60428 4.63102 0 0 0 128 0 0 255
0.672477 0.267821 4.63135 0 0 0 128 0 0 255
0.504338 0.527078 4.63148 0 0 0 128 0 0 255
0.57358 0.421809 4.63148 0 0 0 128 0 0 255
0.584021 0.405935 4.63148 0 0 0 128 0 0 255
0.608219 0.372777 4.63161 0 0 0 128 0 0 255
0.502727 0.536791 4.63174 0 0 0 128 0 0 255
0.717065 0.21456 4.63187 0 0 0 128 0 0 255
0.453572 0.61697 4.63193 0 0 0 128 0 0 255
0.702814 0.243489 4.63213 0 0 0 128 0 0 255
0.448664 0.631696 4.63219 0 0 0 128 0 0 255
0.577804 0.43536 4.63219 0 0 0 128 0 0 255
0.602268 0.399983 4.63226 0 0 0 128 0 0 255
0.707779 0.239573 4.63226 0 0 0 128 0 0 255
0.501438 0.555093 4.63233 0 0 0 128 0 0 255
0.613543 0.384657 4.63233 0 0 0 128 0 0 255
0.668287 0.314139 4.63278 0 0 0 128 0 0 255
0.502612 0.567835 4.63285 0 0 0 128 0 0 255
0.727372 0.226128 4.63285 0 0 0 128 0 0 255
0.638915 0.364241 4.63298 0 0 0 128 0 0 255
0.429561 0.686159 4.63311 0 0 0 128 0 0 255
0.636736 0.371186 4.63311 0 0 0 128 0 0 255
0.634841 0.379515 4.63331 0 0 0 128 0 0 255
0.500242 0.591412 4.63357 0 0 0 128 0 0 255
0.638725 0.380873 4.63357 0 0 0 128 0 0 255
0.71621 0.263072 4.63357 0 0 0 128 0 0 255
0.668172 0.345183 4.63389 0 0 0 128 0 0 255
0.490691 0.618644 4.63402 0 0 0 128 0 0 255
0.646759 0.38137 4.63402 0 0 0 128 0 0 255
0.666277 0.353512 4.63409 0 0 0 128 0 0 255
0.715204 0.282758 4.63422 0 0 0 128 0 0 255
0.740502 0.24793 4.63435 0 0 0 128 0 0 255
0.634214 0.418601 4.63468 0 0 0 128 0 0 255
0.76144 0.226992 4.63474 0 0 0 128 0 0 255
0.498497 0.628566 4.63481 0 0 0 128 0 0 255
0.686457 0.346438 4.63494 0 0 0 128 0 0 255
0.649979 0.414608 4.6354 0 0 0 128 0 0 255
0.654128 0.413746 4.63559 0 0 0 128 0 0 255
0.663755 0.400927 4.63566 0 0 0 128 0 0 255
0.692899 0.36025 4.63579 0 0 0 128 0 0 255
0.759392 0.259158 4.63579 0 0 0 128 0 0 255
0.784671 0.220727 4.63579 0 0 0 128 0 0 255
0.534102 0.605305 4.63592 0 0 0 128 0 0 255
0.775897 0.237697 4.63592 0 0 0 128 0 0 255
0.778645 0.23352 4.63592 0 0 0 128 0 0 255
0.651986 0.427898 4.63598 0 0 0 128 0 0 255
0.687725 0.377195 4.63611 0 0 0 128 0 0 255
0.531126 0.618908 4.63624 0 0 0 128 0 0 255
0.788858 0.227072 4.63624 0 0 0 128 0 0 255
0.501754 0.66901 4.63644 0 0 0 128 0 0 255
0.77872 0.247933 4.63644 0 0 0 128 0 0 255
0.556727 0.589066 4.63657 0 0 0 128 0 0 255
0.784821 0.249552 4.63683 0 0 0 128 0 0 255
0.679329 0.413565 4.63696 0 0 0 128 0 0 255
0.720279 0.353124 4.63703 0 0 0 128 0 0 255
0.556536 0.605698 4.63716 0 0 0 128 0 0 255
0.548615 0.62682 4.63749 0 0 0 128 0 0 255
0.789898 0.267255 4.63775 0 0 0 128 0 0 255
0.683857 0.432104 4.63788 0 0 0 128 0 0 255
0.694298 0.41623 4.63788 0 0 0 128 0 0 255
0.756945 0.320986 4.63788 0 0 0 128 0 0 255
0.820426 0.226291 4.63794 0 0 0 128 0 0 255
0.720164 0.384169 4.63814 0 0 0 128 0 0 255
0.811955 0.248248 4.63827 0 0 0 128 0 0 255
0.743282 0.356285 4.6384 0 0 0 128 0 0 255
0.552328 0.648413 4.63846 0 0 0 128 0 0 255
0.556459 0.643948 4.63853 0 0 0 128 0 0 255
0.75594 0.340673 4.63853 0 0 0 128 0 0 255
0.517535 0.721283 4.63918 0 0 0 128 0 0 255
0.554089 0.667525 4.63925 0 0 0 128 0 0 255
0.731589 0.397668 4.63925 0 0 0 128 0 0 255
0.745062 0.379001 4.63931 0 0 0 128 0 0 255
0.746994 0.377878 4.63938 0 0 0 128 0 0 255
0.828098 0.263654 4.63971 0 0 0 128 0 0 255
0.772898 0.353024 4.6399 0 0 0 128 0 0 255
0.570403 0.662696 4.63997 0 0 0 128 0 0 255
0.364612 0.977382 4.64003 0 0 0 128 0 0 255
0.55477 0.691912 4.64016 0 0 0 128 0 0 255
0.764483 0.385791 4.64062 0 0 0 128 0 0 255
0.857355 0.244596 4.64062 0 0 0 128 0 0 255
0.549899 0.713844 4.64069 0 0 0 128 0 0 255
0.778259 0.37211 4.64088 0 0 0 128 0 0 255
0.575215 0.682618 4.64095 0 0 0 128 0 0 255
0.801624 0.338404 4.64095 0 0 0 128 0 0 255
0.364497 1.00843 4.64114 0 0 0 128 0 0 255
0.357106 1.02511 4.64134 0 0 0 128 0 0 255
0.808824 0.338353 4.64134 0 0 0 128 0 0 255
0.758285 0.418819 4.64147 0 0 0 128 0 0 255
0.795389 0.364226 4.64153 0 0 0 128 0 0 255
0.867662 0.256163 4.6416 0 0 0 128 0 0 255
0.683037 0.540485 4.64173 0 0 0 128 0 0 255
0.675912 0.554949 4.64186 0 0 0 128 0 0 255
0.684155 0.542417 4.64186 0 0 0 128 0 0 255
0.677598 0.559649 4.64212 0 0 0 128 0 0 255
0.796335 0.386394 4.64238 0 0 0 128 0 0 255
0.816952 0.356865 4.64245 0 0 0 128 0 0 255
0.88318 0.257992 4.64251 0 0 0 128 0 0 255
0.909558 0.21789 4.64251 0 0 0 128 0 0 255
0.686181 0.55931 4.64258 0 0 0 128 0 0 255
0.900519 0.23708 4.64271 0 0 0 128 0 0 255
0.907397 0.228438 4.64278 0 0 0 128 0 0 255
0.679094 0.580981 4.64297 0 0 0 128 0 0 255
0.478797 0.887311 4.64304 0 0 0 128 0 0 255
0.844257 0.335326 4.64317 0 0 0 128 0 0 255
0.707707 0.544742 4.64323 0 0 0 128 0 0 255
0.905824 0.245357 4.6433 0 0 0 128 0 0 255
0.47639 0.903682 4.64349 0 0 0 128 0 0 255
0.473927 0.909243 4.64356 0 0 0 128 0 0 255
0.797072 0.421589 4.64369 0 0 0 128 0 0 255
0.898186 0.267863 4.64369 0 0 0 128 0 0 255
0.491019 0.894153 4.64395 0 0 0 128 0 0 255
0.858657 0.335223 4.64395 0 0 0 128 0 0 255
0.711666 0.560513 4.64402 0 0 0 128 0 0 255
0.46771 0.938668 4.64428 0 0 0 128 0 0 255
0.483665 0.918043 4.64441 0 0 0 128 0 0 255
0.83262 0.387519 4.64441 0 0 0 128 0 0 255
0.466914 0.945326 4.64447 0 0 0 128 0 0 255
0.823013 0.403941 4.64447 0 0 0 128 0 0 255
0.919181 0.257734 4.64447 0 0 0 128 0 0 255
0.905462 0.282224 4.6446 0 0 0 128 0 0 255
1.01097 0.121813 4.6446 0 0 0 128 0 0 255
0.478492 0.934988 4.64473 0 0 0 128 0 0 255
0.467236 0.953916 4.6448 0 0 0 128 0 0 255
1.02145 0.113146 4.64487 0 0 0 128 0 0 255
0.50106 0.907939 4.645 0 0 0 128 0 0 255
0.501079 0.911543 4.64513 0 0 0 128 0 0 255
0.934681 0.255959 4.64526 0 0 0 128 0 0 255
0.953668 0.23254 4.64545 0 0 0 128 0 0 255
0.830041 0.424124 4.64558 0 0 0 128 0 0 255
0.856173 0.389844 4.64578 0 0 0 128 0 0 255
0.960053 0.235543 4.64591 0 0 0 128 0 0 255
0.838341 0.422402 4.64598 0 0 0 128 0 0 255
0.516882 0.914755 4.64611 0 0 0 128 0 0 255
0.754281 0.553832 4.64611 0 0 0 128 0 0 255
0.848251 0.410966 4.64611 0 0 0 128 0 0 255
0.87298 0.37337 4.64611 0 0 0 128 0 0 255
0.871635 0.380864 4.6463 0 0 0 128 0 0 255
0.759017 0.559341 4.64656 0 0 0 128 0 0 255
0.890375 0.363267 4.64669 0 0 0 128 0 0 255
0.92005 0.318152 4.64669 0 0 0 128 0 0 255
0.908794 0.33708 4.64676 0 0 0 128 0 0 255
0.900835 0.350996 4.64682 0 0 0 128 0 0 255
0.849482 0.434517 4.64702 0 0 0 128 0 0 255
0.864869 0.411124 4.64702 0 0 0 128 0 0 255
0.914876 0.335096 4.64702 0 0 0 128 0 0 255
0.959389 0.267423 4.64702 0 0 0 128 0 0 255
0.77753 0.55117 4.64728 0 0 0 128 0 0 255
1.06274 0.117561 4.64728 0 0 0 128 0 0 255
0.949269 0.291887 4.64735 0 0 0 128 0 0 255
0.548942 0.902329 4.64741 0 0 0 128 0 0 255
0.863276 0.42444 4.64741 0 0 0 128 0 0 255
0.884159 0.392692 4.64741 0 0 0 128 0 0 255
0.561316 0.885333 4.64748 0 0 0 128 0 0 255
1.08777 0.0849518 4.64748 0 0 0 128 0 0 255
0.547862 0.907603 4.64754 0 0 0 128 0 0 255
0.904529 0.368986 4.64767 0 0 0 128 0 0 255
0.747097 0.61015 4.64774 0 0 0 128 0 0 255
0.977352 0.260088 4.64774 0 0 0 128 0 0 255
0.545701 0.918151 4.6478 0 0 0 128 0 0 255
0.880652 0.410734 4.64787 0 0 0 128 0 0 255
0.748233 0.615685 4.648 0 0 0 128 0 0 255
1.10545 0.0762324 4.64813 0 0 0 128 0 0 255
0.793882 0.553547 4.64826 0 0 0 128 0 0 255
0.938959 0.332983 4.64826 0 0 0 128 0 0 255
1.05025 0.165602 4.64833 0 0 0 128 0 0 255
0.428195 1.11496 4.64846 0 0 0 128 0 0 255
0.909038 0.383921 4.64846 0 0 0 128 0 0 255
0.531792 0.959273 4.64852 0 0 0 128 0 0 255
0.768944 0.604172 4.64872 0 0 0 128 0 0 255
0.777187 0.59164 4.64872 0 0 0 128 0 0 255
0.638439 0.804398 4.64878 0 0 0 128 0 0 255
0.93299 0.356586 4.64878 0 0 0 128 0 0 255
0.580756 0.895726 4.64891 0 0 0 128 0 0 255
0.58159 0.896274 4.64898 0 0 0 128 0 0 255
0.792896 0.576837 4.64904 0 0 0 128 0 0 255
0.811352 0.557857 4.64937 0 0 0 128 0 0 255
0.94957 0.349537 4.64944 0 0 0 128 0 0 255
0.438521 1.13013 4.64957 0 0 0 128 0 0 255
0.574805 0.922932 4.64957 0 0 0 128 0 0 255
0.41436 1.17049 4.6497 0 0 0 128 0 0 255
0.73364 0.685084 4.6497 0 0 0 128 0 0 255
0.566316 0.941286 4.64976 0 0 0 128 0 0 255
0.391582 1.21057 4.64989 0 0 0 128 0 0 255
0.572664 0.937083 4.64996 0 0 0 128 0 0 255
0.389403 1.21751 4.65002 0 0 0 128 0 0 255
0.813094 0.573366 4.65002 0 0 0 128 0 0 255
0.585606 0.922854 4.65016 0 0 0 128 0 0 255
0.843338 0.531018 4.65016 0 0 0 128 0 0 255
0.4378 1.1512 4.65029 0 0 0 128 0 0 255
0.931832 0.400111 4.65029 0 0 0 128 0 0 255
0.399351 1.21328 4.65042 0 0 0 128 0 0 255
0.451007 1.13475 4.65042 0 0 0 128 0 0 255
0.919761 0.422094 4.65042 0 0 0 128 0 0 255
1.09893 0.153334 4.65055 0 0 0 128 0 0 255
0.828291 0.566605 4.65061 0 0 0 128 0 0 255
0.948924 0.38502 4.65068 0 0 0 128 0 0 255
0.767312 0.662945 4.65074 0 0 0 128 0 0 255
0.987675 0.327921 4.65074 0 0 0 128 0 0 255
0.426335 1.18316 4.65081 0 0 0 128 0 0 255
0.967627 0.360218 4.65081 0 0 0 128 0 0 255
0.41017 1.21681 4.65113 0 0 0 128 0 0 255
0.448656 1.16193 4.65127 0 0 0 128 0 0 255
0.850366 0.551202 4.65127 0 0 0 128 0 0 255
0.452787 1.15747 4.65133 0 0 0 128 0 0 255
0.40801 1.22736 4.6514 0 0 0 128 0 0 255
1.02953 0.282441 4.6514 0 0 0 128 0 0 255
0.783361 0.660335 4.65153 0 0 0 128 0 0 255
0.813036 0.61522 4.65153 0 0 0 128 0 0 255
0.828157 0.594046 4.65159 0 0 0 128 0 0 255
0.763047 0.694851 4.65166 0 0 0 128 0 0 255
0.77074 0.683154 4.65166 0 0 0 128 0 0 255
0.990308 0.354788 4.65185 0 0 0 128 0 0 255
1.00075 0.338914 4.65185 0 0 0 128 0 0 255
0.458111 1.16935 4.65205 0 0 0 128 0 0 255
0.958737 0.408233 4.65205 0 0 0 128 0 0 255
0.873294 0.53995 4.65211 0 0 0 128 0 0 255
0.41555 1.2395 4.65225 0 0 0 128 0 0 255
1.011 0.339672 4.65244 0 0 0 128 0 0 255
0.470276 1.16538 4.65257 0 0 0 128 0 0 255
0.818681 0.63569 4.65257 0 0 0 128 0 0 255
1.01541 0.336592 4.65257 0 0 0 128 0 0 255
0.987426 0.386407 4.65283 0 0 0 128 0 0 255
1.00116 0.36552 4.65283 0 0 0 128 0 0 255
1.03633 0.31205 4.65283 0 0 0 128 0 0 255
0.828894 0.629242 4.6529 0 0 0 128 0 0 255
0.426104 1.24524 4.65303 0 0 0 128 0 0 255
0.424474 1.25135 4.65316 0 0 0 128 0 0 255
0.87208 0.572665 4.65322 0 0 0 128 0 0 255
0.475334 1.17948 4.65336 0 0 0 128 0 0 255
0.501996 1.14076 4.65342 0 0 0 128 0 0 255
0.469895 1.19864 4.65375 0 0 0 128 0 0 255
1.06174 0.29884 4.65375 0 0 0 128 0 0 255
0.980148 0.424709 4.65381 0 0 0 128 0 0 255
0.735074 0.800932 4.65394 0 0 0 128 0 0 255
1.01564 0.379829 4.65414 0 0 0 128 0 0 255
0.454034 1.23728 4.65427 0 0 0 128 0 0 255
0.512303 1.15233 4.6544 0 0 0 128 0 0 255
1.03216 0.361971 4.6544 0 0 0 128 0 0 255
0.457634 1.23726 4.65447 0 0 0 128 0 0 255
0.921991 0.531285 4.65447 0 0 0 128 0 0 255
1.00167 0.410142 4.65447 0 0 0 128 0 0 255
0.734618 0.819784 4.6546 0 0 0 128 0 0 255
0.921744 0.537107 4.65466 0 0 0 128 0 0 255
1.05502 0.336307 4.65473 0 0 0 128 0 0 255
1.03169 0.377219 4.65492 0 0 0 128 0 0 255
0.448917 1.26504 4.65499 0 0 0 128 0 0 255
1.00478 0.421761 4.65505 0 0 0 128 0 0 255
0.7858 0.756497 4.65512 0 0 0 128 0 0 255
0.447571 1.27253 4.65518 0 0 0 128 0 0 255
1.02623 0.39278 4.65518 0 0 0 128 0 0 255
0.910298 0.572668 4.65531 0 0 0 128 0 0 255
1.01086 0.419777 4.65531 0 0 0 128 0 0 255
1.05428 0.353775 4.65531 0 0 0 128 0 0 255
0.753718 0.817983 4.65558 0 0 0 128 0 0 255
0.906224 0.587942 4.65564 0 0 0 128 0 0 255
1.06779 0.342313 4.65564 0 0 0 128 0 0 255
0.741382 0.842186 4.65577 0 0 0 128 0 0 255
0.899648 0.601571 4.65577 0 0 0 128 0 0 255
0.934818 0.5481 4.65577 0 0 0 128 0 0 255
0.745797 0.839105 4.6559 0 0 0 128 0 0 255
0.922747 0.570084 4.6559 0 0 0 128 0 0 255
1.05412 0.377613 4.65616 0 0 0 128 0 0 255
1.02968 0.416593 4.65623 0 0 0 128 0 0 255
0.552966 1.14317 4.65629 0 0 0 128 0 0 255
0.735696 0.867173 4.65636 0 0 0 128 0 0 255
0.737894 0.863831 4.65636 0 0 0 128 0 0 255
0.565378 1.13337 4.65662 0 0 0 128 0 0 255
0.800579 0.775793 4.65662 0 0 0 128 0 0 255
0.765693 0.830647 4.65669 0 0 0 128 0 0 255
1.07948 0.353594 4.65669 0 0 0 128 0 0 255
0.467049 1.29013 4.65688 0 0 0 128 0 0 255
0.817387 0.759319 4.65695 0 0 0 128 0 0 255
0.783353 0.818325 4.65721 0 0 0 128 0 0 255
0.834763 0.745613 4.6574 0 0 0 128 0 0 255
0.943021 0.581025 4.6574 0 0 0 128 0 0 255
0.954845 0.564864 4.65747 0 0 0 128 0 0 255
0.572388 1.14996 4.6576 0 0 0 128 0 0 255
0.823525 0.768145 4.6576 0 0 0 128 0 0 255
0.437486 1.35686 4.65767 0 0 0 128 0 0 255
0.453423 1.33264 4.65767 0 0 0 128 0 0 255
1.05846 0.412783 4.65767 0 0 0 128 0 0 255
1.09007 0.366545 4.65773 0 0 0 128 0 0 255
0.502085 1.2641 4.65786 0 0 0 128 0 0 255
0.447169 1.35485 4.65812 0 0 0 128 0 0 255
0.941485 0.605151 4.65819 0 0 0 128 0 0 255
1.10528 0.363387 4.65845 0 0 0 128 0 0 255
0.802225 0.82595 4.65851 0 0 0 128 0 0 255
0.536003 1.23614 4.65871 0 0 0 128 0 0 255
0.421435 1.41214 4.65878 0 0 0 128 0 0 255
0.79815 0.841224 4.65884 0 0 0 128 0 0 255
0.427801 1.41154 4.6591 0 0 0 128 0 0 255
0.538826 1.24638 4.65923 0 0 0 128 0 0 255
1.10924 0.379157 4.65923 0 0 0 128 0 0 255
0.819676 0.826656 4.65949 0 0 0 128 0 0 255
0.840009 0.795744 4.65949 0 0 0 128 0 0 255
1.01451 0.535887 4.65969 0 0 0 128 0 0 255
0.545836 1.26296 4.66021 0 0 0 128 0 0 255
1.04044 0.514635 4.66034 0 0 0 128 0 0 255
0.820678 0.859633 4.66074 0 0 0 128 0 0 255
0.834436 0.842349 4.66087 0 0 0 128 0 0 255
1.09383 0.45161 4.661 0 0 0 128 0 0 255
0.785034 0.928351 4.66126 0 0 0 128 0 0 255
0.851318 0.840288 4.66171 0 0 0 128 0 0 255
0.849973 0.847781 4.66191 0 0 0 128 0 0 255
0.574125 1.27079 4.66204 0 0 0 128 0 0 255
0.846145 0.857233 4.66204 0 0 0 128 0 0 255
1.03189 0.574844 4.66204 0 0 0 128 0 0 255
0.865416 0.835198 4.6623 0 0 0 128 0 0 255
1.03388 0.58453 4.6625 0 0 0 128 0 0 255
1.03503 0.593669 4.66289 0 0 0 128 0 0 255
0.864411 0.854884 4.66296 0 0 0 128 0 0 255
0.909757 0.787759 4.66302 0 0 0 128 0 0 255
0.913338 0.78413 4.66309 0 0 0 128 0 0 255
1.05347 0.571085 4.66309 0 0 0 128 0 0 255
0.91529 0.786611 4.66328 0 0 0 128 0 0 255
1.0774 0.540147 4.66328 0 0 0 128 0 0 255
1.07083 0.553776 4.66341 0 0 0 128 0 0 255
1.00901 0.649568 4.66348 0 0 0 128 0 0 255
0.94612 0.750634 4.66367 0 0 0 128 0 0 255
1.09396 0.529495 4.6638 0 0 0 128 0 0 255
0.622197 1.24855 4.66387 0 0 0 128 0 0 255
0.933006 0.785098 4.6642 0 0 0 128 0 0 255
1.06823 0.586778 4.66446 0 0 0 128 0 0 255
0.71052 1.13788 4.66472 0 0 0 128 0 0 255
0.714651 1.13341 4.66478 0 0 0 128 0 0 255
0.934199 0.801443 4.66485 0 0 0 128 0 0 255
1.04934 0.628213 4.66491 0 0 0 128 0 0 255
0.638568 1.25453 4.66498 0 0 0 128 0 0 255
0.945758 0.787501 4.66498 0 0 0 128 0 0 255
0.713589 1.14229 4.66505 0 0 0 128 0 0 255
0.9587 0.773272 4.66518 0 0 0 128 0 0 255
0.697955 1.1715 4.66524 0 0 0 128 0 0 255
1.03317 0.661867 4.66524 0 0 0 128 0 0 255
0.922999 0.831181 4.66531 0 0 0 128 0 0 255
1.04418 0.648761 4.66537 0 0 0 128 0 0 255
1.08871 0.584691 4.6655 0 0 0 128 0 0 255
0.933762 0.823897 4.66563 0 0 0 128 0 0 255
1.04757 0.661764 4.66603 0 0 0 128 0 0 255
1.07863 0.616361 4.66609 0 0 0 128 0 0 255
1.0435 0.677038 4.66635 0 0 0 128 0 0 255
1.09186 0.603516 4.66635 0 0 0 128 0 0 255
1.12566 0.553936 4.66642 0 0 0 128 0 0 255
1.03226 0.69957 4.66655 0 0 0 128 0 0 255
1.11418 0.582291 4.66681 0 0 0 128 0 0 255
1.05924 0.669441 4.66694 0 0 0 128 0 0 255
0.67817 1.25424 4.66714 0 0 0 128 0 0 255
1.0939 0.624012 4.6672 0 0 0 128 0 0 255
0.928246 0.881312 4.6674 0 0 0 128 0 0 255
0.764219 1.1325 4.66746 0 0 0 128 0 0 255
0.819722 1.04812 4.66746 0 0 0 128 0 0 255
1.11482 0.599471 4.66746 0 0 0 128 0 0 255
1.10989 0.610593 4.66759 0 0 0 128 0 0 255
0.743109 1.17367 4.66779 0 0 0 128 0 0 255
1.07975 0.670957 4.66811 0 0 0 128 0 0 255
1.09597 0.648112 4.66818 0 0 0 128 0 0 255
1.10669 0.633622 4.66825 0 0 0 128 0 0 255
0.713812 1.23819 4.66851 0 0 0 128 0 0 255
1.09333 0.673908 4.66896 0 0 0 128 0 0 255
0.799368 1.12809 4.66923 0 0 0 128 0 0 255
0.858168 1.0387 4.66923 0 0 0 128 0 0 255
1.10794 0.660776 4.66929 0 0 0 128 0 0 255
0.713678 1.26563 4.66949 0 0 0 128 0 0 255
0.795861 1.14613 4.66968 0 0 0 128 0 0 255
0.859342 1.05144 4.66975 0 0 0 128 0 0 255
1.0896 0.701375 4.66975 0 0 0 128 0 0 255
1.05198 0.76401 4.66994 0 0 0 128 0 0 255
0.820665 1.12295 4.6702 0 0 0 128 0 0 255
1.07758 0.734168 4.67027 0 0 0 128 0 0 255
1.05369 0.772313 4.67034 0 0 0 128 0 0 255
0.726998 1.2708 4.6704 0 0 0 128 0 0 255
1.10398 0.697669 4.6704 0 0 0 128 0 0 255
1.05784 0.771451 4.67053 0 0 0 128 0 0 255
0.870217 1.06577 4.67086 0 0 0 128 0 0 255
0.867773 1.07494 4.67105 0 0 0 128 0 0 255
1.10517 0.714013 4.67105 0 0 0 128 0 0 255
1.05778 0.813305 4.67203 0 0 0 128 0 0 255
1.0935 0.758999 4.67203 0 0 0 128 0 0 255
0.912491 1.0469 4.67249 0 0 0 128 0 0 255
1.09164 0.774535 4.67249 0 0 0 128 0 0 255
0.876241 1.10564 4.67262 0 0 0 128 0 0 255
1.11529 0.742212 4.67262 0 0 0 128 0 0 255
0.856742 1.1371 4.67269 0 0 0 128 0 0 255
0.948836 1.00617 4.67301 0 0 0 128 0 0 255
1.11317 0.759967 4.67314 0 0 0 128 0 0 255
0.797486 1.24535 4.67334 0 0 0 128 0 0 255
0.901101 1.09327 4.67354 0 0 0 128 0 0 255
0.910462 1.08267 4.67367 0 0 0 128 0 0 255
0.892896 1.11301 4.6738 0 0 0 128 0 0 255
0.796196 1.26365 4.67393 0 0 0 128 0 0 255
0.858047 1.17507 4.67412 0 0 0 128 0 0 255
0.923177 1.07786 4.67419 0 0 0 128 0 0 255
0.939681 1.0564 4.67432 0 0 0 128 0 0 255
1.01967 0.940248 4.67452 0 0 0 128 0 0 255
0.862235 1.18141 4.67458 0 0 0 128 0 0 255
0.933674 1.0728 4.67458 0 0 0 128 0 0 255
0.91967 1.09591 4.67465 0 0 0 128 0 0 255
0.880123 1.15966 4.67478 0 0 0 128 0 0 255
0.898257 1.13209 4.67478 0 0 0 128 0 0 255
1.0252 0.939099 4.67478 0 0 0 128 0 0 255
0.934867 1.08915 4.67523 0 0 0 128 0 0 255
0.968407 1.04178 4.67536 0 0 0 128 0 0 255
0.905514 1.14285 4.67556 0 0 0 128 0 0 255
0.887398 1.17402 4.67569 0 0 0 128 0 0 255
0.804153 1.3024 4.67576 0 0 0 128 0 0 255
0.923705 1.12609 4.67595 0 0 0 128 0 0 255
0.936344 1.10687 4.67595 0 0 0 128 0 0 255
0.951219 1.09152 4.67621 0 0 0 128 0 0 255
0.778684 1.35746 4.67634 0 0 0 128 0 0 255
0.937234 1.11823 4.67641 0 0 0 128 0 0 255
0.927645 1.13826 4.6766 0 0 0 128 0 0 255
0.904034 1.17779 4.67674 0 0 0 128 0 0 255
0.927948 1.14324 4.6768 0 0 0 128 0 0 255
0.946405 1.12426 4.67713 0 0 0 128 0 0 255
0.963175 1.10058 4.67719 0 0 0 128 0 0 255
0.954117 1.11617 4.67726 0 0 0 128 0 0 255
1.03604 0.998891 4.67752 0 0 0 128 0 0 255
0.922054 1.18126 4.67785 0 0 0 128 0 0 255
1.01741 1.03811 4.67791 0 0 0 128 0 0 255
0.974032 1.11131 4.67817 0 0 0 128 0 0 255
0.944394 1.16364 4.67843 0 0 0 128 0 0 255
0.814476 1.37023 4.67876 0 0 0 128 0 0 255
0.959722 1.1821 4.67994 0 0 0 128 0 0 255
0.963569 1.17625 4.67994 0 0 0 128 0 0 255
1.08204 1.00521 4.68026 0 0 0 128 0 0 255
1.08727 0.999077 4.68033 0 0 0 128 0 0 255
0.883525 1.33426 4.68124 0 0 0 128 0 0 255
0.854418 1.38214 4.68137 0 0 0 128 0 0 255
1.07702 1.05098 4.68163 0 0 0 128 0 0 255
0.893832 1.34583 4.68222 0 0 0 128 0 0 255
0.883675 1.36308 4.68229 0 0 0 128 0 0 255
0.88754 1.36084 4.68242 0 0 0 128 0 0 255
0.90738 1.34157 4.68281 0 0 0 128 0 0 255
0.912722 1.35705 4.68366 0 0 0 128 0 0 255
1.06331 1.13174 4.68379 0 0 0 128 0 0 255
0.917422 1.35536 4.68385 0 0 0 128 0 0 255
0.907852 1.37899 4.68418 0 0 0 128 0 0 255
1.04332 1.17484 4.68425 0 0 0 128 0 0 255
1.06505 1.19991 4.68634 0 0 0 128 0 0 255
0.984612 1.33492 4.68679 0 0 0 128 0 0 255
0.979136 1.34688 4.68692 0 0 0 128 0 0 255
1.0591 1.22712 4.68699 0 0 0 128 0 0 255
0.978396 1.36434 4.68751 0 0 0 128 0 0 255
0.992153 1.34706 4.68764 0 0 0 128 0 0 255
0.991073 1.35233 4.68777 0 0 0 128 0 0 255
0.997421 1.34813 4.68797 0 0 0 128 0 0 255
1.02448 1.33242 4.68888 0 0 0 128 0 0 255
1.00003 1.3714 4.68895 0 0 0 128 0 0 255
1.01868 1.38845 4.69058 0 0 0 128 0 0 255
1.03302 1.37753 4.69097 0 0 0 128 0 0 255
1.10334 1.31965 4.69274 0 0 0 128 0 0 255
1.10919 1.37976 4.69522 0 0 0 128 0 0 255
