ply
format ascii 1.0
comment VCGLIB generated
element vertex 609
property float x
property float y
property float z
property float nx
property float ny
property float nz
property uchar red
property uchar green
property uchar blue
property uchar alpha
element face 0
property list uchar int vertex_indices
end_header
2.74042 0.374137 4.14477 0 0 0 255 255 0 255
1.93166 0.882706 4.10133 0 0 0 255 255 0 255
1.95122 0.7764 4.08805 0 0 0 255 255 0 255
1.92857 0.891172 4.08534 0 0 0 255 255 0 255
1.92866 0.887001 4.06738 0 0 0 255 255 0 255
1.93852 0.83689 4.05569 0 0 0 255 255 0 255
1.94081 0.826093 4.04976 0 0 0 255 255 0 255
1.93247 0.87127 4.03949 0 0 0 255 255 0 255
2.07723 0.133349 4.04409 0 0 0 255 255 0 255
1.98393 0.609275 4.04013 0 0 0 255 255 0 255
1.986 0.599478 4.0382 0 0 0 255 255 0 255
2.07667 0.137296 4.04108 0 0 0 255 255 0 255
1.98942 0.582814 4.0363 0 0 0 255 255 0 255
1.99039 0.577907 4.03634 0 0 0 255 255 0 255
2.06796 0.182452 4.0388 0 0 0 255 255 0 255
2.03482 0.352233 4.03575 0 0 0 255 255 0 255
1.95184 0.776167 4.03112 0 0 0 255 255 0 255
2.07147 0.167811 4.03192 0 0 0 255 255 0 255
2.04896 0.283629 4.02921 0 0 0 255 255 0 255
2.077 0.14237 4.02711 0 0 0 255 255 0 255
2.07095 0.173787 4.02592 0 0 0 255 255 0 255
1.93959 0.844016 4.02075 0 0 0 255 255 0 255
2.03392 0.36319 4.02374 0 0 0 255 255 0 255
2.13865 -0.164564 4.01811 0 0 0 255 255 0 255
2.00635 0.510577 4.01292 0 0 0 255 255 0 255
2.0733 0.170097 4.01405 0 0 0 255 255 0 255
2.10256 0.0209426 4.01498 0 0 0 255 255 0 255
2.03375 0.373268 4.01081 0 0 0 255 255 0 255
1.98771 0.608799 4.00835 0 0 0 255 255 0 255
1.98963 0.598986 4.00841 0 0 0 255 255 0 255
2.01237 0.488258 4.00319 0 0 0 255 255 0 255
1.99962 0.556052 3.99981 0 0 0 255 255 0 255
2.08218 0.137106 4.00046 0 0 0 255 255 0 255
2.03579 0.378659 3.99405 0 0 0 255 255 0 255
2.1542 -0.222797 3.99584 0 0 0 255 255 0 255
2.13862 -0.142298 3.99436 0 0 0 255 255 0 255
2.01663 0.482882 3.98754 0 0 0 255 255 0 255
2.11365 -0.0116817 3.99062 0 0 0 255 255 0 255
2.03516 0.390716 3.98616 0 0 0 255 255 0 255
2.02849 0.427099 3.98399 0 0 0 255 255 0 255
2.15034 -0.19405 3.98786 0 0 0 255 255 0 255
2.04431 0.347654 3.98351 0 0 0 255 255 0 255
2.13694 -0.12332 3.98547 0 0 0 255 255 0 255
2.12312 -0.0516471 3.98406 0 0 0 255 255 0 255
2.14819 -0.178192 3.98387 0 0 0 255 255 0 255
2.15185 -0.196836 3.98399 0 0 0 255 255 0 255
2.13808 -0.124139 3.9816 0 0 0 255 255 0 255
2.08108 0.170372 3.97686 0 0 0 255 255 0 255
2.1421 -0.140694 3.9788 0 0 0 255 255 0 255
2.01549 0.506012 3.9738 0 0 0 255 255 0 255
2.15217 -0.190695 3.97814 0 0 0 255 255 0 255
2.07927 0.182234 3.97485 0 0 0 255 255 0 255
2.03641 0.402085 3.97252 0 0 0 255 255 0 255
2.12561 -0.0512202 3.97438 0 0 0 255 255 0 255
2.13562 -0.102247 3.9747 0 0 0 255 255 0 255
2.1489 -0.169955 3.97512 0 0 0 255 255 0 255
2.15679 -0.210187 3.97537 0 0 0 255 255 0 255
2.07235 0.221621 3.97172 0 0 0 255 255 0 255
2.13203 -0.0825754 3.97361 0 0 0 255 255 0 255
2.14508 -0.146266 3.97208 0 0 0 255 255 0 255
2.04041 0.391618 3.96585 0 0 0 255 255 0 255
2.13184 -0.0744892 3.96875 0 0 0 255 255 0 255
2.13223 -0.0764518 3.96877 0 0 0 255 255 0 255
2.04174 0.387791 3.96396 0 0 0 255 255 0 255
2.04058 0.396722 3.96199 0 0 0 255 255 0 255
2.13298 -0.074291 3.96492 0 0 0 255 255 0 255
2.11142 0.0386583 3.96231 0 0 0 255 255 0 255
1.99006 0.658878 3.95749 0 0 0 255 255 0 255
2.03549 0.427296 3.95893 0 0 0 255 255 0 255
2.14117 -0.111425 3.96229 0 0 0 255 255 0 255
2.14964 -0.154602 3.96256 0 0 0 255 255 0 255
2.15907 -0.202684 3.96286 0 0 0 255 255 0 255
2.0437 0.390166 3.95631 0 0 0 255 255 0 255
2.11801 0.0113934 3.95867 0 0 0 255 255 0 255
2.13014 -0.0504272 3.95905 0 0 0 255 255 0 255
2.13264 -0.0631838 3.95913 0 0 0 255 255 0 255
2.13248 -0.05915 3.95721 0 0 0 255 255 0 255
2.07543 0.233326 3.95444 0 0 0 255 255 0 255
2.13157 -0.0511892 3.95526 0 0 0 255 255 0 255
2.01677 0.535671 3.95066 0 0 0 255 255 0 255
2.03255 0.455206 3.95116 0 0 0 255 255 0 255
2.12996 -0.0413203 3.95426 0 0 0 255 255 0 255
1.94079 0.926333 3.94634 0 0 0 255 255 0 255
2.02139 0.517198 3.94794 0 0 0 255 255 0 255
2.14904 -0.128306 3.94914 0 0 0 255 255 0 255
2.05101 0.373186 3.94507 0 0 0 255 255 0 255
1.94692 0.909146 3.93892 0 0 0 255 255 0 255
2.01815 0.546073 3.94118 0 0 0 255 255 0 255
1.94496 0.920983 3.93791 0 0 0 255 255 0 255
2.12009 0.0300457 3.94252 0 0 0 255 255 0 255
2.13735 -0.0542181 3.94118 0 0 0 255 255 0 255
2.02633 0.523164 3.93201 0 0 0 255 255 0 255
2.03476 0.494205 3.92573 0 0 0 255 255 0 255
2.10291 0.148866 3.92696 0 0 0 255 255 0 255
2.02399 0.553224 3.92353 0 0 0 255 255 0 255
2.17608 -0.217917 3.9265 0 0 0 255 255 0 255
2.02605 0.559698 3.91619 0 0 0 255 255 0 255
2.00802 0.656015 3.91378 0 0 0 255 255 0 255
2.10413 0.179581 3.91134 0 0 0 255 255 0 255
2.11616 0.144176 3.90176 0 0 0 255 255 0 255
2.14786 0.0178435 3.89032 0 0 0 255 255 0 255
2.19475 -0.218553 3.89093 0 0 0 255 255 0 255
2.19437 -0.195232 3.88393 0 0 0 255 255 0 255
2.15633 0.0041599 3.88099 0 0 0 255 255 0 255
2.15641 0.00926074 3.87926 0 0 0 255 255 0 255
2.15718 0.00533569 3.87929 0 0 0 255 255 0 255
2.16007 -0.00938347 3.87938 0 0 0 255 255 0 255
2.20169 -0.213194 3.87812 0 0 0 255 255 0 255
2.18622 -0.114361 3.87166 0 0 0 255 255 0 255
1.98616 0.91128 3.86361 0 0 0 255 255 0 255
2.14455 0.109783 3.86696 0 0 0 255 255 0 255
2.16476 0.00674906 3.8676 0 0 0 255 255 0 255
2.19032 -0.117664 3.86673 0 0 0 255 255 0 255
2.14334 0.124817 3.8644 0 0 0 255 255 0 255
2.14429 0.12296 3.8636 0 0 0 255 255 0 255
2.14524 0.121104 3.86279 0 0 0 255 255 0 255
2.18488 -0.0749377 3.86239 0 0 0 255 255 0 255
2.20875 -0.196616 3.86314 0 0 0 255 255 0 255
2.21048 -0.196292 3.86071 0 0 0 255 255 0 255
2.21127 -0.191057 3.85827 0 0 0 255 255 0 255
2.19034 -0.071879 3.85433 0 0 0 255 255 0 255
2.22155 -0.22779 3.85451 0 0 0 255 255 0 255
2.21821 -0.194841 3.85036 0 0 0 255 255 0 255
2.22965 -0.230336 3.84514 0 0 0 255 255 0 255
2.23304 -0.22766 3.84052 0 0 0 255 255 0 255
2.19133 -0.0116588 3.83841 0 0 0 255 255 0 255
2.22213 -0.168663 3.83939 0 0 0 255 255 0 255
2.23708 -0.238092 3.83831 0 0 0 255 255 0 255
2.22008 -0.144627 3.83622 0 0 0 255 255 0 255
2.23466 -0.21209 3.83514 0 0 0 255 255 0 255
2.23814 -0.212451 3.83143 0 0 0 255 255 0 255
2.23052 -0.17013 3.83042 0 0 0 255 255 0 255
2.23918 -0.214288 3.8307 0 0 0 255 255 0 255
2.23792 -0.204349 3.8299 0 0 0 255 255 0 255
2.24494 -0.229483 3.82786 0 0 0 255 255 0 255
2.24686 -0.239295 3.82792 0 0 0 255 255 0 255
2.22848 -0.134896 3.8251 0 0 0 255 255 0 255
2.12599 0.398325 3.81961 0 0 0 255 255 0 255
2.24969 -0.228582 3.8228 0 0 0 255 255 0 255
2.2434 -0.181938 3.81967 0 0 0 255 255 0 255
2.22843 -0.0982656 3.81773 0 0 0 255 255 0 255
2.12979 0.408206 3.81388 0 0 0 255 255 0 255
2.1303 0.409321 3.81317 0 0 0 255 255 0 255
2.25555 -0.225433 3.81643 0 0 0 255 255 0 255
2.25678 -0.212984 3.81289 0 0 0 255 255 0 255
2.10556 0.565441 3.80667 0 0 0 255 255 0 255
2.24988 -0.166456 3.81055 0 0 0 255 255 0 255
2.25498 -0.184826 3.8093 0 0 0 255 255 0 255
2.11933 0.518184 3.8029 0 0 0 255 255 0 255
2.13365 0.456781 3.80128 0 0 0 255 255 0 255
2.13823 0.437295 3.80074 0 0 0 255 255 0 255
2.27141 -0.237684 3.80429 0 0 0 255 255 0 255
2.11677 0.558414 3.79801 0 0 0 255 255 0 255
2.15093 0.400015 3.79639 0 0 0 255 255 0 255
2.1482 0.42189 3.79497 0 0 0 255 255 0 255
2.27352 -0.216922 3.79895 0 0 0 255 255 0 255
2.1478 0.427921 3.79429 0 0 0 255 255 0 255
2.23423 -0.0126726 3.79703 0 0 0 255 255 0 255
2.23613 -0.0143468 3.79576 0 0 0 255 255 0 255
2.25942 -0.133081 3.7965 0 0 0 255 255 0 255
2.27848 -0.230228 3.79711 0 0 0 255 255 0 255
2.1487 0.443364 3.79101 0 0 0 255 255 0 255
2.23802 -0.0119489 3.79385 0 0 0 255 255 0 255
2.14715 0.459356 3.78966 0 0 0 255 255 0 255
2.12828 0.563665 3.78776 0 0 0 255 255 0 255
2.14195 0.493995 3.7882 0 0 0 255 255 0 255
2.16177 0.392923 3.78883 0 0 0 255 255 0 255
2.24031 -0.00743836 3.79132 0 0 0 255 255 0 255
2.26418 -0.129117 3.79208 0 0 0 255 255 0 255
2.27073 -0.16248 3.79229 0 0 0 255 255 0 255
2.14098 0.507046 3.78688 0 0 0 255 255 0 255
2.22819 0.0666001 3.78901 0 0 0 255 255 0 255
2.13714 0.534818 3.78548 0 0 0 255 255 0 255
2.16084 0.422269 3.78496 0 0 0 255 255 0 255
2.14218 0.521527 3.78374 0 0 0 255 255 0 255
2.16624 0.398867 3.7845 0 0 0 255 255 0 255
2.26841 -0.0886022 3.78277 0 0 0 255 255 0 255
2.17125 0.415098 3.77846 0 0 0 255 255 0 255
2.14914 0.532023 3.77715 0 0 0 255 255 0 255
2.1551 0.501604 3.77734 0 0 0 255 255 0 255
2.17089 0.421139 3.77784 0 0 0 255 255 0 255
2.25553 0.00667387 3.77812 0 0 0 255 255 0 255
2.17321 0.434821 3.77432 0 0 0 255 255 0 255
2.0549 1.04647 3.76938 0 0 0 255 255 0 255
2.15096 0.55681 3.77243 0 0 0 255 255 0 255
2.24764 0.0682897 3.77492 0 0 0 255 255 0 255
2.29235 -0.155285 3.77575 0 0 0 255 255 0 255
2.18676 0.3916 3.77123 0 0 0 255 255 0 255
2.26573 -0.00664166 3.77316 0 0 0 255 255 0 255
2.16573 0.511788 3.76884 0 0 0 255 255 0 255
2.30972 -0.222207 3.77341 0 0 0 255 255 0 255
2.17508 0.472854 3.768 0 0 0 255 255 0 255
2.17591 0.473013 3.76746 0 0 0 255 255 0 255
2.16268 0.544805 3.76647 0 0 0 255 255 0 255
2.19162 0.401698 3.76683 0 0 0 255 255 0 255
2.17987 0.474793 3.76479 0 0 0 255 255 0 255
2.28639 -0.0637683 3.76762 0 0 0 255 255 0 255
2.06219 1.08351 3.75995 0 0 0 255 255 0 255
2.17701 0.515993 3.76142 0 0 0 255 255 0 255
2.1824 0.488517 3.76159 0 0 0 255 255 0 255
2.04414 1.20223 3.75613 0 0 0 255 255 0 255
2.31122 -0.154713 3.76408 0 0 0 255 255 0 255
2.22775 0.27525 3.76089 0 0 0 255 255 0 255
2.05362 1.1674 3.75483 0 0 0 255 255 0 255
2.20624 0.398401 3.75863 0 0 0 255 255 0 255
2.26553 0.0961679 3.76052 0 0 0 255 255 0 255
2.32733 -0.218822 3.76248 0 0 0 255 255 0 255
2.17533 0.560477 3.75713 0 0 0 255 255 0 255
2.17591 0.557533 3.75715 0 0 0 255 255 0 255
2.23424 0.260206 3.759 0 0 0 255 255 0 255
2.31967 -0.157158 3.75965 0 0 0 255 255 0 255
2.18309 0.54364 3.75481 0 0 0 255 255 0 255
2.23747 0.271011 3.75603 0 0 0 255 255 0 255
2.30349 -0.0655674 3.75813 0 0 0 255 255 0 255
2.21359 0.401854 3.75426 0 0 0 255 255 0 255
2.23294 0.307818 3.75438 0 0 0 255 255 0 255
2.23602 0.292118 3.75448 0 0 0 255 255 0 255
2.24304 0.260884 3.7542 0 0 0 255 255 0 255
2.21292 0.419037 3.75275 0 0 0 255 255 0 255
2.23757 0.302601 3.75255 0 0 0 255 255 0 255
2.22054 0.394028 3.75153 0 0 0 255 255 0 255
2.33364 -0.177889 3.75463 0 0 0 255 255 0 255
2.19611 0.527819 3.74978 0 0 0 255 255 0 255
2.21711 0.430029 3.7495 0 0 0 255 255 0 255
2.09536 1.05527 3.74515 0 0 0 255 255 0 255
2.24879 0.273195 3.75003 0 0 0 255 255 0 255
2.19357 0.563993 3.74733 0 0 0 255 255 0 255
2.25139 0.287955 3.74732 0 0 0 255 255 0 255
2.25066 0.301055 3.74638 0 0 0 255 255 0 255
2.35786 -0.231263 3.74844 0 0 0 255 255 0 255
2.11023 1.05 3.73881 0 0 0 255 255 0 255
2.25403 0.316982 3.74338 0 0 0 255 255 0 255
2.29599 0.103063 3.74471 0 0 0 255 255 0 255
2.29535 0.125347 3.74297 0 0 0 255 255 0 255
2.21188 0.560402 3.73947 0 0 0 255 255 0 255
2.32199 -0.000888586 3.74297 0 0 0 255 255 0 255
2.36326 -0.201701 3.74345 0 0 0 255 255 0 255
2.3043 0.103652 3.74116 0 0 0 255 255 0 255
2.26805 0.293214 3.7396 0 0 0 255 255 0 255
2.11804 1.06271 3.73443 0 0 0 255 255 0 255
2.22507 0.517122 3.73783 0 0 0 255 255 0 255
2.23248 0.489017 3.73725 0 0 0 255 255 0 255
2.24229 0.438972 3.73756 0 0 0 255 255 0 255
2.22121 0.556097 3.7361 0 0 0 255 255 0 255
2.27915 0.260732 3.73794 0 0 0 255 255 0 255
2.22554 0.543694 3.73544 0 0 0 255 255 0 255
2.12635 1.05414 3.7319 0 0 0 255 255 0 255
2.23338 0.508546 3.7353 0 0 0 255 255 0 255
2.23512 0.499714 3.73536 0 0 0 255 255 0 255
2.27319 0.310505 3.73618 0 0 0 255 255 0 255
2.23079 0.531471 3.73445 0 0 0 255 255 0 255
2.23417 0.523976 3.73379 0 0 0 255 255 0 255
2.13172 1.0511 3.73016 0 0 0 255 255 0 255
2.23278 0.53593 3.73337 0 0 0 255 255 0 255
2.2839 0.28508 3.73425 0 0 0 255 255 0 255
2.23316 0.558413 3.73154 0 0 0 255 255 0 255
2.12147 1.13264 3.72763 0 0 0 255 255 0 255
2.24772 0.494008 3.73128 0 0 0 255 255 0 255
2.29635 0.255918 3.73212 0 0 0 255 255 0 255
2.37201 -0.129724 3.73452 0 0 0 255 255 0 255
2.24146 0.540669 3.73002 0 0 0 255 255 0 255
2.29925 0.270741 3.73014 0 0 0 255 255 0 255
2.29229 0.311155 3.72959 0 0 0 255 255 0 255
2.2971 0.286623 3.72974 0 0 0 255 255 0 255
2.36443 -0.046648 3.73122 0 0 0 255 255 0 255
2.24808 0.56131 3.72655 0 0 0 255 255 0 255
2.25454 0.548303 3.7255 0 0 0 255 255 0 255
2.25318 0.560261 3.72514 0 0 0 255 255 0 255
2.28894 0.387924 3.72567 0 0 0 255 255 0 255
2.31607 0.254654 3.72623 0 0 0 255 255 0 255
2.16338 1.04299 3.72079 0 0 0 255 255 0 255
2.317 0.259928 3.72567 0 0 0 255 255 0 255
2.31987 0.250299 3.72547 0 0 0 255 255 0 255
2.38627 -0.0831504 3.72729 0 0 0 255 255 0 255
2.16488 1.05041 3.71997 0 0 0 255 255 0 255
2.3106 0.307583 3.7246 0 0 0 255 255 0 255
2.31368 0.291882 3.7247 0 0 0 255 255 0 255
2.16256 1.06728 3.71962 0 0 0 255 255 0 255
2.31194 0.305805 3.72436 0 0 0 255 255 0 255
2.22336 0.767375 3.72099 0 0 0 255 255 0 255
2.23511 0.707517 3.72136 0 0 0 255 255 0 255
2.31865 0.281643 3.72402 0 0 0 255 255 0 255
2.27841 0.491821 3.72246 0 0 0 255 255 0 255
2.16232 1.08862 3.7185 0 0 0 255 255 0 255
2.24086 0.688262 3.721 0 0 0 255 255 0 255
2.29611 0.406635 3.72275 0 0 0 255 255 0 255
2.29956 0.394064 3.72259 0 0 0 255 255 0 255
2.30149 0.384251 3.72265 0 0 0 255 255 0 255
2.30013 0.396212 3.72234 0 0 0 255 255 0 255
2.23486 0.73905 3.71974 0 0 0 255 255 0 255
2.27971 0.510412 3.72117 0 0 0 255 255 0 255
2.14957 1.17885 3.71677 0 0 0 255 255 0 255
2.29164 0.454665 3.72129 0 0 0 255 255 0 255
2.32898 0.264297 3.72247 0 0 0 255 255 0 255
2.24158 0.71489 3.71944 0 0 0 255 255 0 255
2.28392 0.509194 3.72028 0 0 0 255 255 0 255
2.29874 0.433636 3.72075 0 0 0 255 255 0 255
2.32935 0.277613 3.72172 0 0 0 255 255 0 255
2.29181 0.474055 3.72028 0 0 0 255 255 0 255
2.23675 0.759794 3.71829 0 0 0 255 255 0 255
2.32549 0.307425 3.72111 0 0 0 255 255 0 255
2.33223 0.278173 3.72108 0 0 0 255 255 0 255
2.31201 0.391394 3.71996 0 0 0 255 255 0 255
2.25734 0.680264 3.71776 0 0 0 255 255 0 255
2.3994 -0.0439186 3.72227 0 0 0 255 255 0 255
2.28948 0.521485 3.71855 0 0 0 255 255 0 255
2.34377 0.254953 3.71982 0 0 0 255 255 0 255
2.41095 -0.082419 3.72174 0 0 0 255 255 0 255
2.2508 0.739098 3.71643 0 0 0 255 255 0 255
2.29353 0.526349 3.71757 0 0 0 255 255 0 255
2.30547 0.46551 3.71795 0 0 0 255 255 0 255
2.2918 0.540275 3.71731 0 0 0 255 255 0 255
2.17092 1.16161 3.71326 0 0 0 255 255 0 255
2.41039 -0.0540021 3.72066 0 0 0 255 255 0 255
2.41597 -0.0824591 3.72083 0 0 0 255 255 0 255
2.26121 0.716678 3.71551 0 0 0 255 255 0 255
2.29259 0.55673 3.71651 0 0 0 255 255 0 255
2.30241 0.506685 3.71682 0 0 0 255 255 0 255
2.2618 0.723925 3.71514 0 0 0 255 255 0 255
2.35016 0.273518 3.71794 0 0 0 255 255 0 255
2.25507 0.763365 3.71473 0 0 0 255 255 0 255
2.32572 0.408331 3.71679 0 0 0 255 255 0 255
2.27934 0.649915 3.71513 0 0 0 255 255 0 255
2.29822 0.563941 3.71536 0 0 0 255 255 0 255
2.34923 0.303903 3.71698 0 0 0 255 255 0 255
2.36176 0.250311 3.71702 0 0 0 255 255 0 255
2.27111 0.722685 3.7138 0 0 0 255 255 0 255
2.31461 0.500917 3.71518 0 0 0 255 255 0 255
2.35774 0.286207 3.71638 0 0 0 255 255 0 255
2.3645 0.262055 3.71627 0 0 0 255 255 0 255
2.21149 1.05236 3.71109 0 0 0 255 255 0 255
2.21594 1.03999 3.71093 0 0 0 255 255 0 255
2.33567 0.429633 3.71473 0 0 0 255 255 0 255
2.33894 0.412951 3.71484 0 0 0 255 255 0 255
2.15223 1.36989 3.70876 0 0 0 255 255 0 255
2.21114 1.06962 3.71063 0 0 0 255 255 0 255
2.2123 1.06883 3.71052 0 0 0 255 255 0 255
2.2104 1.08883 3.71018 0 0 0 255 255 0 255
2.2797 0.735573 3.71238 0 0 0 255 255 0 255
2.34345 0.420964 3.71413 0 0 0 255 255 0 255
2.3473 0.401339 3.71425 0 0 0 255 255 0 255
2.36636 0.304192 3.71486 0 0 0 255 255 0 255
2.38143 0.248042 3.71483 0 0 0 255 255 0 255
2.21129 1.12569 3.70919 0 0 0 255 255 0 255
2.22419 1.05994 3.7096 0 0 0 255 255 0 255
2.22054 1.08368 3.70937 0 0 0 255 255 0 255
2.34702 0.438984 3.71338 0 0 0 255 255 0 255
2.38303 0.260583 3.71442 0 0 0 255 255 0 255
2.3251 0.561045 3.71247 0 0 0 255 255 0 255
2.37767 0.298254 3.71403 0 0 0 255 255 0 255
2.28625 0.769459 3.71102 0 0 0 255 255 0 255
2.34344 0.483118 3.71274 0 0 0 255 255 0 255
2.23356 1.05362 3.70906 0 0 0 255 255 0 255
2.34906 0.464857 3.71273 0 0 0 255 255 0 255
2.38505 0.281358 3.71387 0 0 0 255 255 0 255
2.38525 0.280377 3.71387 0 0 0 255 255 0 255
2.21221 1.16764 3.70829 0 0 0 255 255 0 255
2.23146 1.06952 3.7089 0 0 0 255 255 0 255
2.29421 0.749619 3.71089 0 0 0 255 255 0 255
2.38777 0.272718 3.71386 0 0 0 255 255 0 255
2.30154 0.717429 3.71104 0 0 0 255 255 0 255
2.38066 0.314124 3.71355 0 0 0 255 255 0 255
2.33525 0.550803 3.71202 0 0 0 255 255 0 255
2.16511 1.42845 3.70645 0 0 0 255 255 0 255
2.3938 0.262692 3.71371 0 0 0 255 255 0 255
2.36265 0.431855 3.71257 0 0 0 255 255 0 255
2.38924 0.301538 3.71334 0 0 0 255 255 0 255
2.39193 0.2878 3.71343 0 0 0 255 255 0 255
2.3685 0.422811 3.71249 0 0 0 255 255 0 255
2.34584 0.553898 3.71159 0 0 0 255 255 0 255
2.39185 0.319373 3.71305 0 0 0 255 255 0 255
2.30524 0.766046 3.71025 0 0 0 255 255 0 255
2.40592 0.252838 3.71345 0 0 0 255 255 0 255
2.37171 0.442802 3.71222 0 0 0 255 255 0 255
2.18964 1.38129 3.70636 0 0 0 255 255 0 255
2.25432 1.05158 3.70841 0 0 0 255 255 0 255
2.41063 0.254781 3.71338 0 0 0 255 255 0 255
2.40334 0.297169 3.71311 0 0 0 255 255 0 255
2.38545 0.393526 3.71251 0 0 0 255 255 0 255
2.25228 1.08277 3.70822 0 0 0 255 255 0 255
2.36393 0.513628 3.71177 0 0 0 255 255 0 255
2.35802 0.559344 3.71152 0 0 0 255 255 0 255
2.38478 0.422946 3.71237 0 0 0 255 255 0 255
2.3642 0.533042 3.7117 0 0 0 255 255 0 255
2.3827 0.443938 3.71227 0 0 0 255 255 0 255
2.40041 0.353661 3.71283 0 0 0 255 255 0 255
2.22933 1.24131 3.70738 0 0 0 255 255 0 255
2.3333 0.716523 3.71068 0 0 0 255 255 0 255
2.36391 0.5605 3.71165 0 0 0 255 255 0 255
2.39684 0.3978 3.7127 0 0 0 255 255 0 255
2.3711 0.544588 3.7119 0 0 0 255 255 0 255
2.36862 0.562444 3.71184 0 0 0 255 255 0 255
2.40412 0.407383 3.71307 0 0 0 255 255 0 255
2.40759 0.38972 3.71318 0 0 0 255 255 0 255
2.33717 0.759066 3.711 0 0 0 255 255 0 255
2.37857 0.55319 3.71235 0 0 0 255 255 0 255
2.39763 0.456043 3.71296 0 0 0 255 255 0 255
2.25712 1.17747 3.70853 0 0 0 255 255 0 255
2.21536 1.39551 3.70725 0 0 0 255 255 0 255
2.28779 1.04185 3.70969 0 0 0 255 255 0 255
2.32899 0.831854 3.711 0 0 0 255 255 0 255
2.28473 1.06265 3.70964 0 0 0 255 255 0 255
2.34671 0.746675 3.71161 0 0 0 255 255 0 255
2.38714 0.540606 3.7129 0 0 0 255 255 0 255
2.40658 0.441497 3.71351 0 0 0 255 255 0 255
2.41524 0.39734 3.71379 0 0 0 255 255 0 255
2.38869 0.537855 3.713 0 0 0 255 255 0 255
2.42008 0.383005 3.71406 0 0 0 255 255 0 255
2.35505 0.724874 3.71211 0 0 0 255 255 0 255
2.28672 1.07833 3.71001 0 0 0 255 255 0 255
2.28788 1.07244 3.71005 0 0 0 255 255 0 255
2.28828 1.07557 3.71013 0 0 0 255 255 0 255
2.35528 0.739189 3.71233 0 0 0 255 255 0 255
2.35202 0.760969 3.7123 0 0 0 255 255 0 255
2.41555 0.437147 3.71432 0 0 0 255 255 0 255
2.42094 0.409671 3.71449 0 0 0 255 255 0 255
2.4198 0.420657 3.71453 0 0 0 255 255 0 255
2.39883 0.532715 3.71395 0 0 0 255 255 0 255
2.40884 0.481689 3.71426 0 0 0 255 255 0 255
2.30087 1.04238 3.711 0 0 0 255 255 0 255
2.42466 0.416519 3.71502 0 0 0 255 255 0 255
2.36615 0.719925 3.71326 0 0 0 255 255 0 255
2.30148 1.05473 3.7113 0 0 0 255 255 0 255
2.40062 0.549375 3.71445 0 0 0 255 255 0 255
2.27281 1.20604 3.71048 0 0 0 255 255 0 255
2.36232 0.749747 3.71333 0 0 0 255 255 0 255
2.36617 0.730121 3.71345 0 0 0 255 255 0 255
2.43393 0.384712 3.7156 0 0 0 255 255 0 255
2.42162 0.452612 3.71531 0 0 0 255 255 0 255
2.41277 0.502848 3.71513 0 0 0 255 255 0 255
2.42086 0.461635 3.71539 0 0 0 255 255 0 255
2.30556 1.05452 3.71183 0 0 0 255 255 0 255
2.36273 0.763078 3.71365 0 0 0 255 255 0 255
2.41509 0.496171 3.71531 0 0 0 255 255 0 255
2.36988 0.742064 3.71421 0 0 0 255 255 0 255
2.43514 0.409411 3.71628 0 0 0 255 255 0 255
2.43937 0.387823 3.71642 0 0 0 255 255 0 255
2.35487 0.823702 3.71385 0 0 0 255 255 0 255
2.24208 1.40383 3.71039 0 0 0 255 255 0 255
2.31272 1.0437 3.71263 0 0 0 255 255 0 255
2.42534 0.469652 3.71621 0 0 0 255 255 0 255
2.41091 0.548345 3.71587 0 0 0 255 255 0 255
2.31526 1.05643 3.71335 0 0 0 255 255 0 255
2.38128 0.719851 3.71545 0 0 0 255 255 0 255
2.42286 0.507895 3.71677 0 0 0 255 255 0 255
2.44288 0.405842 3.71741 0 0 0 255 255 0 255
2.31218 1.07723 3.71339 0 0 0 255 255 0 255
2.41613 0.547337 3.7167 0 0 0 255 255 0 255
2.44847 0.382483 3.71772 0 0 0 255 255 0 255
2.31122 1.08723 3.7135 0 0 0 255 255 0 255
2.39169 0.677057 3.71606 0 0 0 255 255 0 255
2.42172 0.529074 3.71715 0 0 0 255 255 0 255
2.4223 0.52613 3.71717 0 0 0 255 255 0 255
2.28313 1.24579 3.71305 0 0 0 255 255 0 255
2.45272 0.381282 3.71843 0 0 0 255 255 0 255
2.42154 0.550443 3.71775 0 0 0 255 255 0 255
2.38131 0.765723 3.71678 0 0 0 255 255 0 255
2.4764 0.280972 3.7198 0 0 0 255 255 0 255
2.42501 0.553166 3.7185 0 0 0 255 255 0 255
2.3996 0.687791 3.71786 0 0 0 255 255 0 255
2.45638 0.398314 3.71966 0 0 0 255 255 0 255
2.47891 0.288601 3.72055 0 0 0 255 255 0 255
2.45772 0.411829 3.7204 0 0 0 255 255 0 255
2.29197 1.2669 3.7155 0 0 0 255 255 0 255
2.43596 0.532905 3.72008 0 0 0 255 255 0 255
2.45617 0.429871 3.72072 0 0 0 255 255 0 255
2.38475 0.79902 3.71864 0 0 0 255 255 0 255
2.43288 0.553701 3.72017 0 0 0 255 255 0 255
2.32276 1.12009 3.71686 0 0 0 255 255 0 255
2.332 1.07299 3.71715 0 0 0 255 255 0 255
2.44977 0.49792 3.72188 0 0 0 255 255 0 255
2.49386 0.273207 3.72328 0 0 0 255 255 0 255
2.2715 1.41677 3.71664 0 0 0 255 255 0 255
2.34368 1.05389 3.71914 0 0 0 255 255 0 255
2.44588 0.537924 3.7226 0 0 0 255 255 0 255
2.32536 1.1573 3.71899 0 0 0 255 255 0 255
2.44414 0.55185 3.72276 0 0 0 255 255 0 255
2.40195 0.776938 3.72187 0 0 0 255 255 0 255
2.34857 1.06913 3.72109 0 0 0 255 255 0 255
2.34876 1.06815 3.7211 0 0 0 255 255 0 255
2.34874 1.07324 3.72134 0 0 0 255 255 0 255
2.49832 0.310787 3.72609 0 0 0 255 255 0 255
2.41052 0.763343 3.72354 0 0 0 255 255 0 255
2.45229 0.550406 3.72486 0 0 0 255 255 0 255
2.45612 0.535873 3.72523 0 0 0 255 255 0 255
2.45957 0.523304 3.72558 0 0 0 255 255 0 255
2.48954 0.385503 3.72729 0 0 0 255 255 0 255
2.38147 0.951277 3.72463 0 0 0 255 255 0 255
2.48427 0.427275 3.72789 0 0 0 255 255 0 255
2.49197 0.388023 3.72814 0 0 0 255 255 0 255
2.33426 1.20187 3.72366 0 0 0 255 255 0 255
2.49423 0.386432 3.72874 0 0 0 255 255 0 255
2.51422 0.289471 3.72965 0 0 0 255 255 0 255
2.35885 1.08645 3.72498 0 0 0 255 255 0 255
2.34457 1.16416 3.72481 0 0 0 255 255 0 255
2.50131 0.389874 3.7312 0 0 0 255 255 0 255
2.49858 0.408703 3.73141 0 0 0 255 255 0 255
2.38005 1.03255 3.72883 0 0 0 255 255 0 255
2.38224 1.03604 3.72983 0 0 0 255 255 0 255
2.50024 0.43452 3.73357 0 0 0 255 255 0 255
2.5119 0.38484 3.73457 0 0 0 255 255 0 255
2.52803 0.307502 3.7354 0 0 0 255 255 0 255
2.38857 1.02812 3.73162 0 0 0 255 255 0 255
2.48507 0.550788 3.73567 0 0 0 255 255 0 255
2.35931 1.19665 3.73201 0 0 0 255 255 0 255
2.36759 1.15446 3.73228 0 0 0 255 255 0 255
2.38592 1.07552 3.73388 0 0 0 255 255 0 255
2.39093 1.05 3.73404 0 0 0 255 255 0 255
2.48968 0.546607 3.73717 0 0 0 255 255 0 255
2.51759 0.404321 3.73806 0 0 0 255 255 0 255
2.51003 0.447678 3.73816 0 0 0 255 255 0 255
2.51446 0.425109 3.7383 0 0 0 255 255 0 255
2.39621 1.0327 3.7349 0 0 0 255 255 0 255
2.51479 0.428233 3.73866 0 0 0 255 255 0 255
2.51825 0.41057 3.73877 0 0 0 255 255 0 255
2.39694 1.04814 3.73634 0 0 0 255 255 0 255
2.50609 0.491756 3.7398 0 0 0 255 255 0 255
2.5095 0.479179 3.74027 0 0 0 255 255 0 255
2.512 0.466422 3.74035 0 0 0 255 255 0 255
2.52137 0.423425 3.74101 0 0 0 255 255 0 255
2.32689 1.4196 3.7352 0 0 0 255 255 0 255
2.36365 1.23218 3.73637 0 0 0 255 255 0 255
2.49834 0.550368 3.74102 0 0 0 255 255 0 255
2.39452 1.08436 3.73809 0 0 0 255 255 0 255
2.52561 0.416112 3.74226 0 0 0 255 255 0 255
2.52959 0.40059 3.74276 0 0 0 255 255 0 255
2.40549 1.0427 3.73957 0 0 0 255 255 0 255
2.39784 1.09114 3.74009 0 0 0 255 255 0 255
2.51662 0.485693 3.74387 0 0 0 255 255 0 255
2.51167 0.543845 3.74648 0 0 0 255 255 0 255
2.51151 0.55401 3.74728 0 0 0 255 255 0 255
2.38757 1.19514 3.74417 0 0 0 255 255 0 255
2.41144 1.07346 3.74493 0 0 0 255 255 0 255
2.52532 0.497622 3.74896 0 0 0 255 255 0 255
2.41936 1.04241 3.74601 0 0 0 255 255 0 255
2.38415 1.23116 3.74574 0 0 0 255 255 0 255
2.39407 1.18521 3.74648 0 0 0 255 255 0 255
2.52979 0.502593 3.75165 0 0 0 255 255 0 255
2.52604 0.526318 3.75197 0 0 0 255 255 0 255
2.38908 1.22909 3.74805 0 0 0 255 255 0 255
2.55309 0.402215 3.75414 0 0 0 255 255 0 255
2.55723 0.385705 3.75472 0 0 0 255 255 0 255
2.54828 0.435923 3.75488 0 0 0 255 255 0 255
2.42314 1.08293 3.75181 0 0 0 255 255 0 255
2.56346 0.376752 3.75717 0 0 0 255 255 0 255
2.56066 0.395567 3.75754 0 0 0 255 255 0 255
2.5891 0.268683 3.76031 0 0 0 255 255 0 255
2.55491 0.447446 3.75969 0 0 0 255 255 0 255
2.55615 0.445653 3.76021 0 0 0 255 255 0 255
2.43348 1.0799 3.75727 0 0 0 255 255 0 255
2.55683 0.460066 3.76215 0 0 0 255 255 0 255
2.43718 1.08777 3.76031 0 0 0 255 255 0 255
2.45111 1.02121 3.76125 0 0 0 255 255 0 255
2.44944 1.03414 3.7617 0 0 0 255 255 0 255
2.38981 1.35568 3.76182 0 0 0 255 255 0 255
2.45249 1.04495 3.76484 0 0 0 255 255 0 255
2.58591 0.382262 3.77115 0 0 0 255 255 0 255
2.5576 0.543845 3.77237 0 0 0 255 255 0 255
2.46451 1.02696 3.77049 0 0 0 255 255 0 255
2.45631 1.07733 3.77131 0 0 0 255 255 0 255
2.45834 1.07977 3.77302 0 0 0 255 255 0 255
2.46362 1.06554 3.77485 0 0 0 255 255 0 255
2.39809 1.42057 3.77558 0 0 0 255 255 0 255
2.57502 0.522862 3.78177 0 0 0 255 255 0 255
2.44472 1.19535 3.77878 0 0 0 255 255 0 255
2.57254 0.543784 3.78284 0 0 0 255 255 0 255
2.40471 1.4117 3.77925 0 0 0 255 255 0 255
2.40858 1.41248 3.78232 0 0 0 255 255 0 255
2.4101 1.42503 3.78537 0 0 0 255 255 0 255
2.58278 0.544823 3.79085 0 0 0 255 255 0 255
2.41202 1.41929 3.78604 0 0 0 255 255 0 255
2.48567 1.06385 3.79145 0 0 0 255 255 0 255
2.49256 1.03668 3.79291 0 0 0 255 255 0 255
2.50147 1.03031 3.79954 0 0 0 255 255 0 255
2.49677 1.06201 3.80069 0 0 0 255 255 0 255
2.51392 1.02365 3.80987 0 0 0 255 255 0 255
2.44348 1.40116 3.81104 0 0 0 255 255 0 255
2.51778 1.02239 3.8134 0 0 0 255 255 0 255
2.5269 1.06404 3.83152 0 0 0 255 255 0 255
2.59543 0.907624 3.88456 0 0 0 255 255 0 255
2.70919 0.396118 3.91246 0 0 0 255 255 0 255
2.61321 0.889878 3.91119 0 0 0 255 255 0 255
2.61353 0.897096 3.91477 0 0 0 255 255 0 255
2.70617 0.429198 3.9195 0 0 0 255 255 0 255
2.61302 0.906184 3.91744 0 0 0 255 255 0 255
2.61689 0.888605 3.91846 0 0 0 255 255 0 255
2.62665 0.869208 3.9324 0 0 0 255 255 0 255
2.71243 0.437674 3.93788 0 0 0 255 255 0 255
2.6508 0.75372 3.93685 0 0 0 255 255 0 255
2.72329 0.402165 3.94842 0 0 0 255 255 0 255
2.66125 0.733464 3.95488 0 0 0 255 255 0 255
2.72238 0.423445 3.95777 0 0 0 255 255 0 255
2.48341 1.64631 3.95301 0 0 0 255 255 0 255
2.72568 0.412906 3.96165 0 0 0 255 255 0 255
2.48436 1.64754 3.95683 0 0 0 255 255 0 255
2.72931 0.400395 3.96555 0 0 0 255 255 0 255
2.48454 1.64962 3.95873 0 0 0 255 255 0 255
2.60793 1.02779 3.96741 0 0 0 255 255 0 255
2.72677 0.437709 3.98271 0 0 0 255 255 0 255
2.7273 0.459354 4.00509 0 0 0 255 255 0 255
2.72691 0.466447 4.01097 0 0 0 255 255 0 255
2.72976 0.452745 4.01204 0 0 0 255 255 0 255
2.72746 0.469661 4.01886 0 0 0 255 255 0 255
2.75078 0.354021 4.02454 0 0 0 255 255 0 255
2.72774 0.473848 4.02777 0 0 0 255 255 0 255
2.75162 0.354234 4.0325 0 0 0 255 255 0 255
2.66704 0.788096 4.03577 0 0 0 255 255 0 255
2.66733 0.788177 4.03976 0 0 0 255 255 0 255
2.75008 0.369348 4.05336 0 0 0 255 255 0 255
