ply
format ascii 1.0
comment VCGLIB generated
element vertex 150
property float x
property float y
property float z
property float nx
property float ny
property float nz
property uchar red
property uchar green
property uchar blue
property uchar alpha
element face 0
property list uchar int vertex_indices
end_header
-1.77021 -0.502273 -8.14318 0 0 0 255 255 255 255
-0.965003 0.903364 4.03477 0 0 0 255 255 255 255
-0.669521 1.36865 3.82974 0 0 0 255 255 255 255
-0.681715 1.25608 3.93287 0 0 0 255 255 255 255
-0.728632 1.29851 4.03811 0 0 0 255 255 255 255
-0.728416 1.19205 4.0588 0 0 0 255 255 255 255
-0.625107 1.19222 4.05158 0 0 0 255 255 255 255
-0.747368 1.20439 4.06655 0 0 0 255 255 255 255
-0.572138 1.26954 3.9921 0 0 0 255 255 255 255
-0.571539 1.27728 3.99567 0 0 0 255 255 255 255
-0.789285 1.17965 4.0763 0 0 0 255 255 255 255
-0.760427 1.18017 4.00976 0 0 0 255 255 255 255
-0.787909 1.17727 4.07603 0 0 0 255 255 255 255
-0.780007 1.18005 4.0514 0 0 0 255 255 255 255
-0.756378 1.16648 4.00996 0 0 0 255 255 255 255
-0.777808 1.16203 4.00496 0 0 0 255 255 255 255
-0.63384 1.18714 4.06036 0 0 0 255 255 255 255
-0.686851 1.3626 3.8279 0 0 0 255 255 255 255
-0.679273 1.26008 3.9352 0 0 0 255 255 255 255
-0.731242 1.29818 4.03668 0 0 0 255 255 255 255
-0.617958 1.18786 4.04369 0 0 0 255 255 255 255
-3.13239 0.357024 4.51088 0 0 0 255 255 255 255
-3.06932 0.357685 4.49968 0 0 0 255 255 255 255
-2.75354 0.0141254 5.12434 0 0 0 255 255 255 255
-2.80927 0.200826 5.31375 0 0 0 255 255 255 255
-2.7605 0.0091229 5.13372 0 0 0 255 255 255 255
-2.7559 0.174103 5.13627 0 0 0 255 255 255 255
-2.85178 0.109143 5.29958 0 0 0 255 255 255 255
-2.94597 0.487422 4.52351 0 0 0 255 255 255 255
-3.082 0.57961 4.51644 0 0 0 255 255 255 255
-3.05139 0.517577 4.51136 0 0 0 255 255 255 255
-3.11906 0.518451 4.49763 0 0 0 255 255 255 255
-2.93224 0.550942 4.5844 0 0 0 255 255 255 255
-2.93918 0.560107 4.5468 0 0 0 255 255 255 255
-2.82828 0.442727 4.50523 0 0 0 255 255 255 255
-2.83195 0.425831 4.50015 0 0 0 255 255 255 255
-2.9332 0.53083 4.57904 0 0 0 255 255 255 255
-2.9441 0.550852 4.53849 0 0 0 255 255 255 255
-3.06583 0.506901 4.49579 0 0 0 255 255 255 255
-2.93884 0.534309 4.556 0 0 0 255 255 255 255
-3.1743 0.524094 4.52605 0 0 0 255 255 255 255
-2.95935 0.54515 4.53324 0 0 0 255 255 255 255
-3.05235 0.561187 4.37374 0 0 0 255 255 255 255
-3.02432 0.567306 4.52246 0 0 0 255 255 255 255
-3.04389 0.515782 4.51793 0 0 0 255 255 255 255
-3.04611 0.567667 4.41504 0 0 0 255 255 255 255
-2.95324 0.517344 4.53343 0 0 0 255 255 255 255
-2.72086 0.629928 5.04805 0 0 0 255 255 255 255
-2.72661 0.618098 5.05239 0 0 0 255 255 255 255
-2.87352 1.43753 4.89531 0 0 0 255 255 255 255
-3.03431 1.19188 5.4008 0 0 0 255 255 255 255
-2.91441 1.36912 5.5121 0 0 0 255 255 255 255
-2.20674 0.145649 5.20616 0 0 0 255 255 255 255
-1.68194 1.09356 4.71092 0 0 0 255 255 255 255
-2.65778 0.577212 4.88599 0 0 0 255 255 255 255
-2.81238 1.58222 4.96458 0 0 0 255 255 255 255
-2.7919 1.57105 4.95851 0 0 0 255 255 255 255
-1.3168 -0.072497 4.38223 0 0 0 255 255 255 255
-0.963888 0.891047 4.2156 0 0 0 255 255 255 255
-0.843458 1.36157 4.16318 0 0 0 255 255 255 255
-0.814121 1.22701 4.23238 0 0 0 255 255 255 255
-0.887337 1.03455 4.11253 0 0 0 255 255 255 255
-0.848302 1.0088 4.11014 0 0 0 255 255 255 255
-0.840994 1.25158 4.25715 0 0 0 255 255 255 255
0.352079 0.124406 4.93903 0 0 0 255 255 255 255
0.306661 0.082536 5.00105 0 0 0 255 255 255 255
0.333789 0.0901992 5.00378 0 0 0 255 255 255 255
0.356745 0.100058 4.98934 0 0 0 255 255 255 255
0.315053 0.0634594 4.88655 0 0 0 255 255 255 255
0.386889 0.1155 4.81109 0 0 0 255 255 255 255
0.38123 0.0992669 4.79021 0 0 0 255 255 255 255
0.38888 0.142282 4.81213 0 0 0 255 255 255 255
0.358006 0.128191 4.87324 0 0 0 255 255 255 255
0.342282 0.117392 4.98995 0 0 0 255 255 255 255
0.307552 0.0792784 5.00107 0 0 0 255 255 255 255
0.389787 0.151047 4.81287 0 0 0 255 255 255 255
0.333416 0.0908672 4.87175 0 0 0 255 255 255 255
0.387275 0.112713 4.80943 0 0 0 255 255 255 255
0.371064 0.0944526 4.77813 0 0 0 255 255 255 255
-0.59477 1.15569 4.11746 0 0 0 255 255 255 255
0.303246 1.37572 4.95534 0 0 0 255 255 255 255
0.355024 1.0421 4.90881 0 0 0 255 255 255 255
0.340185 1.39221 4.99591 0 0 0 255 255 255 255
0.323995 1.35602 4.97177 0 0 0 255 255 255 255
0.34968 1.03482 4.91925 0 0 0 255 255 255 255
0.379325 1.38676 4.85595 0 0 0 255 255 255 255
0.318618 1.38674 4.97326 0 0 0 255 255 255 255
0.335098 1.34344 5.00108 0 0 0 255 255 255 255
0.383265 1.38523 4.89749 0 0 0 255 255 255 255
0.297146 1.37447 4.9584 0 0 0 255 255 255 255
0.32113 1.36011 4.96312 0 0 0 255 255 255 255
0.331854 1.40357 4.99435 0 0 0 255 255 255 255
0.328205 1.38952 4.97747 0 0 0 255 255 255 255
-0.534703 1.14418 4.10625 0 0 0 255 255 255 255
0.364375 1.40195 4.92514 0 0 0 255 255 255 255
4.26798 -2.62353 8.06469 0 0 0 255 255 255 255
4.36032 -2.80186 8.17758 0 0 0 255 255 255 255
4.26141 -2.62182 8.04256 0 0 0 255 255 255 255
4.28289 -2.66576 8.06002 0 0 0 255 255 255 255
4.26277 -2.60234 8.04393 0 0 0 255 255 255 255
4.3698 -2.82582 8.18688 0 0 0 255 255 255 255
2.28915 1.06885 3.75723 0 0 0 255 255 255 255
2.34206 1.08815 3.71144 0 0 0 255 255 255 255
1.11665 0.0901678 4.93476 0 0 0 255 255 255 255
1.14294 0.0769356 4.98667 0 0 0 255 255 255 255
1.13567 0.080781 4.99225 0 0 0 255 255 255 255
1.1315 0.0755732 4.95329 0 0 0 255 255 255 255
1.14834 0.0584439 5.0008 0 0 0 255 255 255 255
1.12058 0.092754 4.97933 0 0 0 255 255 255 255
0.916058 -0.246667 4.9039 0 0 0 255 255 255 255
0.396485 0.148203 4.73876 0 0 0 255 255 255 255
1.07412 0.11295 4.90233 0 0 0 255 255 255 255
1.0935 0.105651 4.93736 0 0 0 255 255 255 255
1.12809 0.0954592 4.99333 0 0 0 255 255 255 255
1.05147 0.106349 5.08414 0 0 0 255 255 255 255
1.09243 0.151151 4.97228 0 0 0 255 255 255 255
1.05295 0.0461549 5.12412 0 0 0 255 255 255 255
1.08915 0.072091 5.11159 0 0 0 255 255 255 255
1.11528 0.0949398 4.94223 0 0 0 255 255 255 255
1.06813 0.0879075 5.14529 0 0 0 255 255 255 255
1.0311 0.136001 5.18341 0 0 0 255 255 255 255
1.04021 0.160965 5.14172 0 0 0 255 255 255 255
1.30524 1.28221 5.78209 0 0 0 255 255 255 255
0.586171 1.37327 6.05634 0 0 0 255 255 255 255
1.31143 1.28949 5.83935 0 0 0 255 255 255 255
1.64973 1.18848 5.76674 0 0 0 255 255 255 255
1.62425 1.19638 5.4604 0 0 0 255 255 255 255
1.08835 1.42588 6.36428 0 0 0 255 255 255 255
1.24528 1.40526 6.63404 0 0 0 255 255 255 255
1.13574 1.40113 6.31529 0 0 0 255 255 255 255
1.31138 1.42432 6.72807 0 0 0 255 255 255 255
1.10984 1.42367 6.36247 0 0 0 255 255 255 255
1.32173 1.39203 6.58047 0 0 0 255 255 255 255
1.10398 1.3553 6.32963 0 0 0 255 255 255 255
1.11716 1.41635 6.37263 0 0 0 255 255 255 255
1.10068 1.42366 6.3861 0 0 0 255 255 255 255
1.23882 1.37334 6.4321 0 0 0 255 255 255 255
1.99601 1.57783 4.10484 0 0 0 255 255 255 255
1.46632 1.47712 6.68244 0 0 0 255 255 255 255
1.45497 1.48879 6.68161 0 0 0 255 255 255 255
1.21994 1.49903 6.70383 0 0 0 255 255 255 255
3.81759 0.795801 7.53185 0 0 0 255 255 255 255
3.70679 0.714624 7.45029 0 0 0 255 255 255 255
3.82007 0.785092 7.53575 0 0 0 255 255 255 255
3.93528 1.24219 7.52781 0 0 0 255 255 255 255
3.82773 0.722691 7.52052 0 0 0 255 255 255 255
3.81513 1.29175 7.34288 0 0 0 255 255 255 255
3.89621 0.801006 7.65853 0 0 0 255 255 255 255
4.04943 0.691389 7.86493 0 0 0 255 255 255 255
4.02271 0.661462 7.82971 0 0 0 255 255 255 255
