ply
format ascii 1.0
comment VCGLIB generated
element vertex 11
property float x
property float y
property float z
property float nx
property float ny
property float nz
property uchar red
property uchar green
property uchar blue
property uchar alpha
element face 0
property list uchar int vertex_indices
end_header
1.7458 -0.879661 6.12785 0 0 0 255 255 0 255
1.75375 -0.849249 6.13243 0 0 0 255 255 0 255
1.76298 -0.838009 6.13609 0 0 0 255 255 0 255
1.80752 -0.965425 6.14127 0 0 0 255 255 0 255
1.81296 -0.945802 6.14432 0 0 0 255 255 0 255
1.78826 -0.797655 6.14676 0 0 0 255 255 0 255
1.80521 -0.821578 6.15041 0 0 0 255 255 0 255
1.80564 -0.810221 6.15133 0 0 0 255 255 0 255
1.80864 -0.810586 6.15224 0 0 0 255 255 0 255
1.8531 -0.955423 6.15621 0 0 0 255 255 0 255
1.86613 -0.939255 6.16139 0 0 0 255 255 0 255
