ply
format ascii 1.0
comment VCGLIB generated
element vertex 12
property float x
property float y
property float z
property float nx
property float ny
property float nz
property uchar red
property uchar green
property uchar blue
property uchar alpha
element face 0
property list uchar int vertex_indices
end_header
-0.768587 -0.590419 5.35111 0 0 0 0 128 128 255
-0.765508 -0.582959 5.35556 0 0 0 0 128 128 255
-0.762257 -0.569071 5.36193 0 0 0 0 128 128 255
-0.747582 -0.598879 5.36511 0 0 0 0 128 128 255
-0.760893 -0.464593 5.39186 0 0 0 0 128 128 255
-0.751018 -0.485494 5.39377 0 0 0 0 128 128 255
-0.745137 -0.467488 5.40332 0 0 0 0 128 128 255
-0.482588 -0.888933 5.49119 0 0 0 0 128 128 255
-0.462435 -0.915735 5.49946 0 0 0 0 128 128 255
-0.380351 -0.699828 5.62299 0 0 0 0 128 128 255
-0.371182 -0.693389 5.6319 0 0 0 0 128 128 255
-0.268891 -0.730291 5.70131 0 0 0 0 128 128 255
