ply
format ascii 1.0
comment VCGLIB generated
element vertex 839
property float x
property float y
property float z
property float nx
property float ny
property float nz
property uchar red
property uchar green
property uchar blue
property uchar alpha
element face 0
property list uchar int vertex_indices
end_header
4.2129 1.40701 3.6683 0 0 0 128 0 128 255
4.20828 1.39907 3.66907 0 0 0 128 0 128 255
4.20457 1.46046 3.67868 0 0 0 128 0 128 255
4.19105 1.48399 3.68713 0 0 0 128 0 128 255
4.21914 1.64862 3.69789 0 0 0 128 0 128 255
4.22073 1.65336 3.69789 0 0 0 128 0 128 255
4.20314 1.64451 3.70366 0 0 0 128 0 128 255
4.19406 1.62329 3.70443 0 0 0 128 0 128 255
4.20147 1.64823 3.70481 0 0 0 128 0 128 255
4.20817 1.66814 3.70481 0 0 0 128 0 128 255
4.2245 1.71962 3.70519 0 0 0 128 0 128 255
4.22539 1.74253 3.70788 0 0 0 128 0 128 255
4.14859 1.5373 3.71096 0 0 0 128 0 128 255
4.17823 1.62545 3.71096 0 0 0 128 0 128 255
4.17005 1.66196 3.71903 0 0 0 128 0 128 255
4.16783 1.66693 3.72057 0 0 0 128 0 128 255
4.19779 1.75603 3.72057 0 0 0 128 0 128 255
4.18584 1.73789 3.72287 0 0 0 128 0 128 255
4.2162 1.83107 3.72326 0 0 0 128 0 128 255
4.21708 1.84238 3.72441 0 0 0 128 0 128 255
4.17366 1.72194 3.72556 0 0 0 128 0 128 255
4.20769 1.84343 3.72825 0 0 0 128 0 128 255
4.15838 1.69965 3.72864 0 0 0 128 0 128 255
4.18626 1.78839 3.72941 0 0 0 128 0 128 255
4.19846 1.82754 3.72979 0 0 0 128 0 128 255
4.18236 1.78548 3.73056 0 0 0 128 0 128 255
4.20754 1.86036 3.73056 0 0 0 128 0 128 255
4.16619 1.74028 3.73094 0 0 0 128 0 128 255
4.2152 1.89471 3.7321 0 0 0 128 0 128 255
4.19106 1.82581 3.73248 0 0 0 128 0 128 255
4.21368 1.89311 3.73248 0 0 0 128 0 128 255
4.18349 1.8062 3.73287 0 0 0 128 0 128 255
4.16064 1.7759 3.73786 0 0 0 128 0 128 255
4.19052 1.87347 3.73901 0 0 0 128 0 128 255
4.19164 1.88259 3.73978 0 0 0 128 0 128 255
4.13739 1.74152 3.74247 0 0 0 128 0 128 255
4.18904 1.94149 3.74862 0 0 0 128 0 128 255
4.1908 1.96411 3.75093 0 0 0 128 0 128 255
4.12806 1.8702 3.76323 0 0 0 128 0 128 255
4.12759 1.88619 3.76553 0 0 0 128 0 128 255
4.11939 1.86468 3.76592 0 0 0 128 0 128 255
4.11406 1.86331 3.76784 0 0 0 128 0 128 255
4.14338 1.95051 3.76784 0 0 0 128 0 128 255
4.11191 1.85981 3.76822 0 0 0 128 0 128 255
4.15438 1.98901 3.76861 0 0 0 128 0 128 255
4.1535 1.98931 3.76899 0 0 0 128 0 128 255
4.13566 1.95943 3.77207 0 0 0 128 0 128 255
4.09909 1.85357 3.77245 0 0 0 128 0 128 255
4.09703 1.85321 3.77322 0 0 0 128 0 128 255
4.12867 1.97339 3.77668 0 0 0 128 0 128 255
4.13584 2.00052 3.77745 0 0 0 128 0 128 255
3.80321 1.0373 3.78091 0 0 0 128 0 128 255
4.14335 2.06341 3.78283 0 0 0 128 0 128 255
4.1377 2.04948 3.78321 0 0 0 128 0 128 255
4.13977 2.06145 3.78398 0 0 0 128 0 128 255
4.11555 2.00101 3.78552 0 0 0 128 0 128 255
4.11587 2.00196 3.78552 0 0 0 128 0 128 255
4.12432 2.03288 3.78629 0 0 0 128 0 128 255
3.69544 0.783412 3.78975 0 0 0 128 0 128 255
3.65562 0.69974 3.79436 0 0 0 128 0 128 255
3.63029 0.641791 3.79666 0 0 0 128 0 128 255
4.1168 2.1061 3.79897 0 0 0 128 0 128 255
3.74982 1.04365 3.80281 0 0 0 128 0 128 255
4.08805 2.05246 3.8032 0 0 0 128 0 128 255
3.62577 0.683399 3.80397 0 0 0 128 0 128 255
4.08232 2.047 3.80473 0 0 0 128 0 128 255
4.08208 2.04919 3.80512 0 0 0 128 0 128 255
3.62698 0.707259 3.80666 0 0 0 128 0 128 255
3.61759 0.708306 3.8105 0 0 0 128 0 128 255
3.58859 0.633655 3.81204 0 0 0 128 0 128 255
3.58406 0.62885 3.81319 0 0 0 128 0 128 255
4.09207 2.13973 3.81319 0 0 0 128 0 128 255
3.59848 0.674641 3.81357 0 0 0 128 0 128 255
3.58358 0.63323 3.81396 0 0 0 128 0 128 255
3.58766 0.677224 3.81819 0 0 0 128 0 128 255
3.58814 0.684448 3.81895 0 0 0 128 0 128 255
3.65882 0.91494 3.82164 0 0 0 128 0 128 255
3.6111 0.787503 3.82357 0 0 0 128 0 128 255
3.60975 0.792177 3.82472 0 0 0 128 0 128 255
3.57645 0.698928 3.82549 0 0 0 128 0 128 255
3.57383 0.699811 3.82664 0 0 0 128 0 128 255
4.1275 2.36097 3.82856 0 0 0 128 0 128 255
4.11101 2.31482 3.82895 0 0 0 128 0 128 255
4.10193 2.29361 3.82972 0 0 0 128 0 128 255
3.86999 1.60671 3.8301 0 0 0 128 0 128 255
3.86816 1.60416 3.83048 0 0 0 128 0 128 255
4.12281 2.3615 3.83048 0 0 0 128 0 128 255
3.86641 1.60475 3.83125 0 0 0 128 0 128 255
3.86434 1.60439 3.83202 0 0 0 128 0 128 255
3.63695 0.933899 3.83279 0 0 0 128 0 128 255
3.69472 1.1202 3.83471 0 0 0 128 0 128 255
4.07382 2.25348 3.83548 0 0 0 128 0 128 255
4.08673 2.29767 3.83625 0 0 0 128 0 128 255
4.08379 2.2976 3.8374 0 0 0 128 0 128 255
3.61506 0.918048 3.83932 0 0 0 128 0 128 255
3.61706 0.926873 3.83971 0 0 0 128 0 128 255
3.86007 1.65541 3.84048 0 0 0 128 0 128 255
3.56503 0.780838 3.84086 0 0 0 128 0 128 255
4.06525 2.2859 3.84317 0 0 0 128 0 128 255
4.06676 2.29911 3.84432 0 0 0 128 0 128 255
4.10565 2.41474 3.84432 0 0 0 128 0 128 255
4.10923 2.42831 3.8447 0 0 0 128 0 128 255
4.09187 2.38245 3.84547 0 0 0 128 0 128 255
4.08646 2.38954 3.84855 0 0 0 128 0 128 255
3.60227 0.958219 3.8497 0 0 0 128 0 128 255
3.57439 0.881084 3.85047 0 0 0 128 0 128 255
4.06679 2.34552 3.85047 0 0 0 128 0 128 255
3.58849 0.925927 3.85085 0 0 0 128 0 128 255
3.59168 0.935406 3.85085 0 0 0 128 0 128 255
3.49328 0.645656 3.85124 0 0 0 128 0 128 255
4.06784 2.38631 3.85547 0 0 0 128 0 128 255
4.06091 2.3686 3.85585 0 0 0 128 0 128 255
3.58517 0.956586 3.85623 0 0 0 128 0 128 255
3.8415 1.74501 3.85969 0 0 0 128 0 128 255
3.82214 1.69032 3.86008 0 0 0 128 0 128 255
3.8419 1.74909 3.86008 0 0 0 128 0 128 255
4.05009 2.37118 3.86046 0 0 0 128 0 128 255
3.83728 1.74115 3.86085 0 0 0 128 0 128 255
4.0477 2.36987 3.86123 0 0 0 128 0 128 255
3.60352 1.0633 3.86315 0 0 0 128 0 128 255
3.82566 1.73556 3.86469 0 0 0 128 0 128 255
3.45119 0.633435 3.86623 0 0 0 128 0 128 255
3.6021 1.08805 3.867 0 0 0 128 0 128 255
3.58481 1.04533 3.86815 0 0 0 128 0 128 255
3.59836 1.10302 3.87045 0 0 0 128 0 128 255
3.51391 0.863438 3.87199 0 0 0 128 0 128 255
3.51431 0.867523 3.87238 0 0 0 128 0 128 255
3.57974 1.09978 3.87737 0 0 0 128 0 128 255
3.5815 1.1108 3.87814 0 0 0 128 0 128 255
3.53186 0.966069 3.87853 0 0 0 128 0 128 255
3.52949 0.987968 3.88237 0 0 0 128 0 128 255
3.51866 0.967344 3.88391 0 0 0 128 0 128 255
3.51149 0.963422 3.88621 0 0 0 128 0 128 255
3.4355 0.766367 3.89005 0 0 0 128 0 128 255
3.46107 0.845333 3.89044 0 0 0 128 0 128 255
3.47607 0.924693 3.89505 0 0 0 128 0 128 255
3.46303 0.932244 3.9012 0 0 0 128 0 128 255
3.42391 0.818795 3.90158 0 0 0 128 0 128 255
3.50948 1.0791 3.90235 0 0 0 128 0 128 255
3.42113 0.836609 3.90504 0 0 0 128 0 128 255
3.45427 0.935186 3.90504 0 0 0 128 0 128 255
3.75067 1.81669 3.90504 0 0 0 128 0 128 255
3.7396 1.78665 3.90543 0 0 0 128 0 128 255
3.45962 0.959765 3.9062 0 0 0 128 0 128 255
3.97194 2.50085 3.9085 0 0 0 128 0 128 255
3.47804 1.05802 3.91196 0 0 0 128 0 128 255
3.4147 0.872531 3.91235 0 0 0 128 0 128 255
3.42013 0.911851 3.91542 0 0 0 128 0 128 255
3.41536 0.92084 3.91849 0 0 0 128 0 128 255
3.41863 0.933456 3.91888 0 0 0 128 0 128 255
3.44199 1.0406 3.92388 0 0 0 128 0 128 255
3.33247 0.787293 3.93348 0 0 0 128 0 128 255
3.57286 1.50511 3.93387 0 0 0 128 0 128 255
3.55923 1.46749 3.93425 0 0 0 128 0 128 255
3.3195 0.786379 3.93848 0 0 0 128 0 128 255
3.35538 0.933624 3.94386 0 0 0 128 0 128 255
3.35235 0.930421 3.94463 0 0 0 128 0 128 255
3.63792 1.7913 3.94617 0 0 0 128 0 128 255
3.63634 1.82137 3.95078 0 0 0 128 0 128 255
3.32226 0.893063 3.95155 0 0 0 128 0 128 255
3.26937 0.77053 3.95616 0 0 0 128 0 128 255
3.31296 0.908851 3.95731 0 0 0 128 0 128 255
3.30771 0.910616 3.95962 0 0 0 128 0 128 255
3.26102 0.777557 3.96039 0 0 0 128 0 128 255
3.60005 1.79454 3.96154 0 0 0 128 0 128 255
3.30151 0.921142 3.96346 0 0 0 128 0 128 255
3.25825 0.806974 3.96538 0 0 0 128 0 128 255
3.58795 1.79333 3.96615 0 0 0 128 0 128 255
3.25865 0.822663 3.9673 0 0 0 128 0 128 255
3.23763 0.771708 3.96884 0 0 0 128 0 128 255
3.24703 0.805472 3.96961 0 0 0 128 0 128 255
3.53929 1.68626 3.97115 0 0 0 128 0 128 255
3.19382 0.670387 3.97269 0 0 0 128 0 128 255
3.25048 0.870777 3.97691 0 0 0 128 0 128 255
3.18031 0.705524 3.98268 0 0 0 128 0 128 255
3.16765 0.682351 3.9846 0 0 0 128 0 128 255
3.16351 0.693236 3.98767 0 0 0 128 0 128 255
3.16752 0.745695 3.99305 0 0 0 128 0 128 255
3.39254 1.44969 3.99767 0 0 0 128 0 128 255
3.60233 2.07652 3.99805 0 0 0 128 0 128 255
3.15292 0.841334 4.0115 0 0 0 128 0 128 255
3.17372 0.906082 4.01189 0 0 0 128 0 128 255
3.14823 0.841857 4.01342 0 0 0 128 0 128 255
3.16226 0.906769 4.0165 0 0 0 128 0 128 255
3.148 0.867254 4.01688 0 0 0 128 0 128 255
3.16442 0.92187 4.01765 0 0 0 128 0 128 255
3.14674 0.886669 4.01996 0 0 0 128 0 128 255
3.14612 0.919583 4.02457 0 0 0 128 0 128 255
3.52276 2.06002 4.02726 0 0 0 128 0 128 255
3.46585 2.02112 4.04455 0 0 0 128 0 128 255
3.13865 1.10883 4.05263 0 0 0 128 0 128 255
3.02472 0.775775 4.05339 0 0 0 128 0 128 255
3.02098 0.779142 4.05532 0 0 0 128 0 128 255
3.02736 0.809703 4.05685 0 0 0 128 0 128 255
3.12656 1.10762 4.05724 0 0 0 128 0 128 255
3.12975 1.12871 4.05877 0 0 0 128 0 128 255
3.14505 1.1742 4.05877 0 0 0 128 0 128 255
3.1276 1.12521 4.05916 0 0 0 128 0 128 255
3.01853 0.809507 4.06031 0 0 0 128 0 128 255
3.1316 1.16606 4.063 0 0 0 128 0 128 255
3.12124 1.14106 4.06377 0 0 0 128 0 128 255
3.1222 1.1439 4.06377 0 0 0 128 0 128 255
3.00595 0.801075 4.06415 0 0 0 128 0 128 255
2.99591 0.777019 4.06492 0 0 0 128 0 128 255
3.12658 1.16564 4.06492 0 0 0 128 0 128 255
3.00468 0.808887 4.06569 0 0 0 128 0 128 255
2.99719 0.792414 4.06646 0 0 0 128 0 128 255
3.30419 1.70834 4.06684 0 0 0 128 0 128 255
2.99162 0.781628 4.06723 0 0 0 128 0 128 255
3.11695 1.15727 4.06761 0 0 0 128 0 128 255
3.12277 1.17747 4.068 0 0 0 128 0 128 255
2.99322 0.797971 4.06877 0 0 0 128 0 128 255
3.00023 0.818824 4.06877 0 0 0 128 0 128 255
3.11273 1.15342 4.06877 0 0 0 128 0 128 255
3.11991 1.18054 4.06954 0 0 0 128 0 128 255
2.98008 0.779178 4.07146 0 0 0 128 0 128 255
2.99267 0.82242 4.07223 0 0 0 128 0 128 255
2.98829 0.812287 4.07261 0 0 0 128 0 128 255
3.01125 0.90374 4.07568 0 0 0 128 0 128 255
2.96448 0.767543 4.07607 0 0 0 128 0 128 255
3.09276 1.15486 4.07684 0 0 0 128 0 128 255
3.00719 0.906159 4.07761 0 0 0 128 0 128 255
3.01166 0.919428 4.07761 0 0 0 128 0 128 255
3.1185 1.2401 4.07799 0 0 0 128 0 128 255
2.97071 0.803431 4.07837 0 0 0 128 0 128 255
2.97294 0.810066 4.07837 0 0 0 128 0 128 255
3.09859 1.18666 4.07876 0 0 0 128 0 128 255
2.96816 0.807451 4.07991 0 0 0 128 0 128 255
3.09979 1.19892 4.07991 0 0 0 128 0 128 255
3.11087 1.24056 4.08107 0 0 0 128 0 128 255
3.00099 0.916684 4.08145 0 0 0 128 0 128 255
3.0006 0.924201 4.0826 0 0 0 128 0 128 255
3.10641 1.25049 4.08414 0 0 0 128 0 128 255
2.93839 0.771042 4.08683 0 0 0 128 0 128 255
2.98731 0.922339 4.0876 0 0 0 128 0 128 255
3.32061 1.93386 4.09029 0 0 0 128 0 128 255
2.98708 0.947736 4.09106 0 0 0 128 0 128 255
3.10341 1.2937 4.09106 0 0 0 128 0 128 255
2.96597 0.893643 4.09221 0 0 0 128 0 128 255
3.10015 1.29269 4.09221 0 0 0 128 0 128 255
2.97235 0.924203 4.09375 0 0 0 128 0 128 255
2.91857 0.767154 4.09413 0 0 0 128 0 128 255
2.96646 0.91247 4.09452 0 0 0 128 0 128 255
3.31417 1.94658 4.09452 0 0 0 128 0 128 255
2.96822 0.923484 4.09529 0 0 0 128 0 128 255
2.97595 0.949371 4.09567 0 0 0 128 0 128 255
3.07833 1.25677 4.09605 0 0 0 128 0 128 255
3.10128 1.32502 4.09605 0 0 0 128 0 128 255
2.96966 0.956758 4.09913 0 0 0 128 0 128 255
2.88227 0.717115 4.10182 0 0 0 128 0 128 255
3.06306 1.25769 4.1022 0 0 0 128 0 128 255
3.07589 1.29874 4.10259 0 0 0 128 0 128 255
2.96195 0.965682 4.10336 0 0 0 128 0 128 255
2.93216 0.882859 4.10412 0 0 0 128 0 128 255
3.06418 1.27841 4.10451 0 0 0 128 0 128 255
2.95487 0.964898 4.10605 0 0 0 128 0 128 255
2.95272 0.9614 4.10643 0 0 0 128 0 128 255
2.88141 0.752219 4.10681 0 0 0 128 0 128 255
2.95567 0.984672 4.10835 0 0 0 128 0 128 255
2.95576 0.98781 4.10874 0 0 0 128 0 128 255
2.94293 0.958361 4.10989 0 0 0 128 0 128 255
2.91967 0.900771 4.11143 0 0 0 128 0 128 255
2.94995 0.990817 4.11143 0 0 0 128 0 128 255
2.87832 0.780688 4.11181 0 0 0 128 0 128 255
2.88023 0.786375 4.11181 0 0 0 128 0 128 255
2.95003 0.993955 4.11181 0 0 0 128 0 128 255
2.91792 0.90136 4.1122 0 0 0 128 0 128 255
2.85936 0.730092 4.11258 0 0 0 128 0 128 255
2.91004 0.880801 4.11258 0 0 0 128 0 128 255
2.87123 0.768301 4.11296 0 0 0 128 0 128 255
2.87665 0.784414 4.11296 0 0 0 128 0 128 255
2.85474 0.72215 4.11335 0 0 0 128 0 128 255
3.04214 1.27949 4.11335 0 0 0 128 0 128 255
2.94215 0.996603 4.11527 0 0 0 128 0 128 255
2.90352 0.890378 4.11642 0 0 0 128 0 128 255
2.90105 0.885933 4.11681 0 0 0 128 0 128 255
2.9024 0.892863 4.11719 0 0 0 128 0 128 255
2.84385 0.744802 4.12065 0 0 0 128 0 128 255
2.8621 0.801967 4.12104 0 0 0 128 0 128 255
3.02385 1.30041 4.12334 0 0 0 128 0 128 255
3.01525 1.28642 4.12488 0 0 0 128 0 128 255
3.07134 1.45324 4.12488 0 0 0 128 0 128 255
2.89741 0.938851 4.12526 0 0 0 128 0 128 255
2.83025 0.741992 4.12565 0 0 0 128 0 128 255
2.89781 0.942937 4.12565 0 0 0 128 0 128 255
2.87097 0.871783 4.1268 0 0 0 128 0 128 255
2.89391 0.940028 4.1268 0 0 0 128 0 128 255
2.89224 0.943754 4.12795 0 0 0 128 0 128 255
2.89137 0.944049 4.12834 0 0 0 128 0 128 255
2.86308 0.862827 4.12872 0 0 0 128 0 128 255
2.80724 0.705418 4.12987 0 0 0 128 0 128 255
3.06292 1.46874 4.13026 0 0 0 128 0 128 255
2.8603 0.869038 4.13064 0 0 0 128 0 128 255
3.02475 1.35813 4.13064 0 0 0 128 0 128 255
2.81258 0.729997 4.13103 0 0 0 128 0 128 255
2.81417 0.734737 4.13103 0 0 0 128 0 128 255
2.80796 0.722055 4.1318 0 0 0 128 0 128 255
2.82868 0.783666 4.1318 0 0 0 128 0 128 255
2.85226 0.853807 4.1318 0 0 0 128 0 128 255
2.82366 0.771638 4.13218 0 0 0 128 0 128 255
3.00755 1.31855 4.13218 0 0 0 128 0 128 255
3.05544 1.46387 4.13257 0 0 0 128 0 128 255
2.85537 0.871751 4.13295 0 0 0 128 0 128 255
2.80295 0.721631 4.13372 0 0 0 128 0 128 255
2.82183 0.780692 4.1341 0 0 0 128 0 128 255
2.8588 0.890643 4.1341 0 0 0 128 0 128 255
2.99584 1.29822 4.1341 0 0 0 128 0 128 255
2.81331 0.758237 4.13449 0 0 0 128 0 128 255
2.81681 0.768664 4.13449 0 0 0 128 0 128 255
2.95641 1.18382 4.13449 0 0 0 128 0 128 255
3.05393 1.47387 4.13449 0 0 0 128 0 128 255
2.84916 0.870673 4.13526 0 0 0 128 0 128 255
2.95984 1.20272 4.13564 0 0 0 128 0 128 255
3.00876 1.35401 4.13641 0 0 0 128 0 128 255
2.84248 0.862371 4.13679 0 0 0 128 0 128 255
2.84535 0.870902 4.13679 0 0 0 128 0 128 255
2.8616 0.919242 4.13679 0 0 0 128 0 128 255
2.99498 1.32172 4.13756 0 0 0 128 0 128 255
3.04215 1.462 4.13756 0 0 0 128 0 128 255
3.00757 1.36496 4.13833 0 0 0 128 0 128 255
2.86304 0.940913 4.1391 0 0 0 128 0 128 255
3.03682 1.47223 4.14102 0 0 0 128 0 128 255
2.9483 1.21187 4.1414 0 0 0 128 0 128 255
2.98846 1.3313 4.1414 0 0 0 128 0 128 255
3.01842 1.4204 4.1414 0 0 0 128 0 128 255
2.99396 1.35055 4.14179 0 0 0 128 0 128 255
2.98998 1.3445 4.14256 0 0 0 128 0 128 255
2.94194 1.20451 4.14294 0 0 0 128 0 128 255
2.99197 1.35333 4.14294 0 0 0 128 0 128 255
2.85055 0.935619 4.14333 0 0 0 128 0 128 255
2.8472 0.931468 4.14409 0 0 0 128 0 128 255
2.98473 1.34627 4.14486 0 0 0 128 0 128 255
2.83933 0.934116 4.14755 0 0 0 128 0 128 255
2.92881 1.20893 4.14871 0 0 0 128 0 128 255
3.05542 1.58836 4.14909 0 0 0 128 0 128 255
3.01008 1.46223 4.15024 0 0 0 128 0 128 255
2.95479 1.30358 4.15101 0 0 0 128 0 128 255
2.91575 1.19327 4.15178 0 0 0 128 0 128 255
2.81098 0.884567 4.15217 0 0 0 128 0 128 255
2.91775 1.2021 4.15217 0 0 0 128 0 128 255
3.01591 1.49404 4.15217 0 0 0 128 0 128 255
2.80286 0.866198 4.15293 0 0 0 128 0 128 255
2.94285 1.28544 4.15332 0 0 0 128 0 128 255
2.80652 0.8829 4.1537 0 0 0 128 0 128 255
2.80748 0.885743 4.1537 0 0 0 128 0 128 255
2.97098 1.37199 4.1537 0 0 0 128 0 128 255
2.75291 0.732126 4.15486 0 0 0 128 0 128 255
2.96421 1.36055 4.15486 0 0 0 128 0 128 255
2.7502 0.729871 4.15562 0 0 0 128 0 128 255
2.75307 0.738402 4.15562 0 0 0 128 0 128 255
2.79259 0.855935 4.15562 0 0 0 128 0 128 255
2.98198 1.4221 4.15601 0 0 0 128 0 128 255
2.93752 1.29567 4.15678 0 0 0 128 0 128 255
2.89203 1.16327 4.15716 0 0 0 128 0 128 255
2.9376 1.29881 4.15716 0 0 0 128 0 128 255
2.911 1.22547 4.15793 0 0 0 128 0 128 255
2.74328 0.735362 4.15908 0 0 0 128 0 128 255
2.78256 0.855086 4.15947 0 0 0 128 0 128 255
2.97227 1.4222 4.15985 0 0 0 128 0 128 255
2.78559 0.869893 4.16024 0 0 0 128 0 128 255
2.94001 1.33493 4.16101 0 0 0 128 0 128 255
2.7974 0.92817 4.16331 0 0 0 128 0 128 255
2.83644 1.05008 4.16408 0 0 0 128 0 128 255
2.94456 1.37454 4.16446 0 0 0 128 0 128 255
2.7343 0.752098 4.16485 0 0 0 128 0 128 255
2.79183 0.928987 4.16562 0 0 0 128 0 128 255
2.73781 0.774128 4.16639 0 0 0 128 0 128 255
2.73757 0.776318 4.16677 0 0 0 128 0 128 255
2.72299 0.735854 4.16715 0 0 0 128 0 128 255
2.73702 0.77756 4.16715 0 0 0 128 0 128 255
2.94258 1.38893 4.16715 0 0 0 128 0 128 255
3.03955 1.68021 4.16754 0 0 0 128 0 128 255
2.93509 1.37245 4.16792 0 0 0 128 0 128 255
2.77399 0.899114 4.16869 0 0 0 128 0 128 255
2.77558 0.903853 4.16869 0 0 0 128 0 128 255
2.7218 0.746804 4.16908 0 0 0 128 0 128 255
2.783 0.928792 4.16908 0 0 0 128 0 128 255
2.93024 1.3667 4.16908 0 0 0 128 0 128 255
2.72157 0.748994 4.16946 0 0 0 128 0 128 255
2.99159 1.55496 4.16984 0 0 0 128 0 128 255
2.69464 0.674702 4.17023 0 0 0 128 0 128 255
2.77814 0.923039 4.17023 0 0 0 128 0 128 255
3.03055 1.67374 4.17023 0 0 0 128 0 128 255
2.76515 0.887315 4.17061 0 0 0 128 0 128 255
2.77981 0.930916 4.17061 0 0 0 128 0 128 255
2.7756 0.92706 4.17177 0 0 0 128 0 128 255
2.72341 0.77475 4.17215 0 0 0 128 0 128 255
2.92356 1.37 4.17215 0 0 0 128 0 128 255
2.92642 1.37853 4.17215 0 0 0 128 0 128 255
2.7646 0.900161 4.17253 0 0 0 128 0 128 255
3.00698 1.62681 4.1733 0 0 0 128 0 128 255
2.69123 0.69062 4.17369 0 0 0 128 0 128 255
2.69282 0.695359 4.17369 0 0 0 128 0 128 255
2.80708 1.04097 4.17446 0 0 0 128 0 128 255
2.68956 0.694346 4.17484 0 0 0 128 0 128 255
2.69051 0.697189 4.17484 0 0 0 128 0 128 255
2.80063 1.03047 4.17561 0 0 0 128 0 128 255
2.75936 0.913529 4.17638 0 0 0 128 0 128 255
2.76008 0.918563 4.17676 0 0 0 128 0 128 255
2.99337 1.61239 4.17676 0 0 0 128 0 128 255
2.74677 0.881891 4.17715 0 0 0 128 0 128 255
2.7514 0.901436 4.17792 0 0 0 128 0 128 255
2.99442 1.64158 4.18022 0 0 0 128 0 128 255
2.69301 0.759651 4.18214 0 0 0 128 0 128 255
2.72568 0.862608 4.18291 0 0 0 128 0 128 255
2.68752 0.752003 4.1833 0 0 0 128 0 128 255
2.98327 1.63161 4.1833 0 0 0 128 0 128 255
2.71668 0.844533 4.18406 0 0 0 128 0 128 255
2.71446 0.861105 4.18714 0 0 0 128 0 128 255
2.72363 0.897058 4.18829 0 0 0 128 0 128 255
2.72698 0.912812 4.18906 0 0 0 128 0 128 255
2.70555 0.857772 4.19021 0 0 0 128 0 128 255
2.72005 0.906701 4.19098 0 0 0 128 0 128 255
2.65002 0.70131 4.19137 0 0 0 128 0 128 255
2.70468 0.869669 4.19214 0 0 0 128 0 128 255
2.71743 0.907583 4.19214 0 0 0 128 0 128 255
2.82778 1.23868 4.19252 0 0 0 128 0 128 255
2.85981 1.33974 4.19329 0 0 0 128 0 128 255
2.94993 1.61645 4.19444 0 0 0 128 0 128 255
2.6976 0.868885 4.19483 0 0 0 128 0 128 255
2.82476 1.24708 4.19483 0 0 0 128 0 128 255
2.82165 1.24074 4.19521 0 0 0 128 0 128 255
2.82811 1.26283 4.19559 0 0 0 128 0 128 255
2.64382 0.723439 4.19675 0 0 0 128 0 128 255
2.63227 0.697782 4.1979 0 0 0 128 0 128 255
2.64247 0.728113 4.1979 0 0 0 128 0 128 255
2.92724 1.58082 4.19867 0 0 0 128 0 128 255
2.64056 0.734029 4.19944 0 0 0 128 0 128 255
2.84486 1.35321 4.20097 0 0 0 128 0 128 255
2.6248 0.704515 4.20174 0 0 0 128 0 128 255
2.81761 1.27797 4.20174 0 0 0 128 0 128 255
2.68066 0.885131 4.20367 0 0 0 128 0 128 255
2.83882 1.37001 4.20559 0 0 0 128 0 128 255
3.01188 1.88469 4.20559 0 0 0 128 0 128 255
2.63246 0.762074 4.20636 0 0 0 128 0 128 255
2.91738 1.60946 4.20636 0 0 0 128 0 128 255
2.66003 0.849865 4.20712 0 0 0 128 0 128 255
2.91882 1.61952 4.20712 0 0 0 128 0 128 255
2.59669 0.66438 4.20751 0 0 0 128 0 128 255
3.03778 1.97621 4.20751 0 0 0 128 0 128 255
2.79756 1.26467 4.20789 0 0 0 128 0 128 255
2.67279 0.899382 4.20866 0 0 0 128 0 128 255
2.82863 1.36288 4.20866 0 0 0 128 0 128 255
2.67319 0.903468 4.20905 0 0 0 128 0 128 255
2.62196 0.754001 4.20943 0 0 0 128 0 128 255
2.79055 1.25542 4.20943 0 0 0 128 0 128 255
2.91516 1.62603 4.20943 0 0 0 128 0 128 255
2.6708 0.902161 4.20981 0 0 0 128 0 128 255
2.67175 0.905004 4.20981 0 0 0 128 0 128 255
2.65447 0.862286 4.21097 0 0 0 128 0 128 255
2.91103 1.62531 4.21097 0 0 0 128 0 128 255
2.61822 0.757368 4.21135 0 0 0 128 0 128 255
2.65296 0.860684 4.21135 0 0 0 128 0 128 255
2.78825 1.26885 4.21212 0 0 0 128 0 128 255
2.59679 0.702327 4.2125 0 0 0 128 0 128 255
2.64938 0.858723 4.2125 0 0 0 128 0 128 255
2.91549 1.65018 4.2125 0 0 0 128 0 128 255
2.90315 1.61635 4.21289 0 0 0 128 0 128 255
2.79049 1.28709 4.21366 0 0 0 128 0 128 255
2.89853 1.60841 4.21366 0 0 0 128 0 128 255
2.61632 0.774887 4.21443 0 0 0 128 0 128 255
2.61194 0.764755 4.21481 0 0 0 128 0 128 255
2.61449 0.772338 4.21481 0 0 0 128 0 128 255
2.90172 1.62949 4.2152 0 0 0 128 0 128 255
2.90299 1.63328 4.2152 0 0 0 128 0 128 255
3.03255 2.02439 4.21596 0 0 0 128 0 128 255
2.63075 0.832282 4.21635 0 0 0 128 0 128 255
2.62876 0.83506 4.2175 0 0 0 128 0 128 255
2.90093 1.64453 4.2175 0 0 0 128 0 128 255
3.02618 2.01703 4.2175 0 0 0 128 0 128 255
3.01997 2.00435 4.21827 0 0 0 128 0 128 255
3.05694 2.1143 4.21827 0 0 0 128 0 128 255
2.5902 0.731973 4.21904 0 0 0 128 0 128 255
2.89743 1.6457 4.21904 0 0 0 128 0 128 255
3.023 2.01916 4.21904 0 0 0 128 0 128 255
2.81441 1.40459 4.21981 0 0 0 128 0 128 255
2.78406 1.32301 4.22096 0 0 0 128 0 128 255
3.03655 2.07685 4.22134 0 0 0 128 0 128 255
2.67299 0.998484 4.22173 0 0 0 128 0 128 255
3.03345 2.07051 4.22173 0 0 0 128 0 128 255
3.02795 2.06286 4.22288 0 0 0 128 0 128 255
3.03664 2.09159 4.22327 0 0 0 128 0 128 255
2.80885 1.41701 4.22365 0 0 0 128 0 128 255
3.02214 2.05426 4.22403 0 0 0 128 0 128 255
2.76726 1.29912 4.22442 0 0 0 128 0 128 255
2.56791 0.712037 4.22519 0 0 0 128 0 128 255
2.7585 1.27885 4.22519 0 0 0 128 0 128 255
2.55684 0.682 4.22557 0 0 0 128 0 128 255
2.7079 1.13128 4.22557 0 0 0 128 0 128 255
2.62576 0.889874 4.22596 0 0 0 128 0 128 255
2.62457 0.88922 4.22634 0 0 0 128 0 128 255
2.76926 1.31955 4.22634 0 0 0 128 0 128 255
3.02613 2.08352 4.22634 0 0 0 128 0 128 255
2.55613 0.688569 4.22672 0 0 0 128 0 128 255
2.5574 0.692361 4.22672 0 0 0 128 0 128 255
2.62019 0.879088 4.22672 0 0 0 128 0 128 255
2.62624 0.897097 4.22672 0 0 0 128 0 128 255
2.62218 0.887913 4.22711 0 0 0 128 0 128 255
2.7691 1.32487 4.22711 0 0 0 128 0 128 255
2.62075 0.889449 4.22788 0 0 0 128 0 128 255
2.76568 1.32919 4.22903 0 0 0 128 0 128 255
2.75811 1.30958 4.22941 0 0 0 128 0 128 255
2.79038 1.40845 4.2298 0 0 0 128 0 128 255
2.56164 0.731027 4.23018 0 0 0 128 0 128 255
2.76656 1.3405 4.23018 0 0 0 128 0 128 255
2.56044 0.730374 4.23057 0 0 0 128 0 128 255
2.75868 1.31994 4.23057 0 0 0 128 0 128 255
2.76696 1.34458 4.23057 0 0 0 128 0 128 255
2.78322 1.39292 4.23057 0 0 0 128 0 128 255
2.78561 1.40583 4.23134 0 0 0 128 0 128 255
2.75741 1.32775 4.23211 0 0 0 128 0 128 255
2.58292 0.814602 4.23287 0 0 0 128 0 128 255
2.75056 1.31317 4.23287 0 0 0 128 0 128 255
2.74426 1.29735 4.23326 0 0 0 128 0 128 255
2.73646 1.27993 4.23403 0 0 0 128 0 128 255
2.91302 1.80505 4.23403 0 0 0 128 0 128 255
2.52508 0.659972 4.23518 0 0 0 128 0 128 255
2.64746 1.02395 4.23518 0 0 0 128 0 128 255
2.71599 1.22774 4.23518 0 0 0 128 0 128 255
2.77845 1.41352 4.23518 0 0 0 128 0 128 255
2.90968 1.8125 4.23633 0 0 0 128 0 128 255
2.90283 1.79792 4.2371 0 0 0 128 0 128 255
2.92778 1.88659 4.23902 0 0 0 128 0 128 255
2.76755 1.41296 4.23941 0 0 0 128 0 128 255
2.56797 0.82807 4.24056 0 0 0 128 0 128 255
2.5702 0.834705 4.24056 0 0 0 128 0 128 255
2.76819 1.42646 4.24094 0 0 0 128 0 128 255
2.76294 1.41662 4.24171 0 0 0 128 0 128 255
2.88891 1.79416 4.2421 0 0 0 128 0 128 255
2.69107 1.20868 4.24248 0 0 0 128 0 128 255
2.56718 0.843105 4.24287 0 0 0 128 0 128 255
2.57833 0.87628 4.24287 0 0 0 128 0 128 255
2.7106 1.26964 4.24287 0 0 0 128 0 128 255
2.71346 1.27817 4.24287 0 0 0 128 0 128 255
2.6667 1.14197 4.24325 0 0 0 128 0 128 255
2.66956 1.1505 4.24325 0 0 0 128 0 128 255
2.92238 1.90529 4.24364 0 0 0 128 0 128 255
2.52201 0.723251 4.24479 0 0 0 128 0 128 255
2.6973 1.24457 4.24479 0 0 0 128 0 128 255
2.90804 1.87424 4.24517 0 0 0 128 0 128 255
2.90995 1.87993 4.24517 0 0 0 128 0 128 255
2.722 1.32383 4.24556 0 0 0 128 0 128 255
2.51692 0.719689 4.24633 0 0 0 128 0 128 255
2.56002 0.850787 4.24671 0 0 0 128 0 128 255
2.56193 0.856474 4.24671 0 0 0 128 0 128 255
2.6977 1.26026 4.24671 0 0 0 128 0 128 255
2.55891 0.853271 4.24748 0 0 0 128 0 128 255
2.9114 1.9016 4.24748 0 0 0 128 0 128 255
2.56226 0.869025 4.24825 0 0 0 128 0 128 255
2.71572 1.33122 4.24902 0 0 0 128 0 128 255
2.56378 0.88223 4.2494 0 0 0 128 0 128 255
2.56354 0.88442 4.24978 0 0 0 128 0 128 255
2.67493 1.2215 4.25055 0 0 0 128 0 128 255
2.7068 1.31628 4.25055 0 0 0 128 0 128 255
2.89523 1.8796 4.25094 0 0 0 128 0 128 255
2.4916 0.684946 4.25171 0 0 0 128 0 128 255
2.55151 0.863142 4.25171 0 0 0 128 0 128 255
2.55343 0.868829 4.25171 0 0 0 128 0 128 255
2.904 1.91147 4.25171 0 0 0 128 0 128 255
2.89325 1.88238 4.25209 0 0 0 128 0 128 255
2.53798 0.840263 4.25401 0 0 0 128 0 128 255
2.8774 1.86133 4.25555 0 0 0 128 0 128 255
2.69997 1.33651 4.25593 0 0 0 128 0 128 255
2.53855 0.862228 4.2567 0 0 0 128 0 128 255
2.70093 1.35096 4.25747 0 0 0 128 0 128 255
2.76308 1.53579 4.25747 0 0 0 128 0 128 255
2.54102 0.878276 4.25786 0 0 0 128 0 128 255
2.69639 1.34616 4.25862 0 0 0 128 0 128 255
2.6952 1.3455 4.25901 0 0 0 128 0 128 255
2.70101 1.3657 4.25939 0 0 0 128 0 128 255
2.6995 1.3641 4.25978 0 0 0 128 0 128 255
2.52876 0.859189 4.26016 0 0 0 128 0 128 255
2.53768 0.885729 4.26016 0 0 0 128 0 128 255
2.47315 0.69959 4.26093 0 0 0 128 0 128 255
2.69656 1.36404 4.26093 0 0 0 128 0 128 255
2.57872 1.01647 4.26131 0 0 0 128 0 128 255
2.67792 1.31439 4.2617 0 0 0 128 0 128 255
2.68437 1.33648 4.26208 0 0 0 128 0 128 255
2.70446 1.4078 4.26362 0 0 0 128 0 128 255
2.50758 0.825165 4.264 0 0 0 128 0 128 255
2.69243 1.37492 4.264 0 0 0 128 0 128 255
2.67211 1.3174 4.26439 0 0 0 128 0 128 255
2.68574 1.36662 4.26554 0 0 0 128 0 128 255
2.66129 1.31998 4.269 0 0 0 128 0 128 255
2.66153 1.32939 4.27015 0 0 0 128 0 128 255
2.70448 1.46582 4.27131 0 0 0 128 0 128 255
2.63668 1.26706 4.27169 0 0 0 128 0 128 255
2.49766 0.873867 4.27438 0 0 0 128 0 128 255
2.65478 1.34116 4.27438 0 0 0 128 0 128 255
2.66466 1.37054 4.27438 0 0 0 128 0 128 255
2.6441 1.31521 4.27515 0 0 0 128 0 128 255
2.61192 1.23108 4.27669 0 0 0 128 0 128 255
2.6457 1.33155 4.27669 0 0 0 128 0 128 255
2.59766 1.19156 4.27707 0 0 0 128 0 128 255
2.48763 0.873018 4.27822 0 0 0 128 0 128 255
2.66101 1.38865 4.27822 0 0 0 128 0 128 255
2.6528 1.36714 4.27861 0 0 0 128 0 128 255
2.81383 1.84895 4.27899 0 0 0 128 0 128 255
2.47736 0.851152 4.27938 0 0 0 128 0 128 255
2.62755 1.30073 4.27976 0 0 0 128 0 128 255
2.65552 1.39261 4.28091 0 0 0 128 0 128 255
2.42168 0.711622 4.28284 0 0 0 128 0 128 255
2.62692 1.32204 4.28284 0 0 0 128 0 128 255
2.62804 1.33116 4.28361 0 0 0 128 0 128 255
2.65481 1.41078 4.28361 0 0 0 128 0 128 255
2.6466 1.38927 4.28399 0 0 0 128 0 128 255
2.58343 1.22167 4.28668 0 0 0 128 0 128 255
2.57754 1.20993 4.28745 0 0 0 128 0 128 255
2.58885 1.24938 4.28822 0 0 0 128 0 128 255
2.60925 1.31005 4.28822 0 0 0 128 0 128 255
2.63475 1.38587 4.28822 0 0 0 128 0 128 255
2.61889 1.34162 4.2886 0 0 0 128 0 128 255
2.63674 1.3947 4.2886 0 0 0 128 0 128 255
2.70526 1.59849 4.2886 0 0 0 128 0 128 255
2.63723 1.41353 4.29091 0 0 0 128 0 128 255
2.60002 1.30576 4.29129 0 0 0 128 0 128 255
2.69675 1.59924 4.29206 0 0 0 128 0 128 255
2.66114 1.49622 4.29244 0 0 0 128 0 128 255
2.66481 1.52452 4.29475 0 0 0 128 0 128 255
2.55439 1.2135 4.29706 0 0 0 128 0 128 255
2.58275 1.29786 4.29706 0 0 0 128 0 128 255
2.60857 1.37463 4.29706 0 0 0 128 0 128 255
2.60117 1.3729 4.29975 0 0 0 128 0 128 255
2.57583 1.30335 4.30052 0 0 0 128 0 128 255
2.58882 1.35067 4.30167 0 0 0 128 0 128 255
2.66133 1.57211 4.30244 0 0 0 128 0 128 255
2.66644 1.59888 4.30397 0 0 0 128 0 128 255
2.53457 1.20961 4.30436 0 0 0 128 0 128 255
2.75265 1.86108 4.30474 0 0 0 128 0 128 255
2.66094 1.59123 4.30513 0 0 0 128 0 128 255
2.5823 1.36025 4.30551 0 0 0 128 0 128 255
2.54573 1.25439 4.3059 0 0 0 128 0 128 255
2.5835 1.37251 4.30666 0 0 0 128 0 128 255
2.63864 1.53649 4.30666 0 0 0 128 0 128 255
2.64685 1.5696 4.30782 0 0 0 128 0 128 255
2.65673 1.59898 4.30782 0 0 0 128 0 128 255
2.56805 1.34394 4.30897 0 0 0 128 0 128 255
2.542 1.26936 4.30936 0 0 0 128 0 128 255
2.56527 1.33855 4.30936 0 0 0 128 0 128 255
2.63092 1.53381 4.30936 0 0 0 128 0 128 255
2.63506 1.54613 4.30936 0 0 0 128 0 128 255
2.72797 1.82823 4.31012 0 0 0 128 0 128 255
2.56455 1.34512 4.31051 0 0 0 128 0 128 255
2.62511 1.52521 4.31051 0 0 0 128 0 128 255
2.65985 1.62853 4.31051 0 0 0 128 0 128 255
2.63977 1.58042 4.31205 0 0 0 128 0 128 255
2.48624 1.12669 4.31243 0 0 0 128 0 128 255
2.62767 1.556 4.31358 0 0 0 128 0 128 255
2.54138 1.30227 4.31397 0 0 0 128 0 128 255
2.64425 1.61689 4.31512 0 0 0 128 0 128 255
2.5484 1.33473 4.3155 0 0 0 128 0 128 255
2.70775 1.82026 4.31704 0 0 0 128 0 128 255
2.54466 1.33809 4.31743 0 0 0 128 0 128 255
2.50841 1.23318 4.31781 0 0 0 128 0 128 255
2.52052 1.26919 4.31781 0 0 0 128 0 128 255
2.71206 1.83886 4.31781 0 0 0 128 0 128 255
2.7064 1.82493 4.31819 0 0 0 128 0 128 255
2.47066 1.14986 4.32165 0 0 0 128 0 128 255
2.70881 1.86105 4.32204 0 0 0 128 0 128 255
2.51584 1.29292 4.32281 0 0 0 128 0 128 255
2.50158 1.25341 4.32319 0 0 0 128 0 128 255
2.51114 1.28184 4.32319 0 0 0 128 0 128 255
2.703 1.85245 4.32319 0 0 0 128 0 128 255
2.51505 1.31956 4.32665 0 0 0 128 0 128 255
2.49952 1.27626 4.32703 0 0 0 128 0 128 255
2.69815 1.86991 4.32742 0 0 0 128 0 128 255
2.5043 1.30208 4.32857 0 0 0 128 0 128 255
2.50653 1.30871 4.32857 0 0 0 128 0 128 255
2.58685 1.54757 4.32857 0 0 0 128 0 128 255
2.62581 1.66635 4.32896 0 0 0 128 0 128 255
2.4961 1.29217 4.33049 0 0 0 128 0 128 255
2.4918 1.28518 4.33126 0 0 0 128 0 128 255
2.45428 1.17647 4.33165 0 0 0 128 0 128 255
2.53021 1.4052 4.33203 0 0 0 128 0 128 255
2.48282 1.29031 4.33549 0 0 0 128 0 128 255
2.51907 1.40683 4.33664 0 0 0 128 0 128 255
2.666 1.84379 4.33664 0 0 0 128 0 128 255
2.65843 1.82418 4.33703 0 0 0 128 0 128 255
2.66385 1.8403 4.33703 0 0 0 128 0 128 255
2.48856 1.33058 4.33856 0 0 0 128 0 128 255
2.50889 1.39971 4.33972 0 0 0 128 0 128 255
2.6535 1.8385 4.34087 0 0 0 128 0 128 255
2.40141 1.10035 4.34241 0 0 0 128 0 128 255
2.64243 1.82007 4.34279 0 0 0 128 0 128 255
2.49631 1.39128 4.34356 0 0 0 128 0 128 255
2.48724 1.38167 4.34587 0 0 0 128 0 128 255
2.49122 1.39932 4.34663 0 0 0 128 0 128 255
2.48955 1.40304 4.34779 0 0 0 128 0 128 255
2.52522 1.61049 4.36124 0 0 0 128 0 128 255
2.5284 1.61997 4.36124 0 0 0 128 0 128 255
2.49161 1.55111 4.36662 0 0 0 128 0 128 255
2.41683 1.38952 4.37469 0 0 0 128 0 128 255
2.5064 1.69067 4.3793 0 0 0 128 0 128 255
2.45016 1.55239 4.38315 0 0 0 128 0 128 255
2.44921 1.56115 4.38468 0 0 0 128 0 128 255
2.45718 1.59644 4.38622 0 0 0 128 0 128 255
2.52252 1.80236 4.38776 0 0 0 128 0 128 255
2.51559 1.78464 4.38814 0 0 0 128 0 128 255
2.48365 1.70993 4.39083 0 0 0 128 0 128 255
2.48086 1.70453 4.39122 0 0 0 128 0 128 255
2.38162 1.4731 4.39967 0 0 0 128 0 128 255
2.37804 1.47113 4.40083 0 0 0 128 0 128 255
2.40785 1.58877 4.40467 0 0 0 128 0 128 255
2.39456 1.5753 4.40813 0 0 0 128 0 128 255
2.41798 1.65077 4.4089 0 0 0 128 0 128 255
2.42643 1.68169 4.40966 0 0 0 128 0 128 255
2.37521 1.54383 4.41159 0 0 0 128 0 128 255
2.2404 1.15449 4.41312 0 0 0 128 0 128 255
2.40549 1.64548 4.41312 0 0 0 128 0 128 255
2.40916 1.67378 4.41543 0 0 0 128 0 128 255
2.35659 1.54059 4.4185 0 0 0 128 0 128 255
2.2413 1.20061 4.41889 0 0 0 128 0 128 255
2.34393 1.52902 4.42196 0 0 0 128 0 128 255
2.34681 1.54916 4.4235 0 0 0 128 0 128 255
2.19232 1.09258 4.42388 0 0 0 128 0 128 255
2.41923 1.76746 4.42388 0 0 0 128 0 128 255
2.35661 1.58701 4.42465 0 0 0 128 0 128 255
2.34451 1.56259 4.42619 0 0 0 128 0 128 255
2.29704 1.45617 4.4308 0 0 0 128 0 128 255
2.38223 1.7588 4.43734 0 0 0 128 0 128 255
2.15295 1.12903 4.44425 0 0 0 128 0 128 255
2.30887 1.75498 4.46578 0 0 0 128 0 128 255
1.94909 0.754471 4.475 0 0 0 128 0 128 255
1.95778 0.783201 4.47538 0 0 0 128 0 128 255
1.95371 0.774016 4.47577 0 0 0 128 0 128 255
2.12693 1.29498 4.47654 0 0 0 128 0 128 255
2.02599 1.02085 4.48 0 0 0 128 0 128 255
2.01573 1.02219 4.48422 0 0 0 128 0 128 255
1.93606 0.796832 4.48576 0 0 0 128 0 128 255
2.10013 1.31665 4.48999 0 0 0 128 0 128 255
1.94732 0.891161 4.49383 0 0 0 128 0 128 255
1.90837 0.783988 4.49498 0 0 0 128 0 128 255
1.95036 0.917571 4.49614 0 0 0 128 0 128 255
2.051 1.23716 4.49883 0 0 0 128 0 128 255
1.95021 0.946105 4.49998 0 0 0 128 0 128 255
1.97165 1.01275 4.50037 0 0 0 128 0 128 255
1.97556 1.03886 4.50229 0 0 0 128 0 128 255
1.91836 0.874526 4.50306 0 0 0 128 0 128 255
1.93047 0.910545 4.50306 0 0 0 128 0 128 255
1.90896 0.852366 4.50382 0 0 0 128 0 128 255
1.96609 1.02517 4.50421 0 0 0 128 0 128 255
1.92012 0.897144 4.50536 0 0 0 128 0 128 255
1.89551 0.844229 4.50805 0 0 0 128 0 128 255
1.91195 0.956861 4.51651 0 0 0 128 0 128 255
1.89737 0.916398 4.51689 0 0 0 128 0 128 255
1.89012 0.897735 4.51728 0 0 0 128 0 128 255
1.93546 1.03547 4.51766 0 0 0 128 0 128 255
1.93331 1.03197 4.51804 0 0 0 128 0 128 255
1.8938 0.937643 4.52112 0 0 0 128 0 128 255
1.88153 0.906953 4.52189 0 0 0 128 0 128 255
2.09228 1.53662 4.52227 0 0 0 128 0 128 255
1.87907 0.914111 4.52381 0 0 0 128 0 128 255
2.08655 1.53116 4.52381 0 0 0 128 0 128 255
1.96233 1.16464 4.52419 0 0 0 128 0 128 255
1.86983 0.898226 4.52535 0 0 0 128 0 128 255
1.87908 0.937317 4.52688 0 0 0 128 0 128 255
1.87287 0.924636 4.52765 0 0 0 128 0 128 255
1.9586 1.17961 4.52765 0 0 0 128 0 128 255
1.95988 1.1834 4.52765 0 0 0 128 0 128 255
1.95876 1.18588 4.52842 0 0 0 128 0 128 255
1.92419 1.10045 4.53073 0 0 0 128 0 128 255
1.94309 1.18271 4.53419 0 0 0 128 0 128 255
1.92031 1.13235 4.53649 0 0 0 128 0 128 255
1.92772 1.15729 4.53688 0 0 0 128 0 128 255
1.909 1.1045 4.53726 0 0 0 128 0 128 255
1.93864 1.19265 4.53726 0 0 0 128 0 128 255
1.96501 1.27979 4.53841 0 0 0 128 0 128 255
1.92311 1.16095 4.53918 0 0 0 128 0 128 255
1.93466 1.19821 4.53957 0 0 0 128 0 128 255
1.89715 1.11271 4.54303 0 0 0 128 0 128 255
1.90193 1.12692 4.54303 0 0 0 128 0 128 255
1.90655 1.14647 4.54379 0 0 0 128 0 128 255
1.90083 1.16422 4.54841 0 0 0 128 0 128 255
1.90115 1.16517 4.54841 0 0 0 128 0 128 255
2.04147 1.59696 4.55033 0 0 0 128 0 128 255
1.95757 1.35614 4.55148 0 0 0 128 0 128 255
1.73226 0.720819 4.55609 0 0 0 128 0 128 255
1.69117 0.633356 4.5607 0 0 0 128 0 128 255
1.91936 1.31202 4.5607 0 0 0 128 0 128 255
1.9067 1.28885 4.56263 0 0 0 128 0 128 255
1.90702 1.28979 4.56263 0 0 0 128 0 128 255
1.89794 1.26858 4.5634 0 0 0 128 0 128 255
1.68225 0.630023 4.56378 0 0 0 128 0 128 255
1.9173 1.33487 4.56455 0 0 0 128 0 128 255
1.7217 0.756022 4.56493 0 0 0 128 0 128 255
1.90472 1.30323 4.56532 0 0 0 128 0 128 255
2.04654 1.72502 4.56532 0 0 0 128 0 128 255
2.04351 1.72182 4.56609 0 0 0 128 0 128 255
1.89118 1.28035 4.56762 0 0 0 128 0 128 255
1.88242 1.26009 4.56839 0 0 0 128 0 128 255
1.92991 1.42452 4.57147 0 0 0 128 0 128 255
1.86474 1.23649 4.57223 0 0 0 128 0 128 255
1.93358 1.44122 4.57223 0 0 0 128 0 128 255
1.88172 1.28986 4.57262 0 0 0 128 0 128 255
2.03374 1.74199 4.57262 0 0 0 128 0 128 255
1.90315 1.35651 4.573 0 0 0 128 0 128 255
1.90013 1.36491 4.57531 0 0 0 128 0 128 255
1.956 1.55712 4.57877 0 0 0 128 0 128 255
1.64343 0.630418 4.57915 0 0 0 128 0 128 255
1.87098 1.30719 4.57915 0 0 0 128 0 128 255
1.8682 1.30179 4.57954 0 0 0 128 0 128 255
1.90038 1.39753 4.57954 0 0 0 128 0 128 255
1.90293 1.40511 4.57954 0 0 0 128 0 128 255
1.9297 1.48473 4.57954 0 0 0 128 0 128 255
1.91513 1.44427 4.57992 0 0 0 128 0 128 255
1.73036 0.897647 4.58031 0 0 0 128 0 128 255
1.90158 1.40978 4.58069 0 0 0 128 0 128 255
1.8682 1.3134 4.58107 0 0 0 128 0 128 255
1.72614 0.893791 4.58146 0 0 0 128 0 128 255
1.86462 1.31144 4.58223 0 0 0 128 0 128 255
1.86494 1.31238 4.58223 0 0 0 128 0 128 255
1.86719 1.35383 4.58684 0 0 0 128 0 128 255
1.8687 1.36703 4.58799 0 0 0 128 0 128 255
1.91525 1.52863 4.59107 0 0 0 128 0 128 255
1.94307 1.64904 4.59606 0 0 0 128 0 128 255
1.93511 1.64855 4.59914 0 0 0 128 0 128 255
1.81092 1.31683 4.60413 0 0 0 128 0 128 255
1.87541 1.59266 4.61528 0 0 0 128 0 128 255
1.88708 1.69107 4.62373 0 0 0 128 0 128 255
1.89107 1.72033 4.62604 0 0 0 128 0 128 255
1.90924 1.77436 4.62604 0 0 0 128 0 128 255
1.89069 1.75105 4.63027 0 0 0 128 0 128 255
1.89969 1.78073 4.63065 0 0 0 128 0 128 255
1.53589 0.704555 4.63142 0 0 0 128 0 128 255
1.88241 1.74961 4.63334 0 0 0 128 0 128 255
1.85972 1.71399 4.63757 0 0 0 128 0 128 255
1.85584 1.74589 4.64333 0 0 0 128 0 128 255
1.84525 1.74628 4.64756 0 0 0 128 0 128 255
1.85976 1.79521 4.64833 0 0 0 128 0 128 255
1.86135 1.79995 4.64833 0 0 0 128 0 128 255
1.8596 1.80054 4.6491 0 0 0 128 0 128 255
1.84215 1.75155 4.64948 0 0 0 128 0 128 255
1.84614 1.76919 4.65025 0 0 0 128 0 128 255
1.83692 1.78812 4.6564 0 0 0 128 0 128 255
1.81199 1.73426 4.65909 0 0 0 128 0 128 255
1.8316 1.82156 4.66294 0 0 0 128 0 128 255
1.80964 1.80257 4.66908 0 0 0 128 0 128 255
1.82647 1.89608 4.67485 0 0 0 128 0 128 255
1.82376 1.89383 4.67562 0 0 0 128 0 128 255
