ply
format ascii 1.0
comment VCGLIB generated
element vertex 212
property float x
property float y
property float z
property float nx
property float ny
property float nz
property uchar red
property uchar green
property uchar blue
property uchar alpha
element face 0
property list uchar int vertex_indices
end_header
3.85688 0.83173 3.10977 0 0 0 128 128 128 255
3.88735 1.09063 3.16462 0 0 0 128 128 128 255
3.88858 1.14538 3.19109 0 0 0 128 128 128 255
3.84877 1.03286 3.2431 0 0 0 128 128 128 255
3.88009 1.26512 3.28092 0 0 0 128 128 128 255
3.91156 1.45153 3.29322 0 0 0 128 128 128 255
3.90727 1.45337 3.30645 0 0 0 128 128 128 255
3.91485 1.52218 3.32253 0 0 0 128 128 128 255
3.91305 1.54391 3.33955 0 0 0 128 128 128 255
3.91031 1.54341 3.34712 0 0 0 128 128 128 255
3.92342 1.81888 3.46059 0 0 0 128 128 128 255
3.84055 1.38879 3.46153 0 0 0 128 128 128 255
3.83921 1.38701 3.46437 0 0 0 128 128 128 255
3.92159 1.83349 3.47383 0 0 0 128 128 128 255
3.78681 1.1364 3.47666 0 0 0 128 128 128 255
3.92641 1.88449 3.48801 0 0 0 128 128 128 255
3.77316 1.09116 3.49085 0 0 0 128 128 128 255
3.76869 1.06961 3.49179 0 0 0 128 128 128 255
3.91247 1.82913 3.49747 0 0 0 128 128 128 255
3.76921 1.08784 3.5003 0 0 0 128 128 128 255
3.76334 1.06759 3.50598 0 0 0 128 128 128 255
3.75296 1.03598 3.51827 0 0 0 128 128 128 255
3.93896 2.03278 3.5334 0 0 0 128 128 128 255
3.89135 1.80365 3.5438 0 0 0 128 128 128 255
3.93413 2.02658 3.5438 0 0 0 128 128 128 255
3.89262 1.82581 3.55231 0 0 0 128 128 128 255
3.89984 1.86515 3.55326 0 0 0 128 128 128 255
3.88682 1.80249 3.55609 0 0 0 128 128 128 255
3.69303 0.803098 3.56177 0 0 0 128 128 128 255
3.69686 0.824765 3.56271 0 0 0 128 128 128 255
3.88437 1.80703 3.56555 0 0 0 128 128 128 255
3.88607 1.81587 3.56555 0 0 0 128 128 128 255
3.6815 0.75338 3.56744 0 0 0 128 128 128 255
3.88474 1.81409 3.56838 0 0 0 128 128 128 255
3.6882 0.796898 3.57217 0 0 0 128 128 128 255
3.70301 0.877551 3.57406 0 0 0 128 128 128 255
3.67942 0.76498 3.57973 0 0 0 128 128 128 255
3.69302 0.847903 3.58635 0 0 0 128 128 128 255
3.69666 0.868588 3.5873 0 0 0 128 128 128 255
3.69747 0.874542 3.58824 0 0 0 128 128 128 255
3.67528 0.760683 3.58919 0 0 0 128 128 128 255
3.72888 1.05893 3.59959 0 0 0 128 128 128 255
3.6485 0.648725 3.60432 0 0 0 128 128 128 255
3.67856 0.81402 3.60905 0 0 0 128 128 128 255
3.68144 0.85318 3.62228 0 0 0 128 128 128 255
3.69731 0.942794 3.62607 0 0 0 128 128 128 255
3.71656 1.05518 3.63269 0 0 0 128 128 128 255
3.71651 1.07046 3.6412 0 0 0 128 128 128 255
3.94719 2.27762 3.64403 0 0 0 128 128 128 255
3.73096 1.16646 3.65254 0 0 0 128 128 128 255
3.69144 0.96225 3.65349 0 0 0 128 128 128 255
3.69502 0.980909 3.65349 0 0 0 128 128 128 255
3.68381 0.93113 3.65822 0 0 0 128 128 128 255
3.63083 0.66026 3.66105 0 0 0 128 128 128 255
3.94532 2.30242 3.66294 0 0 0 128 128 128 255
3.94405 2.30266 3.66673 0 0 0 128 128 128 255
3.77655 1.43162 3.66767 0 0 0 128 128 128 255
3.72647 1.17241 3.66862 0 0 0 128 128 128 255
3.72199 1.15596 3.6724 0 0 0 128 128 128 255
3.87639 1.96741 3.67618 0 0 0 128 128 128 255
3.87594 1.96851 3.67807 0 0 0 128 128 128 255
3.89604 2.07666 3.67996 0 0 0 128 128 128 255
3.80455 1.60342 3.68186 0 0 0 128 128 128 255
3.77344 1.44647 3.68469 0 0 0 128 128 128 255
3.8998 2.11871 3.69226 0 0 0 128 128 128 255
3.81712 1.6896 3.6932 0 0 0 128 128 128 255
3.94547 2.35839 3.6932 0 0 0 128 128 128 255
3.89482 2.09624 3.69415 0 0 0 128 128 128 255
3.77501 1.47366 3.69509 0 0 0 128 128 128 255
3.69992 1.08587 3.69699 0 0 0 128 128 128 255
3.79667 1.5917 3.69793 0 0 0 128 128 128 255
3.65122 0.835559 3.69888 0 0 0 128 128 128 255
3.79616 1.59078 3.69888 0 0 0 128 128 128 255
3.69482 1.06444 3.69982 0 0 0 128 128 128 255
3.79697 1.59673 3.69982 0 0 0 128 128 128 255
3.63425 0.752266 3.70171 0 0 0 128 128 128 255
3.76184 1.41713 3.70171 0 0 0 128 128 128 255
3.71045 1.15105 3.70266 0 0 0 128 128 128 255
3.76215 1.42217 3.7036 0 0 0 128 128 128 255
3.8905 2.09096 3.7036 0 0 0 128 128 128 255
3.89088 2.09293 3.7036 0 0 0 128 128 128 255
3.69058 1.051 3.70455 0 0 0 128 128 128 255
3.71075 1.15608 3.70455 0 0 0 128 128 128 255
3.70666 1.1365 3.7055 0 0 0 128 128 128 255
3.76119 1.42235 3.70644 0 0 0 128 128 128 255
3.8899 2.0982 3.70928 0 0 0 128 128 128 255
3.76826 1.46783 3.71117 0 0 0 128 128 128 255
3.76472 1.45629 3.71495 0 0 0 128 128 128 255
3.7042 1.14614 3.71779 0 0 0 128 128 128 255
3.79573 1.6265 3.71968 0 0 0 128 128 128 255
3.63407 0.785901 3.72063 0 0 0 128 128 128 255
3.77813 1.53823 3.72157 0 0 0 128 128 128 255
3.79019 1.60109 3.72157 0 0 0 128 128 128 255
3.78916 1.60434 3.7263 0 0 0 128 128 128 255
3.75503 1.43168 3.72914 0 0 0 128 128 128 255
3.70363 1.1656 3.73008 0 0 0 128 128 128 255
3.7042 1.16854 3.73008 0 0 0 128 128 128 255
3.75262 1.42603 3.73292 0 0 0 128 128 128 255
3.69199 1.11183 3.73386 0 0 0 128 128 128 255
3.69813 1.14731 3.73575 0 0 0 128 128 128 255
3.75215 1.43223 3.73765 0 0 0 128 128 128 255
3.80624 1.71409 3.73765 0 0 0 128 128 128 255
3.68756 1.0974 3.73859 0 0 0 128 128 128 255
3.68819 1.10237 3.73954 0 0 0 128 128 128 255
3.75377 1.44414 3.73954 0 0 0 128 128 128 255
3.70325 1.18604 3.74237 0 0 0 128 128 128 255
3.67916 1.06745 3.74616 0 0 0 128 128 128 255
3.80456 1.72256 3.7471 0 0 0 128 128 128 255
3.79713 1.68732 3.74899 0 0 0 128 128 128 255
3.74008 1.39178 3.74994 0 0 0 128 128 128 255
3.67625 1.06088 3.75088 0 0 0 128 128 128 255
3.80251 1.72397 3.75372 0 0 0 128 128 128 255
3.73709 1.38828 3.75656 0 0 0 128 128 128 255
3.67514 1.0672 3.7575 0 0 0 128 128 128 255
3.59057 0.628275 3.75845 0 0 0 128 128 128 255
3.738 1.40338 3.76223 0 0 0 128 128 128 255
3.73749 1.40246 3.76318 0 0 0 128 128 128 255
3.64313 0.912464 3.76412 0 0 0 128 128 128 255
3.7313 1.38227 3.7698 0 0 0 128 128 128 255
3.68348 1.13484 3.77074 0 0 0 128 128 128 255
3.735 1.40498 3.77169 0 0 0 128 128 128 255
3.68207 1.13613 3.77547 0 0 0 128 128 128 255
3.68213 1.13816 3.77642 0 0 0 128 128 128 255
3.59033 0.664979 3.77925 0 0 0 128 128 128 255
3.6808 1.13638 3.77925 0 0 0 128 128 128 255
3.67568 1.12005 3.78493 0 0 0 128 128 128 255
3.68088 1.15062 3.78682 0 0 0 128 128 128 255
3.72527 1.39055 3.79155 0 0 0 128 128 128 255
3.7252 1.39362 3.79344 0 0 0 128 128 128 255
3.72041 1.37214 3.79533 0 0 0 128 128 128 255
3.57112 0.599424 3.79816 0 0 0 128 128 128 255
3.66914 1.12741 3.80762 0 0 0 128 128 128 255
3.56352 0.580519 3.80951 0 0 0 128 128 128 255
3.66924 1.13656 3.81235 0 0 0 128 128 128 255
3.66961 1.13852 3.81235 0 0 0 128 128 128 255
3.66451 1.1171 3.81518 0 0 0 128 128 128 255
3.66815 1.13779 3.81613 0 0 0 128 128 128 255
3.66557 1.12606 3.81708 0 0 0 128 128 128 255
3.71442 1.38754 3.82086 0 0 0 128 128 128 255
3.71359 1.38668 3.82275 0 0 0 128 128 128 255
3.6597 1.12312 3.83221 0 0 0 128 128 128 255
3.59598 0.796267 3.83504 0 0 0 128 128 128 255
3.58513 0.793258 3.86436 0 0 0 128 128 128 255
3.59846 0.980094 3.92866 0 0 0 128 128 128 255
3.573 0.852608 3.93149 0 0 0 128 128 128 255
3.56771 0.830204 3.93433 0 0 0 128 128 128 255
3.56553 0.832659 3.94189 0 0 0 128 128 128 255
3.67955 1.48893 3.97594 0 0 0 128 128 128 255
3.59499 1.06731 3.98634 0 0 0 128 128 128 255
3.73914 1.82879 3.99201 0 0 0 128 128 128 255
3.7419 1.84659 3.9939 0 0 0 128 128 128 255
3.54285 0.81461 3.99674 0 0 0 128 128 128 255
3.57935 1.02551 4.00809 0 0 0 128 128 128 255
3.59213 1.14219 4.03551 0 0 0 128 128 128 255
3.58433 1.1274 4.04969 0 0 0 128 128 128 255
3.54317 0.916374 4.05158 0 0 0 128 128 128 255
3.53286 0.864385 4.05253 0 0 0 128 128 128 255
3.58177 1.12789 4.05726 0 0 0 128 128 128 255
3.55386 0.987635 4.06009 0 0 0 128 128 128 255
3.5784 1.12243 4.06388 0 0 0 128 128 128 255
3.51915 0.817122 4.06577 0 0 0 128 128 128 255
3.57505 1.11187 4.06766 0 0 0 128 128 128 255
3.57618 1.11776 4.06766 0 0 0 128 128 128 255
3.55284 1.0082 4.07428 0 0 0 128 128 128 255
3.51111 0.794226 4.07617 0 0 0 128 128 128 255
3.57022 1.10567 4.07806 0 0 0 128 128 128 255
3.55003 1.00568 4.0809 0 0 0 128 128 128 255
3.50718 0.785817 4.08279 0 0 0 128 128 128 255
3.52488 0.883227 4.08563 0 0 0 128 128 128 255
3.5262 0.890101 4.08563 0 0 0 128 128 128 255
3.50411 0.785387 4.0913 0 0 0 128 128 128 255
3.48084 0.672754 4.09603 0 0 0 128 128 128 255
3.53788 0.973393 4.09792 0 0 0 128 128 128 255
3.62825 1.45295 4.10265 0 0 0 128 128 128 255
3.55969 1.1026 4.10643 0 0 0 128 128 128 255
3.53807 0.991683 4.10737 0 0 0 128 128 128 255
3.53127 0.961423 4.11021 0 0 0 128 128 128 255
3.68776 1.77857 4.11116 0 0 0 128 128 128 255
3.52987 0.98002 4.12439 0 0 0 128 128 128 255
3.5523 1.09689 4.12439 0 0 0 128 128 128 255
3.51735 0.940675 4.13858 0 0 0 128 128 128 255
3.49932 0.865729 4.14898 0 0 0 128 128 128 255
3.54098 1.08277 4.14898 0 0 0 128 128 128 255
3.50415 0.894332 4.15087 0 0 0 128 128 128 255
3.50029 0.882854 4.1556 0 0 0 128 128 128 255
3.50451 0.941102 4.17546 0 0 0 128 128 128 255
3.5241 1.04833 4.17829 0 0 0 128 128 128 255
3.51742 1.03943 4.19248 0 0 0 128 128 128 255
3.48819 0.892304 4.19531 0 0 0 128 128 128 255
3.52029 1.06128 4.19626 0 0 0 128 128 128 255
3.61206 1.54465 4.1991 0 0 0 128 128 128 255
3.48539 0.889787 4.20193 0 0 0 128 128 128 255
3.47414 0.832888 4.20288 0 0 0 128 128 128 255
3.50662 1.02114 4.21328 0 0 0 128 128 128 255
3.47106 0.837552 4.21423 0 0 0 128 128 128 255
3.47125 0.838534 4.21423 0 0 0 128 128 128 255
3.47238 0.844426 4.21423 0 0 0 128 128 128 255
3.5103 1.04894 4.21801 0 0 0 128 128 128 255
3.48057 0.918204 4.23125 0 0 0 128 128 128 255
3.48006 0.917283 4.23219 0 0 0 128 128 128 255
3.50029 1.02439 4.23314 0 0 0 128 128 128 255
3.47924 0.916424 4.23408 0 0 0 128 128 128 255
3.50053 1.0274 4.23408 0 0 0 128 128 128 255
3.47464 0.895923 4.23597 0 0 0 128 128 128 255
3.46716 0.858665 4.23692 0 0 0 128 128 128 255
3.46066 0.833438 4.24165 0 0 0 128 128 128 255
3.46405 0.851115 4.24165 0 0 0 128 128 128 255
3.44572 0.810848 4.27191 0 0 0 128 128 128 255
3.54277 1.32171 4.27474 0 0 0 128 128 128 255
3.53717 1.31668 4.28798 0 0 0 128 128 128 255
3.43392 0.808022 4.30406 0 0 0 128 128 128 255
3.43177 0.800288 4.30595 0 0 0 128 128 128 255
