ply
format ascii 1.0
comment VCGLIB generated
element vertex 839
property float x
property float y
property float z
property float nx
property float ny
property float nz
property uchar red
property uchar green
property uchar blue
property uchar alpha
element face 0
property list uchar int vertex_indices
end_header
0.422091 2.0166 3.24686 0 0 0 0 255 255 255
0.296761 2.08929 3.30937 0 0 0 0 255 255 255
0.428763 1.99265 3.23454 0 0 0 0 255 255 255
0.274384 2.0845 3.31166 0 0 0 0 255 255 255
0.351384 2.03411 3.25366 0 0 0 0 255 255 255
0.375377 2.01927 3.24372 0 0 0 0 255 255 255
0.395491 1.99553 3.23139 0 0 0 0 255 255 255
0.410576 1.98577 3.22813 0 0 0 0 255 255 255
0.410491 1.97852 3.22469 0 0 0 0 255 255 255
0.369877 1.99767 3.23126 0 0 0 0 255 255 255
0.429066 1.96047 3.21986 0 0 0 0 255 255 255
0.340468 2.00717 3.23752 0 0 0 0 255 255 255
0.342049 2.00642 3.23697 0 0 0 0 255 255 255
0.354579 1.99923 3.2323 0 0 0 0 255 255 255
0.359745 1.9887 3.22673 0 0 0 0 255 255 255
0.409553 1.95736 3.21562 0 0 0 0 255 255 255
0.363472 1.96599 3.2164 0 0 0 0 255 255 255
0.351249 1.97023 3.21851 0 0 0 0 255 255 255
0.412863 1.92531 3.20532 0 0 0 0 255 255 255
0.108305 2.03907 3.40363 0 0 0 0 255 255 255
0.0956361 2.04536 3.43817 0 0 0 0 255 255 255
0.0961511 2.03561 3.4207 0 0 0 0 255 255 255
0.0897923 2.02641 3.41958 0 0 0 0 255 255 255
0.0912467 2.01959 3.40744 0 0 0 0 255 255 255
0.301392 1.96076 3.22054 0 0 0 0 255 255 255
0.395661 1.92093 3.20229 0 0 0 0 255 255 255
0.338832 1.94597 3.20991 0 0 0 0 255 255 255
0.319258 1.94814 3.21281 0 0 0 0 255 255 255
0.0886765 1.99732 3.38646 0 0 0 0 255 255 255
0.0726798 2.0043 3.42463 0 0 0 0 255 255 255
0.0945097 1.98842 3.36922 0 0 0 0 255 255 255
0.0795915 1.9956 3.40031 0 0 0 0 255 255 255
0.0878453 1.99044 3.38112 0 0 0 0 255 255 255
0.0894908 1.98765 3.376 0 0 0 0 255 255 255
0.367631 1.92347 3.2018 0 0 0 0 255 255 255
0.0733087 1.99356 3.41001 0 0 0 0 255 255 255
0.0845814 1.98597 3.38218 0 0 0 0 255 255 255
0.30442 1.94145 3.21285 0 0 0 0 255 255 255
0.0852834 1.97311 3.37015 0 0 0 0 255 255 255
0.358062 1.91947 3.20082 0 0 0 0 255 255 255
0.365706 1.91476 3.19951 0 0 0 0 255 255 255
0.33232 1.92609 3.20421 0 0 0 0 255 255 255
0.218205 1.9479 3.24275 0 0 0 0 255 255 255
0.218874 1.94727 3.24219 0 0 0 0 255 255 255
0.0580872 1.96973 3.41593 0 0 0 0 255 255 255
0.0554098 1.96354 3.41562 0 0 0 0 255 255 255
0.10217 1.94885 3.33188 0 0 0 0 255 255 255
0.320725 1.92144 3.20423 0 0 0 0 255 255 255
0.117871 1.94398 3.31225 0 0 0 0 255 255 255
0.322975 1.91889 3.20326 0 0 0 0 255 255 255
0.0815094 1.94594 3.35686 0 0 0 0 255 255 255
0.316894 1.91976 3.2043 0 0 0 0 255 255 255
0.124823 1.93459 3.30119 0 0 0 0 255 255 255
0.0515879 1.94391 3.40657 0 0 0 0 255 255 255
0.0629073 1.93949 3.38196 0 0 0 0 255 255 255
0.0455192 1.94442 3.4204 0 0 0 0 255 255 255
0.0806326 1.93282 3.35074 0 0 0 0 255 255 255
0.433998 1.85475 3.19588 0 0 0 0 255 255 255
0.248355 1.92569 3.22273 0 0 0 0 255 255 255
0.253686 1.92502 3.2207 0 0 0 0 255 255 255
0.252785 1.92463 3.22088 0 0 0 0 255 255 255
0.116878 1.92487 3.30487 0 0 0 0 255 255 255
0.330145 1.90433 3.19892 0 0 0 0 255 255 255
0.0394288 1.93415 3.42639 0 0 0 0 255 255 255
0.0397501 1.99597 3.56843 0 0 0 0 255 255 255
0.0535501 1.91811 3.38583 0 0 0 0 255 255 255
0.0374279 1.91493 3.41717 0 0 0 0 255 255 255
0.0511853 1.90511 3.38364 0 0 0 0 255 255 255
0.204479 1.90826 3.23664 0 0 0 0 255 255 255
0.370662 1.87349 3.19168 0 0 0 0 255 255 255
0.363666 1.87053 3.19129 0 0 0 0 255 255 255
0.113736 1.88537 3.29568 0 0 0 0 255 255 255
0.235767 1.89089 3.21881 0 0 0 0 255 255 255
0.01392 1.88001 3.46423 0 0 0 0 255 255 255
0.0194411 1.94529 3.59155 0 0 0 0 255 255 255
0.0727632 1.86684 3.33836 0 0 0 0 255 255 255
0.35752 1.8624 3.19048 0 0 0 0 255 255 255
0.114488 1.87048 3.29199 0 0 0 0 255 255 255
0.0196739 1.94275 3.60138 0 0 0 0 255 255 255
0.364619 1.85462 3.18967 0 0 0 0 255 255 255
0.0120275 1.85457 3.46004 0 0 0 0 255 255 255
0.0235581 1.84082 3.42274 0 0 0 0 255 255 255
0.0179841 1.83477 3.43727 0 0 0 0 255 255 255
0.259344 1.86222 3.20641 0 0 0 0 255 255 255
-0.000661403 1.85771 3.5455 0 0 0 0 255 255 255
0.283232 1.86035 3.19978 0 0 0 0 255 255 255
0.20933 1.85775 3.22533 0 0 0 0 255 255 255
0.0194306 1.81949 3.43292 0 0 0 0 255 255 255
0.269754 1.85761 3.20294 0 0 0 0 255 255 255
0.0137525 1.81646 3.45026 0 0 0 0 255 255 255
0.194706 1.85105 3.23206 0 0 0 0 255 255 255
0.0468851 1.8152 3.37374 0 0 0 0 255 255 255
0.0856206 1.82251 3.31847 0 0 0 0 255 255 255
0.00597182 1.81653 3.48038 0 0 0 0 255 255 255
0.0502407 1.8125 3.36819 0 0 0 0 255 255 255
0.0288998 1.80881 3.40996 0 0 0 0 255 255 255
0.0393637 1.80799 3.38808 0 0 0 0 255 255 255
0.256483 1.85176 3.20635 0 0 0 0 255 255 255
0.0352724 1.80485 3.3966 0 0 0 0 255 255 255
0.057643 1.80349 3.3571 0 0 0 0 255 255 255
0.00981775 1.79682 3.4682 0 0 0 0 255 255 255
0.0989186 1.81249 3.30396 0 0 0 0 255 255 255
-0.000878692 1.80717 3.53088 0 0 0 0 255 255 255
0.16171 1.82567 3.25069 0 0 0 0 255 255 255
0.049141 1.78345 3.37431 0 0 0 0 255 255 255
0.121096 1.80857 3.28263 0 0 0 0 255 255 255
0.356843 1.82339 3.18863 0 0 0 0 255 255 255
0.0525441 1.78358 3.36851 0 0 0 0 255 255 255
0.00553057 1.78116 3.49618 0 0 0 0 255 255 255
0.226352 1.83095 3.21629 0 0 0 0 255 255 255
0.127735 1.80536 3.27705 0 0 0 0 255 255 255
0.0218287 1.88322 3.67523 0 0 0 0 255 255 255
0.0017539 1.82275 3.61191 0 0 0 0 255 255 255
0.375194 1.81145 3.18885 0 0 0 0 255 255 255
0.27097 1.8294 3.20116 0 0 0 0 255 255 255
0.0791427 1.77333 3.33219 0 0 0 0 255 255 255
0.00450814 1.81568 3.62734 0 0 0 0 255 255 255
0.314751 1.82199 3.19219 0 0 0 0 255 255 255
0.0621617 1.76299 3.35868 0 0 0 0 255 255 255
0.00100079 1.78889 3.59054 0 0 0 0 255 255 255
0.373678 1.80352 3.1892 0 0 0 0 255 255 255
0.319076 1.81805 3.19166 0 0 0 0 255 255 255
0.239051 1.81744 3.21138 0 0 0 0 255 255 255
0.0040825 1.79717 3.61972 0 0 0 0 255 255 255
0.00279653 1.78195 3.6005 0 0 0 0 255 255 255
0.00420856 1.79086 3.61723 0 0 0 0 255 255 255
0.271698 1.81611 3.20106 0 0 0 0 255 255 255
0.25895 1.81387 3.20477 0 0 0 0 255 255 255
0.280276 1.8141 3.19894 0 0 0 0 255 255 255
0.00749752 1.78543 3.63192 0 0 0 0 255 255 255
0.0849507 1.74859 3.33192 0 0 0 0 255 255 255
0.0105744 1.73193 3.53275 0 0 0 0 255 255 255
0.0357261 1.71692 3.43557 0 0 0 0 255 255 255
0.355766 1.79629 3.1898 0 0 0 0 255 255 255
0.00925645 1.76095 3.62268 0 0 0 0 255 255 255
0.194267 1.78375 3.23393 0 0 0 0 255 255 255
0.0192778 1.70815 3.51591 0 0 0 0 255 255 255
0.0195138 1.70604 3.52015 0 0 0 0 255 255 255
0.0147882 1.71433 3.55869 0 0 0 0 255 255 255
0.137922 1.75111 3.27766 0 0 0 0 255 255 255
0.195573 1.77701 3.23417 0 0 0 0 255 255 255
0.0163085 1.75099 3.64617 0 0 0 0 255 255 255
0.0195853 1.76568 3.66756 0 0 0 0 255 255 255
0.0259471 1.78302 3.69262 0 0 0 0 255 255 255
0.0642435 1.70137 3.38628 0 0 0 0 255 255 255
0.106953 1.72584 3.31502 0 0 0 0 255 255 255
0.22059 1.78091 3.22158 0 0 0 0 255 255 255
0.0210662 1.75234 3.66414 0 0 0 0 255 255 255
0.0328915 1.68487 3.48672 0 0 0 0 255 255 255
0.0241396 1.75767 3.67681 0 0 0 0 255 255 255
0.111697 1.71836 3.31317 0 0 0 0 255 255 255
0.111664 1.71746 3.3136 0 0 0 0 255 255 255
0.0587777 1.68207 3.41318 0 0 0 0 255 255 255
0.059606 1.6805 3.41299 0 0 0 0 255 255 255
0.0858151 1.69581 3.35627 0 0 0 0 255 255 255
0.158363 1.74146 3.26471 0 0 0 0 255 255 255
0.393312 1.76075 3.19515 0 0 0 0 255 255 255
0.124551 1.71895 3.30018 0 0 0 0 255 255 255
0.0245349 1.70248 3.62073 0 0 0 0 255 255 255
0.122723 1.71338 3.30431 0 0 0 0 255 255 255
0.285241 1.77991 3.20048 0 0 0 0 255 255 255
0.0781489 1.67698 3.38172 0 0 0 0 255 255 255
0.389778 1.75651 3.19569 0 0 0 0 255 255 255
0.0864901 1.67441 3.37075 0 0 0 0 255 255 255
0.0926695 1.67877 3.35852 0 0 0 0 255 255 255
0.280749 1.7744 3.20228 0 0 0 0 255 255 255
0.043991 1.65368 3.50684 0 0 0 0 255 255 255
0.0704814 1.65699 3.41577 0 0 0 0 255 255 255
0.362957 1.76488 3.19349 0 0 0 0 255 255 255
0.296521 1.77163 3.19923 0 0 0 0 255 255 255
0.392749 1.7497 3.19726 0 0 0 0 255 255 255
0.0465841 1.64664 3.51546 0 0 0 0 255 255 255
0.0495415 1.64559 3.50027 0 0 0 0 255 255 255
0.0800713 1.65658 3.3977 0 0 0 0 255 255 255
0.158281 1.71323 3.27437 0 0 0 0 255 255 255
0.115944 1.67932 3.32953 0 0 0 0 255 255 255
0.292975 1.76825 3.20047 0 0 0 0 255 255 255
0.0534322 1.63813 3.5028 0 0 0 0 255 255 255
0.0645162 1.63823 3.45825 0 0 0 0 255 255 255
0.0814597 1.64692 3.40591 0 0 0 0 255 255 255
0.209558 1.73813 3.23521 0 0 0 0 255 255 255
0.0555687 1.63405 3.50474 0 0 0 0 255 255 255
0.0626237 1.63403 3.47315 0 0 0 0 255 255 255
0.342197 1.76225 3.19475 0 0 0 0 255 255 255
0.386424 1.74617 3.19761 0 0 0 0 255 255 255
0.10393 1.65068 3.36613 0 0 0 0 255 255 255
0.139027 1.68038 3.30586 0 0 0 0 255 255 255
0.237804 1.74237 3.22184 0 0 0 0 255 255 255
0.34683 1.75616 3.19557 0 0 0 0 255 255 255
0.145529 1.67705 3.30203 0 0 0 0 255 255 255
0.340644 1.75681 3.19584 0 0 0 0 255 255 255
0.0906358 1.62933 3.4107 0 0 0 0 255 255 255
0.0628141 1.61934 3.5201 0 0 0 0 255 255 255
0.0769446 1.6194 3.45844 0 0 0 0 255 255 255
0.0932192 1.62897 3.40642 0 0 0 0 255 255 255
0.0798272 1.61662 3.4559 0 0 0 0 255 255 255
0.0806621 1.61699 3.45284 0 0 0 0 255 255 255
0.367302 1.74726 3.19684 0 0 0 0 255 255 255
0.0661161 1.61343 3.52711 0 0 0 0 255 255 255
0.121467 1.64481 3.34906 0 0 0 0 255 255 255
0.228192 1.72784 3.22966 0 0 0 0 255 255 255
0.327741 1.75374 3.1976 0 0 0 0 255 255 255
0.09425 1.61635 3.42231 0 0 0 0 255 255 255
0.290867 1.74811 3.20472 0 0 0 0 255 255 255
0.154859 1.6662 3.30065 0 0 0 0 255 255 255
0.288576 1.74481 3.20596 0 0 0 0 255 255 255
0.0985719 1.6093 3.42477 0 0 0 0 255 255 255
0.140071 1.64663 3.32754 0 0 0 0 255 255 255
0.070865 1.60476 3.55455 0 0 0 0 255 255 255
0.117287 1.62123 3.37774 0 0 0 0 255 255 255
0.28443 1.7409 3.20783 0 0 0 0 255 255 255
0.37069 1.73839 3.19889 0 0 0 0 255 255 255
0.111181 1.61224 3.39787 0 0 0 0 255 255 255
0.283059 1.73806 3.20885 0 0 0 0 255 255 255
0.123357 1.6173 3.37397 0 0 0 0 255 255 255
0.134581 1.62594 3.35124 0 0 0 0 255 255 255
0.346624 1.74207 3.19856 0 0 0 0 255 255 255
0.240552 1.71114 3.23006 0 0 0 0 255 255 255
0.316629 1.73722 3.20267 0 0 0 0 255 255 255
0.128529 1.60128 3.38645 0 0 0 0 255 255 255
0.146543 1.61622 3.34779 0 0 0 0 255 255 255
0.295669 1.7281 3.20869 0 0 0 0 255 255 255
0.372868 1.72467 3.20253 0 0 0 0 255 255 255
0.15174 1.60516 3.35379 0 0 0 0 255 255 255
0.357965 1.72828 3.20158 0 0 0 0 255 255 255
0.385176 1.71336 3.20636 0 0 0 0 255 255 255
0.159345 1.60055 3.35096 0 0 0 0 255 255 255
0.310158 1.72261 3.20761 0 0 0 0 255 255 255
0.304054 1.71809 3.21001 0 0 0 0 255 255 255
0.116343 1.63715 3.75267 0 0 0 0 255 255 255
0.111433 1.57842 3.6578 0 0 0 0 255 255 255
0.134762 1.5386 3.54412 0 0 0 0 255 255 255
0.319956 1.70735 3.21099 0 0 0 0 255 255 255
0.135565 1.54024 3.59609 0 0 0 0 255 255 255
0.144815 1.53172 3.53004 0 0 0 0 255 255 255
0.34388 1.70959 3.20784 0 0 0 0 255 255 255
0.155489 1.5315 3.48508 0 0 0 0 255 255 255
0.153077 1.52892 3.50554 0 0 0 0 255 255 255
0.171056 1.54102 3.4268 0 0 0 0 255 255 255
0.143115 1.53298 3.58456 0 0 0 0 255 255 255
0.168655 1.53617 3.44195 0 0 0 0 255 255 255
0.177171 1.53772 3.42503 0 0 0 0 255 255 255
0.153255 1.63332 3.78936 0 0 0 0 255 255 255
0.379154 1.69423 3.21277 0 0 0 0 255 255 255
0.159613 1.5212 3.52903 0 0 0 0 255 255 255
0.165623 1.51591 3.56219 0 0 0 0 255 255 255
0.177098 1.51455 3.49697 0 0 0 0 255 255 255
0.182756 1.51083 3.49874 0 0 0 0 255 255 255
0.193152 1.51761 3.45081 0 0 0 0 255 255 255
0.193375 1.51537 3.45713 0 0 0 0 255 255 255
0.178341 1.5085 3.53911 0 0 0 0 255 255 255
0.199146 1.51933 3.43716 0 0 0 0 255 255 255
0.170551 1.51929 3.62122 0 0 0 0 255 255 255
0.199268 1.51429 3.45066 0 0 0 0 255 255 255
0.319003 1.68 3.22167 0 0 0 0 255 255 255
0.187085 1.5054 3.51775 0 0 0 0 255 255 255
0.281188 1.62624 3.25878 0 0 0 0 255 255 255
0.231507 1.53965 3.36697 0 0 0 0 255 255 255
0.281804 1.62231 3.26126 0 0 0 0 255 255 255
0.216333 1.5125 3.43211 0 0 0 0 255 255 255
0.284975 1.62093 3.26131 0 0 0 0 255 255 255
0.227393 1.52095 3.40213 0 0 0 0 255 255 255
0.232456 1.5165 3.40651 0 0 0 0 255 255 255
0.220183 1.50077 3.46059 0 0 0 0 255 255 255
0.248868 1.53424 3.36366 0 0 0 0 255 255 255
0.243568 1.52315 3.3851 0 0 0 0 255 255 255
0.3074 1.62921 3.25058 0 0 0 0 255 255 255
0.290867 1.58126 3.29129 0 0 0 0 255 255 255
0.352994 1.67663 3.22004 0 0 0 0 255 255 255
0.24688 1.50845 3.41112 0 0 0 0 255 255 255
0.222742 1.48754 3.52044 0 0 0 0 255 255 255
0.214158 1.49222 3.60189 0 0 0 0 255 255 255
0.26374 1.52158 3.37493 0 0 0 0 255 255 255
0.262342 1.51786 3.38209 0 0 0 0 255 255 255
0.224822 1.48479 3.54742 0 0 0 0 255 255 255
0.264939 1.51991 3.37706 0 0 0 0 255 255 255
0.265513 1.52075 3.37533 0 0 0 0 255 255 255
0.226787 1.48399 3.54679 0 0 0 0 255 255 255
0.275246 1.53029 3.35556 0 0 0 0 255 255 255
0.241093 1.4872 3.47947 0 0 0 0 255 255 255
0.27854 1.53188 3.35181 0 0 0 0 255 255 255
0.280043 1.53245 3.35036 0 0 0 0 255 255 255
0.279729 1.53011 3.35384 0 0 0 0 255 255 255
0.347918 1.661 3.22761 0 0 0 0 255 255 255
0.2597 1.49733 3.42649 0 0 0 0 255 255 255
0.238044 1.48055 3.52961 0 0 0 0 255 255 255
0.273773 1.51237 3.38539 0 0 0 0 255 255 255
0.280622 1.51383 3.37929 0 0 0 0 255 255 255
0.2294 1.52935 3.72996 0 0 0 0 255 255 255
0.233674 1.51604 3.70864 0 0 0 0 255 255 255
0.233776 1.50852 3.69229 0 0 0 0 255 255 255
0.294079 1.52384 3.35743 0 0 0 0 255 255 255
0.30964 1.54829 3.32047 0 0 0 0 255 255 255
0.2374 1.49705 3.66574 0 0 0 0 255 255 255
0.266611 1.48372 3.46009 0 0 0 0 255 255 255
0.287849 1.50919 3.38419 0 0 0 0 255 255 255
0.291282 1.51423 3.37386 0 0 0 0 255 255 255
0.240235 1.5147 3.7115 0 0 0 0 255 255 255
0.326786 1.56784 3.29616 0 0 0 0 255 255 255
0.284874 1.4972 3.40974 0 0 0 0 255 255 255
0.266037 1.65992 3.87166 0 0 0 0 255 255 255
0.320741 1.55233 3.31347 0 0 0 0 255 255 255
0.276229 1.48204 3.45665 0 0 0 0 255 255 255
0.255258 1.47429 3.58103 0 0 0 0 255 255 255
0.267342 1.47363 3.50612 0 0 0 0 255 255 255
0.284373 1.48798 3.43253 0 0 0 0 255 255 255
0.304605 1.51545 3.36694 0 0 0 0 255 255 255
0.263597 1.4719 3.53179 0 0 0 0 255 255 255
0.296671 1.50209 3.39376 0 0 0 0 255 255 255
0.248909 1.5189 3.7261 0 0 0 0 255 255 255
0.260574 1.47186 3.55661 0 0 0 0 255 255 255
0.253681 1.48231 3.63346 0 0 0 0 255 255 255
0.25393 1.52286 3.73637 0 0 0 0 255 255 255
0.284439 1.68018 3.88667 0 0 0 0 255 255 255
0.285642 1.47381 3.47962 0 0 0 0 255 255 255
0.345163 1.56153 3.30032 0 0 0 0 255 255 255
0.348563 1.56819 3.29341 0 0 0 0 255 255 255
0.374667 1.6252 3.24754 0 0 0 0 255 255 255
0.330391 1.53236 3.33603 0 0 0 0 255 255 255
0.305923 1.49144 3.41249 0 0 0 0 255 255 255
0.375347 1.61521 3.25425 0 0 0 0 255 255 255
0.271221 1.56223 3.79805 0 0 0 0 255 255 255
0.34406 1.54337 3.32047 0 0 0 0 255 255 255
0.386725 1.63045 3.24476 0 0 0 0 255 255 255
0.299733 1.47009 3.48317 0 0 0 0 255 255 255
0.36343 1.56273 3.29822 0 0 0 0 255 255 255
0.367745 1.56129 3.29967 0 0 0 0 255 255 255
0.394077 1.62933 3.24601 0 0 0 0 255 255 255
0.34243 1.51282 3.3627 0 0 0 0 255 255 255
0.351494 1.52829 3.33901 0 0 0 0 255 255 255
0.284095 1.47954 3.65655 0 0 0 0 255 255 255
0.3235 1.48239 3.42816 0 0 0 0 255 255 255
0.351892 1.52532 3.34309 0 0 0 0 255 255 255
0.325687 1.48101 3.43115 0 0 0 0 255 255 255
0.348626 1.51436 3.35959 0 0 0 0 255 255 255
0.348934 1.51487 3.35875 0 0 0 0 255 255 255
0.32719 1.48149 3.42936 0 0 0 0 255 255 255
0.379195 1.57115 3.29024 0 0 0 0 255 255 255
0.3382 1.49478 3.39586 0 0 0 0 255 255 255
0.402224 1.64022 3.24023 0 0 0 0 255 255 255
0.362763 1.53011 3.33607 0 0 0 0 255 255 255
0.313823 1.46369 3.50621 0 0 0 0 255 255 255
0.355606 1.51389 3.35981 0 0 0 0 255 255 255
0.345727 1.49493 3.39441 0 0 0 0 255 255 255
0.354245 1.5032 3.37784 0 0 0 0 255 255 255
0.380952 1.5444 3.3186 0 0 0 0 255 255 255
0.351879 1.49019 3.40366 0 0 0 0 255 255 255
0.410161 1.62463 3.25087 0 0 0 0 255 255 255
0.349032 1.48476 3.41642 0 0 0 0 255 255 255
0.35756 1.49556 3.39206 0 0 0 0 255 255 255
0.411636 1.62585 3.25029 0 0 0 0 255 255 255
0.377148 1.52738 3.33997 0 0 0 0 255 255 255
0.382984 1.68587 3.21623 0 0 0 0 255 255 255
0.334078 1.46297 3.49555 0 0 0 0 255 255 255
0.366941 1.50238 3.37887 0 0 0 0 255 255 255
0.378912 1.5234 3.34563 0 0 0 0 255 255 255
0.362312 1.48898 3.40566 0 0 0 0 255 255 255
0.389371 1.68559 3.21671 0 0 0 0 255 255 255
0.366276 1.49188 3.39933 0 0 0 0 255 255 255
0.382202 1.51523 3.35799 0 0 0 0 255 255 255
0.400017 1.54983 3.31422 0 0 0 0 255 255 255
0.378459 1.50028 3.38312 0 0 0 0 255 255 255
0.361212 1.47273 3.44865 0 0 0 0 255 255 255
0.382335 1.50193 3.38038 0 0 0 0 255 255 255
0.372831 1.48541 3.41389 0 0 0 0 255 255 255
0.3389 1.57966 3.8315 0 0 0 0 255 255 255
0.375754 1.48828 3.40743 0 0 0 0 255 255 255
0.355186 1.46092 3.50017 0 0 0 0 255 255 255
0.3816 1.69321 3.21326 0 0 0 0 255 255 255
0.392172 1.50928 3.36864 0 0 0 0 255 255 255
0.408192 1.54235 3.32426 0 0 0 0 255 255 255
0.391969 1.50721 3.37212 0 0 0 0 255 255 255
0.399607 1.51999 3.35284 0 0 0 0 255 255 255
0.384694 1.49165 3.40084 0 0 0 0 255 255 255
0.388524 1.49634 3.39168 0 0 0 0 255 255 255
0.399609 1.51287 3.36387 0 0 0 0 255 255 255
0.39991 1.51345 3.363 0 0 0 0 255 255 255
0.406287 1.52638 3.34475 0 0 0 0 255 255 255
0.432753 1.63368 3.24912 0 0 0 0 255 255 255
0.384391 1.4825 3.42199 0 0 0 0 255 255 255
0.395195 1.49656 3.39226 0 0 0 0 255 255 255
0.432056 1.58893 3.28174 0 0 0 0 255 255 255
0.378256 1.47061 3.45624 0 0 0 0 255 255 255
0.434427 1.59811 3.2747 0 0 0 0 255 255 255
0.378774 1.47009 3.45816 0 0 0 0 255 255 255
0.402366 1.50607 3.37583 0 0 0 0 255 255 255
0.409259 1.51781 3.35794 0 0 0 0 255 255 255
0.414122 1.52632 3.34643 0 0 0 0 255 255 255
0.36087 1.58393 3.8366 0 0 0 0 255 255 255
0.400855 1.49682 3.39282 0 0 0 0 255 255 255
0.413966 1.52221 3.35235 0 0 0 0 255 255 255
0.403962 1.49909 3.38901 0 0 0 0 255 255 255
0.430987 1.56194 3.30712 0 0 0 0 255 255 255
0.418937 1.52754 3.34585 0 0 0 0 255 255 255
0.40565 1.49889 3.38979 0 0 0 0 255 255 255
0.432237 1.56099 3.30844 0 0 0 0 255 255 255
0.433662 1.56317 3.30653 0 0 0 0 255 255 255
0.437852 1.57919 3.29189 0 0 0 0 255 255 255
0.416049 1.51381 3.36586 0 0 0 0 255 255 255
0.441366 1.6415 3.24634 0 0 0 0 255 255 255
0.42792 1.53513 3.33787 0 0 0 0 255 255 255
0.444158 1.63888 3.24859 0 0 0 0 255 255 255
0.394145 1.46825 3.46834 0 0 0 0 255 255 255
0.441267 1.56622 3.30551 0 0 0 0 255 255 255
0.448413 1.62998 3.25525 0 0 0 0 255 255 255
0.433793 1.53149 3.34452 0 0 0 0 255 255 255
0.423927 1.50539 3.38266 0 0 0 0 255 255 255
0.398868 1.46454 3.48671 0 0 0 0 255 255 255
0.40408 1.46927 3.46785 0 0 0 0 255 255 255
0.435903 1.52265 3.358 0 0 0 0 255 255 255
0.415079 1.69637 3.21514 0 0 0 0 255 255 255
0.453148 1.56745 3.30805 0 0 0 0 255 255 255
0.413319 1.47313 3.45754 0 0 0 0 255 255 255
0.42571 1.49103 3.41268 0 0 0 0 255 255 255
0.433937 1.50704 3.3832 0 0 0 0 255 255 255
0.397541 1.45775 3.54541 0 0 0 0 255 255 255
0.410639 1.46672 3.48212 0 0 0 0 255 255 255
0.449585 1.54312 3.33459 0 0 0 0 255 255 255
0.419402 1.69713 3.21549 0 0 0 0 255 255 255
0.441742 1.51732 3.36855 0 0 0 0 255 255 255
0.434456 1.49961 3.39775 0 0 0 0 255 255 255
0.45863 1.57018 3.30721 0 0 0 0 255 255 255
0.461895 1.61902 3.26669 0 0 0 0 255 255 255
0.422326 1.47726 3.44812 0 0 0 0 255 255 255
0.414945 1.70141 3.21327 0 0 0 0 255 255 255
0.407987 1.46003 3.52491 0 0 0 0 255 255 255
0.453156 1.54009 3.33986 0 0 0 0 255 255 255
0.459897 1.56601 3.312 0 0 0 0 255 255 255
0.44913 1.524 3.361 0 0 0 0 255 255 255
0.454676 1.54015 3.34038 0 0 0 0 255 255 255
0.428164 1.47966 3.44371 0 0 0 0 255 255 255
0.429194 1.47743 3.45133 0 0 0 0 255 255 255
0.45503 1.53193 3.35179 0 0 0 0 255 255 255
0.405937 1.56472 3.81586 0 0 0 0 255 255 255
0.418199 1.70371 3.21292 0 0 0 0 255 255 255
0.429245 1.46878 3.48558 0 0 0 0 255 255 255
0.409916 1.55277 3.80256 0 0 0 0 255 255 255
0.430852 1.46971 3.48246 0 0 0 0 255 255 255
0.473299 1.61783 3.27154 0 0 0 0 255 255 255
0.428538 1.46551 3.5035 0 0 0 0 255 255 255
0.419245 1.59065 3.83745 0 0 0 0 255 255 255
0.452251 1.49969 3.40634 0 0 0 0 255 255 255
0.408927 1.71141 3.20905 0 0 0 0 255 255 255
0.449303 1.48913 3.42962 0 0 0 0 255 255 255
0.466325 1.52988 3.36005 0 0 0 0 255 255 255
0.413638 1.50319 3.73139 0 0 0 0 255 255 255
0.479613 1.6139 3.27689 0 0 0 0 255 255 255
0.424729 1.57282 3.82033 0 0 0 0 255 255 255
0.452179 1.48715 3.43691 0 0 0 0 255 255 255
0.458491 1.498 3.41384 0 0 0 0 255 255 255
0.462961 1.50633 3.39881 0 0 0 0 255 255 255
0.455244 1.48846 3.43549 0 0 0 0 255 255 255
0.424358 1.53731 3.78095 0 0 0 0 255 255 255
0.422574 1.5202 3.75747 0 0 0 0 255 255 255
0.485549 1.61397 3.2793 0 0 0 0 255 255 255
0.434014 1.56512 3.81042 0 0 0 0 255 255 255
0.433359 1.70854 3.21385 0 0 0 0 255 255 255
0.431701 1.48573 3.68658 0 0 0 0 255 255 255
0.476711 1.51475 3.39122 0 0 0 0 255 255 255
0.441168 1.57427 3.81756 0 0 0 0 255 255 255
0.438723 1.55841 3.80199 0 0 0 0 255 255 255
0.463566 1.48406 3.45568 0 0 0 0 255 255 255
0.439216 1.52178 3.75451 0 0 0 0 255 255 255
0.470994 1.49079 3.44166 0 0 0 0 255 255 255
0.440808 1.51727 3.74676 0 0 0 0 255 255 255
0.441852 1.48409 3.67633 0 0 0 0 255 255 255
0.404016 1.72526 3.20427 0 0 0 0 255 255 255
0.424569 1.72012 3.20856 0 0 0 0 255 255 255
0.487442 1.50452 3.4207 0 0 0 0 255 255 255
0.478354 1.48409 3.47206 0 0 0 0 255 255 255
0.487115 1.50192 3.42667 0 0 0 0 255 255 255
0.442815 1.71421 3.21393 0 0 0 0 255 255 255
0.498269 1.52416 3.38958 0 0 0 0 255 255 255
0.506861 1.5685 3.33256 0 0 0 0 255 255 255
0.498471 1.52004 3.39736 0 0 0 0 255 255 255
0.491385 1.49683 3.44455 0 0 0 0 255 255 255
0.404391 1.73061 3.20284 0 0 0 0 255 255 255
0.442728 1.71774 3.21279 0 0 0 0 255 255 255
0.50371 1.52639 3.38995 0 0 0 0 255 255 255
0.506187 1.53685 3.37439 0 0 0 0 255 255 255
0.504797 1.52276 3.39754 0 0 0 0 255 255 255
0.471852 1.55356 3.78399 0 0 0 0 255 255 255
0.435126 1.72366 3.20942 0 0 0 0 255 255 255
0.481724 1.61399 3.83734 0 0 0 0 255 255 255
0.469768 1.49241 3.67898 0 0 0 0 255 255 255
0.470557 1.49472 3.6845 0 0 0 0 255 255 255
0.40346 1.73325 3.20205 0 0 0 0 255 255 255
0.483288 1.60181 3.82705 0 0 0 0 255 255 255
0.503072 1.50468 3.43585 0 0 0 0 255 255 255
0.503796 1.50661 3.43166 0 0 0 0 255 255 255
0.500331 1.49643 3.4566 0 0 0 0 255 255 255
0.502159 1.70309 3.87829 0 0 0 0 255 255 255
0.419735 1.73174 3.2045 0 0 0 0 255 255 255
0.488501 1.61229 3.83315 0 0 0 0 255 255 255
0.476899 1.50666 3.70758 0 0 0 0 255 255 255
0.493695 1.62814 3.84244 0 0 0 0 255 255 255
0.50839 1.5024 3.44862 0 0 0 0 255 255 255
0.515012 1.74646 3.8861 0 0 0 0 255 255 255
0.44212 1.72638 3.21008 0 0 0 0 255 255 255
0.48829 1.51135 3.70866 0 0 0 0 255 255 255
0.51686 1.51275 3.43117 0 0 0 0 255 255 255
0.497409 1.48104 3.58196 0 0 0 0 255 255 255
0.437973 1.73214 3.20762 0 0 0 0 255 255 255
0.398231 1.74075 3.19969 0 0 0 0 255 255 255
0.493198 1.52212 3.72567 0 0 0 0 255 255 255
0.444538 1.72967 3.20969 0 0 0 0 255 255 255
0.518253 1.70457 3.87159 0 0 0 0 255 255 255
0.501292 1.48305 3.58831 0 0 0 0 255 255 255
0.530861 1.5509 3.37325 0 0 0 0 255 255 255
0.463199 1.72135 3.21683 0 0 0 0 255 255 255
0.409534 1.74456 3.19999 0 0 0 0 255 255 255
0.512924 1.5888 3.80016 0 0 0 0 255 255 255
0.520199 1.49077 3.53063 0 0 0 0 255 255 255
0.419664 1.74362 3.20156 0 0 0 0 255 255 255
0.437935 1.73895 3.20587 0 0 0 0 255 255 255
0.4647 1.72644 3.21574 0 0 0 0 255 255 255
0.537656 1.73233 3.87106 0 0 0 0 255 255 255
0.539109 1.52941 3.41996 0 0 0 0 255 255 255
0.460491 1.73071 3.21336 0 0 0 0 255 255 255
0.514424 1.526 3.71496 0 0 0 0 255 255 255
0.50013 1.69898 3.23747 0 0 0 0 255 255 255
0.404904 1.74875 3.19854 0 0 0 0 255 255 255
0.540586 1.72582 3.86744 0 0 0 0 255 255 255
0.519855 1.49965 3.6393 0 0 0 0 255 255 255
0.52804 1.49357 3.56871 0 0 0 0 255 255 255
0.445367 1.74302 3.20648 0 0 0 0 255 255 255
0.52647 1.53777 3.72483 0 0 0 0 255 255 255
0.545317 1.63212 3.29872 0 0 0 0 255 255 255
0.434638 1.74799 3.20313 0 0 0 0 255 255 255
0.519574 1.6871 3.25138 0 0 0 0 255 255 255
0.417165 1.75295 3.19918 0 0 0 0 255 255 255
0.51828 1.69211 3.24853 0 0 0 0 255 255 255
0.537129 1.50625 3.63071 0 0 0 0 255 255 255
0.538504 1.5027 3.60863 0 0 0 0 255 255 255
0.433813 1.75105 3.20232 0 0 0 0 255 255 255
0.493477 1.72069 3.2271 0 0 0 0 255 255 255
0.53956 1.51366 3.65341 0 0 0 0 255 255 255
0.414006 1.7556 3.19823 0 0 0 0 255 255 255
0.559062 1.60897 3.32862 0 0 0 0 255 255 255
0.543113 1.53637 3.70447 0 0 0 0 255 255 255
0.427328 1.75527 3.2003 0 0 0 0 255 255 255
0.562897 1.74897 3.86061 0 0 0 0 255 255 255
0.471043 1.74156 3.21359 0 0 0 0 255 255 255
0.44512 1.7525 3.20434 0 0 0 0 255 255 255
0.514601 1.70867 3.24016 0 0 0 0 255 255 255
0.550987 1.57374 3.75487 0 0 0 0 255 255 255
0.551505 1.51189 3.61933 0 0 0 0 255 255 255
0.566647 1.54139 3.43256 0 0 0 0 255 255 255
0.442871 1.75429 3.20348 0 0 0 0 255 255 255
0.562927 1.67991 3.83418 0 0 0 0 255 255 255
0.419646 1.7595 3.19828 0 0 0 0 255 255 255
0.556255 1.58824 3.76743 0 0 0 0 255 255 255
0.557906 1.53436 3.67995 0 0 0 0 255 255 255
0.527333 1.70197 3.24901 0 0 0 0 255 255 255
0.568413 1.6679 3.82346 0 0 0 0 255 255 255
0.564947 1.60586 3.77828 0 0 0 0 255 255 255
0.456267 1.75473 3.20654 0 0 0 0 255 255 255
0.570904 1.51842 3.53943 0 0 0 0 255 255 255
0.568577 1.61176 3.78076 0 0 0 0 255 255 255
0.56739 1.59749 3.76732 0 0 0 0 255 255 255
0.582359 1.59009 3.37213 0 0 0 0 255 255 255
0.521971 1.71795 3.24041 0 0 0 0 255 255 255
0.451165 1.76176 3.20395 0 0 0 0 255 255 255
0.57512 1.53598 3.65266 0 0 0 0 255 255 255
0.58679 1.54891 3.4509 0 0 0 0 255 255 255
0.460435 1.76175 3.20629 0 0 0 0 255 255 255
0.419417 1.77063 3.19639 0 0 0 0 255 255 255
0.589644 1.59049 3.38043 0 0 0 0 255 255 255
0.580901 1.6334 3.32624 0 0 0 0 255 255 255
0.465615 1.76102 3.20785 0 0 0 0 255 255 255
0.475866 1.75756 3.21157 0 0 0 0 255 255 255
0.594591 1.57632 3.40827 0 0 0 0 255 255 255
0.593277 1.63038 3.77399 0 0 0 0 255 255 255
0.583818 1.64393 3.32053 0 0 0 0 255 255 255
0.592608 1.5522 3.66037 0 0 0 0 255 255 255
0.596128 1.62951 3.77017 0 0 0 0 255 255 255
0.589733 1.63576 3.33274 0 0 0 0 255 255 255
0.449536 1.77176 3.20191 0 0 0 0 255 255 255
0.584026 1.65243 3.31445 0 0 0 0 255 255 255
0.602041 1.5414 3.54278 0 0 0 0 255 255 255
0.589346 1.64521 3.32472 0 0 0 0 255 255 255
0.588782 1.64819 3.32192 0 0 0 0 255 255 255
0.568697 1.68805 3.28083 0 0 0 0 255 255 255
0.601876 1.56221 3.66555 0 0 0 0 255 255 255
0.579185 1.6758 3.29542 0 0 0 0 255 255 255
0.577847 1.67814 3.29302 0 0 0 0 255 255 255
0.606391 1.60793 3.38005 0 0 0 0 255 255 255
0.575262 1.68739 3.28608 0 0 0 0 255 255 255
0.609907 1.63387 3.75851 0 0 0 0 255 255 255
0.579078 1.68326 3.29122 0 0 0 0 255 255 255
0.59811 1.6506 3.32921 0 0 0 0 255 255 255
0.580763 1.68452 3.2919 0 0 0 0 255 255 255
0.579334 1.68777 3.28906 0 0 0 0 255 255 255
0.615976 1.55348 3.54425 0 0 0 0 255 255 255
0.61701 1.7683 3.82262 0 0 0 0 255 255 255
0.615172 1.59732 3.40756 0 0 0 0 255 255 255
0.621656 1.55851 3.56176 0 0 0 0 255 255 255
0.612544 1.62933 3.36425 0 0 0 0 255 255 255
0.621237 1.7924 3.82268 0 0 0 0 255 255 255
0.623728 1.77249 3.817 0 0 0 0 255 255 255
0.624442 1.56116 3.55838 0 0 0 0 255 255 255
0.626326 1.56486 3.52644 0 0 0 0 255 255 255
0.454185 1.78555 3.20122 0 0 0 0 255 255 255
0.622966 1.61156 3.39991 0 0 0 0 255 255 255
0.627014 1.58397 3.65848 0 0 0 0 255 255 255
0.622372 1.61656 3.39242 0 0 0 0 255 255 255
0.606142 1.6629 3.32841 0 0 0 0 255 255 255
0.432909 1.79301 3.19592 0 0 0 0 255 255 255
0.607654 1.67458 3.3221 0 0 0 0 255 255 255
0.596893 1.69253 3.30143 0 0 0 0 255 255 255
0.635356 1.76733 3.80379 0 0 0 0 255 255 255
0.634775 1.60056 3.43994 0 0 0 0 255 255 255
0.633761 1.61136 3.41929 0 0 0 0 255 255 255
0.614667 1.66718 3.33456 0 0 0 0 255 255 255
0.636599 1.79168 3.80694 0 0 0 0 255 255 255
0.616934 1.66515 3.33858 0 0 0 0 255 255 255
0.457107 1.79439 3.20107 0 0 0 0 255 255 255
0.631757 1.84598 3.81344 0 0 0 0 255 255 255
0.633918 1.83707 3.81176 0 0 0 0 255 255 255
0.645518 1.59212 3.62144 0 0 0 0 255 255 255
0.478292 1.79368 3.20719 0 0 0 0 255 255 255
0.642664 1.63004 3.40947 0 0 0 0 255 255 255
0.649491 1.62295 3.43389 0 0 0 0 255 255 255
0.469921 1.80012 3.20411 0 0 0 0 255 255 255
0.639586 1.655 3.37661 0 0 0 0 255 255 255
0.66113 1.63714 3.67628 0 0 0 0 255 255 255
0.660054 1.60257 3.53439 0 0 0 0 255 255 255
0.439848 1.80743 3.19625 0 0 0 0 255 255 255
0.64819 1.65637 3.38892 0 0 0 0 255 255 255
0.633613 1.68441 3.34514 0 0 0 0 255 255 255
0.666993 1.61106 3.56874 0 0 0 0 255 255 255
0.66765 1.61182 3.55011 0 0 0 0 255 255 255
0.665093 1.61724 3.4953 0 0 0 0 255 255 255
0.654538 1.65267 3.40406 0 0 0 0 255 255 255
0.482947 1.80645 3.20778 0 0 0 0 255 255 255
0.461908 1.81138 3.20125 0 0 0 0 255 255 255
0.647055 1.67481 3.37056 0 0 0 0 255 255 255
0.572569 1.76314 3.25761 0 0 0 0 255 255 255
0.666555 1.79829 3.77093 0 0 0 0 255 255 255
0.665225 1.64714 3.43366 0 0 0 0 255 255 255
0.673532 1.63279 3.48686 0 0 0 0 255 255 255
0.679561 1.63496 3.60319 0 0 0 0 255 255 255
0.475489 1.81439 3.20506 0 0 0 0 255 255 255
0.676366 1.63365 3.4977 0 0 0 0 255 255 255
0.679107 1.63086 3.52932 0 0 0 0 255 255 255
0.649008 1.69237 3.36046 0 0 0 0 255 255 255
0.640312 1.70534 3.34085 0 0 0 0 255 255 255
0.655216 1.68453 3.37547 0 0 0 0 255 255 255
0.582152 1.76766 3.2635 0 0 0 0 255 255 255
0.678925 1.64486 3.47906 0 0 0 0 255 255 255
0.685128 1.71238 3.706 0 0 0 0 255 255 255
0.650151 1.70225 3.35575 0 0 0 0 255 255 255
0.680218 1.78457 3.74788 0 0 0 0 255 255 255
0.683537 1.64871 3.48948 0 0 0 0 255 255 255
0.591287 1.76783 3.27038 0 0 0 0 255 255 255
0.651083 1.70597 3.35483 0 0 0 0 255 255 255
0.689383 1.72363 3.70494 0 0 0 0 255 255 255
0.68976 1.64917 3.52908 0 0 0 0 255 255 255
0.691532 1.72135 3.69848 0 0 0 0 255 255 255
0.691971 1.71525 3.69273 0 0 0 0 255 255 255
0.593548 1.77161 3.27143 0 0 0 0 255 255 255
0.691939 1.73931 3.70923 0 0 0 0 255 255 255
0.691909 1.74445 3.7121 0 0 0 0 255 255 255
0.644663 1.72468 3.33659 0 0 0 0 255 255 255
0.674566 1.68347 3.41157 0 0 0 0 255 255 255
0.454036 1.83045 3.19901 0 0 0 0 255 255 255
0.696455 1.66012 3.54423 0 0 0 0 255 255 255
0.697299 1.73286 3.69299 0 0 0 0 255 255 255
0.47597 1.82947 3.20506 0 0 0 0 255 255 255
0.62634 1.7518 3.30577 0 0 0 0 255 255 255
0.678001 1.68885 3.41374 0 0 0 0 255 255 255
0.636929 1.74575 3.3191 0 0 0 0 255 255 255
0.697575 1.77673 3.71357 0 0 0 0 255 255 255
0.665497 1.71907 3.36876 0 0 0 0 255 255 255
0.664963 1.71974 3.36754 0 0 0 0 255 255 255
0.702386 1.67493 3.52747 0 0 0 0 255 255 255
0.695139 1.68092 3.47102 0 0 0 0 255 255 255
0.705957 1.68005 3.55971 0 0 0 0 255 255 255
0.681721 1.70385 3.40849 0 0 0 0 255 255 255
0.707693 1.68476 3.57061 0 0 0 0 255 255 255
0.706253 1.75468 3.68365 0 0 0 0 255 255 255
0.647596 1.75055 3.33013 0 0 0 0 255 255 255
0.692116 1.70003 3.43665 0 0 0 0 255 255 255
0.677054 1.72218 3.38651 0 0 0 0 255 255 255
0.710763 1.74431 3.66361 0 0 0 0 255 255 255
0.671523 1.7297 3.37275 0 0 0 0 255 255 255
0.654189 1.75187 3.33808 0 0 0 0 255 255 255
0.714082 1.70371 3.58471 0 0 0 0 255 255 255
0.677369 1.72759 3.38393 0 0 0 0 255 255 255
0.655569 1.75129 3.3401 0 0 0 0 255 255 255
0.681285 1.72493 3.39272 0 0 0 0 255 255 255
0.683152 1.72371 3.3971 0 0 0 0 255 255 255
0.569882 1.81582 3.2496 0 0 0 0 255 255 255
0.692861 1.71533 3.42439 0 0 0 0 255 255 255
0.710238 1.78524 3.68623 0 0 0 0 255 255 255
0.708608 1.70373 3.4903 0 0 0 0 255 255 255
0.656642 1.75898 3.33905 0 0 0 0 255 255 255
0.696703 1.72338 3.42749 0 0 0 0 255 255 255
0.688921 1.73178 3.40381 0 0 0 0 255 255 255
0.706471 1.71471 3.46519 0 0 0 0 255 255 255
0.569652 1.82552 3.2493 0 0 0 0 255 255 255
0.657223 1.76847 3.33715 0 0 0 0 255 255 255
0.673736 1.75548 3.36504 0 0 0 0 255 255 255
0.674227 1.75668 3.36539 0 0 0 0 255 255 255
0.675332 1.7573 3.36695 0 0 0 0 255 255 255
0.670755 1.76242 3.35804 0 0 0 0 255 255 255
0.667681 1.76762 3.3519 0 0 0 0 255 255 255
0.665255 1.77133 3.34741 0 0 0 0 255 255 255
0.566826 1.83518 3.24762 0 0 0 0 255 255 255
0.7152 1.73176 3.48009 0 0 0 0 255 255 255
0.673072 1.76837 3.35981 0 0 0 0 255 255 255
0.708654 1.73705 3.45039 0 0 0 0 255 255 255
0.6475 1.79023 3.32063 0 0 0 0 255 255 255
0.710216 1.73975 3.45324 0 0 0 0 255 255 255
0.718071 1.74008 3.48354 0 0 0 0 255 255 255
0.659971 1.78837 3.33656 0 0 0 0 255 255 255
0.716846 1.74339 3.47453 0 0 0 0 255 255 255
0.704833 1.75432 3.42781 0 0 0 0 255 255 255
0.517332 1.85955 3.22238 0 0 0 0 255 255 255
0.729811 1.76052 3.56975 0 0 0 0 255 255 255
0.703305 1.75828 3.42187 0 0 0 0 255 255 255
0.718447 1.75118 3.47399 0 0 0 0 255 255 255
0.696613 1.76636 3.40299 0 0 0 0 255 255 255
0.730274 1.762 3.55908 0 0 0 0 255 255 255
0.536416 1.85826 3.23149 0 0 0 0 255 255 255
0.723733 1.75391 3.49729 0 0 0 0 255 255 255
0.722476 1.7548 3.48934 0 0 0 0 255 255 255
0.714437 1.75781 3.45398 0 0 0 0 255 255 255
0.711936 1.76025 3.44449 0 0 0 0 255 255 255
0.575719 1.84682 3.25415 0 0 0 0 255 255 255
0.713625 1.76105 3.4493 0 0 0 0 255 255 255
0.725669 1.7587 3.50365 0 0 0 0 255 255 255
0.716683 1.76032 3.46012 0 0 0 0 255 255 255
0.677539 1.78967 3.3618 0 0 0 0 255 255 255
0.678065 1.79004 3.36258 0 0 0 0 255 255 255
0.725209 1.76474 3.49428 0 0 0 0 255 255 255
0.721329 1.76594 3.47439 0 0 0 0 255 255 255
0.554898 1.85959 3.24194 0 0 0 0 255 255 255
0.701856 1.77787 3.41049 0 0 0 0 255 255 255
0.722249 1.76938 3.47594 0 0 0 0 255 255 255
0.680303 1.79677 3.36508 0 0 0 0 255 255 255
0.553233 1.86381 3.24144 0 0 0 0 255 255 255
0.721403 1.77412 3.46942 0 0 0 0 255 255 255
0.712277 1.77899 3.43658 0 0 0 0 255 255 255
0.720363 1.77713 3.46372 0 0 0 0 255 255 255
0.685738 1.79828 3.374 0 0 0 0 255 255 255
0.70979 1.78392 3.42801 0 0 0 0 255 255 255
0.732167 1.78618 3.52438 0 0 0 0 255 255 255
0.718868 1.78303 3.45561 0 0 0 0 255 255 255
0.705485 1.79162 3.41509 0 0 0 0 255 255 255
0.515436 1.87963 3.22419 0 0 0 0 255 255 255
0.682453 1.81553 3.36674 0 0 0 0 255 255 255
0.613748 1.85421 3.2849 0 0 0 0 255 255 255
0.647997 1.83843 3.319 0 0 0 0 255 255 255
0.721845 1.7992 3.46064 0 0 0 0 255 255 255
0.70053 1.81333 3.40065 0 0 0 0 255 255 255
0.615385 1.86183 3.28732 0 0 0 0 255 255 255
0.673919 1.83553 3.3533 0 0 0 0 255 255 255
0.579697 1.87813 3.26083 0 0 0 0 255 255 255
0.532029 1.89044 3.23409 0 0 0 0 255 255 255
0.578419 1.87952 3.26016 0 0 0 0 255 255 255
0.51472 1.8936 3.22645 0 0 0 0 255 255 255
0.674152 1.84028 3.35395 0 0 0 0 255 255 255
0.574174 1.88276 3.25779 0 0 0 0 255 255 255
0.701923 1.82933 3.40324 0 0 0 0 255 255 255
0.577161 1.88335 3.25999 0 0 0 0 255 255 255
0.686665 1.83742 3.37403 0 0 0 0 255 255 255
0.606771 1.87399 3.28151 0 0 0 0 255 255 255
0.702562 1.83063 3.40467 0 0 0 0 255 255 255
0.686523 1.83969 3.37395 0 0 0 0 255 255 255
0.726397 1.89189 3.60621 0 0 0 0 255 255 255
0.60836 1.87718 3.28348 0 0 0 0 255 255 255
0.734095 1.86009 3.55876 0 0 0 0 255 255 255
0.692801 1.84267 3.38562 0 0 0 0 255 255 255
0.726149 1.89783 3.59903 0 0 0 0 255 255 255
0.604581 1.88334 3.28142 0 0 0 0 255 255 255
0.693374 1.84769 3.3873 0 0 0 0 255 255 255
0.727728 1.84437 3.48344 0 0 0 0 255 255 255
0.691333 1.85227 3.38409 0 0 0 0 255 255 255
0.728416 1.89543 3.5783 0 0 0 0 255 255 255
0.566139 1.90128 3.25646 0 0 0 0 255 255 255
0.569791 1.90141 3.25895 0 0 0 0 255 255 255
0.72728 1.9012 3.57774 0 0 0 0 255 255 255
0.528956 1.91155 3.23749 0 0 0 0 255 255 255
0.52698 1.91179 3.23657 0 0 0 0 255 255 255
0.690501 1.86671 3.38539 0 0 0 0 255 255 255
0.716027 1.86235 3.44443 0 0 0 0 255 255 255
0.695682 1.87117 3.39672 0 0 0 0 255 255 255
0.719344 1.87431 3.4604 0 0 0 0 255 255 255
0.703212 1.87427 3.41416 0 0 0 0 255 255 255
0.700693 1.87872 3.40992 0 0 0 0 255 255 255
0.706507 1.96618 3.58697 0 0 0 0 255 255 255
0.723257 1.91206 3.51844 0 0 0 0 255 255 255
0.705264 1.8997 3.43092 0 0 0 0 255 255 255
0.714445 1.90913 3.46677 0 0 0 0 255 255 255
0.710271 1.90599 3.44964 0 0 0 0 255 255 255
0.713708 1.90955 3.46438 0 0 0 0 255 255 255
0.71659 1.93853 3.52684 0 0 0 0 255 255 255
0.712184 1.91884 3.46764 0 0 0 0 255 255 255
0.711275 1.93403 3.48247 0 0 0 0 255 255 255
0.705745 1.96989 3.53945 0 0 0 0 255 255 255
0.665449 1.92668 3.36605 0 0 0 0 255 255 255
0.705691 1.93809 3.46506 0 0 0 0 255 255 255
0.666037 1.93086 3.36926 0 0 0 0 255 255 255
0.707568 1.94733 3.48608 0 0 0 0 255 255 255
0.704966 1.94462 3.47078 0 0 0 0 255 255 255
0.704658 1.96197 3.50015 0 0 0 0 255 255 255
0.704743 1.9606 3.49747 0 0 0 0 255 255 255
0.703979 1.96049 3.49309 0 0 0 0 255 255 255
0.702541 1.97079 3.51033 0 0 0 0 255 255 255
0.698177 1.98438 3.52592 0 0 0 0 255 255 255
0.702292 1.96554 3.49511 0 0 0 0 255 255 255
0.697103 1.98661 3.52596 0 0 0 0 255 255 255
0.685668 2.00935 3.53377 0 0 0 0 255 255 255
0.682361 2.01516 3.53537 0 0 0 0 255 255 255
0.688169 1.96894 3.44702 0 0 0 0 255 255 255
0.590476 1.96863 3.30147 0 0 0 0 255 255 255
0.587982 1.96881 3.29941 0 0 0 0 255 255 255
0.511992 1.97287 3.25208 0 0 0 0 255 255 255
0.596651 1.97276 3.30941 0 0 0 0 255 255 255
0.611771 1.97926 3.32857 0 0 0 0 255 255 255
0.668981 2.03305 3.51698 0 0 0 0 255 255 255
0.66219 2.03999 3.50488 0 0 0 0 255 255 255
0.586554 1.99534 3.31476 0 0 0 0 255 255 255
0.659483 2.01813 3.44231 0 0 0 0 255 255 255
0.631824 2.00198 3.37131 0 0 0 0 255 255 255
0.611104 1.99947 3.34278 0 0 0 0 255 255 255
0.580487 1.99817 3.31137 0 0 0 0 255 255 255
0.603991 2.00234 3.33722 0 0 0 0 255 255 255
0.606052 2.00384 3.34069 0 0 0 0 255 255 255
0.654458 2.03755 3.46627 0 0 0 0 255 255 255
0.620313 2.00695 3.36038 0 0 0 0 255 255 255
0.61237 2.04032 3.3855 0 0 0 0 255 255 255
0.615691 2.04959 3.40301 0 0 0 0 255 255 255
0.614517 2.05717 3.41262 0 0 0 0 255 255 255
0.604168 2.07578 3.42697 0 0 0 0 255 255 255
0.572169 2.05368 3.35307 0 0 0 0 255 255 255
0.59811 2.08808 3.44104 0 0 0 0 255 255 255
0.557324 2.05575 3.34135 0 0 0 0 255 255 255
