ply
format ascii 1.0
comment VCGLIB generated
element vertex 901
property float x
property float y
property float z
property float nx
property float ny
property float nz
property uchar red
property uchar green
property uchar blue
property uchar alpha
element face 0
property list uchar int vertex_indices
end_header
0.112932 1.58165 3.60505 0 0 0 0 128 0 255
0.123099 1.58966 3.65418 0 0 0 0 128 0 255
0.130086 1.64582 3.73861 0 0 0 0 128 0 255
0.13951 1.55849 3.61034 0 0 0 0 128 0 255
0.129858 1.5598 3.575 0 0 0 0 128 0 255
0.162696 1.57608 3.69415 0 0 0 0 128 0 255
0.145227 1.5507 3.59683 0 0 0 0 128 0 255
0.152328 1.54322 3.58556 0 0 0 0 128 0 255
0.14359 1.54634 3.54473 0 0 0 0 128 0 255
0.180329 1.53092 3.61706 0 0 0 0 128 0 255
0.167184 1.64267 3.77244 0 0 0 0 128 0 255
0.152982 1.53938 3.53184 0 0 0 0 128 0 255
0.175046 1.52514 3.56215 0 0 0 0 128 0 255
0.168225 1.52896 3.52948 0 0 0 0 128 0 255
0.238541 1.54546 3.71851 0 0 0 0 128 0 255
0.242086 1.53214 3.69848 0 0 0 0 128 0 255
0.217204 1.51012 3.61218 0 0 0 0 128 0 255
0.242382 1.52433 3.68338 0 0 0 0 128 0 255
0.248779 1.5311 3.70137 0 0 0 0 128 0 255
0.161266 1.5356 3.50537 0 0 0 0 128 0 255
0.246017 1.51295 3.66012 0 0 0 0 128 0 255
0.257234 1.53525 3.71397 0 0 0 0 128 0 255
0.222158 1.50513 3.59848 0 0 0 0 128 0 255
0.186907 1.51739 3.53814 0 0 0 0 128 0 255
0.262185 1.53926 3.72319 0 0 0 0 128 0 255
0.162085 1.53873 3.48294 0 0 0 0 128 0 255
0.260669 1.49767 3.62819 0 0 0 0 128 0 255
0.1714 1.53254 3.48262 0 0 0 0 128 0 255
0.194882 1.51398 3.5167 0 0 0 0 128 0 255
0.185152 1.52152 3.4976 0 0 0 0 128 0 255
0.27845 1.57848 3.77923 0 0 0 0 128 0 255
0.189777 1.51896 3.49711 0 0 0 0 128 0 255
0.289999 1.4967 3.65009 0 0 0 0 128 0 255
0.231685 1.49612 3.54512 0 0 0 0 128 0 255
0.233514 1.49542 3.54552 0 0 0 0 128 0 255
0.262437 1.48795 3.58015 0 0 0 0 128 0 255
0.185664 1.52731 3.46683 0 0 0 0 128 0 255
0.230096 1.4974 3.52018 0 0 0 0 128 0 255
0.175146 1.54144 3.44166 0 0 0 0 128 0 255
0.267244 1.48466 3.55577 0 0 0 0 128 0 255
0.244399 1.49165 3.52843 0 0 0 0 128 0 255
0.176599 1.54617 3.42684 0 0 0 0 128 0 255
0.199555 1.52211 3.45711 0 0 0 0 128 0 255
0.198848 1.52411 3.45155 0 0 0 0 128 0 255
0.269568 1.48387 3.53087 0 0 0 0 128 0 255
0.182632 1.5429 3.42533 0 0 0 0 128 0 255
0.205976 1.52056 3.45093 0 0 0 0 128 0 255
0.34046 1.59598 3.80775 0 0 0 0 128 0 255
0.265933 1.48579 3.51409 0 0 0 0 128 0 255
0.272985 1.67038 3.84466 0 0 0 0 128 0 255
0.205015 1.52526 3.43792 0 0 0 0 128 0 255
0.225562 1.50883 3.46025 0 0 0 0 128 0 255
0.404254 1.53204 3.7319 0 0 0 0 128 0 255
0.246179 1.49671 3.47879 0 0 0 0 128 0 255
0.273103 1.48472 3.50512 0 0 0 0 128 0 255
0.416948 1.54045 3.74088 0 0 0 0 128 0 255
0.405523 1.57277 3.78249 0 0 0 0 128 0 255
0.418676 1.55717 3.76213 0 0 0 0 128 0 255
0.22236 1.5177 3.43552 0 0 0 0 128 0 255
0.403857 1.58397 3.79385 0 0 0 0 128 0 255
0.43342 1.54379 3.74012 0 0 0 0 128 0 255
0.437415 1.53831 3.73062 0 0 0 0 128 0 255
0.437741 1.50611 3.66972 0 0 0 0 128 0 255
0.437456 1.50568 3.66883 0 0 0 0 128 0 255
0.275525 1.48768 3.48033 0 0 0 0 128 0 255
0.43155 1.57749 3.78092 0 0 0 0 128 0 255
0.427703 1.58388 3.78838 0 0 0 0 128 0 255
0.423912 1.58979 3.79493 0 0 0 0 128 0 255
0.317458 1.47641 3.50514 0 0 0 0 128 0 255
0.291067 1.48413 3.48056 0 0 0 0 128 0 255
0.463799 1.517 3.67724 0 0 0 0 128 0 255
0.271719 1.4926 3.46167 0 0 0 0 128 0 255
0.464613 1.51522 3.67253 0 0 0 0 128 0 255
0.437902 1.58878 3.79001 0 0 0 0 128 0 255
0.470645 1.52901 3.69681 0 0 0 0 128 0 255
0.303152 1.4815 3.48295 0 0 0 0 128 0 255
0.289718 1.48638 3.47042 0 0 0 0 128 0 255
0.482108 1.53396 3.69744 0 0 0 0 128 0 255
0.484756 1.54333 3.71167 0 0 0 0 128 0 255
0.281178 1.49132 3.45727 0 0 0 0 128 0 255
0.398107 1.47424 3.54538 0 0 0 0 128 0 255
0.337653 1.47573 3.49532 0 0 0 0 128 0 255
0.23778 1.52215 3.40762 0 0 0 0 128 0 255
0.504371 1.54739 3.70245 0 0 0 0 128 0 255
0.357381 1.47439 3.50069 0 0 0 0 128 0 255
0.272793 1.49988 3.43508 0 0 0 0 128 0 255
0.263206 1.50568 3.42623 0 0 0 0 128 0 255
0.251346 1.51492 3.41249 0 0 0 0 128 0 255
0.515486 1.55773 3.70921 0 0 0 0 128 0 255
0.245125 1.52191 3.4018 0 0 0 0 128 0 255
0.472505 1.61851 3.80245 0 0 0 0 128 0 255
0.408321 1.47585 3.52558 0 0 0 0 128 0 255
0.511193 1.52075 3.63411 0 0 0 0 128 0 255
0.28936 1.49625 3.43397 0 0 0 0 128 0 255
0.500401 1.60622 3.77785 0 0 0 0 128 0 255
0.531141 1.55622 3.6905 0 0 0 0 128 0 255
0.476829 1.62882 3.80831 0 0 0 0 128 0 255
0.495544 1.50319 3.58868 0 0 0 0 128 0 255
0.528901 1.53361 3.64378 0 0 0 0 128 0 255
0.492188 1.50104 3.58341 0 0 0 0 128 0 255
0.52684 1.52594 3.62327 0 0 0 0 128 0 255
0.545115 1.55382 3.66772 0 0 0 0 128 0 255
0.424783 1.47932 3.51393 0 0 0 0 128 0 255
0.248913 1.52776 3.38706 0 0 0 0 128 0 255
0.52838 1.52196 3.60321 0 0 0 0 128 0 255
0.235512 1.54449 3.36743 0 0 0 0 128 0 255
0.398432 1.47858 3.48642 0 0 0 0 128 0 255
0.540037 1.53097 3.61255 0 0 0 0 128 0 255
0.28964 1.50433 3.41183 0 0 0 0 128 0 255
0.551475 1.61391 3.74672 0 0 0 0 128 0 255
0.562204 1.55592 3.64361 0 0 0 0 128 0 255
0.328823 1.49013 3.43432 0 0 0 0 128 0 255
0.409052 1.48059 3.48257 0 0 0 0 128 0 255
0.549395 1.62139 3.75589 0 0 0 0 128 0 255
0.519788 1.5119 3.56437 0 0 0 0 128 0 255
0.325512 1.4921 3.42932 0 0 0 0 128 0 255
0.328164 1.49146 3.43046 0 0 0 0 128 0 255
0.265969 1.52299 3.385 0 0 0 0 128 0 255
0.394394 1.48138 3.46893 0 0 0 0 128 0 255
0.363702 1.48398 3.45062 0 0 0 0 128 0 255
0.552696 1.6271 3.75819 0 0 0 0 128 0 255
0.380313 1.48225 3.45991 0 0 0 0 128 0 255
0.379226 1.48265 3.458 0 0 0 0 128 0 255
0.426671 1.48312 3.48564 0 0 0 0 128 0 255
0.308178 1.50018 3.41347 0 0 0 0 128 0 255
0.577327 1.57043 3.64907 0 0 0 0 128 0 255
0.40329 1.48256 3.46826 0 0 0 0 128 0 255
0.429765 1.48415 3.48324 0 0 0 0 128 0 255
0.278644 1.51783 3.38794 0 0 0 0 128 0 255
0.253014 1.53833 3.36581 0 0 0 0 128 0 255
0.268928 1.52525 3.37905 0 0 0 0 128 0 255
0.267306 1.5265 3.37769 0 0 0 0 128 0 255
0.585636 1.58049 3.65481 0 0 0 0 128 0 255
0.26982 1.52486 3.37928 0 0 0 0 128 0 255
0.269235 1.52616 3.37723 0 0 0 0 128 0 255
0.51233 1.50751 3.52944 0 0 0 0 128 0 255
0.581638 1.62961 3.731 0 0 0 0 128 0 255
0.555741 1.65376 3.77697 0 0 0 0 128 0 255
0.299546 1.50945 3.39543 0 0 0 0 128 0 255
0.284242 1.51869 3.38345 0 0 0 0 128 0 255
0.566357 1.65091 3.76556 0 0 0 0 128 0 255
0.411506 1.48594 3.45865 0 0 0 0 128 0 255
0.292975 1.51397 3.3888 0 0 0 0 128 0 255
0.578794 1.55359 3.58851 0 0 0 0 128 0 255
0.352659 1.4937 3.4201 0 0 0 0 128 0 255
0.590492 1.64906 3.73899 0 0 0 0 128 0 255
0.608708 1.60086 3.64779 0 0 0 0 128 0 255
0.421493 1.4892 3.4526 0 0 0 0 128 0 255
0.547176 1.68275 3.80159 0 0 0 0 128 0 255
0.560803 1.53589 3.54011 0 0 0 0 128 0 255
0.427831 1.49041 3.45274 0 0 0 0 128 0 255
0.475215 1.49829 3.47608 0 0 0 0 128 0 255
0.294935 1.52009 3.37621 0 0 0 0 128 0 255
0.575476 1.67732 3.77534 0 0 0 0 128 0 255
0.541905 1.69351 3.81072 0 0 0 0 128 0 255
0.387266 1.49242 3.42684 0 0 0 0 128 0 255
0.428371 1.49217 3.44677 0 0 0 0 128 0 255
0.35387 1.49839 3.40801 0 0 0 0 128 0 255
0.341531 1.50211 3.4003 0 0 0 0 128 0 255
0.372966 1.49575 3.41526 0 0 0 0 128 0 255
0.461202 1.498 3.45687 0 0 0 0 128 0 255
0.279086 1.53518 3.35728 0 0 0 0 128 0 255
0.364646 1.49801 3.40893 0 0 0 0 128 0 255
0.451645 1.49678 3.45079 0 0 0 0 128 0 255
0.626192 1.60737 3.61313 0 0 0 0 128 0 255
0.279235 1.5363 3.35549 0 0 0 0 128 0 255
0.348243 1.50334 3.39687 0 0 0 0 128 0 255
0.6054 1.57378 3.55824 0 0 0 0 128 0 255
0.377931 1.49753 3.41135 0 0 0 0 128 0 255
0.282884 1.53531 3.35547 0 0 0 0 128 0 255
0.600684 1.56875 3.54913 0 0 0 0 128 0 255
0.282115 1.53683 3.35346 0 0 0 0 128 0 255
0.608482 1.57659 3.55336 0 0 0 0 128 0 255
0.368921 1.50046 3.40332 0 0 0 0 128 0 255
0.308209 1.52091 3.37018 0 0 0 0 128 0 255
0.283072 1.53702 3.35279 0 0 0 0 128 0 255
0.638039 1.65126 3.66622 0 0 0 0 128 0 255
0.450328 1.49956 3.44011 0 0 0 0 128 0 255
0.297462 1.52875 3.36037 0 0 0 0 128 0 255
0.46753 1.50358 3.4444 0 0 0 0 128 0 255
0.357905 1.50475 3.39338 0 0 0 0 128 0 255
0.6123 1.58026 3.54582 0 0 0 0 128 0 255
0.497301 1.51165 3.45689 0 0 0 0 128 0 255
0.445985 1.50098 3.43206 0 0 0 0 128 0 255
0.488943 1.50998 3.45004 0 0 0 0 128 0 255
0.385652 1.50131 3.40353 0 0 0 0 128 0 255
0.502776 1.5155 3.45208 0 0 0 0 128 0 255
0.482793 1.50977 3.44254 0 0 0 0 128 0 255
0.461576 1.50571 3.43176 0 0 0 0 128 0 255
0.424701 1.50206 3.41534 0 0 0 0 128 0 255
0.514425 1.74316 3.8449 0 0 0 0 128 0 255
0.64524 1.62456 3.58284 0 0 0 0 128 0 255
0.332706 1.51681 3.37191 0 0 0 0 128 0 255
0.410697 1.50257 3.40776 0 0 0 0 128 0 255
0.390121 1.50511 3.39586 0 0 0 0 128 0 255
0.354884 1.51141 3.3799 0 0 0 0 128 0 255
0.500042 1.51818 3.43942 0 0 0 0 128 0 255
0.65775 1.6476 3.59591 0 0 0 0 128 0 255
0.395223 1.50626 3.39453 0 0 0 0 128 0 255
0.36943 1.50978 3.38335 0 0 0 0 128 0 255
0.458173 1.50906 3.41965 0 0 0 0 128 0 255
0.401581 1.50606 3.39668 0 0 0 0 128 0 255
0.328384 1.52245 3.36281 0 0 0 0 128 0 255
0.498354 1.51899 3.43478 0 0 0 0 128 0 255
0.380022 1.50917 3.38562 0 0 0 0 128 0 255
0.649236 1.62633 3.5526 0 0 0 0 128 0 255
0.48596 1.51665 3.42632 0 0 0 0 128 0 255
0.642979 1.6171 3.53683 0 0 0 0 128 0 255
0.511516 1.52514 3.43545 0 0 0 0 128 0 255
0.383252 1.5104 3.38364 0 0 0 0 128 0 255
0.343149 1.5197 3.36553 0 0 0 0 128 0 255
0.404365 1.50874 3.39178 0 0 0 0 128 0 255
0.371078 1.51262 3.37797 0 0 0 0 128 0 255
0.451151 1.51104 3.40947 0 0 0 0 128 0 255
0.318945 1.53066 3.35143 0 0 0 0 128 0 255
0.432579 1.50994 3.40071 0 0 0 0 128 0 255
0.658801 1.7217 3.69199 0 0 0 0 128 0 255
0.353177 1.51965 3.36498 0 0 0 0 128 0 255
0.394241 1.51233 3.3819 0 0 0 0 128 0 255
0.353223 1.52016 3.36412 0 0 0 0 128 0 255
0.469262 1.51765 3.40794 0 0 0 0 128 0 255
0.577266 1.56161 3.45656 0 0 0 0 128 0 255
0.666005 1.72218 3.67709 0 0 0 0 128 0 255
0.460315 1.51701 3.40241 0 0 0 0 128 0 255
0.358265 1.52057 3.3633 0 0 0 0 128 0 255
0.662878 1.73126 3.68989 0 0 0 0 128 0 255
0.664839 1.72907 3.68442 0 0 0 0 128 0 255
0.497211 1.52638 3.41443 0 0 0 0 128 0 255
0.666944 1.72914 3.67989 0 0 0 0 128 0 255
0.392103 1.51577 3.37494 0 0 0 0 128 0 255
0.4024 1.51521 3.37836 0 0 0 0 128 0 255
0.287262 1.56038 3.32007 0 0 0 0 128 0 255
0.649859 1.62885 3.51378 0 0 0 0 128 0 255
0.53428 1.54119 3.42714 0 0 0 0 128 0 255
0.557953 1.55313 3.43765 0 0 0 0 128 0 255
0.660541 1.64434 3.52791 0 0 0 0 128 0 255
0.43302 1.51637 3.38742 0 0 0 0 128 0 255
0.392429 1.51777 3.37136 0 0 0 0 128 0 255
0.678799 1.68283 3.57353 0 0 0 0 128 0 255
0.670092 1.73965 3.67951 0 0 0 0 128 0 255
0.676522 1.73322 3.65948 0 0 0 0 128 0 255
0.2996 1.55388 3.32423 0 0 0 0 128 0 255
0.674489 1.66985 3.54122 0 0 0 0 128 0 255
0.668656 1.65891 3.52734 0 0 0 0 128 0 255
0.493494 1.53062 3.40128 0 0 0 0 128 0 255
0.398576 1.52086 3.36721 0 0 0 0 128 0 255
0.683582 1.69243 3.56463 0 0 0 0 128 0 255
0.334419 1.53638 3.3404 0 0 0 0 128 0 255
0.68247 1.68839 3.55553 0 0 0 0 128 0 255
0.658993 1.64552 3.50212 0 0 0 0 128 0 255
0.417296 1.52128 3.3718 0 0 0 0 128 0 255
0.492308 1.53395 3.39348 0 0 0 0 128 0 255
0.68918 1.71069 3.57713 0 0 0 0 128 0 255
0.678588 1.75965 3.67035 0 0 0 0 128 0 255
0.654623 1.64221 3.48688 0 0 0 0 128 0 255
0.374513 1.52747 3.35272 0 0 0 0 128 0 255
0.589573 1.79673 3.80362 0 0 0 0 128 0 255
0.440059 1.52597 3.37285 0 0 0 0 128 0 255
0.665074 1.65849 3.49364 0 0 0 0 128 0 255
0.353307 1.5347 3.34136 0 0 0 0 128 0 255
0.607413 1.59848 3.43648 0 0 0 0 128 0 255
0.651433 1.7883 3.73105 0 0 0 0 128 0 255
0.670507 1.77931 3.69562 0 0 0 0 128 0 255
0.621258 1.61093 3.44467 0 0 0 0 128 0 255
0.661618 1.6553 3.48367 0 0 0 0 128 0 255
0.620639 1.61111 3.44263 0 0 0 0 128 0 255
0.400028 1.52747 3.35655 0 0 0 0 128 0 255
0.382457 1.52938 3.35056 0 0 0 0 128 0 255
0.475868 1.53457 3.37907 0 0 0 0 128 0 255
0.633103 1.80122 3.75828 0 0 0 0 128 0 255
0.447435 1.53078 3.36824 0 0 0 0 128 0 255
0.437014 1.52962 3.36521 0 0 0 0 128 0 255
0.585361 1.58644 3.41513 0 0 0 0 128 0 255
0.366266 1.53531 3.34052 0 0 0 0 128 0 255
0.503843 1.54616 3.38148 0 0 0 0 128 0 255
0.413446 1.53032 3.35548 0 0 0 0 128 0 255
0.37838 1.53337 3.34413 0 0 0 0 128 0 255
0.681327 1.78679 3.67379 0 0 0 0 128 0 255
0.595101 1.59566 3.41607 0 0 0 0 128 0 255
0.442491 1.53308 3.36203 0 0 0 0 128 0 255
0.582281 1.58849 3.40614 0 0 0 0 128 0 255
0.635611 1.63313 3.43885 0 0 0 0 128 0 255
0.415378 1.53317 3.35164 0 0 0 0 128 0 255
0.678595 1.68874 3.48833 0 0 0 0 128 0 255
0.323752 1.55593 3.31654 0 0 0 0 128 0 255
0.62093 1.62084 3.42467 0 0 0 0 128 0 255
0.528477 1.56007 3.38226 0 0 0 0 128 0 255
0.461293 1.53839 3.36328 0 0 0 0 128 0 255
0.447811 1.53614 3.35969 0 0 0 0 128 0 255
0.407785 1.53383 3.34855 0 0 0 0 128 0 255
0.624472 1.62624 3.42348 0 0 0 0 128 0 255
0.418191 1.53523 3.34937 0 0 0 0 128 0 255
0.347062 1.54695 3.32505 0 0 0 0 128 0 255
0.297029 1.58032 3.29573 0 0 0 0 128 0 255
0.696388 1.72952 3.523 0 0 0 0 128 0 255
0.647768 1.65226 3.43885 0 0 0 0 128 0 255
0.641629 1.64601 3.43249 0 0 0 0 128 0 255
0.687822 1.71062 3.49454 0 0 0 0 128 0 255
0.649639 1.65532 3.43911 0 0 0 0 128 0 255
0.703452 1.76467 3.56935 0 0 0 0 128 0 255
0.43288 1.53898 3.34888 0 0 0 0 128 0 255
0.382877 1.54034 3.33474 0 0 0 0 128 0 255
0.563004 1.58443 3.38448 0 0 0 0 128 0 255
0.600688 1.83654 3.7943 0 0 0 0 128 0 255
0.611953 1.62094 3.40615 0 0 0 0 128 0 255
0.603372 1.61379 3.40129 0 0 0 0 128 0 255
0.704291 1.76573 3.55954 0 0 0 0 128 0 255
0.487482 1.55178 3.3594 0 0 0 0 128 0 255
0.629882 1.63928 3.4151 0 0 0 0 128 0 255
0.425497 1.54089 3.34347 0 0 0 0 128 0 255
0.428218 1.54198 3.34284 0 0 0 0 128 0 255
0.599441 1.84465 3.7949 0 0 0 0 128 0 255
0.452931 1.54635 3.34691 0 0 0 0 128 0 255
0.57422 1.59851 3.37885 0 0 0 0 128 0 255
0.641667 1.65705 3.41644 0 0 0 0 128 0 255
0.596312 1.6166 3.38584 0 0 0 0 128 0 255
0.416808 1.54452 3.33576 0 0 0 0 128 0 255
0.686197 1.7205 3.46804 0 0 0 0 128 0 255
0.704547 1.76676 3.52453 0 0 0 0 128 0 255
0.702597 1.75932 3.51395 0 0 0 0 128 0 255
0.703048 1.76134 3.51507 0 0 0 0 128 0 255
0.640467 1.66011 3.40988 0 0 0 0 128 0 255
0.704478 1.76765 3.52059 0 0 0 0 128 0 255
0.363039 1.5528 3.31751 0 0 0 0 128 0 255
0.69591 1.74368 3.48569 0 0 0 0 128 0 255
0.448333 1.5505 3.33905 0 0 0 0 128 0 255
0.702482 1.76244 3.5065 0 0 0 0 128 0 255
0.674258 1.70572 3.44223 0 0 0 0 128 0 255
0.382734 1.54956 3.3227 0 0 0 0 128 0 255
0.338518 1.56292 3.30673 0 0 0 0 128 0 255
0.699794 1.7569 3.49271 0 0 0 0 128 0 255
0.416379 1.54888 3.32987 0 0 0 0 128 0 255
0.406634 1.54945 3.32675 0 0 0 0 128 0 255
0.659283 1.68997 3.41835 0 0 0 0 128 0 255
0.414316 1.5501 3.32777 0 0 0 0 128 0 255
0.446283 1.55352 3.33417 0 0 0 0 128 0 255
0.702482 1.76899 3.49709 0 0 0 0 128 0 255
0.661994 1.69541 3.41927 0 0 0 0 128 0 255
0.69658 1.75476 3.47603 0 0 0 0 128 0 255
0.682483 1.72719 3.44588 0 0 0 0 128 0 255
0.706073 1.7838 3.51253 0 0 0 0 128 0 255
0.60558 1.63686 3.37514 0 0 0 0 128 0 255
0.662079 1.69812 3.41671 0 0 0 0 128 0 255
0.698615 1.76175 3.47985 0 0 0 0 128 0 255
0.690217 1.74403 3.45789 0 0 0 0 128 0 255
0.688584 1.7416 3.45383 0 0 0 0 128 0 255
0.439784 1.55556 3.32897 0 0 0 0 128 0 255
0.698548 1.76372 3.47761 0 0 0 0 128 0 255
0.674663 1.71945 3.42917 0 0 0 0 128 0 255
0.347693 1.56514 3.30368 0 0 0 0 128 0 255
0.362535 1.56061 3.30842 0 0 0 0 128 0 255
0.699242 1.76844 3.47715 0 0 0 0 128 0 255
0.700456 1.7724 3.4805 0 0 0 0 128 0 255
0.444779 1.55845 3.32733 0 0 0 0 128 0 255
0.364533 1.56067 3.30838 0 0 0 0 128 0 255
0.665505 1.7096 3.41421 0 0 0 0 128 0 255
0.502939 1.57643 3.33732 0 0 0 0 128 0 255
0.696303 1.76436 3.46611 0 0 0 0 128 0 255
0.695001 1.76377 3.46091 0 0 0 0 128 0 255
0.693825 1.76119 3.45798 0 0 0 0 128 0 255
0.699989 1.77749 3.47423 0 0 0 0 128 0 255
0.624483 1.66631 3.374 0 0 0 0 128 0 255
0.689524 1.75634 3.44543 0 0 0 0 128 0 255
0.685634 1.74896 3.43775 0 0 0 0 128 0 255
0.699095 1.77935 3.46869 0 0 0 0 128 0 255
0.64262 1.69106 3.38275 0 0 0 0 128 0 255
0.634118 1.68133 3.37626 0 0 0 0 128 0 255
0.688647 1.76042 3.43985 0 0 0 0 128 0 255
0.365207 1.56678 3.30171 0 0 0 0 128 0 255
0.672377 1.73563 3.41061 0 0 0 0 128 0 255
0.66766 1.7285 3.40445 0 0 0 0 128 0 255
0.58584 1.63878 3.34723 0 0 0 0 128 0 255
0.697495 1.78514 3.4587 0 0 0 0 128 0 255
0.438134 1.56588 3.31603 0 0 0 0 128 0 255
0.694783 1.78049 3.45027 0 0 0 0 128 0 255
0.552791 1.61607 3.33464 0 0 0 0 128 0 255
0.702256 1.80132 3.47414 0 0 0 0 128 0 255
0.6654 1.72924 3.39897 0 0 0 0 128 0 255
0.445743 1.56844 3.31593 0 0 0 0 128 0 255
0.707195 1.85644 3.55956 0 0 0 0 128 0 255
0.577635 1.63635 3.34026 0 0 0 0 128 0 255
0.661968 1.72678 3.39337 0 0 0 0 128 0 255
0.692866 1.78182 3.44291 0 0 0 0 128 0 255
0.69364 1.7855 3.44411 0 0 0 0 128 0 255
0.687761 1.77298 3.43052 0 0 0 0 128 0 255
0.636819 1.69761 3.36789 0 0 0 0 128 0 255
0.662087 1.73112 3.39089 0 0 0 0 128 0 255
0.626939 1.68712 3.36036 0 0 0 0 128 0 255
0.661605 1.73213 3.38932 0 0 0 0 128 0 255
0.697967 1.88563 3.60299 0 0 0 0 128 0 255
0.440447 1.57228 3.30974 0 0 0 0 128 0 255
0.607228 1.67092 3.34567 0 0 0 0 128 0 255
0.601736 1.66556 3.34303 0 0 0 0 128 0 255
0.580602 1.64645 3.3345 0 0 0 0 128 0 255
0.652668 1.72399 3.3773 0 0 0 0 128 0 255
0.651576 1.72338 3.37573 0 0 0 0 128 0 255
0.638068 1.70704 3.36343 0 0 0 0 128 0 255
0.589245 1.65672 3.33546 0 0 0 0 128 0 255
0.706924 1.84814 3.5091 0 0 0 0 128 0 255
0.604798 1.67216 3.34169 0 0 0 0 128 0 255
0.581656 1.65069 3.33208 0 0 0 0 128 0 255
0.697969 1.89154 3.59627 0 0 0 0 128 0 255
0.698937 1.89067 3.59116 0 0 0 0 128 0 255
0.638211 1.71051 3.36145 0 0 0 0 128 0 255
0.705986 1.84491 3.4983 0 0 0 0 128 0 255
0.684177 1.78059 3.41757 0 0 0 0 128 0 255
0.602844 1.67244 3.3391 0 0 0 0 128 0 255
0.591594 1.66168 3.33417 0 0 0 0 128 0 255
0.431638 1.57484 3.30414 0 0 0 0 128 0 255
0.581043 1.65428 3.32854 0 0 0 0 128 0 255
0.687276 1.79318 3.42225 0 0 0 0 128 0 255
0.699808 1.89481 3.57753 0 0 0 0 128 0 255
0.581028 1.65779 3.3258 0 0 0 0 128 0 255
0.658574 1.74758 3.37556 0 0 0 0 128 0 255
0.629005 1.70956 3.34845 0 0 0 0 128 0 255
0.641202 1.72644 3.35698 0 0 0 0 128 0 255
0.576779 1.65833 3.32111 0 0 0 0 128 0 255
0.620525 1.70397 3.34029 0 0 0 0 128 0 255
0.471049 1.59236 3.30183 0 0 0 0 128 0 255
0.468124 1.59122 3.30158 0 0 0 0 128 0 255
0.660892 1.75888 3.37506 0 0 0 0 128 0 255
0.659373 1.75757 3.37283 0 0 0 0 128 0 255
0.572293 1.65801 3.31699 0 0 0 0 128 0 255
0.659758 1.75916 3.37291 0 0 0 0 128 0 255
0.539753 1.63658 3.30544 0 0 0 0 128 0 255
0.701911 1.8929 3.52845 0 0 0 0 128 0 255
0.683044 1.81183 3.40837 0 0 0 0 128 0 255
0.65568 1.76428 3.36407 0 0 0 0 128 0 255
0.657785 1.76965 3.36594 0 0 0 0 128 0 255
0.468644 1.59911 3.29445 0 0 0 0 128 0 255
0.700225 1.90066 3.52862 0 0 0 0 128 0 255
0.460223 1.59718 3.29261 0 0 0 0 128 0 255
0.653914 1.76798 3.36 0 0 0 0 128 0 255
0.648351 1.76075 3.35346 0 0 0 0 128 0 255
0.643694 1.75407 3.34871 0 0 0 0 128 0 255
0.694953 1.8582 3.44849 0 0 0 0 128 0 255
0.642377 1.7543 3.34669 0 0 0 0 128 0 255
0.444371 1.59355 3.29 0 0 0 0 128 0 255
0.697131 1.86947 3.46254 0 0 0 0 128 0 255
0.68359 1.82716 3.4094 0 0 0 0 128 0 255
0.669257 1.79794 3.38025 0 0 0 0 128 0 255
0.683658 1.82867 3.40963 0 0 0 0 128 0 255
0.663858 1.78961 3.37164 0 0 0 0 128 0 255
0.662236 1.78918 3.36884 0 0 0 0 128 0 255
0.652356 1.77326 3.35601 0 0 0 0 128 0 255
0.697642 1.9104 3.5242 0 0 0 0 128 0 255
0.636157 1.75198 3.33872 0 0 0 0 128 0 255
0.589214 1.69609 3.3092 0 0 0 0 128 0 255
0.572155 1.67905 3.30289 0 0 0 0 128 0 255
0.664552 1.79671 3.37167 0 0 0 0 128 0 255
0.43193 1.5936 3.28608 0 0 0 0 128 0 255
0.580843 1.69104 3.30391 0 0 0 0 128 0 255
0.571435 1.68175 3.30065 0 0 0 0 128 0 255
0.482505 1.61542 3.28689 0 0 0 0 128 0 255
0.64413 1.7698 3.34447 0 0 0 0 128 0 255
0.438574 1.59771 3.28441 0 0 0 0 128 0 255
0.626543 1.74754 3.32769 0 0 0 0 128 0 255
0.630916 1.75444 3.33093 0 0 0 0 128 0 255
0.572232 1.68686 3.29843 0 0 0 0 128 0 255
0.667971 1.81417 3.3762 0 0 0 0 128 0 255
0.573 1.68851 3.29819 0 0 0 0 128 0 255
0.465179 1.6095 3.28398 0 0 0 0 128 0 255
0.572144 1.69034 3.29645 0 0 0 0 128 0 255
0.692464 1.92814 3.52326 0 0 0 0 128 0 255
0.676593 1.84175 3.39455 0 0 0 0 128 0 255
0.680333 1.95484 3.58459 0 0 0 0 128 0 255
0.692993 1.90188 3.47156 0 0 0 0 128 0 255
0.647462 1.78883 3.34518 0 0 0 0 128 0 255
0.621419 1.75156 3.3201 0 0 0 0 128 0 255
0.568846 1.69158 3.29296 0 0 0 0 128 0 255
0.691871 1.90224 3.46676 0 0 0 0 128 0 255
0.676325 1.84707 3.39478 0 0 0 0 128 0 255
0.670637 1.83438 3.38156 0 0 0 0 128 0 255
0.434866 1.60312 3.27868 0 0 0 0 128 0 255
0.691689 1.9176 3.48675 0 0 0 0 128 0 255
0.682902 1.86938 3.41624 0 0 0 0 128 0 255
0.670429 1.83824 3.38149 0 0 0 0 128 0 255
0.562302 1.69061 3.28808 0 0 0 0 128 0 255
0.675164 1.8504 3.39288 0 0 0 0 128 0 255
0.689683 1.90149 3.45687 0 0 0 0 128 0 255
0.690394 1.92286 3.48836 0 0 0 0 128 0 255
0.682653 1.87577 3.41819 0 0 0 0 128 0 255
0.641495 1.79297 3.33605 0 0 0 0 128 0 255
0.678576 1.8689 3.4054 0 0 0 0 128 0 255
0.664439 1.83588 3.37011 0 0 0 0 128 0 255
0.457286 1.6175 3.27453 0 0 0 0 128 0 255
0.689088 1.92516 3.48475 0 0 0 0 128 0 255
0.685128 1.89283 3.43442 0 0 0 0 128 0 255
0.664525 1.84041 3.37069 0 0 0 0 128 0 255
0.673652 1.86257 3.39249 0 0 0 0 128 0 255
0.681888 1.95808 3.53694 0 0 0 0 128 0 255
0.685798 1.93733 3.48932 0 0 0 0 128 0 255
0.685738 1.92442 3.46676 0 0 0 0 128 0 255
0.682341 1.95127 3.50205 0 0 0 0 128 0 255
0.677886 1.96698 3.53187 0 0 0 0 128 0 255
0.674203 1.9751 3.53965 0 0 0 0 128 0 255
0.673244 1.97706 3.53966 0 0 0 0 128 0 255
0.44883 1.63373 3.25999 0 0 0 0 128 0 255
0.636944 1.83715 3.32844 0 0 0 0 128 0 255
0.417298 1.62045 3.26092 0 0 0 0 128 0 255
0.516135 1.68979 3.25751 0 0 0 0 128 0 255
0.58852 1.7725 3.28124 0 0 0 0 128 0 255
0.585558 1.76873 3.2794 0 0 0 0 128 0 255
0.432131 1.63056 3.25731 0 0 0 0 128 0 255
0.515062 1.69492 3.25459 0 0 0 0 128 0 255
0.523363 1.704 3.25534 0 0 0 0 128 0 255
0.376786 1.61694 3.25801 0 0 0 0 128 0 255
0.427182 1.63062 3.25605 0 0 0 0 128 0 255
0.663283 1.99572 3.53574 0 0 0 0 128 0 255
0.578264 1.76837 3.27334 0 0 0 0 128 0 255
0.660707 2.00021 3.53766 0 0 0 0 128 0 255
0.409911 1.6271 3.25484 0 0 0 0 128 0 255
0.379819 1.62017 3.2559 0 0 0 0 128 0 255
0.41178 1.62844 3.25427 0 0 0 0 128 0 255
0.566676 1.76426 3.2651 0 0 0 0 128 0 255
0.511569 1.70995 3.24654 0 0 0 0 128 0 255
0.521892 1.72271 3.24748 0 0 0 0 128 0 255
0.517951 1.71982 3.24632 0 0 0 0 128 0 255
0.496451 1.70088 3.24273 0 0 0 0 128 0 255
0.651417 1.92309 3.37672 0 0 0 0 128 0 255
0.650349 1.91995 3.37297 0 0 0 0 128 0 255
0.375751 1.62668 3.25114 0 0 0 0 128 0 255
0.399434 1.63286 3.24937 0 0 0 0 128 0 255
0.50532 1.71521 3.24146 0 0 0 0 128 0 255
0.394164 1.63145 3.24961 0 0 0 0 128 0 255
0.653321 2.00959 3.50983 0 0 0 0 128 0 255
0.506783 1.71903 3.24084 0 0 0 0 128 0 255
0.648965 2.01773 3.52095 0 0 0 0 128 0 255
0.394602 1.63572 3.24691 0 0 0 0 128 0 255
0.387366 1.63307 3.24782 0 0 0 0 128 0 255
0.607271 1.85319 3.29598 0 0 0 0 128 0 255
0.488333 1.7079 3.23641 0 0 0 0 128 0 255
0.502189 1.72396 3.23699 0 0 0 0 128 0 255
0.608759 1.86046 3.29853 0 0 0 0 128 0 255
0.498897 1.72184 3.23616 0 0 0 0 128 0 255
0.642844 2.02646 3.52046 0 0 0 0 128 0 255
0.491709 1.72072 3.23333 0 0 0 0 128 0 255
0.603812 1.87352 3.29592 0 0 0 0 128 0 255
0.564232 1.8143 3.25741 0 0 0 0 128 0 255
0.600858 1.87352 3.29301 0 0 0 0 128 0 255
0.64313 2.00495 3.44846 0 0 0 0 128 0 255
0.565853 1.82383 3.25849 0 0 0 0 128 0 255
0.601689 1.88349 3.2961 0 0 0 0 128 0 255
0.637301 2.02712 3.48395 0 0 0 0 128 0 255
0.570038 1.84492 3.26251 0 0 0 0 128 0 255
0.561059 1.83382 3.25527 0 0 0 0 128 0 255
0.463086 1.72253 3.22196 0 0 0 0 128 0 255
0.453763 1.72124 3.21948 0 0 0 0 128 0 255
0.471205 1.74069 3.21956 0 0 0 0 128 0 255
0.435106 1.70909 3.21858 0 0 0 0 128 0 255
0.416687 1.69665 3.21938 0 0 0 0 128 0 255
0.574791 1.87631 3.2706 0 0 0 0 128 0 255
0.43029 1.70975 3.21726 0 0 0 0 128 0 255
0.40463 1.68773 3.22106 0 0 0 0 128 0 255
0.573223 1.87553 3.2692 0 0 0 0 128 0 255
0.571353 1.87262 3.26719 0 0 0 0 128 0 255
0.470957 1.74961 3.21735 0 0 0 0 128 0 255
0.431859 1.71239 3.2167 0 0 0 0 128 0 255
0.476573 1.75666 3.21783 0 0 0 0 128 0 255
0.454696 1.73617 3.21544 0 0 0 0 128 0 255
0.572459 1.88106 3.26974 0 0 0 0 128 0 255
0.412561 1.70043 3.21722 0 0 0 0 128 0 255
0.443939 1.72979 3.21422 0 0 0 0 128 0 255
0.556646 1.86046 3.25452 0 0 0 0 128 0 255
0.618872 1.99069 3.37749 0 0 0 0 128 0 255
0.569099 1.88085 3.26709 0 0 0 0 128 0 255
0.391073 1.68617 3.22008 0 0 0 0 128 0 255
0.431495 1.72208 3.2135 0 0 0 0 128 0 255
0.438196 1.73207 3.21215 0 0 0 0 128 0 255
0.384642 1.68561 3.21975 0 0 0 0 128 0 255
0.548844 1.86053 3.24931 0 0 0 0 128 0 255
0.458459 1.75423 3.21231 0 0 0 0 128 0 255
0.446241 1.74227 3.21154 0 0 0 0 128 0 255
0.421039 1.71891 3.21235 0 0 0 0 128 0 255
0.419527 1.71756 3.21249 0 0 0 0 128 0 255
0.408771 1.71179 3.21258 0 0 0 0 128 0 255
0.458373 1.75945 3.21125 0 0 0 0 128 0 255
0.57096 1.90302 3.27426 0 0 0 0 128 0 255
0.601619 1.97037 3.3365 0 0 0 0 128 0 255
0.382395 1.69401 3.21614 0 0 0 0 128 0 255
0.608616 1.99616 3.36757 0 0 0 0 128 0 255
0.567591 1.90274 3.27154 0 0 0 0 128 0 255
0.422289 1.73128 3.20895 0 0 0 0 128 0 255
0.42526 1.73527 3.20846 0 0 0 0 128 0 255
0.379643 1.69505 3.21555 0 0 0 0 128 0 255
0.5326 1.85551 3.23878 0 0 0 0 128 0 255
0.45094 1.76128 3.20877 0 0 0 0 128 0 255
0.483313 1.79676 3.21472 0 0 0 0 128 0 255
0.584853 1.94639 3.30395 0 0 0 0 128 0 255
0.447093 1.76273 3.20747 0 0 0 0 128 0 255
0.475616 1.79388 3.21214 0 0 0 0 128 0 255
0.40567 1.72484 3.20803 0 0 0 0 128 0 255
0.601272 1.99761 3.35884 0 0 0 0 128 0 255
0.589129 1.96489 3.31894 0 0 0 0 128 0 255
0.451172 1.77082 3.20722 0 0 0 0 128 0 255
0.431483 1.75134 3.20595 0 0 0 0 128 0 255
0.420867 1.74252 3.20581 0 0 0 0 128 0 255
0.604109 2.03604 3.41117 0 0 0 0 128 0 255
0.428996 1.7528 3.20512 0 0 0 0 128 0 255
0.386752 1.71381 3.20934 0 0 0 0 128 0 255
0.595642 1.99338 3.34777 0 0 0 0 128 0 255
0.585985 1.96665 3.31686 0 0 0 0 128 0 255
0.474327 1.80087 3.21116 0 0 0 0 128 0 255
0.405913 1.73236 3.20596 0 0 0 0 128 0 255
0.466772 1.794 3.20913 0 0 0 0 128 0 255
0.428815 1.75519 3.2046 0 0 0 0 128 0 255
0.41975 1.7465 3.20469 0 0 0 0 128 0 255
0.602001 2.04284 3.4188 0 0 0 0 128 0 255
0.60114 2.02688 3.39225 0 0 0 0 128 0 255
0.593443 1.99213 3.34403 0 0 0 0 128 0 255
0.466661 1.79527 3.20899 0 0 0 0 128 0 255
0.398578 1.72805 3.2062 0 0 0 0 128 0 255
0.583257 1.96712 3.31443 0 0 0 0 128 0 255
0.469821 1.80151 3.20958 0 0 0 0 128 0 255
0.457457 1.78816 3.2068 0 0 0 0 128 0 255
0.416946 1.75013 3.2034 0 0 0 0 128 0 255
0.514562 1.86131 3.2298 0 0 0 0 128 0 255
0.475302 1.8133 3.21093 0 0 0 0 128 0 255
0.400737 1.7409 3.20311 0 0 0 0 128 0 255
0.474051 1.8176 3.21041 0 0 0 0 128 0 255
0.413943 1.75477 3.20195 0 0 0 0 128 0 255
0.410844 1.75178 3.20207 0 0 0 0 128 0 255
0.527421 1.88719 3.24101 0 0 0 0 128 0 255
0.405241 1.74763 3.20215 0 0 0 0 128 0 255
0.400488 1.74309 3.20256 0 0 0 0 128 0 255
0.581229 1.98915 3.328 0 0 0 0 128 0 255
0.415236 1.75854 3.20143 0 0 0 0 128 0 255
0.591937 2.05954 3.43113 0 0 0 0 128 0 255
0.462064 1.80979 3.20668 0 0 0 0 128 0 255
0.475851 1.8269 3.21104 0 0 0 0 128 0 255
0.441632 1.78913 3.20245 0 0 0 0 128 0 255
0.375334 1.72366 3.20554 0 0 0 0 128 0 255
0.515056 1.87797 3.2326 0 0 0 0 128 0 255
0.586267 2.07054 3.44436 0 0 0 0 128 0 255
0.575478 1.99185 3.32425 0 0 0 0 128 0 255
0.509723 1.88036 3.2304 0 0 0 0 128 0 255
0.52572 1.90678 3.24497 0 0 0 0 128 0 255
0.387397 1.74598 3.20056 0 0 0 0 128 0 255
0.512693 1.88941 3.2337 0 0 0 0 128 0 255
0.37731 1.73707 3.20199 0 0 0 0 128 0 255
0.332703 1.67936 3.22257 0 0 0 0 128 0 255
0.522828 1.9076 3.2436 0 0 0 0 128 0 255
0.395559 1.76017 3.19846 0 0 0 0 128 0 255
0.346681 1.70874 3.21013 0 0 0 0 128 0 255
0.371386 1.73789 3.20152 0 0 0 0 128 0 255
0.361016 1.72791 3.20394 0 0 0 0 128 0 255
0.458652 1.83293 3.2056 0 0 0 0 128 0 255
0.453755 1.82871 3.20407 0 0 0 0 128 0 255
0.332208 1.69335 3.21669 0 0 0 0 128 0 255
0.325276 1.65029 3.238 0 0 0 0 128 0 255
0.36804 1.74701 3.19929 0 0 0 0 128 0 255
0.563343 2.04147 3.35991 0 0 0 0 128 0 255
0.332965 1.71424 3.2091 0 0 0 0 128 0 255
0.347843 1.74189 3.20053 0 0 0 0 128 0 255
0.365292 1.76389 3.19595 0 0 0 0 128 0 255
0.322745 1.70583 3.21293 0 0 0 0 128 0 255
0.549798 2.04312 3.34759 0 0 0 0 128 0 255
0.434885 1.85233 3.20061 0 0 0 0 128 0 255
0.348798 1.75474 3.19772 0 0 0 0 128 0 255
0.34947 1.75677 3.19731 0 0 0 0 128 0 255
0.509179 1.96659 3.25962 0 0 0 0 128 0 255
0.34367 1.75521 3.19783 0 0 0 0 128 0 255
0.311372 1.65123 3.23935 0 0 0 0 128 0 255
0.344668 1.76127 3.19666 0 0 0 0 128 0 255
0.374942 1.80207 3.19194 0 0 0 0 128 0 255
0.309382 1.65038 3.24016 0 0 0 0 128 0 255
0.314567 1.72135 3.20883 0 0 0 0 128 0 255
0.37723 1.80989 3.19169 0 0 0 0 128 0 255
0.330925 1.75302 3.19908 0 0 0 0 128 0 255
0.318838 1.73608 3.20417 0 0 0 0 128 0 255
0.356599 1.79476 3.19209 0 0 0 0 128 0 255
0.306021 1.71763 3.21125 0 0 0 0 128 0 255
0.419161 1.87936 3.20095 0 0 0 0 128 0 255
0.418837 1.89546 3.20399 0 0 0 0 128 0 255
0.291721 1.6729 3.23171 0 0 0 0 128 0 255
0.359033 1.82075 3.19101 0 0 0 0 128 0 255
0.298805 1.72709 3.20963 0 0 0 0 128 0 255
0.377053 1.859 3.19341 0 0 0 0 128 0 255
0.366017 1.85261 3.1924 0 0 0 0 128 0 255
0.413125 1.9202 3.20936 0 0 0 0 128 0 255
0.372866 1.87021 3.19459 0 0 0 0 128 0 255
0.29232 1.7464 3.20592 0 0 0 0 128 0 255
0.290054 1.74389 3.20696 0 0 0 0 128 0 255
0.359075 1.85968 3.19302 0 0 0 0 128 0 255
0.36447 1.86856 3.19413 0 0 0 0 128 0 255
0.398323 1.91776 3.20658 0 0 0 0 128 0 255
0.298108 1.77045 3.20029 0 0 0 0 128 0 255
0.296715 1.76766 3.20097 0 0 0 0 128 0 255
0.475341 2.07355 3.32684 0 0 0 0 128 0 255
0.27952 1.72355 3.21478 0 0 0 0 128 0 255
0.296618 1.77307 3.20017 0 0 0 0 128 0 255
0.422404 1.96657 3.22849 0 0 0 0 128 0 255
0.37716 1.8995 3.20012 0 0 0 0 128 0 255
0.319623 1.81572 3.19332 0 0 0 0 128 0 255
0.295322 1.77468 3.20018 0 0 0 0 128 0 255
0.410279 1.95397 3.2208 0 0 0 0 128 0 255
0.428816 1.98688 3.2401 0 0 0 0 128 0 255
0.315567 1.81996 3.19375 0 0 0 0 128 0 255
0.412129 1.97295 3.22959 0 0 0 0 128 0 255
0.288554 1.7793 3.20091 0 0 0 0 128 0 255
0.41105 1.98032 3.23308 0 0 0 0 128 0 255
0.28312 1.77325 3.2029 0 0 0 0 128 0 255
0.422691 2.00965 3.25231 0 0 0 0 128 0 255
0.354629 1.91749 3.20426 0 0 0 0 128 0 255
0.283801 1.62721 3.26027 0 0 0 0 128 0 255
0.35832 1.93282 3.20895 0 0 0 0 128 0 255
0.282939 1.81285 3.19955 0 0 0 0 128 0 255
0.284578 1.62363 3.26258 0 0 0 0 128 0 255
0.346746 1.92685 3.20725 0 0 0 0 128 0 255
0.38785 2.00145 3.24175 0 0 0 0 128 0 255
0.365707 1.96169 3.22007 0 0 0 0 128 0 255
0.254202 1.74079 3.2172 0 0 0 0 128 0 255
0.250404 1.73676 3.2195 0 0 0 0 128 0 255
0.382008 2.00616 3.24411 0 0 0 0 128 0 255
0.273924 1.81327 3.20167 0 0 0 0 128 0 255
0.333363 1.92214 3.20658 0 0 0 0 128 0 255
0.340719 1.94264 3.2129 0 0 0 0 128 0 255
0.353334 1.96628 3.22209 0 0 0 0 128 0 255
0.376324 2.01323 3.24822 0 0 0 0 128 0 255
0.274187 1.82755 3.20153 0 0 0 0 128 0 255
0.243131 1.71162 3.22987 0 0 0 0 128 0 255
0.360321 1.98431 3.23081 0 0 0 0 128 0 255
0.322612 1.91809 3.20639 0 0 0 0 128 0 255
0.318053 1.9165 3.20647 0 0 0 0 128 0 255
0.284779 1.85794 3.20089 0 0 0 0 128 0 255
0.261388 1.81258 3.20509 0 0 0 0 128 0 255
0.355908 1.99484 3.23655 0 0 0 0 128 0 255
0.239824 1.73975 3.22248 0 0 0 0 128 0 255
0.389618 2.08989 3.31752 0 0 0 0 128 0 255
0.323076 1.94484 3.21519 0 0 0 0 128 0 255
0.273074 1.8559 3.20345 0 0 0 0 128 0 255
0.25501 1.81472 3.20696 0 0 0 0 128 0 255
0.353521 2.01191 3.24692 0 0 0 0 128 0 255
0.230202 1.72655 3.23001 0 0 0 0 128 0 255
0.352237 2.02838 3.25825 0 0 0 0 128 0 255
0.306482 1.9377 3.21485 0 0 0 0 128 0 255
0.296755 1.92429 3.2121 0 0 0 0 128 0 255
0.259852 1.84932 3.2065 0 0 0 0 128 0 255
0.26251 1.86012 3.20677 0 0 0 0 128 0 255
0.242141 1.81618 3.21122 0 0 0 0 128 0 255
0.331963 2.01176 3.24803 0 0 0 0 128 0 255
0.305051 1.95717 3.22265 0 0 0 0 128 0 255
0.329779 2.01326 3.24922 0 0 0 0 128 0 255
0.29169 1.9395 3.21823 0 0 0 0 128 0 255
0.223496 1.78021 3.22113 0 0 0 0 128 0 255
0.212172 1.73651 3.23515 0 0 0 0 128 0 255
0.228564 1.82953 3.21638 0 0 0 0 128 0 255
0.256711 1.92253 3.22174 0 0 0 0 128 0 255
0.255789 1.92219 3.22193 0 0 0 0 128 0 255
0.238703 1.88849 3.21916 0 0 0 0 128 0 255
0.251305 1.92249 3.22352 0 0 0 0 128 0 255
0.198683 1.77613 3.23341 0 0 0 0 128 0 255
0.300446 2.08079 3.31253 0 0 0 0 128 0 255
0.197401 1.78213 3.23324 0 0 0 0 128 0 255
0.211871 1.85541 3.22527 0 0 0 0 128 0 255
0.277935 2.07671 3.31486 0 0 0 0 128 0 255
0.197542 1.84948 3.23177 0 0 0 0 128 0 255
0.192193 1.69072 3.26291 0 0 0 0 128 0 255
0.206529 1.90591 3.23739 0 0 0 0 128 0 255
0.257045 2.06557 3.3111 0 0 0 0 128 0 255
0.164796 1.82455 3.24996 0 0 0 0 128 0 255
0.161076 1.7409 3.26415 0 0 0 0 128 0 255
0.188435 1.96474 3.27076 0 0 0 0 128 0 255
0.187917 1.96537 3.27142 0 0 0 0 128 0 255
0.161018 1.71315 3.27389 0 0 0 0 128 0 255
0.18692 1.98197 3.28157 0 0 0 0 128 0 255
0.141217 1.75039 3.27673 0 0 0 0 128 0 255
0.130881 1.80424 3.27632 0 0 0 0 128 0 255
0.158116 1.66645 3.30052 0 0 0 0 128 0 255
0.123713 1.80683 3.2825 0 0 0 0 128 0 255
0.148746 1.67644 3.30228 0 0 0 0 128 0 255
0.128905 1.93135 3.30108 0 0 0 0 128 0 255
0.143136 1.67997 3.30518 0 0 0 0 128 0 255
0.127817 1.71681 3.30043 0 0 0 0 128 0 255
0.117038 1.88263 3.29561 0 0 0 0 128 0 255
0.120745 1.92237 3.30516 0 0 0 0 128 0 255
0.121599 1.94027 3.3127 0 0 0 0 128 0 255
0.126511 1.71267 3.30355 0 0 0 0 128 0 255
0.115995 2.03426 3.40528 0 0 0 0 128 0 255
0.106383 1.94599 3.33296 0 0 0 0 128 0 255
0.115414 1.71679 3.31301 0 0 0 0 128 0 255
0.0983719 1.81275 3.30777 0 0 0 0 128 0 255
0.111044 1.72457 3.31426 0 0 0 0 128 0 255
0.144134 1.64673 3.32772 0 0 0 0 128 0 255
0.103946 2.03913 3.43932 0 0 0 0 128 0 255
0.103487 2.02995 3.4227 0 0 0 0 128 0 255
0.10077 1.98536 3.37034 0 0 0 0 128 0 255
0.0915193 1.87897 3.32273 0 0 0 0 128 0 255
0.0985478 2.01519 3.40925 0 0 0 0 128 0 255
0.0973968 2.02059 3.41998 0 0 0 0 128 0 255
0.0953294 1.98424 3.37776 0 0 0 0 128 0 255
0.0947935 1.99281 3.38765 0 0 0 0 128 0 255
0.0943513 1.98681 3.38197 0 0 0 0 128 0 255
0.0906718 1.96948 3.3715 0 0 0 0 128 0 255
0.0857098 1.82173 3.32254 0 0 0 0 128 0 255
0.118933 1.67877 3.33069 0 0 0 0 128 0 255
0.0904835 1.98202 3.38357 0 0 0 0 128 0 255
0.0863944 1.94274 3.35776 0 0 0 0 128 0 255
0.0855257 1.93054 3.35155 0 0 0 0 128 0 255
0.0863926 1.99118 3.40114 0 0 0 0 128 0 255
0.0774617 1.86518 3.33777 0 0 0 0 128 0 255
0.0808249 1.99988 3.42488 0 0 0 0 128 0 255
0.0804933 1.98897 3.41042 0 0 0 0 128 0 255
0.0890115 1.74709 3.33152 0 0 0 0 128 0 255
0.150667 1.61795 3.34778 0 0 0 0 128 0 255
0.164006 1.60134 3.35216 0 0 0 0 128 0 255
0.0805658 1.77352 3.3348 0 0 0 0 128 0 255
0.0694313 1.87269 3.35123 0 0 0 0 128 0 255
0.156174 1.60677 3.35415 0 0 0 0 128 0 255
0.0685664 1.9353 3.38201 0 0 0 0 128 0 255
0.138849 1.62687 3.35171 0 0 0 0 128 0 255
0.126284 1.64439 3.3495 0 0 0 0 128 0 255
0.0644996 1.96562 3.41801 0 0 0 0 128 0 255
0.0628315 1.95992 3.41553 0 0 0 0 128 0 255
0.0622051 1.86781 3.36143 0 0 0 0 128 0 255
0.0595405 1.91509 3.38572 0 0 0 0 128 0 255
0.0580079 1.94034 3.40733 0 0 0 0 128 0 255
0.0568196 1.90151 3.38348 0 0 0 0 128 0 255
0.0619434 1.8025 3.3572 0 0 0 0 128 0 255
0.0906407 1.69598 3.35531 0 0 0 0 128 0 255
0.0523705 1.94045 3.42093 0 0 0 0 128 0 255
0.0523653 1.98894 3.56624 0 0 0 0 128 0 255
0.0968709 1.67854 3.35911 0 0 0 0 128 0 255
0.0667092 1.76273 3.35812 0 0 0 0 128 0 255
0.0469447 1.93115 3.42623 0 0 0 0 128 0 255
0.0470616 1.89525 3.40038 0 0 0 0 128 0 255
0.109166 1.64984 3.36689 0 0 0 0 128 0 255
0.0522498 1.81447 3.3729 0 0 0 0 128 0 255
0.0572297 1.78294 3.36835 0 0 0 0 128 0 255
0.0441506 1.91216 3.41773 0 0 0 0 128 0 255
0.0508782 1.81159 3.37559 0 0 0 0 128 0 255
0.123354 1.62649 3.37183 0 0 0 0 128 0 255
0.127611 1.61828 3.37569 0 0 0 0 128 0 255
0.0520427 1.78212 3.37795 0 0 0 0 128 0 255
0.0885243 1.67351 3.37617 0 0 0 0 128 0 255
0.12185 1.6207 3.38097 0 0 0 0 128 0 255
0.04294 1.80733 3.39167 0 0 0 0 128 0 255
0.0834005 1.67749 3.38119 0 0 0 0 128 0 255
0.0418456 1.79706 3.39541 0 0 0 0 128 0 255
0.134033 1.60282 3.38699 0 0 0 0 128 0 255
0.0334727 1.94075 3.59042 0 0 0 0 128 0 255
0.0340151 1.938 3.59967 0 0 0 0 128 0 255
0.0688236 1.70127 3.38737 0 0 0 0 128 0 255
0.030284 1.83914 3.42236 0 0 0 0 128 0 255
0.0351217 1.80577 3.40966 0 0 0 0 128 0 255
0.0345294 1.8073 3.41095 0 0 0 0 128 0 255
0.0353706 1.79956 3.40997 0 0 0 0 128 0 255
0.0221052 1.87694 3.46399 0 0 0 0 128 0 255
0.0860021 1.65683 3.3976 0 0 0 0 128 0 255
0.117568 1.61293 3.39827 0 0 0 0 128 0 255
0.0251362 1.83313 3.43691 0 0 0 0 128 0 255
0.0257365 1.81779 3.43453 0 0 0 0 128 0 255
0.0198019 1.85264 3.46074 0 0 0 0 128 0 255
0.0872528 1.64736 3.40673 0 0 0 0 128 0 255
0.099425 1.6299 3.40649 0 0 0 0 128 0 255
0.0644334 1.68302 3.41336 0 0 0 0 128 0 255
0.0654016 1.68066 3.41371 0 0 0 0 128 0 255
0.0971768 1.62971 3.41121 0 0 0 0 128 0 255
0.0204539 1.81483 3.45294 0 0 0 0 128 0 255
0.0372992 1.88016 3.66606 0 0 0 0 128 0 255
0.0761615 1.65892 3.41537 0 0 0 0 128 0 255
0.100558 1.61825 3.42239 0 0 0 0 128 0 255
0.017781 1.79615 3.46808 0 0 0 0 128 0 255
0.0420305 1.71651 3.43712 0 0 0 0 128 0 255
0.10522 1.6113 3.42449 0 0 0 0 128 0 255
0.0140046 1.81558 3.48301 0 0 0 0 128 0 255
0.0106356 1.85513 3.54194 0 0 0 0 128 0 255
0.0143598 1.78017 3.49752 0 0 0 0 128 0 255
0.00960222 1.80619 3.53072 0 0 0 0 128 0 255
0.0152957 1.82159 3.60682 0 0 0 0 128 0 255
0.0881923 1.61825 3.45425 0 0 0 0 128 0 255
0.071265 1.64035 3.4598 0 0 0 0 128 0 255
0.0864825 1.61905 3.45778 0 0 0 0 128 0 255
0.0841548 1.62157 3.45936 0 0 0 0 128 0 255
0.0188604 1.81505 3.62301 0 0 0 0 128 0 255
0.0412464 1.68672 3.48512 0 0 0 0 128 0 255
0.0179831 1.79668 3.61534 0 0 0 0 128 0 255
0.0138252 1.78963 3.58848 0 0 0 0 128 0 255
0.0706148 1.63526 3.47508 0 0 0 0 128 0 255
0.0180356 1.79164 3.61366 0 0 0 0 128 0 255
0.0160751 1.78153 3.59768 0 0 0 0 128 0 255
0.0218405 1.78558 3.62736 0 0 0 0 128 0 255
0.020836 1.73252 3.53378 0 0 0 0 128 0 255
0.0427185 1.78322 3.68574 0 0 0 0 128 0 255
0.0286338 1.70924 3.51764 0 0 0 0 128 0 255
0.0290428 1.70765 3.51967 0 0 0 0 128 0 255
0.0581124 1.64844 3.49937 0 0 0 0 128 0 255
0.05273 1.65695 3.50427 0 0 0 0 128 0 255
0.0620309 1.6414 3.50123 0 0 0 0 128 0 255
0.0231731 1.76216 3.61904 0 0 0 0 128 0 255
0.0352912 1.76661 3.66189 0 0 0 0 128 0 255
0.0645967 1.63669 3.50392 0 0 0 0 128 0 255
0.0395381 1.75933 3.66941 0 0 0 0 128 0 255
0.0262035 1.71541 3.55838 0 0 0 0 128 0 255
0.0557783 1.64962 3.51391 0 0 0 0 128 0 255
0.0306352 1.75291 3.6403 0 0 0 0 128 0 255
0.0367425 1.75371 3.65912 0 0 0 0 128 0 255
0.0719599 1.62333 3.51801 0 0 0 0 128 0 255
0.0756077 1.61752 3.52458 0 0 0 0 128 0 255
0.0385228 1.70593 3.62011 0 0 0 0 128 0 255
0.0807993 1.61019 3.55291 0 0 0 0 128 0 255
