ply
format ascii 1.0
comment VCGLIB generated
element vertex 703
property float x
property float y
property float z
property float nx
property float ny
property float nz
property uchar red
property uchar green
property uchar blue
property uchar alpha
element face 0
property list uchar int vertex_indices
end_header
0.543354 0.111451 4.28889 0 0 0 0 128 128 255
0.504306 0.111849 4.28917 0 0 0 0 128 128 255
0.539116 0.117227 4.28971 0 0 0 0 128 128 255
0.731797 0.129013 4.29026 0 0 0 0 128 128 255
0.733594 0.134043 4.29095 0 0 0 0 128 128 255
0.72416 0.144565 4.29246 0 0 0 0 128 128 255
0.727077 0.146666 4.29273 0 0 0 0 128 128 255
0.580158 0.141694 4.29287 0 0 0 0 128 128 255
0.69898 0.148499 4.29315 0 0 0 0 128 128 255
0.575001 0.14545 4.29342 0 0 0 0 128 128 255
0.715725 0.155127 4.29397 0 0 0 0 128 128 255
0.710689 0.155914 4.29411 0 0 0 0 128 128 255
0.522642 0.153238 4.29479 0 0 0 0 128 128 255
0.689023 0.171888 4.29644 0 0 0 0 128 128 255
0.711005 0.17278 4.29644 0 0 0 0 128 128 255
0.528949 0.195131 4.30056 0 0 0 0 128 128 255
0.516838 0.197613 4.30097 0 0 0 0 128 128 255
0.529546 0.205069 4.30193 0 0 0 0 128 128 255
0.531504 0.20614 4.30207 0 0 0 0 128 128 255
0.98852 0.264343 4.30756 0 0 0 0 128 128 255
1.01646 0.266468 4.3077 0 0 0 0 128 128 255
0.491808 0.247156 4.30797 0 0 0 0 128 128 255
1.04036 0.269421 4.30797 0 0 0 0 128 128 255
0.458634 0.250767 4.30866 0 0 0 0 128 128 255
1.04195 0.279399 4.30935 0 0 0 0 128 128 255
1.05386 0.281865 4.30962 0 0 0 0 128 128 255
0.962857 0.280154 4.3099 0 0 0 0 128 128 255
1.02656 0.288688 4.31072 0 0 0 0 128 128 255
1.05654 0.289905 4.31072 0 0 0 0 128 128 255
1.02944 0.291779 4.31113 0 0 0 0 128 128 255
0.953343 0.292655 4.31168 0 0 0 0 128 128 255
0.489283 0.284725 4.31319 0 0 0 0 128 128 255
0.425215 0.285099 4.3136 0 0 0 0 128 128 255
1.11665 0.313162 4.3136 0 0 0 0 128 128 255
1.11045 0.317868 4.31429 0 0 0 0 128 128 255
1.21029 0.323903 4.31456 0 0 0 0 128 128 255
0.947463 0.314226 4.3147 0 0 0 0 128 128 255
1.10529 0.321624 4.31484 0 0 0 0 128 128 255
1.1232 0.324333 4.31511 0 0 0 0 128 128 255
0.413742 0.296529 4.31525 0 0 0 0 128 128 255
0.483604 0.301347 4.31552 0 0 0 0 128 128 255
1.08699 0.328811 4.31594 0 0 0 0 128 128 255
1.16892 0.332137 4.31594 0 0 0 0 128 128 255
1.72046 0.354523 4.31594 0 0 0 0 128 128 255
1.39369 0.342251 4.31607 0 0 0 0 128 128 255
1.71943 0.355472 4.31607 0 0 0 0 128 128 255
1.1138 0.333865 4.31649 0 0 0 0 128 128 255
1.1158 0.333946 4.31649 0 0 0 0 128 128 255
1.0748 0.333273 4.31662 0 0 0 0 128 128 255
1.06476 0.333858 4.31676 0 0 0 0 128 128 255
0.942623 0.334848 4.31758 0 0 0 0 128 128 255
1.09446 0.342002 4.31772 0 0 0 0 128 128 255
1.73393 0.367957 4.31772 0 0 0 0 128 128 255
1.07236 0.344079 4.31813 0 0 0 0 128 128 255
1.11228 0.346691 4.31827 0 0 0 0 128 128 255
0.997296 0.344007 4.31854 0 0 0 0 128 128 255
1.07523 0.34717 4.31854 0 0 0 0 128 128 255
1.09122 0.347819 4.31854 0 0 0 0 128 128 255
1.08019 0.348363 4.31868 0 0 0 0 128 128 255
1.00121 0.346148 4.31882 0 0 0 0 128 128 255
1.28378 0.362574 4.31951 0 0 0 0 128 128 255
1.69244 0.379161 4.31951 0 0 0 0 128 128 255
1.15185 0.35821 4.31964 0 0 0 0 128 128 255
1.10585 0.357335 4.31978 0 0 0 0 128 128 255
0.988821 0.355559 4.32019 0 0 0 0 128 128 255
1.11572 0.360709 4.32019 0 0 0 0 128 128 255
1.72018 0.386235 4.32033 0 0 0 0 128 128 255
1.05157 0.363062 4.32088 0 0 0 0 128 128 255
0.926631 0.358983 4.32102 0 0 0 0 128 128 255
1.17942 0.369243 4.32102 0 0 0 0 128 128 255
1.37726 0.377273 4.32102 0 0 0 0 128 128 255
1.07747 0.366096 4.32115 0 0 0 0 128 128 255
1.15141 0.369097 4.32115 0 0 0 0 128 128 255
1.05436 0.368133 4.32157 0 0 0 0 128 128 255
1.09421 0.372724 4.32198 0 0 0 0 128 128 255
1.1042 0.37313 4.32198 0 0 0 0 128 128 255
1.11116 0.374403 4.32211 0 0 0 0 128 128 255
0.950209 0.369853 4.32239 0 0 0 0 128 128 255
1.07011 0.37472 4.32239 0 0 0 0 128 128 255
1.14701 0.378832 4.32253 0 0 0 0 128 128 255
1.7175 0.402979 4.32266 0 0 0 0 128 128 255
0.922072 0.372677 4.32294 0 0 0 0 128 128 255
1.07978 0.383043 4.32349 0 0 0 0 128 128 255
0.498139 0.362409 4.3239 0 0 0 0 128 128 255
1.04769 0.384714 4.3239 0 0 0 0 128 128 255
1.56526 0.405722 4.3239 0 0 0 0 128 128 255
1.1016 0.387894 4.32404 0 0 0 0 128 128 255
1.47625 0.404092 4.32417 0 0 0 0 128 128 255
1.18445 0.39324 4.32431 0 0 0 0 128 128 255
1.18541 0.39427 4.32445 0 0 0 0 128 128 255
1.09541 0.392599 4.32472 0 0 0 0 128 128 255
1.13637 0.394262 4.32472 0 0 0 0 128 128 255
1.04433 0.3935 4.32513 0 0 0 0 128 128 255
1.11423 0.397329 4.32527 0 0 0 0 128 128 255
1.0982 0.39767 4.32541 0 0 0 0 128 128 255
1.6846 0.424444 4.32582 0 0 0 0 128 128 255
1.16894 0.405498 4.3261 0 0 0 0 128 128 255
1.68652 0.426505 4.3261 0 0 0 0 128 128 255
0.448497 0.377247 4.32623 0 0 0 0 128 128 255
1.03601 0.401094 4.32623 0 0 0 0 128 128 255
1.2948 0.411597 4.32623 0 0 0 0 128 128 255
1.68744 0.428525 4.32637 0 0 0 0 128 128 255
0.983975 0.400964 4.32651 0 0 0 0 128 128 255
1.05292 0.403762 4.32651 0 0 0 0 128 128 255
1.16083 0.408142 4.32651 0 0 0 0 128 128 255
1.18481 0.409116 4.32651 0 0 0 0 128 128 255
0.978939 0.401751 4.32665 0 0 0 0 128 128 255
1.09684 0.406537 4.32665 0 0 0 0 128 128 255
1.68536 0.430423 4.32665 0 0 0 0 128 128 255
1.12778 0.408783 4.32678 0 0 0 0 128 128 255
1.16075 0.410122 4.32678 0 0 0 0 128 128 255
1.68931 0.431575 4.32678 0 0 0 0 128 128 255
0.458207 0.384581 4.32719 0 0 0 0 128 128 255
1.09268 0.410333 4.32719 0 0 0 0 128 128 255
1.10867 0.410982 4.32719 0 0 0 0 128 128 255
1.70214 0.436061 4.32733 0 0 0 0 128 128 255
1.04764 0.410488 4.32747 0 0 0 0 128 128 255
0.979577 0.410699 4.32788 0 0 0 0 128 128 255
0.998561 0.41147 4.32788 0 0 0 0 128 128 255
1.08649 0.415038 4.32788 0 0 0 0 128 128 255
1.18037 0.41984 4.32802 0 0 0 0 128 128 255
0.508884 0.393577 4.32816 0 0 0 0 128 128 255
0.954437 0.413644 4.32843 0 0 0 0 128 128 255
0.457806 0.394478 4.32857 0 0 0 0 128 128 255
1.3406 0.442205 4.33021 0 0 0 0 128 128 255
1.3416 0.442246 4.33021 0 0 0 0 128 128 255
0.486978 0.415489 4.33131 0 0 0 0 128 128 255
1.32828 0.449636 4.33131 0 0 0 0 128 128 255
1.32924 0.450666 4.33145 0 0 0 0 128 128 255
1.33024 0.450707 4.33145 0 0 0 0 128 128 255
1.3342 0.451859 4.33159 0 0 0 0 128 128 255
0.524786 0.420989 4.33186 0 0 0 0 128 128 255
0.471749 0.420819 4.33214 0 0 0 0 128 128 255
0.511595 0.42541 4.33255 0 0 0 0 128 128 255
0.522546 0.426846 4.33269 0 0 0 0 128 128 255
1.3507 0.464425 4.33324 0 0 0 0 128 128 255
0.446006 0.43861 4.33475 0 0 0 0 128 128 255
0.512951 0.441327 4.33475 0 0 0 0 128 128 255
0.450721 0.445741 4.33571 0 0 0 0 128 128 255
0.460713 0.446146 4.33571 0 0 0 0 128 128 255
1.09311 0.473797 4.33598 0 0 0 0 128 128 255
1.19799 0.479045 4.33612 0 0 0 0 128 128 255
1.20198 0.479207 4.33612 0 0 0 0 128 128 255
1.1979 0.481024 4.33639 0 0 0 0 128 128 255
0.456475 0.451922 4.33653 0 0 0 0 128 128 255
0.520342 0.456497 4.3368 0 0 0 0 128 128 255
1.07688 0.479086 4.3368 0 0 0 0 128 128 255
1.20977 0.48448 4.3368 0 0 0 0 128 128 255
0.450359 0.454648 4.33694 0 0 0 0 128 128 255
1.15378 0.483198 4.33694 0 0 0 0 128 128 255
1.17376 0.48401 4.33694 0 0 0 0 128 128 255
1.0768 0.481065 4.33708 0 0 0 0 128 128 255
1.16569 0.485665 4.33722 0 0 0 0 128 128 255
1.16969 0.485827 4.33722 0 0 0 0 128 128 255
1.17164 0.486898 4.33735 0 0 0 0 128 128 255
1.07365 0.484903 4.33763 0 0 0 0 128 128 255
1.07952 0.488115 4.33804 0 0 0 0 128 128 255
1.15937 0.493339 4.33832 0 0 0 0 128 128 255
1.16037 0.49338 4.33832 0 0 0 0 128 128 255
1.05038 0.490898 4.33859 0 0 0 0 128 128 255
1.06033 0.492293 4.33873 0 0 0 0 128 128 255
1.08527 0.494297 4.33886 0 0 0 0 128 128 255
1.15218 0.498004 4.339 0 0 0 0 128 128 255
1.05622 0.4951 4.33914 0 0 0 0 128 128 255
1.06313 0.497363 4.33941 0 0 0 0 128 128 255
0.512544 0.476008 4.33955 0 0 0 0 128 128 255
1.07908 0.499002 4.33955 0 0 0 0 128 128 255
0.510144 0.485824 4.34092 0 0 0 0 128 128 255
1.15561 0.512022 4.34092 0 0 0 0 128 128 255
1.15146 0.515819 4.34147 0 0 0 0 128 128 255
1.08531 0.51809 4.34216 0 0 0 0 128 128 255
0.521612 0.499177 4.34271 0 0 0 0 128 128 255
1.0947 0.533342 4.34422 0 0 0 0 128 128 255
1.25109 0.551585 4.34587 0 0 0 0 128 128 255
1.24205 0.55221 4.346 0 0 0 0 128 128 255
1.10285 0.554491 4.3471 0 0 0 0 128 128 255
1.25456 0.564614 4.34765 0 0 0 0 128 128 255
1.12163 0.56021 4.34779 0 0 0 0 128 128 255
0.47688 0.54098 4.34875 0 0 0 0 128 128 255
1.20224 0.571413 4.34889 0 0 0 0 128 128 255
1.11699 0.575883 4.34998 0 0 0 0 128 128 255
0.46245 0.551299 4.35026 0 0 0 0 128 128 255
1.46546 0.595975 4.35081 0 0 0 0 128 128 255
0.486987 0.5632 4.35177 0 0 0 0 128 128 255
0.489945 0.564311 4.35191 0 0 0 0 128 128 255
1.28329 0.596512 4.35191 0 0 0 0 128 128 255
1.10927 0.593414 4.35246 0 0 0 0 128 128 255
1.11019 0.595434 4.35273 0 0 0 0 128 128 255
0.486666 0.571118 4.35287 0 0 0 0 128 128 255
0.486626 0.572107 4.353 0 0 0 0 128 128 255
0.485265 0.580974 4.35424 0 0 0 0 128 128 255
0.46616 0.583173 4.35465 0 0 0 0 128 128 255
0.467159 0.583214 4.35465 0 0 0 0 128 128 255
1.10863 0.60925 4.35465 0 0 0 0 128 128 255
0.46612 0.584163 4.35479 0 0 0 0 128 128 255
0.482905 0.589801 4.35548 0 0 0 0 128 128 255
0.485862 0.590912 4.35561 0 0 0 0 128 128 255
1.19928 0.619868 4.35561 0 0 0 0 128 128 255
0.456806 0.591715 4.35589 0 0 0 0 128 128 255
0.117045 0.578917 4.35603 0 0 0 0 128 128 255
0.485742 0.593881 4.35603 0 0 0 0 128 128 255
0.495653 0.596266 4.3563 0 0 0 0 128 128 255
0.118923 0.581967 4.35644 0 0 0 0 128 128 255
0.514477 0.600996 4.35685 0 0 0 0 128 128 255
0.516475 0.601077 4.35685 0 0 0 0 128 128 255
0.471788 0.617107 4.35932 0 0 0 0 128 128 255
0.136025 0.604471 4.35946 0 0 0 0 128 128 255
-0.150021 0.5998 4.36042 0 0 0 0 128 128 255
-0.195506 0.610841 4.3622 0 0 0 0 128 128 255
-0.195547 0.611831 4.36234 0 0 0 0 128 128 255
0.19601 0.630698 4.36275 0 0 0 0 128 128 255
1.49038 0.697113 4.36467 0 0 0 0 128 128 255
1.11525 0.692791 4.36618 0 0 0 0 128 128 255
1.07025 0.691956 4.36632 0 0 0 0 128 128 255
1.07524 0.692159 4.36632 0 0 0 0 128 128 255
1.09011 0.695736 4.36673 0 0 0 0 128 128 255
1.08607 0.696564 4.36687 0 0 0 0 128 128 255
1.0071 0.69435 4.36701 0 0 0 0 128 128 255
1.14099 0.699784 4.36701 0 0 0 0 128 128 255
0.946106 0.692866 4.36715 0 0 0 0 128 128 255
1.01805 0.695786 4.36715 0 0 0 0 128 128 255
1.02504 0.696069 4.36715 0 0 0 0 128 128 255
1.03104 0.696313 4.36715 0 0 0 0 128 128 255
0.94207 0.693693 4.36728 0 0 0 0 128 128 255
1.10094 0.700141 4.36728 0 0 0 0 128 128 255
0.933037 0.694318 4.36742 0 0 0 0 128 128 255
0.991988 0.696711 4.36742 0 0 0 0 128 128 255
1.01897 0.697806 4.36742 0 0 0 0 128 128 255
1.16085 0.703564 4.36742 0 0 0 0 128 128 255
0.0527213 0.659579 4.36756 0 0 0 0 128 128 255
0.998942 0.697984 4.36756 0 0 0 0 128 128 255
1.13083 0.703337 4.36756 0 0 0 0 128 128 255
1.15178 0.705179 4.36769 0 0 0 0 128 128 255
0.983874 0.699355 4.36783 0 0 0 0 128 128 255
0.919887 0.697749 4.36797 0 0 0 0 128 128 255
1.04279 0.702738 4.36797 0 0 0 0 128 128 255
0.932836 0.699266 4.36811 0 0 0 0 128 128 255
1.04774 0.70393 4.36811 0 0 0 0 128 128 255
1.12967 0.707256 4.36811 0 0 0 0 128 128 255
1.2146 0.710703 4.36811 0 0 0 0 128 128 255
1.0477 0.70492 4.36824 0 0 0 0 128 128 255
1.00166 0.705034 4.36852 0 0 0 0 128 128 255
1.08759 0.708522 4.36852 0 0 0 0 128 128 255
1.17851 0.712212 4.36852 0 0 0 0 128 128 255
1.08055 0.709227 4.36866 0 0 0 0 128 128 255
1.04254 0.708676 4.36879 0 0 0 0 128 128 255
1.04554 0.708798 4.36879 0 0 0 0 128 128 255
1.05949 0.710355 4.36893 0 0 0 0 128 128 255
0.93755 0.706397 4.36907 0 0 0 0 128 128 255
0.988509 0.708466 4.36907 0 0 0 0 128 128 255
1.08943 0.712562 4.36907 0 0 0 0 128 128 255
1.11736 0.714687 4.36921 0 0 0 0 128 128 255
0.946463 0.708742 4.36934 0 0 0 0 128 128 255
1.00242 0.711013 4.36934 0 0 0 0 128 128 255
1.06736 0.713649 4.36934 0 0 0 0 128 128 255
1.08635 0.714419 4.36934 0 0 0 0 128 128 255
1.10433 0.715149 4.36934 0 0 0 0 128 128 255
0.419856 0.688359 4.36948 0 0 0 0 128 128 255
1.01337 0.712449 4.36948 0 0 0 0 128 128 255
1.04334 0.713665 4.36948 0 0 0 0 128 128 255
1.07632 0.715003 4.36948 0 0 0 0 128 128 255
1.13327 0.717315 4.36948 0 0 0 0 128 128 255
0.674606 0.69969 4.36962 0 0 0 0 128 128 255
0.930396 0.710072 4.36962 0 0 0 0 128 128 255
1.06728 0.715628 4.36962 0 0 0 0 128 128 255
0.108032 0.677685 4.36975 0 0 0 0 128 128 255
1.09522 0.717753 4.36975 0 0 0 0 128 128 255
1.03623 0.71635 4.36989 0 0 0 0 128 128 255
1.09218 0.718621 4.36989 0 0 0 0 128 128 255
1.1421 0.721639 4.37003 0 0 0 0 128 128 255
0.064867 0.68089 4.37044 0 0 0 0 128 128 255
0.149797 0.684337 4.37044 0 0 0 0 128 128 255
1.10201 0.722986 4.37044 0 0 0 0 128 128 255
0.950098 0.717811 4.37058 0 0 0 0 128 128 255
1.01005 0.720245 4.37058 0 0 0 0 128 128 255
1.03403 0.721218 4.37058 0 0 0 0 128 128 255
1.20988 0.728356 4.37058 0 0 0 0 128 128 255
0.925078 0.717787 4.37072 0 0 0 0 128 128 255
0.980033 0.720018 4.37072 0 0 0 0 128 128 255
1.017 0.721518 4.37072 0 0 0 0 128 128 255
1.03399 0.722208 4.37072 0 0 0 0 128 128 255
1.1449 0.726709 4.37072 0 0 0 0 128 128 255
1.39569 0.736888 4.37072 0 0 0 0 128 128 255
0.928036 0.718899 4.37085 0 0 0 0 128 128 255
0.939027 0.719345 4.37085 0 0 0 0 128 128 255
0.943023 0.719507 4.37085 0 0 0 0 128 128 255
0.932991 0.720091 4.37099 0 0 0 0 128 128 255
1.11284 0.727391 4.37099 0 0 0 0 128 128 255
0.926956 0.720837 4.37113 0 0 0 0 128 128 255
1.61639 0.74882 4.37113 0 0 0 0 128 128 255
0.0526359 0.686342 4.37126 0 0 0 0 128 128 255
0.99486 0.724585 4.37126 0 0 0 0 128 128 255
0.907891 0.722046 4.3714 0 0 0 0 128 128 255
0.998776 0.726727 4.37154 0 0 0 0 128 128 255
1.01376 0.727335 4.37154 0 0 0 0 128 128 255
1.01776 0.727497 4.37154 0 0 0 0 128 128 255
0.924797 0.724715 4.37168 0 0 0 0 128 128 255
0.950776 0.72577 4.37168 0 0 0 0 128 128 255
1.09366 0.731569 4.37168 0 0 0 0 128 128 255
1.12263 0.732745 4.37168 0 0 0 0 128 128 255
0.66597 0.715201 4.37181 0 0 0 0 128 128 255
0.985626 0.730158 4.37209 0 0 0 0 128 128 255
1.06856 0.733524 4.37209 0 0 0 0 128 128 255
1.08654 0.734254 4.37209 0 0 0 0 128 128 255
1.09354 0.734538 4.37209 0 0 0 0 128 128 255
0.967601 0.730418 4.37223 0 0 0 0 128 128 255
1.03954 0.733338 4.37223 0 0 0 0 128 128 255
1.05053 0.733784 4.37223 0 0 0 0 128 128 255
1.15744 0.738123 4.37223 0 0 0 0 128 128 255
1.0465 0.734611 4.37236 0 0 0 0 128 128 255
1.11244 0.737288 4.37236 0 0 0 0 128 128 255
0.104231 0.697358 4.3725 0 0 0 0 128 128 255
0.133208 0.698534 4.3725 0 0 0 0 128 128 255
0.96852 0.732438 4.3725 0 0 0 0 128 128 255
1.07144 0.736615 4.3725 0 0 0 0 128 128 255
1.14138 0.739454 4.3725 0 0 0 0 128 128 255
0.938504 0.732211 4.37264 0 0 0 0 128 128 255
0.994458 0.734482 4.37264 0 0 0 0 128 128 255
1.15233 0.74089 4.37264 0 0 0 0 128 128 255
1.03139 0.736972 4.37277 0 0 0 0 128 128 255
1.07631 0.739787 4.37291 0 0 0 0 128 128 255
1.13822 0.743291 4.37305 0 0 0 0 128 128 255
1.21412 0.747363 4.37319 0 0 0 0 128 128 255
1.06016 0.743097 4.37346 0 0 0 0 128 128 255
0.667446 0.728149 4.3736 0 0 0 0 128 128 255
1.16096 0.750162 4.37387 0 0 0 0 128 128 255
0.711289 0.732902 4.37401 0 0 0 0 128 128 255
0.748259 0.734403 4.37401 0 0 0 0 128 128 255
1.12395 0.749651 4.37401 0 0 0 0 128 128 255
0.743223 0.73519 4.37415 0 0 0 0 128 128 255
0.294552 0.71797 4.37429 0 0 0 0 128 128 255
0.648261 0.732327 4.37429 0 0 0 0 128 128 255
0.0557086 0.709267 4.37442 0 0 0 0 128 128 255
0.0536701 0.710176 4.37456 0 0 0 0 128 128 255
0.639108 0.735921 4.37483 0 0 0 0 128 128 255
0.668641 0.748024 4.37634 0 0 0 0 128 128 255
0.723596 0.750255 4.37634 0 0 0 0 128 128 255
0.714563 0.750879 4.37648 0 0 0 0 128 128 255
0.679552 0.75045 4.37662 0 0 0 0 128 128 255
0.749494 0.753288 4.37662 0 0 0 0 128 128 255
0.731228 0.759486 4.37758 0 0 0 0 128 128 255
0.732147 0.761506 4.37785 0 0 0 0 128 128 255
0.738142 0.76175 4.37785 0 0 0 0 128 128 255
0.671157 0.760022 4.37799 0 0 0 0 128 128 255
0.706007 0.764411 4.3784 0 0 0 0 128 128 255
0.662003 0.763616 4.37854 0 0 0 0 128 128 255
0.746853 0.769043 4.37882 0 0 0 0 128 128 255
0.686822 0.768589 4.37909 0 0 0 0 128 128 255
0.686742 0.770568 4.37936 0 0 0 0 128 128 255
0.693696 0.771842 4.3795 0 0 0 0 128 128 255
0.646694 0.770926 4.37964 0 0 0 0 128 128 255
0.72455 0.776068 4.37991 0 0 0 0 128 128 255
0.710521 0.77649 4.38005 0 0 0 0 128 128 255
0.993288 0.787967 4.38005 0 0 0 0 128 128 255
0.71144 0.77851 4.38033 0 0 0 0 128 128 255
0.697411 0.778932 4.38046 0 0 0 0 128 128 255
0.719192 0.784773 4.38115 0 0 0 0 128 128 255
0.725147 0.786006 4.38129 0 0 0 0 128 128 255
0.75812 0.787344 4.38129 0 0 0 0 128 128 255
0.718033 0.788691 4.3817 0 0 0 0 128 128 255
1.90801 0.837982 4.38184 0 0 0 0 128 128 255
0.710918 0.791377 4.38211 0 0 0 0 128 128 255
0.712876 0.792447 4.38225 0 0 0 0 128 128 255
0.717872 0.79265 4.38225 0 0 0 0 128 128 255
1.0476 0.806033 4.38225 0 0 0 0 128 128 255
0.710797 0.794346 4.38252 0 0 0 0 128 128 255
1.04252 0.80781 4.38252 0 0 0 0 128 128 255
1.06938 0.811874 4.38293 0 0 0 0 128 128 255
0.717631 0.798588 4.38307 0 0 0 0 128 128 255
0.726623 0.798953 4.38307 0 0 0 0 128 128 255
0.996361 0.810893 4.38321 0 0 0 0 128 128 255
1.14024 0.816733 4.38321 0 0 0 0 128 128 255
1.04328 0.813789 4.38335 0 0 0 0 128 128 255
1.1392 0.817682 4.38335 0 0 0 0 128 128 255
0.244899 0.782375 4.38348 0 0 0 0 128 128 255
0.716471 0.802507 4.38362 0 0 0 0 128 128 255
0.994242 0.813781 4.38362 0 0 0 0 128 128 255
1.04416 0.816798 4.38376 0 0 0 0 128 128 255
1.94242 0.853257 4.38376 0 0 0 0 128 128 255
0.873221 0.811843 4.38403 0 0 0 0 128 128 255
1.67456 0.844368 4.38403 0 0 0 0 128 128 255
0.711314 0.806263 4.38417 0 0 0 0 128 128 255
0.717309 0.806506 4.38417 0 0 0 0 128 128 255
0.881134 0.814147 4.38431 0 0 0 0 128 128 255
1.01902 0.819743 4.38431 0 0 0 0 128 128 255
1.02701 0.820068 4.38431 0 0 0 0 128 128 255
1.06794 0.82272 4.38444 0 0 0 0 128 128 255
1.92224 0.857395 4.38444 0 0 0 0 128 128 255
0.698164 0.809694 4.38472 0 0 0 0 128 128 255
0.878016 0.816994 4.38472 0 0 0 0 128 128 255
1.02382 0.824895 4.38499 0 0 0 0 128 128 255
1.72424 0.853324 4.38499 0 0 0 0 128 128 255
0.874898 0.819842 4.38513 0 0 0 0 128 128 255
0.875897 0.819882 4.38513 0 0 0 0 128 128 255
0.9938 0.824668 4.38513 0 0 0 0 128 128 255
1.02477 0.825925 4.38513 0 0 0 0 128 128 255
1.1157 0.829616 4.38513 0 0 0 0 128 128 255
1.12765 0.831092 4.38527 0 0 0 0 128 128 255
1.0217 0.827783 4.38541 0 0 0 0 128 128 255
1.06866 0.829689 4.38541 0 0 0 0 128 128 255
0.989683 0.827475 4.38554 0 0 0 0 128 128 255
1.04364 0.829665 4.38554 0 0 0 0 128 128 255
1.88295 0.863731 4.38554 0 0 0 0 128 128 255
-0.0744808 0.785274 4.38568 0 0 0 0 128 128 255
0.718866 0.817474 4.38568 0 0 0 0 128 128 255
0.719865 0.817515 4.38568 0 0 0 0 128 128 255
0.882731 0.824125 4.38568 0 0 0 0 128 128 255
1.00563 0.829113 4.38568 0 0 0 0 128 128 255
1.19547 0.836819 4.38568 0 0 0 0 128 128 255
0.872699 0.824709 4.38582 0 0 0 0 128 128 255
1.33228 0.844354 4.38595 0 0 0 0 128 128 255
1.87084 0.866213 4.38595 0 0 0 0 128 128 255
1.00851 0.832204 4.38609 0 0 0 0 128 128 255
1.05443 0.835059 4.38623 0 0 0 0 128 128 255
1.2083 0.841305 4.38623 0 0 0 0 128 128 255
1.01542 0.834468 4.38637 0 0 0 0 128 128 255
1.89769 0.870277 4.38637 0 0 0 0 128 128 255
1.07433 0.83785 4.3865 0 0 0 0 128 128 255
1.1193 0.839675 4.3865 0 0 0 0 128 128 255
1.03033 0.837055 4.38664 0 0 0 0 128 128 255
1.03932 0.83742 4.38664 0 0 0 0 128 128 255
1.07325 0.839789 4.38678 0 0 0 0 128 128 255
0.998274 0.837737 4.38692 0 0 0 0 128 128 255
1.0862 0.841306 4.38692 0 0 0 0 128 128 255
1.02721 0.839903 4.38705 0 0 0 0 128 128 255
1.9174 0.878016 4.38733 0 0 0 0 128 128 255
1.55865 0.864447 4.38747 0 0 0 0 128 128 255
0.987002 0.844219 4.38788 0 0 0 0 128 128 255
1.09883 0.85074 4.38815 0 0 0 0 128 128 255
-0.0432705 0.805376 4.38829 0 0 0 0 128 128 255
0.938921 0.845241 4.38829 0 0 0 0 128 128 255
0.712906 0.841025 4.38898 0 0 0 0 128 128 255
0.717902 0.841227 4.38898 0 0 0 0 128 128 255
1.92259 0.898054 4.39007 0 0 0 0 128 128 255
0.83704 0.864899 4.39158 0 0 0 0 128 128 255
0.838039 0.864939 4.39158 0 0 0 0 128 128 255
0.838837 0.869928 4.39227 0 0 0 0 128 128 255
1.08364 0.879864 4.39227 0 0 0 0 128 128 255
0.927478 0.905249 4.39666 0 0 0 0 128 128 255
0.889228 0.910636 4.39762 0 0 0 0 128 128 255
0.931073 0.915308 4.39804 0 0 0 0 128 128 255
0.923958 0.917994 4.39845 0 0 0 0 128 128 255
0.960888 0.920484 4.39859 0 0 0 0 128 128 255
0.955811 0.922261 4.39886 0 0 0 0 128 128 255
0.928753 0.923145 4.39913 0 0 0 0 128 128 255
0.925595 0.926982 4.39968 0 0 0 0 128 128 255
0.562412 0.924137 4.40133 0 0 0 0 128 128 255
0.930787 0.94702 4.40243 0 0 0 0 128 128 255
0.0121811 0.918658 4.40367 0 0 0 0 128 128 255
0.89941 0.95566 4.4038 0 0 0 0 128 128 255
-0.105842 0.916841 4.40408 0 0 0 0 128 128 255
0.937218 0.96116 4.40435 0 0 0 0 128 128 255
1.00908 0.966059 4.40463 0 0 0 0 128 128 255
-0.0522082 0.926949 4.40518 0 0 0 0 128 128 255
0.928904 0.968753 4.40545 0 0 0 0 128 128 255
0.9329 0.968915 4.40545 0 0 0 0 128 128 255
0.926383 0.981538 4.40723 0 0 0 0 128 128 255
0.941371 0.982147 4.40723 0 0 0 0 128 128 255
0.507688 0.965536 4.40737 0 0 0 0 128 128 255
0.887335 0.981936 4.40751 0 0 0 0 128 128 255
0.935054 0.989821 4.40833 0 0 0 0 128 128 255
0.830979 0.989562 4.40888 0 0 0 0 128 128 255
0.809635 0.997618 4.41012 0 0 0 0 128 128 255
0.918545 1.00204 4.41012 0 0 0 0 128 128 255
0.123918 0.976725 4.41108 0 0 0 0 128 128 255
0.861271 1.00764 4.41122 0 0 0 0 128 128 255
0.864108 1.01173 4.41177 0 0 0 0 128 128 255
-0.0521781 0.975526 4.4119 0 0 0 0 128 128 255
0.797082 1.01099 4.41204 0 0 0 0 128 128 255
0.807752 1.01935 4.41314 0 0 0 0 128 128 255
-0.0465848 0.985667 4.41328 0 0 0 0 128 128 255
0.812708 1.02054 4.41328 0 0 0 0 128 128 255
0.812627 1.02252 4.41355 0 0 0 0 128 128 255
0.892481 1.02775 4.41382 0 0 0 0 128 128 255
0.899475 1.02803 4.41382 0 0 0 0 128 128 255
0.9173 1.03272 4.41437 0 0 0 0 128 128 255
0.897276 1.0329 4.41451 0 0 0 0 128 128 255
0.797318 1.02983 4.41465 0 0 0 0 128 128 255
0.805312 1.03016 4.41465 0 0 0 0 128 128 255
0.406479 1.01793 4.4152 0 0 0 0 128 128 255
0.785168 1.0333 4.4152 0 0 0 0 128 128 255
0.930927 1.04219 4.41561 0 0 0 0 128 128 255
0.830969 1.03913 4.41575 0 0 0 0 128 128 255
1.00371 1.04911 4.41616 0 0 0 0 128 128 255
0.867657 1.04756 4.41671 0 0 0 0 128 128 255
0.796314 1.05458 4.41808 0 0 0 0 128 128 255
0.790279 1.05532 4.41822 0 0 0 0 128 128 255
0.82517 1.05872 4.41849 0 0 0 0 128 128 255
0.984958 1.06719 4.41877 0 0 0 0 128 128 255
0.826048 1.06173 4.4189 0 0 0 0 128 128 255
1.10766 1.07713 4.41945 0 0 0 0 128 128 255
0.801747 1.06867 4.42 0 0 0 0 128 128 255
0.82173 1.06949 4.42 0 0 0 0 128 128 255
0.830723 1.06985 4.42 0 0 0 0 128 128 255
0.822569 1.07349 4.42055 0 0 0 0 128 128 255
0.830562 1.07381 4.42055 0 0 0 0 128 128 255
0.794511 1.07433 4.42083 0 0 0 0 128 128 255
0.826485 1.07563 4.42083 0 0 0 0 128 128 255
0.830321 1.07975 4.42138 0 0 0 0 128 128 255
0.830281 1.08074 4.42151 0 0 0 0 128 128 255
0.13641 1.06348 4.42302 0 0 0 0 128 128 255
-0.0485583 1.05895 4.42344 0 0 0 0 128 128 255
0.0302161 1.06611 4.42398 0 0 0 0 128 128 255
0.107113 1.07022 4.42412 0 0 0 0 128 128 255
0.830517 1.09958 4.42412 0 0 0 0 128 128 255
-0.0499591 1.0688 4.42481 0 0 0 0 128 128 255
0.125776 1.07891 4.42522 0 0 0 0 128 128 255
1.08187 1.12069 4.42563 0 0 0 0 128 128 255
1.05073 1.12339 4.42618 0 0 0 0 128 128 255
1.06972 1.12416 4.42618 0 0 0 0 128 128 255
0.968479 1.12798 4.42728 0 0 0 0 128 128 255
1.05433 1.13345 4.42755 0 0 0 0 128 128 255
-0.0438085 1.08987 4.42769 0 0 0 0 128 128 255
1.06624 1.13592 4.42783 0 0 0 0 128 128 255
1.08818 1.1378 4.42797 0 0 0 0 128 128 255
1.09018 1.13788 4.42797 0 0 0 0 128 128 255
1.07207 1.14012 4.42838 0 0 0 0 128 128 255
1.05604 1.14046 4.42851 0 0 0 0 128 128 255
1.10388 1.14538 4.42893 0 0 0 0 128 128 255
1.01564 1.14972 4.43003 0 0 0 0 128 128 255
0.728792 1.14006 4.4303 0 0 0 0 128 128 255
1.03142 1.15532 4.43071 0 0 0 0 128 128 255
0.841498 1.1496 4.43099 0 0 0 0 128 128 255
1.00852 1.17719 4.43387 0 0 0 0 128 128 255
1.24932 1.18697 4.43387 0 0 0 0 128 128 255
0.963352 1.18032 4.43456 0 0 0 0 128 128 255
1.05819 1.18615 4.43483 0 0 0 0 128 128 255
1.08513 1.18823 4.43497 0 0 0 0 128 128 255
0.716395 1.17426 4.4351 0 0 0 0 128 128 255
0.739295 1.17717 4.43538 0 0 0 0 128 128 255
0.711198 1.179 4.43579 0 0 0 0 128 128 255
0.738176 1.1801 4.43579 0 0 0 0 128 128 255
0.327433 1.16541 4.43607 0 0 0 0 128 128 255
0.948721 1.19558 4.43675 0 0 0 0 128 128 255
0.743729 1.19123 4.4373 0 0 0 0 128 128 255
0.757476 1.19774 4.43813 0 0 0 0 128 128 255
1.09883 1.22051 4.43936 0 0 0 0 128 128 255
0.0586094 1.18027 4.43964 0 0 0 0 128 128 255
0.934526 1.22475 4.44087 0 0 0 0 128 128 255
0.896397 1.22717 4.44142 0 0 0 0 128 128 255
0.073592 1.20567 4.44307 0 0 0 0 128 128 255
0.0795872 1.20591 4.44307 0 0 0 0 128 128 255
1.16817 1.26298 4.44485 0 0 0 0 128 128 255
1.02712 1.26122 4.4454 0 0 0 0 128 128 255
0.912178 1.25755 4.44554 0 0 0 0 128 128 255
1.00598 1.26433 4.44595 0 0 0 0 128 128 255
1.01697 1.26477 4.44595 0 0 0 0 128 128 255
0.514144 1.25031 4.44677 0 0 0 0 128 128 255
1.01773 1.27075 4.44677 0 0 0 0 128 128 255
1.15857 1.27746 4.44691 0 0 0 0 128 128 255
1.15849 1.27944 4.44719 0 0 0 0 128 128 255
0.499954 1.25469 4.44746 0 0 0 0 128 128 255
1.00949 1.27637 4.4476 0 0 0 0 128 128 255
1.03539 1.2794 4.44787 0 0 0 0 128 128 255
0.998383 1.27889 4.44801 0 0 0 0 128 128 255
1.04634 1.28084 4.44801 0 0 0 0 128 128 255
1.00833 1.28029 4.44815 0 0 0 0 128 128 255
1.03132 1.28122 4.44815 0 0 0 0 128 128 255
-0.206825 1.23493 4.4487 0 0 0 0 128 128 255
1.03016 1.28514 4.4487 0 0 0 0 128 128 255
1.01501 1.28849 4.44925 0 0 0 0 128 128 255
1.024 1.28885 4.44925 0 0 0 0 128 128 255
1.01888 1.29162 4.44966 0 0 0 0 128 128 255
1.02987 1.29206 4.44966 0 0 0 0 128 128 255
1.0987 1.29783 4.45007 0 0 0 0 128 128 255
1.19158 1.30259 4.45021 0 0 0 0 128 128 255
1.09738 1.30571 4.45117 0 0 0 0 128 128 255
0.505824 1.28269 4.4513 0 0 0 0 128 128 255
1.04718 1.30962 4.45199 0 0 0 0 128 128 255
-0.164192 1.29416 4.45666 0 0 0 0 128 128 255
1.09077 1.3451 4.45666 0 0 0 0 128 128 255
1.06771 1.34614 4.45693 0 0 0 0 128 128 255
1.11032 1.35679 4.45817 0 0 0 0 128 128 255
0.505372 1.34314 4.45968 0 0 0 0 128 128 255
1.10176 1.37032 4.46009 0 0 0 0 128 128 255
1.11631 1.38182 4.4616 0 0 0 0 128 128 255
1.11419 1.38471 4.46201 0 0 0 0 128 128 255
1.05408 1.38623 4.46256 0 0 0 0 128 128 255
0.303653 1.35677 4.4627 0 0 0 0 128 128 255
0.985052 1.38541 4.46284 0 0 0 0 128 128 255
1.04592 1.38987 4.46311 0 0 0 0 128 128 255
1.15935 1.40637 4.46476 0 0 0 0 128 128 255
1.01622 1.40651 4.46558 0 0 0 0 128 128 255
1.09991 1.41585 4.46641 0 0 0 0 128 128 255
0.968699 1.41846 4.46751 0 0 0 0 128 128 255
0.999673 1.41971 4.46751 0 0 0 0 128 128 255
0.995516 1.42351 4.46805 0 0 0 0 128 128 255
1.04328 1.43041 4.46874 0 0 0 0 128 128 255
0.960183 1.431 4.46929 0 0 0 0 128 128 255
0.958943 1.4369 4.47011 0 0 0 0 128 128 255
0.987839 1.44005 4.47039 0 0 0 0 128 128 255
0.959822 1.43991 4.47053 0 0 0 0 128 128 255
0.981723 1.44278 4.4708 0 0 0 0 128 128 255
0.989676 1.44409 4.47094 0 0 0 0 128 128 255
0.976647 1.44455 4.47108 0 0 0 0 128 128 255
1.21937 1.45639 4.47135 0 0 0 0 128 128 255
0.989516 1.44805 4.47149 0 0 0 0 128 128 255
0.957462 1.44873 4.47176 0 0 0 0 128 128 255
0.961338 1.45186 4.47217 0 0 0 0 128 128 255
1.0073 1.45373 4.47217 0 0 0 0 128 128 255
0.98228 1.45371 4.47231 0 0 0 0 128 128 255
1.04423 1.45622 4.47231 0 0 0 0 128 128 255
1.21705 1.46423 4.47245 0 0 0 0 128 128 255
0.986076 1.45882 4.473 0 0 0 0 128 128 255
1.05702 1.4617 4.473 0 0 0 0 128 128 255
1.19191 1.46717 4.473 0 0 0 0 128 128 255
0.977003 1.46043 4.47327 0 0 0 0 128 128 255
0.974965 1.46134 4.47341 0 0 0 0 128 128 255
0.982878 1.46364 4.47368 0 0 0 0 128 128 255
0.957657 1.46857 4.47451 0 0 0 0 128 128 255
1.04151 1.47395 4.47478 0 0 0 0 128 128 255
0.157116 1.44103 4.47519 0 0 0 0 128 128 255
0.987392 1.47572 4.47533 0 0 0 0 128 128 255
1.13827 1.48185 4.47533 0 0 0 0 128 128 255
1.02128 1.47908 4.47561 0 0 0 0 128 128 255
0.96429 1.47776 4.47574 0 0 0 0 128 128 255
0.962051 1.48362 4.47657 0 0 0 0 128 128 255
0.111711 1.45009 4.4767 0 0 0 0 128 128 255
0.977917 1.48723 4.47698 0 0 0 0 128 128 255
0.94978 1.49006 4.47753 0 0 0 0 128 128 255
1.15561 1.49841 4.47753 0 0 0 0 128 128 255
1.00445 1.49922 4.47849 0 0 0 0 128 128 255
0.057032 1.46572 4.47918 0 0 0 0 128 128 255
0.997655 1.51877 4.48123 0 0 0 0 128 128 255
0.414933 1.50007 4.48192 0 0 0 0 128 128 255
-0.402514 1.46987 4.48233 0 0 0 0 128 128 255
0.0646991 1.49874 4.48371 0 0 0 0 128 128 255
0.802052 1.52966 4.48384 0 0 0 0 128 128 255
1.32362 1.55083 4.48384 0 0 0 0 128 128 255
1.32458 1.55186 4.48398 0 0 0 0 128 128 255
0.65585 1.53166 4.48494 0 0 0 0 128 128 255
0.663844 1.53198 4.48494 0 0 0 0 128 128 255
0.693779 1.53419 4.48508 0 0 0 0 128 128 255
0.67855 1.53952 4.4859 0 0 0 0 128 128 255
0.719517 1.54118 4.4859 0 0 0 0 128 128 255
0.758444 1.54375 4.48604 0 0 0 0 128 128 255
0.482631 1.53355 4.48618 0 0 0 0 128 128 255
0.814238 1.54998 4.48659 0 0 0 0 128 128 255
0.736141 1.55078 4.48714 0 0 0 0 128 128 255
0.763957 1.55587 4.48769 0 0 0 0 128 128 255
0.38319 1.5424 4.48796 0 0 0 0 128 128 255
0.386108 1.5445 4.48824 0 0 0 0 128 128 255
0.77179 1.56016 4.48824 0 0 0 0 128 128 255
0.772749 1.56119 4.48837 0 0 0 0 128 128 255
0.776585 1.56531 4.48892 0 0 0 0 128 128 255
0.766513 1.56688 4.4892 0 0 0 0 128 128 255
0.658441 1.56646 4.48975 0 0 0 0 128 128 255
0.76935 1.57096 4.48975 0 0 0 0 128 128 255
-0.274871 1.53056 4.49002 0 0 0 0 128 128 255
0.632342 1.56838 4.49016 0 0 0 0 128 128 255
0.701205 1.57315 4.49043 0 0 0 0 128 128 255
0.188587 1.55334 4.49057 0 0 0 0 128 128 255
0.698007 1.57798 4.49112 0 0 0 0 128 128 255
0.722785 1.58394 4.49181 0 0 0 0 128 128 255
0.766709 1.58672 4.49194 0 0 0 0 128 128 255
0.463677 1.58136 4.4929 0 0 0 0 128 128 255
0.399609 1.58173 4.49332 0 0 0 0 128 128 255
0.419151 1.59343 4.49483 0 0 0 0 128 128 255
0.430142 1.59388 4.49483 0 0 0 0 128 128 255
0.779813 1.60906 4.49496 0 0 0 0 128 128 255
0.483856 1.602 4.49565 0 0 0 0 128 128 255
0.79448 1.61759 4.49606 0 0 0 0 128 128 255
0.475662 1.60663 4.49634 0 0 0 0 128 128 255
0.439571 1.60814 4.49675 0 0 0 0 128 128 255
0.375543 1.60752 4.49702 0 0 0 0 128 128 255
0.787164 1.62522 4.49716 0 0 0 0 128 128 255
0.442368 1.61321 4.49743 0 0 0 0 128 128 255
0.427019 1.62151 4.49867 0 0 0 0 128 128 255
0.405875 1.62461 4.49922 0 0 0 0 128 128 255
0.555591 1.63466 4.49977 0 0 0 0 128 128 255
0.484328 1.63969 4.50087 0 0 0 0 128 128 255
0.69995 1.6534 4.50155 0 0 0 0 128 128 255
0.425813 1.6512 4.50279 0 0 0 0 128 128 255
0.600469 1.66324 4.50348 0 0 0 0 128 128 255
0.690395 1.66689 4.50348 0 0 0 0 128 128 255
0.499471 1.66113 4.50375 0 0 0 0 128 128 255
0.693191 1.67196 4.50416 0 0 0 0 128 128 255
0.697067 1.6751 4.50457 0 0 0 0 128 128 255
0.372214 1.66488 4.50499 0 0 0 0 128 128 255
0.368177 1.66571 4.50512 0 0 0 0 128 128 255
0.411981 1.67146 4.50567 0 0 0 0 128 128 255
0.396913 1.67283 4.50595 0 0 0 0 128 128 255
0.682677 1.68442 4.50595 0 0 0 0 128 128 255
0.679639 1.68529 4.50608 0 0 0 0 128 128 255
0.672002 1.70084 4.50828 0 0 0 0 128 128 255
0.746901 1.70488 4.50842 0 0 0 0 128 128 255
0.495068 1.69565 4.50855 0 0 0 0 128 128 255
0.757651 1.71126 4.50924 0 0 0 0 128 128 255
0.747538 1.71382 4.50965 0 0 0 0 128 128 255
0.397425 1.70953 4.51103 0 0 0 0 128 128 255
0.394186 1.71534 4.51185 0 0 0 0 128 128 255
0.709685 1.7341 4.51267 0 0 0 0 128 128 255
0.682667 1.73399 4.51281 0 0 0 0 128 128 255
0.658606 1.735 4.51309 0 0 0 0 128 128 255
0.669517 1.73742 4.51336 0 0 0 0 128 128 255
0.470641 1.73034 4.5135 0 0 0 0 128 128 255
0.698252 1.74454 4.51418 0 0 0 0 128 128 255
0.729106 1.74876 4.5146 0 0 0 0 128 128 255
0.211969 1.74165 4.51652 0 0 0 0 128 128 255
0.196901 1.74302 4.51679 0 0 0 0 128 128 255
0.212848 1.74466 4.51693 0 0 0 0 128 128 255
0.893363 1.79508 4.52009 0 0 0 0 128 128 255
0.448874 1.84743 4.52984 0 0 0 0 128 128 255
