ply
format ascii 1.0
comment VCGLIB generated
element vertex 119
property float x
property float y
property float z
property float nx
property float ny
property float nz
property uchar red
property uchar green
property uchar blue
property uchar alpha
element face 0
property list uchar int vertex_indices
end_header
0.733737 1.05821 4.14221 0 0 0 255 0 255 255
0.741493 1.06017 4.14221 0 0 0 255 0 255 255
0.571266 0.962366 4.17607 0 0 0 255 0 255 255
1.02116 1.04734 4.19381 0 0 0 255 0 255 255
0.859785 0.943068 4.23304 0 0 0 255 0 255 255
0.885406 0.947802 4.23412 0 0 0 255 0 255 255
0.718534 0.873456 4.254 0 0 0 255 0 255 255
0.676255 0.83668 4.27013 0 0 0 255 0 255 255
0.687396 0.833407 4.27389 0 0 0 255 0 255 255
0.859336 0.867283 4.2798 0 0 0 255 0 255 255
0.874323 0.840627 4.29861 0 0 0 255 0 255 255
0.53594 0.742951 4.30614 0 0 0 255 0 255 255
0.711949 0.764808 4.32011 0 0 0 255 0 255 255
0.921351 0.805541 4.32764 0 0 0 255 0 255 255
0.938643 0.794254 4.33731 0 0 0 255 0 255 255
1.75796 0.99692 4.34 0 0 0 255 0 255 255
1.09792 0.829278 4.34053 0 0 0 255 0 255 255
0.734961 0.734962 4.34215 0 0 0 255 0 255 255
1.104 0.825598 4.34376 0 0 0 255 0 255 255
1.2486 0.812556 4.37439 0 0 0 255 0 255 255
1.25386 0.812145 4.37547 0 0 0 255 0 255 255
1.00849 0.74232 4.38031 0 0 0 255 0 255 255
1.49138 0.859982 4.38299 0 0 0 255 0 255 255
1.50987 0.860303 4.38568 0 0 0 255 0 255 255
1.07191 0.744426 4.38891 0 0 0 255 0 255 255
1.51076 0.8527 4.39052 0 0 0 255 0 255 255
1.02931 0.729315 4.39159 0 0 0 255 0 255 255
1.55057 0.858411 4.39321 0 0 0 255 0 255 255
1.5593 0.860615 4.39321 0 0 0 255 0 255 255
1.55659 0.859063 4.39374 0 0 0 255 0 255 255
1.59925 0.869842 4.39374 0 0 0 255 0 255 255
0.997589 0.71608 4.39482 0 0 0 255 0 255 255
1.02418 0.721059 4.39589 0 0 0 255 0 255 255
1.01178 0.717057 4.39643 0 0 0 255 0 255 255
1.00035 0.7133 4.39697 0 0 0 255 0 255 255
1.47701 0.831127 4.39858 0 0 0 255 0 255 255
1.60464 0.860765 4.40019 0 0 0 255 0 255 255
1.02354 0.711331 4.4018 0 0 0 255 0 255 255
1.06253 0.720312 4.40234 0 0 0 255 0 255 255
1.20505 0.756322 4.40234 0 0 0 255 0 255 255
1.1376 0.737539 4.40342 0 0 0 255 0 255 255
1.19792 0.75191 4.40395 0 0 0 255 0 255 255
1.52721 0.832502 4.40557 0 0 0 255 0 255 255
1.09486 0.718912 4.40825 0 0 0 255 0 255 255
1.11175 0.721442 4.40933 0 0 0 255 0 255 255
1.17186 0.73663 4.40933 0 0 0 255 0 255 255
1.64444 0.854295 4.4104 0 0 0 255 0 255 255
1.58183 0.836737 4.41148 0 0 0 255 0 255 255
1.6943 0.865153 4.41148 0 0 0 255 0 255 255
1.2497 0.751077 4.41255 0 0 0 255 0 255 255
1.68793 0.861803 4.41255 0 0 0 255 0 255 255
1.20918 0.739971 4.41309 0 0 0 255 0 255 255
1.67456 0.857556 4.41309 0 0 0 255 0 255 255
1.56521 0.829057 4.41363 0 0 0 255 0 255 255
1.32074 0.763809 4.41578 0 0 0 255 0 255 255
1.14685 0.717262 4.41739 0 0 0 255 0 255 255
1.61928 0.831412 4.42062 0 0 0 255 0 255 255
1.86463 0.889056 4.4233 0 0 0 255 0 255 255
1.30369 0.745583 4.42438 0 0 0 255 0 255 255
1.1032 0.694057 4.42492 0 0 0 255 0 255 255
1.6987 0.843651 4.42545 0 0 0 255 0 255 255
1.89205 0.890765 4.42653 0 0 0 255 0 255 255
1.87619 0.884148 4.42814 0 0 0 255 0 255 255
1.31891 0.742472 4.42868 0 0 0 255 0 255 255
1.67514 0.830741 4.42975 0 0 0 255 0 255 255
1.25616 0.721398 4.4319 0 0 0 255 0 255 255
1.31869 0.731108 4.43567 0 0 0 255 0 255 255
1.47132 0.767934 4.43674 0 0 0 255 0 255 255
1.26017 0.713712 4.43728 0 0 0 255 0 255 255
1.45913 0.763114 4.43781 0 0 0 255 0 255 255
1.29514 0.718199 4.43996 0 0 0 255 0 255 255
1.90615 0.871712 4.4405 0 0 0 255 0 255 255
1.38578 0.735013 4.44373 0 0 0 255 0 255 255
1.92969 0.872441 4.44373 0 0 0 255 0 255 255
1.92199 0.866148 4.44641 0 0 0 255 0 255 255
1.38819 0.729535 4.44749 0 0 0 255 0 255 255
1.61131 0.777212 4.45286 0 0 0 255 0 255 255
1.41374 0.72642 4.4534 0 0 0 255 0 255 255
1.47024 0.735478 4.45663 0 0 0 255 0 255 255
1.51178 0.742496 4.45878 0 0 0 255 0 255 255
1.88817 0.836727 4.45931 0 0 0 255 0 255 255
1.41496 0.709333 4.46415 0 0 0 255 0 255 255
1.44017 0.715703 4.46415 0 0 0 255 0 255 255
1.52258 0.736525 4.46415 0 0 0 255 0 255 255
1.5155 0.72778 4.46845 0 0 0 255 0 255 255
1.60068 0.745822 4.4706 0 0 0 255 0 255 255
1.54271 0.730306 4.47114 0 0 0 255 0 255 255
1.58738 0.737242 4.47382 0 0 0 255 0 255 255
1.7274 0.770882 4.4749 0 0 0 255 0 255 255
1.65322 0.746051 4.47866 0 0 0 255 0 255 255
1.71257 0.760177 4.4792 0 0 0 255 0 255 255
1.53729 0.71502 4.47974 0 0 0 255 0 255 255
1.70017 0.756175 4.47974 0 0 0 255 0 255 255
1.6519 0.743109 4.48027 0 0 0 255 0 255 255
1.47856 0.698441 4.48081 0 0 0 255 0 255 255
1.59103 0.726858 4.48081 0 0 0 255 0 255 255
1.65585 0.739756 4.48296 0 0 0 255 0 255 255
1.89476 0.798383 4.48404 0 0 0 255 0 255 255
1.73036 0.755103 4.48511 0 0 0 255 0 255 255
1.50875 0.69737 4.48619 0 0 0 255 0 255 255
1.65368 0.727902 4.48995 0 0 0 255 0 255 255
1.92854 0.79126 4.49371 0 0 0 255 0 255 255
1.33766 0.631528 4.50016 0 0 0 255 0 255 255
1.52229 0.676437 4.50124 0 0 0 255 0 255 255
1.3441 0.630545 4.50177 0 0 0 255 0 255 255
1.40939 0.637474 4.50769 0 0 0 255 0 255 255
1.41154 0.637146 4.50822 0 0 0 255 0 255 255
1.30122 0.608402 4.50876 0 0 0 255 0 255 255
1.22551 0.581446 4.5136 0 0 0 255 0 255 255
1.2242 0.578503 4.51521 0 0 0 255 0 255 255
1.2289 0.576213 4.51736 0 0 0 255 0 255 255
1.21192 0.565835 4.52112 0 0 0 255 0 255 255
1.44793 0.623728 4.5222 0 0 0 255 0 255 255
1.51952 0.626159 4.53187 0 0 0 255 0 255 255
1.53916 0.613727 4.54262 0 0 0 255 0 255 255
1.54719 0.610536 4.54585 0 0 0 255 0 255 255
1.54005 0.606124 4.54746 0 0 0 255 0 255 255
1.59808 0.617306 4.54961 0 0 0 255 0 255 255
1.21273 0.391211 4.62915 0 0 0 255 0 255 255
