ply
format ascii 1.0
comment VCGLIB generated
element vertex 931
property float x
property float y
property float z
property float nx
property float ny
property float nz
property uchar red
property uchar green
property uchar blue
property uchar alpha
element face 0
property list uchar int vertex_indices
end_header
-0.0673597 0.356519 3.61686 0 0 0 128 128 128 255
-0.246112 0.913493 3.60609 0 0 0 128 128 128 255
-0.0738791 0.407044 3.61469 0 0 0 128 128 128 255
-0.0716802 0.406723 3.61444 0 0 0 128 128 128 255
-0.0732876 0.414619 3.61417 0 0 0 128 128 128 255
-0.0758512 0.425358 3.61386 0 0 0 128 128 128 255
-0.0583541 0.376386 3.61459 0 0 0 128 128 128 255
-0.0648397 0.420598 3.61281 0 0 0 128 128 128 255
-0.0747533 0.459452 3.61175 0 0 0 128 128 128 255
-0.230545 0.941873 3.60257 0 0 0 128 128 128 255
-0.226781 0.943128 3.60206 0 0 0 128 128 128 255
-0.0717146 0.481546 3.61013 0 0 0 128 128 128 255
-0.246538 1.00505 3.60085 0 0 0 128 128 128 255
-0.0472118 0.411722 3.61123 0 0 0 128 128 128 255
-0.0755658 0.499234 3.60958 0 0 0 128 128 128 255
-0.231091 0.993338 3.59974 0 0 0 128 128 128 255
-0.229514 0.991756 3.59964 0 0 0 128 128 128 255
-0.0713052 0.530168 3.60736 0 0 0 128 128 128 255
-0.224171 0.991431 3.59906 0 0 0 128 128 128 255
-0.0487257 0.469189 3.60819 0 0 0 128 128 128 255
-0.150326 0.777855 3.60256 0 0 0 128 128 128 255
-0.0563948 0.498251 3.60745 0 0 0 128 128 128 255
-0.0353922 0.438854 3.60837 0 0 0 128 128 128 255
-0.0319585 0.444216 3.6077 0 0 0 128 128 128 255
-0.0358062 0.461905 3.60716 0 0 0 128 128 128 255
-0.0215728 0.441357 3.60671 0 0 0 128 128 128 255
-0.066801 0.579104 3.60419 0 0 0 128 128 128 255
-0.0636575 0.579099 3.60385 0 0 0 128 128 128 255
-0.0426423 0.516544 3.60495 0 0 0 128 128 128 255
-0.041383 0.51591 3.60484 0 0 0 128 128 128 255
-0.0649578 0.589206 3.60345 0 0 0 128 128 128 255
-0.0413953 0.519068 3.60468 0 0 0 128 128 128 255
-0.0264702 0.483994 3.60495 0 0 0 128 128 128 255
-0.00870305 0.446707 3.60505 0 0 0 128 128 128 255
-0.118887 0.777806 3.59915 0 0 0 128 128 128 255
-0.189921 0.995483 3.59512 0 0 0 128 128 128 255
-0.017391 0.494404 3.60345 0 0 0 128 128 128 255
-0.0613452 0.628359 3.601 0 0 0 128 128 128 255
-0.0502148 0.598343 3.60141 0 0 0 128 128 128 255
-0.0648874 0.648259 3.60033 0 0 0 128 128 128 255
-0.0537696 0.621401 3.60058 0 0 0 128 128 128 255
-0.0314808 0.555054 3.60174 0 0 0 128 128 128 255
0.0783713 0.228061 3.60746 0 0 0 128 128 128 255
-0.0684283 0.668159 3.59966 0 0 0 128 128 128 255
0.0761307 0.237854 3.60718 0 0 0 128 128 128 255
-0.039146 0.584119 3.60102 0 0 0 128 128 128 255
-0.0222702 0.533885 3.6019 0 0 0 128 128 128 255
-0.105389 0.784421 3.59741 0 0 0 128 128 128 255
-0.0484048 0.617922 3.60021 0 0 0 128 128 128 255
0.00508845 0.45869 3.603 0 0 0 128 128 128 255
0.0760806 0.250487 3.60653 0 0 0 128 128 128 255
0.0789463 0.241956 3.60668 0 0 0 128 128 128 255
-0.162742 0.9645 3.59394 0 0 0 128 128 128 255
-0.0990843 0.781255 3.59693 0 0 0 128 128 128 255
-0.0229838 0.554729 3.6009 0 0 0 128 128 128 255
0.0830229 0.245426 3.6061 0 0 0 128 128 128 255
-0.176521 1.02736 3.5921 0 0 0 128 128 128 255
-0.0173153 0.553459 3.60039 0 0 0 128 128 128 255
0.00147098 0.497539 3.60137 0 0 0 128 128 128 255
-0.17052 1.02199 3.59178 0 0 0 128 128 128 255
-0.0218593 0.588837 3.59905 0 0 0 128 128 128 255
-0.00183696 0.538599 3.59962 0 0 0 128 128 128 255
0.0236137 0.469093 3.60064 0 0 0 128 128 128 255
-0.051544 0.695933 3.59657 0 0 0 128 128 128 255
0.095231 0.262152 3.60405 0 0 0 128 128 128 255
-0.164606 1.03872 3.59037 0 0 0 128 128 128 255
-0.155112 1.02608 3.59009 0 0 0 128 128 128 255
-0.0433498 0.693399 3.59591 0 0 0 128 128 128 255
0.0355908 0.464659 3.59971 0 0 0 128 128 128 255
0.0559591 0.407159 3.60062 0 0 0 128 128 128 255
0.0377967 0.464342 3.59952 0 0 0 128 128 128 255
0.0148363 0.54206 3.59787 0 0 0 128 128 128 255
-0.0116045 0.623886 3.59634 0 0 0 128 128 128 255
-0.0221244 0.658322 3.59564 0 0 0 128 128 128 255
-0.0195771 0.65074 3.59577 0 0 0 128 128 128 255
-0.00397491 0.604297 3.59658 0 0 0 128 128 128 255
-0.154595 1.05577 3.58859 0 0 0 128 128 128 255
-0.0546259 0.761316 3.59364 0 0 0 128 128 128 255
-0.131705 0.997003 3.58933 0 0 0 128 128 128 255
-0.0374548 0.716452 3.59423 0 0 0 128 128 128 255
0.0128542 0.566698 3.59685 0 0 0 128 128 128 255
-0.0378084 0.726875 3.59376 0 0 0 128 128 128 255
0.0217347 0.549635 3.59686 0 0 0 128 128 128 255
-0.00120133 0.621036 3.59552 0 0 0 128 128 128 255
-0.0368761 0.730349 3.59351 0 0 0 128 128 128 255
-0.0362393 0.728454 3.59354 0 0 0 128 128 128 255
0.0111814 0.593548 3.59571 0 0 0 128 128 128 255
-0.121289 0.990995 3.58867 0 0 0 128 128 128 255
-0.0493399 0.779949 3.59226 0 0 0 128 128 128 255
-0.0891638 0.904742 3.58989 0 0 0 128 128 128 255
-0.172953 1.16665 3.58494 0 0 0 128 128 128 255
-0.0363547 0.760041 3.59205 0 0 0 128 128 128 255
0.020641 0.590383 3.59502 0 0 0 128 128 128 255
0.0524721 0.498762 3.59653 0 0 0 128 128 128 255
-0.025243 0.736344 3.59219 0 0 0 128 128 128 255
-0.084798 0.916743 3.58894 0 0 0 128 128 128 255
-0.0354562 0.772991 3.59136 0 0 0 128 128 128 255
-0.0217744 0.735395 3.59193 0 0 0 128 128 128 255
0.0762741 0.449788 3.59674 0 0 0 128 128 128 255
-0.134843 1.08134 3.58561 0 0 0 128 128 128 255
0.0829269 0.439361 3.59665 0 0 0 128 128 128 255
0.0520292 0.534457 3.5949 0 0 0 128 128 128 255
-0.0345894 0.795419 3.59025 0 0 0 128 128 128 255
-0.106244 1.01183 3.58637 0 0 0 128 128 128 255
0.0535986 0.536035 3.59469 0 0 0 128 128 128 255
0.0548607 0.535403 3.59461 0 0 0 128 128 128 255
0.0437079 0.571736 3.59389 0 0 0 128 128 128 255
-0.115828 1.04975 3.58544 0 0 0 128 128 128 255
0.0166312 0.655458 3.59234 0 0 0 128 128 128 255
0.0589566 0.535717 3.59425 0 0 0 128 128 128 255
-0.113975 1.05985 3.58482 0 0 0 128 128 128 255
-0.0197248 0.779303 3.58973 0 0 0 128 128 128 255
0.00795758 0.703162 3.59089 0 0 0 128 128 128 255
0.0133706 0.68705 3.59117 0 0 0 128 128 128 255
0.125758 0.355632 3.59688 0 0 0 128 128 128 255
-0.000662684 0.735071 3.59015 0 0 0 128 128 128 255
-0.129959 1.1262 3.58314 0 0 0 128 128 128 255
-0.0974811 1.02952 3.58483 0 0 0 128 128 128 255
-0.0529034 0.896829 3.58715 0 0 0 128 128 128 255
-0.0962192 1.02889 3.58476 0 0 0 128 128 128 255
0.112341 0.408076 3.59562 0 0 0 128 128 128 255
0.127624 0.362581 3.59641 0 0 0 128 128 128 255
0.0546982 0.582789 3.59247 0 0 0 128 128 128 255
0.139386 0.333831 3.59674 0 0 0 128 128 128 255
0.127912 0.371111 3.596 0 0 0 128 128 128 255
0.13237 0.357842 3.59624 0 0 0 128 128 128 255
0.0189935 0.70158 3.59005 0 0 0 128 128 128 255
0.146984 0.32372 3.59658 0 0 0 128 128 128 255
0.07724 0.534449 3.59281 0 0 0 128 128 128 255
0.154286 0.308239 3.59668 0 0 0 128 128 128 255
0.0902757 0.501908 3.59321 0 0 0 128 128 128 255
-0.112564 1.10882 3.58251 0 0 0 128 128 128 255
0.0580939 0.603954 3.59126 0 0 0 128 128 128 255
0.111587 0.444723 3.59404 0 0 0 128 128 128 255
0.0529894 0.622279 3.59085 0 0 0 128 128 128 255
0.146284 0.344571 3.59571 0 0 0 128 128 128 255
0.000440001 0.781826 3.58798 0 0 0 128 128 128 255
0.0628488 0.596056 3.59123 0 0 0 128 128 128 255
0.059972 0.607745 3.59094 0 0 0 128 128 128 255
0.0475447 0.647869 3.59016 0 0 0 128 128 128 255
0.0532762 0.630809 3.59046 0 0 0 128 128 128 255
0.120461 0.430821 3.59396 0 0 0 128 128 128 255
0.133516 0.391961 3.59464 0 0 0 128 128 128 255
-0.000228226 0.7932 3.58753 0 0 0 128 128 128 255
0.057394 0.624806 3.5904 0 0 0 128 128 128 255
0.136668 0.391961 3.59439 0 0 0 128 128 128 255
0.137932 0.391329 3.59432 0 0 0 128 128 128 255
0.1118 0.475367 3.59269 0 0 0 128 128 128 255
0.113392 0.470628 3.59277 0 0 0 128 128 128 255
0.116248 0.465258 3.59278 0 0 0 128 128 128 255
0.166239 0.316452 3.59538 0 0 0 128 128 128 255
0.171652 0.300339 3.59567 0 0 0 128 128 128 255
-0.0916951 1.0905 3.58168 0 0 0 128 128 128 255
-0.0904214 1.0867 3.58175 0 0 0 128 128 128 255
-0.0968522 1.12462 3.58061 0 0 0 128 128 128 255
-0.0943142 1.12019 3.58061 0 0 0 128 128 128 255
-0.0927423 1.12177 3.58042 0 0 0 128 128 128 255
0.0231596 0.776771 3.58646 0 0 0 128 128 128 255
0.0250175 0.786881 3.5859 0 0 0 128 128 128 255
0.0246919 0.790989 3.58575 0 0 0 128 128 128 255
0.0858271 0.60901 3.58893 0 0 0 128 128 128 255
0.170206 0.357841 3.59332 0 0 0 128 128 128 255
-0.102426 1.19128 3.57821 0 0 0 128 128 128 255
0.177776 0.35721 3.5928 0 0 0 128 128 128 255
0.0908305 0.622281 3.58802 0 0 0 128 128 128 255
0.17488 0.375219 3.59226 0 0 0 128 128 128 255
-0.0719085 1.11609 3.57916 0 0 0 128 128 128 255
0.176134 0.377747 3.59207 0 0 0 128 128 128 255
-0.0938982 1.18781 3.57775 0 0 0 128 128 128 255
0.0468307 0.772036 3.58495 0 0 0 128 128 128 255
0.0465019 0.776144 3.58481 0 0 0 128 128 128 255
0.128652 0.531609 3.58909 0 0 0 128 128 128 255
-0.0795995 1.15463 3.57812 0 0 0 128 128 128 255
0.0474273 0.782779 3.58448 0 0 0 128 128 128 255
0.0477163 0.79131 3.58411 0 0 0 128 128 128 255
0.0473891 0.795418 3.58397 0 0 0 128 128 128 255
0.0518066 0.794787 3.58369 0 0 0 128 128 128 255
0.109113 0.627342 3.58655 0 0 0 128 128 128 255
0.105918 0.63998 3.58626 0 0 0 128 128 128 255
0.109412 0.632714 3.58632 0 0 0 128 128 128 255
0.0902882 0.695902 3.58508 0 0 0 128 128 128 255
-0.0791171 1.2033 3.57613 0 0 0 128 128 128 255
0.0590736 0.791947 3.58333 0 0 0 128 128 128 255
0.114477 0.627028 3.58621 0 0 0 128 128 128 255
0.241842 0.247905 3.59284 0 0 0 128 128 128 255
0.241513 0.252013 3.5927 0 0 0 128 128 128 255
-0.10047 1.27312 3.57477 0 0 0 128 128 128 255
0.186083 0.426411 3.58945 0 0 0 128 128 128 255
0.18672 0.424516 3.58948 0 0 0 128 128 128 255
-0.0329953 1.08166 3.57792 0 0 0 128 128 128 255
0.135763 0.579324 3.58671 0 0 0 128 128 128 255
0.15072 0.537938 3.58736 0 0 0 128 128 128 255
0.161536 0.508872 3.5878 0 0 0 128 128 128 255
0.0876545 0.731923 3.58383 0 0 0 128 128 128 255
0.107078 0.674107 3.58485 0 0 0 128 128 128 255
0.145887 0.571114 3.58638 0 0 0 128 128 128 255
0.177073 0.484549 3.58776 0 0 0 128 128 128 255
-0.0642934 1.20615 3.57508 0 0 0 128 128 128 255
0.127382 0.638727 3.58494 0 0 0 128 128 128 255
0.204119 0.410305 3.58893 0 0 0 128 128 128 255
0.221632 0.358176 3.58984 0 0 0 128 128 128 255
0.104765 0.709181 3.58364 0 0 0 128 128 128 255
-0.00891799 1.05071 3.5776 0 0 0 128 128 128 255
0.0859519 0.774582 3.5823 0 0 0 128 128 128 255
0.0865788 0.775846 3.58222 0 0 0 128 128 128 255
0.121604 0.671587 3.58404 0 0 0 128 128 128 255
0.262342 0.252656 3.59137 0 0 0 128 128 128 255
-0.0614927 1.21974 3.57439 0 0 0 128 128 128 255
-0.060219 1.21595 3.57445 0 0 0 128 128 128 255
0.102808 0.730668 3.58294 0 0 0 128 128 128 255
0.160433 0.562275 3.58582 0 0 0 128 128 128 255
0.245449 0.30921 3.59025 0 0 0 128 128 128 255
-0.0319086 1.14107 3.57557 0 0 0 128 128 128 255
-0.0134488 1.08926 3.57642 0 0 0 128 128 128 255
0.0849405 0.796385 3.58154 0 0 0 128 128 128 255
0.128245 0.667483 3.5838 0 0 0 128 128 128 255
-0.0328898 1.15339 3.57517 0 0 0 128 128 128 255
-0.0313075 1.15182 3.57514 0 0 0 128 128 128 255
-0.00328732 1.06841 3.57659 0 0 0 128 128 128 255
0.114207 0.718667 3.58271 0 0 0 128 128 128 255
0.167036 0.570811 3.58511 0 0 0 128 128 128 255
0.00240844 1.06399 3.57643 0 0 0 128 128 128 255
0.25904 0.303216 3.58967 0 0 0 128 128 128 255
-0.0211716 1.14045 3.57497 0 0 0 128 128 128 255
0.260623 0.301636 3.58964 0 0 0 128 128 128 255
0.274952 0.258985 3.59039 0 0 0 128 128 128 255
0.281929 0.247614 3.5904 0 0 0 128 128 128 255
-0.0291692 1.17678 3.57409 0 0 0 128 128 128 255
0.155502 0.630214 3.58359 0 0 0 128 128 128 255
0.283822 0.248247 3.59027 0 0 0 128 128 128 255
0.249088 0.361039 3.58812 0 0 0 128 128 128 255
0.222324 0.446975 3.5865 0 0 0 128 128 128 255
0.184724 0.568297 3.58421 0 0 0 128 128 128 255
0.264646 0.330397 3.58837 0 0 0 128 128 128 255
0.179621 0.586623 3.58383 0 0 0 128 128 128 255
0.252528 0.372735 3.58751 0 0 0 128 128 128 255
0.112718 0.798303 3.5799 0 0 0 128 128 128 255
0.135325 0.731009 3.58108 0 0 0 128 128 128 255
0.179259 0.603372 3.58325 0 0 0 128 128 128 255
-0.0232607 1.20934 3.5726 0 0 0 128 128 128 255
0.0149487 1.0956 3.57459 0 0 0 128 128 128 255
0.0353177 1.0381 3.57554 0 0 0 128 128 128 255
0.239738 0.429609 3.58618 0 0 0 128 128 128 255
0.300873 0.247629 3.58937 0 0 0 128 128 128 255
0.149938 0.700051 3.5814 0 0 0 128 128 128 255
0.277303 0.320928 3.58803 0 0 0 128 128 128 255
0.122547 0.784723 3.57986 0 0 0 128 128 128 255
0.251494 0.404021 3.58646 0 0 0 128 128 128 255
0.00693691 1.13826 3.57351 0 0 0 128 128 128 255
0.204352 0.550617 3.58379 0 0 0 128 128 128 255
0.245109 0.429298 3.58591 0 0 0 128 128 128 255
0.0941473 0.8912 3.57762 0 0 0 128 128 128 255
0.184258 0.622971 3.58231 0 0 0 128 128 128 255
0.032048 1.07918 3.57428 0 0 0 128 128 128 255
0.0922183 0.903208 3.5773 0 0 0 128 128 128 255
0.152398 0.724072 3.58043 0 0 0 128 128 128 255
0.260651 0.404978 3.58596 0 0 0 128 128 128 255
0.139008 0.770201 3.57952 0 0 0 128 128 128 255
0.0794464 0.953761 3.57621 0 0 0 128 128 128 255
0.31539 0.251436 3.58849 0 0 0 128 128 128 255
0.164129 0.707966 3.5804 0 0 0 128 128 128 255
0.0599731 1.03054 3.57456 0 0 0 128 128 128 255
0.258025 0.441004 3.58487 0 0 0 128 128 128 255
0.0513684 1.05929 3.574 0 0 0 128 128 128 255
0.162813 0.72756 3.57981 0 0 0 128 128 128 255
0.261169 0.447329 3.58451 0 0 0 128 128 128 255
0.28917 0.370243 3.58576 0 0 0 128 128 128 255
0.292338 0.367086 3.58572 0 0 0 128 128 128 255
0.278639 0.411003 3.5849 0 0 0 128 128 128 255
0.333406 0.24798 3.58775 0 0 0 128 128 128 255
0.178012 0.71367 3.57956 0 0 0 128 128 128 255
0.0872481 0.990117 3.57463 0 0 0 128 128 128 255
0.27543 0.429962 3.58442 0 0 0 128 128 128 255
0.0582558 1.08269 3.57291 0 0 0 128 128 128 255
0.159494 0.787607 3.57798 0 0 0 128 128 128 255
0.292591 0.391423 3.58491 0 0 0 128 128 128 255
0.0696861 1.06121 3.5731 0 0 0 128 128 128 255
0.0824226 1.0233 3.57377 0 0 0 128 128 128 255
0.180803 0.733586 3.57879 0 0 0 128 128 128 255
0.313253 0.342458 3.58558 0 0 0 128 128 128 255
0.293823 0.403435 3.58447 0 0 0 128 128 128 255
0.347634 0.243256 3.58727 0 0 0 128 128 128 255
0.047991 1.14146 3.57147 0 0 0 128 128 128 255
0.0508493 1.13609 3.57152 0 0 0 128 128 128 255
0.281984 0.460629 3.58316 0 0 0 128 128 128 255
0.312233 0.370587 3.58473 0 0 0 128 128 128 255
0.355512 0.251168 3.58669 0 0 0 128 128 128 255
0.296909 0.431886 3.58345 0 0 0 128 128 128 255
0.185774 0.765831 3.57756 0 0 0 128 128 128 255
0.257409 0.555735 3.5812 0 0 0 128 128 128 255
0.0708111 1.11431 3.57138 0 0 0 128 128 128 255
0.186704 0.77247 3.57732 0 0 0 128 128 128 255
0.260885 0.554791 3.58109 0 0 0 128 128 128 255
0.085435 1.08019 3.57186 0 0 0 128 128 128 255
0.0577247 1.16581 3.57032 0 0 0 128 128 128 255
0.32804 0.367448 3.5842 0 0 0 128 128 128 255
0.186338 0.792383 3.57673 0 0 0 128 128 128 255
0.0882585 1.08747 3.57153 0 0 0 128 128 128 255
0.331207 0.364291 3.58418 0 0 0 128 128 128 255
0.334382 0.357973 3.58425 0 0 0 128 128 128 255
0.332467 0.366822 3.58405 0 0 0 128 128 128 255
0.375435 0.245189 3.5861 0 0 0 128 128 128 255
0.0837624 1.11654 3.57082 0 0 0 128 128 128 255
0.193915 0.794922 3.57637 0 0 0 128 128 128 255
0.200912 0.777231 3.57664 0 0 0 128 128 128 255
0.0729031 1.16141 3.56988 0 0 0 128 128 128 255
0.33209 0.389895 3.58338 0 0 0 128 128 128 255
0.0744882 1.15983 3.56987 0 0 0 128 128 128 255
0.372522 0.272685 3.58539 0 0 0 128 128 128 255
0.202163 0.782923 3.57643 0 0 0 128 128 128 255
0.0964435 1.10076 3.57083 0 0 0 128 128 128 255
0.0970399 1.11467 3.57041 0 0 0 128 128 128 255
0.385831 0.258164 3.58535 0 0 0 128 128 128 255
0.386461 0.25943 3.5853 0 0 0 128 128 128 255
0.112619 1.07771 3.57095 0 0 0 128 128 128 255
0.0852259 1.16238 3.56943 0 0 0 128 128 128 255
0.10847 1.09319 3.57064 0 0 0 128 128 128 255
0.112609 1.08087 3.57086 0 0 0 128 128 128 255
0.213864 0.779463 3.57613 0 0 0 128 128 128 255
0.219906 0.764616 3.57635 0 0 0 128 128 128 255
0.219253 0.772833 3.57614 0 0 0 128 128 128 255
0.223969 0.783905 3.57568 0 0 0 128 128 128 255
0.255485 0.693233 3.57724 0 0 0 128 128 128 255
0.226501 0.782645 3.57564 0 0 0 128 128 128 255
0.226174 0.786753 3.57554 0 0 0 128 128 128 255
0.265314 0.679656 3.57732 0 0 0 128 128 128 255
0.0854034 1.21833 3.56786 0 0 0 128 128 128 255
0.26784 0.681557 3.57719 0 0 0 128 128 128 255
0.101939 1.17853 3.56847 0 0 0 128 128 128 255
0.408244 0.269897 3.58433 0 0 0 128 128 128 255
0.241698 0.771922 3.57549 0 0 0 128 128 128 255
0.13247 1.10334 3.56964 0 0 0 128 128 128 255
0.391012 0.336884 3.58302 0 0 0 128 128 128 255
0.134985 1.1084 3.56944 0 0 0 128 128 128 255
0.154703 1.05912 3.57022 0 0 0 128 128 128 255
0.243215 0.798795 3.57474 0 0 0 128 128 128 255
0.105957 1.21678 3.56735 0 0 0 128 128 128 255
0.121559 1.17034 3.56817 0 0 0 128 128 128 255
0.148934 1.09199 3.56951 0 0 0 128 128 128 255
0.17568 1.01237 3.5709 0 0 0 128 128 128 255
0.423715 0.277193 3.58374 0 0 0 128 128 128 255
0.416066 0.303102 3.58326 0 0 0 128 128 128 255
0.111658 1.21237 3.56733 0 0 0 128 128 128 255
0.137449 1.1356 3.56867 0 0 0 128 128 128 255
0.140602 1.13876 3.56852 0 0 0 128 128 128 255
0.146622 1.1334 3.56852 0 0 0 128 128 128 255
0.267612 0.776394 3.57474 0 0 0 128 128 128 255
0.404847 0.367889 3.58188 0 0 0 128 128 128 255
0.171427 1.07211 3.5695 0 0 0 128 128 128 255
0.125887 1.21081 3.56705 0 0 0 128 128 128 255
0.276771 0.780521 3.57445 0 0 0 128 128 128 255
0.162452 1.12394 3.56842 0 0 0 128 128 128 255
0.275162 0.791582 3.57421 0 0 0 128 128 128 255
0.43405 0.318626 3.58249 0 0 0 128 128 128 255
0.448039 0.286407 3.58299 0 0 0 128 128 128 255
0.177675 1.10374 3.56862 0 0 0 128 128 128 255
0.451497 0.29495 3.58273 0 0 0 128 128 128 255
0.366147 0.555285 3.57814 0 0 0 128 128 128 255
0.18974 1.08353 3.56888 0 0 0 128 128 128 255
0.43682 0.351194 3.58168 0 0 0 128 128 128 255
0.295118 0.77613 3.57423 0 0 0 128 128 128 255
0.186525 1.10566 3.56843 0 0 0 128 128 128 255
0.295104 0.782453 3.57408 0 0 0 128 128 128 255
0.371522 0.554979 3.57806 0 0 0 128 128 128 255
0.379786 0.536659 3.57835 0 0 0 128 128 128 255
0.448239 0.336042 3.58184 0 0 0 128 128 128 255
0.298554 0.794157 3.57377 0 0 0 128 128 128 255
0.186148 1.1319 3.56785 0 0 0 128 128 128 255
0.364133 0.605232 3.57705 0 0 0 128 128 128 255
0.465388 0.303829 3.58232 0 0 0 128 128 128 255
0.211887 1.07725 3.56871 0 0 0 128 128 128 255
0.38828 0.555329 3.57783 0 0 0 128 128 128 255
0.477066 0.313022 3.58198 0 0 0 128 128 128 255
0.432776 0.457413 3.57942 0 0 0 128 128 128 255
0.475119 0.334517 3.58156 0 0 0 128 128 128 255
0.481458 0.328207 3.58163 0 0 0 128 128 128 255
0.472853 0.356959 3.58112 0 0 0 128 128 128 255
0.478258 0.344008 3.58134 0 0 0 128 128 128 255
0.209802 1.15882 3.56705 0 0 0 128 128 128 255
0.225706 1.11775 3.56775 0 0 0 128 128 128 255
0.49158 0.326332 3.58159 0 0 0 128 128 128 255
0.475963 0.379098 3.58066 0 0 0 128 128 128 255
0.214858 1.15946 3.567 0 0 0 128 128 128 255
0.419903 0.555398 3.57756 0 0 0 128 128 128 255
0.417333 0.572465 3.57725 0 0 0 128 128 128 255
0.476507 0.418305 3.57991 0 0 0 128 128 128 255
0.440171 0.542163 3.57774 0 0 0 128 128 128 255
0.248791 1.11812 3.56766 0 0 0 128 128 128 255
0.490784 0.397785 3.58026 0 0 0 128 128 128 255
0.436009 0.56397 3.57735 0 0 0 128 128 128 255
0.47039 0.464768 3.57909 0 0 0 128 128 128 255
0.478648 0.449611 3.57935 0 0 0 128 128 128 255
0.459856 0.508694 3.57832 0 0 0 128 128 128 255
0.479279 0.450878 3.57933 0 0 0 128 128 128 255
0.494538 0.414867 3.57996 0 0 0 128 128 128 255
0.264639 1.10235 3.56793 0 0 0 128 128 128 255
0.447705 0.566843 3.57731 0 0 0 128 128 128 255
0.459478 0.534936 3.57787 0 0 0 128 128 128 255
0.280161 1.09068 3.56817 0 0 0 128 128 128 255
0.449859 0.591826 3.5769 0 0 0 128 128 128 255
0.278865 1.10396 3.56795 0 0 0 128 128 128 255
0.509395 0.417748 3.57995 0 0 0 128 128 128 255
0.499827 0.452506 3.57935 0 0 0 128 128 128 255
0.283915 1.10777 3.56791 0 0 0 128 128 128 255
0.458723 0.587421 3.57701 0 0 0 128 128 128 255
0.496933 0.473684 3.579 0 0 0 128 128 128 255
0.48958 0.508131 3.57842 0 0 0 128 128 128 255
0.496579 0.490441 3.57874 0 0 0 128 128 128 255
0.290863 1.11221 3.56789 0 0 0 128 128 128 255
0.402299 0.78364 3.57364 0 0 0 128 128 128 255
0.451971 0.635782 3.57623 0 0 0 128 128 128 255
0.325541 1.02155 3.56951 0 0 0 128 128 128 255
0.32965 1.02187 3.56954 0 0 0 128 128 128 255
0.408935 0.785869 3.57367 0 0 0 128 128 128 255
0.514011 0.473093 3.57914 0 0 0 128 128 128 255
0.367163 0.935328 3.57114 0 0 0 128 128 128 255
0.533347 0.453221 3.57962 0 0 0 128 128 128 255
0.475707 0.627936 3.57657 0 0 0 128 128 128 255
0.45372 0.699658 3.57534 0 0 0 128 128 128 255
0.431409 0.77549 3.57406 0 0 0 128 128 128 255
0.532982 0.473139 3.57935 0 0 0 128 128 128 255
0.384581 0.924304 3.5715 0 0 0 128 128 128 255
0.353368 1.02035 3.56983 0 0 0 128 128 128 255
0.460036 0.702836 3.57539 0 0 0 128 128 128 255
0.364816 0.992554 3.57035 0 0 0 128 128 128 255
0.433267 0.791937 3.57387 0 0 0 128 128 128 255
0.461918 0.709797 3.57533 0 0 0 128 128 128 255
0.396319 0.908208 3.57187 0 0 0 128 128 128 255
0.458728 0.722438 3.57512 0 0 0 128 128 128 255
0.469872 0.689264 3.5757 0 0 0 128 128 128 255
0.350118 1.05829 3.56931 0 0 0 128 128 128 255
0.442429 0.796072 3.57397 0 0 0 128 128 128 255
0.487006 0.663379 3.57629 0 0 0 128 128 128 255
0.50451 0.614411 3.57717 0 0 0 128 128 128 255
0.448774 0.786602 3.57419 0 0 0 128 128 128 255
0.493033 0.654856 3.5765 0 0 0 128 128 128 255
0.496527 0.647592 3.57664 0 0 0 128 128 128 255
0.382515 0.996394 3.5706 0 0 0 128 128 128 255
0.526741 0.573361 3.57804 0 0 0 128 128 128 255
0.510479 0.631186 3.57709 0 0 0 128 128 128 255
0.461102 0.787582 3.57442 0 0 0 128 128 128 255
0.543252 0.543048 3.57869 0 0 0 128 128 128 255
0.348998 1.1307 3.56848 0 0 0 128 128 128 255
0.528582 0.596133 3.57783 0 0 0 128 128 128 255
0.539408 0.563907 3.5784 0 0 0 128 128 128 255
0.548005 0.538316 3.57884 0 0 0 128 128 128 255
0.34962 1.13513 3.56845 0 0 0 128 128 128 255
0.427631 0.902912 3.57251 0 0 0 128 128 128 255
0.486537 0.727568 3.57558 0 0 0 128 128 128 255
0.559114 0.520954 3.57926 0 0 0 128 128 128 255
0.356587 1.13008 3.56865 0 0 0 128 128 128 255
0.405304 0.985069 3.57119 0 0 0 128 128 128 255
0.615131 0.363626 3.58208 0 0 0 128 128 128 255
0.476605 0.782246 3.57481 0 0 0 128 128 128 255
0.405275 0.997718 3.57107 0 0 0 128 128 128 255
0.475 0.79331 3.57467 0 0 0 128 128 128 255
0.564474 0.526976 3.57933 0 0 0 128 128 128 255
0.474356 0.798368 3.5746 0 0 0 128 128 128 255
0.566695 0.523504 3.57941 0 0 0 128 128 128 255
0.531024 0.63282 3.57752 0 0 0 128 128 128 255
0.623045 0.358904 3.58232 0 0 0 128 128 128 255
0.499805 0.73203 3.57584 0 0 0 128 128 128 255
0.631309 0.340585 3.58269 0 0 0 128 128 128 255
0.592123 0.466652 3.58056 0 0 0 128 128 128 255
0.416979 0.99427 3.57139 0 0 0 128 128 128 255
0.512497 0.71309 3.57633 0 0 0 128 128 128 255
0.599423 0.454339 3.58086 0 0 0 128 128 128 255
0.538598 0.638532 3.57767 0 0 0 128 128 128 255
0.509274 0.738379 3.57603 0 0 0 128 128 128 255
0.497166 0.777558 3.57538 0 0 0 128 128 128 255
0.497802 0.775662 3.57541 0 0 0 128 128 128 255
0.519767 0.713426 3.57653 0 0 0 128 128 128 255
0.634713 0.371268 3.58251 0 0 0 128 128 128 255
0.530244 0.694797 3.57697 0 0 0 128 128 128 255
0.520364 0.727341 3.57643 0 0 0 128 128 128 255
0.647084 0.353276 3.58301 0 0 0 128 128 128 255
0.543912 0.663528 3.57761 0 0 0 128 128 128 255
0.597723 0.503348 3.58041 0 0 0 128 128 128 255
0.443261 0.975683 3.57227 0 0 0 128 128 128 255
0.632392 0.415848 3.5821 0 0 0 128 128 128 255
0.537489 0.704619 3.57711 0 0 0 128 128 128 255
0.413937 1.07553 3.57066 0 0 0 128 128 128 255
0.530475 0.728633 3.57673 0 0 0 128 128 128 255
0.594476 0.538123 3.58006 0 0 0 128 128 128 255
0.634596 0.4187 3.58215 0 0 0 128 128 128 255
0.518361 0.770974 3.57605 0 0 0 128 128 128 255
0.542878 0.697993 3.57733 0 0 0 128 128 128 255
0.613557 0.490741 3.58099 0 0 0 128 128 128 255
0.496661 0.854398 3.5748 0 0 0 128 128 128 255
0.517033 0.796901 3.57584 0 0 0 128 128 128 255
0.644397 0.417778 3.58247 0 0 0 128 128 128 255
0.655851 0.386819 3.58304 0 0 0 128 128 128 255
0.540882 0.738464 3.577 0 0 0 128 128 128 255
0.615055 0.523949 3.58082 0 0 0 128 128 128 255
0.668867 0.363769 3.58363 0 0 0 128 128 128 255
0.507106 0.848418 3.57519 0 0 0 128 128 128 255
0.607716 0.552073 3.58041 0 0 0 128 128 128 255
0.40582 1.16247 3.56984 0 0 0 128 128 128 255
0.6376 0.481953 3.58186 0 0 0 128 128 128 255
0.639788 0.491129 3.58189 0 0 0 128 128 128 255
0.41307 1.16913 3.57007 0 0 0 128 128 128 255
0.673515 0.400148 3.5836 0 0 0 128 128 128 255
0.548039 0.783071 3.57703 0 0 0 128 128 128 255
0.606608 0.614999 3.58005 0 0 0 128 128 128 255
0.385933 1.27815 3.56853 0 0 0 128 128 128 255
0.410451 1.20517 3.56981 0 0 0 128 128 128 255
0.550234 0.789085 3.57709 0 0 0 128 128 128 255
0.426356 1.16411 3.57061 0 0 0 128 128 128 255
0.665474 0.455465 3.58305 0 0 0 128 128 128 255
0.414877 1.20455 3.56999 0 0 0 128 128 128 255
0.552749 0.794152 3.57717 0 0 0 128 128 128 255
0.669908 0.451683 3.58324 0 0 0 128 128 128 255
0.664789 0.476335 3.58294 0 0 0 128 128 128 255
0.47562 1.05198 3.57305 0 0 0 128 128 128 255
0.476575 1.04914 3.5731 0 0 0 128 128 128 255
0.623363 0.612199 3.58074 0 0 0 128 128 128 255
0.527194 0.901599 3.57573 0 0 0 128 128 128 255
0.607752 0.661803 3.57992 0 0 0 128 128 128 255
0.665066 0.491198 3.58291 0 0 0 128 128 128 255
0.441213 1.16067 3.57124 0 0 0 128 128 128 255
0.615059 0.646328 3.58028 0 0 0 128 128 128 255
0.728405 0.312071 3.58617 0 0 0 128 128 128 255
0.483855 1.04315 3.57343 0 0 0 128 128 128 255
0.716614 0.350302 3.58555 0 0 0 128 128 128 255
0.574277 0.777134 3.57813 0 0 0 128 128 128 255
0.529056 0.914886 3.57577 0 0 0 128 128 128 255
0.706729 0.386009 3.58502 0 0 0 128 128 128 255
0.705437 0.396124 3.58494 0 0 0 128 128 128 255
0.571697 0.797366 3.57797 0 0 0 128 128 128 255
0.572643 0.797685 3.57801 0 0 0 128 128 128 255
0.706058 0.400553 3.58495 0 0 0 128 128 128 255
0.73758 0.30672 3.5866 0 0 0 128 128 128 255
0.558298 0.846661 3.57725 0 0 0 128 128 128 255
0.56051 0.846351 3.57735 0 0 0 128 128 128 255
0.61081 0.699759 3.57996 0 0 0 128 128 128 255
0.738175 0.320636 3.58659 0 0 0 128 128 128 255
0.610803 0.702922 3.57996 0 0 0 128 128 128 255
0.536913 0.929137 3.5761 0 0 0 128 128 128 255
0.608547 0.719042 3.57982 0 0 0 128 128 128 255
0.685596 0.492836 3.58383 0 0 0 128 128 128 255
0.734623 0.350036 3.58638 0 0 0 128 128 128 255
0.708178 0.435028 3.58499 0 0 0 128 128 128 255
0.543516 0.940856 3.5764 0 0 0 128 128 128 255
0.724374 0.402501 3.58581 0 0 0 128 128 128 255
0.733289 0.375963 3.58628 0 0 0 128 128 128 255
0.740931 0.353215 3.58668 0 0 0 128 128 128 255
0.742205 0.349424 3.58674 0 0 0 128 128 128 255
0.592216 0.802166 3.57893 0 0 0 128 128 128 255
0.717352 0.429678 3.58544 0 0 0 128 128 128 255
0.683591 0.533307 3.58368 0 0 0 128 128 128 255
0.62372 0.714657 3.58056 0 0 0 128 128 128 255
0.628487 0.703602 3.58081 0 0 0 128 128 128 255
0.576897 0.86031 3.57812 0 0 0 128 128 128 255
0.724633 0.42369 3.58581 0 0 0 128 128 128 255
0.756465 0.332071 3.58747 0 0 0 128 128 128 255
0.761241 0.317854 3.58772 0 0 0 128 128 128 255
0.704865 0.49194 3.58478 0 0 0 128 128 128 255
0.76186 0.322283 3.58775 0 0 0 128 128 128 255
0.477181 1.17595 3.57292 0 0 0 128 128 128 255
0.65581 0.644227 3.58222 0 0 0 128 128 128 255
0.736687 0.403484 3.58644 0 0 0 128 128 128 255
0.644332 0.684673 3.58163 0 0 0 128 128 128 255
0.743985 0.391171 3.58682 0 0 0 128 128 128 255
0.705759 0.511233 3.58483 0 0 0 128 128 128 255
0.663711 0.642668 3.58264 0 0 0 128 128 128 255
0.760827 0.353587 3.5877 0 0 0 128 128 128 255
0.621343 0.77505 3.58044 0 0 0 128 128 128 255
0.622299 0.772207 3.58049 0 0 0 128 128 128 255
0.77641 0.313468 3.58851 0 0 0 128 128 128 255
0.750603 0.396566 3.58717 0 0 0 128 128 128 255
0.771936 0.333063 3.58828 0 0 0 128 128 128 255
0.720981 0.487874 3.58563 0 0 0 128 128 128 255
0.621619 0.789915 3.58047 0 0 0 128 128 128 255
0.745163 0.422165 3.5869 0 0 0 128 128 128 255
0.625421 0.784865 3.58067 0 0 0 128 128 128 255
0.673811 0.643961 3.58319 0 0 0 128 128 128 255
0.604708 0.852798 3.5796 0 0 0 128 128 128 255
0.662012 0.685354 3.58259 0 0 0 128 128 128 255
0.626341 0.794671 3.58073 0 0 0 128 128 128 255
0.662286 0.700218 3.58263 0 0 0 128 128 128 255
0.684575 0.633871 3.58379 0 0 0 128 128 128 255
0.682955 0.648097 3.58372 0 0 0 128 128 128 255
0.643126 0.776059 3.58167 0 0 0 128 128 128 255
0.759012 0.437383 3.58771 0 0 0 128 128 128 255
0.641508 0.790285 3.5816 0 0 0 128 128 128 255
0.695956 0.62821 3.58444 0 0 0 128 128 128 255
0.656099 0.76566 3.58241 0 0 0 128 128 128 255
0.65609 0.768822 3.58242 0 0 0 128 128 128 255
0.846791 0.210572 3.59238 0 0 0 128 128 128 255
0.841676 0.232061 3.59214 0 0 0 128 128 128 255
0.635966 0.85067 3.58145 0 0 0 128 128 128 255
0.855989 0.195735 3.5929 0 0 0 128 128 128 255
0.480562 1.31952 3.57338 0 0 0 128 128 128 255
0.676683 0.741999 3.58361 0 0 0 128 128 128 255
0.827592 0.299063 3.59149 0 0 0 128 128 128 255
0.642895 0.855116 3.5819 0 0 0 128 128 128 255
0.694749 0.716434 3.58467 0 0 0 128 128 128 255
0.691545 0.732237 3.58453 0 0 0 128 128 128 255
0.67084 0.797007 3.58347 0 0 0 128 128 128 255
0.676571 0.779946 3.58377 0 0 0 128 128 128 255
0.693447 0.729713 3.58465 0 0 0 128 128 128 255
0.79916 0.41504 3.59015 0 0 0 128 128 128 255
0.696621 0.723397 3.58483 0 0 0 128 128 128 255
0.821428 0.355018 3.59134 0 0 0 128 128 128 255
0.875858 0.199267 3.5942 0 0 0 128 128 128 255
0.875819 0.211917 3.59427 0 0 0 128 128 128 255
0.829631 0.355673 3.5919 0 0 0 128 128 128 255
0.71531 0.699098 3.58596 0 0 0 128 128 128 255
0.722294 0.68457 3.58636 0 0 0 128 128 128 255
0.753173 0.595796 3.58799 0 0 0 128 128 128 255
0.720366 0.696582 3.5863 0 0 0 128 128 128 255
0.651579 0.90447 3.58273 0 0 0 128 128 128 255
0.735639 0.654249 3.58711 0 0 0 128 128 128 255
0.859183 0.2865 3.59354 0 0 0 128 128 128 255
0.853114 0.310833 3.59327 0 0 0 128 128 128 255
0.789401 0.509881 3.59001 0 0 0 128 128 128 255
0.677599 0.85521 3.58427 0 0 0 128 128 128 255
0.900488 0.191745 3.59587 0 0 0 128 128 128 255
0.724714 0.718097 3.58674 0 0 0 128 128 128 255
0.849838 0.34877 3.59328 0 0 0 128 128 128 255
0.905233 0.187014 3.59618 0 0 0 128 128 128 255
0.70367 0.790139 3.58571 0 0 0 128 128 128 255
0.846 0.366469 3.59312 0 0 0 128 128 128 255
0.770525 0.594261 3.58921 0 0 0 128 128 128 255
0.734536 0.704526 3.58736 0 0 0 128 128 128 255
0.731937 0.727919 3.58734 0 0 0 128 128 128 255
0.729698 0.737716 3.58725 0 0 0 128 128 128 255
0.751329 0.67959 3.58842 0 0 0 128 128 128 255
0.723567 0.781022 3.58712 0 0 0 128 128 128 255
0.74612 0.729538 3.58843 0 0 0 128 128 128 255
0.747393 0.725747 3.58849 0 0 0 128 128 128 255
0.762647 0.689739 3.58937 0 0 0 128 128 128 255
0.764876 0.683104 3.58949 0 0 0 128 128 128 255
0.728555 0.797478 3.58765 0 0 0 128 128 128 255
0.73556 0.776626 3.58802 0 0 0 128 128 128 255
0.776953 0.653411 3.59017 0 0 0 128 128 128 255
0.695419 0.902374 3.58598 0 0 0 128 128 128 255
0.713231 0.855622 3.58697 0 0 0 128 128 128 255
0.861292 0.414892 3.59468 0 0 0 128 128 128 255
0.867638 0.402259 3.59506 0 0 0 128 128 128 255
0.73517 0.79971 3.5882 0 0 0 128 128 128 255
0.702975 0.904924 3.58661 0 0 0 128 128 128 255
0.746907 0.777289 3.58893 0 0 0 128 128 128 255
0.756109 0.759289 3.5895 0 0 0 128 128 128 255
0.768197 0.726434 3.59016 0 0 0 128 128 128 255
0.772632 0.719489 3.59046 0 0 0 128 128 128 255
0.842312 0.52773 3.59425 0 0 0 128 128 128 255
0.750904 0.806074 3.58955 0 0 0 128 128 128 255
0.756635 0.789014 3.58985 0 0 0 128 128 128 255
0.846714 0.530271 3.59464 0 0 0 128 128 128 255
0.719976 0.910661 3.58808 0 0 0 128 128 128 255
0.860396 0.492678 3.59539 0 0 0 128 128 128 255
0.955271 0.213393 3.60037 0 0 0 128 128 128 255
0.715473 0.936578 3.58799 0 0 0 128 128 128 255
0.697301 0.996927 3.58711 0 0 0 128 128 128 255
0.746336 0.850965 3.58966 0 0 0 128 128 128 255
0.774016 0.77483 3.59118 0 0 0 128 128 128 255
0.887996 0.438677 3.59715 0 0 0 128 128 128 255
0.774629 0.779258 3.59128 0 0 0 128 128 128 255
0.635473 1.19661 3.58408 0 0 0 128 128 128 255
0.719521 0.949553 3.58849 0 0 0 128 128 128 255
0.789572 0.741035 3.59214 0 0 0 128 128 128 255
0.769173 0.808019 3.59115 0 0 0 128 128 128 255
0.864366 0.527787 3.59614 0 0 0 128 128 128 255
0.860533 0.542322 3.59598 0 0 0 128 128 128 255
0.877409 0.492088 3.59686 0 0 0 128 128 128 255
0.88728 0.462706 3.59738 0 0 0 128 128 128 255
0.694287 1.04656 3.58744 0 0 0 128 128 128 255
0.694605 1.04562 3.58746 0 0 0 128 128 128 255
0.697152 1.03803 3.58759 0 0 0 128 128 128 255
0.703839 1.01813 3.58794 0 0 0 128 128 128 255
0.782805 0.783073 3.59205 0 0 0 128 128 128 255
0.643933 1.20897 3.58498 0 0 0 128 128 128 255
0.799954 0.74454 3.5931 0 0 0 128 128 128 255
0.889747 0.477258 3.59778 0 0 0 128 128 128 255
0.873154 0.53603 3.59704 0 0 0 128 128 128 255
0.888119 0.491483 3.59782 0 0 0 128 128 128 255
0.654392 1.19034 3.58569 0 0 0 128 128 128 255
0.784941 0.801734 3.59248 0 0 0 128 128 128 255
0.866446 0.562259 3.59677 0 0 0 128 128 128 255
0.703725 1.04975 3.58834 0 0 0 128 128 128 255
0.871846 0.549308 3.59709 0 0 0 128 128 128 255
0.987395 0.214739 3.60323 0 0 0 128 128 128 255
0.799814 0.782484 3.59359 0 0 0 128 128 128 255
0.895975 0.496246 3.5986 0 0 0 128 128 128 255
0.795027 0.799863 3.59339 0 0 0 128 128 128 255
0.699809 1.08642 3.58847 0 0 0 128 128 128 255
0.776547 0.857998 3.59247 0 0 0 128 128 128 255
0.877472 0.560705 3.59777 0 0 0 128 128 128 255
0.986369 0.236555 3.60344 0 0 0 128 128 128 255
0.841798 0.670021 3.59595 0 0 0 128 128 128 255
0.990165 0.231504 3.60372 0 0 0 128 128 128 255
0.996202 0.216658 3.60408 0 0 0 128 128 128 255
0.885692 0.551872 3.59842 0 0 0 128 128 128 255
0.895231 0.526599 3.59896 0 0 0 128 128 128 255
0.725811 1.03716 3.59023 0 0 0 128 128 128 255
0.833104 0.720907 3.59586 0 0 0 128 128 128 255
0.805707 0.80558 3.59448 0 0 0 128 128 128 255
0.811415 0.794844 3.59487 0 0 0 128 128 128 255
1.01201 0.197725 3.60531 0 0 0 128 128 128 255
0.889415 0.565793 3.59898 0 0 0 128 128 128 255
0.890983 0.567378 3.59915 0 0 0 128 128 128 255
0.833655 0.741145 3.59622 0 0 0 128 128 128 255
0.984864 0.300422 3.60423 0 0 0 128 128 128 255
1.02148 0.191424 3.60614 0 0 0 128 128 128 255
0.73267 1.05425 3.59115 0 0 0 128 128 128 255
0.826896 0.780021 3.59615 0 0 0 128 128 128 255
0.892488 0.584772 3.59957 0 0 0 128 128 128 255
0.819241 0.80593 3.5958 0 0 0 128 128 128 255
0.745993 1.02709 3.59204 0 0 0 128 128 128 255
0.692475 1.19264 3.58935 0 0 0 128 128 128 255
0.807704 0.859022 3.5955 0 0 0 128 128 128 255
0.750034 1.04006 3.59265 0 0 0 128 128 128 255
0.704806 1.17781 3.59035 0 0 0 128 128 128 255
0.986919 0.338054 3.60504 0 0 0 128 128 128 255
0.761778 1.01448 3.59342 0 0 0 128 128 128 255
0.759522 1.02744 3.59341 0 0 0 128 128 128 255
0.837533 0.795223 3.59747 0 0 0 128 128 128 255
0.760452 1.03092 3.59356 0 0 0 128 128 128 255
0.747358 1.07926 3.59304 0 0 0 128 128 128 255
0.764553 1.02808 3.59393 0 0 0 128 128 128 255
0.774105 0.999646 3.59443 0 0 0 128 128 128 255
0.847658 0.780702 3.59826 0 0 0 128 128 128 255
0.996038 0.339024 3.60599 0 0 0 128 128 128 255
0.747983 1.08053 3.59312 0 0 0 128 128 128 255
0.878823 0.697302 3.60005 0 0 0 128 128 128 255
0.998534 0.344089 3.60633 0 0 0 128 128 128 255
0.999808 0.340298 3.6064 0 0 0 128 128 128 255
0.851719 0.787351 3.5988 0 0 0 128 128 128 255
0.829087 0.86097 3.59773 0 0 0 128 128 128 255
0.899457 0.651504 3.60139 0 0 0 128 128 128 255
0.794685 0.966495 3.59599 0 0 0 128 128 128 255
0.848802 0.808529 3.59887 0 0 0 128 128 128 255
0.759316 1.07802 3.59427 0 0 0 128 128 128 255
0.793039 0.98388 3.59613 0 0 0 128 128 128 255
0.962434 0.479646 3.60495 0 0 0 128 128 128 255
0.83442 0.863827 3.59835 0 0 0 128 128 128 255
0.893924 0.696072 3.60162 0 0 0 128 128 128 255
0.861738 0.798124 3.60006 0 0 0 128 128 128 255
1.01162 0.373839 3.60827 0 0 0 128 128 128 255
0.795388 1.02372 3.59714 0 0 0 128 128 128 255
0.876528 0.79468 3.6016 0 0 0 128 128 128 255
0.909643 0.696108 3.60333 0 0 0 128 128 128 255
1.0064 0.417459 3.60855 0 0 0 128 128 128 255
0.875836 0.809222 3.60181 0 0 0 128 128 128 255
0.790794 1.06861 3.59751 0 0 0 128 128 128 255
0.79489 1.06577 3.59791 0 0 0 128 128 128 255
1.00753 0.445284 3.60924 0 0 0 128 128 128 255
0.997013 0.479724 3.60876 0 0 0 128 128 128 255
0.923749 0.704042 3.60507 0 0 0 128 128 128 255
0.979789 0.537228 3.60799 0 0 0 128 128 128 255
1.00966 0.460781 3.60981 0 0 0 128 128 128 255
0.834827 0.98745 3.60084 0 0 0 128 128 128 255
0.943709 0.666461 3.60657 0 0 0 128 128 128 255
0.884153 0.846863 3.60354 0 0 0 128 128 128 255
0.986985 0.543883 3.60896 0 0 0 128 128 128 255
0.843366 0.974505 3.60155 0 0 0 128 128 128 255
0.854164 0.948603 3.60225 0 0 0 128 128 128 255
0.985986 0.556211 3.60911 0 0 0 128 128 128 255
1.00919 0.496506 3.61053 0 0 0 128 128 128 255
0.890679 0.861736 3.60463 0 0 0 128 128 128 255
0.915515 0.787807 3.60592 0 0 0 128 128 128 255
0.95277 0.676913 3.60786 0 0 0 128 128 128 255
0.892244 0.86332 3.60485 0 0 0 128 128 128 255
0.910394 0.809295 3.6058 0 0 0 128 128 128 255
0.914533 0.796974 3.60601 0 0 0 128 128 128 255
0.916125 0.792235 3.6061 0 0 0 128 128 128 255
0.91482 0.802348 3.60617 0 0 0 128 128 128 255
0.940293 0.726524 3.6075 0 0 0 128 128 128 255
0.901431 0.845317 3.60554 0 0 0 128 128 128 255
1.00237 0.544863 3.6108 0 0 0 128 128 128 255
1.00839 0.533177 3.61125 0 0 0 128 128 128 255
0.962449 0.68863 3.60929 0 0 0 128 128 128 255
0.925163 0.805846 3.6075 0 0 0 128 128 128 255
0.92994 0.791629 3.60775 0 0 0 128 128 128 255
0.856008 1.02417 3.60419 0 0 0 128 128 128 255
0.79868 1.19793 3.60128 0 0 0 128 128 128 255
0.929547 0.808384 3.60809 0 0 0 128 128 128 255
0.85337 1.05072 3.6045 0 0 0 128 128 128 255
0.861012 1.02797 3.6049 0 0 0 128 128 128 255
0.824332 1.14961 3.6033 0 0 0 128 128 128 255
0.893427 0.943938 3.60689 0 0 0 128 128 128 255
0.923344 0.858006 3.60853 0 0 0 128 128 128 255
0.819479 1.17964 3.60343 0 0 0 128 128 128 255
0.997757 0.655187 3.61287 0 0 0 128 128 128 255
1.00093 0.64887 3.61311 0 0 0 128 128 128 255
0.90854 0.933218 3.60854 0 0 0 128 128 128 255
0.846435 1.1212 3.60538 0 0 0 128 128 128 255
0.873483 1.0438 3.60687 0 0 0 128 128 128 255
0.830162 1.17586 3.60469 0 0 0 128 128 128 255
0.8397 1.15059 3.60527 0 0 0 128 128 128 255
0.876923 1.04602 3.60737 0 0 0 128 128 128 255
0.96829 0.777159 3.61221 0 0 0 128 128 128 255
0.970152 0.780956 3.61255 0 0 0 128 128 128 255
0.869837 1.08268 3.60741 0 0 0 128 128 128 255
0.880026 1.05235 3.60794 0 0 0 128 128 128 255
0.875806 1.08047 3.60813 0 0 0 128 128 128 255
0.950282 0.86501 3.61217 0 0 0 128 128 128 255
0.87894 1.08048 3.60854 0 0 0 128 128 128 255
0.853769 1.15852 3.60731 0 0 0 128 128 128 255
0.921909 0.955686 3.61086 0 0 0 128 128 128 255
0.858178 1.15473 3.6078 0 0 0 128 128 128 255
0.984571 0.781613 3.61446 0 0 0 128 128 128 255
0.978488 0.805944 3.61432 0 0 0 128 128 128 255
0.983901 0.789831 3.6146 0 0 0 128 128 128 255
0.879445 1.10387 3.60924 0 0 0 128 128 128 255
0.978153 0.810052 3.61438 0 0 0 128 128 128 255
0.9807 0.80247 3.61452 0 0 0 128 128 128 255
0.916969 1.00151 3.61146 0 0 0 128 128 128 255
0.932803 0.969929 3.61271 0 0 0 128 128 128 255
0.915596 1.02427 3.61191 0 0 0 128 128 128 255
1.00089 0.776582 3.61652 0 0 0 128 128 128 255
0.872876 1.16076 3.60995 0 0 0 128 128 128 255
0.871904 1.16677 3.60998 0 0 0 128 128 128 255
0.914469 1.05873 3.61274 0 0 0 128 128 128 255
0.950768 0.950676 3.61463 0 0 0 128 128 128 255
0.932264 1.01197 3.61384 0 0 0 128 128 128 255
0.986325 0.863487 3.61702 0 0 0 128 128 128 255
0.964657 0.9311 3.61599 0 0 0 128 128 128 255
0.933734 1.02936 3.61456 0 0 0 128 128 128 255
0.948381 0.985759 3.61532 0 0 0 128 128 128 255
0.97474 0.919735 3.61707 0 0 0 128 128 128 255
1.01803 0.793994 3.61941 0 0 0 128 128 128 255
0.885231 1.19239 3.61259 0 0 0 128 128 128 255
0.958447 0.977555 3.6165 0 0 0 128 128 128 255
1.01353 0.813585 3.61937 0 0 0 128 128 128 255
0.932957 1.05654 3.61527 0 0 0 128 128 128 255
0.966372 0.960182 3.6171 0 0 0 128 128 128 255
0.970174 0.951969 3.61739 0 0 0 128 128 128 255
0.922942 1.11121 3.6155 0 0 0 128 128 128 255
0.99232 0.910909 3.61931 0 0 0 128 128 128 255
0.911427 1.15481 3.61519 0 0 0 128 128 128 255
1.03274 0.793699 3.62151 0 0 0 128 128 128 255
0.936845 1.08847 3.61681 0 0 0 128 128 128 255
0.945442 1.06288 3.61726 0 0 0 128 128 128 255
0.908468 1.17915 3.61553 0 0 0 128 128 128 255
0.92407 1.1327 3.61634 0 0 0 128 128 128 255
0.947951 1.06162 3.61758 0 0 0 128 128 128 255
0.908132 1.18326 3.61561 0 0 0 128 128 128 255
0.960952 1.03224 3.61855 0 0 0 128 128 128 255
0.985151 0.960208 3.61981 0 0 0 128 128 128 255
1.00235 0.909026 3.62071 0 0 0 128 128 128 255
1.04374 0.785811 3.62286 0 0 0 128 128 128 255
0.902345 1.2098 3.6156 0 0 0 128 128 128 255
0.912853 1.17852 3.61615 0 0 0 128 128 128 255
0.914726 1.17916 3.61644 0 0 0 128 128 128 255
1.02171 0.860692 3.62201 0 0 0 128 128 128 255
0.914389 1.18326 3.61653 0 0 0 128 128 128 255
1.03698 0.818358 3.62291 0 0 0 128 128 128 255
0.880301 1.28784 3.61485 0 0 0 128 128 128 255
0.971367 1.01677 3.61959 0 0 0 128 128 128 255
1.02132 0.874283 3.62239 0 0 0 128 128 128 255
1.04361 0.807936 3.62355 0 0 0 128 128 128 255
1.04456 0.805093 3.6236 0 0 0 128 128 128 255
1.04485 0.810466 3.62382 0 0 0 128 128 128 255
0.934974 1.14062 3.6182 0 0 0 128 128 128 255
1.06187 0.78773 3.62562 0 0 0 128 128 128 255
0.982864 1.02911 3.62171 0 0 0 128 128 128 255
0.965892 1.09514 3.62135 0 0 0 128 128 128 255
0.997695 1.00668 3.62322 0 0 0 128 128 128 255
1.06552 0.804801 3.62675 0 0 0 128 128 128 255
0.993854 1.02122 3.62312 0 0 0 128 128 128 255
1.00243 0.998788 3.62367 0 0 0 128 128 128 255
0.945378 1.17793 3.62102 0 0 0 128 128 128 255
1.03704 0.911279 3.62601 0 0 0 128 128 128 255
1.06761 0.82029 3.6276 0 0 0 128 128 128 255
1.05388 0.867367 3.6271 0 0 0 128 128 128 255
0.982136 1.09643 3.6239 0 0 0 128 128 128 255
0.980842 1.10338 3.62394 0 0 0 128 128 128 255
1.06299 0.858842 3.62822 0 0 0 128 128 128 255
0.968663 1.15203 3.62374 0 0 0 128 128 128 255
1.06514 0.864849 3.62877 0 0 0 128 128 128 255
0.99348 1.08127 3.62514 0 0 0 128 128 128 255
1.0648 0.868958 3.62886 0 0 0 128 128 128 255
1.08741 0.801663 3.63003 0 0 0 128 128 128 255
0.96892 1.16057 3.62409 0 0 0 128 128 128 255
1.09052 0.804827 3.63064 0 0 0 128 128 128 255
0.977777 1.14351 3.62488 0 0 0 128 128 128 255
1.0962 0.794086 3.63116 0 0 0 128 128 128 255
1.00382 1.07527 3.62657 0 0 0 128 128 128 255
1.0092 1.06548 3.62707 0 0 0 128 128 128 255
1.0974 0.802936 3.63166 0 0 0 128 128 128 255
1.09324 0.818418 3.63156 0 0 0 128 128 128 255
1.00756 1.07654 3.62721 0 0 0 128 128 128 255
1.10052 0.802939 3.63216 0 0 0 128 128 128 255
0.979504 1.16627 3.62598 0 0 0 128 128 128 255
0.997292 1.11951 3.62713 0 0 0 128 128 128 255
1.10778 0.79062 3.63288 0 0 0 128 128 128 255
0.956175 1.2481 3.62522 0 0 0 128 128 128 255
1.08734 0.860761 3.63216 0 0 0 128 128 128 255
1.08881 0.874982 3.63293 0 0 0 128 128 128 255
1.11044 0.813691 3.63417 0 0 0 128 128 128 255
1.02124 1.0854 3.62976 0 0 0 128 128 128 255
1.01612 1.10372 3.62961 0 0 0 128 128 128 255
1.13427 0.795379 3.63741 0 0 0 128 128 128 255
1.09054 0.941028 3.63574 0 0 0 128 128 128 255
1.04426 1.09426 3.63394 0 0 0 128 128 128 255
1.12034 0.870894 3.63802 0 0 0 128 128 128 255
1.09098 0.967572 3.63686 0 0 0 128 128 128 255
1.1147 0.918605 3.63897 0 0 0 128 128 128 255
1.14973 0.814346 3.64079 0 0 0 128 128 128 255
1.15673 0.793494 3.64115 0 0 0 128 128 128 255
1.1513 0.812767 3.641 0 0 0 128 128 128 255
1.04843 1.12207 3.63577 0 0 0 128 128 128 255
1.11241 0.934719 3.63922 0 0 0 128 128 128 255
1.0664 1.09332 3.63771 0 0 0 128 128 128 255
1.12719 0.915449 3.641 0 0 0 128 128 128 255
1.07144 1.08448 3.63823 0 0 0 128 128 128 255
1.15122 0.865533 3.64315 0 0 0 128 128 128 255
1.09691 1.05194 3.64137 0 0 0 128 128 128 255
1.14957 0.919877 3.64517 0 0 0 128 128 128 255
1.11119 1.05573 3.6441 0 0 0 128 128 128 255
1.06236 1.21654 3.64224 0 0 0 128 128 128 255
1.12104 1.06963 3.64652 0 0 0 128 128 128 255
1.12126 1.08132 3.64709 0 0 0 128 128 128 255
1.2629 0.665864 3.65474 0 0 0 128 128 128 255
1.25935 0.682607 3.65484 0 0 0 128 128 128 255
1.12209 1.09427 3.64783 0 0 0 128 128 128 255
1.26312 0.677552 3.65531 0 0 0 128 128 128 255
1.09315 1.21432 3.64788 0 0 0 128 128 128 255
1.08334 1.27435 3.6488 0 0 0 128 128 128 255
1.26319 0.745154 3.65846 0 0 0 128 128 128 255
1.27744 0.71198 3.65964 0 0 0 128 128 128 255
1.26475 0.780532 3.66045 0 0 0 128 128 128 255
1.30313 0.718596 3.66501 0 0 0 128 128 128 255
1.31255 0.705955 3.66627 0 0 0 128 128 128 255
1.25677 0.878138 3.66367 0 0 0 128 128 128 255
1.25703 0.883507 3.66399 0 0 0 128 128 128 255
1.26124 0.898664 3.66561 0 0 0 128 128 128 255
1.26251 0.894872 3.66568 0 0 0 128 128 128 255
1.25481 0.991521 3.66911 0 0 0 128 128 128 255
