ply
format ascii 1.0
comment VCGLIB generated
element vertex 41
property float x
property float y
property float z
property float nx
property float ny
property float nz
property uchar red
property uchar green
property uchar blue
property uchar alpha
element face 0
property list uchar int vertex_indices
end_header
-0.94972 0.533015 3.79137 0 0 0 0 128 128 255
-0.954713 0.532749 3.79137 0 0 0 0 128 128 255
-1.01903 0.423977 3.81088 0 0 0 0 128 128 255
-0.93184 0.422703 3.81197 0 0 0 0 128 128 255
-0.881649 0.420447 3.81288 0 0 0 0 128 128 255
-0.977514 0.415352 3.81288 0 0 0 0 128 128 255
-0.950448 0.414822 3.81325 0 0 0 0 128 128 255
-0.898364 0.414636 3.8138 0 0 0 0 128 128 255
-1.0274 0.393009 3.81653 0 0 0 0 128 128 255
-1.06014 0.38733 3.81726 0 0 0 0 128 128 255
-1.06377 0.380245 3.81854 0 0 0 0 128 128 255
-1.04352 0.300582 3.83349 0 0 0 0 128 128 255
-1.0504 0.298247 3.83385 0 0 0 0 128 128 255
-0.998162 0.295116 3.83495 0 0 0 0 128 128 255
-0.979926 0.291162 3.83586 0 0 0 0 128 128 255
-0.986916 0.29079 3.83586 0 0 0 0 128 128 255
-1.03911 0.274232 3.83841 0 0 0 0 128 128 255
-1.05083 0.268686 3.83932 0 0 0 0 128 128 255
-1.04679 0.267916 3.83951 0 0 0 0 128 128 255
-1.04586 0.212826 3.84972 0 0 0 0 128 128 255
-0.989701 0.154765 3.86103 0 0 0 0 128 128 255
-0.985035 0.123505 3.86686 0 0 0 0 128 128 255
-1.02372 0.116526 3.86777 0 0 0 0 128 128 255
-0.989715 0.117349 3.86795 0 0 0 0 128 128 255
-1.00554 0.113554 3.8685 0 0 0 0 128 128 255
-1.02294 0.101798 3.87051 0 0 0 0 128 128 255
-0.984468 0.0939964 3.87233 0 0 0 0 128 128 255
-1.00392 0.0831165 3.87415 0 0 0 0 128 128 255
-1.04639 0.0719978 3.8758 0 0 0 0 128 128 255
-1.04733 0.0709629 3.87598 0 0 0 0 128 128 255
-1.05275 0.059844 3.87798 0 0 0 0 128 128 255
-0.987531 0.0574028 3.87908 0 0 0 0 128 128 255
-0.994364 0.0540859 3.87963 0 0 0 0 128 128 255
-0.989848 0.0444796 3.88145 0 0 0 0 128 128 255
-0.987806 0.0248958 3.8851 0 0 0 0 128 128 255
-0.989601 0.00215399 3.88929 0 0 0 0 128 128 255
-1.00342 -0.00153458 3.88984 0 0 0 0 128 128 255
-0.996069 -0.0080359 3.89111 0 0 0 0 128 128 255
-0.991919 -0.0107692 3.89166 0 0 0 0 128 128 255
-1.01373 -0.0148823 3.89221 0 0 0 0 128 128 255
-1.01657 -0.0179871 3.89276 0 0 0 0 128 128 255
