ply
format ascii 1.0
comment VCGLIB generated
element vertex 280
property float x
property float y
property float z
property float nx
property float ny
property float nz
property uchar red
property uchar green
property uchar blue
property uchar alpha
element face 0
property list uchar int vertex_indices
end_header
3.1885 0.672108 3.95431 0 0 0 0 128 0 255
3.16223 0.633428 3.9576 0 0 0 0 128 0 255
3.16344 0.636171 3.9576 0 0 0 0 128 0 255
3.17108 0.655753 3.95796 0 0 0 0 128 0 255
3.16211 0.68378 3.96564 0 0 0 0 128 0 255
3.15808 0.695399 3.96893 0 0 0 0 128 0 255
3.16326 0.711699 3.96966 0 0 0 0 128 0 255
3.15255 0.719714 3.97478 0 0 0 0 128 0 255
3.16133 0.746451 3.97587 0 0 0 0 128 0 255
3.14301 0.843119 3.9978 0 0 0 0 128 0 255
2.98061 0.772796 4.04495 0 0 0 0 128 0 255
2.98517 0.79921 4.0475 0 0 0 0 128 0 255
2.99484 0.823365 4.04787 0 0 0 0 128 0 255
2.98645 0.820513 4.05043 0 0 0 0 128 0 255
3.13319 1.1569 4.05116 0 0 0 0 128 0 255
2.96672 0.815024 4.05664 0 0 0 0 128 0 255
2.95976 0.803888 4.05737 0 0 0 0 128 0 255
2.99472 0.917452 4.06285 0 0 0 0 128 0 255
2.99374 0.924446 4.06432 0 0 0 0 128 0 255
2.91415 0.783604 4.07053 0 0 0 0 128 0 255
2.91681 0.798828 4.07199 0 0 0 0 128 0 255
3.07775 1.16502 4.07236 0 0 0 0 128 0 255
2.97278 0.939184 4.07418 0 0 0 0 128 0 255
2.90802 0.795062 4.07455 0 0 0 0 128 0 255
2.96088 0.921484 4.07565 0 0 0 0 128 0 255
3.12331 1.29795 4.07711 0 0 0 0 128 0 255
2.9645 0.952686 4.0793 0 0 0 0 128 0 255
3.11659 1.29656 4.0793 0 0 0 0 128 0 255
3.1178 1.2993 4.0793 0 0 0 0 128 0 255
2.84968 0.734484 4.08588 0 0 0 0 128 0 255
2.94743 0.962421 4.08698 0 0 0 0 128 0 255
2.93573 0.956664 4.09027 0 0 0 0 128 0 255
2.86203 0.794628 4.091 0 0 0 0 128 0 255
2.94778 0.988512 4.091 0 0 0 0 128 0 255
3.05907 1.25857 4.09392 0 0 0 0 128 0 255
2.89234 0.88619 4.09465 0 0 0 0 128 0 255
2.89432 0.892968 4.09502 0 0 0 0 128 0 255
2.93456 0.99545 4.09684 0 0 0 0 128 0 255
2.80667 0.7546 4.10452 0 0 0 0 128 0 255
2.79206 0.723882 4.10488 0 0 0 0 128 0 255
2.88541 0.939554 4.10562 0 0 0 0 128 0 255
2.81126 0.778808 4.10671 0 0 0 0 128 0 255
2.88322 0.943803 4.10708 0 0 0 0 128 0 255
2.80552 0.770416 4.10744 0 0 0 0 128 0 255
2.88237 0.94418 4.10744 0 0 0 0 128 0 255
2.84531 0.87419 4.10963 0 0 0 0 128 0 255
2.83552 0.856652 4.11037 0 0 0 0 128 0 255
2.83943 0.872414 4.11146 0 0 0 0 128 0 255
2.83737 0.870047 4.11183 0 0 0 0 128 0 255
3.01168 1.28719 4.11548 0 0 0 0 128 0 255
2.84116 0.936161 4.12096 0 0 0 0 128 0 255
2.95595 1.2003 4.1217 0 0 0 0 128 0 255
2.82978 0.93573 4.12498 0 0 0 0 128 0 255
2.74066 0.741146 4.12608 0 0 0 0 128 0 255
2.99249 1.31973 4.12754 0 0 0 0 128 0 255
2.79659 0.883708 4.12864 0 0 0 0 128 0 255
2.73102 0.737757 4.129 0 0 0 0 128 0 255
3.00679 1.36589 4.12974 0 0 0 0 128 0 255
2.92965 1.20756 4.13229 0 0 0 0 128 0 255
2.99023 1.34916 4.13303 0 0 0 0 128 0 255
3.04039 1.46256 4.13303 0 0 0 0 128 0 255
2.98926 1.35615 4.13449 0 0 0 0 128 0 255
2.77314 0.874399 4.13558 0 0 0 0 128 0 255
2.72694 0.774552 4.13631 0 0 0 0 128 0 255
2.91049 1.19417 4.13705 0 0 0 0 128 0 255
2.97168 1.34862 4.1396 0 0 0 0 128 0 255
2.88746 1.1628 4.14033 0 0 0 0 128 0 255
2.68028 0.698966 4.14107 0 0 0 0 128 0 255
2.7814 0.927603 4.14107 0 0 0 0 128 0 255
2.67898 0.700634 4.1418 0 0 0 0 128 0 255
2.76582 0.903878 4.14289 0 0 0 0 128 0 255
2.9082 1.2258 4.14289 0 0 0 0 128 0 255
2.98869 1.40779 4.14289 0 0 0 0 128 0 255
2.96878 1.36739 4.14362 0 0 0 0 128 0 255
2.93432 1.29407 4.14435 0 0 0 0 128 0 255
2.77248 0.930454 4.14472 0 0 0 0 128 0 255
2.76993 0.931583 4.14582 0 0 0 0 128 0 255
2.97811 1.40919 4.14691 0 0 0 0 128 0 255
3.01447 1.49371 4.14728 0 0 0 0 128 0 255
2.93845 1.34254 4.15057 0 0 0 0 128 0 255
2.74134 0.903769 4.15166 0 0 0 0 128 0 255
2.71637 0.863421 4.15422 0 0 0 0 128 0 255
3.03664 1.59215 4.15495 0 0 0 0 128 0 255
2.93247 1.36814 4.15678 0 0 0 0 128 0 255
2.70503 0.860784 4.15788 0 0 0 0 128 0 255
2.69513 0.870628 4.16299 0 0 0 0 128 0 255
2.61945 0.701813 4.16336 0 0 0 0 128 0 255
2.62944 0.731293 4.16446 0 0 0 0 128 0 255
2.70661 0.910383 4.16519 0 0 0 0 128 0 255
3.02336 1.668 4.17177 0 0 0 0 128 0 255
2.60871 0.755768 4.17579 0 0 0 0 128 0 255
2.81891 1.23795 4.17688 0 0 0 0 128 0 255
2.9951 1.64551 4.17834 0 0 0 0 128 0 255
2.81381 1.24021 4.17907 0 0 0 0 128 0 255
2.6442 0.86363 4.18017 0 0 0 0 128 0 255
2.60412 0.775296 4.18054 0 0 0 0 128 0 255
2.63607 0.847545 4.18054 0 0 0 0 128 0 255
2.66034 0.902418 4.18054 0 0 0 0 128 0 255
2.6603 0.904623 4.1809 0 0 0 0 128 0 255
2.56935 0.71741 4.18383 0 0 0 0 128 0 255
2.61943 0.835225 4.18456 0 0 0 0 128 0 255
2.81219 1.28029 4.18602 0 0 0 0 128 0 255
2.84362 1.35824 4.18711 0 0 0 0 128 0 255
2.54441 0.697826 4.18967 0 0 0 0 128 0 255
2.54584 0.733277 4.19479 0 0 0 0 128 0 255
2.51129 0.664363 4.19625 0 0 0 0 128 0 255
2.61439 0.899778 4.19662 0 0 0 0 128 0 255
2.78459 1.28921 4.19735 0 0 0 0 128 0 255
2.91352 1.60834 4.20173 0 0 0 0 128 0 255
2.55621 0.830378 4.20648 0 0 0 0 128 0 255
2.50755 0.727249 4.20758 0 0 0 0 128 0 255
2.55507 0.846194 4.20941 0 0 0 0 128 0 255
2.76316 1.32821 4.21124 0 0 0 0 128 0 255
2.47877 0.687492 4.2116 0 0 0 0 128 0 255
2.54934 0.858566 4.21343 0 0 0 0 128 0 255
2.89679 1.64416 4.21343 0 0 0 0 128 0 255
2.76202 1.34403 4.21416 0 0 0 0 128 0 255
2.73847 1.2954 4.21489 0 0 0 0 128 0 255
2.54994 0.871423 4.21526 0 0 0 0 128 0 255
2.75218 1.3287 4.21526 0 0 0 0 128 0 255
2.70724 1.22939 4.21562 0 0 0 0 128 0 255
2.74526 1.31535 4.21562 0 0 0 0 128 0 255
2.67399 1.15881 4.21635 0 0 0 0 128 0 255
2.5509 0.8874 4.21745 0 0 0 0 128 0 255
2.47388 0.722459 4.21891 0 0 0 0 128 0 255
2.45777 0.704436 4.22183 0 0 0 0 128 0 255
2.77115 1.41762 4.22257 0 0 0 0 128 0 255
2.44331 0.687866 4.22439 0 0 0 0 128 0 255
2.69126 1.24848 4.22439 0 0 0 0 128 0 255
2.70501 1.27958 4.22439 0 0 0 0 128 0 255
2.49413 0.832686 4.22914 0 0 0 0 128 0 255
2.47972 0.813911 4.23134 0 0 0 0 128 0 255
2.41011 0.658814 4.2317 0 0 0 0 128 0 255
2.66764 1.248 4.2328 0 0 0 0 128 0 255
2.47355 0.827574 4.23572 0 0 0 0 128 0 255
2.48441 0.877443 4.23974 0 0 0 0 128 0 255
2.39134 0.669303 4.24011 0 0 0 0 128 0 255
2.38191 0.654885 4.2412 0 0 0 0 128 0 255
2.68644 1.34574 4.24157 0 0 0 0 128 0 255
2.4069 0.715998 4.24194 0 0 0 0 128 0 255
2.68882 1.35344 4.24194 0 0 0 0 128 0 255
2.47432 0.875344 4.24303 0 0 0 0 128 0 255
2.46417 0.854686 4.2434 0 0 0 0 128 0 255
2.92204 1.88995 4.2434 0 0 0 0 128 0 255
2.90674 1.87376 4.24632 0 0 0 0 128 0 255
2.685 1.377 4.24705 0 0 0 0 128 0 255
2.41001 0.773667 4.24998 0 0 0 0 128 0 255
2.65464 1.33138 4.25071 0 0 0 0 128 0 255
2.90246 1.89861 4.2518 0 0 0 0 128 0 255
2.35192 0.65612 4.25217 0 0 0 0 128 0 255
2.4041 0.774097 4.25217 0 0 0 0 128 0 255
2.34617 0.647728 4.2529 0 0 0 0 128 0 255
2.34613 0.649933 4.25327 0 0 0 0 128 0 255
2.3602 0.686354 4.254 0 0 0 0 128 0 255
2.87494 1.85939 4.25546 0 0 0 0 128 0 255
2.69927 1.4691 4.25655 0 0 0 0 128 0 255
2.65473 1.3707 4.25692 0 0 0 0 128 0 255
2.62144 1.30233 4.25802 0 0 0 0 128 0 255
2.6605 1.39986 4.25948 0 0 0 0 128 0 255
2.34313 0.696089 4.26167 0 0 0 0 128 0 255
2.39932 0.825417 4.26204 0 0 0 0 128 0 255
2.34143 0.696842 4.2624 0 0 0 0 128 0 255
2.39389 0.82235 4.2635 0 0 0 0 128 0 255
2.40788 0.863182 4.26496 0 0 0 0 128 0 255
2.57812 1.25041 4.26533 0 0 0 0 128 0 255
2.35359 0.745044 4.26569 0 0 0 0 128 0 255
2.59651 1.30351 4.26715 0 0 0 0 128 0 255
2.38723 0.83951 4.26861 0 0 0 0 128 0 255
2.36999 0.814333 4.27081 0 0 0 0 128 0 255
2.58432 1.30125 4.27117 0 0 0 0 128 0 255
2.54374 1.21641 4.27227 0 0 0 0 128 0 255
2.59324 1.34213 4.27446 0 0 0 0 128 0 255
2.57212 1.29899 4.27519 0 0 0 0 128 0 255
2.37327 0.863179 4.27739 0 0 0 0 128 0 255
2.3322 0.781838 4.27921 0 0 0 0 128 0 255
2.36035 0.854678 4.28068 0 0 0 0 128 0 255
2.57913 1.35165 4.28104 0 0 0 0 128 0 255
2.53496 1.25638 4.28177 0 0 0 0 128 0 255
2.56844 1.3367 4.2825 0 0 0 0 128 0 255
2.34387 0.833536 4.28323 0 0 0 0 128 0 255
2.32708 0.807067 4.28506 0 0 0 0 128 0 255
2.34488 0.847307 4.28506 0 0 0 0 128 0 255
2.32088 0.799966 4.28616 0 0 0 0 128 0 255
2.32327 0.807659 4.28652 0 0 0 0 128 0 255
2.5772 1.38641 4.28725 0 0 0 0 128 0 255
2.65465 1.57303 4.28908 0 0 0 0 128 0 255
2.53066 1.3042 4.29091 0 0 0 0 128 0 255
2.51945 1.29495 4.29347 0 0 0 0 128 0 255
2.63909 1.57007 4.2942 0 0 0 0 128 0 255
2.64992 1.59917 4.29493 0 0 0 0 128 0 255
2.53691 1.35283 4.29639 0 0 0 0 128 0 255
2.62104 1.54306 4.29639 0 0 0 0 128 0 255
2.52675 1.33218 4.29676 0 0 0 0 128 0 255
2.48982 1.25557 4.29785 0 0 0 0 128 0 255
2.6512 1.62047 4.29785 0 0 0 0 128 0 255
2.65476 1.63312 4.29858 0 0 0 0 128 0 255
2.48769 1.27838 4.30224 0 0 0 0 128 0 255
2.62836 1.60105 4.30297 0 0 0 0 128 0 255
2.6072 1.56011 4.30407 0 0 0 0 128 0 255
2.72401 1.82883 4.3048 0 0 0 0 128 0 255
2.57741 1.52955 4.30991 0 0 0 0 128 0 255
2.70473 1.82205 4.31064 0 0 0 0 128 0 255
2.58188 1.56038 4.3132 0 0 0 0 128 0 255
2.70754 1.85142 4.3143 0 0 0 0 128 0 255
2.48549 1.39307 4.32124 0 0 0 0 128 0 255
2.49843 1.42233 4.32124 0 0 0 0 128 0 255
2.69699 1.87358 4.32161 0 0 0 0 128 0 255
2.66621 1.85002 4.32892 0 0 0 0 128 0 255
2.65318 1.82516 4.32965 0 0 0 0 128 0 255
2.63807 1.82091 4.3344 0 0 0 0 128 0 255
2.35121 1.17691 4.33513 0 0 0 0 128 0 255
2.44829 1.3964 4.33513 0 0 0 0 128 0 255
2.51716 1.61196 4.34463 0 0 0 0 128 0 255
2.5191 1.62095 4.34536 0 0 0 0 128 0 255
2.32797 1.20031 4.34719 0 0 0 0 128 0 255
2.45319 1.49264 4.34865 0 0 0 0 128 0 255
2.40574 1.39226 4.34975 0 0 0 0 128 0 255
2.39874 1.38332 4.35085 0 0 0 0 128 0 255
2.45552 1.52551 4.35304 0 0 0 0 128 0 255
2.40208 1.407 4.3534 0 0 0 0 128 0 255
2.50812 1.66517 4.35633 0 0 0 0 128 0 255
2.51913 1.72918 4.36254 0 0 0 0 128 0 255
2.43915 1.56446 4.3651 0 0 0 0 128 0 255
2.5024 1.72127 4.36729 0 0 0 0 128 0 255
2.26125 1.18061 4.36802 0 0 0 0 128 0 255
2.51326 1.77114 4.37131 0 0 0 0 128 0 255
2.48086 1.70018 4.37168 0 0 0 0 128 0 255
2.43499 1.60566 4.37314 0 0 0 0 128 0 255
2.50875 1.78626 4.37533 0 0 0 0 128 0 255
2.17957 1.06038 4.37826 0 0 0 0 128 0 255
2.43042 1.64595 4.38118 0 0 0 0 128 0 255
2.43725 1.66371 4.38155 0 0 0 0 128 0 255
2.35744 1.49016 4.38264 0 0 0 0 128 0 255
2.39812 1.59135 4.3841 0 0 0 0 128 0 255
2.22533 1.20525 4.38483 0 0 0 0 128 0 255
2.47408 1.7677 4.38483 0 0 0 0 128 0 255
2.16538 1.07431 4.38557 0 0 0 0 128 0 255
2.38444 1.57882 4.38703 0 0 0 0 128 0 255
2.19597 1.1734 4.39032 0 0 0 0 128 0 255
2.21809 1.23032 4.39141 0 0 0 0 128 0 255
2.47011 1.82085 4.3947 0 0 0 0 128 0 255
2.34544 1.54358 4.39543 0 0 0 0 128 0 255
2.34378 1.54212 4.3958 0 0 0 0 128 0 255
2.3176 1.54277 4.4053 0 0 0 0 128 0 255
2.4103 1.77076 4.40823 0 0 0 0 128 0 255
2.4176 1.80798 4.41151 0 0 0 0 128 0 255
2.1627 1.27997 4.41919 0 0 0 0 128 0 255
2.11565 1.1805 4.42029 0 0 0 0 128 0 255
2.37205 1.76252 4.42065 0 0 0 0 128 0 255
2.1491 1.26302 4.42138 0 0 0 0 128 0 255
2.35053 1.7622 4.42833 0 0 0 0 128 0 255
1.9909 1.06181 4.44623 0 0 0 0 128 0 255
2.23539 1.73658 4.4656 0 0 0 0 128 0 255
2.22594 1.74514 4.47036 0 0 0 0 128 0 255
2.2292 1.77322 4.47364 0 0 0 0 128 0 255
2.19552 1.72469 4.47803 0 0 0 0 128 0 255
1.94319 1.17257 4.48095 0 0 0 0 128 0 255
1.93573 1.18791 4.48607 0 0 0 0 128 0 255
1.91378 1.1659 4.49046 0 0 0 0 128 0 255
2.05761 1.5003 4.49192 0 0 0 0 128 0 255
2.06084 1.50762 4.49192 0 0 0 0 128 0 255
2.0665 1.52042 4.49192 0 0 0 0 128 0 255
1.94687 1.28904 4.49813 0 0 0 0 128 0 255
1.93904 1.30125 4.50288 0 0 0 0 128 0 255
2.04865 1.54909 4.50288 0 0 0 0 128 0 255
2.06125 1.70645 4.52335 0 0 0 0 128 0 255
1.92313 1.42638 4.52846 0 0 0 0 128 0 255
1.90841 1.44601 4.53687 0 0 0 0 128 0 255
1.93865 1.62946 4.55514 0 0 0 0 128 0 255
1.93941 1.63349 4.55551 0 0 0 0 128 0 255
1.90046 1.59605 4.56355 0 0 0 0 128 0 255
1.88378 1.62967 4.57488 0 0 0 0 128 0 255
1.88696 1.74963 4.59279 0 0 0 0 128 0 255
1.89327 1.77308 4.59425 0 0 0 0 128 0 255
1.89399 1.77933 4.59498 0 0 0 0 128 0 255
1.87813 1.74807 4.59571 0 0 0 0 128 0 255
1.79721 1.74231 4.62385 0 0 0 0 128 0 255
1.89031 1.97121 4.62678 0 0 0 0 128 0 255
1.8752 1.96696 4.63153 0 0 0 0 128 0 255
1.86532 1.95383 4.63299 0 0 0 0 128 0 255
