ply
format ascii 1.0
comment VCGLIB generated
element vertex 458
property float x
property float y
property float z
property float nx
property float ny
property float nz
property uchar red
property uchar green
property uchar blue
property uchar alpha
element face 0
property list uchar int vertex_indices
end_header
4.19918 0.640782 3.39052 0 0 0 128 128 0 255
4.17837 0.610235 3.40535 0 0 0 128 128 0 255
4.17468 0.62532 3.40831 0 0 0 128 128 0 255
4.17255 0.638371 3.41009 0 0 0 128 128 0 255
4.16872 0.647458 3.41306 0 0 0 128 128 0 255
4.1272 0.845425 3.44686 0 0 0 128 128 0 255
4.12162 0.811541 3.45042 0 0 0 128 128 0 255
4.11218 0.930779 3.45932 0 0 0 128 128 0 255
4.10459 0.987961 3.46584 0 0 0 128 128 0 255
4.10145 1.02804 3.46881 0 0 0 128 128 0 255
4.09514 0.925154 3.47177 0 0 0 128 128 0 255
4.0834 0.649347 3.47592 0 0 0 128 128 0 255
4.07548 0.655524 3.48185 0 0 0 128 128 0 255
4.07231 0.657594 3.48423 0 0 0 128 128 0 255
4.08163 1.15151 3.48541 0 0 0 128 128 0 255
4.08015 1.15754 3.4866 0 0 0 128 128 0 255
4.04845 0.85317 3.50498 0 0 0 128 128 0 255
4.05401 1.17713 3.50617 0 0 0 128 128 0 255
4.05359 1.26716 3.50795 0 0 0 128 128 0 255
4.0435 1.17536 3.51388 0 0 0 128 128 0 255
4.0162 1.87013 3.54531 0 0 0 128 128 0 255
3.98138 1.0247 3.55717 0 0 0 128 128 0 255
3.98048 1.02072 3.55777 0 0 0 128 128 0 255
3.97966 1.01973 3.55836 0 0 0 128 128 0 255
3.97259 1.10091 3.56488 0 0 0 128 128 0 255
3.98532 2.00285 3.57022 0 0 0 128 128 0 255
3.98424 2.02688 3.57141 0 0 0 128 128 0 255
3.95034 0.532263 3.572 0 0 0 128 128 0 255
3.96296 1.10212 3.572 0 0 0 128 128 0 255
3.95025 1.03739 3.5803 0 0 0 128 128 0 255
3.93415 0.528621 3.58386 0 0 0 128 128 0 255
3.94353 0.988526 3.58445 0 0 0 128 128 0 255
3.94391 1.00552 3.58445 0 0 0 128 128 0 255
3.94317 1.00854 3.58505 0 0 0 128 128 0 255
3.94569 1.12251 3.58505 0 0 0 128 128 0 255
3.94263 1.02055 3.58564 0 0 0 128 128 0 255
3.93552 1.09973 3.59216 0 0 0 128 128 0 255
3.95549 2.00151 3.59216 0 0 0 128 128 0 255
3.93018 1.11285 3.59632 0 0 0 128 128 0 255
3.94668 2.00371 3.59869 0 0 0 128 128 0 255
3.92416 1.13199 3.60106 0 0 0 128 128 0 255
3.91741 1.00911 3.60403 0 0 0 128 128 0 255
3.91711 1.14115 3.6064 0 0 0 128 128 0 255
3.91593 1.12417 3.60699 0 0 0 128 128 0 255
3.90745 1.03234 3.61174 0 0 0 128 128 0 255
3.90433 1.10942 3.61529 0 0 0 128 128 0 255
3.88342 0.601762 3.62241 0 0 0 128 128 0 255
3.88848 0.975741 3.62478 0 0 0 128 128 0 255
3.88851 0.976741 3.62478 0 0 0 128 128 0 255
3.88522 0.973813 3.62716 0 0 0 128 128 0 255
3.91424 2.28449 3.62716 0 0 0 128 128 0 255
3.88635 1.825 3.6402 0 0 0 128 128 0 255
3.86643 1.10726 3.64317 0 0 0 128 128 0 255
3.86466 1.1003 3.64435 0 0 0 128 128 0 255
3.86353 1.08532 3.64495 0 0 0 128 128 0 255
3.87429 1.9713 3.65147 0 0 0 128 128 0 255
3.86988 1.95439 3.65444 0 0 0 128 128 0 255
3.86776 1.96744 3.65622 0 0 0 128 128 0 255
3.86697 1.96846 3.65681 0 0 0 128 128 0 255
3.86575 1.94948 3.6574 0 0 0 128 128 0 255
3.8346 0.760882 3.66096 0 0 0 128 128 0 255
3.83295 0.758918 3.66215 0 0 0 128 128 0 255
3.83299 0.760917 3.66215 0 0 0 128 128 0 255
3.856 2.12774 3.66748 0 0 0 128 128 0 255
3.83379 1.19701 3.66867 0 0 0 128 128 0 255
3.8281 1.01309 3.66986 0 0 0 128 128 0 255
3.82508 0.949138 3.67104 0 0 0 128 128 0 255
3.82519 0.954137 3.67104 0 0 0 128 128 0 255
3.85022 2.08486 3.67104 0 0 0 128 128 0 255
3.8284 1.17212 3.67223 0 0 0 128 128 0 255
3.82044 0.885225 3.67341 0 0 0 128 128 0 255
3.84747 2.10593 3.67341 0 0 0 128 128 0 255
3.82165 0.976221 3.67401 0 0 0 128 128 0 255
3.846 2.07595 3.67401 0 0 0 128 128 0 255
3.84432 2.07299 3.67519 0 0 0 128 128 0 255
3.8157 0.889331 3.67697 0 0 0 128 128 0 255
3.8133 0.817367 3.67757 0 0 0 128 128 0 255
3.8115 0.772396 3.67816 0 0 0 128 128 0 255
3.81256 0.820384 3.67816 0 0 0 128 128 0 255
3.84011 2.10109 3.67875 0 0 0 128 128 0 255
3.84014 2.10209 3.67875 0 0 0 128 128 0 255
3.81185 0.897418 3.67994 0 0 0 128 128 0 255
3.81713 1.17237 3.68053 0 0 0 128 128 0 255
3.81771 1.19836 3.68053 0 0 0 128 128 0 255
3.81684 1.19538 3.68112 0 0 0 128 128 0 255
3.82106 1.42234 3.68172 0 0 0 128 128 0 255
3.80293 0.785589 3.68468 0 0 0 128 128 0 255
3.80153 0.758613 3.68528 0 0 0 128 128 0 255
3.80237 0.796604 3.68528 0 0 0 128 128 0 255
3.81029 1.19052 3.68587 0 0 0 128 128 0 255
3.79994 0.759648 3.68646 0 0 0 128 128 0 255
3.80082 0.835648 3.68706 0 0 0 128 128 0 255
3.80159 0.870639 3.68706 0 0 0 128 128 0 255
3.80646 1.09059 3.68706 0 0 0 128 128 0 255
3.80653 1.09358 3.68706 0 0 0 128 128 0 255
3.80119 0.96167 3.68883 0 0 0 128 128 0 255
3.80451 1.14764 3.68943 0 0 0 128 128 0 255
3.79511 0.868782 3.6918 0 0 0 128 128 0 255
3.79522 0.873781 3.6918 0 0 0 128 128 0 255
3.79911 1.19477 3.69417 0 0 0 128 128 0 255
3.78836 0.745901 3.69477 0 0 0 128 128 0 255
3.78839 0.746901 3.69477 0 0 0 128 128 0 255
3.78983 1.06695 3.69892 0 0 0 128 128 0 255
3.78302 0.941067 3.70188 0 0 0 128 128 0 255
3.78351 0.963062 3.70188 0 0 0 128 128 0 255
3.7859 1.18006 3.70366 0 0 0 128 128 0 255
3.77714 0.857177 3.70485 0 0 0 128 128 0 255
3.77044 0.882331 3.71019 0 0 0 128 128 0 255
3.77373 1.17633 3.71256 0 0 0 128 128 0 255
3.77739 1.41431 3.71374 0 0 0 128 128 0 255
3.76853 1.05041 3.71434 0 0 0 128 128 0 255
3.76653 1.06946 3.71612 0 0 0 128 128 0 255
3.77352 1.4214 3.71671 0 0 0 128 128 0 255
3.77609 1.53737 3.71671 0 0 0 128 128 0 255
3.75778 0.746579 3.7173 0 0 0 128 128 0 255
3.7573 0.761593 3.7179 0 0 0 128 128 0 255
3.76425 1.07552 3.7179 0 0 0 128 128 0 255
3.77254 1.63147 3.72086 0 0 0 128 128 0 255
3.75049 0.744739 3.72264 0 0 0 128 128 0 255
3.75132 0.818739 3.72323 0 0 0 128 128 0 255
3.78327 2.29839 3.72383 0 0 0 128 128 0 255
3.75256 0.947743 3.72442 0 0 0 128 128 0 255
3.75132 0.927766 3.72501 0 0 0 128 128 0 255
3.7657 1.72264 3.72738 0 0 0 128 128 0 255
3.7778 2.30552 3.72798 0 0 0 128 128 0 255
3.77718 2.35054 3.72916 0 0 0 128 128 0 255
3.74246 0.818935 3.72976 0 0 0 128 128 0 255
3.74248 0.855944 3.73035 0 0 0 128 128 0 255
3.73987 0.810991 3.73154 0 0 0 128 128 0 255
3.74011 0.931015 3.73331 0 0 0 128 128 0 255
3.76718 2.29875 3.73569 0 0 0 128 128 0 255
3.73213 0.861174 3.73806 0 0 0 128 128 0 255
3.74427 1.44605 3.73865 0 0 0 128 128 0 255
3.72586 0.760288 3.74102 0 0 0 128 128 0 255
3.73901 1.39015 3.74162 0 0 0 128 128 0 255
3.72811 0.934281 3.74221 0 0 0 128 128 0 255
3.72097 0.648369 3.7428 0 0 0 128 128 0 255
3.75836 2.33696 3.7428 0 0 0 128 128 0 255
3.73106 1.14027 3.7434 0 0 0 128 128 0 255
3.72502 0.940351 3.74458 0 0 0 128 128 0 255
3.72346 0.906377 3.74518 0 0 0 128 128 0 255
3.71458 0.650511 3.74755 0 0 0 128 128 0 255
3.71891 0.846463 3.74755 0 0 0 128 128 0 255
3.72293 1.06443 3.74814 0 0 0 128 128 0 255
3.73002 1.38435 3.74814 0 0 0 128 128 0 255
3.72082 1.04147 3.74933 0 0 0 128 128 0 255
3.73864 1.91929 3.75051 0 0 0 128 128 0 255
3.71292 0.830592 3.7517 0 0 0 128 128 0 255
3.71016 0.814649 3.75348 0 0 0 128 128 0 255
3.71263 0.962631 3.75407 0 0 0 128 128 0 255
3.7148 1.06061 3.75407 0 0 0 128 128 0 255
3.70494 0.651725 3.75467 0 0 0 128 128 0 255
3.71106 0.964666 3.75526 0 0 0 128 128 0 255
3.71949 1.38158 3.75585 0 0 0 128 128 0 255
3.70796 0.933727 3.75704 0 0 0 128 128 0 255
3.71082 1.0627 3.75704 0 0 0 128 128 0 255
3.70098 0.654813 3.75763 0 0 0 128 128 0 255
3.70122 0.665811 3.75763 0 0 0 128 128 0 255
3.69957 0.663847 3.75882 0 0 0 128 128 0 255
3.71381 1.37971 3.76 0 0 0 128 128 0 255
3.72473 1.90959 3.7606 0 0 0 128 128 0 255
3.70057 0.963898 3.76297 0 0 0 128 128 0 255
3.70116 1.06291 3.76415 0 0 0 128 128 0 255
3.69915 1.04495 3.76534 0 0 0 128 128 0 255
3.70034 1.13495 3.76593 0 0 0 128 128 0 255
3.68867 0.826128 3.76949 0 0 0 128 128 0 255
3.69046 0.907108 3.76949 0 0 0 128 128 0 255
3.68999 0.922122 3.77008 0 0 0 128 128 0 255
3.67889 0.639298 3.77364 0 0 0 128 128 0 255
3.67909 0.648296 3.77364 0 0 0 128 128 0 255
3.67846 0.656312 3.77424 0 0 0 128 128 0 255
3.68582 1.13427 3.77661 0 0 0 128 128 0 255
3.70023 1.82112 3.7772 0 0 0 128 128 0 255
3.67188 0.613447 3.77839 0 0 0 128 128 0 255
3.68879 1.37726 3.77839 0 0 0 128 128 0 255
3.67169 0.641458 3.77898 0 0 0 128 128 0 255
3.67742 1.11845 3.78254 0 0 0 128 128 0 255
3.66617 0.646582 3.78313 0 0 0 128 128 0 255
3.66584 0.886648 3.78728 0 0 0 128 128 0 255
3.65866 0.598736 3.78788 0 0 0 128 128 0 255
3.66555 0.90966 3.78788 0 0 0 128 128 0 255
3.66741 0.993639 3.78788 0 0 0 128 128 0 255
3.65848 0.626747 3.78847 0 0 0 128 128 0 255
3.65697 0.594773 3.78906 0 0 0 128 128 0 255
3.6618 0.885737 3.79025 0 0 0 128 128 0 255
3.66242 0.91373 3.79025 0 0 0 128 128 0 255
3.65466 0.599825 3.79084 0 0 0 128 128 0 255
3.65909 0.908803 3.79262 0 0 0 128 128 0 255
3.65172 0.648902 3.79381 0 0 0 128 128 0 255
3.65902 1.01483 3.7944 0 0 0 128 128 0 255
3.65909 1.01783 3.7944 0 0 0 128 128 0 255
3.65792 1.03786 3.79559 0 0 0 128 128 0 255
3.65269 0.837927 3.79618 0 0 0 128 128 0 255
3.65911 1.12786 3.79618 0 0 0 128 128 0 255
3.65181 0.834946 3.79677 0 0 0 128 128 0 255
3.64728 0.703014 3.79796 0 0 0 128 128 0 255
3.65381 0.997941 3.79796 0 0 0 128 128 0 255
3.64683 0.719028 3.79855 0 0 0 128 128 0 255
3.64868 0.839016 3.79915 0 0 0 128 128 0 255
3.64292 0.615089 3.79974 0 0 0 128 128 0 255
3.64227 0.622105 3.80033 0 0 0 128 128 0 255
3.64813 0.923049 3.80092 0 0 0 128 128 0 255
3.65115 1.09602 3.80152 0 0 0 128 128 0 255
3.66748 1.86985 3.80211 0 0 0 128 128 0 255
3.64142 0.802168 3.80389 0 0 0 128 128 0 255
3.64285 0.93917 3.80508 0 0 0 128 128 0 255
3.64703 1.12812 3.80508 0 0 0 128 128 0 255
3.66259 1.83095 3.80508 0 0 0 128 128 0 255
3.63619 0.711261 3.80626 0 0 0 128 128 0 255
3.63649 0.761267 3.80686 0 0 0 128 128 0 255
3.64039 0.937224 3.80686 0 0 0 128 128 0 255
3.63065 0.606358 3.80863 0 0 0 128 128 0 255
3.6302 0.622372 3.80923 0 0 0 128 128 0 255
3.63856 1.10931 3.81101 0 0 0 128 128 0 255
3.63629 1.07935 3.81219 0 0 0 128 128 0 255
3.65219 1.83418 3.81279 0 0 0 128 128 0 255
3.63271 0.990407 3.81338 0 0 0 128 128 0 255
3.63199 0.994424 3.81397 0 0 0 128 128 0 255
3.64328 1.5043 3.81397 0 0 0 128 128 0 255
3.62781 0.878488 3.81516 0 0 0 128 128 0 255
3.64893 1.83225 3.81516 0 0 0 128 128 0 255
3.64768 1.81228 3.81575 0 0 0 128 128 0 255
3.64017 1.50937 3.81634 0 0 0 128 128 0 255
3.62374 0.803559 3.81694 0 0 0 128 128 0 255
3.63004 1.1245 3.81753 0 0 0 128 128 0 255
3.6301 1.1275 3.81753 0 0 0 128 128 0 255
3.62202 0.798596 3.81812 0 0 0 128 128 0 255
3.62651 1.00155 3.81812 0 0 0 128 128 0 255
3.61656 0.588666 3.81872 0 0 0 128 128 0 255
3.62232 1.03065 3.82168 0 0 0 128 128 0 255
3.61269 0.631762 3.82227 0 0 0 128 128 0 255
3.61802 0.872703 3.82227 0 0 0 128 128 0 255
3.62275 1.12266 3.82287 0 0 0 128 128 0 255
3.61012 0.588808 3.82346 0 0 0 128 128 0 255
3.61116 0.635797 3.82346 0 0 0 128 128 0 255
3.61729 1.02176 3.82524 0 0 0 128 128 0 255
3.61217 0.935848 3.82761 0 0 0 128 128 0 255
3.60069 0.59902 3.83058 0 0 0 128 128 0 255
3.60713 0.889948 3.83058 0 0 0 128 128 0 255
3.60656 0.936972 3.83176 0 0 0 128 128 0 255
3.63114 2.08371 3.83236 0 0 0 128 128 0 255
3.59622 0.579114 3.83354 0 0 0 128 128 0 255
3.60073 0.819073 3.83414 0 0 0 128 128 0 255
3.60079 0.822072 3.83414 0 0 0 128 128 0 255
3.60537 1.06503 3.83473 0 0 0 128 128 0 255
3.60064 0.888091 3.83532 0 0 0 128 128 0 255
3.60129 0.917084 3.83532 0 0 0 128 128 0 255
3.60463 1.06805 3.83532 0 0 0 128 128 0 255
3.59845 0.898142 3.8371 0 0 0 128 128 0 255
3.62477 2.08685 3.8371 0 0 0 128 128 0 255
3.59804 0.916156 3.83769 0 0 0 128 128 0 255
3.61706 1.77495 3.83769 0 0 0 128 128 0 255
3.62385 2.08187 3.83769 0 0 0 128 128 0 255
3.59683 0.934187 3.83888 0 0 0 128 128 0 255
3.60093 1.11914 3.83888 0 0 0 128 128 0 255
3.5941 0.956253 3.84125 0 0 0 128 128 0 255
3.58971 0.867328 3.84303 0 0 0 128 128 0 255
3.59472 1.09327 3.84303 0 0 0 128 128 0 255
3.59005 0.955342 3.84422 0 0 0 128 128 0 255
3.58652 0.868399 3.8454 0 0 0 128 128 0 255
3.60259 1.59422 3.8454 0 0 0 128 128 0 255
3.59847 1.59031 3.84837 0 0 0 128 128 0 255
3.5829 0.923493 3.84896 0 0 0 128 128 0 255
3.57947 0.80454 3.84956 0 0 0 128 128 0 255
3.57457 0.692621 3.85134 0 0 0 128 128 0 255
3.60451 2.0813 3.85193 0 0 0 128 128 0 255
3.57821 1.00262 3.85371 0 0 0 128 128 0 255
3.59966 2.08041 3.85549 0 0 0 128 128 0 255
3.56798 0.685765 3.85608 0 0 0 128 128 0 255
3.57712 1.09866 3.85608 0 0 0 128 128 0 255
3.57607 1.08768 3.85667 0 0 0 128 128 0 255
3.57634 1.09968 3.85667 0 0 0 128 128 0 255
3.59219 1.81551 3.85667 0 0 0 128 128 0 255
3.59765 2.06245 3.85667 0 0 0 128 128 0 255
3.57059 0.876754 3.85727 0 0 0 128 128 0 255
3.56569 0.691817 3.85786 0 0 0 128 128 0 255
3.56592 0.774832 3.85905 0 0 0 128 128 0 255
3.57301 1.09475 3.85905 0 0 0 128 128 0 255
3.57151 1.09979 3.86023 0 0 0 128 128 0 255
3.58784 1.83761 3.86023 0 0 0 128 128 0 255
3.56529 1.0009 3.8632 0 0 0 128 128 0 255
3.55953 0.776974 3.86379 0 0 0 128 128 0 255
3.57964 1.83079 3.86616 0 0 0 128 128 0 255
3.58858 2.23469 3.86616 0 0 0 128 128 0 255
3.55419 0.863114 3.86913 0 0 0 128 128 0 255
3.55847 1.09308 3.86972 0 0 0 128 128 0 255
3.56154 1.4861 3.87387 0 0 0 128 128 0 255
3.54094 0.701367 3.87624 0 0 0 128 128 0 255
3.54204 0.787364 3.87684 0 0 0 128 128 0 255
3.55718 1.4712 3.87684 0 0 0 128 128 0 255
3.56988 2.08106 3.87743 0 0 0 128 128 0 255
3.53844 0.697422 3.87802 0 0 0 128 128 0 255
3.53834 0.729432 3.87862 0 0 0 128 128 0 255
3.56818 2.0771 3.87862 0 0 0 128 128 0 255
3.57152 2.22806 3.87862 0 0 0 128 128 0 255
3.54215 0.974407 3.8798 0 0 0 128 128 0 255
3.56048 1.8022 3.8798 0 0 0 128 128 0 255
3.55315 1.50729 3.8804 0 0 0 128 128 0 255
3.56626 2.28119 3.88336 0 0 0 128 128 0 255
3.54663 1.46743 3.88455 0 0 0 128 128 0 255
3.5536 1.78235 3.88455 0 0 0 128 128 0 255
3.53123 0.917635 3.88692 0 0 0 128 128 0 255
3.54274 1.43751 3.88692 0 0 0 128 128 0 255
3.54277 1.43851 3.88692 0 0 0 128 128 0 255
3.53032 0.985672 3.8887 0 0 0 128 128 0 255
3.52507 0.857757 3.89048 0 0 0 128 128 0 255
3.52346 0.857792 3.89166 0 0 0 128 128 0 255
3.52422 0.891784 3.89166 0 0 0 128 128 0 255
3.52395 0.988814 3.89344 0 0 0 128 128 0 255
3.53477 1.47769 3.89344 0 0 0 128 128 0 255
3.53999 1.74965 3.89404 0 0 0 128 128 0 255
3.52018 0.963891 3.89582 0 0 0 128 128 0 255
3.52082 0.992884 3.89582 0 0 0 128 128 0 255
3.51573 0.835958 3.897 0 0 0 128 128 0 255
3.5128 0.958053 3.90115 0 0 0 128 128 0 255
3.53013 2.03193 3.9059 0 0 0 128 128 0 255
3.50218 0.84226 3.90708 0 0 0 128 128 0 255
3.5341 2.28391 3.90708 0 0 0 128 128 0 255
3.53186 2.29196 3.90886 0 0 0 128 128 0 255
3.51165 1.41519 3.90946 0 0 0 128 128 0 255
3.52603 2.06503 3.90946 0 0 0 128 128 0 255
3.51639 1.70216 3.91064 0 0 0 128 128 0 255
3.51799 2.0292 3.91479 0 0 0 128 128 0 255
3.50948 1.6813 3.91539 0 0 0 128 128 0 255
3.50708 1.75437 3.91835 0 0 0 128 128 0 255
3.48999 1.05558 3.91954 0 0 0 128 128 0 255
3.48142 0.88673 3.9231 0 0 0 128 128 0 255
3.4822 0.921722 3.9231 0 0 0 128 128 0 255
3.48302 0.958712 3.9231 0 0 0 128 128 0 255
3.47967 0.916776 3.92488 0 0 0 128 128 0 255
3.48009 1.0448 3.92666 0 0 0 128 128 0 255
3.47866 1.05283 3.92784 0 0 0 128 128 0 255
3.47725 1.06187 3.92903 0 0 0 128 128 0 255
3.47561 1.0609 3.93021 0 0 0 128 128 0 255
3.47017 0.923988 3.93199 0 0 0 128 128 0 255
3.48193 1.49187 3.93259 0 0 0 128 128 0 255
3.49361 2.05575 3.93318 0 0 0 128 128 0 255
3.46585 0.838063 3.93377 0 0 0 128 128 0 255
3.46591 0.841062 3.93377 0 0 0 128 128 0 255
3.48102 1.5599 3.93437 0 0 0 128 128 0 255
3.4614 0.928183 3.93852 0 0 0 128 128 0 255
3.46305 1.03917 3.93911 0 0 0 128 128 0 255
3.45753 0.826244 3.9397 0 0 0 128 128 0 255
3.46229 1.04119 3.9397 0 0 0 128 128 0 255
3.45831 0.934253 3.94089 0 0 0 128 128 0 255
3.47373 1.7031 3.94207 0 0 0 128 128 0 255
3.44888 0.908456 3.94741 0 0 0 128 128 0 255
3.44615 0.930522 3.94978 0 0 0 128 128 0 255
3.46243 1.70235 3.95038 0 0 0 128 128 0 255
3.46156 1.69937 3.95097 0 0 0 128 128 0 255
3.44345 0.917578 3.95156 0 0 0 128 128 0 255
3.44054 1.00466 3.95512 0 0 0 128 128 0 255
3.43978 1.00668 3.95572 0 0 0 128 128 0 255
3.43739 1.00773 3.95749 0 0 0 128 128 0 255
3.4368 1.05376 3.95868 0 0 0 128 128 0 255
3.45862 2.03952 3.95868 0 0 0 128 128 0 255
3.42809 0.805891 3.96105 0 0 0 128 128 0 255
3.4257 0.806944 3.96283 0 0 0 128 128 0 255
3.42911 1.03392 3.96402 0 0 0 128 128 0 255
3.43823 1.44582 3.96402 0 0 0 128 128 0 255
3.44252 2.25793 3.9741 0 0 0 128 128 0 255
3.42216 1.41117 3.97529 0 0 0 128 128 0 255
3.42111 1.4362 3.97647 0 0 0 128 128 0 255
3.41077 1.04233 3.97766 0 0 0 128 128 0 255
3.40226 0.839471 3.98062 0 0 0 128 128 0 255
3.41143 1.32639 3.98181 0 0 0 128 128 0 255
3.4118 1.34338 3.98181 0 0 0 128 128 0 255
3.41249 1.37438 3.98181 0 0 0 128 128 0 255
3.40779 1.38048 3.98537 0 0 0 128 128 0 255
3.38891 0.927788 3.99189 0 0 0 128 128 0 255
3.39003 1.01478 3.99249 0 0 0 128 128 0 255
3.38723 0.924824 3.99308 0 0 0 128 128 0 255
3.38816 1.00282 3.99367 0 0 0 128 128 0 255
3.39098 1.27583 3.99604 0 0 0 128 128 0 255
3.37685 0.78302 3.99842 0 0 0 128 128 0 255
3.3858 1.25994 3.9996 0 0 0 128 128 0 255
3.38604 1.27094 3.9996 0 0 0 128 128 0 255
3.37647 0.984077 4.00198 0 0 0 128 128 0 255
3.38603 1.41597 4.00198 0 0 0 128 128 0 255
3.3767 1.03108 4.00257 0 0 0 128 128 0 255
3.37683 1.03708 4.00257 0 0 0 128 128 0 255
3.37009 0.805175 4.00375 0 0 0 128 128 0 255
3.37418 0.990129 4.00375 0 0 0 128 128 0 255
3.36835 0.799212 4.00494 0 0 0 128 128 0 255
3.36668 0.869266 4.00731 0 0 0 128 128 0 255
3.36392 0.781305 4.00791 0 0 0 128 128 0 255
3.37847 1.43814 4.00791 0 0 0 128 128 0 255
3.36431 0.83531 4.0085 0 0 0 128 128 0 255
3.36329 0.82533 4.00909 0 0 0 128 128 0 255
3.36974 1.44434 4.01443 0 0 0 128 128 0 255
3.35185 0.781573 4.0168 0 0 0 128 128 0 255
3.36723 1.4764 4.0168 0 0 0 128 128 0 255
3.35234 0.876585 4.01799 0 0 0 128 128 0 255
3.3459 0.80371 4.02155 0 0 0 128 128 0 255
3.34804 0.900686 4.02155 0 0 0 128 128 0 255
3.34408 0.903774 4.02451 0 0 0 128 128 0 255
3.34263 0.910808 4.0257 0 0 0 128 128 0 255
3.33867 0.913897 4.02866 0 0 0 128 128 0 255
3.32439 0.887206 4.03874 0 0 0 128 128 0 255
3.32023 0.808279 4.04052 0 0 0 128 128 0 255
3.31569 0.785374 4.04349 0 0 0 128 128 0 255
3.31187 0.758452 4.04586 0 0 0 128 128 0 255
3.30667 0.814581 4.05061 0 0 0 128 128 0 255
3.30478 0.76561 4.0512 0 0 0 128 128 0 255
3.30371 0.78964 4.05239 0 0 0 128 128 0 255
3.30225 0.796674 4.05357 0 0 0 128 128 0 255
3.3018 0.812688 4.05416 0 0 0 128 128 0 255
3.29152 0.784909 4.06128 0 0 0 128 128 0 255
3.29106 0.836932 4.06247 0 0 0 128 128 0 255
3.28928 0.79296 4.06306 0 0 0 128 128 0 255
3.28831 0.857998 4.06484 0 0 0 128 128 0 255
3.28046 0.758147 4.06899 0 0 0 128 128 0 255
3.27934 0.853195 4.07136 0 0 0 128 128 0 255
3.2685 0.763413 4.07789 0 0 0 128 128 0 255
3.26002 0.889632 4.08619 0 0 0 128 128 0 255
3.25349 0.849766 4.09034 0 0 0 128 128 0 255
3.21616 0.909607 4.11881 0 0 0 128 128 0 255
3.21466 0.914642 4.12 0 0 0 128 128 0 255
3.20105 0.881935 4.12948 0 0 0 128 128 0 255
3.20017 0.914963 4.13067 0 0 0 128 128 0 255
3.19298 0.881114 4.13542 0 0 0 128 128 0 255
3.19221 0.91914 4.1366 0 0 0 128 128 0 255
3.19255 0.934136 4.1366 0 0 0 128 128 0 255
3.19032 0.87017 4.13719 0 0 0 128 128 0 255
3.18703 0.903251 4.14016 0 0 0 128 128 0 255
3.18139 1.12143 4.14787 0 0 0 128 128 0 255
3.17173 1.01262 4.15321 0 0 0 128 128 0 255
3.17364 1.17161 4.15439 0 0 0 128 128 0 255
3.16996 1.15069 4.15677 0 0 0 128 128 0 255
3.16746 1.14674 4.15855 0 0 0 128 128 0 255
3.15348 1.24308 4.17041 0 0 0 128 128 0 255
3.13728 1.31145 4.18345 0 0 0 128 128 0 255
3.13565 1.27448 4.18405 0 0 0 128 128 0 255
3.12319 1.29376 4.19354 0 0 0 128 128 0 255
3.11799 1.27687 4.19709 0 0 0 128 128 0 255
3.10527 1.4662 4.20955 0 0 0 128 128 0 255
3.09165 1.57853 4.22141 0 0 0 128 128 0 255
3.07382 1.31886 4.23031 0 0 0 128 128 0 255
3.07586 1.59288 4.23327 0 0 0 128 128 0 255
3.07378 1.57192 4.23446 0 0 0 128 128 0 255
3.06847 1.44101 4.23624 0 0 0 128 128 0 255
3.07137 1.681 4.23802 0 0 0 128 128 0 255
3.07617 2.00698 4.2398 0 0 0 128 128 0 255
3.06137 1.5932 4.24395 0 0 0 128 128 0 255
3.06313 2.10929 4.25106 0 0 0 128 128 0 255
3.05892 2.13739 4.25462 0 0 0 128 128 0 255
3.05596 2.07644 4.25581 0 0 0 128 128 0 255
3.05223 2.08953 4.25877 0 0 0 128 128 0 255
3.03938 1.61869 4.26055 0 0 0 128 128 0 255
3.0458 2.01765 4.26233 0 0 0 128 128 0 255
3.03319 1.62983 4.2653 0 0 0 128 128 0 255
3.03737 2.03684 4.26886 0 0 0 128 128 0 255
2.99756 1.65763 4.29199 0 0 0 128 128 0 255
3.00512 2.14458 4.29436 0 0 0 128 128 0 255
2.99884 2.15172 4.2991 0 0 0 128 128 0 255
2.99576 2.12178 4.30088 0 0 0 128 128 0 255
2.9679 1.80932 4.3163 0 0 0 128 128 0 255
2.91113 1.82758 4.35841 0 0 0 128 128 0 255
