ply
format ascii 1.0
comment VCGLIB generated
element vertex 427
property float x
property float y
property float z
property float nx
property float ny
property float nz
property uchar red
property uchar green
property uchar blue
property uchar alpha
element face 0
property list uchar int vertex_indices
end_header
1.52431 -0.523339 5.96837 0 0 0 128 128 0 255
1.53366 -0.505469 5.97015 0 0 0 128 128 0 255
1.5612 -0.534497 5.97025 0 0 0 128 128 0 255
1.53509 -0.490708 5.97119 0 0 0 128 128 0 255
1.55984 -0.504749 5.97203 0 0 0 128 128 0 255
1.06687 0.0444614 5.97222 0 0 0 128 128 0 255
1.51991 -0.454569 5.97241 0 0 0 128 128 0 255
1.59925 -0.536532 5.97279 0 0 0 128 128 0 255
1.60548 -0.538985 5.97307 0 0 0 128 128 0 255
1.56475 -0.490881 5.97326 0 0 0 128 128 0 255
1.08899 0.0778987 5.97589 0 0 0 128 128 0 255
1.65122 -0.513876 5.97786 0 0 0 128 128 0 255
1.60788 -0.461393 5.97815 0 0 0 128 128 0 255
1.144 0.0615324 5.97871 0 0 0 128 128 0 255
1.61305 -0.456724 5.9788 0 0 0 128 128 0 255
1.54157 -0.373061 5.97909 0 0 0 128 128 0 255
1.52242 -0.345895 5.97946 0 0 0 128 128 0 255
1.57322 -0.390298 5.98022 0 0 0 128 128 0 255
1.69758 -0.519182 5.98078 0 0 0 128 128 0 255
1.73792 -0.560906 5.98097 0 0 0 128 128 0 255
1.73604 -0.55586 5.98116 0 0 0 128 128 0 255
1.67113 -0.48244 5.98125 0 0 0 128 128 0 255
1.73008 -0.547769 5.98125 0 0 0 128 128 0 255
1.73886 -0.556011 5.98134 0 0 0 128 128 0 255
1.67616 -0.48059 5.98172 0 0 0 128 128 0 255
1.65902 -0.45565 5.9821 0 0 0 128 128 0 255
1.52899 -0.298202 5.98294 0 0 0 128 128 0 255
1.68129 -0.462494 5.98322 0 0 0 128 128 0 255
1.6212 -0.391451 5.98351 0 0 0 128 128 0 255
1.68424 -0.459826 5.9836 0 0 0 128 128 0 255
1.62979 -0.389085 5.98426 0 0 0 128 128 0 255
1.70122 -0.459321 5.98482 0 0 0 128 128 0 255
1.54451 -0.284194 5.98492 0 0 0 128 128 0 255
1.55371 -0.28398 5.98557 0 0 0 128 128 0 255
1.78425 -0.537949 5.98567 0 0 0 128 128 0 255
1.58145 -0.30878 5.98595 0 0 0 128 128 0 255
1.55144 -0.272554 5.98614 0 0 0 128 128 0 255
1.74019 -0.471297 5.9868 0 0 0 128 128 0 255
1.80217 -0.532549 5.98727 0 0 0 128 128 0 255
1.83976 -0.572713 5.98736 0 0 0 128 128 0 255
1.74737 -0.468855 5.98746 0 0 0 128 128 0 255
1.56052 -0.260321 5.98755 0 0 0 128 128 0 255
1.59067 -0.293729 5.98755 0 0 0 128 128 0 255
1.61412 -0.319712 5.98755 0 0 0 128 128 0 255
1.61546 -0.321197 5.98755 0 0 0 128 128 0 255
1.56629 -0.257804 5.98811 0 0 0 128 128 0 255
1.62761 -0.318314 5.98858 0 0 0 128 128 0 255
1.63579 -0.324404 5.98877 0 0 0 128 128 0 255
1.63257 -0.317873 5.98896 0 0 0 128 128 0 255
1.63867 -0.323145 5.98905 0 0 0 128 128 0 255
1.70006 -0.382245 5.98962 0 0 0 128 128 0 255
1.58704 -0.252555 5.9899 0 0 0 128 128 0 255
1.61591 -0.283068 5.98999 0 0 0 128 128 0 255
1.07478 0.321003 5.99028 0 0 0 128 128 0 255
1.07492 0.323822 5.99046 0 0 0 128 128 0 255
1.68809 -0.352637 5.99065 0 0 0 128 128 0 255
1.84285 -0.524126 5.99065 0 0 0 128 128 0 255
1.31981 0.0599006 5.99093 0 0 0 128 128 0 255
1.32925 0.0509167 5.99103 0 0 0 128 128 0 255
1.31257 0.0708855 5.99112 0 0 0 128 128 0 255
1.31807 0.0677653 5.99131 0 0 0 128 128 0 255
1.79912 -0.465263 5.99131 0 0 0 128 128 0 255
1.6167 -0.252728 5.99197 0 0 0 128 128 0 255
1.72163 -0.360083 5.99253 0 0 0 128 128 0 255
1.88115 -0.53536 5.99263 0 0 0 128 128 0 255
1.72914 -0.36543 5.99272 0 0 0 128 128 0 255
1.63608 -0.26083 5.99282 0 0 0 128 128 0 255
1.64305 -0.262616 5.99319 0 0 0 128 128 0 255
1.90106 -0.547023 5.99329 0 0 0 128 128 0 255
1.32033 0.0994389 5.99347 0 0 0 128 128 0 255
1.72112 -0.341685 5.99366 0 0 0 128 128 0 255
1.84654 -0.477692 5.99385 0 0 0 128 128 0 255
1.68394 -0.293065 5.99413 0 0 0 128 128 0 255
1.90705 -0.540278 5.99413 0 0 0 128 128 0 255
1.74981 -0.36159 5.99441 0 0 0 128 128 0 255
1.68235 -0.282382 5.9947 0 0 0 128 128 0 255
1.33343 0.107217 5.99488 0 0 0 128 128 0 255
1.35775 0.0847194 5.99517 0 0 0 128 128 0 255
1.366 0.0800389 5.99545 0 0 0 128 128 0 255
1.92215 -0.534727 5.99554 0 0 0 128 128 0 255
1.70991 -0.296574 5.99573 0 0 0 128 128 0 255
1.96651 -0.580905 5.99573 0 0 0 128 128 0 255
1.90829 -0.514909 5.99582 0 0 0 128 128 0 255
1.97369 -0.578463 5.99639 0 0 0 128 128 0 255
1.96773 -0.570373 5.99648 0 0 0 128 128 0 255
1.7514 -0.329174 5.99658 0 0 0 128 128 0 255
1.69593 -0.264738 5.99676 0 0 0 128 128 0 255
1.90496 -0.496361 5.99676 0 0 0 128 128 0 255
1.9721 -0.56778 5.99695 0 0 0 128 128 0 255
1.9106 -0.496662 5.99714 0 0 0 128 128 0 255
1.88555 -0.459995 5.9977 0 0 0 128 128 0 255
1.71713 -0.264459 5.99827 0 0 0 128 128 0 255
1.8116 -0.369135 5.99827 0 0 0 128 128 0 255
1.88209 -0.444266 5.99846 0 0 0 128 128 0 255
1.88585 -0.439521 5.99902 0 0 0 128 128 0 255
1.08839 0.454519 5.99968 0 0 0 128 128 0 255
1.7961 -0.325206 5.99996 0 0 0 128 128 0 255
1.31378 0.210717 6.00006 0 0 0 128 128 0 255
1.74739 -0.266784 6.00024 0 0 0 128 128 0 255
1.84052 -0.369975 6.00024 0 0 0 128 128 0 255
1.25329 0.288139 6.00071 0 0 0 128 128 0 255
1.31655 0.223993 6.00109 0 0 0 128 128 0 255
1.32219 0.223691 6.00147 0 0 0 128 128 0 255
1.83539 -0.344972 6.00147 0 0 0 128 128 0 255
1.83673 -0.346456 6.00147 0 0 0 128 128 0 255
1.99766 -0.521809 6.00165 0 0 0 128 128 0 255
1.25567 0.307795 6.00212 0 0 0 128 128 0 255
1.32475 0.232739 6.00222 0 0 0 128 128 0 255
1.79313 -0.284775 6.00231 0 0 0 128 128 0 255
1.82631 -0.314104 6.00278 0 0 0 128 128 0 255
1.97705 -0.48114 6.00278 0 0 0 128 128 0 255
1.3722 0.192048 6.00297 0 0 0 128 128 0 255
2.04225 -0.548923 6.00306 0 0 0 128 128 0 255
1.81011 -0.28427 6.00353 0 0 0 128 128 0 255
1.80616 -0.278406 6.00363 0 0 0 128 128 0 255
2.02002 -0.512407 6.00382 0 0 0 128 128 0 255
1.84128 -0.311372 6.004 0 0 0 128 128 0 255
1.83157 -0.29319 6.00448 0 0 0 128 128 0 255
1.51943 0.0541688 6.00457 0 0 0 128 128 0 255
1.81362 -0.270327 6.00466 0 0 0 128 128 0 255
1.10372 0.522234 6.00504 0 0 0 128 128 0 255
2.0358 -0.507598 6.00523 0 0 0 128 128 0 255
2.02314 -0.492084 6.00532 0 0 0 128 128 0 255
2.05932 -0.532172 6.00532 0 0 0 128 128 0 255
1.91474 -0.368999 6.00551 0 0 0 128 128 0 255
1.40978 0.194984 6.00579 0 0 0 128 128 0 255
2.06248 -0.525276 6.00598 0 0 0 128 128 0 255
1.43277 0.173971 6.00607 0 0 0 128 128 0 255
1.83476 -0.271457 6.00607 0 0 0 128 128 0 255
1.87583 -0.312514 6.00636 0 0 0 128 128 0 255
2.12393 -0.582967 6.00664 0 0 0 128 128 0 255
2.03778 -0.481562 6.00701 0 0 0 128 128 0 255
1.40486 0.224215 6.0073 0 0 0 128 128 0 255
1.95029 -0.378673 6.00739 0 0 0 128 128 0 255
2.05187 -0.482316 6.00795 0 0 0 128 128 0 255
1.9398 -0.34773 6.00861 0 0 0 128 128 0 255
1.34841 0.312019 6.00889 0 0 0 128 128 0 255
1.9514 -0.356122 6.00889 0 0 0 128 128 0 255
1.97452 -0.374317 6.00936 0 0 0 128 128 0 255
1.95865 -0.352271 6.00965 0 0 0 128 128 0 255
1.948 -0.338984 6.00974 0 0 0 128 128 0 255
1.91866 -0.3035 6.00993 0 0 0 128 128 0 255
1.38383 0.299527 6.01059 0 0 0 128 128 0 255
1.08991 0.62966 6.01087 0 0 0 128 128 0 255
1.34592 0.34748 6.01096 0 0 0 128 128 0 255
2.19164 -0.585175 6.01125 0 0 0 128 128 0 255
1.92103 -0.283844 6.01134 0 0 0 128 128 0 255
1.08772 0.642495 6.01153 0 0 0 128 128 0 255
1.49107 0.210419 6.01247 0 0 0 128 128 0 255
2.03202 -0.383044 6.01284 0 0 0 128 128 0 255
1.32084 0.41241 6.01331 0 0 0 128 128 0 255
1.32754 0.404987 6.01331 0 0 0 128 128 0 255
2.04308 -0.387875 6.01331 0 0 0 128 128 0 255
2.23677 -0.601014 6.01341 0 0 0 128 128 0 255
2.0252 -0.363603 6.0136 0 0 0 128 128 0 255
1.08261 0.682335 6.01369 0 0 0 128 128 0 255
2.01321 -0.348831 6.01369 0 0 0 128 128 0 255
2.01998 -0.354845 6.01378 0 0 0 128 128 0 255
2.16148 -0.508668 6.01397 0 0 0 128 128 0 255
1.35799 0.392053 6.01463 0 0 0 128 128 0 255
2.16264 -0.499545 6.01463 0 0 0 128 128 0 255
2.16344 -0.497469 6.01482 0 0 0 128 128 0 255
1.36423 0.3896 6.01491 0 0 0 128 128 0 255
1.37569 0.378389 6.01501 0 0 0 128 128 0 255
1.50231 0.238079 6.01501 0 0 0 128 128 0 255
1.98939 -0.301631 6.01501 0 0 0 128 128 0 255
1.06757 0.721293 6.0151 0 0 0 128 128 0 255
2.02162 -0.335856 6.0151 0 0 0 128 128 0 255
1.53281 0.211719 6.01548 0 0 0 128 128 0 255
1.98853 -0.290281 6.01566 0 0 0 128 128 0 255
1.98726 -0.287386 6.01576 0 0 0 128 128 0 255
2.23476 -0.555687 6.01613 0 0 0 128 128 0 255
2.10489 -0.380583 6.01811 0 0 0 128 128 0 255
2.12569 -0.388761 6.01905 0 0 0 128 128 0 255
2.23027 -0.503163 6.01914 0 0 0 128 128 0 255
2.05286 -0.303613 6.01933 0 0 0 128 128 0 255
2.05293 -0.302204 6.01943 0 0 0 128 128 0 255
2.28683 -0.559885 6.01952 0 0 0 128 128 0 255
2.05187 -0.295082 6.0198 0 0 0 128 128 0 255
1.88666 -0.106076 6.02018 0 0 0 128 128 0 255
2.13169 -0.367179 6.02084 0 0 0 128 128 0 255
1.62225 0.206228 6.0214 0 0 0 128 128 0 255
2.16481 -0.383082 6.02215 0 0 0 128 128 0 255
1.65838 0.179567 6.02225 0 0 0 128 128 0 255
2.31302 -0.544329 6.02234 0 0 0 128 128 0 255
2.29514 -0.520057 6.02262 0 0 0 128 128 0 255
2.10292 -0.305584 6.02272 0 0 0 128 128 0 255
2.12464 -0.323703 6.02309 0 0 0 128 128 0 255
2.28081 -0.495268 6.02319 0 0 0 128 128 0 255
2.3452 -0.565127 6.02328 0 0 0 128 128 0 255
2.16652 -0.362683 6.02356 0 0 0 128 128 0 255
2.2161 -0.41762 6.02356 0 0 0 128 128 0 255
2.10784 -0.291716 6.02394 0 0 0 128 128 0 255
2.29342 -0.497356 6.02394 0 0 0 128 128 0 255
2.2109 -0.394026 6.02469 0 0 0 128 128 0 255
1.14704 0.786283 6.02479 0 0 0 128 128 0 255
2.0221 -0.181855 6.02488 0 0 0 128 128 0 255
2.31241 -0.499078 6.02516 0 0 0 128 128 0 255
2.36797 -0.547268 6.02601 0 0 0 128 128 0 255
2.14293 -0.296419 6.0261 0 0 0 128 128 0 255
2.38814 -0.56813 6.0261 0 0 0 128 128 0 255
2.13041 -0.278086 6.02638 0 0 0 128 128 0 255
2.23365 -0.391003 6.02648 0 0 0 128 128 0 255
1.29187 0.657011 6.02676 0 0 0 128 128 0 255
1.75041 0.154861 6.02714 0 0 0 128 128 0 255
2.16199 -0.296732 6.02742 0 0 0 128 128 0 255
1.78091 0.128501 6.02761 0 0 0 128 128 0 255
2.36554 -0.510398 6.02817 0 0 0 128 128 0 255
1.29498 0.677334 6.02826 0 0 0 128 128 0 255
1.69986 0.233165 6.02855 0 0 0 128 128 0 255
2.3953 -0.537425 6.02855 0 0 0 128 128 0 255
1.19624 0.795663 6.02883 0 0 0 128 128 0 255
2.03311 -0.13016 6.02892 0 0 0 128 128 0 255
2.42646 -0.564528 6.02902 0 0 0 128 128 0 255
1.30505 0.681035 6.0292 0 0 0 128 128 0 255
2.43827 -0.568692 6.02958 0 0 0 128 128 0 255
2.40913 -0.52898 6.03005 0 0 0 128 128 0 255
2.30803 -0.415471 6.03015 0 0 0 128 128 0 255
2.29022 -0.38979 6.03052 0 0 0 128 128 0 255
2.28461 -0.374652 6.03109 0 0 0 128 128 0 255
1.31194 0.706102 6.03127 0 0 0 128 128 0 255
2.41137 -0.512143 6.03127 0 0 0 128 128 0 255
2.30357 -0.39121 6.03137 0 0 0 128 128 0 255
2.22747 -0.300942 6.03174 0 0 0 128 128 0 255
1.88673 0.0825675 6.03212 0 0 0 128 128 0 255
2.32852 -0.401023 6.0325 0 0 0 128 128 0 255
1.16685 0.887673 6.03259 0 0 0 128 128 0 255
2.29382 -0.359601 6.03268 0 0 0 128 128 0 255
2.24251 -0.2968 6.03306 0 0 0 128 128 0 255
2.31246 -0.36837 6.03344 0 0 0 128 128 0 255
1.87774 0.12968 6.03447 0 0 0 128 128 0 255
2.37139 -0.405436 6.03522 0 0 0 128 128 0 255
1.42954 0.641169 6.03541 0 0 0 128 128 0 255
2.29543 -0.312349 6.03579 0 0 0 128 128 0 255
2.17966 -0.181098 6.03597 0 0 0 128 128 0 255
2.37798 -0.400843 6.03597 0 0 0 128 128 0 255
1.82224 0.22238 6.03645 0 0 0 128 128 0 255
1.85193 0.193943 6.03673 0 0 0 128 128 0 255
1.2239 0.898752 6.03729 0 0 0 128 128 0 255
1.8973 0.15407 6.03739 0 0 0 128 128 0 255
2.33782 -0.326627 6.03786 0 0 0 128 128 0 255
2.38486 -0.375775 6.03804 0 0 0 128 128 0 255
1.88445 0.180192 6.03814 0 0 0 128 128 0 255
2.04947 0.00179493 6.03842 0 0 0 128 128 0 255
1.94791 0.120274 6.0388 0 0 0 128 128 0 255
2.19601 -0.150178 6.03908 0 0 0 128 128 0 255
1.82625 0.261025 6.03917 0 0 0 128 128 0 255
2.43254 -0.397402 6.04002 0 0 0 128 128 0 255
2.43998 -0.404159 6.04011 0 0 0 128 128 0 255
2.05213 0.0270886 6.04021 0 0 0 128 128 0 255
2.41292 -0.365265 6.04068 0 0 0 128 128 0 255
1.6862 0.444446 6.04096 0 0 0 128 128 0 255
2.43632 -0.377821 6.04152 0 0 0 128 128 0 255
1.89043 0.230037 6.04171 0 0 0 128 128 0 255
2.05781 0.0564597 6.04246 0 0 0 128 128 0 255
2.41652 -0.335076 6.04284 0 0 0 128 128 0 255
1.97581 0.156229 6.04303 0 0 0 128 128 0 255
1.83995 0.309751 6.04322 0 0 0 128 128 0 255
2.39155 -0.297 6.0435 0 0 0 128 128 0 255
2.42371 -0.332634 6.0435 0 0 0 128 128 0 255
2.01784 0.120067 6.04369 0 0 0 128 128 0 255
2.0307 0.108781 6.04387 0 0 0 128 128 0 255
1.85625 0.310998 6.04444 0 0 0 128 128 0 255
2.37623 -0.263679 6.04453 0 0 0 128 128 0 255
2.37757 -0.265164 6.04453 0 0 0 128 128 0 255
1.74954 0.439645 6.0451 0 0 0 128 128 0 255
1.73896 0.454341 6.04528 0 0 0 128 128 0 255
1.97761 0.192873 6.04547 0 0 0 128 128 0 255
1.89347 0.29205 6.04585 0 0 0 128 128 0 255
1.30564 0.952316 6.04641 0 0 0 128 128 0 255
2.05803 0.118624 6.04641 0 0 0 128 128 0 255
1.97805 0.216166 6.04698 0 0 0 128 128 0 255
1.31437 0.957502 6.04735 0 0 0 128 128 0 255
1.80695 0.414671 6.04754 0 0 0 128 128 0 255
1.94302 0.265377 6.04763 0 0 0 128 128 0 255
1.30534 0.974942 6.04782 0 0 0 128 128 0 255
2.07387 0.124841 6.04792 0 0 0 128 128 0 255
1.30897 0.976868 6.0482 0 0 0 128 128 0 255
1.9618 0.259427 6.04857 0 0 0 128 128 0 255
1.32204 0.969809 6.04867 0 0 0 128 128 0 255
1.3335 0.958598 6.04876 0 0 0 128 128 0 255
2.09929 0.110058 6.04876 0 0 0 128 128 0 255
1.62917 0.635437 6.04905 0 0 0 128 128 0 255
1.9789 0.247915 6.04905 0 0 0 128 128 0 255
1.99444 0.233659 6.04923 0 0 0 128 128 0 255
1.92028 0.320291 6.04952 0 0 0 128 128 0 255
1.65063 0.626517 6.04999 0 0 0 128 128 0 255
2.07071 0.161045 6.04999 0 0 0 128 128 0 255
1.65291 0.629927 6.05036 0 0 0 128 128 0 255
1.62237 0.669714 6.05074 0 0 0 128 128 0 255
1.97995 0.283892 6.0514 0 0 0 128 128 0 255
2.10672 0.146401 6.05158 0 0 0 128 128 0 255
1.85488 0.426945 6.05168 0 0 0 128 128 0 255
2.00964 0.255455 6.05168 0 0 0 128 128 0 255
1.68022 0.624934 6.05196 0 0 0 128 128 0 255
1.87708 0.418692 6.05271 0 0 0 128 128 0 255
1.40153 0.948601 6.0529 0 0 0 128 128 0 255
1.9885 0.299685 6.05299 0 0 0 128 128 0 255
2.03729 0.257509 6.05375 0 0 0 128 128 0 255
1.898 0.413333 6.05384 0 0 0 128 128 0 255
1.97346 0.338643 6.05441 0 0 0 128 128 0 255
2.07208 0.232332 6.05459 0 0 0 128 128 0 255
1.7008 0.655628 6.05535 0 0 0 128 128 0 255
1.99413 0.342483 6.0561 0 0 0 128 128 0 255
2.07205 0.260595 6.05638 0 0 0 128 128 0 255
2.0487 0.302824 6.05741 0 0 0 128 128 0 255
2.20829 0.128957 6.0576 0 0 0 128 128 0 255
2.11872 0.232664 6.05788 0 0 0 128 128 0 255
1.84169 0.547056 6.05835 0 0 0 128 128 0 255
2.11574 0.258259 6.05929 0 0 0 128 128 0 255
2.18079 0.187657 6.05939 0 0 0 128 128 0 255
2.04735 0.347408 6.06014 0 0 0 128 128 0 255
1.50146 0.955267 6.06033 0 0 0 128 128 0 255
2.20024 0.180965 6.06033 0 0 0 128 128 0 255
2.13285 0.261583 6.06071 0 0 0 128 128 0 255
1.83922 0.597353 6.06136 0 0 0 128 128 0 255
1.82789 0.611383 6.06146 0 0 0 128 128 0 255
2.12001 0.287705 6.06146 0 0 0 128 128 0 255
1.84351 0.598536 6.06174 0 0 0 128 128 0 255
2.2656 0.130837 6.06174 0 0 0 128 128 0 255
2.19405 0.21309 6.06193 0 0 0 128 128 0 255
2.27646 0.121778 6.06193 0 0 0 128 128 0 255
2.07218 0.349613 6.06202 0 0 0 128 128 0 255
2.11446 0.304252 6.06212 0 0 0 128 128 0 255
2.28262 0.117915 6.06212 0 0 0 128 128 0 255
2.20012 0.236082 6.06381 0 0 0 128 128 0 255
1.82768 0.650254 6.0639 0 0 0 128 128 0 255
1.8143 0.679938 6.06484 0 0 0 128 128 0 255
2.20846 0.247647 6.06512 0 0 0 128 128 0 255
1.57902 0.952531 6.06559 0 0 0 128 128 0 255
1.83183 0.691718 6.06682 0 0 0 128 128 0 255
1.60157 0.951325 6.0671 0 0 0 128 128 0 255
1.77498 0.771066 6.06785 0 0 0 128 128 0 255
1.80854 0.735357 6.06795 0 0 0 128 128 0 255
1.83153 0.714344 6.06823 0 0 0 128 128 0 255
1.99099 0.537657 6.06823 0 0 0 128 128 0 255
1.98382 0.550052 6.06851 0 0 0 128 128 0 255
1.79452 0.780619 6.06983 0 0 0 128 128 0 255
1.81938 0.75456 6.06992 0 0 0 128 128 0 255
1.63319 0.962351 6.07001 0 0 0 128 128 0 255
2.00378 0.568061 6.07105 0 0 0 128 128 0 255
2.1621 0.397088 6.07133 0 0 0 128 128 0 255
2.21792 0.339698 6.07161 0 0 0 128 128 0 255
2.23943 0.317351 6.07171 0 0 0 128 128 0 255
2.41898 0.118394 6.07171 0 0 0 128 128 0 255
2.22951 0.331306 6.07189 0 0 0 128 128 0 255
1.83101 0.775841 6.07208 0 0 0 128 128 0 255
1.84892 0.766405 6.07274 0 0 0 128 128 0 255
2.06063 0.531813 6.07274 0 0 0 128 128 0 255
2.10305 0.489271 6.07302 0 0 0 128 128 0 255
2.32971 0.242574 6.07331 0 0 0 128 128 0 255
2.44342 0.126978 6.07396 0 0 0 128 128 0 255
2.06026 0.553029 6.07406 0 0 0 128 128 0 255
2.06844 0.546939 6.07425 0 0 0 128 128 0 255
1.69406 0.964748 6.07443 0 0 0 128 128 0 255
2.59472 -0.0287823 6.07472 0 0 0 128 128 0 255
2.6049 -0.0370992 6.0749 0 0 0 128 128 0 255
1.73273 0.932298 6.07509 0 0 0 128 128 0 255
2.61571 -0.0327317 6.07594 0 0 0 128 128 0 255
1.94312 0.714027 6.07603 0 0 0 128 128 0 255
1.95063 0.70868 6.07622 0 0 0 128 128 0 255
1.87298 0.796205 6.07631 0 0 0 128 128 0 255
1.95299 0.7135 6.07669 0 0 0 128 128 0 255
1.73873 0.95388 6.07688 0 0 0 128 128 0 255
2.07058 0.59063 6.07716 0 0 0 128 128 0 255
1.89264 0.793741 6.07754 0 0 0 128 128 0 255
2.61689 -0.00877196 6.07754 0 0 0 128 128 0 255
1.761 0.947037 6.07801 0 0 0 128 128 0 255
2.09312 0.589424 6.07866 0 0 0 128 128 0 255
1.8977 0.810427 6.07895 0 0 0 128 128 0 255
1.78193 0.941678 6.07913 0 0 0 128 128 0 255
2.49225 0.157574 6.07932 0 0 0 128 128 0 255
1.7816 0.949467 6.07961 0 0 0 128 128 0 255
1.77176 0.964831 6.07989 0 0 0 128 128 0 255
2.10643 0.60143 6.08036 0 0 0 128 128 0 255
1.91153 0.818872 6.08045 0 0 0 128 128 0 255
2.04627 0.671063 6.08055 0 0 0 128 128 0 255
2.49522 0.175078 6.08064 0 0 0 128 128 0 255
1.77439 0.975288 6.08073 0 0 0 128 128 0 255
1.82848 0.925764 6.08139 0 0 0 128 128 0 255
2.24529 0.480249 6.08243 0 0 0 128 128 0 255
2.45969 0.242687 6.08243 0 0 0 128 128 0 255
2.61935 0.0702292 6.08271 0 0 0 128 128 0 255
2.53038 0.171785 6.0829 0 0 0 128 128 0 255
1.82429 0.955662 6.08299 0 0 0 128 128 0 255
2.61729 0.0858833 6.08355 0 0 0 128 128 0 255
2.61616 0.0915962 6.08384 0 0 0 128 128 0 255
2.59144 0.120474 6.08393 0 0 0 128 128 0 255
1.94847 0.837387 6.08421 0 0 0 128 128 0 255
2.12407 0.644292 6.08431 0 0 0 128 128 0 255
2.60719 0.110446 6.0844 0 0 0 128 128 0 255
2.11806 0.66581 6.08525 0 0 0 128 128 0 255
2.17099 0.607162 6.08525 0 0 0 128 128 0 255
2.08893 0.705522 6.08572 0 0 0 128 128 0 255
1.97942 0.849155 6.08713 0 0 0 128 128 0 255
1.91873 0.922349 6.0875 0 0 0 128 128 0 255
1.91387 0.952991 6.0891 0 0 0 128 128 0 255
1.95947 0.932181 6.09098 0 0 0 128 128 0 255
1.96356 0.929136 6.09108 0 0 0 128 128 0 255
1.96035 0.935667 6.09126 0 0 0 128 128 0 255
2.60353 0.222982 6.09126 0 0 0 128 128 0 255
1.97315 0.922971 6.09136 0 0 0 128 128 0 255
2.61647 0.213105 6.09155 0 0 0 128 128 0 255
1.96788 0.945156 6.09239 0 0 0 128 128 0 255
2.62591 0.247221 6.09437 0 0 0 128 128 0 255
2.63545 0.254483 6.0955 0 0 0 128 128 0 255
2.06211 0.907615 6.09662 0 0 0 128 128 0 255
2.46189 0.561221 6.10274 0 0 0 128 128 0 255
2.45459 0.570797 6.10283 0 0 0 128 128 0 255
2.12167 0.941169 6.10292 0 0 0 128 128 0 255
2.61552 0.395444 6.10302 0 0 0 128 128 0 255
2.44414 0.588312 6.10321 0 0 0 128 128 0 255
2.16152 0.932679 6.10518 0 0 0 128 128 0 255
2.63862 0.405513 6.10528 0 0 0 128 128 0 255
2.64453 0.41085 6.10603 0 0 0 128 128 0 255
2.18185 0.929472 6.1064 0 0 0 128 128 0 255
2.22972 0.897237 6.10772 0 0 0 128 128 0 255
2.2412 0.900862 6.10875 0 0 0 128 128 0 255
2.22648 0.93203 6.10969 0 0 0 128 128 0 255
2.45437 0.796902 6.11712 0 0 0 128 128 0 255
2.62417 0.629554 6.11844 0 0 0 128 128 0 255
2.46982 0.8095 6.119 0 0 0 128 128 0 255
2.64775 0.649489 6.12135 0 0 0 128 128 0 255
2.58823 0.789742 6.12606 0 0 0 128 128 0 255
2.4952 0.909179 6.12709 0 0 0 128 128 0 255
2.51529 0.886907 6.12709 0 0 0 128 128 0 255
2.52127 0.936752 6.13066 0 0 0 128 128 0 255
