ply
format ascii 1.0
comment VCGLIB generated
element vertex 276
property float x
property float y
property float z
property float nx
property float ny
property float nz
property uchar red
property uchar green
property uchar blue
property uchar alpha
element face 0
property list uchar int vertex_indices
end_header
3.17119 0.656769 3.95919 0 0 0 128 0 128 255
3.16343 0.637233 3.95958 0 0 0 128 0 128 255
3.16157 0.634701 3.95997 0 0 0 128 0 128 255
3.16013 0.683898 3.96736 0 0 0 128 0 128 255
3.16322 0.712464 3.97008 0 0 0 128 0 128 255
3.15645 0.695762 3.97047 0 0 0 128 0 128 255
3.15268 0.721418 3.97553 0 0 0 128 0 128 255
3.1598 0.747528 3.9763 0 0 0 128 0 128 255
3.14156 0.843841 3.99692 0 0 0 128 0 128 255
3.01771 0.782052 4.03777 0 0 0 128 0 128 255
2.98254 0.776268 4.051 0 0 0 128 0 128 255
2.98516 0.783825 4.051 0 0 0 128 0 128 255
2.98693 0.800148 4.05255 0 0 0 128 0 128 255
2.99328 0.821233 4.05294 0 0 0 128 0 128 255
2.98664 0.824596 4.05605 0 0 0 128 0 128 255
2.96682 0.812427 4.06228 0 0 0 128 0 128 255
2.96137 0.807968 4.06383 0 0 0 128 0 128 255
2.99474 0.918115 4.06578 0 0 0 128 0 128 255
2.99443 0.925634 4.06695 0 0 0 128 0 128 255
3.07721 1.16682 4.06734 0 0 0 128 0 128 255
3.09999 1.25207 4.07006 0 0 0 128 0 128 255
3.11399 1.29802 4.07084 0 0 0 128 0 128 255
3.11498 1.30085 4.07084 0 0 0 128 0 128 255
2.9191 0.784537 4.07745 0 0 0 128 0 128 255
2.97334 0.943543 4.07784 0 0 0 128 0 128 255
2.92141 0.799614 4.07862 0 0 0 128 0 128 255
2.9621 0.925216 4.07978 0 0 0 128 0 128 255
2.91248 0.796364 4.08173 0 0 0 128 0 128 255
2.96357 0.957522 4.08367 0 0 0 128 0 128 255
3.05799 1.2603 4.08795 0 0 0 128 0 128 255
2.94889 0.965796 4.09068 0 0 0 128 0 128 255
2.94914 0.988996 4.09379 0 0 0 128 0 128 255
2.9369 0.959371 4.09457 0 0 0 128 0 128 255
2.87175 0.782984 4.09612 0 0 0 128 0 128 255
2.85229 0.732577 4.0969 0 0 0 128 0 128 255
2.86611 0.797644 4.1004 0 0 0 128 0 128 255
2.93599 0.998857 4.1004 0 0 0 128 0 128 255
2.89521 0.887047 4.10118 0 0 0 128 0 128 255
2.89664 0.893962 4.10157 0 0 0 128 0 128 255
2.85665 0.804105 4.10507 0 0 0 128 0 128 255
2.88866 0.941193 4.1113 0 0 0 128 0 128 255
3.00905 1.28788 4.1113 0 0 0 128 0 128 255
2.88703 0.944933 4.11246 0 0 0 128 0 128 255
2.88529 0.945538 4.11324 0 0 0 128 0 128 255
3.01152 1.33149 4.11635 0 0 0 128 0 128 255
2.79644 0.72339 4.11791 0 0 0 128 0 128 255
2.8486 0.873591 4.11791 0 0 0 128 0 128 255
2.81591 0.782261 4.1183 0 0 0 128 0 128 255
2.80717 0.759892 4.11869 0 0 0 128 0 128 255
2.81078 0.770283 4.11869 0 0 0 128 0 128 255
2.84327 0.872268 4.11985 0 0 0 128 0 128 255
2.83946 0.872532 4.12141 0 0 0 128 0 128 255
2.9546 1.20411 4.12141 0 0 0 128 0 128 255
2.98919 1.32336 4.12413 0 0 0 128 0 128 255
3.00428 1.36682 4.12413 0 0 0 128 0 128 255
2.82291 0.86981 4.12763 0 0 0 128 0 128 255
2.84446 0.937486 4.12841 0 0 0 128 0 128 255
2.83412 0.935785 4.1323 0 0 0 128 0 128 255
2.9491 1.30341 4.13736 0 0 0 128 0 128 255
2.91018 1.19413 4.13775 0 0 0 128 0 128 255
2.80138 0.883638 4.13814 0 0 0 128 0 128 255
2.74684 0.740616 4.14008 0 0 0 128 0 128 255
2.96543 1.3729 4.14047 0 0 0 128 0 128 255
2.88706 1.16405 4.14281 0 0 0 128 0 128 255
2.93211 1.2966 4.1432 0 0 0 128 0 128 255
2.73671 0.736723 4.14358 0 0 0 128 0 128 255
2.9049 1.22666 4.14436 0 0 0 128 0 128 255
2.73253 0.775226 4.15059 0 0 0 128 0 128 255
2.78524 0.932644 4.15136 0 0 0 128 0 128 255
2.76985 0.905173 4.1537 0 0 0 128 0 128 255
2.77751 0.930036 4.15409 0 0 0 128 0 128 255
2.76047 0.889378 4.15526 0 0 0 128 0 128 255
2.77349 0.932492 4.15603 0 0 0 128 0 128 255
2.68713 0.697838 4.15798 0 0 0 128 0 128 255
2.68484 0.699689 4.15915 0 0 0 128 0 128 255
2.74569 0.902979 4.16304 0 0 0 128 0 128 255
2.71961 0.864398 4.16809 0 0 0 128 0 128 255
2.70807 0.862055 4.17237 0 0 0 128 0 128 255
2.6996 0.871349 4.17704 0 0 0 128 0 128 255
2.71272 0.909136 4.17704 0 0 0 128 0 128 255
2.82253 1.23939 4.17899 0 0 0 128 0 128 255
2.81644 1.2415 4.18171 0 0 0 128 0 128 255
2.62639 0.699873 4.18249 0 0 0 128 0 128 255
2.63689 0.730102 4.18249 0 0 0 128 0 128 255
2.81192 1.27906 4.18871 0 0 0 128 0 128 255
2.83493 1.37058 4.19221 0 0 0 128 0 128 255
2.61549 0.75553 4.19455 0 0 0 128 0 128 255
2.6658 0.903199 4.19494 0 0 0 128 0 128 255
2.66591 0.906335 4.19532 0 0 0 128 0 128 255
3.04602 2.00653 4.1961 0 0 0 128 0 128 255
2.64821 0.863788 4.19649 0 0 0 128 0 128 255
2.78307 1.26897 4.19883 0 0 0 128 0 128 255
2.61095 0.77616 4.19921 0 0 0 128 0 128 255
2.78495 1.28843 4.20077 0 0 0 128 0 128 255
2.62313 0.836504 4.20272 0 0 0 128 0 128 255
3.05294 2.11633 4.20855 0 0 0 128 0 128 255
3.03307 2.07877 4.21127 0 0 0 128 0 128 255
2.55161 0.695144 4.21166 0 0 0 128 0 128 255
2.62095 0.897603 4.21205 0 0 0 128 0 128 255
3.0519 2.14422 4.21283 0 0 0 128 0 128 255
3.03245 2.09381 4.21361 0 0 0 128 0 128 255
2.76487 1.3261 4.214 0 0 0 128 0 128 255
2.55439 0.731229 4.21555 0 0 0 128 0 128 255
2.76262 1.34488 4.2175 0 0 0 128 0 128 255
2.7529 1.32814 4.21905 0 0 0 128 0 128 255
2.74678 1.31333 4.21944 0 0 0 128 0 128 255
2.51956 0.661814 4.21983 0 0 0 128 0 128 255
2.73947 1.29787 4.22022 0 0 0 128 0 128 255
2.71171 1.22918 4.22178 0 0 0 128 0 128 255
2.90932 1.80946 4.22333 0 0 0 128 0 128 255
2.56239 0.830076 4.22606 0 0 0 128 0 128 255
2.67622 1.15787 4.22606 0 0 0 128 0 128 255
2.56176 0.845114 4.22839 0 0 0 128 0 128 255
2.51683 0.72416 4.22956 0 0 0 128 0 128 255
2.69236 1.24648 4.23189 0 0 0 128 0 128 255
2.55634 0.857583 4.23228 0 0 0 128 0 128 255
2.55712 0.871072 4.23384 0 0 0 128 0 128 255
2.90377 1.87491 4.23462 0 0 0 128 0 128 255
2.55856 0.886451 4.23539 0 0 0 128 0 128 255
2.4864 0.68709 4.23656 0 0 0 128 0 128 255
2.68356 1.25483 4.23656 0 0 0 128 0 128 255
2.49954 0.73334 4.23773 0 0 0 128 0 128 255
2.90479 1.90313 4.23812 0 0 0 128 0 128 255
2.89683 1.89425 4.24006 0 0 0 128 0 128 255
2.98016 2.1342 4.24006 0 0 0 128 0 128 255
2.98258 2.15241 4.24162 0 0 0 128 0 128 255
2.8736 1.86104 4.24473 0 0 0 128 0 128 255
2.46694 0.701257 4.24629 0 0 0 128 0 128 255
2.97028 2.1535 4.24668 0 0 0 128 0 128 255
2.69233 1.3587 4.24745 0 0 0 128 0 128 255
2.95499 2.1207 4.24823 0 0 0 128 0 128 255
2.46785 0.726347 4.2494 0 0 0 128 0 128 255
2.45027 0.686935 4.25095 0 0 0 128 0 128 255
2.50079 0.832413 4.25095 0 0 0 128 0 128 255
2.48682 0.811857 4.25368 0 0 0 128 0 128 255
2.4451 0.722604 4.25796 0 0 0 128 0 128 255
2.48032 0.826819 4.25835 0 0 0 128 0 128 255
2.4192 0.65644 4.25912 0 0 0 128 0 128 255
2.49237 0.875563 4.26029 0 0 0 128 0 128 255
2.48235 0.874807 4.26418 0 0 0 128 0 128 255
2.47187 0.853042 4.26535 0 0 0 128 0 128 255
2.40104 0.665923 4.26768 0 0 0 128 0 128 255
2.41657 0.713458 4.26807 0 0 0 128 0 128 255
2.386 0.656324 4.27235 0 0 0 128 0 128 255
2.41895 0.770854 4.27507 0 0 0 128 0 128 255
2.4122 0.77108 4.2778 0 0 0 128 0 128 255
2.59003 1.30001 4.28013 0 0 0 128 0 128 255
2.36184 0.65413 4.28169 0 0 0 128 0 128 255
2.37081 0.682772 4.28208 0 0 0 128 0 128 255
2.35616 0.643399 4.28247 0 0 0 128 0 128 255
2.35681 0.645288 4.28247 0 0 0 128 0 128 255
2.57882 1.29861 4.28441 0 0 0 128 0 128 255
2.40793 0.823375 4.28675 0 0 0 128 0 128 255
2.40248 0.818915 4.2883 0 0 0 128 0 128 255
2.41496 0.863276 4.28947 0 0 0 128 0 128 255
2.35297 0.693199 4.29064 0 0 0 128 0 128 255
2.3533 0.694144 4.29064 0 0 0 128 0 128 255
2.36296 0.741603 4.29336 0 0 0 128 0 128 255
2.39587 0.839206 4.29375 0 0 0 128 0 128 255
2.37809 0.810449 4.29686 0 0 0 128 0 128 255
2.72465 1.82808 4.29958 0 0 0 128 0 128 255
2.62438 1.54215 4.29997 0 0 0 128 0 128 255
2.38144 0.862216 4.30269 0 0 0 128 0 128 255
2.70472 1.82123 4.30659 0 0 0 128 0 128 255
2.34048 0.777989 4.30736 0 0 0 128 0 128 255
2.35265 0.829869 4.3097 0 0 0 128 0 128 255
2.3543 0.843056 4.31086 0 0 0 128 0 128 255
2.33672 0.803645 4.31242 0 0 0 128 0 128 255
2.48937 1.24605 4.31281 0 0 0 128 0 128 255
2.33028 0.796351 4.31398 0 0 0 128 0 128 255
2.33291 0.803909 4.31398 0 0 0 128 0 128 255
2.58191 1.52937 4.31514 0 0 0 128 0 128 255
2.33954 0.865121 4.31981 0 0 0 128 0 128 255
2.67209 1.8368 4.32176 0 0 0 128 0 128 255
2.48358 1.29676 4.32215 0 0 0 128 0 128 255
2.65466 1.82592 4.3272 0 0 0 128 0 128 255
2.50206 1.41737 4.33148 0 0 0 128 0 128 255
2.49233 1.39216 4.33187 0 0 0 128 0 128 255
2.6392 1.8207 4.33265 0 0 0 128 0 128 255
2.48404 1.38234 4.33382 0 0 0 128 0 128 255
2.4721 1.40131 4.34121 0 0 0 128 0 128 255
2.52174 1.61166 4.35054 0 0 0 128 0 128 255
2.52383 1.62047 4.35093 0 0 0 128 0 128 255
2.52006 1.64612 4.35599 0 0 0 128 0 128 255
2.45918 1.49048 4.35871 0 0 0 128 0 128 255
2.46131 1.52467 4.3626 0 0 0 128 0 128 255
2.5069 1.72056 4.37155 0 0 0 128 0 128 255
2.51643 1.75642 4.37272 0 0 0 128 0 128 255
2.40031 1.43047 4.37389 0 0 0 128 0 128 255
2.44657 1.56367 4.37389 0 0 0 128 0 128 255
2.44504 1.56208 4.37428 0 0 0 128 0 128 255
2.5119 1.78551 4.37855 0 0 0 128 0 128 255
2.47868 1.70389 4.3805 0 0 0 128 0 128 255
2.5126 1.81279 4.38206 0 0 0 128 0 128 255
2.37807 1.47313 4.38867 0 0 0 128 0 128 255
2.43657 1.64441 4.38906 0 0 0 128 0 128 255
2.47856 1.76533 4.38906 0 0 0 128 0 128 255
2.44555 1.67306 4.38945 0 0 0 128 0 128 255
2.27125 1.17677 4.39022 0 0 0 128 0 128 255
2.3736 1.4715 4.39022 0 0 0 128 0 128 255
2.43563 1.66697 4.39256 0 0 0 128 0 128 255
2.40372 1.58913 4.3945 0 0 0 128 0 128 255
2.42866 1.66093 4.3945 0 0 0 128 0 128 255
2.39151 1.57643 4.39762 0 0 0 128 0 128 255
2.25815 1.22049 4.40151 0 0 0 128 0 128 255
2.46397 1.82439 4.40306 0 0 0 128 0 128 255
2.2369 1.2014 4.40734 0 0 0 128 0 128 255
2.35293 1.54114 4.40812 0 0 0 128 0 128 255
2.42701 1.78535 4.4124 0 0 0 128 0 128 255
2.41609 1.76797 4.41434 0 0 0 128 0 128 255
2.32561 1.5411 4.41901 0 0 0 128 0 128 255
2.41388 1.81214 4.42135 0 0 0 128 0 128 255
2.3782 1.75996 4.42835 0 0 0 128 0 128 255
2.36776 1.76358 4.43302 0 0 0 128 0 128 255
2.35622 1.76124 4.4373 0 0 0 128 0 128 255
2.17443 1.27708 4.44274 0 0 0 128 0 128 255
2.16113 1.25841 4.44547 0 0 0 128 0 128 255
2.12236 1.17766 4.44975 0 0 0 128 0 128 255
2.14383 1.26759 4.45364 0 0 0 128 0 128 255
2.3069 1.75402 4.45597 0 0 0 128 0 128 255
2.08726 1.2142 4.46881 0 0 0 128 0 128 255
2.25366 1.74392 4.47581 0 0 0 128 0 128 255
2.24298 1.73282 4.47853 0 0 0 128 0 128 255
2.23298 1.74052 4.48359 0 0 0 128 0 128 255
2.04616 1.23906 4.48865 0 0 0 128 0 128 255
2.20345 1.72008 4.49254 0 0 0 128 0 128 255
2.10721 1.50473 4.5011 0 0 0 128 0 128 255
2.07902 1.50499 4.51238 0 0 0 128 0 128 255
2.08876 1.53866 4.51316 0 0 0 128 0 128 255
1.95864 1.16677 4.51355 0 0 0 128 0 128 255
2.08266 1.53231 4.51471 0 0 0 128 0 128 255
2.07588 1.51561 4.5151 0 0 0 128 0 128 255
2.07042 1.50269 4.51549 0 0 0 128 0 128 255
2.06692 1.49543 4.51588 0 0 0 128 0 128 255
1.95387 1.18112 4.51744 0 0 0 128 0 128 255
1.94017 1.18377 4.52327 0 0 0 128 0 128 255
2.05895 1.54266 4.52561 0 0 0 128 0 128 255
1.93583 1.19374 4.52638 0 0 0 128 0 128 255
1.92086 1.16189 4.52794 0 0 0 128 0 128 255
1.93279 1.19903 4.52833 0 0 0 128 0 128 255
1.90017 1.15002 4.53455 0 0 0 128 0 128 255
1.94666 1.29796 4.5365 0 0 0 128 0 128 255
1.89519 1.16657 4.53883 0 0 0 128 0 128 255
1.89464 1.16782 4.53922 0 0 0 128 0 128 255
1.95329 1.35917 4.54233 0 0 0 128 0 128 255
2.07063 1.70269 4.54311 0 0 0 128 0 128 255
1.93198 1.30623 4.5435 0 0 0 128 0 128 255
1.90409 1.29051 4.55245 0 0 0 128 0 128 255
1.91897 1.33615 4.55284 0 0 0 128 0 128 255
1.9014 1.30521 4.55556 0 0 0 128 0 128 255
1.92717 1.42435 4.56178 0 0 0 128 0 128 255
2.03467 1.73952 4.56256 0 0 0 128 0 128 255
1.8771 1.29141 4.56334 0 0 0 128 0 128 255
1.92959 1.44256 4.56334 0 0 0 128 0 128 255
1.89865 1.35909 4.56412 0 0 0 128 0 128 255
1.91294 1.44516 4.57034 0 0 0 128 0 128 255
1.95263 1.55947 4.57034 0 0 0 128 0 128 255
1.92618 1.48609 4.57073 0 0 0 128 0 128 255
1.86114 1.31284 4.57268 0 0 0 128 0 128 255
1.86179 1.31473 4.57268 0 0 0 128 0 128 255
1.95078 1.62151 4.57968 0 0 0 128 0 128 255
1.95122 1.62559 4.58007 0 0 0 128 0 128 255
1.90458 1.59521 4.59446 0 0 0 128 0 128 255
1.88938 1.75081 4.62208 0 0 0 128 0 128 255
1.89868 1.78039 4.62247 0 0 0 128 0 128 255
1.88111 1.74945 4.6252 0 0 0 128 0 128 255
1.94129 1.95085 4.62909 0 0 0 128 0 128 255
1.91288 1.94484 4.63959 0 0 0 128 0 128 255
1.90818 1.93694 4.64037 0 0 0 128 0 128 255
1.86168 1.85358 4.64737 0 0 0 128 0 128 255
1.80838 1.73659 4.65243 0 0 0 128 0 128 255
1.88952 1.97306 4.65282 0 0 0 128 0 128 255
1.87438 1.96879 4.65826 0 0 0 128 0 128 255
1.80501 1.80551 4.66332 0 0 0 128 0 128 255
1.80381 2.00706 4.69172 0 0 0 128 0 128 255
1.79184 2.0091 4.69678 0 0 0 128 0 128 255
