ply
format ascii 1.0
comment VCGLIB generated
element vertex 90
property float x
property float y
property float z
property float nx
property float ny
property float nz
property uchar red
property uchar green
property uchar blue
property uchar alpha
element face 0
property list uchar int vertex_indices
end_header
3.66817 0.69274 3.98109 0 0 0 128 128 128 255
3.67016 0.819732 3.9826 0 0 0 128 128 128 255
3.67247 1.00974 3.98561 0 0 0 128 128 128 255
3.67257 1.01373 3.98561 0 0 0 128 128 128 255
3.66774 1.03087 3.99162 0 0 0 128 128 128 255
3.65378 1.02623 4.00742 0 0 0 128 128 128 255
3.64731 0.828329 4.00892 0 0 0 128 128 128 255
3.6446 0.901425 4.01419 0 0 0 128 128 128 255
3.62495 1.13401 4.04353 0 0 0 128 128 128 255
3.61578 0.807143 4.04428 0 0 0 128 128 128 255
3.61425 0.79918 4.04578 0 0 0 128 128 128 255
3.62119 1.11611 4.04729 0 0 0 128 128 128 255
3.61176 0.779238 4.04804 0 0 0 128 128 128 255
3.6101 1.1204 4.06008 0 0 0 128 128 128 255
3.60374 0.901488 4.06083 0 0 0 128 128 128 255
3.60628 1.10049 4.06384 0 0 0 128 128 128 255
3.60039 0.9756 4.06685 0 0 0 128 128 128 255
3.58982 0.670772 4.06986 0 0 0 128 128 128 255
3.58902 0.6908 4.07136 0 0 0 128 128 128 255
3.5995 1.11867 4.07211 0 0 0 128 128 128 255
3.59192 0.852779 4.07286 0 0 0 128 128 128 255
3.58673 0.678855 4.07362 0 0 0 128 128 128 255
3.59674 1.11374 4.07512 0 0 0 128 128 128 255
3.59501 1.09778 4.07663 0 0 0 128 128 128 255
3.58617 0.808914 4.07813 0 0 0 128 128 128 255
3.58526 1.002 4.0849 0 0 0 128 128 128 255
3.5945 1.45792 4.08791 0 0 0 128 128 128 255
3.57623 0.807172 4.08941 0 0 0 128 128 128 255
3.5806 1.00012 4.09017 0 0 0 128 128 128 255
3.57329 0.871271 4.09468 0 0 0 128 128 128 255
3.57218 0.879302 4.09618 0 0 0 128 128 128 255
3.56707 0.784403 4.09919 0 0 0 128 128 128 255
3.57535 1.1023 4.09919 0 0 0 128 128 128 255
3.56418 0.774475 4.1022 0 0 0 128 128 128 255
3.55655 0.658634 4.10747 0 0 0 128 128 128 255
3.56398 0.969546 4.10822 0 0 0 128 128 128 255
3.56742 1.1015 4.10822 0 0 0 128 128 128 255
3.55383 0.655704 4.11048 0 0 0 128 128 128 255
3.55852 0.987694 4.11499 0 0 0 128 128 128 255
3.55179 0.779799 4.11649 0 0 0 128 128 128 255
3.54739 0.787917 4.12176 0 0 0 128 128 128 255
3.54613 0.78995 4.12326 0 0 0 128 128 128 255
3.55151 1.09791 4.12627 0 0 0 128 128 128 255
3.54116 0.979143 4.13455 0 0 0 128 128 128 255
3.53723 1.08128 4.14207 0 0 0 128 128 128 255
3.52806 0.855443 4.14583 0 0 0 128 128 128 255
3.52893 0.939448 4.14734 0 0 0 128 128 128 255
3.52623 0.886501 4.14884 0 0 0 128 128 128 255
3.52713 0.946498 4.14959 0 0 0 128 128 128 255
3.52394 0.874556 4.1511 0 0 0 128 128 128 255
3.52485 1.0866 4.15636 0 0 0 128 128 128 255
3.52361 1.08964 4.15787 0 0 0 128 128 128 255
3.51785 1.04577 4.16313 0 0 0 128 128 128 255
3.514 1.07488 4.1684 0 0 0 128 128 128 255
3.5045 1.03912 4.17818 0 0 0 128 128 128 255
3.50068 0.943185 4.17968 0 0 0 128 128 128 255
3.49527 0.887307 4.1842 0 0 0 128 128 128 255
3.49469 1.06738 4.19021 0 0 0 128 128 128 255
3.4908 1.01947 4.19322 0 0 0 128 128 128 255
3.48512 0.82655 4.19397 0 0 0 128 128 128 255
3.48202 0.960677 4.2015 0 0 0 128 128 128 255
3.47957 0.891717 4.20225 0 0 0 128 128 128 255
3.48044 0.950714 4.203 0 0 0 128 128 128 255
3.47606 0.832789 4.20451 0 0 0 128 128 128 255
3.47413 0.834839 4.20676 0 0 0 128 128 128 255
3.47429 0.840837 4.20676 0 0 0 128 128 128 255
3.47878 1.0638 4.20827 0 0 0 128 128 128 255
3.47728 1.05683 4.20977 0 0 0 128 128 128 255
3.47059 1.028 4.21654 0 0 0 128 128 128 255
3.47067 1.031 4.21654 0 0 0 128 128 128 255
3.47569 1.32496 4.21955 0 0 0 128 128 128 255
3.45565 0.859329 4.22858 0 0 0 128 128 128 255
3.45427 0.831355 4.22933 0 0 0 128 128 128 255
3.45281 0.8514 4.23159 0 0 0 128 128 128 255
3.46348 1.26126 4.23159 0 0 0 128 128 128 255
3.46361 1.26626 4.23159 0 0 0 128 128 128 255
3.45282 0.902417 4.23309 0 0 0 128 128 128 255
3.45187 0.916446 4.23459 0 0 0 128 128 128 255
3.44433 0.930647 4.24362 0 0 0 128 128 128 255
3.44436 0.931647 4.24362 0 0 0 128 128 128 255
3.44438 0.932647 4.24362 0 0 0 128 128 128 255
3.43388 0.807878 4.2519 0 0 0 128 128 128 255
3.42071 0.884247 4.2692 0 0 0 128 128 128 255
3.40097 0.834744 4.29026 0 0 0 128 128 128 255
3.39915 0.815784 4.29176 0 0 0 128 128 128 255
3.3976 0.806822 4.29327 0 0 0 128 128 128 255
3.39745 0.87685 4.29553 0 0 0 128 128 128 255
3.38183 0.783224 4.31057 0 0 0 128 128 128 255
3.38358 0.901219 4.31207 0 0 0 128 128 128 255
3.38176 0.907268 4.31433 0 0 0 128 128 128 255
