ply
format ascii 1.0
comment VCGLIB generated
element vertex 52
property float x
property float y
property float z
property float nx
property float ny
property float nz
property uchar red
property uchar green
property uchar blue
property uchar alpha
element face 0
property list uchar int vertex_indices
end_header
0.06948 0.953376 4.45715 0 0 0 0 255 255 255
0.0444799 1.16913 4.49466 0 0 0 0 255 255 255
0.211243 0.957521 4.50012 0 0 0 0 255 255 255
0.0545104 1.18593 4.50114 0 0 0 0 255 255 255
0.0583712 1.19353 4.50387 0 0 0 0 255 255 255
0.168622 1.04122 4.50489 0 0 0 0 255 255 255
0.241747 0.943493 4.50626 0 0 0 0 255 255 255
0.169832 1.06405 4.51001 0 0 0 0 255 255 255
0.25234 0.954585 4.51171 0 0 0 0 255 255 255
0.198968 1.04052 4.51376 0 0 0 0 255 255 255
0.0957064 1.22215 4.52092 0 0 0 0 255 255 255
0.0431167 1.31352 4.52433 0 0 0 0 255 255 255
0.239882 1.04112 4.52604 0 0 0 0 255 255 255
0.206459 1.11661 4.53183 0 0 0 0 255 255 255
0.289579 1.02101 4.53661 0 0 0 0 255 255 255
0.299963 1.02584 4.5407 0 0 0 0 255 255 255
0.300379 1.03835 4.54343 0 0 0 0 255 255 255
0.18115 1.21001 4.54377 0 0 0 0 255 255 255
0.238667 1.24424 4.56798 0 0 0 0 255 255 255
0.298038 1.17595 4.57139 0 0 0 0 255 255 255
0.309521 1.15957 4.57139 0 0 0 0 255 255 255
0.295986 1.20016 4.57582 0 0 0 0 255 255 255
0.10577 1.47959 4.57753 0 0 0 0 255 255 255
0.259644 1.26017 4.57753 0 0 0 0 255 255 255
0.253524 1.27053 4.57787 0 0 0 0 255 255 255
0.279935 1.23287 4.57787 0 0 0 0 255 255 255
0.125682 1.45447 4.57821 0 0 0 0 255 255 255
0.270761 1.25086 4.57889 0 0 0 0 255 255 255
0.262161 1.26804 4.57991 0 0 0 0 255 255 255
0.360354 1.13293 4.58094 0 0 0 0 255 255 255
0.360171 1.13646 4.58162 0 0 0 0 255 255 255
0.277138 1.26633 4.58401 0 0 0 0 255 255 255
0.269687 1.28187 4.58503 0 0 0 0 255 255 255
0.265118 1.2982 4.58707 0 0 0 0 255 255 255
0.314129 1.23486 4.58844 0 0 0 0 255 255 255
0.239331 1.35463 4.59117 0 0 0 0 255 255 255
0.295123 1.31436 4.59935 0 0 0 0 255 255 255
0.307193 1.30206 4.60037 0 0 0 0 255 255 255
0.312947 1.29877 4.6014 0 0 0 0 255 255 255
0.353907 1.242 4.60174 0 0 0 0 255 255 255
0.294965 1.32768 4.60208 0 0 0 0 255 255 255
0.293255 1.33504 4.6031 0 0 0 0 255 255 255
0.318909 1.30173 4.60378 0 0 0 0 255 255 255
0.320643 1.30417 4.60481 0 0 0 0 255 255 255
0.322183 1.30524 4.60549 0 0 0 0 255 255 255
0.317028 1.31751 4.60651 0 0 0 0 255 255 255
0.28507 1.36472 4.60685 0 0 0 0 255 255 255
0.295992 1.35405 4.60788 0 0 0 0 255 255 255
0.189664 1.53842 4.6147 0 0 0 0 255 255 255
0.377866 1.29788 4.62049 0 0 0 0 255 255 255
0.30191 1.49133 4.63823 0 0 0 0 255 255 255
0.294495 1.52155 4.64232 0 0 0 0 255 255 255
