ply
format ascii 1.0
comment VCGLIB generated
element vertex 862
property float x
property float y
property float z
property float nx
property float ny
property float nz
property uchar red
property uchar green
property uchar blue
property uchar alpha
element face 0
property list uchar int vertex_indices
end_header
-0.120708 0.625398 4.24088 0 0 0 255 255 255 255
-0.323776 1.11569 4.11716 0 0 0 255 255 255 255
-0.136642 0.874096 4.23451 0 0 0 255 255 255 255
-0.127692 1.01335 4.27638 0 0 0 255 255 255 255
-0.303649 0.883397 4.11536 0 0 0 255 255 255 255
-0.209533 0.878515 4.21114 0 0 0 255 255 255 255
-0.301408 0.752749 4.08531 0 0 0 255 255 255 255
-0.122727 0.813982 4.24374 0 0 0 255 255 255 255
-0.335656 1.11266 4.10808 0 0 0 255 255 255 255
-0.295975 0.766476 4.08712 0 0 0 255 255 255 255
-0.301033 0.883357 4.11697 0 0 0 255 255 255 255
0.411659 0.277783 4.39259 0 0 0 255 255 255 255
0.435593 0.21985 4.45474 0 0 0 255 255 255 255
0.494208 0.120331 4.48042 0 0 0 255 255 255 255
0.413658 0.223193 4.43733 0 0 0 255 255 255 255
0.727252 0.148725 4.2751 0 0 0 255 255 255 255
0.531673 0.205598 4.30936 0 0 0 255 255 255 255
0.400963 0.219058 4.57698 0 0 0 255 255 255 255
0.529275 0.202284 4.3202 0 0 0 255 255 255 255
0.435613 0.249538 4.43991 0 0 0 255 255 255 255
0.327482 0.181865 4.82467 0 0 0 255 255 255 255
0.330875 0.179452 4.83222 0 0 0 255 255 255 255
0.193417 0.613277 4.42037 0 0 0 255 255 255 255
0.19546 0.419948 4.47651 0 0 0 255 255 255 255
0.0564726 1.12664 4.33034 0 0 0 255 255 255 255
0.227423 0.71385 4.43694 0 0 0 255 255 255 255
0.089878 1.12597 4.3483 0 0 0 255 255 255 255
-0.059402 0.905105 4.57639 0 0 0 255 255 255 255
0.0579305 1.12893 4.32819 0 0 0 255 255 255 255
-0.103165 0.993591 4.28999 0 0 0 255 255 255 255
0.246645 0.713623 4.43902 0 0 0 255 255 255 255
0.537184 0.458232 4.15517 0 0 0 255 255 255 255
0.53376 0.446578 4.15815 0 0 0 255 255 255 255
0.406671 0.288657 4.3835 0 0 0 255 255 255 255
0.339248 0.446646 4.46819 0 0 0 255 255 255 255
0.355116 0.431132 4.48328 0 0 0 255 255 255 255
0.316863 0.427702 4.49832 0 0 0 255 255 255 255
0.405034 0.290395 4.37908 0 0 0 255 255 255 255
0.564172 0.999116 4.2348 0 0 0 255 255 255 255
0.677155 0.869962 4.44005 0 0 0 255 255 255 255
0.536462 1.0429 4.32656 0 0 0 255 255 255 255
0.547269 1.01006 4.32712 0 0 0 255 255 255 255
0.675059 0.866724 4.44128 0 0 0 255 255 255 255
0.660777 0.724589 4.4536 0 0 0 255 255 255 255
0.673844 0.867394 4.36046 0 0 0 255 255 255 255
0.635451 0.78399 5.05979 0 0 0 255 255 255 255
0.665574 0.772475 4.78289 0 0 0 255 255 255 255
1.64649 1.10208 3.79251 0 0 0 255 255 255 255
1.5579 1.13616 3.56338 0 0 0 255 255 255 255
1.05945 0.280107 4.39277 0 0 0 255 255 255 255
0.975109 0.240726 4.42721 0 0 0 255 255 255 255
1.06976 0.303814 4.19949 0 0 0 255 255 255 255
1.12285 0.59502 4.21728 0 0 0 255 255 255 255
0.960288 0.318374 4.20163 0 0 0 255 255 255 255
1.12414 0.37319 4.20092 0 0 0 255 255 255 255
1.12933 0.391343 4.20762 0 0 0 255 255 255 255
1.0888 0.688887 4.25602 0 0 0 255 255 255 255
1.11121 0.304619 4.41025 0 0 0 255 255 255 255
1.02043 1.04778 4.19823 0 0 0 255 255 255 255
1.08858 0.723844 4.15435 0 0 0 255 255 255 255
1.07972 0.712915 4.34395 0 0 0 255 255 255 255
0.938546 0.832295 4.48573 0 0 0 255 255 255 255
0.899633 1.02301 4.44696 0 0 0 255 255 255 255
0.788104 1.10448 4.58089 0 0 0 255 255 255 255
1.28975 0.412339 4.04083 0 0 0 255 255 255 255
1.43057 0.636192 4.25893 0 0 0 255 255 255 255
1.43339 0.634924 4.18807 0 0 0 255 255 255 255
1.37575 0.371944 4.20786 0 0 0 255 255 255 255
1.56553 0.349546 4.18423 0 0 0 255 255 255 255
1.37945 0.412602 4.21112 0 0 0 255 255 255 255
1.37758 0.366279 4.26513 0 0 0 255 255 255 255
1.58535 0.362388 4.19273 0 0 0 255 255 255 255
1.17679 0.424746 4.06259 0 0 0 255 255 255 255
1.43107 0.352346 4.31315 0 0 0 255 255 255 255
1.55355 0.34457 4.38386 0 0 0 255 255 255 255
1.35981 0.446841 4.29803 0 0 0 255 255 255 255
1.51112 0.539788 4.42783 0 0 0 255 255 255 255
1.37719 0.381813 4.2865 0 0 0 255 255 255 255
1.22248 0.35827 4.5785 0 0 0 255 255 255 255
1.22086 0.359403 4.38632 0 0 0 255 255 255 255
1.42248 0.577634 4.28756 0 0 0 255 255 255 255
1.48597 0.75219 4.62648 0 0 0 255 255 255 255
1.43821 0.725552 4.48361 0 0 0 255 255 255 255
0.937446 0.686093 5.07255 0 0 0 255 255 255 255
1.77598 0.119679 4.64089 0 0 0 255 255 255 255
1.72043 0.11328 4.65525 0 0 0 255 255 255 255
1.93827 0.148533 4.60719 0 0 0 255 255 255 255
2.08733 0.194893 4.57407 0 0 0 255 255 255 255
2.08659 0.188863 4.58428 0 0 0 255 255 255 255
2.08094 0.185423 4.57858 0 0 0 255 255 255 255
2.10616 0.193469 4.60327 0 0 0 255 255 255 255
1.75533 0.118115 4.63602 0 0 0 255 255 255 255
1.62595 0.422335 4.22552 0 0 0 255 255 255 255
1.63041 0.417322 4.14252 0 0 0 255 255 255 255
1.6311 0.411151 4.35242 0 0 0 255 255 255 255
1.69027 0.432371 4.34694 0 0 0 255 255 255 255
1.68263 0.432782 4.29917 0 0 0 255 255 255 255
1.60424 0.418143 4.33998 0 0 0 255 255 255 255
1.7407 0.949081 3.88079 0 0 0 255 255 255 255
1.70162 1.01418 4.11378 0 0 0 255 255 255 255
1.95183 1.01445 4.4504 0 0 0 255 255 255 255
1.92813 1.11925 4.61555 0 0 0 255 255 255 255
1.92581 1.10447 4.6232 0 0 0 255 255 255 255
0.495508 1.92938 2.88474 0 0 0 255 255 255 255
0.484391 1.92588 2.76768 0 0 0 255 255 255 255
0.491516 1.94043 2.95058 0 0 0 255 255 255 255
0.168181 1.53242 3.46251 0 0 0 255 255 255 255
0.154492 1.5336 3.47903 0 0 0 255 255 255 255
0.0445903 1.80844 3.39754 0 0 0 255 255 255 255
0.0165711 1.82445 3.38496 0 0 0 255 255 255 255
0.118193 1.63156 3.41304 0 0 0 255 255 255 255
0.416073 1.74585 3.17559 0 0 0 255 255 255 255
0.36358 1.77307 3.20544 0 0 0 255 255 255 255
0.412267 1.73871 3.17492 0 0 0 255 255 255 255
0.314328 1.94371 3.17313 0 0 0 255 255 255 255
0.378592 1.95504 3.16882 0 0 0 255 255 255 255
0.440755 1.93496 3.36189 0 0 0 255 255 255 255
0.462177 1.90303 3.38775 0 0 0 255 255 255 255
0.713381 1.78176 3.77933 0 0 0 255 255 255 255
0.658238 1.77649 3.85661 0 0 0 255 255 255 255
0.506235 2.18952 2.66476 0 0 0 255 255 255 255
0.314435 2.25228 2.90236 0 0 0 255 255 255 255
0.315306 2.2728 2.89751 0 0 0 255 255 255 255
0.255581 2.30457 2.70318 0 0 0 255 255 255 255
0.41245 2.36444 2.50594 0 0 0 255 255 255 255
0.70713 2.38047 3.31401 0 0 0 255 255 255 255
0.712583 2.58562 3.52993 0 0 0 255 255 255 255
0.202008 2.6164 3.19838 0 0 0 255 255 255 255
0.343475 2.20413 3.50595 0 0 0 255 255 255 255
0.573574 2.13526 3.36539 0 0 0 255 255 255 255
0.370576 2.37038 3.1669 0 0 0 255 255 255 255
-0.216895 1.25967 4.34109 0 0 0 255 255 255 255
-0.207674 1.24879 4.34581 0 0 0 255 255 255 255
-0.268421 1.53137 4.46012 0 0 0 255 255 255 255
-0.14669 1.35069 4.33352 0 0 0 255 255 255 255
-0.137338 1.48398 4.32893 0 0 0 255 255 255 255
-0.361261 1.49111 4.20829 0 0 0 255 255 255 255
-0.0952211 1.54953 4.0128 0 0 0 255 255 255 255
-0.0718941 1.24576 4.35386 0 0 0 255 255 255 255
0.05484 1.48058 4.38551 0 0 0 255 255 255 255
0.0844524 1.32492 4.29716 0 0 0 255 255 255 255
0.100449 1.22089 4.55272 0 0 0 255 255 255 255
0.0461001 1.47185 4.342 0 0 0 255 255 255 255
0.0919004 1.33605 4.33613 0 0 0 255 255 255 255
0.429541 1.53077 3.9259 0 0 0 255 255 255 255
0.431963 1.55639 3.97567 0 0 0 255 255 255 255
0.736013 1.56046 4.4157 0 0 0 255 255 255 255
0.663091 1.76798 3.93317 0 0 0 255 255 255 255
0.664537 1.76789 3.93227 0 0 0 255 255 255 255
0.605002 1.73281 3.93978 0 0 0 255 255 255 255
0.454403 1.60882 4.24037 0 0 0 255 255 255 255
0.616318 1.76574 3.98876 0 0 0 255 255 255 255
0.496206 1.70449 4.43997 0 0 0 255 255 255 255
0.700787 1.65911 4.45894 0 0 0 255 255 255 255
0.426882 1.66075 4.42806 0 0 0 255 255 255 255
0.646198 1.81978 4.49801 0 0 0 255 255 255 255
0.417374 1.6835 4.44418 0 0 0 255 255 255 255
0.413106 1.68031 4.43831 0 0 0 255 255 255 255
0.39965 1.57646 4.52879 0 0 0 255 255 255 255
0.414773 1.69791 4.44478 0 0 0 255 255 255 255
0.483607 1.63836 4.5192 0 0 0 255 255 255 255
0.375528 1.61042 4.47936 0 0 0 255 255 255 255
0.435397 1.61904 4.35206 0 0 0 255 255 255 255
0.396745 1.68679 4.39919 0 0 0 255 255 255 255
1.04764 2.3368 2.61879 0 0 0 255 255 255 255
0.935694 2.2975 3.38218 0 0 0 255 255 255 255
0.922887 2.2924 3.32846 0 0 0 255 255 255 255
1.13668 2.26936 3.2556 0 0 0 255 255 255 255
1.37063 2.29176 3.68943 0 0 0 255 255 255 255
1.67409 1.14554 3.80482 0 0 0 255 255 255 255
1.38915 1.29249 3.60605 0 0 0 255 255 255 255
0.919572 2.32109 3.35713 0 0 0 255 255 255 255
1.20548 2.28803 3.32486 0 0 0 255 255 255 255
1.16972 2.43194 3.58528 0 0 0 255 255 255 255
1.63865 1.26415 3.80358 0 0 0 255 255 255 255
1.90606 2.10595 3.38344 0 0 0 255 255 255 255
1.73799 1.98918 3.5309 0 0 0 255 255 255 255
2.27649 2.34436 3.70868 0 0 0 255 255 255 255
0.932334 1.18535 4.26571 0 0 0 255 255 255 255
0.936477 1.16597 4.25886 0 0 0 255 255 255 255
0.917234 1.20936 4.39209 0 0 0 255 255 255 255
0.999215 1.4302 4.38894 0 0 0 255 255 255 255
0.774865 1.5234 4.54151 0 0 0 255 255 255 255
1.04423 1.46448 4.41413 0 0 0 255 255 255 255
1.04666 1.38762 4.39309 0 0 0 255 255 255 255
0.981655 1.46032 4.42306 0 0 0 255 255 255 255
0.984772 1.39328 4.40729 0 0 0 255 255 255 255
1.02776 1.42335 4.42656 0 0 0 255 255 255 255
1.06757 1.45254 4.34919 0 0 0 255 255 255 255
0.799029 1.53405 4.31062 0 0 0 255 255 255 255
1.15914 1.41561 4.39827 0 0 0 255 255 255 255
1.02246 1.8644 4.08465 0 0 0 255 255 255 255
0.959838 1.85723 4.44384 0 0 0 255 255 255 255
1.02138 1.91758 4.30205 0 0 0 255 255 255 255
0.916939 1.82878 4.37785 0 0 0 255 255 255 255
1.12247 1.85136 4.29813 0 0 0 255 255 255 255
0.985157 1.84475 4.41663 0 0 0 255 255 255 255
1.18975 1.4071 4.23116 0 0 0 255 255 255 255
1.23962 1.18066 4.33632 0 0 0 255 255 255 255
1.16814 1.27196 4.38226 0 0 0 255 255 255 255
1.19545 1.34356 4.34882 0 0 0 255 255 255 255
1.84235 1.29307 4.28283 0 0 0 255 255 255 255
1.88728 1.30562 4.44142 0 0 0 255 255 255 255
1.84025 1.26931 4.32264 0 0 0 255 255 255 255
1.92346 1.26488 4.48347 0 0 0 255 255 255 255
1.92043 1.24234 4.66546 0 0 0 255 255 255 255
1.86748 1.26912 4.35349 0 0 0 255 255 255 255
1.84296 1.90086 4.17842 0 0 0 255 255 255 255
1.84583 1.90066 4.49939 0 0 0 255 255 255 255
1.96396 1.64317 4.66719 0 0 0 255 255 255 255
1.79201 1.68876 4.41928 0 0 0 255 255 255 255
1.8843 1.75996 4.47987 0 0 0 255 255 255 255
1.87857 1.75652 4.43625 0 0 0 255 255 255 255
1.85532 1.93475 4.55427 0 0 0 255 255 255 255
1.87813 1.7244 4.46732 0 0 0 255 255 255 255
1.88352 1.63142 4.60019 0 0 0 255 255 255 255
1.85347 1.74481 4.48231 0 0 0 255 255 255 255
1.81534 1.90943 4.49747 0 0 0 255 255 255 255
1.84207 1.71426 4.51765 0 0 0 255 255 255 255
1.83863 1.90428 4.47645 0 0 0 255 255 255 255
2.19854 1.31066 4.56783 0 0 0 255 255 255 255
2.36782 1.53096 4.45988 0 0 0 255 255 255 255
2.38447 1.38911 4.30881 0 0 0 255 255 255 255
2.15739 1.29169 4.46428 0 0 0 255 255 255 255
2.3854 1.40027 4.2936 0 0 0 255 255 255 255
2.06203 1.68908 4.41172 0 0 0 255 255 255 255
2.25094 1.7943 4.6925 0 0 0 255 255 255 255
1.84558 1.76308 4.8263 0 0 0 255 255 255 255
1.91276 1.34261 4.77131 0 0 0 255 255 255 255
1.96354 1.66048 4.77046 0 0 0 255 255 255 255
1.87505 1.68804 4.84849 0 0 0 255 255 255 255
1.90453 1.39276 4.71285 0 0 0 255 255 255 255
1.87053 1.73435 4.83187 0 0 0 255 255 255 255
1.96604 2.22057 4.08291 0 0 0 255 255 255 255
2.12843 2.27557 3.98775 0 0 0 255 255 255 255
2.04534 2.25973 3.97615 0 0 0 255 255 255 255
2.24919 2.21545 4.27369 0 0 0 255 255 255 255
3.52507 0.642105 3.40019 0 0 0 255 255 255 255
3.52335 0.634693 3.40935 0 0 0 255 255 255 255
3.39773 0.635002 3.74571 0 0 0 255 255 255 255
3.46719 0.653231 3.78695 0 0 0 255 255 255 255
3.57301 0.662416 3.56943 0 0 0 255 255 255 255
3.47222 0.677612 3.57994 0 0 0 255 255 255 255
3.56162 0.579974 3.80044 0 0 0 255 255 255 255
3.41074 0.661069 3.71972 0 0 0 255 255 255 255
3.66009 0.654512 3.66797 0 0 0 255 255 255 255
3.69998 1.039 3.24943 0 0 0 255 255 255 255
3.62046 0.838368 3.34335 0 0 0 255 255 255 255
3.56977 0.744077 3.42848 0 0 0 255 255 255 255
3.66026 0.950709 3.32079 0 0 0 255 255 255 255
3.57175 0.730342 3.42797 0 0 0 255 255 255 255
3.54779 1.08035 3.62826 0 0 0 255 255 255 255
3.57437 0.972527 3.55039 0 0 0 255 255 255 255
3.50875 0.966853 3.65044 0 0 0 255 255 255 255
3.52586 1.10606 3.66866 0 0 0 255 255 255 255
3.59071 1.11885 3.69676 0 0 0 255 255 255 255
3.655 0.968123 3.6315 0 0 0 255 255 255 255
3.55601 0.729371 3.45357 0 0 0 255 255 255 255
3.60523 0.987649 3.46849 0 0 0 255 255 255 255
3.55286 1.02027 3.60258 0 0 0 255 255 255 255
3.41836 0.782385 3.72671 0 0 0 255 255 255 255
3.66389 0.907588 3.76218 0 0 0 255 255 255 255
3.64133 0.918415 3.77968 0 0 0 255 255 255 255
3.50673 0.97322 3.65803 0 0 0 255 255 255 255
3.4209 0.769907 3.85517 0 0 0 255 255 255 255
3.47318 0.875242 3.68387 0 0 0 255 255 255 255
3.3891 0.764104 3.77363 0 0 0 255 255 255 255
3.39333 0.7383 3.76553 0 0 0 255 255 255 255
3.50961 0.768436 3.5592 0 0 0 255 255 255 255
3.54214 0.750458 3.45939 0 0 0 255 255 255 255
3.98856 0.661287 3.17469 0 0 0 255 255 255 255
3.74589 1.0979 3.19042 0 0 0 255 255 255 255
3.73633 1.05438 3.70323 0 0 0 255 255 255 255
3.78396 0.999829 3.63125 0 0 0 255 255 255 255
3.72598 1.07903 3.6965 0 0 0 255 255 255 255
2.65799 0.845656 4.28492 0 0 0 255 255 255 255
3.19006 0.443425 3.91368 0 0 0 255 255 255 255
3.19299 0.548512 3.93324 0 0 0 255 255 255 255
3.18742 0.468417 3.91923 0 0 0 255 255 255 255
3.28267 0.544696 4.17423 0 0 0 255 255 255 255
3.2667 0.406827 4.19557 0 0 0 255 255 255 255
3.19921 0.447847 4.08746 0 0 0 255 255 255 255
3.22759 0.426707 4.17923 0 0 0 255 255 255 255
3.27234 0.454612 4.11485 0 0 0 255 255 255 255
3.19274 0.612933 4.00212 0 0 0 255 255 255 255
3.27769 0.545309 4.17615 0 0 0 255 255 255 255
3.28119 0.361366 4.3701 0 0 0 255 255 255 255
3.19878 0.87075 4.14934 0 0 0 255 255 255 255
3.24616 0.922144 4.22575 0 0 0 255 255 255 255
3.14686 1.1227 4.10185 0 0 0 255 255 255 255
3.06322 0.797631 4.14804 0 0 0 255 255 255 255
3.04961 0.799429 4.13753 0 0 0 255 255 255 255
3.17454 0.954555 4.12788 0 0 0 255 255 255 255
3.23901 0.922139 4.23919 0 0 0 255 255 255 255
3.17939 0.970483 4.18168 0 0 0 255 255 255 255
2.99576 0.782509 4.94902 0 0 0 255 255 255 255
3.70944 0.433648 4.04694 0 0 0 255 255 255 255
3.66846 0.37468 4.2618 0 0 0 255 255 255 255
3.30303 0.406235 4.06332 0 0 0 255 255 255 255
3.66356 0.381754 4.25156 0 0 0 255 255 255 255
3.71168 0.341238 4.32671 0 0 0 255 255 255 255
3.47531 0.289137 4.4233 0 0 0 255 255 255 255
3.48106 0.286203 4.43599 0 0 0 255 255 255 255
3.64904 0.380057 4.31086 0 0 0 255 255 255 255
3.56783 0.330918 4.38737 0 0 0 255 255 255 255
3.55695 0.338084 4.48732 0 0 0 255 255 255 255
3.46921 1.0479 3.9192 0 0 0 255 255 255 255
3.44551 1.07874 3.95107 0 0 0 255 255 255 255
3.47217 1.04639 3.96465 0 0 0 255 255 255 255
3.45257 1.05826 3.87327 0 0 0 255 255 255 255
3.46283 0.974837 4.12266 0 0 0 255 255 255 255
3.47214 0.972091 4.08199 0 0 0 255 255 255 255
3.5371 1.07908 4.00435 0 0 0 255 255 255 255
3.52729 1.07921 3.95339 0 0 0 255 255 255 255
3.52471 1.10401 3.97503 0 0 0 255 255 255 255
3.60665 0.992862 3.99622 0 0 0 255 255 255 255
3.51805 0.981213 4.04983 0 0 0 255 255 255 255
3.52294 0.958154 3.91561 0 0 0 255 255 255 255
3.52687 0.963664 3.90507 0 0 0 255 255 255 255
3.76743 0.38578 4.10541 0 0 0 255 255 255 255
3.99129 0.468223 3.98418 0 0 0 255 255 255 255
3.78355 0.387973 4.08155 0 0 0 255 255 255 255
3.79169 0.404817 3.99035 0 0 0 255 255 255 255
3.76627 0.406504 3.99538 0 0 0 255 255 255 255
3.75629 0.457242 3.9299 0 0 0 255 255 255 255
3.99197 0.434575 3.99249 0 0 0 255 255 255 255
4.18316 0.585108 3.56189 0 0 0 255 255 255 255
3.32529 -0.361458 8.17865 0 0 0 255 255 255 255
4.33759 -0.33385 8.96913 0 0 0 255 255 255 255
3.59143 -0.0708774 8.02717 0 0 0 255 255 255 255
3.31436 -0.311455 8.11445 0 0 0 255 255 255 255
4.33951 -0.334066 8.9656 0 0 0 255 255 255 255
4.16454 -0.0512334 8.62978 0 0 0 255 255 255 255
3.81744 -0.136947 8.5174 0 0 0 255 255 255 255
3.98661 -0.272975 8.81876 0 0 0 255 255 255 255
2.48577 1.60213 2.61341 0 0 0 255 255 255 255
3.13966 2.35315 3.22613 0 0 0 255 255 255 255
3.14814 2.34348 3.25982 0 0 0 255 255 255 255
3.65793 1.16919 3.3457 0 0 0 255 255 255 255
3.65404 1.13851 3.75209 0 0 0 255 255 255 255
3.67448 1.15032 3.69896 0 0 0 255 255 255 255
3.67911 1.5037 3.49211 0 0 0 255 255 255 255
3.64056 1.14538 3.49345 0 0 0 255 255 255 255
3.67513 1.41561 3.4957 0 0 0 255 255 255 255
3.71756 1.70514 3.64967 0 0 0 255 255 255 255
3.90302 1.54238 3.33796 0 0 0 255 255 255 255
4.02631 1.49077 3.42519 0 0 0 255 255 255 255
3.88925 1.54532 3.32397 0 0 0 255 255 255 255
3.86805 1.52827 3.29868 0 0 0 255 255 255 255
3.79232 1.27923 3.24214 0 0 0 255 255 255 255
3.95787 1.39859 3.57636 0 0 0 255 255 255 255
3.72601 1.52428 3.64892 0 0 0 255 255 255 255
3.96555 1.44528 3.55708 0 0 0 255 255 255 255
3.74181 1.15758 3.74018 0 0 0 255 255 255 255
3.87668 1.37953 3.46531 0 0 0 255 255 255 255
3.83542 1.44236 3.82422 0 0 0 255 255 255 255
3.78487 1.59304 3.69149 0 0 0 255 255 255 255
3.78217 1.59859 3.69159 0 0 0 255 255 255 255
3.77596 1.60351 3.71125 0 0 0 255 255 255 255
3.83392 1.80882 3.51771 0 0 0 255 255 255 255
3.78515 1.5922 3.69266 0 0 0 255 255 255 255
3.7677 1.60238 3.70376 0 0 0 255 255 255 255
3.8256 1.82165 3.53052 0 0 0 255 255 255 255
3.82036 1.82035 3.53177 0 0 0 255 255 255 255
3.31251 2.37823 3.26776 0 0 0 255 255 255 255
4.00015 2.34503 3.70752 0 0 0 255 255 255 255
3.84863 2.34714 3.55694 0 0 0 255 255 255 255
3.85189 2.42002 3.66337 0 0 0 255 255 255 255
3.83382 2.41299 3.60999 0 0 0 255 255 255 255
3.40107 2.48695 3.52116 0 0 0 255 255 255 255
3.97445 2.29408 3.66819 0 0 0 255 255 255 255
3.8592 2.32066 3.5467 0 0 0 255 255 255 255
4.04554 2.35404 3.79559 0 0 0 255 255 255 255
4.13735 2.36025 3.85181 0 0 0 255 255 255 255
4.05757 2.39002 3.82999 0 0 0 255 255 255 255
4.04935 2.29266 3.80081 0 0 0 255 255 255 255
2.59423 1.55089 4.3459 0 0 0 255 255 255 255
2.62173 1.24513 4.36171 0 0 0 255 255 255 255
2.45942 1.55932 4.5143 0 0 0 255 255 255 255
2.67989 1.59639 4.10628 0 0 0 255 255 255 255
2.6294 1.60787 4.23822 0 0 0 255 255 255 255
2.63676 1.5799 4.24068 0 0 0 255 255 255 255
2.66849 1.59678 4.30053 0 0 0 255 255 255 255
2.53144 1.8364 4.4821 0 0 0 255 255 255 255
2.64854 1.58223 4.33521 0 0 0 255 255 255 255
2.50059 1.73557 4.3101 0 0 0 255 255 255 255
2.47956 1.62269 4.5481 0 0 0 255 255 255 255
2.5107 1.72133 4.34062 0 0 0 255 255 255 255
2.45685 1.59213 4.45849 0 0 0 255 255 255 255
2.46988 1.70291 4.28734 0 0 0 255 255 255 255
2.97544 1.3439 4.02435 0 0 0 255 255 255 255
3.08006 1.27837 4.14756 0 0 0 255 255 255 255
3.05218 1.29673 4.22442 0 0 0 255 255 255 255
2.93147 1.37259 4.15876 0 0 0 255 255 255 255
3.01872 1.49152 4.15967 0 0 0 255 255 255 255
2.98951 1.41452 4.20264 0 0 0 255 255 255 255
2.9503 1.35935 4.23416 0 0 0 255 255 255 255
3.00183 1.41364 4.20572 0 0 0 255 255 255 255
3.01208 1.41082 4.10303 0 0 0 255 255 255 255
2.92118 1.37907 4.15889 0 0 0 255 255 255 255
3.12275 1.16225 4.02255 0 0 0 255 255 255 255
3.134 1.28948 4.25818 0 0 0 255 255 255 255
3.13352 1.20975 4.25269 0 0 0 255 255 255 255
3.16418 1.30015 4.2782 0 0 0 255 255 255 255
3.09938 1.2949 4.16181 0 0 0 255 255 255 255
3.13669 1.17277 4.10383 0 0 0 255 255 255 255
3.23836 1.19886 4.3195 0 0 0 255 255 255 255
3.23082 1.19765 4.30909 0 0 0 255 255 255 255
3.0844 1.51204 4.30408 0 0 0 255 255 255 255
3.1855 1.29564 4.32455 0 0 0 255 255 255 255
3.22028 1.34843 4.34295 0 0 0 255 255 255 255
3.00155 1.85814 4.617 0 0 0 255 255 255 255
3.107 1.60745 4.39245 0 0 0 255 255 255 255
2.96653 1.93216 4.4712 0 0 0 255 255 255 255
3.08703 1.65776 4.59419 0 0 0 255 255 255 255
2.99379 1.61865 4.31501 0 0 0 255 255 255 255
2.91496 1.82784 4.3664 0 0 0 255 255 255 255
3.11189 2.12742 4.5665 0 0 0 255 255 255 255
3.13643 2.17622 4.3448 0 0 0 255 255 255 255
3.06578 2.03561 4.30691 0 0 0 255 255 255 255
3.07923 2.08103 4.30787 0 0 0 255 255 255 255
2.59672 2.21205 4.23912 0 0 0 255 255 255 255
3.10923 2.12296 4.56505 0 0 0 255 255 255 255
3.11311 2.12773 4.3628 0 0 0 255 255 255 255
3.53797 1.31677 4.2878 0 0 0 255 255 255 255
3.57788 1.81564 3.93232 0 0 0 255 255 255 255
3.65658 1.7785 4.0811 0 0 0 255 255 255 255
3.44761 1.30713 4.11772 0 0 0 255 255 255 255
3.59115 1.54403 4.17306 0 0 0 255 255 255 255
3.33179 1.7232 4.23184 0 0 0 255 255 255 255
3.35622 1.63878 4.22635 0 0 0 255 255 255 255
3.32847 1.97236 4.239 0 0 0 255 255 255 255
3.41044 1.96137 4.22217 0 0 0 255 255 255 255
3.92472 1.18626 4.42755 0 0 0 255 255 255 255
3.3554 1.93959 4.26159 0 0 0 255 255 255 255
3.35604 1.93797 4.26344 0 0 0 255 255 255 255
3.35381 1.94238 4.25854 0 0 0 255 255 255 255
3.32424 1.74706 4.24424 0 0 0 255 255 255 255
3.64914 2.26231 3.98658 0 0 0 255 255 255 255
3.37387 2.2321 4.24784 0 0 0 255 255 255 255
3.70643 2.37619 4.05072 0 0 0 255 255 255 255
3.63283 2.2418 4.02792 0 0 0 255 255 255 255
3.54571 2.23084 4.05776 0 0 0 255 255 255 255
3.47833 2.23427 4.1346 0 0 0 255 255 255 255
4.67591 1.92988 4.33677 0 0 0 255 255 255 255
5.25066 2.20997 4.78225 0 0 0 255 255 255 255
5.10495 2.07766 4.88344 0 0 0 255 255 255 255
-0.130101 0.686913 4.24345 0 0 0 255 255 255 255
-0.16602 0.601982 4.16266 0 0 0 255 255 255 255
-0.17456 0.63918 4.18745 0 0 0 255 255 255 255
-0.305914 1.01292 4.14477 0 0 0 255 255 255 255
-0.144262 0.942802 4.28481 0 0 0 255 255 255 255
-0.282413 0.670167 4.0959 0 0 0 255 255 255 255
-0.207212 0.871482 4.21497 0 0 0 255 255 255 255
-0.125294 0.808933 4.24544 0 0 0 255 255 255 255
-0.366869 1.12549 4.09191 0 0 0 255 255 255 255
-0.295648 0.769534 4.08718 0 0 0 255 255 255 255
-0.153967 0.867805 4.23883 0 0 0 255 255 255 255
-0.365819 1.12876 4.09108 0 0 0 255 255 255 255
-0.341806 1.10173 4.11681 0 0 0 255 255 255 255
0.417342 0.222159 4.44054 0 0 0 255 255 255 255
0.689231 0.171135 4.30419 0 0 0 255 255 255 255
0.286189 0.224597 4.67728 0 0 0 255 255 255 255
0.340051 0.23315 4.57745 0 0 0 255 255 255 255
0.71558 0.158354 4.27219 0 0 0 255 255 255 255
0.731277 0.138666 4.22032 0 0 0 255 255 255 255
0.427325 0.212329 4.47961 0 0 0 255 255 255 255
0.574592 0.161432 4.28831 0 0 0 255 255 255 255
0.544077 0.102504 4.34996 0 0 0 255 255 255 255
0.711992 0.160955 4.25574 0 0 0 255 255 255 255
0.580347 0.140834 4.29861 0 0 0 255 255 255 255
0.451738 0.224064 4.43701 0 0 0 255 255 255 255
0.574951 0.144164 4.29952 0 0 0 255 255 255 255
0.497372 0.0891666 4.4926 0 0 0 255 255 255 255
0.391237 0.246265 4.42203 0 0 0 255 255 255 255
0.33123 0.182567 4.82166 0 0 0 255 255 255 255
0.23693 0.453292 4.44027 0 0 0 255 255 255 255
0.187073 0.583081 4.41951 0 0 0 255 255 255 255
0.207023 0.479817 4.44585 0 0 0 255 255 255 255
0.245324 0.447841 4.44222 0 0 0 255 255 255 255
0.280442 0.44705 4.52598 0 0 0 255 255 255 255
0.0447449 1.05824 4.25311 0 0 0 255 255 255 255
0.0733837 1.06324 4.26188 0 0 0 255 255 255 255
0.0553255 1.03932 4.25249 0 0 0 255 255 255 255
-0.0760995 0.92042 4.44747 0 0 0 255 255 255 255
-0.0536131 0.902411 4.58064 0 0 0 255 255 255 255
-0.060319 0.906959 4.56071 0 0 0 255 255 255 255
-0.0877541 1.01534 4.29486 0 0 0 255 255 255 255
-0.106688 1.06357 4.43841 0 0 0 255 255 255 255
-0.0922156 1.08122 4.40973 0 0 0 255 255 255 255
-0.105962 0.93165 4.29776 0 0 0 255 255 255 255
-0.0899198 1.01317 4.29178 0 0 0 255 255 255 255
0.10736 0.97734 4.47111 0 0 0 255 255 255 255
0.151917 0.939422 4.68231 0 0 0 255 255 255 255
0.326429 0.424123 4.48671 0 0 0 255 255 255 255
0.431801 0.30098 4.42972 0 0 0 255 255 255 255
0.721174 0.862767 4.24374 0 0 0 255 255 255 255
0.680653 0.862256 4.32487 0 0 0 255 255 255 255
0.718243 0.829246 4.47955 0 0 0 255 255 255 255
0.50629 0.826312 4.86619 0 0 0 255 255 255 255
1.61607 0.469042 3.70485 0 0 0 255 255 255 255
1.61592 0.470181 3.70533 0 0 0 255 255 255 255
1.05796 0.279932 4.39365 0 0 0 255 255 255 255
1.02556 0.268889 4.40419 0 0 0 255 255 255 255
1.05559 0.275494 4.38983 0 0 0 255 255 255 255
1.12497 0.380187 4.20823 0 0 0 255 255 255 255
0.957282 0.318096 4.19729 0 0 0 255 255 255 255
0.974219 0.371757 4.14923 0 0 0 255 255 255 255
1.06338 0.405103 4.19882 0 0 0 255 255 255 255
1.15109 0.391596 4.25093 0 0 0 255 255 255 255
1.12221 0.356033 4.22297 0 0 0 255 255 255 255
1.00515 0.411705 4.14007 0 0 0 255 255 255 255
1.1255 0.544248 4.22663 0 0 0 255 255 255 255
1.14071 0.42374 4.1578 0 0 0 255 255 255 255
1.11595 0.351138 4.38881 0 0 0 255 255 255 255
1.09511 0.330896 4.39767 0 0 0 255 255 255 255
0.858771 0.87145 4.29155 0 0 0 255 255 255 255
0.788952 0.844564 4.68178 0 0 0 255 255 255 255
1.09121 0.730604 4.28486 0 0 0 255 255 255 255
1.09397 0.732662 4.49343 0 0 0 255 255 255 255
1.46748 0.610165 4.24246 0 0 0 255 255 255 255
1.41169 0.574296 4.1824 0 0 0 255 255 255 255
1.36194 0.468874 4.27249 0 0 0 255 255 255 255
1.28053 0.623883 4.16116 0 0 0 255 255 255 255
1.37916 0.352147 4.24017 0 0 0 255 255 255 255
1.39297 0.371378 4.26715 0 0 0 255 255 255 255
1.20024 0.373704 4.16213 0 0 0 255 255 255 255
1.41239 0.403187 4.22407 0 0 0 255 255 255 255
1.38305 0.35708 4.23057 0 0 0 255 255 255 255
1.39775 0.602275 4.25767 0 0 0 255 255 255 255
1.392 0.34758 4.25489 0 0 0 255 255 255 255
1.34159 0.438604 4.29202 0 0 0 255 255 255 255
1.19177 0.329838 4.39628 0 0 0 255 255 255 255
1.28427 0.352929 4.38755 0 0 0 255 255 255 255
1.17145 0.328248 4.38157 0 0 0 255 255 255 255
1.22745 0.350189 4.3931 0 0 0 255 255 255 255
1.29682 0.342688 4.33804 0 0 0 255 255 255 255
1.46927 0.408312 4.55463 0 0 0 255 255 255 255
1.47159 0.730464 4.53394 0 0 0 255 255 255 255
1.4081 0.738321 4.55482 0 0 0 255 255 255 255
1.54152 0.740146 4.48763 0 0 0 255 255 255 255
1.23255 1.12333 4.34423 0 0 0 255 255 255 255
0.941415 0.68397 5.01155 0 0 0 255 255 255 255
1.73595 0.121635 4.59852 0 0 0 255 255 255 255
1.9424 0.131532 4.6174 0 0 0 255 255 255 255
1.91865 0.141887 4.48274 0 0 0 255 255 255 255
2.0229 0.22598 4.43066 0 0 0 255 255 255 255
1.7138 0.115754 4.64061 0 0 0 255 255 255 255
1.93918 0.149255 4.48599 0 0 0 255 255 255 255
1.94619 0.137054 4.61046 0 0 0 255 255 255 255
2.00921 0.153304 4.74778 0 0 0 255 255 255 255
1.64285 0.362757 4.14663 0 0 0 255 255 255 255
1.63232 0.444341 4.2253 0 0 0 255 255 255 255
1.61227 0.400074 4.13733 0 0 0 255 255 255 255
1.61704 0.434377 4.34283 0 0 0 255 255 255 255
1.65801 0.372455 4.35002 0 0 0 255 255 255 255
1.6502 0.436342 4.40421 0 0 0 255 255 255 255
1.88395 0.972661 4.10118 0 0 0 255 255 255 255
1.73625 0.895803 4.59434 0 0 0 255 255 255 255
1.73243 0.892103 4.59751 0 0 0 255 255 255 255
1.76528 0.968156 4.29408 0 0 0 255 255 255 255
1.92265 1.12902 4.67129 0 0 0 255 255 255 255
1.70286 0.872809 5.24828 0 0 0 255 255 255 255
0.463176 1.69427 2.90242 0 0 0 255 255 255 255
0.491781 1.7901 2.90233 0 0 0 255 255 255 255
0.490112 1.93745 2.96143 0 0 0 255 255 255 255
0.0281651 1.52678 3.77078 0 0 0 255 255 255 255
0.0472767 1.78839 3.38606 0 0 0 255 255 255 255
0.0270795 1.81093 3.38347 0 0 0 255 255 255 255
0.0437143 1.78289 3.37917 0 0 0 255 255 255 255
0.135459 1.70187 3.41191 0 0 0 255 255 255 255
0.364452 1.56226 3.31699 0 0 0 255 255 255 255
0.314402 1.76133 3.14272 0 0 0 255 255 255 255
0.429302 1.74346 3.18337 0 0 0 255 255 255 255
0.315666 1.76533 3.14544 0 0 0 255 255 255 255
0.434205 1.75116 3.38359 0 0 0 255 255 255 255
0.372793 1.92433 3.09622 0 0 0 255 255 255 255
0.449501 1.91082 3.35637 0 0 0 255 255 255 255
0.527761 1.65734 3.7319 0 0 0 255 255 255 255
0.222008 2.26281 2.73883 0 0 0 255 255 255 255
0.399814 2.35763 2.49989 0 0 0 255 255 255 255
0.719256 2.24488 2.75003 0 0 0 255 255 255 255
0.676324 2.25536 2.9962 0 0 0 255 255 255 255
0.669967 2.25733 2.99818 0 0 0 255 255 255 255
0.437149 2.0694 3.0595 0 0 0 255 255 255 255
0.437955 2.06902 3.05381 0 0 0 255 255 255 255
0.340824 2.21177 3.51853 0 0 0 255 255 255 255
-0.30447 1.4408 4.25918 0 0 0 255 255 255 255
-0.366356 1.48779 4.20603 0 0 0 255 255 255 255
-0.154882 1.35875 4.34111 0 0 0 255 255 255 255
-0.115558 1.1977 4.34459 0 0 0 255 255 255 255
-0.161387 1.30852 4.34141 0 0 0 255 255 255 255
-0.0710981 1.5503 3.94339 0 0 0 255 255 255 255
0.0985048 1.30151 4.31711 0 0 0 255 255 255 255
0.0903659 1.17414 4.31768 0 0 0 255 255 255 255
0.09275 1.34005 4.34608 0 0 0 255 255 255 255
-0.0766268 1.23879 4.3634 0 0 0 255 255 255 255
0.0958131 1.18127 4.33543 0 0 0 255 255 255 255
-0.10284 1.22643 4.33908 0 0 0 255 255 255 255
0.0377338 1.47956 4.31671 0 0 0 255 255 255 255
0.108484 1.30909 4.38192 0 0 0 255 255 255 255
0.190356 1.19986 4.47222 0 0 0 255 255 255 255
0.0998434 1.2505 4.30161 0 0 0 255 255 255 255
0.100684 1.20632 4.37147 0 0 0 255 255 255 255
0.184081 1.22562 4.52756 0 0 0 255 255 255 255
0.295494 1.56526 4.21945 0 0 0 255 255 255 255
0.357067 1.20949 4.55166 0 0 0 255 255 255 255
0.718908 1.55253 4.40574 0 0 0 255 255 255 255
0.589519 1.65972 3.88424 0 0 0 255 255 255 255
0.441118 1.61056 4.2681 0 0 0 255 255 255 255
0.501384 1.68559 4.16441 0 0 0 255 255 255 255
0.584244 1.69766 3.96478 0 0 0 255 255 255 255
0.698206 1.74097 4.53769 0 0 0 255 255 255 255
0.672368 1.6922 4.57233 0 0 0 255 255 255 255
0.484255 1.60391 4.48105 0 0 0 255 255 255 255
0.426983 1.6293 4.44534 0 0 0 255 255 255 255
0.425696 1.65729 4.42087 0 0 0 255 255 255 255
0.482683 1.81845 4.48421 0 0 0 255 255 255 255
1.4937 2.56837 2.37215 0 0 0 255 255 255 255
0.913674 2.27622 3.36377 0 0 0 255 255 255 255
0.927965 2.28384 3.33759 0 0 0 255 255 255 255
0.932104 2.29785 3.38268 0 0 0 255 255 255 255
1.08083 2.25138 3.81774 0 0 0 255 255 255 255
1.21723 2.29709 3.30647 0 0 0 255 255 255 255
1.19566 2.31089 3.30954 0 0 0 255 255 255 255
1.22023 2.29409 3.30702 0 0 0 255 255 255 255
1.1882 2.32576 3.34698 0 0 0 255 255 255 255
1.18652 2.32405 3.34782 0 0 0 255 255 255 255
1.2118 2.30669 3.33825 0 0 0 255 255 255 255
1.47986 2.12156 3.59695 0 0 0 255 255 255 255
1.59941 2.08737 3.60121 0 0 0 255 255 255 255
2.13832 2.30513 3.81521 0 0 0 255 255 255 255
0.997209 1.14708 4.69703 0 0 0 255 255 255 255
0.983078 1.47014 4.42503 0 0 0 255 255 255 255
1.13017 1.28997 4.2858 0 0 0 255 255 255 255
0.986798 1.48234 4.42497 0 0 0 255 255 255 255
1.08089 1.9075 4.25332 0 0 0 255 255 255 255
1.01079 1.83288 4.24329 0 0 0 255 255 255 255
1.07476 1.89137 4.14552 0 0 0 255 255 255 255
0.756638 1.57675 4.54469 0 0 0 255 255 255 255
1.11761 1.8669 4.34381 0 0 0 255 255 255 255
0.898516 1.83522 4.57467 0 0 0 255 255 255 255
0.767187 1.58052 4.53791 0 0 0 255 255 255 255
0.905933 1.89369 4.62535 0 0 0 255 255 255 255
1.22724 1.22458 4.26916 0 0 0 255 255 255 255
1.22088 1.25566 4.22616 0 0 0 255 255 255 255
1.19173 1.31115 4.38784 0 0 0 255 255 255 255
1.24933 1.17244 4.31277 0 0 0 255 255 255 255
1.19917 1.17989 4.34825 0 0 0 255 255 255 255
1.24359 1.17427 4.33145 0 0 0 255 255 255 255
1.43632 2.26793 4.00966 0 0 0 255 255 255 255
1.40437 2.01251 3.94588 0 0 0 255 255 255 255
1.90704 1.35513 4.69374 0 0 0 255 255 255 255
1.93224 1.28636 4.50787 0 0 0 255 255 255 255
1.95859 1.28248 4.52522 0 0 0 255 255 255 255
1.97554 1.36027 4.6904 0 0 0 255 255 255 255
1.87648 1.31904 4.69944 0 0 0 255 255 255 255
1.85118 1.28741 4.47211 0 0 0 255 255 255 255
1.97033 1.95357 4.1126 0 0 0 255 255 255 255
1.81746 1.6767 4.33227 0 0 0 255 255 255 255
1.79447 1.9315 4.38979 0 0 0 255 255 255 255
1.88417 1.94726 4.5205 0 0 0 255 255 255 255
1.8764 1.88088 4.33977 0 0 0 255 255 255 255
1.82842 1.72339 4.52205 0 0 0 255 255 255 255
1.87509 1.92886 4.56866 0 0 0 255 255 255 255
1.80776 1.93702 4.45604 0 0 0 255 255 255 255
1.86242 1.9175 4.53183 0 0 0 255 255 255 255
1.89313 1.58532 4.64649 0 0 0 255 255 255 255
1.89187 1.57372 4.32538 0 0 0 255 255 255 255
2.32912 1.54843 4.25389 0 0 0 255 255 255 255
2.13537 1.30537 4.5791 0 0 0 255 255 255 255
2.06099 1.54745 4.4234 0 0 0 255 255 255 255
2.23223 1.21972 4.43355 0 0 0 255 255 255 255
2.43247 1.40294 4.29179 0 0 0 255 255 255 255
2.42312 1.38497 4.35651 0 0 0 255 255 255 255
2.35005 1.5199 4.42107 0 0 0 255 255 255 255
2.41182 1.40486 4.39575 0 0 0 255 255 255 255
2.39289 1.47835 4.53101 0 0 0 255 255 255 255
2.3435 1.55722 4.50596 0 0 0 255 255 255 255
2.20202 1.7868 4.67184 0 0 0 255 255 255 255
2.39143 1.81414 4.53203 0 0 0 255 255 255 255
2.41503 1.6057 4.44843 0 0 0 255 255 255 255
1.98527 1.34499 4.8104 0 0 0 255 255 255 255
1.87886 1.31903 4.71958 0 0 0 255 255 255 255
1.824 1.80039 4.83779 0 0 0 255 255 255 255
1.85464 2.26637 3.95733 0 0 0 255 255 255 255
1.98071 2.01471 4.29792 0 0 0 255 255 255 255
1.89961 2.2112 4.3913 0 0 0 255 255 255 255
2.22725 2.20077 4.1504 0 0 0 255 255 255 255
2.21432 2.32921 3.919 0 0 0 255 255 255 255
2.43161 2.23144 4.09612 0 0 0 255 255 255 255
2.41195 2.28398 4.07846 0 0 0 255 255 255 255
2.41487 2.20942 4.3973 0 0 0 255 255 255 255
2.29135 2.08789 4.54527 0 0 0 255 255 255 255
2.21244 2.09405 4.52231 0 0 0 255 255 255 255
2.33943 2.16937 4.32042 0 0 0 255 255 255 255
2.0374 2.32479 5.1451 0 0 0 255 255 255 255
3.53913 0.681662 3.38502 0 0 0 255 255 255 255
3.47313 0.675775 3.5785 0 0 0 255 255 255 255
3.42886 0.66172 3.69344 0 0 0 255 255 255 255
3.43167 0.639259 3.81856 0 0 0 255 255 255 255
3.42834 0.663242 3.68951 0 0 0 255 255 255 255
3.58516 0.640554 3.60079 0 0 0 255 255 255 255
3.56408 0.600704 3.78749 0 0 0 255 255 255 255
3.60484 0.746641 3.35346 0 0 0 255 255 255 255
3.56338 0.712972 3.42796 0 0 0 255 255 255 255
3.56319 0.712959 3.42758 0 0 0 255 255 255 255
3.46527 0.799133 3.63154 0 0 0 255 255 255 255
3.43808 0.782404 3.67477 0 0 0 255 255 255 255
3.43581 0.756761 3.68021 0 0 0 255 255 255 255
3.43723 0.966527 3.75879 0 0 0 255 255 255 255
3.54444 0.781753 3.47 0 0 0 255 255 255 255
3.51323 0.822477 3.54936 0 0 0 255 255 255 255
3.60585 0.877094 3.81019 0 0 0 255 255 255 255
3.62303 0.921814 3.79961 0 0 0 255 255 255 255
3.60405 1.12704 3.5654 0 0 0 255 255 255 255
3.5537 0.952506 3.54798 0 0 0 255 255 255 255
3.52263 1.00406 3.64358 0 0 0 255 255 255 255
3.55277 0.950802 3.54841 0 0 0 255 255 255 255
3.54708 0.939913 3.54951 0 0 0 255 255 255 255
3.76593 0.463115 3.84026 0 0 0 255 255 255 255
3.92183 0.817799 3.12441 0 0 0 255 255 255 255
3.74846 1.05016 3.19989 0 0 0 255 255 255 255
3.87173 1.09112 3.1508 0 0 0 255 255 255 255
2.59697 0.711091 4.30325 0 0 0 255 255 255 255
3.2185 0.661139 4.03509 0 0 0 255 255 255 255
3.25948 0.429465 4.13447 0 0 0 255 255 255 255
3.26953 0.346389 4.27651 0 0 0 255 255 255 255
3.1952 0.455933 4.07987 0 0 0 255 255 255 255
3.18693 0.580897 3.9474 0 0 0 255 255 255 255
3.25978 0.663087 4.11084 0 0 0 255 255 255 255
3.27187 0.459163 4.10728 0 0 0 255 255 255 255
3.24842 0.485697 4.07746 0 0 0 255 255 255 255
3.18706 0.430637 3.98219 0 0 0 255 255 255 255
3.18582 0.413258 3.91388 0 0 0 255 255 255 255
3.25184 0.428846 4.13737 0 0 0 255 255 255 255
3.24698 0.347942 4.16696 0 0 0 255 255 255 255
3.23685 0.354656 4.13287 0 0 0 255 255 255 255
3.28452 0.332935 4.40256 0 0 0 255 255 255 255
3.19696 0.918844 4.14343 0 0 0 255 255 255 255
3.26396 0.850164 4.10536 0 0 0 255 255 255 255
3.1846 0.90408 4.14246 0 0 0 255 255 255 255
3.19302 0.881104 4.13581 0 0 0 255 255 255 255
3.16613 0.93542 4.10308 0 0 0 255 255 255 255
3.22564 0.988108 4.33552 0 0 0 255 255 255 255
3.23408 1.00344 4.30537 0 0 0 255 255 255 255
3.00101 0.798591 5.00344 0 0 0 255 255 255 255
3.57411 0.349314 4.11043 0 0 0 255 255 255 255
3.49085 0.356253 4.08886 0 0 0 255 255 255 255
3.65252 0.350658 4.17286 0 0 0 255 255 255 255
3.43967 0.29689 4.39198 0 0 0 255 255 255 255
3.43857 0.302279 4.38489 0 0 0 255 255 255 255
3.33064 0.353674 4.38584 0 0 0 255 255 255 255
3.34264 0.354567 4.39101 0 0 0 255 255 255 255
3.45636 0.89489 4.08974 0 0 0 255 255 255 255
3.44841 0.961594 3.88031 0 0 0 255 255 255 255
3.60133 1.13568 3.90231 0 0 0 255 255 255 255
3.60166 1.02591 3.94942 0 0 0 255 255 255 255
3.5246 0.9887 4.03717 0 0 0 255 255 255 255
3.50872 0.965558 4.13212 0 0 0 255 255 255 255
3.76713 0.400314 4.00201 0 0 0 255 255 255 255
3.7767 0.422597 3.91799 0 0 0 255 255 255 255
3.74685 0.453903 3.94985 0 0 0 255 255 255 255
4.18712 0.545457 3.68624 0 0 0 255 255 255 255
3.1708 -0.125343 7.99279 0 0 0 255 255 255 255
4.42849 -0.0463371 8.75604 0 0 0 255 255 255 255
3.209 -0.110568 8.07624 0 0 0 255 255 255 255
3.6372 -0.0494149 8.05125 0 0 0 255 255 255 255
4.15408 -0.447521 8.55636 0 0 0 255 255 255 255
3.68776 -0.0446152 8.14295 0 0 0 255 255 255 255
3.36722 -0.365976 8.20678 0 0 0 255 255 255 255
4.34479 -0.362674 8.93108 0 0 0 255 255 255 255
3.70575 -0.0693317 8.16192 0 0 0 255 255 255 255
3.22871 2.33504 3.36113 0 0 0 255 255 255 255
3.68711 1.15335 3.68539 0 0 0 255 255 255 255
3.63199 1.38165 3.58195 0 0 0 255 255 255 255
3.693 1.17741 3.64855 0 0 0 255 255 255 255
3.67211 1.16184 3.68197 0 0 0 255 255 255 255
3.70309 1.66548 3.62755 0 0 0 255 255 255 255
3.86787 1.14666 3.17556 0 0 0 255 255 255 255
3.87843 1.45444 3.27414 0 0 0 255 255 255 255
3.89654 1.45267 3.29587 0 0 0 255 255 255 255
3.73172 1.14012 3.74447 0 0 0 255 255 255 255
3.7384 1.16099 3.73917 0 0 0 255 255 255 255
3.87248 1.37813 3.46758 0 0 0 255 255 255 255
3.88207 1.41097 3.44579 0 0 0 255 255 255 255
3.82099 1.45165 3.81041 0 0 0 255 255 255 255
3.73377 1.42481 3.68762 0 0 0 255 255 255 255
4.01971 1.56409 3.42913 0 0 0 255 255 255 255
3.81442 1.8001 3.52831 0 0 0 255 255 255 255
3.8205 1.80298 3.52364 0 0 0 255 255 255 255
3.89164 2.35608 3.66129 0 0 0 255 255 255 255
3.9516 2.36235 3.71355 0 0 0 255 255 255 255
4.05338 2.30419 3.80868 0 0 0 255 255 255 255
3.79439 2.34676 3.75111 0 0 0 255 255 255 255
3.93991 2.30096 3.65989 0 0 0 255 255 255 255
3.95062 2.36404 3.70544 0 0 0 255 255 255 255
4.04129 2.26209 3.75567 0 0 0 255 255 255 255
3.94214 2.20165 3.60641 0 0 0 255 255 255 255
4.13272 2.3606 3.85394 0 0 0 255 255 255 255
2.60586 1.52682 4.25687 0 0 0 255 255 255 255
2.64079 1.50278 4.23912 0 0 0 255 255 255 255
2.54613 1.23572 4.43508 0 0 0 255 255 255 255
2.62176 1.28404 4.37911 0 0 0 255 255 255 255
2.62232 1.27882 4.36852 0 0 0 255 255 255 255
2.57165 1.22853 4.37331 0 0 0 255 255 255 255
2.62865 1.54353 4.35183 0 0 0 255 255 255 255
2.57638 1.2037 4.37821 0 0 0 255 255 255 255
2.59622 1.21619 4.37024 0 0 0 255 255 255 255
2.72552 1.32957 4.34857 0 0 0 255 255 255 255
2.61979 1.57813 4.23916 0 0 0 255 255 255 255
2.67719 1.63145 4.38613 0 0 0 255 255 255 255
2.70954 1.85752 4.31497 0 0 0 255 255 255 255
2.50377 1.72235 4.36821 0 0 0 255 255 255 255
2.66229 1.56442 4.401 0 0 0 255 255 255 255
2.7066 1.86749 4.34829 0 0 0 255 255 255 255
2.71866 1.83848 4.3242 0 0 0 255 255 255 255
2.48564 1.61628 4.54012 0 0 0 255 255 255 255
3.04917 1.27585 4.13154 0 0 0 255 255 255 255
3.00053 1.34787 4.24511 0 0 0 255 255 255 255
2.99299 1.34949 4.14089 0 0 0 255 255 255 255
2.95534 1.1994 4.21484 0 0 0 255 255 255 255
2.95033 1.3653 4.03401 0 0 0 255 255 255 255
3.03561 1.46392 4.1203 0 0 0 255 255 255 255
2.99043 1.35618 4.13863 0 0 0 255 255 255 255
3.04498 1.44814 4.23537 0 0 0 255 255 255 255
3.07256 1.47019 4.18128 0 0 0 255 255 255 255
2.9306 1.39068 4.11413 0 0 0 255 255 255 255
3.09073 1.31908 4.20754 0 0 0 255 255 255 255
3.12621 1.14851 4.10331 0 0 0 255 255 255 255
3.1304 1.15207 4.10299 0 0 0 255 255 255 255
3.17402 1.22085 4.25743 0 0 0 255 255 255 255
3.12253 1.29764 4.07549 0 0 0 255 255 255 255
3.13629 1.21219 4.25456 0 0 0 255 255 255 255
3.22135 1.338 4.34811 0 0 0 255 255 255 255
3.21099 1.18292 4.37065 0 0 0 255 255 255 255
2.95138 1.21995 4.43003 0 0 0 255 255 255 255
3.02197 1.59762 4.20826 0 0 0 255 255 255 255
3.03349 1.59232 4.14781 0 0 0 255 255 255 255
3.0493 1.69012 4.22474 0 0 0 255 255 255 255
3.07197 1.58349 4.29423 0 0 0 255 255 255 255
3.05734 1.61026 4.28717 0 0 0 255 255 255 255
2.51123 2.17905 4.34574 0 0 0 255 255 255 255
3.1263 2.1401 4.34636 0 0 0 255 255 255 255
3.12037 2.13107 4.5639 0 0 0 255 255 255 255
3.0617 2.07571 4.33203 0 0 0 255 255 255 255
3.10156 2.13487 4.32005 0 0 0 255 255 255 255
3.07704 2.03368 4.35271 0 0 0 255 255 255 255
3.18733 2.04645 4.49409 0 0 0 255 255 255 255
3.19255 2.04277 4.47863 0 0 0 255 255 255 255
3.32556 1.69443 4.23378 0 0 0 255 255 255 255
3.56955 1.79132 3.9202 0 0 0 255 255 255 255
3.3489 1.64227 4.22984 0 0 0 255 255 255 255
3.40736 1.95171 4.21235 0 0 0 255 255 255 255
3.35735 1.95341 4.2468 0 0 0 255 255 255 255
3.49355 2.26493 4.05329 0 0 0 255 255 255 255
3.47964 2.23402 4.13444 0 0 0 255 255 255 255
3.4982 2.23811 4.1759 0 0 0 255 255 255 255
3.52407 2.21784 4.00622 0 0 0 255 255 255 255
4.99178 2.11576 4.76768 0 0 0 255 255 255 255
5.02081 2.03832 4.77654 0 0 0 255 255 255 255
5.15536 2.09452 4.9398 0 0 0 255 255 255 255
