ply
format ascii 1.0
comment VCGLIB generated
element vertex 17
property float x
property float y
property float z
property float nx
property float ny
property float nz
property uchar red
property uchar green
property uchar blue
property uchar alpha
element face 0
property list uchar int vertex_indices
end_header
2.43732 1.61763 4.32953 0 0 0 0 255 255 255
2.45748 1.62644 4.32953 0 0 0 0 255 255 255
2.38663 1.58878 4.33866 0 0 0 0 255 255 255
2.36665 1.52713 4.41089 0 0 0 0 255 255 255
2.35125 1.51492 4.41837 0 0 0 0 255 255 255
2.46301 1.56134 4.42169 0 0 0 0 255 255 255
2.47141 1.5571 4.43248 0 0 0 0 255 255 255
2.37021 1.49401 4.45822 0 0 0 0 255 255 255
2.47562 1.52001 4.48562 0 0 0 0 255 255 255
2.12979 1.35243 4.50803 0 0 0 0 255 255 255
2.40045 1.45978 4.52298 0 0 0 0 255 255 255
2.39852 1.44921 4.53626 0 0 0 0 255 255 255
2.35477 1.42947 4.53709 0 0 0 0 255 255 255
2.51525 1.48928 4.55121 0 0 0 0 255 255 255
2.14222 1.3165 4.56449 0 0 0 0 255 255 255
2.04874 1.2732 4.56781 0 0 0 0 255 255 255
2.18911 1.32908 4.57529 0 0 0 0 255 255 255
