ply
format ascii 1.0
comment VCGLIB generated
element vertex 500
property float x
property float y
property float z
property float nx
property float ny
property float nz
property uchar red
property uchar green
property uchar blue
property uchar alpha
element face 0
property list uchar int vertex_indices
end_header
4.19088 0.642845 3.38148 0 0 0 255 255 0 255
4.17064 0.611629 3.39617 0 0 0 255 255 0 255
4.16729 0.626775 3.39923 0 0 0 255 255 0 255
4.16544 0.639859 3.40107 0 0 0 255 255 0 255
4.16185 0.64901 3.40413 0 0 0 255 255 0 255
4.12303 0.845719 3.44025 0 0 0 255 255 0 255
4.11772 0.811904 3.44332 0 0 0 255 255 0 255
4.10826 0.931378 3.45434 0 0 0 255 255 0 255
4.10027 0.988744 3.46229 0 0 0 255 255 0 255
4.09716 1.0299 3.46597 0 0 0 255 255 0 255
4.09222 0.926015 3.46658 0 0 0 255 255 0 255
4.07881 0.650331 3.46842 0 0 0 255 255 0 255
4.07111 0.655643 3.47454 0 0 0 255 255 0 255
4.06807 0.658767 3.47699 0 0 0 255 255 0 255
4.07834 1.15275 3.48433 0 0 0 255 255 0 255
4.077 1.15881 3.48556 0 0 0 255 255 0 255
4.04427 0.854875 3.50148 0 0 0 255 255 0 255
4.05319 1.17678 3.50454 0 0 0 255 255 0 255
4.05292 1.26886 3.5076 0 0 0 255 255 0 255
4.04209 1.17622 3.51311 0 0 0 255 255 0 255
4.02156 1.86959 3.55046 0 0 0 255 255 0 255
3.98067 1.02555 3.55597 0 0 0 255 255 0 255
3.97893 1.02162 3.55719 0 0 0 255 255 0 255
3.97889 1.02062 3.55719 0 0 0 255 255 0 255
3.97182 1.10097 3.56515 0 0 0 255 255 0 255
3.9467 0.532518 3.56699 0 0 0 255 255 0 255
3.9632 1.10331 3.57188 0 0 0 255 255 0 255
3.99199 2.00088 3.57739 0 0 0 255 255 0 255
3.99058 2.02496 3.57923 0 0 0 255 255 0 255
3.93074 0.529153 3.57923 0 0 0 255 255 0 255
3.9503 1.03778 3.57984 0 0 0 255 255 0 255
3.96236 1.39858 3.58168 0 0 0 255 255 0 255
3.94281 0.989038 3.58413 0 0 0 255 255 0 255
3.94282 1.00905 3.58474 0 0 0 255 255 0 255
3.9427 1.00606 3.58474 0 0 0 255 255 0 255
3.94579 1.12303 3.58597 0 0 0 255 255 0 255
3.94172 1.02111 3.58597 0 0 0 255 255 0 255
3.93539 1.10042 3.59331 0 0 0 255 255 0 255
3.93038 1.11363 3.5976 0 0 0 255 255 0 255
3.96268 2.00005 3.60005 0 0 0 255 255 0 255
3.92482 1.13287 3.6025 0 0 0 255 255 0 255
3.95054 1.79537 3.60311 0 0 0 255 255 0 255
3.91674 1.0101 3.60494 0 0 0 255 255 0 255
3.91803 1.14115 3.60801 0 0 0 255 255 0 255
3.91656 1.1242 3.60862 0 0 0 255 255 0 255
3.90814 1.03246 3.61229 0 0 0 255 255 0 255
3.90494 1.11065 3.61719 0 0 0 255 255 0 255
3.88143 0.602183 3.61964 0 0 0 255 255 0 255
3.88852 0.977199 3.62576 0 0 0 255 255 0 255
3.88848 0.9762 3.62576 0 0 0 255 255 0 255
3.88603 0.974296 3.6276 0 0 0 255 255 0 255
3.92323 2.27985 3.63923 0 0 0 255 255 0 255
3.8684 1.10711 3.64535 0 0 0 255 255 0 255
3.86654 1.10018 3.64658 0 0 0 255 255 0 255
3.86515 1.08522 3.64719 0 0 0 255 255 0 255
3.89386 1.82266 3.6478 0 0 0 255 255 0 255
3.83403 0.762206 3.66127 0 0 0 255 255 0 255
3.88149 1.96827 3.66188 0 0 0 255 255 0 255
3.83245 0.762269 3.66249 0 0 0 255 255 0 255
3.83237 0.76027 3.66249 0 0 0 255 255 0 255
3.8758 1.9645 3.66617 0 0 0 255 255 0 255
3.87505 1.96553 3.66678 0 0 0 255 255 0 255
3.87406 1.96056 3.66739 0 0 0 255 255 0 255
3.82988 1.01457 3.67229 0 0 0 255 255 0 255
3.83641 1.19746 3.6729 0 0 0 255 255 0 255
3.8259 0.954684 3.67351 0 0 0 255 255 0 255
3.8257 0.949688 3.67351 0 0 0 255 255 0 255
3.82077 0.885834 3.67535 0 0 0 255 255 0 255
3.83067 1.17267 3.67658 0 0 0 255 255 0 255
3.82283 0.976825 3.67658 0 0 0 255 255 0 255
3.83063 1.19168 3.67719 0 0 0 255 255 0 255
3.86552 2.12303 3.67902 0 0 0 255 255 0 255
3.81623 0.89102 3.67902 0 0 0 255 255 0 255
3.81331 0.818078 3.67902 0 0 0 255 255 0 255
3.85854 1.96819 3.67964 0 0 0 255 255 0 255
3.81264 0.821108 3.67964 0 0 0 255 255 0 255
3.81072 0.773146 3.67964 0 0 0 255 255 0 255
3.81901 0.999996 3.68025 0 0 0 255 255 0 255
3.81256 0.898172 3.68209 0 0 0 255 255 0 255
3.85757 2.10234 3.68454 0 0 0 255 255 0 255
3.82039 1.17308 3.68454 0 0 0 255 255 0 255
3.82064 1.19909 3.68515 0 0 0 255 255 0 255
3.82052 1.19609 3.68515 0 0 0 255 255 0 255
3.80338 0.787451 3.68576 0 0 0 255 255 0 255
3.8022 0.797506 3.68698 0 0 0 255 255 0 255
3.80072 0.760536 3.68698 0 0 0 255 255 0 255
3.8264 1.42204 3.6876 0 0 0 255 255 0 255
3.79914 0.760599 3.68821 0 0 0 255 255 0 255
3.8512 2.08157 3.68882 0 0 0 255 255 0 255
3.80279 0.871542 3.68882 0 0 0 255 255 0 255
3.80139 0.83657 3.68882 0 0 0 255 255 0 255
3.85093 2.09459 3.68943 0 0 0 255 255 0 255
3.8062 0.976489 3.68943 0 0 0 255 255 0 255
3.85022 2.09663 3.69004 0 0 0 255 255 0 255
3.84954 2.07964 3.69004 0 0 0 255 255 0 255
3.84951 2.09865 3.69066 0 0 0 255 255 0 255
3.81317 1.19038 3.69066 0 0 0 255 255 0 255
3.8093 1.09346 3.69066 0 0 0 255 255 0 255
3.80922 1.09146 3.69066 0 0 0 255 255 0 255
3.80327 0.962595 3.69127 0 0 0 255 255 0 255
3.80332 0.98361 3.69188 0 0 0 255 255 0 255
3.80754 1.14857 3.69372 0 0 0 255 255 0 255
3.7958 0.874824 3.69433 0 0 0 255 255 0 255
3.7956 0.869828 3.69433 0 0 0 255 255 0 255
3.78835 0.74802 3.69617 0 0 0 255 255 0 255
3.78831 0.747021 3.69617 0 0 0 255 255 0 255
3.80306 1.19479 3.69862 0 0 0 255 255 0 255
3.80256 1.22183 3.69984 0 0 0 255 255 0 255
3.79995 1.21593 3.70168 0 0 0 255 255 0 255
3.79884 1.20797 3.70229 0 0 0 255 255 0 255
3.79246 1.06811 3.7029 0 0 0 255 255 0 255
3.78505 0.942307 3.70474 0 0 0 255 255 0 255
3.7851 0.963322 3.70535 0 0 0 255 255 0 255
3.78975 1.09925 3.70596 0 0 0 255 255 0 255
3.79387 1.22218 3.70658 0 0 0 255 255 0 255
3.77849 0.857502 3.70719 0 0 0 255 255 0 255
3.78298 0.989428 3.7078 0 0 0 255 255 0 255
3.7863 1.09238 3.70841 0 0 0 255 255 0 255
3.78903 1.18034 3.70902 0 0 0 255 255 0 255
3.78725 1.17541 3.71025 0 0 0 255 255 0 255
3.7829 1.06649 3.71025 0 0 0 255 255 0 255
3.78659 1.19845 3.71147 0 0 0 255 255 0 255
3.77159 0.882798 3.71331 0 0 0 255 255 0 255
3.79435 1.47136 3.71392 0 0 0 255 255 0 255
3.7826 1.19761 3.71453 0 0 0 255 255 0 255
3.77781 1.17678 3.7176 0 0 0 255 255 0 255
3.7712 1.05095 3.71882 0 0 0 255 255 0 255
3.75829 0.748222 3.71943 0 0 0 255 255 0 255
3.77597 1.20988 3.72004 0 0 0 255 255 0 255
3.78338 1.41475 3.72066 0 0 0 255 255 0 255
3.76958 1.07003 3.72066 0 0 0 255 255 0 255
3.75727 0.762274 3.72066 0 0 0 255 255 0 255
3.76745 1.07612 3.72249 0 0 0 255 255 0 255
3.7663 1.06716 3.72311 0 0 0 255 255 0 255
3.77967 1.42091 3.72372 0 0 0 255 255 0 255
3.76836 1.15815 3.72433 0 0 0 255 255 0 255
3.78272 1.53688 3.72494 0 0 0 255 255 0 255
3.75106 0.745509 3.72494 0 0 0 255 255 0 255
3.75323 0.819481 3.72555 0 0 0 255 255 0 255
3.7762 1.45307 3.72739 0 0 0 255 255 0 255
3.75444 0.948536 3.72862 0 0 0 255 255 0 255
3.75364 0.928552 3.72862 0 0 0 255 255 0 255
3.74486 0.748759 3.72984 0 0 0 255 255 0 255
3.74375 0.819861 3.7329 0 0 0 255 255 0 255
3.7664 1.42544 3.73413 0 0 0 255 255 0 255
3.74365 0.856894 3.73413 0 0 0 255 255 0 255
3.74106 0.811962 3.73474 0 0 0 255 255 0 255
3.77428 1.72136 3.73719 0 0 0 255 255 0 255
3.76236 1.4236 3.73719 0 0 0 255 255 0 255
3.74041 0.934086 3.73902 0 0 0 255 255 0 255
3.73433 0.86127 3.74147 0 0 0 255 255 0 255
3.79143 2.32816 3.7427 0 0 0 255 255 0 255
3.74383 1.15813 3.74331 0 0 0 255 255 0 255
3.72717 0.761477 3.74392 0 0 0 255 255 0 255
3.7897 2.34424 3.74453 0 0 0 255 255 0 255
3.72107 0.64863 3.74515 0 0 0 255 255 0 255
3.75135 1.44506 3.74637 0 0 0 255 255 0 255
3.73097 0.935464 3.74637 0 0 0 255 255 0 255
3.72697 0.835544 3.74637 0 0 0 255 255 0 255
3.76204 1.73186 3.74698 0 0 0 255 255 0 255
3.72827 0.90755 3.74759 0 0 0 255 255 0 255
3.73752 1.1784 3.74882 0 0 0 255 255 0 255
3.72801 0.940587 3.74882 0 0 0 255 255 0 255
3.7452 1.39026 3.74943 0 0 0 255 255 0 255
3.73521 1.14046 3.74943 0 0 0 255 255 0 255
3.72586 0.906645 3.74943 0 0 0 255 255 0 255
3.71487 0.651881 3.75004 0 0 0 255 255 0 255
3.78124 2.33057 3.75066 0 0 0 255 255 0 255
3.72109 0.846788 3.75127 0 0 0 255 255 0 255
3.7793 2.32164 3.75188 0 0 0 255 255 0 255
3.72664 1.06474 3.75372 0 0 0 255 255 0 255
3.75045 1.6993 3.75494 0 0 0 255 255 0 255
3.7287 1.15573 3.75494 0 0 0 255 255 0 255
3.72414 1.04182 3.75494 0 0 0 255 255 0 255
3.71496 0.832021 3.75555 0 0 0 255 255 0 255
3.71195 0.816129 3.75739 0 0 0 255 255 0 255
3.70543 0.653259 3.75739 0 0 0 255 255 0 255
3.77192 2.33495 3.758 0 0 0 255 255 0 255
3.77097 2.33098 3.75862 0 0 0 255 255 0 255
3.77021 2.312 3.75862 0 0 0 255 255 0 255
3.71545 0.963106 3.75923 0 0 0 255 255 0 255
3.71018 0.831212 3.75923 0 0 0 255 255 0 255
3.73173 1.3898 3.75984 0 0 0 255 255 0 255
3.71858 1.06106 3.75984 0 0 0 255 255 0 255
3.71474 0.965136 3.75984 0 0 0 255 255 0 255
3.702 0.666407 3.76045 0 0 0 255 255 0 255
3.70156 0.655416 3.76045 0 0 0 255 255 0 255
3.7155 1.06318 3.76229 0 0 0 255 255 0 255
3.70475 0.794399 3.76229 0 0 0 255 255 0 255
3.69955 0.664503 3.76229 0 0 0 255 255 0 255
3.74885 1.91653 3.7629 0 0 0 255 255 0 255
3.72588 1.38202 3.76413 0 0 0 255 255 0 255
3.72706 1.45103 3.76535 0 0 0 255 255 0 255
3.71571 1.16726 3.76535 0 0 0 255 255 0 255
3.70651 0.937443 3.76535 0 0 0 255 255 0 255
3.70368 1.04464 3.77086 0 0 0 255 255 0 255
3.71648 1.3844 3.77147 0 0 0 255 255 0 255
3.69985 0.968734 3.77147 0 0 0 255 255 0 255
3.70219 1.06672 3.7727 0 0 0 255 255 0 255
3.73502 1.90708 3.77331 0 0 0 255 255 0 255
3.69102 0.826974 3.77392 0 0 0 255 255 0 255
3.73384 1.91713 3.77453 0 0 0 255 255 0 255
3.69346 0.907941 3.77453 0 0 0 255 255 0 255
3.69323 0.921962 3.77515 0 0 0 255 255 0 255
3.70037 1.13985 3.77637 0 0 0 255 255 0 255
3.68679 0.820138 3.77698 0 0 0 255 255 0 255
3.67995 0.649275 3.77698 0 0 0 255 255 0 255
3.67948 0.6573 3.77759 0 0 0 255 255 0 255
3.6788 0.640313 3.77759 0 0 0 255 255 0 255
3.72416 1.91252 3.78188 0 0 0 255 255 0 255
3.67223 0.614555 3.78188 0 0 0 255 255 0 255
3.67256 0.642565 3.78249 0 0 0 255 255 0 255
3.68753 1.13536 3.78617 0 0 0 255 255 0 255
3.66723 0.647782 3.78678 0 0 0 255 255 0 255
3.66599 0.616807 3.78678 0 0 0 255 255 0 255
3.69562 1.37723 3.78739 0 0 0 255 255 0 255
3.68085 1.04756 3.78861 0 0 0 255 255 0 255
3.68215 1.11956 3.78984 0 0 0 255 255 0 255
3.65899 0.600073 3.79168 0 0 0 255 255 0 255
3.68027 1.15166 3.79229 0 0 0 255 255 0 255
3.65932 0.628082 3.79229 0 0 0 255 255 0 255
3.66892 0.887906 3.7929 0 0 0 255 255 0 255
3.65721 0.59514 3.7929 0 0 0 255 255 0 255
3.66905 0.910919 3.79351 0 0 0 255 255 0 255
3.67158 0.993885 3.79412 0 0 0 255 255 0 255
3.70421 1.82925 3.79474 0 0 0 255 255 0 255
3.66522 0.914075 3.79657 0 0 0 255 255 0 255
3.66264 0.889158 3.7978 0 0 0 255 255 0 255
3.65305 0.64935 3.7978 0 0 0 255 255 0 255
3.65953 0.831236 3.79841 0 0 0 255 255 0 255
3.67036 1.16107 3.80025 0 0 0 255 255 0 255
3.66385 1.01821 3.80086 0 0 0 255 255 0 255
3.65586 0.838389 3.80147 0 0 0 255 255 0 255
3.65495 0.835423 3.80208 0 0 0 255 255 0 255
3.64889 0.70356 3.8027 0 0 0 255 255 0 255
3.66069 1.01834 3.80331 0 0 0 255 255 0 255
3.64874 0.719579 3.80331 0 0 0 255 255 0 255
3.6643 1.12828 3.80392 0 0 0 255 255 0 255
3.64383 0.616693 3.80392 0 0 0 255 255 0 255
3.65831 0.998419 3.80453 0 0 0 255 255 0 255
3.65924 1.04142 3.80514 0 0 0 255 255 0 255
3.64178 0.624781 3.80576 0 0 0 255 255 0 255
3.66318 1.17937 3.80637 0 0 0 255 255 0 255
3.64887 0.841671 3.80698 0 0 0 255 255 0 255
3.65953 1.14749 3.80821 0 0 0 255 255 0 255
3.6567 1.09656 3.80882 0 0 0 255 255 0 255
3.64494 0.802797 3.80882 0 0 0 255 255 0 255
3.64911 0.926729 3.80943 0 0 0 255 255 0 255
3.64726 0.939814 3.81127 0 0 0 255 255 0 255
3.64484 0.918894 3.81249 0 0 0 255 255 0 255
3.63857 0.762019 3.81249 0 0 0 255 255 0 255
3.63241 0.608142 3.81249 0 0 0 255 255 0 255
3.65241 1.12776 3.8131 0 0 0 255 255 0 255
3.63162 0.608174 3.8131 0 0 0 255 255 0 255
3.63143 0.623194 3.81372 0 0 0 255 255 0 255
3.64173 0.940035 3.81555 0 0 0 255 255 0 255
3.64464 1.07202 3.81739 0 0 0 255 255 0 255
3.64005 0.977132 3.818 0 0 0 255 255 0 255
3.64379 1.11009 3.81923 0 0 0 255 255 0 255
3.64176 1.07915 3.81984 0 0 0 255 255 0 255
3.63548 0.922271 3.81984 0 0 0 255 255 0 255
3.63678 0.994276 3.82106 0 0 0 255 255 0 255
3.63139 0.8794 3.82167 0 0 0 255 255 0 255
3.64024 1.12024 3.82229 0 0 0 255 255 0 255
3.62756 0.803492 3.82229 0 0 0 255 255 0 255
3.66819 1.8387 3.8229 0 0 0 255 255 0 255
3.63441 0.994371 3.8229 0 0 0 255 255 0 255
3.61846 0.59569 3.8229 0 0 0 255 255 0 255
3.61834 0.592692 3.8229 0 0 0 255 255 0 255
3.61743 0.589726 3.82351 0 0 0 255 255 0 255
3.62503 0.79959 3.82412 0 0 0 255 255 0 255
3.66746 1.87976 3.82474 0 0 0 255 255 0 255
3.63657 1.12739 3.82535 0 0 0 255 255 0 255
3.63157 1.00249 3.82535 0 0 0 255 255 0 255
3.66317 1.83189 3.82657 0 0 0 255 255 0 255
3.61441 0.632882 3.82718 0 0 0 255 255 0 255
3.61186 0.588948 3.8278 0 0 0 255 255 0 255
3.61295 0.635942 3.82841 0 0 0 255 255 0 255
3.65993 1.83002 3.82902 0 0 0 255 255 0 255
3.62716 1.03069 3.82963 0 0 0 255 255 0 255
3.62926 1.12268 3.83086 0 0 0 255 255 0 255
3.61859 0.875909 3.83147 0 0 0 255 255 0 255
3.64102 1.51552 3.83392 0 0 0 255 255 0 255
3.62674 1.15881 3.83392 0 0 0 255 255 0 255
3.65242 1.82031 3.83453 0 0 0 255 255 0 255
3.61629 0.93705 3.83514 0 0 0 255 255 0 255
3.60282 0.600319 3.83514 0 0 0 255 255 0 255
3.61906 1.02601 3.83576 0 0 0 255 255 0 255
3.61098 0.824171 3.83576 0 0 0 255 255 0 255
3.63726 1.52068 3.83698 0 0 0 255 255 0 255
3.61129 0.891213 3.83759 0 0 0 255 255 0 255
3.59807 0.580493 3.83821 0 0 0 255 255 0 255
3.60462 0.823425 3.84065 0 0 0 255 255 0 255
3.60601 0.917445 3.84249 0 0 0 255 255 0 255
3.60553 0.905455 3.84249 0 0 0 255 255 0 255
3.60221 0.822521 3.84249 0 0 0 255 255 0 255
3.61051 1.06939 3.84372 0 0 0 255 255 0 255
3.59216 0.610753 3.84372 0 0 0 255 255 0 255
3.60731 1.06851 3.84616 0 0 0 255 255 0 255
3.60697 1.11957 3.848 0 0 0 255 255 0 255
3.59898 0.919728 3.848 0 0 0 255 255 0 255
3.59888 0.956761 3.84923 0 0 0 255 255 0 255
3.60181 1.04972 3.84984 0 0 0 255 255 0 255
3.64243 2.08492 3.85045 0 0 0 255 255 0 255
3.60198 1.09375 3.85106 0 0 0 255 255 0 255
3.59145 0.869989 3.85229 0 0 0 255 255 0 255
3.59141 0.86899 3.85229 0 0 0 255 255 0 255
3.63801 2.09311 3.85412 0 0 0 255 255 0 255
3.58636 0.802138 3.85412 0 0 0 255 255 0 255
3.59106 0.959076 3.85535 0 0 0 255 255 0 255
3.63524 2.08321 3.85596 0 0 0 255 255 0 255
3.59391 1.07005 3.85657 0 0 0 255 255 0 255
3.58808 0.924167 3.85657 0 0 0 255 255 0 255
3.58253 0.805294 3.85718 0 0 0 255 255 0 255
3.57805 0.693383 3.85718 0 0 0 255 255 0 255
3.59373 1.10509 3.8578 0 0 0 255 255 0 255
3.61103 1.59679 3.85963 0 0 0 255 255 0 255
3.58413 1.00339 3.86208 0 0 0 255 255 0 255
3.60696 1.59395 3.86269 0 0 0 255 255 0 255
3.57427 0.796617 3.86331 0 0 0 255 255 0 255
3.57593 0.877616 3.86453 0 0 0 255 255 0 255
3.56758 0.688798 3.86514 0 0 0 255 255 0 255
3.57027 0.77576 3.86576 0 0 0 255 255 0 255
3.61018 1.79298 3.86637 0 0 0 255 255 0 255
3.56545 0.694888 3.86698 0 0 0 255 255 0 255
3.58014 1.10163 3.8682 0 0 0 255 255 0 255
3.57939 1.10266 3.86882 0 0 0 255 255 0 255
3.57891 1.09067 3.86882 0 0 0 255 255 0 255
3.57773 1.10072 3.87004 0 0 0 255 255 0 255
3.57607 1.09879 3.87127 0 0 0 255 255 0 255
3.57576 1.11081 3.87188 0 0 0 255 255 0 255
3.57157 1.02591 3.87249 0 0 0 255 255 0 255
3.56016 0.780168 3.87371 0 0 0 255 255 0 255
3.57332 1.12892 3.87433 0 0 0 255 255 0 255
3.56678 1.00508 3.87555 0 0 0 255 255 0 255
3.55878 0.86429 3.87739 0 0 0 255 255 0 255
3.56156 0.993282 3.87922 0 0 0 255 255 0 255
3.5631 1.07128 3.88045 0 0 0 255 255 0 255
3.5605 1.00634 3.88045 0 0 0 255 255 0 255
3.59243 1.86374 3.88229 0 0 0 255 255 0 255
3.54515 0.701705 3.8829 0 0 0 255 255 0 255
3.55865 1.09848 3.88473 0 0 0 255 255 0 255
3.54622 0.787731 3.88473 0 0 0 255 255 0 255
3.58728 1.83393 3.88535 0 0 0 255 255 0 255
3.58633 1.82996 3.88596 0 0 0 255 255 0 255
3.54232 0.729841 3.88596 0 0 0 255 255 0 255
3.57025 1.48733 3.8878 0 0 0 255 255 0 255
3.53875 0.69996 3.8878 0 0 0 255 255 0 255
3.59129 2.11199 3.89086 0 0 0 255 255 0 255
3.5657 1.4725 3.89086 0 0 0 255 255 0 255
3.54433 0.977959 3.89208 0 0 0 255 255 0 255
3.5609 1.51072 3.89576 0 0 0 255 255 0 255
3.58148 2.08436 3.89759 0 0 0 255 255 0 255
3.53754 0.986237 3.89759 0 0 0 255 255 0 255
3.54079 1.08719 3.8982 0 0 0 255 255 0 255
3.5797 2.07943 3.89882 0 0 0 255 255 0 255
3.53337 0.921352 3.89882 0 0 0 255 255 0 255
3.55452 1.46994 3.89943 0 0 0 255 255 0 255
3.52927 0.858465 3.90004 0 0 0 255 255 0 255
3.52984 0.89247 3.90065 0 0 0 255 255 0 255
3.52698 0.860559 3.90188 0 0 0 255 255 0 255
3.5758 2.1006 3.90249 0 0 0 255 255 0 255
3.53281 1.08551 3.90433 0 0 0 255 255 0 255
3.52714 0.963634 3.90494 0 0 0 255 255 0 255
3.52755 0.993642 3.90555 0 0 0 255 255 0 255
3.52128 0.836768 3.90555 0 0 0 255 255 0 255
3.52668 0.991675 3.90616 0 0 0 255 255 0 255
3.5757 2.23671 3.90678 0 0 0 255 255 0 255
3.55791 1.79207 3.90678 0 0 0 255 255 0 255
3.55812 1.81708 3.90739 0 0 0 255 255 0 255
3.54382 1.47938 3.908 0 0 0 255 255 0 255
3.52011 0.965917 3.91045 0 0 0 255 255 0 255
3.51904 0.958955 3.91106 0 0 0 255 255 0 255
3.5618 2.06713 3.91229 0 0 0 255 255 0 255
3.56514 2.21011 3.91412 0 0 0 255 255 0 255
3.5348 1.45172 3.91412 0 0 0 255 255 0 255
3.50343 0.845488 3.91963 0 0 0 255 255 0 255
3.52687 1.47105 3.92086 0 0 0 255 255 0 255
3.52635 1.45806 3.92086 0 0 0 255 255 0 255
3.53317 1.76704 3.92514 0 0 0 255 255 0 255
3.54343 2.06286 3.92637 0 0 0 255 255 0 255
3.54077 2.03595 3.92759 0 0 0 255 255 0 255
3.51606 1.41844 3.92759 0 0 0 255 255 0 255
3.52603 1.70727 3.92882 0 0 0 255 255 0 255
3.48829 0.922154 3.93371 0 0 0 255 255 0 255
3.48827 0.961187 3.93494 0 0 0 255 255 0 255
3.48651 0.917222 3.93494 0 0 0 255 255 0 255
3.52955 2.03239 3.93616 0 0 0 255 255 0 255
3.48381 0.889307 3.93616 0 0 0 255 255 0 255
3.51784 1.75964 3.93677 0 0 0 255 255 0 255
3.51492 1.6867 3.93677 0 0 0 255 255 0 255
3.48642 1.05333 3.93922 0 0 0 255 255 0 255
3.51926 2.01279 3.94351 0 0 0 255 255 0 255
3.47241 0.841725 3.94351 0 0 0 255 255 0 255
3.51737 2.02487 3.94535 0 0 0 255 255 0 255
3.47265 0.926783 3.94596 0 0 0 255 255 0 255
3.46763 0.840915 3.94718 0 0 0 255 255 0 255
3.46874 0.927941 3.94902 0 0 0 255 255 0 255
3.46391 0.827053 3.94963 0 0 0 255 255 0 255
3.47022 1.04397 3.95147 0 0 0 255 255 0 255
3.46582 0.934062 3.95147 0 0 0 255 255 0 255
3.46931 1.04101 3.95208 0 0 0 255 255 0 255
3.50767 2.05929 3.95392 0 0 0 255 255 0 255
3.48781 1.56269 3.95392 0 0 0 255 255 0 255
3.48525 1.49874 3.95392 0 0 0 255 255 0 255
3.46323 1.04726 3.95698 0 0 0 255 255 0 255
3.45459 0.910492 3.95943 0 0 0 255 255 0 255
3.45152 0.932633 3.96249 0 0 0 255 255 0 255
3.44938 0.918707 3.96371 0 0 0 255 255 0 255
3.47946 1.71014 3.96494 0 0 0 255 255 0 255
3.44587 1.00892 3.96922 0 0 0 255 255 0 255
3.44579 1.00692 3.96922 0 0 0 255 255 0 255
3.47199 1.70143 3.97045 0 0 0 255 255 0 255
3.44275 1.01005 3.97167 0 0 0 255 255 0 255
3.43463 0.807208 3.97167 0 0 0 255 255 0 255
3.46931 1.71355 3.9729 0 0 0 255 255 0 255
3.43226 0.807302 3.97351 0 0 0 255 255 0 255
3.43764 1.06029 3.97718 0 0 0 255 255 0 255
3.47527 2.04057 3.97841 0 0 0 255 255 0 255
3.44987 1.44511 3.97963 0 0 0 255 255 0 255
3.43277 1.03747 3.98024 0 0 0 255 255 0 255
3.43048 1.03956 3.98208 0 0 0 255 255 0 255
3.44881 1.55724 3.98392 0 0 0 255 255 0 255
3.40984 0.840225 3.99188 0 0 0 255 255 0 255
3.43741 1.58872 3.99371 0 0 0 255 255 0 255
3.41412 1.04622 3.99494 0 0 0 255 255 0 255
3.42905 1.43894 3.99555 0 0 0 255 255 0 255
3.42659 1.41702 3.99677 0 0 0 255 255 0 255
3.42404 1.37308 3.99739 0 0 0 255 255 0 255
3.43085 1.58298 3.99861 0 0 0 255 255 0 255
3.43077 1.58098 3.99861 0 0 0 255 255 0 255
3.42134 1.34517 3.99861 0 0 0 255 255 0 255
3.41912 1.32925 3.99983 0 0 0 255 255 0 255
3.41492 1.38246 4.00473 0 0 0 255 255 0 255
3.39523 0.929881 4.00596 0 0 0 255 255 0 255
3.39661 1.00388 4.00718 0 0 0 255 255 0 255
3.39353 0.926946 4.00718 0 0 0 255 255 0 255
3.39321 1.01803 4.01024 0 0 0 255 255 0 255
3.38382 0.78322 4.01024 0 0 0 255 255 0 255
3.38554 0.984312 4.01514 0 0 0 255 255 0 255
3.40993 1.61384 4.01575 0 0 0 255 255 0 255
3.37577 0.799555 4.01698 0 0 0 255 255 0 255
3.37526 0.806581 4.01759 0 0 0 255 255 0 255
3.39275 1.28326 4.01881 0 0 0 255 255 0 255
3.3711 0.781727 4.02004 0 0 0 255 255 0 255
3.38781 1.27846 4.02249 0 0 0 255 255 0 255
3.38737 1.26746 4.02249 0 0 0 255 255 0 255
3.41672 2.02089 4.0231 0 0 0 255 255 0 255
3.36939 0.83784 4.0231 0 0 0 255 255 0 255
3.36895 0.826849 4.0231 0 0 0 255 255 0 255
3.39966 1.61425 4.02371 0 0 0 255 255 0 255
3.36921 0.872876 4.02432 0 0 0 255 255 0 255
3.39757 1.62134 4.02555 0 0 0 255 255 0 255
3.38896 1.46556 4.02738 0 0 0 255 255 0 255
3.38717 1.44061 4.028 0 0 0 255 255 0 255
3.35771 0.783264 4.03045 0 0 0 255 255 0 255
3.38105 1.44586 4.0329 0 0 0 255 255 0 255
3.38041 1.42987 4.0329 0 0 0 255 255 0 255
3.36486 1.04118 4.0329 0 0 0 255 255 0 255
3.35694 0.90239 4.03473 0 0 0 255 255 0 255
3.36044 1.04937 4.03657 0 0 0 255 255 0 255
3.37688 1.48005 4.03718 0 0 0 255 255 0 255
3.34994 0.806593 4.03718 0 0 0 255 255 0 255
3.35215 0.881564 4.03779 0 0 0 255 255 0 255
3.35228 0.904578 4.0384 0 0 0 255 255 0 255
3.37232 1.44521 4.03963 0 0 0 255 255 0 255
3.35101 0.912635 4.03963 0 0 0 255 255 0 255
3.34714 0.914791 4.04269 0 0 0 255 255 0 255
3.38622 2.0101 4.04636 0 0 0 255 255 0 255
3.3848 2.01416 4.04759 0 0 0 255 255 0 255
3.36793 1.5925 4.04759 0 0 0 255 255 0 255
3.32876 0.890506 4.05616 0 0 0 255 255 0 255
3.32553 0.809571 4.05616 0 0 0 255 255 0 255
3.31958 0.759769 4.05922 0 0 0 255 255 0 255
3.31912 0.78781 4.06045 0 0 0 255 255 0 255
3.31275 0.767048 4.06473 0 0 0 255 255 0 255
3.31209 0.790093 4.06596 0 0 0 255 255 0 255
3.31238 0.817103 4.06657 0 0 0 255 255 0 255
3.35817 2.00122 4.06779 0 0 0 255 255 0 255
3.31064 0.813169 4.06779 0 0 0 255 255 0 255
3.31 0.797182 4.06779 0 0 0 255 255 0 255
3.33255 1.53887 4.0733 0 0 0 255 255 0 255
3.30733 0.928393 4.07391 0 0 0 255 255 0 255
3.35497 2.17849 4.07575 0 0 0 255 255 0 255
3.30496 0.928488 4.07575 0 0 0 255 255 0 255
3.29799 0.793659 4.07698 0 0 0 255 255 0 255
3.29771 0.786665 4.07698 0 0 0 255 255 0 255
3.29746 0.859733 4.07942 0 0 0 255 255 0 255
3.28869 0.759003 4.0831 0 0 0 255 255 0 255
3.28541 0.855211 4.08861 0 0 0 255 255 0 255
3.2747 0.765567 4.09412 0 0 0 255 255 0 255
3.2671 0.891973 4.10391 0 0 0 255 255 0 255
3.26384 0.850069 4.10514 0 0 0 255 255 0 255
3.29156 1.74067 4.11126 0 0 0 255 255 0 255
3.28125 1.91823 4.12473 0 0 0 255 255 0 255
3.2267 0.910603 4.13575 0 0 0 255 255 0 255
3.2129 0.882131 4.14555 0 0 0 255 255 0 255
3.20471 0.934501 4.1535 0 0 0 255 255 0 255
3.19636 0.90381 4.15901 0 0 0 255 255 0 255
3.181 1.01451 4.17432 0 0 0 255 255 0 255
