ply
format ascii 1.0
comment VCGLIB generated
element vertex 31
property float x
property float y
property float z
property float nx
property float ny
property float nz
property uchar red
property uchar green
property uchar blue
property uchar alpha
element face 0
property list uchar int vertex_indices
end_header
3.59077 2.27536 3.92028 0 0 0 128 0 0 255
3.55796 2.27133 3.92599 0 0 0 128 0 0 255
3.56128 2.26666 3.94123 0 0 0 128 0 0 255
3.55935 2.26561 3.94409 0 0 0 128 0 0 255
3.59376 2.26059 3.96695 0 0 0 128 0 0 255
3.587 2.25678 3.97742 0 0 0 128 0 0 255
3.51985 2.24188 4.00981 0 0 0 128 0 0 255
3.45612 2.23577 4.01552 0 0 0 128 0 0 255
3.63309 2.24216 4.03266 0 0 0 128 0 0 255
3.44563 2.22773 4.03838 0 0 0 128 0 0 255
3.49456 2.23041 4.04028 0 0 0 128 0 0 255
3.5416 2.23143 4.04695 0 0 0 128 0 0 255
3.45309 2.22121 4.06028 0 0 0 128 0 0 255
3.44225 2.21834 4.06695 0 0 0 128 0 0 255
3.44659 2.21344 4.08314 0 0 0 128 0 0 255
3.47355 2.21494 4.0841 0 0 0 128 0 0 255
3.44285 2.20952 4.09457 0 0 0 128 0 0 255
3.47734 2.20328 4.12124 0 0 0 128 0 0 255
3.47934 2.20342 4.12124 0 0 0 128 0 0 255
3.38968 2.19526 4.12791 0 0 0 128 0 0 255
3.50231 2.18969 4.16886 0 0 0 128 0 0 255
3.35316 2.17203 4.19267 0 0 0 128 0 0 255
3.37574 2.16408 4.2222 0 0 0 128 0 0 255
2.95109 2.12975 4.24029 0 0 0 128 0 0 255
2.98006 2.13108 4.2422 0 0 0 128 0 0 255
3.03814 2.13193 4.25172 0 0 0 128 0 0 255
3.04231 2.12946 4.26029 0 0 0 128 0 0 255
2.98047 2.125 4.26124 0 0 0 128 0 0 255
3.03451 2.12619 4.26886 0 0 0 128 0 0 255
3.00501 2.11779 4.28886 0 0 0 128 0 0 255
3.18239 2.10313 4.37172 0 0 0 128 0 0 255
