ply
format ascii 1.0
comment VCGLIB generated
element vertex 28
property float x
property float y
property float z
property float nx
property float ny
property float nz
property uchar red
property uchar green
property uchar blue
property uchar alpha
element face 0
property list uchar int vertex_indices
end_header
2.05795 -1.83572 6.02126 0 0 0 0 128 0 255
2.06364 -1.39576 6.02334 0 0 0 0 128 0 255
2.06696 -1.60979 6.0282 0 0 0 0 128 0 255
2.07043 -1.62482 6.03168 0 0 0 0 128 0 255
2.07063 -1.86883 6.03376 0 0 0 0 128 0 255
2.07515 -1.84386 6.03793 0 0 0 0 128 0 255
2.0791 -1.61989 6.04002 0 0 0 0 128 0 255
2.08309 -1.39091 6.0421 0 0 0 0 128 0 255
2.09025 -1.48497 6.04975 0 0 0 0 128 0 255
2.09106 -1.47298 6.05044 0 0 0 0 128 0 255
2.08918 -1.70797 6.05044 0 0 0 0 128 0 255
2.08916 -1.71097 6.05044 0 0 0 0 128 0 255
2.09955 -1.84906 6.06156 0 0 0 0 128 0 255
2.0988 -1.94306 6.06156 0 0 0 0 128 0 255
2.12024 -1.42221 6.07824 0 0 0 0 128 0 255
2.12212 -1.45623 6.08033 0 0 0 0 128 0 255
2.12754 -2.12529 6.09075 0 0 0 0 128 0 255
2.12952 -2.32731 6.09422 0 0 0 0 128 0 255
2.13512 -1.89734 6.09631 0 0 0 0 128 0 255
2.13756 -1.68236 6.097 0 0 0 0 128 0 255
2.13604 -2.32037 6.10048 0 0 0 0 128 0 255
2.16528 -2.1716 6.12758 0 0 0 0 128 0 255
2.16941 -2.19463 6.13175 0 0 0 0 128 0 255
2.17005 -2.20463 6.13245 0 0 0 0 128 0 255
2.2066 -1.95092 6.1658 0 0 0 0 128 0 255
2.2481 -2.42527 6.20959 0 0 0 0 128 0 255
2.26796 -2.45943 6.22904 0 0 0 0 128 0 255
2.27783 -2.48451 6.23877 0 0 0 0 128 0 255
