ply
format ascii 1.0
comment VCGLIB generated
element vertex 412
property float x
property float y
property float z
property float nx
property float ny
property float nz
property uchar red
property uchar green
property uchar blue
property uchar alpha
element face 0
property list uchar int vertex_indices
end_header
-2.95505 -0.894821 4.41622 0 0 0 255 255 255 255
-3.00662 -0.952065 4.40453 0 0 0 255 255 255 255
-0.888291 -1.16338 3.58496 0 0 0 255 255 255 255
-3.01052 -1.04105 4.43521 0 0 0 255 255 255 255
-2.93911 -0.916931 4.42867 0 0 0 255 255 255 255
-2.95837 -0.868842 4.41141 0 0 0 255 255 255 255
-0.870385 -1.16763 3.57666 0 0 0 255 255 255 255
-0.863325 -1.1585 3.55512 0 0 0 255 255 255 255
-0.880244 -1.15609 3.52559 0 0 0 255 255 255 255
-1.27219 -1.89834 6.31194 0 0 0 255 255 255 255
-2.73534 -1.57043 5.27453 0 0 0 255 255 255 255
-0.409626 -1.85306 6.17031 0 0 0 255 255 255 255
-2.7393 -1.56489 5.2524 0 0 0 255 255 255 255
-0.36602 -1.8759 6.21012 0 0 0 255 255 255 255
-2.67222 -1.578 5.33314 0 0 0 255 255 255 255
-2.74074 -1.54684 5.26004 0 0 0 255 255 255 255
-3.00107 -0.783806 4.37483 0 0 0 255 255 255 255
-2.95077 -0.416136 4.35379 0 0 0 255 255 255 255
-2.91268 -0.503801 4.37752 0 0 0 255 255 255 255
-2.96658 -0.578208 4.36581 0 0 0 255 255 255 255
-2.94951 -0.665272 4.38149 0 0 0 255 255 255 255
-2.91538 -0.502553 4.37642 0 0 0 255 255 255 255
-2.94627 -0.422585 4.3567 0 0 0 255 255 255 255
-2.96645 -0.576835 4.36592 0 0 0 255 255 255 255
-2.93849 -0.541205 4.36268 0 0 0 255 255 255 255
-2.98904 -0.786425 4.38861 0 0 0 255 255 255 255
-2.95184 -0.664892 4.38252 0 0 0 255 255 255 255
-2.96262 -0.583556 4.37035 0 0 0 255 255 255 255
-2.59348 0.572168 4.24696 0 0 0 255 255 255 255
-2.53001 0.547994 4.23924 0 0 0 255 255 255 255
-2.70413 0.532998 4.2358 0 0 0 255 255 255 255
-2.70042 0.520486 4.23394 0 0 0 255 255 255 255
-2.57687 0.575486 4.24002 0 0 0 255 255 255 255
-2.52477 0.551517 4.24294 0 0 0 255 255 255 255
-2.53653 0.367812 4.68249 0 0 0 255 255 255 255
-2.69178 0.675896 4.19465 0 0 0 255 255 255 255
-2.39678 0.820518 4.47039 0 0 0 255 255 255 255
-2.62068 0.619343 4.21904 0 0 0 255 255 255 255
-2.64446 0.671324 4.20829 0 0 0 255 255 255 255
-2.68153 0.674945 4.1943 0 0 0 255 255 255 255
-2.57908 0.646427 4.24367 0 0 0 255 255 255 255
-2.67665 0.684537 4.19063 0 0 0 255 255 255 255
-2.65761 0.631222 4.20591 0 0 0 255 255 255 255
-2.57932 0.5775 4.24135 0 0 0 255 255 255 255
-2.64404 0.671116 4.21067 0 0 0 255 255 255 255
-2.39311 0.80669 4.47568 0 0 0 255 255 255 255
-2.40479 0.712606 4.5078 0 0 0 255 255 255 255
-2.57923 0.637628 4.24285 0 0 0 255 255 255 255
-2.39055 0.786937 4.48112 0 0 0 255 255 255 255
-2.60018 0.579417 4.2436 0 0 0 255 255 255 255
-2.39708 0.731467 4.50893 0 0 0 255 255 255 255
-2.58834 0.650435 4.23656 0 0 0 255 255 255 255
-2.69866 0.67586 4.1947 0 0 0 255 255 255 255
-2.58541 0.657232 4.241 0 0 0 255 255 255 255
-2.60299 0.662954 4.23127 0 0 0 255 255 255 255
-2.62877 1.03475 4.77838 0 0 0 255 255 255 255
-2.62649 1.0138 4.7618 0 0 0 255 255 255 255
-2.61581 0.993369 4.77642 0 0 0 255 255 255 255
-2.62373 1.00687 4.75921 0 0 0 255 255 255 255
-2.65452 0.910305 4.95284 0 0 0 255 255 255 255
-2.61665 0.987921 4.76575 0 0 0 255 255 255 255
-2.59315 0.73281 4.84328 0 0 0 255 255 255 255
-2.48688 1.00443 4.63144 0 0 0 255 255 255 255
-2.50639 1.0152 4.61472 0 0 0 255 255 255 255
-2.51519 1.01808 4.60006 0 0 0 255 255 255 255
-2.49876 0.975061 4.61862 0 0 0 255 255 255 255
-2.48718 1.01403 4.6314 0 0 0 255 255 255 255
-2.48039 1.01883 4.63829 0 0 0 255 255 255 255
-2.51316 0.982648 4.60758 0 0 0 255 255 255 255
-2.50982 0.931228 4.58927 0 0 0 255 255 255 255
-2.49019 0.954233 4.62148 0 0 0 255 255 255 255
-2.49547 0.997609 4.62383 0 0 0 255 255 255 255
-2.49884 0.991967 4.61985 0 0 0 255 255 255 255
-2.51458 0.952729 4.60034 0 0 0 255 255 255 255
-2.46138 0.829678 4.66471 0 0 0 255 255 255 255
-2.5054 1.01741 4.61553 0 0 0 255 255 255 255
-2.49889 0.969505 4.61787 0 0 0 255 255 255 255
-2.48156 1.01306 4.63682 0 0 0 255 255 255 255
-2.54696 0.887428 4.84754 0 0 0 255 255 255 255
-2.55745 0.896552 4.86452 0 0 0 255 255 255 255
-2.47107 1.03166 4.94933 0 0 0 255 255 255 255
-2.06454 0.986309 4.62152 0 0 0 255 255 255 255
-1.62313 0.775566 4.14095 0 0 0 255 255 255 255
-2.06169 0.98733 4.6391 0 0 0 255 255 255 255
-2.39476 1.25883 4.01361 0 0 0 255 255 255 255
-2.52704 1.22682 4.76671 0 0 0 255 255 255 255
-2.4583 1.24405 4.61849 0 0 0 255 255 255 255
-2.59848 1.23467 4.92737 0 0 0 255 255 255 255
-2.62549 1.07115 4.81784 0 0 0 255 255 255 255
-2.49174 1.14381 4.78161 0 0 0 255 255 255 255
-2.48276 1.26384 4.60791 0 0 0 255 255 255 255
-2.54413 1.28585 4.86778 0 0 0 255 255 255 255
-2.47658 1.1464 4.74137 0 0 0 255 255 255 255
-2.52045 1.16091 4.75988 0 0 0 255 255 255 255
-2.55437 1.29444 4.94275 0 0 0 255 255 255 255
-2.55827 1.2888 4.94048 0 0 0 255 255 255 255
-2.49334 1.04491 4.62617 0 0 0 255 255 255 255
-2.62442 1.10671 4.78262 0 0 0 255 255 255 255
-2.45278 1.25451 4.86187 0 0 0 255 255 255 255
-2.63309 1.05232 4.76106 0 0 0 255 255 255 255
-2.48556 1.06536 4.62911 0 0 0 255 255 255 255
-2.34291 1.21273 4.48326 0 0 0 255 255 255 255
-2.37325 1.21773 4.48313 0 0 0 255 255 255 255
-2.32927 1.20771 4.51426 0 0 0 255 255 255 255
-2.35322 1.21762 4.48718 0 0 0 255 255 255 255
-2.32243 1.29316 4.56486 0 0 0 255 255 255 255
-2.2985 1.29737 4.21551 0 0 0 255 255 255 255
-2.32398 1.28835 4.13914 0 0 0 255 255 255 255
-2.20868 1.2727 4.3004 0 0 0 255 255 255 255
-2.31752 1.29536 4.19129 0 0 0 255 255 255 255
-2.33308 1.21103 4.49372 0 0 0 255 255 255 255
-2.31093 1.22288 4.50127 0 0 0 255 255 255 255
-2.20775 1.25607 4.29856 0 0 0 255 255 255 255
-2.31033 1.22432 4.50618 0 0 0 255 255 255 255
-2.25803 1.28683 4.25055 0 0 0 255 255 255 255
-2.23196 1.25582 4.28344 0 0 0 255 255 255 255
-2.24412 1.27968 4.27109 0 0 0 255 255 255 255
-2.20711 1.2655 4.30416 0 0 0 255 255 255 255
-1.1474 -0.0916716 3.7844 0 0 0 255 255 255 255
-1.14521 -0.107774 3.77978 0 0 0 255 255 255 255
-0.982184 0.015649 3.68076 0 0 0 255 255 255 255
-1.14552 -0.104087 3.78041 0 0 0 255 255 255 255
-0.838444 -0.66934 3.45189 0 0 0 255 255 255 255
-1.30999 0.304052 3.94578 0 0 0 255 255 255 255
-0.627126 0.116233 3.70815 0 0 0 255 255 255 255
-0.62446 0.11587 3.70724 0 0 0 255 255 255 255
-0.616994 0.132781 3.70813 0 0 0 255 255 255 255
-0.803267 0.124376 3.62434 0 0 0 255 255 255 255
-1.41122 0.3077 4.03672 0 0 0 255 255 255 255
-0.50951 0.112101 3.45492 0 0 0 255 255 255 255
0.0761937 0.0819629 4.32082 0 0 0 255 255 255 255
0.0487021 0.0972602 4.33829 0 0 0 255 255 255 255
0.057681 0.0798851 4.33276 0 0 0 255 255 255 255
0.0892581 0.111671 4.34527 0 0 0 255 255 255 255
0.0636516 0.0797242 4.32442 0 0 0 255 255 255 255
0.0626599 0.0608885 4.3299 0 0 0 255 255 255 255
0.0558139 0.0799068 4.33755 0 0 0 255 255 255 255
0.0800411 0.0705201 4.32119 0 0 0 255 255 255 255
0.104666 0.102642 4.36554 0 0 0 255 255 255 255
0.0801101 0.0819153 4.31617 0 0 0 255 255 255 255
0.0785499 0.093617 4.32225 0 0 0 255 255 255 255
0.206185 0.0801508 4.19301 0 0 0 255 255 255 255
0.184385 0.0790987 4.16804 0 0 0 255 255 255 255
0.169714 0.0730327 4.22286 0 0 0 255 255 255 255
-0.137056 0.436529 4.2072 0 0 0 255 255 255 255
-0.0708046 0.505702 4.31989 0 0 0 255 255 255 255
-0.103245 0.973093 4.28529 0 0 0 255 255 255 255
-0.0903074 0.956047 4.32915 0 0 0 255 255 255 255
-0.108917 0.973577 4.27488 0 0 0 255 255 255 255
-0.111246 0.89719 4.27359 0 0 0 255 255 255 255
0.0654718 0.19003 4.2423 0 0 0 255 255 255 255
0.118161 0.309882 4.20288 0 0 0 255 255 255 255
0.0847395 0.172469 4.2835 0 0 0 255 255 255 255
0.040097 0.143962 4.34277 0 0 0 255 255 255 255
0.0490641 0.207625 4.33117 0 0 0 255 255 255 255
0.0852422 0.178615 4.32096 0 0 0 255 255 255 255
0.0703532 0.167942 4.32562 0 0 0 255 255 255 255
0.0745926 0.144932 4.32335 0 0 0 255 255 255 255
0.0907623 0.138851 4.32626 0 0 0 255 255 255 255
0.0692829 0.118719 4.32813 0 0 0 255 255 255 255
0.0585449 0.192033 4.33752 0 0 0 255 255 255 255
0.0551472 0.36125 4.25146 0 0 0 255 255 255 255
0.24762 0.16689 4.2377 0 0 0 255 255 255 255
0.309027 0.171412 4.3174 0 0 0 255 255 255 255
0.314643 0.173828 4.3057 0 0 0 255 255 255 255
-0.764848 1.11155 3.5209 0 0 0 255 255 255 255
-0.740557 1.08199 3.54989 0 0 0 255 255 255 255
-0.735348 1.08044 3.55135 0 0 0 255 255 255 255
-0.618133 1.05535 3.61444 0 0 0 255 255 255 255
-0.173059 1.24226 4.10294 0 0 0 255 255 255 255
0.258316 1.32704 4.27148 0 0 0 255 255 255 255
0.268324 1.32184 4.27973 0 0 0 255 255 255 255
0.269681 1.32654 4.2629 0 0 0 255 255 255 255
0.253005 1.32607 4.25239 0 0 0 255 255 255 255
-0.65524 1.06455 3.61171 0 0 0 255 255 255 255
-0.81031 1.21381 3.54985 0 0 0 255 255 255 255
-0.782966 1.12501 3.50489 0 0 0 255 255 255 255
-0.783365 1.1399 3.53113 0 0 0 255 255 255 255
-2.92326 0.303425 5.26736 0 0 0 255 255 255 255
-2.88395 0.291391 5.25942 0 0 0 255 255 255 255
-2.8398 0.312284 5.20971 0 0 0 255 255 255 255
-2.84707 0.335078 5.18862 0 0 0 255 255 255 255
-2.92032 0.306146 5.35319 0 0 0 255 255 255 255
-2.87835 0.289889 5.2473 0 0 0 255 255 255 255
-2.93155 0.315426 5.41661 0 0 0 255 255 255 255
-2.92496 0.317028 5.32893 0 0 0 255 255 255 255
-2.93187 0.310421 5.41494 0 0 0 255 255 255 255
-3.06053 0.388737 5.75616 0 0 0 255 255 255 255
-2.96644 0.375778 5.65545 0 0 0 255 255 255 255
-3.2917 0.406941 5.55957 0 0 0 255 255 255 255
-3.21249 0.333176 5.45126 0 0 0 255 255 255 255
-3.29018 0.402773 5.55175 0 0 0 255 255 255 255
-3.30095 0.404935 5.57113 0 0 0 255 255 255 255
-2.86995 0.507131 5.50063 0 0 0 255 255 255 255
-2.66675 0.394726 4.98818 0 0 0 255 255 255 255
-2.74883 0.385394 5.18083 0 0 0 255 255 255 255
-2.79037 0.334413 5.2043 0 0 0 255 255 255 255
-2.83203 0.386683 5.47546 0 0 0 255 255 255 255
-2.76317 0.374322 5.65403 0 0 0 255 255 255 255
-2.7046 0.395472 5.5599 0 0 0 255 255 255 255
-2.71089 0.397641 5.55664 0 0 0 255 255 255 255
-2.83665 0.385327 5.46005 0 0 0 255 255 255 255
-2.72856 0.390847 5.54007 0 0 0 255 255 255 255
-2.94843 0.407665 5.95291 0 0 0 255 255 255 255
-2.93178 1.30537 5.25033 0 0 0 255 255 255 255
-2.52339 1.28471 5.07874 0 0 0 255 255 255 255
-2.67136 1.11154 5.22154 0 0 0 255 255 255 255
-2.54548 1.25814 5.03695 0 0 0 255 255 255 255
-2.57932 1.2688 4.97772 0 0 0 255 255 255 255
-2.71246 1.24721 5.24911 0 0 0 255 255 255 255
-2.69387 1.17276 5.27868 0 0 0 255 255 255 255
-2.60714 1.2253 5.11801 0 0 0 255 255 255 255
-2.66934 1.10552 5.2396 0 0 0 255 255 255 255
-2.68352 1.29018 5.17515 0 0 0 255 255 255 255
-2.50057 1.10129 4.99924 0 0 0 255 255 255 255
-2.60811 1.22199 5.11143 0 0 0 255 255 255 255
-2.82101 1.27071 5.28675 0 0 0 255 255 255 255
-2.55022 1.17997 5.00007 0 0 0 255 255 255 255
-2.71188 1.24737 5.24825 0 0 0 255 255 255 255
-2.5645 1.27066 5.00133 0 0 0 255 255 255 255
-2.73223 1.12508 5.31035 0 0 0 255 255 255 255
-2.55837 1.24528 5.14918 0 0 0 255 255 255 255
-2.66747 1.12828 5.23964 0 0 0 255 255 255 255
-2.65518 1.17381 5.24588 0 0 0 255 255 255 255
-2.67342 1.10798 5.18143 0 0 0 255 255 255 255
-0.0976897 1.21868 5.03183 0 0 0 255 255 255 255
0.193371 1.16598 5.05638 0 0 0 255 255 255 255
2.23172 -2.83619 6.18808 0 0 0 255 255 255 255
2.23251 -2.8582 6.19056 0 0 0 255 255 255 255
1.6845 -1.85385 6.10704 0 0 0 255 255 255 255
1.66704 -1.81982 6.08261 0 0 0 255 255 255 255
2.22652 -2.59964 6.18131 0 0 0 255 255 255 255
2.01136 -1.85241 6.13938 0 0 0 255 255 255 255
2.07057 -1.98065 6.30936 0 0 0 255 255 255 255
1.99666 -1.80948 6.10026 0 0 0 255 255 255 255
1.91102 -1.93986 6.27221 0 0 0 255 255 255 255
1.91947 -1.95215 6.11901 0 0 0 255 255 255 255
2.04078 -1.90889 6.11081 0 0 0 255 255 255 255
2.02035 -1.86194 6.13658 0 0 0 255 255 255 255
2.14381 -2.08981 6.07198 0 0 0 255 255 255 255
1.87136 -1.73511 6.44372 0 0 0 255 255 255 255
2.0643 -1.75168 6.48206 0 0 0 255 255 255 255
1.84472 -1.76606 6.41071 0 0 0 255 255 255 255
1.71541 -1.68834 5.98522 0 0 0 255 255 255 255
1.69432 -1.66359 6.00659 0 0 0 255 255 255 255
1.86063 -1.68527 6.01735 0 0 0 255 255 255 255
2.24877 -2.7112 6.21245 0 0 0 255 255 255 255
2.23963 -2.92512 6.2013 0 0 0 255 255 255 255
2.24092 -2.94167 6.20286 0 0 0 255 255 255 255
2.24307 -2.69372 6.2208 0 0 0 255 255 255 255
2.24517 -2.70384 6.21823 0 0 0 255 255 255 255
2.33254 -1.6849 6.50494 0 0 0 255 255 255 255
2.29665 -1.44121 6.42121 0 0 0 255 255 255 255
2.44277 -1.56062 6.73231 0 0 0 255 255 255 255
2.29798 -1.43898 6.43511 0 0 0 255 255 255 255
2.35928 -1.70997 6.55816 0 0 0 255 255 255 255
2.40414 -1.82277 6.6506 0 0 0 255 255 255 255
2.41151 -1.57142 6.66703 0 0 0 255 255 255 255
2.30823 -1.43834 6.45388 0 0 0 255 255 255 255
0.851953 0.835222 3.47263 0 0 0 255 255 255 255
0.840421 0.839273 3.34918 0 0 0 255 255 255 255
0.828627 0.85393 3.40451 0 0 0 255 255 255 255
0.765849 0.921442 3.97215 0 0 0 255 255 255 255
0.768992 0.884384 3.98653 0 0 0 255 255 255 255
1.06919 0.675563 3.34808 0 0 0 255 255 255 255
0.976939 0.790639 3.30465 0 0 0 255 255 255 255
1.0395 0.756331 3.21599 0 0 0 255 255 255 255
1.05818 0.776983 3.40114 0 0 0 255 255 255 255
1.05222 0.798175 3.38262 0 0 0 255 255 255 255
0.904797 0.693658 3.58906 0 0 0 255 255 255 255
1.05587 0.777408 3.40147 0 0 0 255 255 255 255
0.883717 0.776146 3.44025 0 0 0 255 255 255 255
0.917779 0.712391 3.56402 0 0 0 255 255 255 255
1.06728 0.908173 3.33391 0 0 0 255 255 255 255
1.06512 0.875131 3.38342 0 0 0 255 255 255 255
1.18435 0.799019 3.27696 0 0 0 255 255 255 255
1.2984 0.760694 3.29569 0 0 0 255 255 255 255
1.30419 0.762606 3.32414 0 0 0 255 255 255 255
1.14404 0.73214 3.32644 0 0 0 255 255 255 255
1.13549 0.648469 3.46989 0 0 0 255 255 255 255
1.11317 0.681393 3.44887 0 0 0 255 255 255 255
1.18328 0.668433 3.52608 0 0 0 255 255 255 255
1.09663 0.718614 3.43899 0 0 0 255 255 255 255
1.09657 0.713919 3.44125 0 0 0 255 255 255 255
1.09129 0.720239 3.39685 0 0 0 255 255 255 255
1.08823 0.694792 3.42447 0 0 0 255 255 255 255
1.27592 0.600157 3.37514 0 0 0 255 255 255 255
1.2328 1.0026 3.3016 0 0 0 255 255 255 255
1.17397 0.876319 3.25707 0 0 0 255 255 255 255
1.19281 0.819869 3.26113 0 0 0 255 255 255 255
1.26015 0.649015 3.6511 0 0 0 255 255 255 255
1.2631 0.695585 3.65694 0 0 0 255 255 255 255
0.956999 0.909935 3.61791 0 0 0 255 255 255 255
1.29805 0.734699 3.63213 0 0 0 255 255 255 255
1.25843 0.66167 3.6628 0 0 0 255 255 255 255
1.2544 0.624488 3.61689 0 0 0 255 255 255 255
1.28472 0.702884 3.64023 0 0 0 255 255 255 255
1.26963 0.694713 3.65011 0 0 0 255 255 255 255
1.30701 0.723581 3.62066 0 0 0 255 255 255 255
1.26705 0.682657 3.64404 0 0 0 255 255 255 255
1.30621 0.724439 3.60766 0 0 0 255 255 255 255
1.26021 0.663712 3.66512 0 0 0 255 255 255 255
1.24642 0.615912 3.60443 0 0 0 255 255 255 255
0.455339 0.847326 4.59641 0 0 0 255 255 255 255
0.705924 0.965772 4.17632 0 0 0 255 255 255 255
0.527129 0.933314 4.53294 0 0 0 255 255 255 255
1.36393 0.754154 3.57241 0 0 0 255 255 255 255
1.32539 0.667563 3.56296 0 0 0 255 255 255 255
1.33433 0.719126 3.55861 0 0 0 255 255 255 255
1.87126 0.74625 4.02356 0 0 0 255 255 255 255
1.65682 0.641294 4.36666 0 0 0 255 255 255 255
1.67725 0.649577 4.38797 0 0 0 255 255 255 255
1.87866 0.737854 4.06425 0 0 0 255 255 255 255
1.68069 0.644094 4.39248 0 0 0 255 255 255 255
1.91471 0.754077 4.06665 0 0 0 255 255 255 255
1.81435 0.70598 4.15526 0 0 0 255 255 255 255
1.96824 0.744388 4.20104 0 0 0 255 255 255 255
1.2693 1.04143 3.26986 0 0 0 255 255 255 255
1.24172 1.26836 3.36972 0 0 0 255 255 255 255
1.02 1.18388 3.97851 0 0 0 255 255 255 255
1.06081 1.19271 4.07756 0 0 0 255 255 255 255
0.432309 1.11087 4.78965 0 0 0 255 255 255 255
0.506911 1.06515 4.46755 0 0 0 255 255 255 255
0.767767 1.11481 4.86562 0 0 0 255 255 255 255
0.46826 1.08918 4.86494 0 0 0 255 255 255 255
0.768086 1.11341 4.87493 0 0 0 255 255 255 255
0.571869 1.06477 4.59371 0 0 0 255 255 255 255
0.517411 1.05095 4.67521 0 0 0 255 255 255 255
0.472394 1.10231 4.95867 0 0 0 255 255 255 255
0.513756 1.05104 4.65486 0 0 0 255 255 255 255
0.468546 1.11452 4.77564 0 0 0 255 255 255 255
2.11319 0.709249 6.06189 0 0 0 255 255 255 255
2.1855 0.83773 6.2187 0 0 0 255 255 255 255
2.11201 0.719646 6.06419 0 0 0 255 255 255 255
2.13348 0.766738 6.11187 0 0 0 255 255 255 255
2.13411 0.710571 6.11987 0 0 0 255 255 255 255
2.08099 0.775185 6.00758 0 0 0 255 255 255 255
2.12915 0.815459 6.10818 0 0 0 255 255 255 255
2.11846 0.757981 6.12446 0 0 0 255 255 255 255
1.97907 0.807551 5.67941 0 0 0 255 255 255 255
2.16452 0.770493 6.13208 0 0 0 255 255 255 255
2.17264 0.795157 6.19298 0 0 0 255 255 255 255
2.13049 0.718854 6.11759 0 0 0 255 255 255 255
2.07979 0.743226 6.01449 0 0 0 255 255 255 255
2.16876 0.819577 6.17803 0 0 0 255 255 255 255
2.09799 0.79676 6.03743 0 0 0 255 255 255 255
2.11112 0.72726 6.0624 0 0 0 255 255 255 255
2.05128 0.743075 5.93558 0 0 0 255 255 255 255
0.771642 1.0935 4.99732 0 0 0 255 255 255 255
0.816331 1.16872 5.38415 0 0 0 255 255 255 255
0.769369 1.11002 5.07413 0 0 0 255 255 255 255
0.758576 1.15212 5.28142 0 0 0 255 255 255 255
0.852288 1.24499 5.60703 0 0 0 255 255 255 255
0.712063 1.29256 5.68503 0 0 0 255 255 255 255
0.846319 1.24172 5.58456 0 0 0 255 255 255 255
0.830557 1.22705 5.64999 0 0 0 255 255 255 255
0.730622 1.3037 5.73179 0 0 0 255 255 255 255
0.710181 1.28731 5.69059 0 0 0 255 255 255 255
0.71596 1.30019 5.71325 0 0 0 255 255 255 255
0.740005 1.30696 5.72932 0 0 0 255 255 255 255
0.977442 1.18823 5.39935 0 0 0 255 255 255 255
0.915458 1.04294 5.16627 0 0 0 255 255 255 255
0.938428 1.06763 5.18982 0 0 0 255 255 255 255
0.878287 1.10021 5.28558 0 0 0 255 255 255 255
1.03641 1.22692 5.43067 0 0 0 255 255 255 255
0.991983 1.27917 5.59631 0 0 0 255 255 255 255
1.03981 1.25506 5.6623 0 0 0 255 255 255 255
0.930247 1.21579 5.76128 0 0 0 255 255 255 255
0.985768 1.22459 5.45981 0 0 0 255 255 255 255
0.891799 1.25465 5.76192 0 0 0 255 255 255 255
1.02355 1.27956 5.6299 0 0 0 255 255 255 255
1.0289 1.23082 5.47465 0 0 0 255 255 255 255
0.882776 1.24809 5.47534 0 0 0 255 255 255 255
1.05939 1.2817 5.58383 0 0 0 255 255 255 255
0.868924 1.25549 5.52957 0 0 0 255 255 255 255
0.857354 1.09919 5.53994 0 0 0 255 255 255 255
0.988462 1.25502 5.5615 0 0 0 255 255 255 255
1.08755 1.29036 5.57717 0 0 0 255 255 255 255
0.891072 1.2445 5.70268 0 0 0 255 255 255 255
0.873695 1.19553 5.68523 0 0 0 255 255 255 255
1.02352 1.25549 5.65427 0 0 0 255 255 255 255
0.888961 1.22434 5.72266 0 0 0 255 255 255 255
1.01986 1.26244 5.66336 0 0 0 255 255 255 255
2.21715 1.19323 6.112 0 0 0 255 255 255 255
2.21465 1.18152 6.10305 0 0 0 255 255 255 255
2.21396 1.18505 6.10946 0 0 0 255 255 255 255
3.04215 0.820495 5.6683 0 0 0 255 255 255 255
2.83417 1.02348 5.83982 0 0 0 255 255 255 255
2.83664 0.969985 5.82948 0 0 0 255 255 255 255
2.86428 1.03828 5.85581 0 0 0 255 255 255 255
2.81814 0.951218 5.81473 0 0 0 255 255 255 255
3.02528 1.01729 5.60916 0 0 0 255 255 255 255
3.13754 0.695502 5.88263 0 0 0 255 255 255 255
3.03872 0.633087 5.6787 0 0 0 255 255 255 255
2.84581 0.974401 5.83141 0 0 0 255 255 255 255
2.28104 0.799765 6.41875 0 0 0 255 255 255 255
2.27432 0.82055 6.4103 0 0 0 255 255 255 255
3.40514 0.835522 6.06445 0 0 0 255 255 255 255
4.0294 0.669753 6.6007 0 0 0 255 255 255 255
3.38541 0.60471 5.95729 0 0 0 255 255 255 255
3.43355 0.76487 6.00751 0 0 0 255 255 255 255
4.08333 0.647715 6.66201 0 0 0 255 255 255 255
3.54958 0.98889 6.05655 0 0 0 255 255 255 255
3.43686 0.793541 6.02283 0 0 0 255 255 255 255
3.35323 0.791198 5.98709 0 0 0 255 255 255 255
3.29036 0.69471 5.98479 0 0 0 255 255 255 255
3.43999 0.79602 6.0186 0 0 0 255 255 255 255
3.37479 0.887607 5.99106 0 0 0 255 255 255 255
3.75314 0.665648 6.3435 0 0 0 255 255 255 255
2.29932 1.10339 6.17559 0 0 0 255 255 255 255
2.29736 1.10011 6.20791 0 0 0 255 255 255 255
2.30977 1.04665 6.23543 0 0 0 255 255 255 255
