ply
format ascii 1.0
comment VCGLIB generated
element vertex 18
property float x
property float y
property float z
property float nx
property float ny
property float nz
property uchar red
property uchar green
property uchar blue
property uchar alpha
element face 0
property list uchar int vertex_indices
end_header
-0.812704 1.00245 3.96831 0 0 0 0 0 128 255
-0.816702 1.00265 3.9693 0 0 0 0 0 128 255
-0.653676 1.00518 3.99298 0 0 0 0 0 128 255
-0.758611 1.01334 4.03738 0 0 0 0 0 128 255
-0.762608 1.0137 4.03936 0 0 0 0 0 128 255
-0.619566 1.01817 4.0739 0 0 0 0 0 128 255
-0.583558 1.01901 4.0808 0 0 0 0 0 128 255
-0.583549 1.01998 4.08672 0 0 0 0 0 128 255
-0.580541 1.02093 4.09265 0 0 0 0 0 128 255
-0.562531 1.02207 4.10054 0 0 0 0 0 128 255
-0.616515 1.0243 4.11139 0 0 0 0 0 128 255
-0.553492 1.02669 4.12916 0 0 0 0 0 128 255
-0.851477 1.02983 4.1331 0 0 0 0 0 128 255
-0.881423 1.0364 4.17159 0 0 0 0 0 128 255
-0.8163 1.05092 4.26336 0 0 0 0 0 128 255
-1.26412 1.07393 4.38079 0 0 0 0 0 128 255
-1.31608 1.07987 4.41434 0 0 0 0 0 128 255
-1.68266 1.1312 4.7084 0 0 0 0 0 128 255
