ply
format ascii 1.0
comment VCGLIB generated
element vertex 19
property float x
property float y
property float z
property float nx
property float ny
property float nz
property uchar red
property uchar green
property uchar blue
property uchar alpha
element face 0
property list uchar int vertex_indices
end_header
-2.56154 1.68378 6.01359 0 0 0 128 0 128 255
-2.65129 1.59289 6.01641 0 0 0 128 0 128 255
-2.64881 1.58985 6.01721 0 0 0 128 0 128 255
-2.65067 1.58581 6.01762 0 0 0 128 0 128 255
-2.65426 1.54749 6.02325 0 0 0 128 0 128 255
-2.66683 1.51701 6.02647 0 0 0 128 0 128 255
-2.71831 1.4409 6.03191 0 0 0 128 0 128 255
-2.53698 1.58247 6.03292 0 0 0 128 0 128 255
-2.7084 1.4414 6.03312 0 0 0 128 0 128 255
-2.71152 1.41358 6.03715 0 0 0 128 0 128 255
-2.50694 1.56779 6.03916 0 0 0 128 0 128 255
-2.68876 1.39675 6.04278 0 0 0 128 0 128 255
-2.69201 1.39283 6.04298 0 0 0 128 0 128 255
-2.5902 1.23318 6.08164 0 0 0 128 0 128 255
-2.607 1.13353 6.09533 0 0 0 128 0 128 255
-2.60995 1.12607 6.09614 0 0 0 128 0 128 255
-2.29523 1.28921 6.11104 0 0 0 128 0 128 255
-2.40855 1.16392 6.11627 0 0 0 128 0 128 255
-2.19219 1.329 6.11809 0 0 0 128 0 128 255
