ply
format ascii 1.0
comment VCGLIB generated
element vertex 81
property float x
property float y
property float z
property float nx
property float ny
property float nz
property uchar red
property uchar green
property uchar blue
property uchar alpha
element face 0
property list uchar int vertex_indices
end_header
-3.83505 -0.385236 6.14335 0 0 0 0 0 128 255
-3.78628 -0.392337 6.16623 0 0 0 0 0 128 255
-3.78414 -0.429203 6.17174 0 0 0 0 0 128 255
-3.78249 -0.502218 6.18148 0 0 0 0 0 128 255
-3.75908 -0.447452 6.1853 0 0 0 0 0 128 255
-3.74627 -0.407413 6.18614 0 0 0 0 0 128 255
-3.72812 -0.437248 6.19801 0 0 0 0 0 128 255
-3.71015 -0.460817 6.20902 0 0 0 0 0 128 255
-3.72139 -0.50543 6.20945 0 0 0 0 0 128 255
-3.73271 -0.601857 6.21623 0 0 0 0 0 128 255
-3.65063 -0.404509 6.22894 0 0 0 0 0 128 255
-3.74295 -0.74937 6.22978 0 0 0 0 0 128 255
-3.67324 -0.511328 6.2319 0 0 0 0 0 128 255
-3.68643 -0.569923 6.23317 0 0 0 0 0 128 255
-3.69733 -0.616704 6.23402 0 0 0 0 0 128 255
-3.63264 -0.417716 6.23868 0 0 0 0 0 128 255
-3.70165 -0.71504 6.24419 0 0 0 0 0 128 255
-3.7511 -0.899529 6.24461 0 0 0 0 0 128 255
-3.70853 -0.760847 6.24673 0 0 0 0 0 128 255
-3.7114 -0.816041 6.25224 0 0 0 0 0 128 255
-3.88347 -1.52164 6.26156 0 0 0 0 0 128 255
-3.70228 -0.865179 6.26241 0 0 0 0 0 128 255
-3.72024 -0.961864 6.26622 0 0 0 0 0 128 255
-3.58683 -0.476878 6.26664 0 0 0 0 0 128 255
-3.59615 -0.517871 6.26749 0 0 0 0 0 128 255
-3.72809 -1.01466 6.26919 0 0 0 0 0 128 255
-3.82366 -1.36797 6.26961 0 0 0 0 0 128 255
-3.86599 -1.52641 6.27003 0 0 0 0 0 128 255
-3.85978 -1.52085 6.27215 0 0 0 0 0 128 255
-3.60817 -0.620324 6.27469 0 0 0 0 0 128 255
-3.74366 -1.15761 6.27978 0 0 0 0 0 128 255
-3.75914 -1.22802 6.28147 0 0 0 0 0 128 255
-3.64016 -0.819949 6.28486 0 0 0 0 0 128 255
-3.76163 -1.26466 6.28486 0 0 0 0 0 128 255
-3.70491 -1.07075 6.28656 0 0 0 0 0 128 255
-3.66259 -0.922671 6.2874 0 0 0 0 0 128 255
-3.91511 -1.85405 6.28825 0 0 0 0 0 128 255
-3.86445 -1.68233 6.28995 0 0 0 0 0 128 255
-3.56504 -0.589604 6.29037 0 0 0 0 0 128 255
-3.75524 -1.32031 6.29461 0 0 0 0 0 128 255
-3.57904 -0.737127 6.30223 0 0 0 0 0 128 255
-3.56931 -0.711798 6.3035 0 0 0 0 0 128 255
-3.58566 -0.781969 6.30477 0 0 0 0 0 128 255
-3.571 -0.735178 6.30562 0 0 0 0 0 128 255
-3.57926 -0.772313 6.30647 0 0 0 0 0 128 255
-3.6463 -1.03493 6.30859 0 0 0 0 0 128 255
-3.64158 -1.03829 6.31113 0 0 0 0 0 128 255
-3.54419 -0.688596 6.31198 0 0 0 0 0 128 255
-3.53947 -0.691957 6.31452 0 0 0 0 0 128 255
-3.58754 -0.885118 6.31664 0 0 0 0 0 128 255
-3.75222 -1.48803 6.31664 0 0 0 0 0 128 255
-3.80557 -1.71085 6.32003 0 0 0 0 0 128 255
-3.69117 -1.32641 6.32426 0 0 0 0 0 128 255
-3.66518 -1.23813 6.32511 0 0 0 0 0 128 255
-3.84096 -1.90229 6.32765 0 0 0 0 0 128 255
-3.6301 -1.14406 6.32935 0 0 0 0 0 128 255
-3.74632 -1.5902 6.33189 0 0 0 0 0 128 255
-3.61874 -1.14716 6.33486 0 0 0 0 0 128 255
-3.66567 -1.33959 6.3374 0 0 0 0 0 128 255
-3.65794 -1.31475 6.33782 0 0 0 0 0 128 255
-3.61111 -1.19485 6.34418 0 0 0 0 0 128 255
-3.60402 -1.18953 6.34672 0 0 0 0 0 128 255
-3.58532 -1.19671 6.35604 0 0 0 0 0 128 255
-3.70408 -1.63491 6.35646 0 0 0 0 0 128 255
-3.76198 -1.86063 6.35816 0 0 0 0 0 128 255
-3.64289 -1.43496 6.35943 0 0 0 0 0 128 255
-3.72011 -1.72797 6.3607 0 0 0 0 0 128 255
-3.60305 -1.45414 6.37977 0 0 0 0 0 128 255
-3.59246 -1.43941 6.38273 0 0 0 0 0 128 255
-3.65928 -1.87313 6.40603 0 0 0 0 0 128 255
-3.62574 -1.75375 6.40646 0 0 0 0 0 128 255
-3.59596 -1.77536 6.42256 0 0 0 0 0 128 255
-3.6054 -2.18121 6.46832 0 0 0 0 0 128 255
-3.60576 -2.18941 6.46916 0 0 0 0 0 128 255
-3.54146 -2.14996 6.49331 0 0 0 0 0 128 255
-3.54424 -2.19792 6.49797 0 0 0 0 0 128 255
-3.44038 -1.85207 6.50221 0 0 0 0 0 128 255
-3.47644 -2.22473 6.53187 0 0 0 0 0 128 255
-3.43324 -2.27282 6.55729 0 0 0 0 0 128 255
-3.39797 -2.23995 6.56915 0 0 0 0 0 128 255
-3.39627 -2.28188 6.57508 0 0 0 0 0 128 255
