ply
format ascii 1.0
comment VCGLIB generated
element vertex 433
property float x
property float y
property float z
property float nx
property float ny
property float nz
property uchar red
property uchar green
property uchar blue
property uchar alpha
element face 0
property list uchar int vertex_indices
end_header
-0.961837 0.428696 3.66481 0 0 0 128 128 128 255
-0.962676 0.362224 3.65453 0 0 0 128 128 128 255
-0.961817 0.341462 3.64951 0 0 0 128 128 128 255
-0.957479 0.389346 3.65061 0 0 0 128 128 128 255
-0.95823 0.348634 3.64496 0 0 0 128 128 128 255
-0.924284 0.592475 3.63601 0 0 0 128 128 128 255
-0.925587 0.481158 3.62136 0 0 0 128 128 128 255
-0.913553 0.678276 3.63567 0 0 0 128 128 128 255
-0.915163 0.650403 3.63354 0 0 0 128 128 128 255
-0.888036 0.860805 3.63351 0 0 0 128 128 128 255
-0.899531 0.661717 3.61829 0 0 0 128 128 128 255
-0.879406 0.973328 3.64 0 0 0 128 128 128 255
-0.883904 0.833027 3.62581 0 0 0 128 128 128 255
-0.88375 0.823083 3.62436 0 0 0 128 128 128 255
-0.887158 0.751421 3.6182 0 0 0 128 128 128 255
-0.887817 0.714609 3.61403 0 0 0 128 128 128 255
-0.889091 0.679777 3.61069 0 0 0 128 128 128 255
-0.8868 0.706663 3.61207 0 0 0 128 128 128 255
-0.879505 0.768419 3.61346 0 0 0 128 128 128 255
-0.877457 0.751522 3.60955 0 0 0 128 128 128 255
-0.877557 0.736596 3.60776 0 0 0 128 128 128 255
-0.87842 0.721665 3.60662 0 0 0 128 128 128 255
-0.875472 0.759497 3.60886 0 0 0 128 128 128 255
-0.878863 0.700765 3.60437 0 0 0 128 128 128 255
-0.870471 0.779427 3.6072 0 0 0 128 128 128 255
-0.870204 0.7436 3.60258 0 0 0 128 128 128 255
-0.857026 0.889939 3.61007 0 0 0 128 128 128 255
-0.855491 0.888944 3.60878 0 0 0 128 128 128 255
-0.864343 0.735646 3.59706 0 0 0 128 128 128 255
-0.8782 0.481808 3.57706 0 0 0 128 128 128 255
-0.863318 0.711754 3.59344 0 0 0 128 128 128 255
-0.874526 0.517643 3.5786 0 0 0 128 128 128 255
-0.861191 0.734648 3.5946 0 0 0 128 128 128 255
-0.851951 0.724655 3.58694 0 0 0 128 128 128 255
-0.859205 0.49765 3.56574 0 0 0 128 128 128 255
-0.828303 0.959494 3.59839 0 0 0 128 128 128 255
-0.825287 0.952487 3.59578 0 0 0 128 128 128 255
-0.813968 1.08882 3.60418 0 0 0 128 128 128 255
-0.842989 0.571177 3.56411 0 0 0 128 128 128 255
-0.812924 1.07685 3.60226 0 0 0 128 128 128 255
-0.835555 0.654757 3.56901 0 0 0 128 128 128 255
-0.835487 0.640808 3.56746 0 0 0 128 128 128 255
-0.842258 0.508401 3.55685 0 0 0 128 128 128 255
-0.844154 0.475552 3.55434 0 0 0 128 128 128 255
-0.815058 0.9643 3.59122 0 0 0 128 128 128 255
-0.812537 0.962267 3.58964 0 0 0 128 128 128 255
-0.836945 0.524257 3.55568 0 0 0 128 128 128 255
-0.801231 1.12748 3.60133 0 0 0 128 128 128 255
-0.817166 0.789961 3.57369 0 0 0 128 128 128 255
-0.816563 0.784967 3.57285 0 0 0 128 128 128 255
-0.833545 0.475367 3.54874 0 0 0 128 128 128 255
-0.790119 1.21198 3.6046 0 0 0 128 128 128 255
-0.820811 0.680411 3.56397 0 0 0 128 128 128 255
-0.822133 0.657516 3.56222 0 0 0 128 128 128 255
-0.790143 1.19603 3.60294 0 0 0 128 128 128 255
-0.786947 1.23583 3.60554 0 0 0 128 128 128 255
-0.82791 0.495186 3.54805 0 0 0 128 128 128 255
-0.793271 1.07949 3.59229 0 0 0 128 128 128 255
-0.799782 0.95106 3.58204 0 0 0 128 128 128 255
-0.809725 0.778849 3.56888 0 0 0 128 128 128 255
-0.783474 1.21782 3.60201 0 0 0 128 128 128 255
-0.801407 0.907241 3.57827 0 0 0 128 128 128 255
-0.803419 0.872401 3.5756 0 0 0 128 128 128 255
-0.80918 0.756909 3.56635 0 0 0 128 128 128 255
-0.798301 0.882252 3.57428 0 0 0 128 128 128 255
-0.785779 1.08331 3.58924 0 0 0 128 128 128 255
-0.816189 0.540772 3.54736 0 0 0 128 128 128 255
-0.7951 0.890151 3.57367 0 0 0 128 128 128 255
-0.795732 0.879201 3.57283 0 0 0 128 128 128 255
-0.804813 0.721921 3.56081 0 0 0 128 128 128 255
-0.782977 1.06829 3.5865 0 0 0 128 128 128 255
-0.79315 0.892096 3.57303 0 0 0 128 128 128 255
-0.789299 0.942841 3.57652 0 0 0 128 128 128 255
-0.813382 0.52575 3.54463 0 0 0 128 128 128 255
-0.774062 1.15878 3.59187 0 0 0 128 128 128 255
-0.772907 1.16274 3.59179 0 0 0 128 128 128 255
-0.810375 0.497758 3.54058 0 0 0 128 128 128 255
-0.810835 0.489795 3.53997 0 0 0 128 128 128 255
-0.801402 0.637095 3.55086 0 0 0 128 128 128 255
-0.80804 0.473766 3.53728 0 0 0 128 128 128 255
-0.797682 0.636993 3.5494 0 0 0 128 128 128 255
-0.764275 1.19939 3.59203 0 0 0 128 128 128 255
-0.793128 0.699679 3.55383 0 0 0 128 128 128 255
-0.760927 1.24117 3.59487 0 0 0 128 128 128 255
-0.774957 0.949426 3.57153 0 0 0 128 128 128 255
-0.784437 0.736317 3.55422 0 0 0 128 128 128 255
-0.789553 0.647722 3.54745 0 0 0 128 128 128 255
-0.800565 0.440641 3.53129 0 0 0 128 128 128 255
-0.793702 0.543143 3.5388 0 0 0 128 128 128 255
-0.760686 1.09857 3.58093 0 0 0 128 128 128 255
-0.795493 0.446465 3.53012 0 0 0 128 128 128 255
-0.756208 1.11039 3.58057 0 0 0 128 128 128 255
-0.767588 0.913297 3.5655 0 0 0 128 128 128 255
-0.79256 0.464321 3.53087 0 0 0 128 128 128 255
-0.791609 0.46429 3.53056 0 0 0 128 128 128 255
-0.793506 0.43144 3.52805 0 0 0 128 128 128 255
-0.791371 0.435358 3.52775 0 0 0 128 128 128 255
-0.766724 0.812533 3.5557 0 0 0 128 128 128 255
-0.765632 0.781574 3.55248 0 0 0 128 128 128 255
-0.773736 0.641217 3.54175 0 0 0 128 128 128 255
-0.77776 0.437866 3.52408 0 0 0 128 128 128 255
-0.750503 0.825904 3.55253 0 0 0 128 128 128 255
-0.742411 0.93234 3.5602 0 0 0 128 128 128 255
-0.747474 0.82778 3.55198 0 0 0 128 128 128 255
-0.731101 1.07756 3.57062 0 0 0 128 128 128 255
-0.753464 0.656407 3.538 0 0 0 128 128 128 255
-0.72375 1.15409 3.57583 0 0 0 128 128 128 255
-0.73697 0.908174 3.55682 0 0 0 128 128 128 255
-0.739606 0.777565 3.54585 0 0 0 128 128 128 255
-0.758685 0.430114 3.5191 0 0 0 128 128 128 255
-0.720224 1.06214 3.56704 0 0 0 128 128 128 255
-0.713367 1.1297 3.57168 0 0 0 128 128 128 255
-0.727276 0.888799 3.55327 0 0 0 128 128 128 255
-0.740726 0.655865 3.53546 0 0 0 128 128 128 255
-0.752386 0.436824 3.51855 0 0 0 128 128 128 255
-0.73328 0.716411 3.53944 0 0 0 128 128 128 255
-0.726285 0.768988 3.54285 0 0 0 128 128 128 255
-0.737879 0.465099 3.51882 0 0 0 128 128 128 255
-0.738683 0.451162 3.51776 0 0 0 128 128 128 255
-0.718668 0.780606 3.54282 0 0 0 128 128 128 255
-0.723137 0.685991 3.53547 0 0 0 128 128 128 255
-0.708351 0.924849 3.55361 0 0 0 128 128 128 255
-0.705546 0.921717 3.55305 0 0 0 128 128 128 255
-0.694897 1.0889 3.56572 0 0 0 128 128 128 255
-0.703772 0.900664 3.55114 0 0 0 128 128 128 255
-0.709583 0.74821 3.53922 0 0 0 128 128 128 255
-0.710484 0.71531 3.53662 0 0 0 128 128 128 255
-0.726175 0.443554 3.51585 0 0 0 128 128 128 255
-0.725755 0.433548 3.51501 0 0 0 128 128 128 255
-0.682744 1.16117 3.57055 0 0 0 128 128 128 255
-0.700792 0.848596 3.54666 0 0 0 128 128 128 255
-0.706769 0.74507 3.53875 0 0 0 128 128 128 255
-0.723782 0.450419 3.51622 0 0 0 128 128 128 255
-0.69811 0.860438 3.54743 0 0 0 128 128 128 255
-0.685101 1.06843 3.56326 0 0 0 128 128 128 255
-0.705639 0.678114 3.5333 0 0 0 128 128 128 255
-0.691882 0.899049 3.55014 0 0 0 128 128 128 255
-0.699142 0.738676 3.53778 0 0 0 128 128 128 255
-0.702168 0.668941 3.5324 0 0 0 128 128 128 255
-0.688082 0.860899 3.54696 0 0 0 128 128 128 255
-0.697853 0.691674 3.53403 0 0 0 128 128 128 255
-0.69929 0.666787 3.53212 0 0 0 128 128 128 255
-0.696568 0.696596 3.53437 0 0 0 128 128 128 255
-0.699781 0.588922 3.52607 0 0 0 128 128 128 255
-0.680103 0.912385 3.55078 0 0 0 128 128 128 255
-0.680218 0.910394 3.55062 0 0 0 128 128 128 255
-0.681827 0.882521 3.54849 0 0 0 128 128 128 255
-0.672755 0.952914 3.55384 0 0 0 128 128 128 255
-0.682296 0.787671 3.5412 0 0 0 128 128 128 255
-0.702068 0.445238 3.51503 0 0 0 128 128 128 255
-0.679552 0.800496 3.54219 0 0 0 128 128 128 255
-0.698922 0.465032 3.51655 0 0 0 128 128 128 255
-0.700991 0.429196 3.51381 0 0 0 128 128 128 255
-0.68183 0.743698 3.53786 0 0 0 128 128 128 255
-0.683152 0.720803 3.53611 0 0 0 128 128 128 255
-0.692463 0.559541 3.52378 0 0 0 128 128 128 255
-0.694762 0.519723 3.52074 0 0 0 128 128 128 255
-0.699935 0.430134 3.51389 0 0 0 128 128 128 255
-0.664785 0.917487 3.5513 0 0 0 128 128 128 255
-0.692603 0.435693 3.51447 0 0 0 128 128 128 255
-0.655856 1.0548 3.56184 0 0 0 128 128 128 255
-0.653458 1.06165 3.56244 0 0 0 128 128 128 255
-0.668497 0.783857 3.54125 0 0 0 128 128 128 255
-0.667672 0.780809 3.54107 0 0 0 128 128 128 255
-0.670719 0.728051 3.53704 0 0 0 128 128 128 255
-0.679915 0.56878 3.52486 0 0 0 128 128 128 255
-0.645983 1.08716 3.56472 0 0 0 128 128 128 255
-0.661349 0.78641 3.54187 0 0 0 128 128 128 255
-0.650298 0.908598 3.55152 0 0 0 128 128 128 255
-0.673031 0.428474 3.51528 0 0 0 128 128 128 255
-0.630943 1.14015 3.56979 0 0 0 128 128 128 255
-0.653588 0.747946 3.53981 0 0 0 128 128 128 255
-0.634318 1.06443 3.56411 0 0 0 128 128 128 255
-0.668444 0.456151 3.51772 0 0 0 128 128 128 255
-0.632736 1.05733 3.56379 0 0 0 128 128 128 255
-0.631444 1.04526 3.5631 0 0 0 128 128 128 255
-0.665642 0.452967 3.51783 0 0 0 128 128 128 255
-0.666446 0.439031 3.51676 0 0 0 128 128 128 255
-0.628326 1.08202 3.56604 0 0 0 128 128 128 255
-0.658558 0.558418 3.52601 0 0 0 128 128 128 255
-0.632658 0.869453 3.55089 0 0 0 128 128 128 255
-0.648158 0.566702 3.52806 0 0 0 128 128 128 255
-0.636885 0.744817 3.54184 0 0 0 128 128 128 255
-0.648897 0.53677 3.52593 0 0 0 128 128 128 255
-0.61814 1.05234 3.56551 0 0 0 128 128 128 255
-0.621703 0.990622 3.56079 0 0 0 128 128 128 255
-0.636245 0.738775 3.54154 0 0 0 128 128 128 255
-0.636007 0.725766 3.54071 0 0 0 128 128 128 255
-0.618177 1.00037 3.56205 0 0 0 128 128 128 255
-0.650823 0.434957 3.51882 0 0 0 128 128 128 255
-0.622654 0.905732 3.55499 0 0 0 128 128 128 255
-0.625183 0.861932 3.55164 0 0 0 128 128 128 255
-0.648173 0.463755 3.5212 0 0 0 128 128 128 255
-0.615752 1.00819 3.563 0 0 0 128 128 128 255
-0.636788 0.64386 3.53515 0 0 0 128 128 128 255
-0.625921 0.815006 3.54842 0 0 0 128 128 128 255
-0.635922 0.641799 3.53518 0 0 0 128 128 128 255
-0.630228 0.723355 3.5416 0 0 0 128 128 128 255
-0.616948 0.936309 3.55807 0 0 0 128 128 128 255
-0.638731 0.559036 3.52923 0 0 0 128 128 128 255
-0.609473 1.04872 3.56685 0 0 0 128 128 128 255
-0.619302 0.878502 3.55384 0 0 0 128 128 128 255
-0.632636 0.64756 3.53619 0 0 0 128 128 128 255
-0.645511 0.424581 3.51914 0 0 0 128 128 128 255
-0.639359 0.514099 3.52618 0 0 0 128 128 128 255
-0.616367 0.895283 3.55552 0 0 0 128 128 128 255
-0.62746 0.652179 3.53755 0 0 0 128 128 128 255
-0.637923 0.454014 3.52262 0 0 0 128 128 128 255
-0.614015 0.851123 3.55319 0 0 0 128 128 128 255
-0.612868 0.854037 3.55363 0 0 0 128 128 128 255
-0.629364 0.568345 3.5318 0 0 0 128 128 128 255
-0.614539 0.808174 3.55035 0 0 0 128 128 128 255
-0.627241 0.588181 3.53353 0 0 0 128 128 128 255
-0.631728 0.493541 3.52653 0 0 0 128 128 128 255
-0.597146 1.04181 3.56914 0 0 0 128 128 128 255
-0.614759 0.686214 3.54268 0 0 0 128 128 128 255
-0.613389 0.693108 3.54346 0 0 0 128 128 128 255
-0.615344 0.659263 3.54087 0 0 0 128 128 128 255
-0.62485 0.46102 3.52622 0 0 0 128 128 128 255
-0.583307 1.16373 3.5802 0 0 0 128 128 128 255
-0.618138 0.560489 3.53409 0 0 0 128 128 128 255
-0.620379 0.521667 3.53112 0 0 0 128 128 128 255
-0.62538 0.435064 3.5245 0 0 0 128 128 128 255
-0.625839 0.4271 3.52389 0 0 0 128 128 128 255
-0.59746 0.901851 3.56044 0 0 0 128 128 128 255
-0.616326 0.558348 3.53445 0 0 0 128 128 128 255
-0.617878 0.531471 3.53239 0 0 0 128 128 128 255
-0.583995 1.03478 3.57225 0 0 0 128 128 128 255
-0.58913 0.929191 3.56446 0 0 0 128 128 128 255
-0.61419 0.495178 3.53128 0 0 0 128 128 128 255
-0.589863 0.883247 3.56153 0 0 0 128 128 128 255
-0.609692 0.539819 3.53527 0 0 0 128 128 128 255
-0.614772 0.435221 3.52757 0 0 0 128 128 128 255
-0.585361 0.894883 3.56361 0 0 0 128 128 128 255
-0.611111 0.448924 3.52952 0 0 0 128 128 128 255
-0.588664 0.788136 3.55638 0 0 0 128 128 128 255
-0.60286 0.542262 3.53759 0 0 0 128 128 128 255
-0.603492 0.531312 3.53675 0 0 0 128 128 128 255
-0.585456 0.777867 3.55689 0 0 0 128 128 128 255
-0.589479 0.708186 3.55156 0 0 0 128 128 128 255
-0.590663 0.671275 3.54907 0 0 0 128 128 128 255
-0.587611 0.675018 3.55036 0 0 0 128 128 128 255
-0.598014 0.494843 3.53659 0 0 0 128 128 128 255
-0.572155 0.893776 3.56812 0 0 0 128 128 128 255
-0.591754 0.55433 3.54217 0 0 0 128 128 128 255
-0.571737 0.884736 3.56778 0 0 0 128 128 128 255
-0.589957 0.569181 3.54366 0 0 0 128 128 128 255
-0.589574 0.52713 3.54152 0 0 0 128 128 128 255
-0.574792 0.766951 3.56022 0 0 0 128 128 128 255
-0.546447 1.2417 3.59688 0 0 0 128 128 128 255
-0.592255 0.448328 3.53623 0 0 0 128 128 128 255
-0.579696 0.553271 3.54691 0 0 0 128 128 128 255
-0.537972 1.24394 3.6005 0 0 0 128 128 128 255
-0.580159 0.513288 3.54464 0 0 0 128 128 128 255
-0.58332 0.458539 3.54046 0 0 0 128 128 128 255
-0.582243 0.429422 3.53944 0 0 0 128 128 128 255
-0.571317 0.539498 3.54992 0 0 0 128 128 128 255
-0.572303 0.459525 3.54552 0 0 0 128 128 128 255
-0.547034 0.881508 3.57821 0 0 0 128 128 128 255
-0.571426 0.443428 3.54516 0 0 0 128 128 128 255
-0.538055 1.00577 3.58859 0 0 0 128 128 128 255
-0.554576 0.704064 3.56597 0 0 0 128 128 128 255
-0.562361 0.553667 3.55492 0 0 0 128 128 128 255
-0.542904 0.875109 3.57995 0 0 0 128 128 128 255
-0.549342 0.76362 3.57143 0 0 0 128 128 128 255
-0.53532 0.975478 3.58853 0 0 0 128 128 128 255
-0.560757 0.519479 3.55413 0 0 0 128 128 128 255
-0.538123 0.880653 3.58267 0 0 0 128 128 128 255
-0.558104 0.519221 3.55551 0 0 0 128 128 128 255
-0.552074 0.577692 3.5614 0 0 0 128 128 128 255
-0.512332 1.23551 3.61265 0 0 0 128 128 128 255
-0.554922 0.497883 3.55627 0 0 0 128 128 128 255
-0.511976 1.22646 3.61245 0 0 0 128 128 128 255
-0.512608 1.21551 3.61161 0 0 0 128 128 128 255
-0.53284 0.865114 3.58482 0 0 0 128 128 128 255
-0.524784 0.989457 3.59482 0 0 0 128 128 128 255
-0.526156 0.950548 3.59234 0 0 0 128 128 128 255
-0.540629 0.669658 3.57186 0 0 0 128 128 128 255
-0.546775 0.533107 3.56242 0 0 0 128 128 128 255
-0.536085 0.703239 3.57594 0 0 0 128 128 128 255
-0.537237 0.668311 3.57378 0 0 0 128 128 128 255
-0.542305 0.550672 3.56581 0 0 0 128 128 128 255
-0.546403 0.449955 3.55915 0 0 0 128 128 128 255
-0.540851 0.516472 3.56529 0 0 0 128 128 128 255
-0.546196 0.423896 3.55821 0 0 0 128 128 128 255
-0.516438 0.924515 3.59701 0 0 0 128 128 128 255
-0.519944 0.863793 3.59237 0 0 0 128 128 128 255
-0.513714 0.942255 3.59944 0 0 0 128 128 128 255
-0.542969 0.435574 3.5607 0 0 0 128 128 128 255
-0.530914 0.513407 3.5716 0 0 0 128 128 128 255
-0.531353 0.491417 3.57048 0 0 0 128 128 128 255
-0.53461 0.42065 3.56564 0 0 0 128 128 128 255
-0.509935 0.833668 3.59778 0 0 0 128 128 128 255
-0.523931 0.562727 3.57822 0 0 0 128 128 128 255
-0.505355 0.870228 3.6023 0 0 0 128 128 128 255
-0.510183 0.786611 3.59591 0 0 0 128 128 128 255
-0.524782 0.533768 3.57658 0 0 0 128 128 128 255
-0.495747 1.02244 3.61452 0 0 0 128 128 128 255
-0.505447 0.826156 3.60068 0 0 0 128 128 128 255
-0.52746 0.444901 3.57154 0 0 0 128 128 128 255
-0.513892 0.665798 3.58901 0 0 0 128 128 128 255
-0.526708 0.429787 3.57156 0 0 0 128 128 128 255
-0.501878 0.845791 3.60396 0 0 0 128 128 128 255
-0.502983 0.784794 3.60109 0 0 0 128 128 128 255
-0.522544 0.418288 3.57429 0 0 0 128 128 128 255
-0.491856 0.894737 3.61317 0 0 0 128 128 128 255
-0.511418 0.542258 3.58684 0 0 0 128 128 128 255
-0.504946 0.640715 3.59499 0 0 0 128 128 128 255
-0.509889 0.555107 3.58845 0 0 0 128 128 128 255
-0.514085 0.482439 3.58289 0 0 0 128 128 128 255
-0.504109 0.641618 3.59569 0 0 0 128 128 128 255
-0.497988 0.707039 3.60258 0 0 0 128 128 128 255
-0.487519 0.848114 3.61528 0 0 0 128 128 128 255
-0.499819 0.635089 3.599 0 0 0 128 128 128 255
-0.493766 0.726577 3.60664 0 0 0 128 128 128 255
-0.502128 0.555175 3.59483 0 0 0 128 128 128 255
-0.462976 1.22004 3.64631 0 0 0 128 128 128 255
-0.483437 0.86566 3.61922 0 0 0 128 128 128 255
-0.508373 0.420604 3.58585 0 0 0 128 128 128 255
-0.503648 0.476162 3.59141 0 0 0 128 128 128 255
-0.500657 0.514891 3.59504 0 0 0 128 128 128 255
-0.489048 0.689902 3.60975 0 0 0 128 128 128 255
-0.492795 0.59913 3.60415 0 0 0 128 128 128 255
-0.495562 0.538314 3.60018 0 0 0 128 128 128 255
-0.456202 1.20716 3.65198 0 0 0 128 128 128 255
-0.452455 1.23375 3.65606 0 0 0 128 128 128 255
-0.479066 0.772863 3.62083 0 0 0 128 128 128 255
-0.46466 1.00968 3.63962 0 0 0 128 128 128 255
-0.473936 0.836383 3.62706 0 0 0 128 128 128 255
-0.489167 0.572591 3.6069 0 0 0 128 128 128 255
-0.478413 0.733665 3.6206 0 0 0 128 128 128 255
-0.46097 1.02324 3.64343 0 0 0 128 128 128 255
-0.470453 0.858996 3.63088 0 0 0 128 128 128 255
-0.491892 0.487696 3.60249 0 0 0 128 128 128 255
-0.4929 0.457739 3.6009 0 0 0 128 128 128 255
-0.477186 0.717455 3.62146 0 0 0 128 128 128 255
-0.478508 0.69456 3.61971 0 0 0 128 128 128 255
-0.486612 0.554202 3.60898 0 0 0 128 128 128 255
-0.47621 0.697263 3.62203 0 0 0 128 128 128 255
-0.46677 0.848476 3.6343 0 0 0 128 128 128 255
-0.472632 0.746941 3.62654 0 0 0 128 128 128 255
-0.471011 0.762773 3.62847 0 0 0 128 128 128 255
-0.453932 1.04638 3.65086 0 0 0 128 128 128 255
-0.482663 0.536619 3.61261 0 0 0 128 128 128 255
-0.454725 1.00836 3.6494 0 0 0 128 128 128 255
-0.469784 0.747558 3.62946 0 0 0 128 128 128 255
-0.478173 0.578143 3.61796 0 0 0 128 128 128 255
-0.48128 0.512349 3.61365 0 0 0 128 128 128 255
-0.481878 0.466274 3.61233 0 0 0 128 128 128 255
-0.46972 0.653228 3.6281 0 0 0 128 128 128 255
-0.450886 0.967693 3.65288 0 0 0 128 128 128 255
-0.474911 0.551598 3.62107 0 0 0 128 128 128 255
-0.446158 1.02623 3.65884 0 0 0 128 128 128 255
-0.457448 0.819087 3.64376 0 0 0 128 128 128 255
-0.445348 1.01708 3.65964 0 0 0 128 128 128 255
-0.454402 0.84876 3.64753 0 0 0 128 128 128 255
-0.456988 0.803965 3.6441 0 0 0 128 128 128 255
-0.472942 0.516187 3.62286 0 0 0 128 128 128 255
-0.4401 1.07354 3.66622 0 0 0 128 128 128 255
-0.472057 0.520074 3.62391 0 0 0 128 128 128 255
-0.455122 0.790644 3.64612 0 0 0 128 128 128 255
-0.466042 0.60151 3.63166 0 0 0 128 128 128 255
-0.466962 0.585582 3.63044 0 0 0 128 128 128 255
-0.434703 1.13298 3.67305 0 0 0 128 128 128 255
-0.445221 0.950815 3.65913 0 0 0 128 128 128 255
-0.469074 0.537706 3.62755 0 0 0 128 128 128 255
-0.444347 0.954701 3.66019 0 0 0 128 128 128 255
-0.432773 1.12165 3.67526 0 0 0 128 128 128 255
-0.468981 0.483476 3.62725 0 0 0 128 128 128 255
-0.454325 0.726269 3.64659 0 0 0 128 128 128 255
-0.447374 0.835672 3.65573 0 0 0 128 128 128 255
-0.447092 0.829604 3.65605 0 0 0 128 128 128 255
-0.432929 1.04234 3.67467 0 0 0 128 128 128 255
-0.461322 0.550594 3.63707 0 0 0 128 128 128 255
-0.431894 1.02812 3.67595 0 0 0 128 128 128 255
-0.450516 0.705597 3.6513 0 0 0 128 128 128 255
-0.42614 1.10657 3.68354 0 0 0 128 128 128 255
-0.455378 0.568745 3.64483 0 0 0 128 128 128 255
-0.460953 0.472187 3.63745 0 0 0 128 128 128 255
-0.424393 1.06409 3.68594 0 0 0 128 128 128 255
-0.457671 0.487732 3.64188 0 0 0 128 128 128 255
-0.438005 0.818124 3.66795 0 0 0 128 128 128 255
-0.455478 0.515509 3.64481 0 0 0 128 128 128 255
-0.424262 1.04598 3.68618 0 0 0 128 128 128 255
-0.424607 1.04001 3.68572 0 0 0 128 128 128 255
-0.457541 0.469624 3.64212 0 0 0 128 128 128 255
-0.443341 0.705448 3.66097 0 0 0 128 128 128 255
-0.455411 0.496405 3.64499 0 0 0 128 128 128 255
-0.437363 0.798925 3.66893 0 0 0 128 128 128 255
-0.441903 0.720285 3.66292 0 0 0 128 128 128 255
-0.432089 0.860356 3.6761 0 0 0 128 128 128 255
-0.437894 0.759817 3.66841 0 0 0 128 128 128 255
-0.450252 0.545796 3.65205 0 0 0 128 128 128 255
-0.439571 0.720899 3.66626 0 0 0 128 128 128 255
-0.444319 0.570916 3.66064 0 0 0 128 128 128 255
-0.448238 0.484122 3.65569 0 0 0 128 128 128 255
-0.437703 0.592861 3.67082 0 0 0 128 128 128 255
-0.430021 0.699089 3.68153 0 0 0 128 128 128 255
-0.43762 0.558637 3.67166 0 0 0 128 128 128 255
-0.421905 0.813281 3.69286 0 0 0 128 128 128 255
-0.436547 0.52522 3.67433 0 0 0 128 128 128 255
-0.417958 0.83869 3.69917 0 0 0 128 128 128 255
-0.436424 0.502041 3.67519 0 0 0 128 128 128 255
-0.418232 0.800486 3.69977 0 0 0 128 128 128 255
-0.431429 0.539303 3.68335 0 0 0 128 128 128 255
-0.43459 0.484554 3.67917 0 0 0 128 128 128 255
-0.432528 0.504274 3.68246 0 0 0 128 128 128 255
-0.418708 0.720004 3.70164 0 0 0 128 128 128 255
-0.423371 0.58596 3.69771 0 0 0 128 128 128 255
-0.408435 0.822595 3.71853 0 0 0 128 128 128 255
-0.423683 0.495255 3.70178 0 0 0 128 128 128 255
-0.408259 0.748908 3.72302 0 0 0 128 128 128 255
-0.418315 0.548456 3.71141 0 0 0 128 128 128 255
-0.408235 0.716593 3.7252 0 0 0 128 128 128 255
-0.40402 0.783196 3.73123 0 0 0 128 128 128 255
-0.417167 0.549175 3.71427 0 0 0 128 128 128 255
-0.39751 0.806715 3.74718 0 0 0 128 128 128 255
-0.412486 0.52564 3.72951 0 0 0 128 128 128 255
-0.398778 0.747354 3.74933 0 0 0 128 128 128 255
-0.395728 0.795046 3.75393 0 0 0 128 128 128 255
-0.410442 0.535146 3.73503 0 0 0 128 128 128 255
-0.39957 0.698948 3.75236 0 0 0 128 128 128 255
-0.397228 0.716423 3.75854 0 0 0 128 128 128 255
-0.401707 0.557318 3.76692 0 0 0 128 128 128 255
-0.380369 0.908198 3.79967 0 0 0 128 128 128 255
-0.39239 0.69708 3.78452 0 0 0 128 128 128 255
-0.391834 0.660581 3.80161 0 0 0 128 128 128 255
-0.397455 0.559879 3.79591 0 0 0 128 128 128 255
-0.399447 0.520814 3.79593 0 0 0 128 128 128 255
-0.395416 0.581972 3.80761 0 0 0 128 128 128 255
-0.389795 0.677377 3.8169 0 0 0 128 128 128 255
-0.389686 0.676067 3.82081 0 0 0 128 128 128 255
-0.399021 0.511353 3.81423 0 0 0 128 128 128 255
