ply
format ascii 1.0
comment VCGLIB generated
element vertex 174
property float x
property float y
property float z
property float nx
property float ny
property float nz
property uchar red
property uchar green
property uchar blue
property uchar alpha
element face 0
property list uchar int vertex_indices
end_header
-0.987485 -0.896753 3.55302 0 0 0 255 255 255 255
-0.462433 -0.351811 3.77713 0 0 0 255 255 255 255
-0.463842 -0.350934 3.79388 0 0 0 255 255 255 255
-0.463679 -0.347142 3.79627 0 0 0 255 255 255 255
-0.448807 -0.336912 3.80652 0 0 0 255 255 255 255
-0.463609 -0.346999 3.79567 0 0 0 255 255 255 255
-2.6871 -1.54565 5.20097 0 0 0 255 255 255 255
-2.69119 -1.54029 5.17945 0 0 0 255 255 255 255
-2.62519 -1.55322 5.25918 0 0 0 255 255 255 255
-2.69267 -1.52253 5.18708 0 0 0 255 255 255 255
-2.4385 1.23688 4.5898 0 0 0 255 255 255 255
-2.30735 1.28762 4.54215 0 0 0 255 255 255 255
-0.569401 -0.0249 3.53563 0 0 0 255 255 255 255
-0.552098 -0.0136989 3.53674 0 0 0 255 255 255 255
-0.55329 -0.0367075 3.53774 0 0 0 255 255 255 255
-0.525916 -0.0101238 3.5553 0 0 0 255 255 255 255
-0.554619 -0.0292288 3.53891 0 0 0 255 255 255 255
-0.462755 0.112613 3.82298 0 0 0 255 255 255 255
-0.463829 1.48146e-05 3.84759 0 0 0 255 255 255 255
-0.450167 -0.0232951 3.83556 0 0 0 255 255 255 255
-0.43825 -0.0702649 3.79472 0 0 0 255 255 255 255
-0.437948 -0.014118 3.84757 0 0 0 255 255 255 255
-0.439354 -0.0747966 3.79658 0 0 0 255 255 255 255
-0.426128 -0.00675995 3.85074 0 0 0 255 255 255 255
-0.440751 -0.0788462 3.79416 0 0 0 255 255 255 255
-0.461881 -0.0353492 3.75332 0 0 0 255 255 255 255
-0.455905 -0.0221733 3.76207 0 0 0 255 255 255 255
-0.432874 0.334987 3.81642 0 0 0 255 255 255 255
-0.455147 0.355551 3.81394 0 0 0 255 255 255 255
-0.431645 0.325758 3.81689 0 0 0 255 255 255 255
-0.458888 0.348598 3.87272 0 0 0 255 255 255 255
-0.422563 0.306795 3.85964 0 0 0 255 255 255 255
-0.461103 0.348213 3.86959 0 0 0 255 255 255 255
-0.408106 0.313748 3.83501 0 0 0 255 255 255 255
-0.428287 0.328485 3.85872 0 0 0 255 255 255 255
-0.782966 1.12501 3.50489 0 0 0 255 255 255 255
-0.73746 1.21273 3.50486 0 0 0 255 255 255 255
-0.713344 1.22678 3.49866 0 0 0 255 255 255 255
-2.53111 1.23582 5.1063 0 0 0 255 255 255 255
-2.68143 1.23728 5.2017 0 0 0 255 255 255 255
-2.52965 1.28543 4.90545 0 0 0 255 255 255 255
-2.89175 0.308449 5.35571 0 0 0 255 255 255 255
-2.92264 0.372886 5.58838 0 0 0 255 255 255 255
-2.70044 1.11576 5.26148 0 0 0 255 255 255 255
-2.50444 1.21895 4.7336 0 0 0 255 255 255 255
-2.55378 1.25977 4.93922 0 0 0 255 255 255 255
-2.52064 1.27733 4.83281 0 0 0 255 255 255 255
-2.53856 1.26142 4.96181 0 0 0 255 255 255 255
-2.89144 0.313398 5.35737 0 0 0 255 255 255 255
-2.72369 0.371621 5.58994 0 0 0 255 255 255 255
-2.68198 1.23711 5.20252 0 0 0 255 255 255 255
-2.49847 1.15373 4.72771 0 0 0 255 255 255 255
-2.663 1.16316 5.23096 0 0 0 255 255 255 255
-2.53357 1.27986 4.90328 0 0 0 255 255 255 255
0.0563035 0.0806954 4.30167 0 0 0 255 255 255 255
0.0440485 0.145324 4.27499 0 0 0 255 255 255 255
0.067003 0.080012 4.30111 0 0 0 255 255 255 255
0.0526992 0.0969942 4.29042 0 0 0 255 255 255 255
0.0737869 0.117148 4.29012 0 0 0 255 255 255 255
0.0593341 0.0798907 4.30227 0 0 0 255 255 255 255
0.0461947 0.173173 4.29447 0 0 0 255 255 255 255
0.0661181 0.0609344 4.29364 0 0 0 255 255 255 255
0.0473996 0.179516 4.29419 0 0 0 255 255 255 255
0.157646 0.0989397 4.23346 0 0 0 255 255 255 255
0.174387 0.104971 4.27144 0 0 0 255 255 255 255
0.195812 0.0696227 4.25102 0 0 0 255 255 255 255
0.109064 0.187173 4.27088 0 0 0 255 255 255 255
0.216432 0.08139 4.2514 0 0 0 255 255 255 255
0.210965 0.114676 4.24845 0 0 0 255 255 255 255
0.0819534 0.0936505 4.2985 0 0 0 255 255 255 255
0.183234 0.0737759 4.25605 0 0 0 255 255 255 255
0.155836 0.0768146 4.24424 0 0 0 255 255 255 255
0.218188 0.14088 4.21322 0 0 0 255 255 255 255
0.0902124 0.179067 4.28773 0 0 0 255 255 255 255
0.131457 0.103122 4.22166 0 0 0 255 255 255 255
0.0829295 0.0705825 4.30138 0 0 0 255 255 255 255
0.0800566 0.146003 4.27571 0 0 0 255 255 255 255
0.15991 0.104077 4.21127 0 0 0 255 255 255 255
0.236751 0.0711185 4.25234 0 0 0 255 255 255 255
0.0345259 0.246646 4.30575 0 0 0 255 255 255 255
0.0496495 0.219406 4.29985 0 0 0 255 255 255 255
0.0528613 0.208488 4.29579 0 0 0 255 255 255 255
0.1519 0.227356 4.23242 0 0 0 255 255 255 255
0.187154 0.227261 4.21172 0 0 0 255 255 255 255
0.217583 0.220789 4.24746 0 0 0 255 255 255 255
0.220082 0.231819 4.27194 0 0 0 255 255 255 255
0.157703 0.912854 4.10433 0 0 0 255 255 255 255
0.00868849 0.844747 4.28401 0 0 0 255 255 255 255
0.207419 0.968899 4.11349 0 0 0 255 255 255 255
0.201172 0.895952 4.1876 0 0 0 255 255 255 255
0.0293845 0.840984 4.18464 0 0 0 255 255 255 255
-0.0316339 0.849864 4.30752 0 0 0 255 255 255 255
0.205336 0.949095 4.10793 0 0 0 255 255 255 255
0.13042 0.923914 4.12755 0 0 0 255 255 255 255
0.232491 0.919643 4.12359 0 0 0 255 255 255 255
0.192413 0.920435 4.09706 0 0 0 255 255 255 255
0.319947 0.0834187 4.33211 0 0 0 255 255 255 255
0.26032 0.0759444 4.28287 0 0 0 255 255 255 255
0.254944 0.0922692 4.24423 0 0 0 255 255 255 255
0.255204 0.13929 4.19509 0 0 0 255 255 255 255
0.285593 0.0985086 4.29147 0 0 0 255 255 255 255
0.317876 0.155265 4.31434 0 0 0 255 255 255 255
0.25405 0.16871 4.2922 0 0 0 255 255 255 255
0.292243 0.174527 4.30825 0 0 0 255 255 255 255
0.295123 0.0801606 4.30989 0 0 0 255 255 255 255
0.268051 0.141327 4.28643 0 0 0 255 255 255 255
0.310029 0.186463 4.30996 0 0 0 255 255 255 255
0.293484 0.135921 4.3071 0 0 0 255 255 255 255
0.297065 0.0681318 4.30972 0 0 0 255 255 255 255
0.261726 0.172554 4.30522 0 0 0 255 255 255 255
0.293836 0.0864535 4.3106 0 0 0 255 255 255 255
0.277807 0.184906 4.29312 0 0 0 255 255 255 255
0.325838 0.181161 4.31149 0 0 0 255 255 255 255
0.297346 0.227435 4.30762 0 0 0 255 255 255 255
0.8636 0.857793 3.86185 0 0 0 255 255 255 255
0.858768 1.09453 3.70668 0 0 0 255 255 255 255
0.838681 0.924265 3.85452 0 0 0 255 255 255 255
0.860298 0.875308 3.8835 0 0 0 255 255 255 255
0.861486 1.0951 3.70528 0 0 0 255 255 255 255
0.839364 0.92416 3.85442 0 0 0 255 255 255 255
0.827817 0.944578 3.8251 0 0 0 255 255 255 255
0.38608 0.829618 4.21782 0 0 0 255 255 255 255
0.344974 0.828579 4.24544 0 0 0 255 255 255 255
0.352663 0.842113 4.23666 0 0 0 255 255 255 255
0.263861 0.953674 4.12323 0 0 0 255 255 255 255
0.283598 0.917919 4.13719 0 0 0 255 255 255 255
0.401203 0.838054 4.25632 0 0 0 255 255 255 255
0.265078 0.918336 4.1204 0 0 0 255 255 255 255
0.26069 0.953983 4.12147 0 0 0 255 255 255 255
0.253234 1.32817 4.26512 0 0 0 255 255 255 255
0.42357 1.29771 4.36157 0 0 0 255 255 255 255
0.231867 1.18336 4.10546 0 0 0 255 255 255 255
0.269681 1.32654 4.2629 0 0 0 255 255 255 255
0.269874 1.18094 4.12778 0 0 0 255 255 255 255
1.06976 0.675867 3.35108 0 0 0 255 255 255 255
1.04018 0.756905 3.21987 0 0 0 255 255 255 255
1.10586 0.966237 3.36926 0 0 0 255 255 255 255
1.0309 1.0597 3.40117 0 0 0 255 255 255 255
1.33903 1.00563 3.21927 0 0 0 255 255 255 255
1.2693 1.04143 3.26986 0 0 0 255 255 255 255
1.25506 1.02188 3.27535 0 0 0 255 255 255 255
1.29971 1.09543 3.25538 0 0 0 255 255 255 255
1.27164 1.08854 3.25444 0 0 0 255 255 255 255
1.14303 0.618857 3.56397 0 0 0 255 255 255 255
1.0613 0.578619 3.81087 0 0 0 255 255 255 255
1.07272 0.577326 3.79847 0 0 0 255 255 255 255
0.888295 1.09235 3.67916 0 0 0 255 255 255 255
1.26021 0.663712 3.66512 0 0 0 255 255 255 255
1.26015 0.649015 3.6511 0 0 0 255 255 255 255
1.25843 0.66167 3.6628 0 0 0 255 255 255 255
1.19161 0.682235 3.53185 0 0 0 255 255 255 255
1.25527 0.759998 3.48864 0 0 0 255 255 255 255
1.2032 0.682212 3.55331 0 0 0 255 255 255 255
1.24092 0.73104 3.51138 0 0 0 255 255 255 255
1.24208 0.726811 3.52527 0 0 0 255 255 255 255
1.24561 0.731925 3.51926 0 0 0 255 255 255 255
1.24554 0.748116 3.49775 0 0 0 255 255 255 255
1.33292 0.743824 3.49625 0 0 0 255 255 255 255
1.2631 0.695585 3.65694 0 0 0 255 255 255 255
1.35395 0.571508 3.77852 0 0 0 255 255 255 255
0.888858 1.24332 5.70442 0 0 0 255 255 255 255
0.767767 1.11481 4.86562 0 0 0 255 255 255 255
0.712063 1.28478 5.65661 0 0 0 255 255 255 255
2.13411 0.710571 6.11987 0 0 0 255 255 255 255
0.468546 1.11452 4.77564 0 0 0 255 255 255 255
0.880298 1.23821 5.42756 0 0 0 255 255 255 255
2.12915 0.815459 6.10818 0 0 0 255 255 255 255
0.761741 1.13101 5.18902 0 0 0 255 255 255 255
0.773686 1.08601 4.95022 0 0 0 255 255 255 255
2.13049 0.718854 6.11759 0 0 0 255 255 255 255
0.46826 1.08918 4.86494 0 0 0 255 255 255 255
0.771642 1.0935 4.99732 0 0 0 255 255 255 255
0.768086 1.11341 4.87493 0 0 0 255 255 255 255
2.13348 0.766738 6.11187 0 0 0 255 255 255 255
