ply
format ascii 1.0
comment VCGLIB generated
element vertex 178
property float x
property float y
property float z
property float nx
property float ny
property float nz
property uchar red
property uchar green
property uchar blue
property uchar alpha
element face 0
property list uchar int vertex_indices
end_header
-0.406729 1.235 3.99933 0 0 0 255 0 255 255
-0.437043 1.22005 4.0097 0 0 0 255 0 255 255
-0.216955 1.22354 4.0152 0 0 0 255 0 255 255
-0.262072 1.16267 4.06036 0 0 0 255 0 255 255
-0.329884 1.1364 4.07806 0 0 0 255 0 255 255
-0.321473 1.12808 4.08477 0 0 0 255 0 255 255
-0.294739 1.11351 4.09698 0 0 0 255 0 255 255
-0.43957 1.10652 4.09698 0 0 0 255 0 255 255
-0.320632 1.11067 4.0982 0 0 0 255 0 255 255
-0.283102 1.10059 4.10735 0 0 0 255 0 255 255
-0.437884 1.09232 4.10796 0 0 0 255 0 255 255
-0.198092 1.0817 4.12505 0 0 0 255 0 255 255
0.739455 1.07225 4.16716 0 0 0 255 0 255 255
0.140033 1.02506 4.1812 0 0 0 255 0 255 255
0.114522 1.01431 4.18853 0 0 0 255 0 255 255
0.12278 1.00916 4.1928 0 0 0 255 0 255 255
1.02092 1.04856 4.19585 0 0 0 255 0 255 255
0.563218 0.98998 4.22392 0 0 0 255 0 255 255
-0.09102 0.958388 4.22392 0 0 0 255 0 255 255
-0.094595 0.949491 4.23064 0 0 0 255 0 255 255
-0.0743891 0.945709 4.2343 0 0 0 255 0 255 255
-0.093176 0.940836 4.23735 0 0 0 255 0 255 255
-0.124909 0.934545 4.24101 0 0 0 255 0 255 255
-0.0936016 0.928919 4.24651 0 0 0 255 0 255 255
0.899433 0.972906 4.24956 0 0 0 255 0 255 255
0.54984 0.956025 4.24956 0 0 0 255 0 255 255
0.893516 0.971035 4.25078 0 0 0 255 0 255 255
-0.210929 0.912151 4.25505 0 0 0 255 0 255 255
0.860052 0.959109 4.25871 0 0 0 255 0 255 255
0.884063 0.959475 4.25932 0 0 0 255 0 255 255
0.909186 0.957516 4.26176 0 0 0 255 0 255 255
0.955286 0.95657 4.26421 0 0 0 255 0 255 255
0.95248 0.952469 4.26726 0 0 0 255 0 255 255
0.50719 0.927001 4.27031 0 0 0 255 0 255 255
-0.129074 0.875656 4.28618 0 0 0 255 0 255 255
-0.124773 0.869519 4.29106 0 0 0 255 0 255 255
0.719435 0.90632 4.29411 0 0 0 255 0 255 255
-0.125198 0.857603 4.30021 0 0 0 255 0 255 255
-0.127005 0.85355 4.30327 0 0 0 255 0 255 255
-0.116902 0.851659 4.3051 0 0 0 255 0 255 255
0.260811 0.866726 4.30754 0 0 0 255 0 255 255
0.857383 0.889982 4.31181 0 0 0 255 0 255 255
0.0488609 0.839836 4.32036 0 0 0 255 0 255 255
0.881967 0.87848 4.32158 0 0 0 255 0 255 255
0.66833 0.865784 4.32341 0 0 0 255 0 255 255
0.680355 0.865572 4.32402 0 0 0 255 0 255 255
0.0402151 0.832281 4.32585 0 0 0 255 0 255 255
0.0672987 0.83121 4.32768 0 0 0 255 0 255 255
0.924338 0.871802 4.32829 0 0 0 255 0 255 255
0.0803217 0.831045 4.32829 0 0 0 255 0 255 255
0.68965 0.859676 4.3289 0 0 0 255 0 255 255
0.873627 0.864595 4.33195 0 0 0 255 0 255 255
0.674973 0.852623 4.33378 0 0 0 255 0 255 255
0.0208116 0.819448 4.335 0 0 0 255 0 255 255
0.885842 0.860426 4.33561 0 0 0 255 0 255 255
0.690147 0.84939 4.33683 0 0 0 255 0 255 255
0.881039 0.856229 4.33867 0 0 0 255 0 255 255
0.878042 0.856084 4.33867 0 0 0 255 0 255 255
0.709545 0.841603 4.34355 0 0 0 255 0 255 255
0.865516 0.845962 4.34599 0 0 0 255 0 255 255
0.67685 0.834473 4.34782 0 0 0 255 0 255 255
0.241047 0.799153 4.35881 0 0 0 255 0 255 255
0.534781 0.811751 4.36003 0 0 0 255 0 255 255
1.1012 0.837516 4.36125 0 0 0 255 0 255 255
0.979416 0.830049 4.36247 0 0 0 255 0 255 255
0.916489 0.827011 4.36247 0 0 0 255 0 255 255
0.91453 0.826123 4.36308 0 0 0 255 0 255 255
1.11633 0.835075 4.36369 0 0 0 255 0 255 255
0.973538 0.827386 4.3643 0 0 0 255 0 255 255
0.522064 0.805585 4.3643 0 0 0 255 0 255 255
0.971578 0.826499 4.36491 0 0 0 255 0 255 255
0.679918 0.812415 4.36491 0 0 0 255 0 255 255
0.742883 0.814662 4.36552 0 0 0 255 0 255 255
0.678035 0.809944 4.36674 0 0 0 255 0 255 255
0.533204 0.802951 4.36674 0 0 0 255 0 255 255
1.1146 0.82944 4.36796 0 0 0 255 0 255 255
1.4932 0.846929 4.36857 0 0 0 255 0 255 255
0.878916 0.817265 4.36857 0 0 0 255 0 255 255
1.61214 0.851086 4.36979 0 0 0 255 0 255 255
1.61122 0.849455 4.37101 0 0 0 255 0 255 255
0.70627 0.805756 4.37101 0 0 0 255 0 255 255
0.523521 0.796138 4.37162 0 0 0 255 0 255 255
1.49443 0.842229 4.37223 0 0 0 255 0 255 255
0.706346 0.804174 4.37223 0 0 0 255 0 255 255
1.33665 0.833817 4.37284 0 0 0 255 0 255 255
0.532663 0.793408 4.37406 0 0 0 255 0 255 255
1.50856 0.83974 4.37467 0 0 0 255 0 255 255
1.60749 0.843724 4.37528 0 0 0 255 0 255 255
1.5116 0.839093 4.37528 0 0 0 255 0 255 255
1.5106 0.839045 4.37528 0 0 0 255 0 255 255
0.727551 0.800439 4.37589 0 0 0 255 0 255 255
0.994279 0.812526 4.3765 0 0 0 255 0 255 255
1.0912 0.816413 4.37712 0 0 0 255 0 255 255
0.524902 0.788274 4.37773 0 0 0 255 0 255 255
0.996391 0.810249 4.37834 0 0 0 255 0 255 255
0.964505 0.807123 4.37956 0 0 0 255 0 255 255
1.50391 0.832377 4.38017 0 0 0 255 0 255 255
0.514068 0.784579 4.38017 0 0 0 255 0 255 255
1.63687 0.836419 4.382 0 0 0 255 0 255 255
0.531162 0.783025 4.382 0 0 0 255 0 255 255
1.50311 0.828373 4.38322 0 0 0 255 0 255 255
1.61501 0.832984 4.38383 0 0 0 255 0 255 255
0.721056 0.789816 4.38383 0 0 0 255 0 255 255
0.724129 0.788378 4.38505 0 0 0 255 0 255 255
0.501427 0.776831 4.38566 0 0 0 255 0 255 255
0.71122 0.786168 4.38627 0 0 0 255 0 255 255
0.711259 0.785377 4.38688 0 0 0 255 0 255 255
0.731274 0.785551 4.38749 0 0 0 255 0 255 255
0.922166 0.792389 4.38932 0 0 0 255 0 255 255
1.5275 0.820827 4.38993 0 0 0 255 0 255 255
0.723474 0.781209 4.39054 0 0 0 255 0 255 255
1.58255 0.821106 4.39176 0 0 0 255 0 255 255
0.716597 0.778497 4.39237 0 0 0 255 0 255 255
1.17218 0.798118 4.3942 0 0 0 255 0 255 255
1.70064 0.82205 4.39542 0 0 0 255 0 255 255
1.57986 0.814632 4.39665 0 0 0 255 0 255 255
0.746829 0.774405 4.39665 0 0 0 255 0 255 255
0.531233 0.760822 4.39909 0 0 0 255 0 255 255
0.523243 0.760436 4.39909 0 0 0 255 0 255 255
1.6162 0.808456 4.40275 0 0 0 255 0 255 255
1.49837 0.801973 4.40336 0 0 0 255 0 255 255
0.730384 0.762508 4.40519 0 0 0 255 0 255 255
0.67702 0.748035 4.41434 0 0 0 255 0 255 255
1.13771 0.765523 4.41801 0 0 0 255 0 255 255
0.676327 0.741657 4.41923 0 0 0 255 0 255 255
1.01547 0.746931 4.42777 0 0 0 255 0 255 255
1.02054 0.745589 4.42899 0 0 0 255 0 255 255
0.997641 0.742898 4.43021 0 0 0 255 0 255 255
1.21043 0.75238 4.43082 0 0 0 255 0 255 255
1.00079 0.739877 4.43265 0 0 0 255 0 255 255
1.30563 0.750632 4.43571 0 0 0 255 0 255 255
1.02395 0.737031 4.43571 0 0 0 255 0 255 255
1.56348 0.759911 4.43815 0 0 0 255 0 255 255
1.21892 0.74248 4.43876 0 0 0 255 0 255 255
1.31984 0.74656 4.43937 0 0 0 255 0 255 255
0.661644 0.713983 4.43998 0 0 0 255 0 255 255
1.57577 0.75416 4.44303 0 0 0 255 0 255 255
1.04143 0.727565 4.44364 0 0 0 255 0 255 255
1.20939 0.732503 4.44608 0 0 0 255 0 255 255
1.17343 0.730766 4.44608 0 0 0 255 0 255 255
1.31934 0.736226 4.4473 0 0 0 255 0 255 255
1.7269 0.755114 4.44791 0 0 0 255 0 255 255
1.25653 0.730814 4.44913 0 0 0 255 0 255 255
1.73205 0.75219 4.45035 0 0 0 255 0 255 255
1.5183 0.741868 4.45035 0 0 0 255 0 255 255
1.38449 0.734614 4.45096 0 0 0 255 0 255 255
1.21369 0.726366 4.45096 0 0 0 255 0 255 255
1.29774 0.727252 4.4534 0 0 0 255 0 255 255
1.26182 0.724725 4.45402 0 0 0 255 0 255 255
1.38672 0.729963 4.45463 0 0 0 255 0 255 255
1.71553 0.741875 4.45768 0 0 0 255 0 255 255
1.46881 0.729962 4.45768 0 0 0 255 0 255 255
1.41295 0.725678 4.4589 0 0 0 255 0 255 255
1.09433 0.710292 4.4589 0 0 0 255 0 255 255
1.33816 0.719687 4.46073 0 0 0 255 0 255 255
1.73377 0.737205 4.46195 0 0 0 255 0 255 255
1.53915 0.724634 4.46439 0 0 0 255 0 255 255
1.54119 0.723939 4.465 0 0 0 255 0 255 255
1.17362 0.70619 4.465 0 0 0 255 0 255 255
1.6521 0.728502 4.46561 0 0 0 255 0 255 255
0.466555 0.669667 4.46683 0 0 0 255 0 255 255
1.43846 0.715807 4.46744 0 0 0 255 0 255 255
1.59351 0.718535 4.4711 0 0 0 255 0 255 255
1.41376 0.709062 4.47171 0 0 0 255 0 255 255
1.53116 0.703628 4.48026 0 0 0 255 0 255 255
0.432589 0.647407 4.4827 0 0 0 255 0 255 255
1.47253 0.694453 4.48514 0 0 0 255 0 255 255
0.443882 0.641608 4.48758 0 0 0 255 0 255 255
1.50184 0.68873 4.49063 0 0 0 255 0 255 255
1.45055 0.672771 4.50101 0 0 0 255 0 255 255
1.41178 0.646314 4.51993 0 0 0 255 0 255 255
1.41382 0.645619 4.52054 0 0 0 255 0 255 255
1.30848 0.629429 4.52908 0 0 0 255 0 255 255
1.31374 0.624131 4.53336 0 0 0 255 0 255 255
1.21984 0.598977 4.54923 0 0 0 255 0 255 255
1.22188 0.598282 4.54984 0 0 0 255 0 255 255
1.22407 0.594423 4.55289 0 0 0 255 0 255 255
1.21227 0.589888 4.55594 0 0 0 255 0 255 255
