ply
format ascii 1.0
comment VCGLIB generated
element vertex 441
property float x
property float y
property float z
property float nx
property float ny
property float nz
property uchar red
property uchar green
property uchar blue
property uchar alpha
element face 0
property list uchar int vertex_indices
end_header
0.988024 0.274309 4.27691 0 0 0 255 255 0 255
0.941445 0.311408 4.28348 0 0 0 255 255 0 255
0.942762 0.334912 4.28825 0 0 0 255 255 0 255
1.10006 0.330205 4.29044 0 0 0 255 255 0 255
0.997433 0.349207 4.29223 0 0 0 255 255 0 255
0.947868 0.356073 4.29263 0 0 0 255 255 0 255
1.25836 0.3254 4.29263 0 0 0 255 255 0 255
1.17264 0.34273 4.29442 0 0 0 255 255 0 255
1.28638 0.334448 4.29502 0 0 0 255 255 0 255
0.950886 0.376455 4.29681 0 0 0 255 255 0 255
1.21669 0.351181 4.29701 0 0 0 255 255 0 255
1.34734 0.341228 4.29761 0 0 0 255 255 0 255
1.15249 0.362447 4.29801 0 0 0 255 255 0 255
1.21438 0.358302 4.2984 0 0 0 255 255 0 255
1.05525 0.375008 4.2986 0 0 0 255 255 0 255
1.34783 0.346104 4.2986 0 0 0 255 255 0 255
1.36185 0.345703 4.2988 0 0 0 255 255 0 255
1.19476 0.363194 4.299 0 0 0 255 255 0 255
1.26651 0.357091 4.2992 0 0 0 255 255 0 255
1.27694 0.360984 4.30019 0 0 0 255 255 0 255
1.40134 0.348695 4.30019 0 0 0 255 255 0 255
1.37973 0.353784 4.30079 0 0 0 255 255 0 255
1.44272 0.350516 4.30139 0 0 0 255 255 0 255
0.98392 0.405689 4.30338 0 0 0 255 255 0 255
1.55443 0.352282 4.30398 0 0 0 255 255 0 255
1.45601 0.36299 4.30417 0 0 0 255 255 0 255
1.48487 0.360139 4.30417 0 0 0 255 255 0 255
1.48994 0.360623 4.30437 0 0 0 255 255 0 255
1.56567 0.354126 4.30457 0 0 0 255 255 0 255
1.09814 0.402283 4.30497 0 0 0 255 255 0 255
1.4555 0.367965 4.30517 0 0 0 255 255 0 255
1.11634 0.403439 4.30557 0 0 0 255 255 0 255
1.18501 0.396656 4.30557 0 0 0 255 255 0 255
1.17932 0.400171 4.30616 0 0 0 255 255 0 255
1.50872 0.36763 4.30616 0 0 0 255 255 0 255
1.63032 0.357587 4.30656 0 0 0 255 255 0 255
1.04825 0.416074 4.30676 0 0 0 255 255 0 255
1.23335 0.397788 4.30676 0 0 0 255 255 0 255
1.57071 0.364461 4.30676 0 0 0 255 255 0 255
1.22985 0.403058 4.30776 0 0 0 255 255 0 255
1.45595 0.382692 4.30815 0 0 0 255 255 0 255
1.29104 0.401937 4.30875 0 0 0 255 255 0 255
1.70801 0.360744 4.30875 0 0 0 255 255 0 255
1.68939 0.365538 4.30935 0 0 0 255 255 0 255
1.71825 0.362687 4.30935 0 0 0 255 255 0 255
1.378 0.397285 4.30955 0 0 0 255 255 0 255
1.2348 0.412417 4.30975 0 0 0 255 255 0 255
1.69754 0.366702 4.30975 0 0 0 255 255 0 255
1.3755 0.402456 4.31054 0 0 0 255 255 0 255
1.47203 0.39292 4.31054 0 0 0 255 255 0 255
1.29399 0.411493 4.31074 0 0 0 255 255 0 255
1.70339 0.374988 4.31154 0 0 0 255 255 0 255
1.71334 0.374005 4.31154 0 0 0 255 255 0 255
1.6587 0.380387 4.31174 0 0 0 255 255 0 255
1.73533 0.372817 4.31174 0 0 0 255 255 0 255
1.47579 0.400427 4.31213 0 0 0 255 255 0 255
1.37348 0.412504 4.31253 0 0 0 255 255 0 255
1.57957 0.393128 4.31273 0 0 0 255 255 0 255
1.4477 0.41108 4.31373 0 0 0 255 255 0 255
1.70563 0.387568 4.31412 0 0 0 255 255 0 255
1.56442 0.402503 4.31432 0 0 0 255 255 0 255
1.47097 0.41272 4.31452 0 0 0 255 255 0 255
1.62432 0.398555 4.31472 0 0 0 255 255 0 255
1.72085 0.389019 4.31472 0 0 0 255 255 0 255
1.49216 0.413581 4.31512 0 0 0 255 255 0 255
1.40378 0.424281 4.31552 0 0 0 255 255 0 255
1.62817 0.407037 4.31651 0 0 0 255 255 0 255
1.63116 0.406743 4.31651 0 0 0 255 255 0 255
1.45312 0.425316 4.31671 0 0 0 255 255 0 255
1.4545 0.429118 4.31751 0 0 0 255 255 0 255
1.49142 0.426456 4.31771 0 0 0 255 255 0 255
1.71751 0.40609 4.3181 0 0 0 255 255 0 255
1.35935 0.442457 4.3183 0 0 0 255 255 0 255
1.54952 0.424655 4.3185 0 0 0 255 255 0 255
1.57151 0.423467 4.3187 0 0 0 255 255 0 255
1.49896 0.431619 4.3189 0 0 0 255 255 0 255
1.50901 0.431611 4.3191 0 0 0 255 255 0 255
1.33008 0.451258 4.3195 0 0 0 255 255 0 255
1.46879 0.441494 4.32029 0 0 0 255 255 0 255
1.56243 0.433228 4.32049 0 0 0 255 255 0 255
1.3417 0.457003 4.32089 0 0 0 255 255 0 255
1.34468 0.456708 4.32089 0 0 0 255 255 0 255
1.6874 0.42679 4.32169 0 0 0 255 255 0 255
1.07468 0.490276 4.32228 0 0 0 255 255 0 255
1.07984 0.491735 4.32268 0 0 0 255 255 0 255
1.05108 0.495561 4.32288 0 0 0 255 255 0 255
1.06132 0.497504 4.32348 0 0 0 255 255 0 255
1.68936 0.436444 4.32368 0 0 0 255 255 0 255
1.05753 0.499848 4.32388 0 0 0 255 255 0 255
1.17198 0.488542 4.32388 0 0 0 255 255 0 255
1.21377 0.484413 4.32388 0 0 0 255 255 0 255
1.08549 0.49807 4.32407 0 0 0 255 255 0 255
1.06389 0.503159 4.32467 0 0 0 255 255 0 255
1.15872 0.496745 4.32527 0 0 0 255 255 0 255
1.15971 0.496647 4.32527 0 0 0 255 255 0 255
1.70625 0.444624 4.32567 0 0 0 255 255 0 255
0.10013 0.614125 4.32786 0 0 0 255 255 0 255
1.34128 0.493481 4.32825 0 0 0 255 255 0 255
1.087 0.523525 4.32925 0 0 0 255 255 0 255
1.15188 0.519085 4.32965 0 0 0 255 255 0 255
1.09204 0.53386 4.33144 0 0 0 255 255 0 255
0.0288011 0.644806 4.33263 0 0 0 255 255 0 255
0.16533 0.633288 4.33303 0 0 0 255 255 0 255
0.0285768 0.652707 4.33422 0 0 0 255 255 0 255
1.26376 0.532652 4.33462 0 0 0 255 255 0 255
1.20135 0.541772 4.33522 0 0 0 255 255 0 255
1.28633 0.537316 4.33601 0 0 0 255 255 0 255
1.11535 0.556176 4.33641 0 0 0 255 255 0 255
1.40144 0.532837 4.33741 0 0 0 255 255 0 255
1.09603 0.563994 4.33761 0 0 0 255 255 0 255
1.20848 0.552885 4.33761 0 0 0 255 255 0 255
1.29904 0.543938 4.33761 0 0 0 255 255 0 255
1.10219 0.565355 4.338 0 0 0 255 255 0 255
1.12209 0.563388 4.338 0 0 0 255 255 0 255
1.33804 0.542055 4.338 0 0 0 255 255 0 255
1.2419 0.555492 4.3388 0 0 0 255 255 0 255
1.25185 0.554509 4.3388 0 0 0 255 255 0 255
1.2792 0.556731 4.3398 0 0 0 255 255 0 255
1.40071 0.545712 4.33999 0 0 0 255 255 0 255
1.25153 0.561434 4.34019 0 0 0 255 255 0 255
1.42469 0.544328 4.34019 0 0 0 255 255 0 255
0.130084 0.673207 4.34039 0 0 0 255 255 0 255
1.10036 0.577353 4.34039 0 0 0 255 255 0 255
1.34405 0.562142 4.34218 0 0 0 255 255 0 255
1.34145 0.566338 4.34298 0 0 0 255 255 0 255
1.42305 0.558276 4.34298 0 0 0 255 255 0 255
1.1029 0.592858 4.34358 0 0 0 255 255 0 255
1.42931 0.560612 4.34358 0 0 0 255 255 0 255
1.10906 0.594219 4.34397 0 0 0 255 255 0 255
1.4913 0.557443 4.34417 0 0 0 255 255 0 255
1.1983 0.592296 4.34537 0 0 0 255 255 0 255
1.27991 0.584234 4.34537 0 0 0 255 255 0 255
1.56382 0.559141 4.34596 0 0 0 255 255 0 255
1.51117 0.565327 4.34616 0 0 0 255 255 0 255
0.0922692 0.70747 4.34656 0 0 0 255 255 0 255
1.38697 0.579567 4.34656 0 0 0 255 255 0 255
1.53524 0.564918 4.34656 0 0 0 255 255 0 255
1.19798 0.599221 4.34676 0 0 0 255 255 0 255
1.55136 0.565296 4.34696 0 0 0 255 255 0 255
1.42029 0.581199 4.34756 0 0 0 255 255 0 255
1.54966 0.568418 4.34756 0 0 0 255 255 0 255
1.294 0.594659 4.34776 0 0 0 255 255 0 255
1.26623 0.598387 4.34795 0 0 0 255 255 0 255
1.2089 0.607991 4.34875 0 0 0 255 255 0 255
1.25667 0.603271 4.34875 0 0 0 255 255 0 255
1.28771 0.602174 4.34915 0 0 0 255 255 0 255
1.52764 0.579456 4.34935 0 0 0 255 255 0 255
1.56555 0.576696 4.34955 0 0 0 255 255 0 255
1.54285 0.580908 4.34994 0 0 0 255 255 0 255
1.54802 0.582366 4.35034 0 0 0 255 255 0 255
1.41377 0.596614 4.35054 0 0 0 255 255 0 255
1.27801 0.615934 4.35174 0 0 0 255 255 0 255
1.41644 0.603244 4.35193 0 0 0 255 255 0 255
1.4662 0.598328 4.35193 0 0 0 255 255 0 255
1.53505 0.593495 4.35233 0 0 0 255 255 0 255
0.24164 0.724226 4.35293 0 0 0 255 255 0 255
1.33134 0.616575 4.35293 0 0 0 255 255 0 255
1.33153 0.618526 4.35333 0 0 0 255 255 0 255
1.40395 0.619249 4.35492 0 0 0 255 255 0 255
0.672993 0.696384 4.35591 0 0 0 255 255 0 255
0.0184692 0.763999 4.35651 0 0 0 255 255 0 255
0.0214547 0.763704 4.35651 0 0 0 255 255 0 255
0.239394 0.742174 4.35651 0 0 0 255 255 0 255
1.49727 0.617908 4.35651 0 0 0 255 255 0 255
1.55111 0.613575 4.35671 0 0 0 255 255 0 255
0.239586 0.744125 4.35691 0 0 0 255 255 0 255
1.45496 0.627012 4.35751 0 0 0 255 255 0 255
0.229025 0.749107 4.35771 0 0 0 255 255 0 255
0.0692868 0.769812 4.3587 0 0 0 255 255 0 255
1.55416 0.624106 4.3589 0 0 0 255 255 0 255
1.43881 0.636485 4.3591 0 0 0 255 255 0 255
0.933147 0.695303 4.36089 0 0 0 255 255 0 255
0.946084 0.694025 4.36089 0 0 0 255 255 0 255
-0.0457013 0.795943 4.36169 0 0 0 255 255 0 255
0.932633 0.700278 4.36189 0 0 0 255 255 0 255
1.13484 0.682271 4.36228 0 0 0 255 255 0 255
1.13882 0.681878 4.36228 0 0 0 255 255 0 255
0.991636 0.697403 4.36248 0 0 0 255 255 0 255
0.667312 0.730428 4.36268 0 0 0 255 255 0 255
1.0177 0.696797 4.36288 0 0 0 255 255 0 255
0.648597 0.734246 4.36308 0 0 0 255 255 0 255
1.03074 0.696495 4.36308 0 0 0 255 255 0 255
-0.0448343 0.80472 4.36348 0 0 0 255 255 0 255
-0.0338875 0.803639 4.36348 0 0 0 255 255 0 255
0.0209424 0.799207 4.36368 0 0 0 255 255 0 255
0.203249 0.783166 4.36407 0 0 0 255 255 0 255
0.928717 0.711497 4.36407 0 0 0 255 255 0 255
0.945635 0.709826 4.36407 0 0 0 255 255 0 255
1.02454 0.704985 4.36467 0 0 0 255 255 0 255
1.00274 0.708123 4.36487 0 0 0 255 255 0 255
0.205721 0.787846 4.36507 0 0 0 255 255 0 255
1.04364 0.705067 4.36507 0 0 0 255 255 0 255
0.924319 0.71784 4.36527 0 0 0 255 255 0 255
0.228898 0.78851 4.36567 0 0 0 255 255 0 255
0.743394 0.737683 4.36567 0 0 0 255 255 0 255
0.234067 0.789969 4.36606 0 0 0 255 255 0 255
1.18046 0.696475 4.36606 0 0 0 255 255 0 255
0.942714 0.720947 4.36626 0 0 0 255 255 0 255
1.01048 0.715237 4.36646 0 0 0 255 255 0 255
1.13606 0.7048 4.36686 0 0 0 255 255 0 255
0.669432 0.751883 4.36706 0 0 0 255 255 0 255
1.21885 0.698591 4.36726 0 0 0 255 255 0 255
0.229765 0.797288 4.36746 0 0 0 255 255 0 255
0.730329 0.747837 4.36746 0 0 0 255 255 0 255
0.992055 0.721981 4.36746 0 0 0 255 255 0 255
1.00997 0.720211 4.36746 0 0 0 255 255 0 255
1.15555 0.708784 4.36805 0 0 0 255 255 0 255
0.721854 0.753598 4.36845 0 0 0 255 255 0 255
0.229541 0.805188 4.36905 0 0 0 255 255 0 255
1.2456 0.704812 4.36905 0 0 0 255 255 0 255
0.228642 0.806262 4.36925 0 0 0 255 255 0 255
0.677457 0.761923 4.36925 0 0 0 255 255 0 255
1.25962 0.704411 4.36925 0 0 0 255 255 0 255
1.29147 0.701265 4.36925 0 0 0 255 255 0 255
0.661631 0.764471 4.36945 0 0 0 255 255 0 255
1.12855 0.720314 4.36984 0 0 0 255 255 0 255
0.52568 0.781841 4.37024 0 0 0 255 255 0 255
0.706093 0.766972 4.37084 0 0 0 255 255 0 255
0.737938 0.763826 4.37084 0 0 0 255 255 0 255
1.21362 0.716833 4.37084 0 0 0 255 255 0 255
1.3411 0.705225 4.37104 0 0 0 255 255 0 255
0.710459 0.77048 4.37164 0 0 0 255 255 0 255
1.38517 0.703825 4.37164 0 0 0 255 255 0 255
0.51162 0.792093 4.37203 0 0 0 255 255 0 255
0.747665 0.770743 4.37243 0 0 0 255 255 0 255
1.17459 0.728568 4.37243 0 0 0 255 255 0 255
0.677105 0.778699 4.37263 0 0 0 255 255 0 255
1.27629 0.72049 4.37283 0 0 0 255 255 0 255
0.683269 0.78006 4.37303 0 0 0 255 255 0 255
1.32951 0.720156 4.37383 0 0 0 255 255 0 255
1.46813 0.709417 4.37442 0 0 0 255 255 0 255
1.34591 0.723459 4.37482 0 0 0 255 255 0 255
1.37179 0.720903 4.37482 0 0 0 255 255 0 255
0.732096 0.786068 4.37522 0 0 0 255 255 0 255
1.51657 0.711524 4.37581 0 0 0 255 255 0 255
0.70481 0.794673 4.37641 0 0 0 255 255 0 255
1.54899 0.71423 4.37701 0 0 0 255 255 0 255
0.526067 0.81627 4.37721 0 0 0 255 255 0 255
0.711262 0.798959 4.37741 0 0 0 255 255 0 255
0.712257 0.798861 4.37741 0 0 0 255 255 0 255
0.72619 0.797484 4.37741 0 0 0 255 255 0 255
0.547158 0.816156 4.37761 0 0 0 255 255 0 255
0.711359 0.799934 4.37761 0 0 0 255 255 0 255
1.61596 0.710569 4.37761 0 0 0 255 255 0 255
1.39513 0.733369 4.37781 0 0 0 255 255 0 255
0.107588 0.862535 4.3782 0 0 0 255 255 0 255
1.51175 0.723817 4.3782 0 0 0 255 255 0 255
1.52071 0.722933 4.3782 0 0 0 255 255 0 255
0.532616 0.821531 4.3784 0 0 0 255 255 0 255
1.41432 0.734427 4.3784 0 0 0 255 255 0 255
1.56986 0.722016 4.379 0 0 0 255 255 0 255
0.709787 0.824709 4.38258 0 0 0 255 255 0 255
1.50492 0.746158 4.38258 0 0 0 255 255 0 255
0.535923 0.844839 4.38318 0 0 0 255 255 0 255
1.62263 0.737483 4.38318 0 0 0 255 255 0 255
1.6495 0.734828 4.38318 0 0 0 255 255 0 255
0.741022 0.825562 4.38338 0 0 0 255 255 0 255
1.66154 0.734624 4.38338 0 0 0 255 255 0 255
1.66751 0.734034 4.38338 0 0 0 255 255 0 255
1.61406 0.742268 4.38397 0 0 0 255 255 0 255
1.57833 0.746783 4.38417 0 0 0 255 255 0 255
0.87784 0.81697 4.38437 0 0 0 255 255 0 255
1.64539 0.744097 4.38497 0 0 0 255 255 0 255
0.87524 0.821166 4.38517 0 0 0 255 255 0 255
0.996745 0.810147 4.38537 0 0 0 255 255 0 255
1.04262 0.8066 4.38557 0 0 0 255 255 0 255
0.882495 0.823403 4.38577 0 0 0 255 255 0 255
0.873635 0.825263 4.38596 0 0 0 255 255 0 255
0.916427 0.821036 4.38596 0 0 0 255 255 0 255
0.994049 0.813367 4.38596 0 0 0 255 255 0 255
-0.00479859 0.914998 4.38656 0 0 0 255 255 0 255
0.000177205 0.914507 4.38656 0 0 0 255 255 0 255
1.0432 0.812451 4.38676 0 0 0 255 255 0 255
1.07035 0.812723 4.38736 0 0 0 255 255 0 255
1.09135 0.811633 4.38756 0 0 0 255 255 0 255
0.964162 0.826168 4.38795 0 0 0 255 255 0 255
0.0209474 0.921318 4.38835 0 0 0 255 255 0 255
0.921563 0.832346 4.38835 0 0 0 255 255 0 255
1.02326 0.824268 4.38875 0 0 0 255 255 0 255
1.02435 0.825145 4.38895 0 0 0 255 255 0 255
1.61747 0.766551 4.38895 0 0 0 255 255 0 255
0.0502887 0.923343 4.38935 0 0 0 255 255 0 255
1.13998 0.815692 4.38935 0 0 0 255 255 0 255
1.13909 0.816765 4.38955 0 0 0 255 255 0 255
1.0119 0.8313 4.38994 0 0 0 255 255 0 255
0.973183 0.836109 4.39014 0 0 0 255 255 0 255
1.18714 0.814972 4.39014 0 0 0 255 255 0 255
0.108682 0.924468 4.39074 0 0 0 255 255 0 255
1.071 0.8294 4.39074 0 0 0 255 255 0 255
1.11498 0.827025 4.39114 0 0 0 255 255 0 255
1.10124 0.830352 4.39154 0 0 0 255 255 0 255
1.11925 0.829557 4.39174 0 0 0 255 255 0 255
1.09446 0.83299 4.39193 0 0 0 255 255 0 255
1.25379 0.818236 4.39213 0 0 0 255 255 0 255
1.25388 0.819211 4.39233 0 0 0 255 255 0 255
1.24104 0.821464 4.39253 0 0 0 255 255 0 255
1.16859 0.830592 4.39293 0 0 0 255 255 0 255
1.21812 0.833576 4.39452 0 0 0 255 255 0 255
1.2594 0.834422 4.39552 0 0 0 255 255 0 255
1.33433 0.829974 4.39611 0 0 0 255 255 0 255
1.41182 0.831181 4.3979 0 0 0 255 255 0 255
1.38036 0.838228 4.3987 0 0 0 255 255 0 255
0.881888 0.888458 4.3989 0 0 0 255 255 0 255
0.873028 0.890318 4.3991 0 0 0 255 255 0 255
1.47609 0.830741 4.3991 0 0 0 255 255 0 255
1.65233 0.814315 4.3993 0 0 0 255 255 0 255
0.889143 0.890695 4.3995 0 0 0 255 255 0 255
1.47728 0.832593 4.3995 0 0 0 255 255 0 255
1.40672 0.840549 4.3997 0 0 0 255 255 0 255
1.44771 0.838468 4.40009 0 0 0 255 255 0 255
1.52762 0.833529 4.40069 0 0 0 255 255 0 255
1.51217 0.839978 4.40169 0 0 0 255 255 0 255
0.883911 0.908938 4.40308 0 0 0 255 255 0 255
1.58251 0.839923 4.40308 0 0 0 255 255 0 255
1.50277 0.856664 4.40487 0 0 0 255 255 0 255
1.5576 0.852232 4.40507 0 0 0 255 255 0 255
1.60655 0.849365 4.40547 0 0 0 255 255 0 255
1.7001 0.840124 4.40547 0 0 0 255 255 0 255
1.55988 0.854961 4.40567 0 0 0 255 255 0 255
1.65281 0.849719 4.40646 0 0 0 255 255 0 255
1.67769 0.847261 4.40646 0 0 0 255 255 0 255
1.654 0.851571 4.40686 0 0 0 255 255 0 255
1.69798 0.849196 4.40726 0 0 0 255 255 0 255
0.519492 0.973498 4.40885 0 0 0 255 255 0 255
-0.0292871 1.04347 4.41203 0 0 0 255 255 0 255
0.164833 1.03512 4.41422 0 0 0 255 255 0 255
0.407523 1.02001 4.41601 0 0 0 255 255 0 255
0.932965 0.968102 4.41601 0 0 0 255 255 0 255
1.0076 0.960729 4.41601 0 0 0 255 255 0 255
0.149874 1.04645 4.41621 0 0 0 255 255 0 255
0.148076 1.0486 4.41661 0 0 0 255 255 0 255
0.934442 0.97288 4.41701 0 0 0 255 255 0 255
0.004453 1.06968 4.418 0 0 0 255 255 0 255
0.179697 1.05335 4.4182 0 0 0 255 255 0 255
0.00365061 1.07173 4.4184 0 0 0 255 255 0 255
0.158092 1.05844 4.4188 0 0 0 255 255 0 255
0.519334 1.02275 4.4188 0 0 0 255 255 0 255
0.139377 1.06226 4.4192 0 0 0 255 255 0 255
0.121561 1.065 4.4194 0 0 0 255 255 0 255
0.934988 0.988582 4.42019 0 0 0 255 255 0 255
0.798428 1.00995 4.42178 0 0 0 255 255 0 255
0.517088 1.0407 4.42238 0 0 0 255 255 0 255
0.180821 1.0749 4.42258 0 0 0 255 255 0 255
0.81342 1.0193 4.42397 0 0 0 255 255 0 255
0.791302 1.02937 4.42557 0 0 0 255 255 0 255
0.80533 1.02896 4.42576 0 0 0 255 255 0 255
0.504472 1.06558 4.42716 0 0 0 255 255 0 255
0.892583 1.02724 4.42716 0 0 0 255 255 0 255
0.899549 1.02655 4.42716 0 0 0 255 255 0 255
0.136843 1.10781 4.42835 0 0 0 255 255 0 255
0.181401 1.11128 4.42994 0 0 0 255 255 0 255
0.492082 1.08256 4.43034 0 0 0 255 255 0 255
0.790629 1.05307 4.43034 0 0 0 255 255 0 255
0.797274 1.0593 4.43173 0 0 0 255 255 0 255
0.825138 1.05655 4.43173 0 0 0 255 255 0 255
0.822603 1.07157 4.43472 0 0 0 255 255 0 255
0.830564 1.07079 4.43472 0 0 0 255 255 0 255
0.820805 1.07372 4.43512 0 0 0 255 255 0 255
0.825268 1.0782 4.43611 0 0 0 255 255 0 255
0.36037 1.14284 4.43989 0 0 0 255 255 0 255
0.395201 1.1394 4.43989 0 0 0 255 255 0 255
0.831368 1.09927 4.44049 0 0 0 255 255 0 255
0.0596086 1.18043 4.44149 0 0 0 255 255 0 255
0.835028 1.1058 4.44188 0 0 0 255 255 0 255
0.328558 1.16666 4.44407 0 0 0 255 255 0 255
0.0693041 1.1972 4.44507 0 0 0 255 255 0 255
0.72829 1.13407 4.44547 0 0 0 255 255 0 255
0.0741519 1.20558 4.44686 0 0 0 255 255 0 255
0.079224 1.20607 4.44706 0 0 0 255 255 0 255
0.180185 1.21087 4.45004 0 0 0 255 255 0 255
1.09062 1.12979 4.45183 0 0 0 255 255 0 255
0.74858 1.16653 4.45243 0 0 0 255 255 0 255
1.05339 1.13937 4.45303 0 0 0 255 255 0 255
1.07229 1.1375 4.45303 0 0 0 255 255 0 255
0.113157 1.23423 4.45343 0 0 0 255 255 0 255
0.1859 1.22803 4.45363 0 0 0 255 255 0 255
1.01605 1.14798 4.45402 0 0 0 255 255 0 255
0.743155 1.18282 4.45562 0 0 0 255 255 0 255
0.184969 1.23895 4.45581 0 0 0 255 255 0 255
0.185065 1.23993 4.45601 0 0 0 255 255 0 255
1.24349 1.14127 4.45721 0 0 0 255 255 0 255
0.105807 1.26154 4.4588 0 0 0 255 255 0 255
0.328722 1.23952 4.4588 0 0 0 255 255 0 255
1.00979 1.17618 4.4596 0 0 0 255 255 0 255
1.15021 1.16329 4.45979 0 0 0 255 255 0 255
0.203268 1.27161 4.46278 0 0 0 255 255 0 255
0.203461 1.27356 4.46318 0 0 0 255 255 0 255
0.251518 1.27177 4.46377 0 0 0 255 255 0 255
0.107316 1.287 4.46397 0 0 0 255 255 0 255
0.948223 1.20392 4.46397 0 0 0 255 255 0 255
0.498509 1.24934 4.46417 0 0 0 255 255 0 255
0.905111 1.21508 4.46537 0 0 0 255 255 0 255
0.219224 1.29071 4.46696 0 0 0 255 255 0 255
0.150912 1.31125 4.46974 0 0 0 255 255 0 255
0.149211 1.31437 4.47034 0 0 0 255 255 0 255
0.0608344 1.32507 4.47074 0 0 0 255 255 0 255
0.12263 1.31995 4.47094 0 0 0 255 255 0 255
0.209498 1.31432 4.47154 0 0 0 255 255 0 255
0.110271 1.32708 4.47213 0 0 0 255 255 0 255
0.219033 1.31929 4.47273 0 0 0 255 255 0 255
0.0593905 1.34097 4.47392 0 0 0 255 255 0 255
0.206738 1.33725 4.47611 0 0 0 255 255 0 255
1.01159 1.26561 4.4777 0 0 0 255 255 0 255
1.00004 1.27069 4.4785 0 0 0 255 255 0 255
0.302723 1.34254 4.4791 0 0 0 255 255 0 255
0.259418 1.35174 4.48009 0 0 0 255 255 0 255
1.03005 1.27955 4.48089 0 0 0 255 255 0 255
0.302691 1.35239 4.48109 0 0 0 255 255 0 255
1.03413 1.28013 4.48109 0 0 0 255 255 0 255
1.15782 1.27086 4.48168 0 0 0 255 255 0 255
0.505286 1.33828 4.48228 0 0 0 255 255 0 255
0.262757 1.36519 4.48288 0 0 0 255 255 0 255
1.0463 1.30158 4.48566 0 0 0 255 255 0 255
1.09625 1.29861 4.48606 0 0 0 255 255 0 255
0.17451 1.39755 4.48765 0 0 0 255 255 0 255
0.196982 1.40124 4.48885 0 0 0 255 255 0 255
1.13458 1.32043 4.49124 0 0 0 255 255 0 255
0.212263 1.41351 4.49163 0 0 0 255 255 0 255
0.241989 1.41944 4.49343 0 0 0 255 255 0 255
0.157177 1.4357 4.49502 0 0 0 255 255 0 255
1.10932 1.34951 4.49661 0 0 0 255 255 0 255
0.16928 1.44632 4.49741 0 0 0 255 255 0 255
1.1159 1.37545 4.50198 0 0 0 255 255 0 255
1.1132 1.37867 4.50258 0 0 0 255 255 0 255
0.179939 1.47284 4.50298 0 0 0 255 255 0 255
1.01446 1.3963 4.50417 0 0 0 255 255 0 255
-0.00946182 1.49844 4.50437 0 0 0 255 255 0 255
0.967557 1.4098 4.50596 0 0 0 255 255 0 255
0.959725 1.43224 4.51034 0 0 0 255 255 0 255
0.97337 1.48899 4.52208 0 0 0 255 255 0 255
0.775078 1.52631 4.52566 0 0 0 255 255 0 255
0.399167 1.57625 4.52825 0 0 0 255 255 0 255
0.697104 1.55075 4.52905 0 0 0 255 255 0 255
0.71399 1.55893 4.53104 0 0 0 255 255 0 255
0.483275 1.59354 4.53342 0 0 0 255 255 0 255
0.757103 1.57831 4.53581 0 0 0 255 255 0 255
0.76744 1.58122 4.53661 0 0 0 255 255 0 255
0.486037 1.63167 4.54119 0 0 0 255 255 0 255
0.687413 1.6561 4.55014 0 0 0 255 255 0 255
0.672166 1.69502 4.5577 0 0 0 255 255 0 255
0.697208 1.73489 4.56626 0 0 0 255 255 0 255
