ply
format ascii 1.0
comment VCGLIB generated
element vertex 523
property float x
property float y
property float z
property float nx
property float ny
property float nz
property uchar red
property uchar green
property uchar blue
property uchar alpha
element face 0
property list uchar int vertex_indices
end_header
3.44768 2.44038 3.45501 0 0 0 128 128 128 255
3.44598 2.4492 3.4261 0 0 0 128 128 128 255
3.43421 2.44442 3.43627 0 0 0 128 128 128 255
3.42622 2.44332 3.43634 0 0 0 128 128 128 255
3.41686 2.44448 3.42859 0 0 0 128 128 128 255
3.41015 2.42102 3.50058 0 0 0 128 128 128 255
3.32193 2.39598 3.54345 0 0 0 128 128 128 255
3.30734 2.40753 3.50071 0 0 0 128 128 128 255
3.26197 2.39616 3.51873 0 0 0 128 128 128 255
3.25776 2.4027 3.49627 0 0 0 128 128 128 255
3.24309 2.37041 3.59323 0 0 0 128 128 128 255
3.24314 2.42214 3.42867 0 0 0 128 128 128 255
3.22648 2.36983 3.58856 0 0 0 128 128 128 255
3.23878 2.42807 3.40811 0 0 0 128 128 128 255
3.22968 2.41463 3.44731 0 0 0 128 128 128 255
3.20036 2.34227 3.66611 0 0 0 128 128 128 255
3.21486 2.4016 3.48303 0 0 0 128 128 128 255
3.21355 2.42796 3.3987 0 0 0 128 128 128 255
3.20898 2.42907 3.39342 0 0 0 128 128 128 255
3.18648 2.34498 3.65218 0 0 0 128 128 128 255
3.19088 2.39471 3.49576 0 0 0 128 128 128 255
3.17606 2.33806 3.6702 0 0 0 128 128 128 255
3.17832 2.36715 3.5786 0 0 0 128 128 128 255
3.17268 2.36396 3.58661 0 0 0 128 128 128 255
3.15632 2.35655 3.604 0 0 0 128 128 128 255
3.17315 2.4254 3.39151 0 0 0 128 128 128 255
3.15104 2.3826 3.51925 0 0 0 128 128 128 255
3.13648 2.33893 3.65259 0 0 0 128 128 128 255
3.12303 2.32366 3.69612 0 0 0 128 128 128 255
3.1139 2.36176 3.57175 0 0 0 128 128 128 255
3.12558 2.42146 3.38646 0 0 0 128 128 128 255
3.10016 2.32539 3.68222 0 0 0 128 128 128 255
3.09393 2.31585 3.71026 0 0 0 128 128 128 255
3.09263 2.31846 3.70151 0 0 0 128 128 128 255
3.11832 2.4275 3.36465 0 0 0 128 128 128 255
3.09012 2.31614 3.70794 0 0 0 128 128 128 255
3.08723 2.31621 3.70668 0 0 0 128 128 128 255
3.0894 2.40861 3.41422 0 0 0 128 128 128 255
3.06871 2.3518 3.58708 0 0 0 128 128 128 255
3.05331 2.34848 3.59217 0 0 0 128 128 128 255
3.0524 2.34872 3.59112 0 0 0 128 128 128 255
3.05567 2.37008 3.52451 0 0 0 128 128 128 255
3.02961 2.2794 3.80298 0 0 0 128 128 128 255
3.04724 2.35947 3.55519 0 0 0 128 128 128 255
3.04957 2.369 3.52578 0 0 0 128 128 128 255
3.05181 2.38214 3.48489 0 0 0 128 128 128 255
3.06495 2.43985 3.30645 0 0 0 128 128 128 255
3.03436 2.33465 3.6294 0 0 0 128 128 128 255
3.03343 2.35871 3.55279 0 0 0 128 128 128 255
3.05255 2.44885 3.27359 0 0 0 128 128 128 255
3.07367 2.53523 3.00703 0 0 0 128 128 128 255
3.05094 2.45024 3.26864 0 0 0 128 128 128 255
3.00672 2.28126 3.78912 0 0 0 128 128 128 255
3.0104 2.29632 3.74264 0 0 0 128 128 128 255
3.02105 2.34389 3.5955 0 0 0 128 128 128 255
3.03924 2.41827 3.36594 0 0 0 128 128 128 255
3.06772 2.53477 3.00641 0 0 0 128 128 128 255
3.0042 2.27895 3.79555 0 0 0 128 128 128 255
3.00191 2.27757 3.79914 0 0 0 128 128 128 255
3.05152 2.54019 2.98369 0 0 0 128 128 128 255
2.98076 2.28262 3.77591 0 0 0 128 128 128 255
2.98521 2.31283 3.68169 0 0 0 128 128 128 255
2.99879 2.37631 3.48512 0 0 0 128 128 128 255
2.9965 2.37493 3.48871 0 0 0 128 128 128 255
2.99431 2.36994 3.50379 0 0 0 128 128 128 255
3.0039 2.43705 3.29438 0 0 0 128 128 128 255
2.96713 2.29067 3.74581 0 0 0 128 128 128 255
2.98742 2.43343 3.30033 0 0 0 128 128 128 255
3.01448 2.54409 2.95883 0 0 0 128 128 128 255
2.96609 2.36214 3.51905 0 0 0 128 128 128 255
2.97875 2.44579 3.25832 0 0 0 128 128 128 255
2.95874 2.36795 3.49822 0 0 0 128 128 128 255
2.96429 2.39462 3.41558 0 0 0 128 128 128 255
2.92955 2.25653 3.84141 0 0 0 128 128 128 255
2.99892 2.54025 2.96584 0 0 0 128 128 128 255
3.00131 2.55401 2.92305 0 0 0 128 128 128 255
2.92957 2.27254 3.79073 0 0 0 128 128 128 255
2.99608 2.54458 2.95121 0 0 0 128 128 128 255
2.96479 2.44449 3.25785 0 0 0 128 128 128 255
2.96176 2.43612 3.28336 0 0 0 128 128 128 255
2.94265 2.36197 3.51187 0 0 0 128 128 128 255
2.94386 2.36689 3.49669 0 0 0 128 128 128 255
2.98794 2.55517 2.91499 0 0 0 128 128 128 255
2.94153 2.37729 3.46298 0 0 0 128 128 128 255
2.97195 2.50571 3.06636 0 0 0 128 128 128 255
2.92429 2.31475 3.65535 0 0 0 128 128 128 255
2.98321 2.55575 2.91164 0 0 0 128 128 128 255
2.93945 2.38077 3.4513 0 0 0 128 128 128 255
2.9559 2.45201 3.23112 0 0 0 128 128 128 255
2.93537 2.37203 3.47766 0 0 0 128 128 128 255
2.95437 2.45372 3.22522 0 0 0 128 128 128 255
2.96478 2.5043 3.0685 0 0 0 128 128 128 255
2.91035 2.28568 3.74286 0 0 0 128 128 128 255
2.9722 2.53866 2.96215 0 0 0 128 128 128 255
2.94638 2.445 3.25023 0 0 0 128 128 128 255
2.89848 2.25705 3.82963 0 0 0 128 128 128 255
2.92463 2.36402 3.49951 0 0 0 128 128 128 255
2.92471 2.36433 3.49856 0 0 0 128 128 128 255
2.97198 2.55768 2.90189 0 0 0 128 128 128 255
2.92625 2.37864 3.45378 0 0 0 128 128 128 255
2.93773 2.44954 3.23309 0 0 0 128 128 128 255
2.88999 2.25827 3.82303 0 0 0 128 128 128 255
2.92065 2.38369 3.43599 0 0 0 128 128 128 255
2.89023 2.27521 3.7695 0 0 0 128 128 128 255
2.9331 2.46252 3.19055 0 0 0 128 128 128 255
2.94382 2.51433 3.03003 0 0 0 128 128 128 255
2.88165 2.26404 3.8021 0 0 0 128 128 128 255
2.92825 2.45462 3.21396 0 0 0 128 128 128 255
2.92455 2.44349 3.24801 0 0 0 128 128 128 255
2.95164 2.56231 2.88069 0 0 0 128 128 128 255
2.92248 2.463 3.18564 0 0 0 128 128 128 255
2.92885 2.513 3.02947 0 0 0 128 128 128 255
2.86853 2.29822 3.68985 0 0 0 128 128 128 255
2.90623 2.45646 3.20121 0 0 0 128 128 128 255
2.90306 2.46743 3.16551 0 0 0 128 128 128 255
2.90866 2.49834 3.0695 0 0 0 128 128 128 255
2.90889 2.49926 3.06666 0 0 0 128 128 128 255
2.87701 2.37286 3.45644 0 0 0 128 128 128 255
2.90008 2.46723 3.16521 0 0 0 128 128 128 255
2.89154 2.44428 3.23511 0 0 0 128 128 128 255
2.84843 2.27994 3.74137 0 0 0 128 128 128 255
2.88601 2.43363 3.26706 0 0 0 128 128 128 255
2.8921 2.45853 3.19022 0 0 0 128 128 128 255
2.84661 2.27649 3.7517 0 0 0 128 128 128 255
2.90238 2.50457 3.04783 0 0 0 128 128 128 255
2.90673 2.5224 2.99281 0 0 0 128 128 128 255
2.90166 2.5136 3.01907 0 0 0 128 128 128 255
2.88465 2.44806 3.22103 0 0 0 128 128 128 255
2.88432 2.45469 3.19996 0 0 0 128 128 128 255
2.89923 2.52765 2.97389 0 0 0 128 128 128 255
2.88854 2.48794 3.09616 0 0 0 128 128 128 255
2.87498 2.44047 3.24205 0 0 0 128 128 128 255
2.87621 2.45749 3.18863 0 0 0 128 128 128 255
2.89265 2.52873 2.96845 0 0 0 128 128 128 255
2.89227 2.53113 2.96076 0 0 0 128 128 128 255
2.82932 2.28171 3.72989 0 0 0 128 128 128 255
2.8903 2.5431 2.92232 0 0 0 128 128 128 255
2.82511 2.28446 3.7199 0 0 0 128 128 128 255
2.87471 2.48733 3.09382 0 0 0 128 128 128 255
2.86611 2.46016 3.1771 0 0 0 128 128 128 255
2.85027 2.41133 3.32658 0 0 0 128 128 128 255
2.8626 2.46174 3.17101 0 0 0 128 128 128 255
2.80252 2.224 3.90408 0 0 0 128 128 128 255
2.84348 2.39153 3.38709 0 0 0 128 128 128 255
2.80145 2.22363 3.90493 0 0 0 128 128 128 255
2.8402 2.39011 3.39059 0 0 0 128 128 128 255
2.86019 2.47187 3.13826 0 0 0 128 128 128 255
2.83759 2.39145 3.38555 0 0 0 128 128 128 255
2.80983 2.28589 3.71072 0 0 0 128 128 128 255
2.8521 2.47075 3.13936 0 0 0 128 128 128 255
2.86838 2.54139 2.92108 0 0 0 128 128 128 255
2.83647 2.42285 3.286 0 0 0 128 128 128 255
2.84338 2.45113 3.19873 0 0 0 128 128 128 255
2.83356 2.42297 3.28475 0 0 0 128 128 128 255
2.83081 2.42371 3.28161 0 0 0 128 128 128 255
2.82508 2.40428 3.34127 0 0 0 128 128 128 255
2.77569 2.22623 3.88898 0 0 0 128 128 128 255
2.81845 2.40114 3.34922 0 0 0 128 128 128 255
2.83762 2.47952 3.10732 0 0 0 128 128 128 255
2.81437 2.38847 3.38801 0 0 0 128 128 128 255
2.8256 2.44638 3.20843 0 0 0 128 128 128 255
2.8259 2.44761 3.20463 0 0 0 128 128 128 255
2.85174 2.55729 2.86588 0 0 0 128 128 128 255
2.845 2.54173 2.91301 0 0 0 128 128 128 255
2.80078 2.36885 3.44594 0 0 0 128 128 128 255
2.84455 2.55987 2.8556 0 0 0 128 128 128 255
2.8361 2.54935 2.88632 0 0 0 128 128 128 255
2.80113 2.41429 3.30256 0 0 0 128 128 128 255
2.8156 2.48149 3.09462 0 0 0 128 128 128 255
2.74019 2.18105 4.02121 0 0 0 128 128 128 255
2.75367 2.26423 3.7625 0 0 0 128 128 128 255
2.83144 2.58631 2.76826 0 0 0 128 128 128 255
2.79824 2.4665 3.13688 0 0 0 128 128 128 255
2.74787 2.26448 3.76002 0 0 0 128 128 128 255
2.82571 2.58687 2.76483 0 0 0 128 128 128 255
2.77969 2.40662 3.32052 0 0 0 128 128 128 255
2.77824 2.40472 3.32611 0 0 0 128 128 128 255
2.7426 2.26295 3.76332 0 0 0 128 128 128 255
2.77449 2.4054 3.32287 0 0 0 128 128 128 255
2.78756 2.45889 3.15781 0 0 0 128 128 128 255
2.74614 2.29346 3.66807 0 0 0 128 128 128 255
2.77104 2.40732 3.31584 0 0 0 128 128 128 255
2.71228 2.20299 3.94389 0 0 0 128 128 128 255
2.79094 2.52876 2.93826 0 0 0 128 128 128 255
2.76166 2.421 3.26998 0 0 0 128 128 128 255
2.78887 2.53228 2.92659 0 0 0 128 128 128 255
2.75991 2.41787 3.27937 0 0 0 128 128 128 255
2.72231 2.28811 3.67815 0 0 0 128 128 128 255
2.75297 2.41352 3.29112 0 0 0 128 128 128 255
2.78183 2.53156 2.92685 0 0 0 128 128 128 255
2.77303 2.55165 2.86098 0 0 0 128 128 128 255
2.78739 2.61036 2.6798 0 0 0 128 128 128 255
2.77277 2.55861 2.83897 0 0 0 128 128 128 255
2.77395 2.56747 2.81136 0 0 0 128 128 128 255
2.7647 2.5336 2.91561 0 0 0 128 128 128 255
2.77094 2.55911 2.83688 0 0 0 128 128 128 255
2.76369 2.53748 2.90309 0 0 0 128 128 128 255
2.7035 2.30732 3.61226 0 0 0 128 128 128 255
2.77616 2.60851 2.68252 0 0 0 128 128 128 255
2.7276 2.41387 3.2829 0 0 0 128 128 128 255
2.75864 2.54082 2.89112 0 0 0 128 128 128 255
2.69751 2.29486 3.64991 0 0 0 128 128 128 255
2.72406 2.41549 3.27682 0 0 0 128 128 128 255
2.7575 2.57229 2.79159 0 0 0 128 128 128 255
2.76607 2.60733 2.68345 0 0 0 128 128 128 255
2.76754 2.62136 2.63962 0 0 0 128 128 128 255
2.71776 2.42575 3.24274 0 0 0 128 128 128 255
2.70937 2.41952 3.26009 0 0 0 128 128 128 255
2.75338 2.60753 2.67935 0 0 0 128 128 128 255
2.67936 2.32082 3.56307 0 0 0 128 128 128 255
2.66973 2.31756 3.57073 0 0 0 128 128 128 255
2.62246 2.14423 4.10432 0 0 0 128 128 128 255
2.73412 2.62103 2.63159 0 0 0 128 128 128 255
2.6129 2.14523 4.09862 0 0 0 128 128 128 255
2.65483 2.31675 3.56929 0 0 0 128 128 128 255
2.65444 2.31916 3.56161 0 0 0 128 128 128 255
2.64657 2.29902 3.62298 0 0 0 128 128 128 255
2.69595 2.51705 2.94908 0 0 0 128 128 128 255
2.64024 2.29322 3.63957 0 0 0 128 128 128 255
2.6463 2.326 3.53788 0 0 0 128 128 128 255
2.70676 2.58134 2.74939 0 0 0 128 128 128 255
2.64827 2.36616 3.4119 0 0 0 128 128 128 255
2.63469 2.32266 3.54536 0 0 0 128 128 128 255
2.6163 2.25949 3.73954 0 0 0 128 128 128 255
2.61877 2.27358 3.69581 0 0 0 128 128 128 255
2.64104 2.39279 3.32613 0 0 0 128 128 128 255
2.66985 2.52266 2.92458 0 0 0 128 128 128 255
2.63645 2.39407 3.32091 0 0 0 128 128 128 255
2.5733 2.1398 4.10532 0 0 0 128 128 128 255
2.58337 2.18099 3.9782 0 0 0 128 128 128 255
2.62627 2.36046 3.42412 0 0 0 128 128 128 255
2.6285 2.37362 3.38323 0 0 0 128 128 128 255
2.62943 2.38946 3.33362 0 0 0 128 128 128 255
2.66368 2.53357 2.88863 0 0 0 128 128 128 255
2.62321 2.38003 3.3617 0 0 0 128 128 128 255
2.66867 2.58209 2.73713 0 0 0 128 128 128 255
2.61059 2.37666 3.36909 0 0 0 128 128 128 255
2.60116 2.34613 3.46282 0 0 0 128 128 128 255
2.61078 2.38548 3.34139 0 0 0 128 128 128 255
2.60052 2.35156 3.44555 0 0 0 128 128 128 255
2.5994 2.36305 3.40912 0 0 0 128 128 128 255
2.60301 2.3778 3.36359 0 0 0 128 128 128 255
2.54858 2.1592 4.03796 0 0 0 128 128 128 255
2.60281 2.38902 3.32821 0 0 0 128 128 128 255
2.59693 2.36899 3.38977 0 0 0 128 128 128 255
2.63646 2.53068 2.8908 0 0 0 128 128 128 255
2.59703 2.39754 3.29994 0 0 0 128 128 128 255
2.59005 2.38505 3.33751 0 0 0 128 128 128 255
2.59599 2.40934 3.26257 0 0 0 128 128 128 255
2.57584 2.347 3.45371 0 0 0 128 128 128 255
2.51564 2.11689 4.1629 0 0 0 128 128 128 255
2.58275 2.39138 3.31579 0 0 0 128 128 128 255
2.58613 2.40522 3.2731 0 0 0 128 128 128 255
2.58666 2.40737 3.26646 0 0 0 128 128 128 255
2.52011 2.14322 4.08113 0 0 0 128 128 128 255
2.58129 2.39344 3.30896 0 0 0 128 128 128 255
2.51776 2.15769 4.03503 0 0 0 128 128 128 255
2.516 2.15852 4.032 0 0 0 128 128 128 255
2.55426 2.34719 3.44785 0 0 0 128 128 128 255
2.55823 2.38353 3.33449 0 0 0 128 128 128 255
2.49259 2.12308 4.13778 0 0 0 128 128 128 255
2.51714 2.22754 3.81516 0 0 0 128 128 128 255
2.55573 2.39344 3.30272 0 0 0 128 128 128 255
2.50003 2.16961 3.99321 0 0 0 128 128 128 255
2.58434 2.53456 2.86579 0 0 0 128 128 128 255
2.5336 2.33102 3.49368 0 0 0 128 128 128 255
2.49284 2.16837 3.9954 0 0 0 128 128 128 255
2.47305 2.09543 4.22004 0 0 0 128 128 128 255
2.55023 2.41112 3.24581 0 0 0 128 128 128 255
2.57998 2.53679 2.85774 0 0 0 128 128 128 255
2.48211 2.14052 4.0804 0 0 0 128 128 128 255
2.5275 2.32618 3.50744 0 0 0 128 128 128 255
2.54779 2.40918 3.25132 0 0 0 128 128 128 255
2.46927 2.13629 4.09067 0 0 0 128 128 128 255
2.48731 2.24229 3.7617 0 0 0 128 128 128 255
2.50494 2.32243 3.51392 0 0 0 128 128 128 255
2.55269 2.5459 2.82268 0 0 0 128 128 128 255
2.51654 2.41416 3.22832 0 0 0 128 128 128 255
2.4559 2.18221 3.9432 0 0 0 128 128 128 255
2.49654 2.35247 3.41758 0 0 0 128 128 128 255
2.49886 2.36594 3.37574 0 0 0 128 128 128 255
2.51062 2.42211 3.20196 0 0 0 128 128 128 255
2.44512 2.16228 4.00335 0 0 0 128 128 128 255
2.50412 2.40358 3.25869 0 0 0 128 128 128 255
2.43665 2.13971 4.07232 0 0 0 128 128 128 255
2.48294 2.32906 3.48798 0 0 0 128 128 128 255
2.49725 2.43188 3.16823 0 0 0 128 128 128 255
2.49602 2.43487 3.15856 0 0 0 128 128 128 255
2.49201 2.42253 3.19641 0 0 0 128 128 128 255
2.47141 2.34226 3.4439 0 0 0 128 128 128 255
2.48957 2.4206 3.20191 0 0 0 128 128 128 255
2.489 2.43031 3.17128 0 0 0 128 128 128 255
2.45263 2.29766 3.57976 0 0 0 128 128 128 255
2.42177 2.17954 3.94384 0 0 0 128 128 128 255
2.45033 2.29634 3.58337 0 0 0 128 128 128 255
2.47715 2.42616 3.18165 0 0 0 128 128 128 255
2.47111 2.42561 3.18204 0 0 0 128 128 128 255
2.39283 2.11353 4.1447 0 0 0 128 128 128 255
2.49429 2.5285 2.86408 0 0 0 128 128 128 255
2.41652 2.22253 3.80767 0 0 0 128 128 128 255
2.38503 2.11382 4.14207 0 0 0 128 128 128 255
2.39976 2.17407 3.95614 0 0 0 128 128 128 255
2.40259 2.18971 3.90767 0 0 0 128 128 128 255
2.45069 2.38644 3.30056 0 0 0 128 128 128 255
2.48615 2.53548 2.84039 0 0 0 128 128 128 255
2.39079 2.17371 3.95532 0 0 0 128 128 128 255
2.41693 2.28464 3.61278 0 0 0 128 128 128 255
2.47736 2.53178 2.85009 0 0 0 128 128 128 255
2.40262 2.23415 3.76816 0 0 0 128 128 128 255
2.40011 2.23192 3.77462 0 0 0 128 128 128 255
2.38414 2.17466 3.95088 0 0 0 128 128 128 255
2.38291 2.1737 3.95363 0 0 0 128 128 128 255
2.4356 2.38918 3.28866 0 0 0 128 128 128 255
2.39342 2.22069 3.80841 0 0 0 128 128 128 255
2.38573 2.19329 3.89274 0 0 0 128 128 128 255
2.42185 2.3652 3.36097 0 0 0 128 128 128 255
2.36479 2.13585 4.06854 0 0 0 128 128 128 255
2.3693 2.17043 3.96098 0 0 0 128 128 128 255
2.36412 2.16536 3.9758 0 0 0 128 128 128 255
2.38009 2.23875 3.7489 0 0 0 128 128 128 255
2.37766 2.23287 3.76683 0 0 0 128 128 128 255
2.40578 2.36397 3.36141 0 0 0 128 128 128 255
2.36672 2.21632 3.81647 0 0 0 128 128 128 255
2.36669 2.22423 3.79162 0 0 0 128 128 128 255
2.35607 2.18485 3.91295 0 0 0 128 128 128 255
2.41341 2.41939 3.18916 0 0 0 128 128 128 255
2.36807 2.23799 3.74875 0 0 0 128 128 128 255
2.4111 2.42204 3.18035 0 0 0 128 128 128 255
2.36077 2.24442 3.72706 0 0 0 128 128 128 255
2.33273 2.13372 4.06847 0 0 0 128 128 128 255
2.43242 2.54955 2.78482 0 0 0 128 128 128 255
2.34822 2.20923 3.83484 0 0 0 128 128 128 255
2.33601 2.1835 3.91303 0 0 0 128 128 128 255
2.34992 2.24036 3.73754 0 0 0 128 128 128 255
2.39332 2.42595 3.1644 0 0 0 128 128 128 255
2.37412 2.35549 3.38145 0 0 0 128 128 128 255
2.31571 2.12061 4.1061 0 0 0 128 128 128 255
2.38902 2.42854 3.15541 0 0 0 128 128 128 255
2.30978 2.12862 4.07976 0 0 0 128 128 128 255
2.31293 2.14153 4.03992 0 0 0 128 128 128 255
2.33089 2.215 3.8132 0 0 0 128 128 128 255
2.33781 2.24328 3.72593 0 0 0 128 128 128 255
2.33474 2.24287 3.72661 0 0 0 128 128 128 255
2.4132 2.56378 2.73626 0 0 0 128 128 128 255
2.30783 2.13678 4.05379 0 0 0 128 128 128 255
2.32812 2.21978 3.79766 0 0 0 128 128 128 255
2.3778 2.43911 3.11999 0 0 0 128 128 128 255
2.30215 2.1378 4.04945 0 0 0 128 128 128 255
2.30252 2.13934 4.04471 0 0 0 128 128 128 255
2.31504 2.1986 3.86145 0 0 0 128 128 128 255
2.31114 2.19876 3.86014 0 0 0 128 128 128 255
2.31429 2.21167 3.8203 0 0 0 128 128 128 255
2.36765 2.42992 3.14678 0 0 0 128 128 128 255
2.29938 2.17489 3.93264 0 0 0 128 128 128 255
2.31126 2.22346 3.78276 0 0 0 128 128 128 255
2.29251 2.15088 4.00654 0 0 0 128 128 128 255
2.30563 2.21259 3.81569 0 0 0 128 128 128 255
2.2996 2.19197 3.87916 0 0 0 128 128 128 255
2.3062 2.22298 3.78326 0 0 0 128 128 128 255
2.35647 2.42862 3.14864 0 0 0 128 128 128 255
2.28454 2.13841 4.04404 0 0 0 128 128 128 255
2.29487 2.18876 3.88829 0 0 0 128 128 128 255
2.34275 2.38456 3.28402 0 0 0 128 128 128 255
2.34137 2.38299 3.28867 0 0 0 128 128 128 255
2.35118 2.43119 3.13956 0 0 0 128 128 128 255
2.33681 2.37644 3.30833 0 0 0 128 128 128 255
2.27658 2.13814 4.04332 0 0 0 128 128 128 255
2.27369 2.13043 4.06695 0 0 0 128 128 128 255
2.27617 2.14057 4.03564 0 0 0 128 128 128 255
2.31349 2.30127 3.53934 0 0 0 128 128 128 255
2.34137 2.41531 3.1874 0 0 0 128 128 128 255
2.2867 2.19976 3.8522 0 0 0 128 128 128 255
2.28707 2.2013 3.84746 0 0 0 128 128 128 255
2.28715 2.20161 3.84651 0 0 0 128 128 128 255
2.28768 2.20376 3.83987 0 0 0 128 128 128 255
2.32763 2.37126 3.32279 0 0 0 128 128 128 255
2.28193 2.18833 3.88712 0 0 0 128 128 128 255
2.26631 2.13659 4.04622 0 0 0 128 128 128 255
2.26647 2.15336 3.99369 0 0 0 128 128 128 255
2.27744 2.19824 3.85519 0 0 0 128 128 128 255
2.27597 2.20033 3.84837 0 0 0 128 128 128 255
2.25895 2.13878 4.03792 0 0 0 128 128 128 255
2.25781 2.13814 4.03972 0 0 0 128 128 128 255
2.29463 2.30492 3.52427 0 0 0 128 128 128 255
2.25306 2.1389 4.03643 0 0 0 128 128 128 255
2.25328 2.13982 4.03359 0 0 0 128 128 128 255
2.32936 2.47926 2.98475 0 0 0 128 128 128 255
2.237 2.13382 4.04933 0 0 0 128 128 128 255
2.2518 2.21054 3.81182 0 0 0 128 128 128 255
2.23102 2.13363 4.04879 0 0 0 128 128 128 255
2.24831 2.20433 3.83061 0 0 0 128 128 128 255
2.25703 2.23999 3.72057 0 0 0 128 128 128 255
2.27333 2.30669 3.51472 0 0 0 128 128 128 255
2.311 2.4729 3.00126 0 0 0 128 128 128 255
2.29783 2.42307 3.15485 0 0 0 128 128 128 255
2.24155 2.20901 3.81472 0 0 0 128 128 128 255
2.2258 2.15269 3.98814 0 0 0 128 128 128 255
2.23903 2.20679 3.82119 0 0 0 128 128 128 255
2.2577 2.29127 3.56014 0 0 0 128 128 128 255
2.3031 2.47693 2.98718 0 0 0 128 128 128 255
2.24265 2.24993 3.68681 0 0 0 128 128 128 255
2.22931 2.20345 3.82988 0 0 0 128 128 128 255
2.24677 2.28697 3.57159 0 0 0 128 128 128 255
2.23668 2.24975 3.68628 0 0 0 128 128 128 255
2.22329 2.199 3.84272 0 0 0 128 128 128 255
2.30423 2.53006 2.82106 0 0 0 128 128 128 255
2.2107 2.1556 3.97629 0 0 0 128 128 128 255
2.30223 2.53 2.82088 0 0 0 128 128 128 255
2.21714 2.186 3.88229 0 0 0 128 128 128 255
2.22026 2.20685 3.81761 0 0 0 128 128 128 255
2.23031 2.25201 3.67807 0 0 0 128 128 128 255
2.21564 2.19603 3.85063 0 0 0 128 128 128 255
2.22916 2.25136 3.67988 0 0 0 128 128 128 255
2.26474 2.40897 3.19298 0 0 0 128 128 128 255
2.20527 2.16979 3.93091 0 0 0 128 128 128 255
2.22773 2.27788 3.59665 0 0 0 128 128 128 255
2.22958 2.2935 3.54809 0 0 0 128 128 128 255
2.23364 2.3101 3.49687 0 0 0 128 128 128 255
2.19311 2.14838 3.99575 0 0 0 128 128 128 255
2.22614 2.29157 3.55352 0 0 0 128 128 128 255
2.19004 2.15196 3.98402 0 0 0 128 128 128 255
2.18776 2.14671 4.00006 0 0 0 128 128 128 255
2.18735 2.1531 3.97996 0 0 0 128 128 128 255
2.26819 2.504 2.8962 0 0 0 128 128 128 255
2.21218 2.27897 3.5905 0 0 0 128 128 128 255
2.20916 2.27065 3.61603 0 0 0 128 128 128 255
2.19229 2.20973 3.80368 0 0 0 128 128 128 255
2.26115 2.50351 2.89654 0 0 0 128 128 128 255
2.18057 2.17796 3.90103 0 0 0 128 128 128 255
2.19763 2.24774 3.6857 0 0 0 128 128 128 255
2.2095 2.2963 3.53582 0 0 0 128 128 128 255
2.25444 2.4963 2.91792 0 0 0 128 128 128 255
2.16827 2.15198 3.98019 0 0 0 128 128 128 255
2.19467 2.28827 3.55839 0 0 0 128 128 128 255
2.19014 2.30617 3.50164 0 0 0 128 128 128 255
2.21147 2.39744 3.21981 0 0 0 128 128 128 255
2.23717 2.50257 2.89539 0 0 0 128 128 128 255
2.185 2.29321 3.54131 0 0 0 128 128 128 255
2.21487 2.42349 3.13892 0 0 0 128 128 128 255
2.17809 2.28112 3.57796 0 0 0 128 128 128 255
2.21191 2.41945 3.15108 0 0 0 128 128 128 255
2.21371 2.42682 3.12831 0 0 0 128 128 128 255
2.20652 2.43795 3.09234 0 0 0 128 128 128 255
2.12136 2.09365 4.1547 0 0 0 128 128 128 255
2.14154 2.18428 3.87469 0 0 0 128 128 128 255
2.14234 2.20783 3.80121 0 0 0 128 128 128 255
2.14337 2.2161 3.77551 0 0 0 128 128 128 255
2.19239 2.44494 3.06819 0 0 0 128 128 128 255
2.15908 2.31274 3.47601 0 0 0 128 128 128 255
2.1548 2.31141 3.47945 0 0 0 128 128 128 255
2.13185 2.22164 3.75636 0 0 0 128 128 128 255
2.12154 2.18349 3.8739 0 0 0 128 128 128 255
2.12868 2.2127 3.78379 0 0 0 128 128 128 255
2.11962 2.18376 3.87278 0 0 0 128 128 128 255
2.13232 2.2357 3.71247 0 0 0 128 128 128 255
2.18102 2.43489 3.09777 0 0 0 128 128 128 255
2.18018 2.43548 3.09578 0 0 0 128 128 128 255
2.1243 2.21504 3.77576 0 0 0 128 128 128 255
2.11354 2.19126 3.84838 0 0 0 128 128 128 255
2.11752 2.20755 3.7981 0 0 0 128 128 128 255
2.11771 2.21642 3.77042 0 0 0 128 128 128 255
2.16656 2.41622 3.15382 0 0 0 128 128 128 255
2.18089 2.49511 2.9096 0 0 0 128 128 128 255
2.15333 2.41073 3.16891 0 0 0 128 128 128 255
2.09679 2.18355 3.86985 0 0 0 128 128 128 255
2.10512 2.22164 3.75214 0 0 0 128 128 128 255
2.11095 2.24959 3.66573 0 0 0 128 128 128 255
2.16775 2.48595 2.93616 0 0 0 128 128 128 255
2.09156 2.18649 3.85985 0 0 0 128 128 128 255
2.08283 2.15481 3.95747 0 0 0 128 128 128 255
2.10534 2.25498 3.64805 0 0 0 128 128 128 255
2.10701 2.27397 3.58898 0 0 0 128 128 128 255
2.0905 2.21858 3.75948 0 0 0 128 128 128 255
2.152 2.47828 2.95773 0 0 0 128 128 128 255
2.08298 2.22025 3.7531 0 0 0 128 128 128 255
2.07202 2.18761 3.85339 0 0 0 128 128 128 255
2.07367 2.19438 3.83252 0 0 0 128 128 128 255
2.07375 2.19468 3.83158 0 0 0 128 128 128 255
2.12889 2.44049 3.07226 0 0 0 128 128 128 255
2.06412 2.18776 3.85176 0 0 0 128 128 128 255
2.08336 2.26645 3.60892 0 0 0 128 128 128 255
2.13432 2.47486 2.96576 0 0 0 128 128 128 255
2.06366 2.2061 3.79442 0 0 0 128 128 128 255
2.06847 2.22578 3.73371 0 0 0 128 128 128 255
2.06108 2.19963 3.81425 0 0 0 128 128 128 255
2.06176 2.2024 3.80572 0 0 0 128 128 128 255
2.12014 2.45745 3.01803 0 0 0 128 128 128 255
2.05273 2.19794 3.81832 0 0 0 128 128 128 255
2.04569 2.19751 3.81867 0 0 0 128 128 128 255
2.10811 2.47314 2.96734 0 0 0 128 128 128 255
2.10404 2.46052 3.00615 0 0 0 128 128 128 255
2.02351 2.13926 3.99728 0 0 0 128 128 128 255
2.01938 2.18724 3.84699 0 0 0 128 128 128 255
2.01705 2.19393 3.82579 0 0 0 128 128 128 255
2.00217 2.14532 3.97541 0 0 0 128 128 128 255
2.06513 2.43934 3.06683 0 0 0 128 128 128 255
2.06344 2.44054 3.06287 0 0 0 128 128 128 255
1.99551 2.17491 3.88222 0 0 0 128 128 128 255
1.99841 2.21108 3.76978 0 0 0 128 128 128 255
2.0516 2.44893 3.03513 0 0 0 128 128 128 255
1.98287 2.17593 3.87733 0 0 0 128 128 128 255
2.04868 2.44919 3.03393 0 0 0 128 128 128 255
1.98412 2.21761 3.74757 0 0 0 128 128 128 255
1.96998 2.19229 3.82469 0 0 0 128 128 128 255
1.97177 2.21988 3.73889 0 0 0 128 128 128 255
1.95886 2.17926 3.86386 0 0 0 128 128 128 255
2.02385 2.44914 3.0309 0 0 0 128 128 128 255
1.97328 2.25452 3.63112 0 0 0 128 128 128 255
1.96197 2.21638 3.74858 0 0 0 128 128 128 255
1.96052 2.21452 3.75419 0 0 0 128 128 128 255
2.01435 2.44687 3.03679 0 0 0 128 128 128 255
2.0068 2.44034 3.05621 0 0 0 128 128 128 255
1.93689 2.21944 3.73599 0 0 0 128 128 128 255
1.9349 2.21941 3.73582 0 0 0 128 128 128 255
1.91896 2.20299 3.78511 0 0 0 128 128 128 255
1.95476 2.42258 3.10537 0 0 0 128 128 128 255
1.8961 2.21932 3.73166 0 0 0 128 128 128 255
1.94479 2.42249 3.10455 0 0 0 128 128 128 255
1.85472 2.15578 3.92495 0 0 0 128 128 128 255
1.83606 2.1446 3.9578 0 0 0 128 128 128 255
1.84314 2.18577 3.83045 0 0 0 128 128 128 255
1.82654 2.19518 3.7995 0 0 0 128 128 128 255
1.70527 2.12302 4.01319 0 0 0 128 128 128 255
