ply
format ascii 1.0
comment VCGLIB generated
element vertex 447
property float x
property float y
property float z
property float nx
property float ny
property float nz
property uchar red
property uchar green
property uchar blue
property uchar alpha
element face 0
property list uchar int vertex_indices
end_header
4.22016 0.641186 3.41883 0 0 0 128 128 0 255
4.1992 0.610401 3.43438 0 0 0 128 128 0 255
4.19453 0.626242 3.43726 0 0 0 128 128 0 255
4.19242 0.639173 3.43841 0 0 0 128 128 0 255
4.18797 0.649018 3.44129 0 0 0 128 128 0 255
4.15176 0.856835 3.46144 0 0 0 128 128 0 255
4.14232 0.846484 3.46835 0 0 0 128 128 0 255
4.12533 0.930921 3.47814 0 0 0 128 128 0 255
4.11753 0.987674 3.48217 0 0 0 128 128 0 255
4.11366 1.02656 3.4839 0 0 0 128 128 0 255
4.10743 0.928266 3.49081 0 0 0 128 128 0 255
4.09116 1.14982 3.49657 0 0 0 128 128 0 255
4.09013 1.15579 3.49714 0 0 0 128 128 0 255
4.10115 0.651854 3.50233 0 0 0 128 128 0 255
4.09276 0.657552 3.50808 0 0 0 128 128 0 255
4.0902 0.66046 3.50981 0 0 0 128 128 0 255
4.05908 1.26673 3.51615 0 0 0 128 128 0 255
4.06069 1.17773 3.5173 0 0 0 128 128 0 255
4.05181 1.1744 3.52363 0 0 0 128 128 0 255
4.06185 0.854555 3.52478 0 0 0 128 128 0 255
4.00839 1.87128 3.5363 0 0 0 128 128 0 255
3.97498 2.00215 3.55646 0 0 0 128 128 0 255
3.97329 2.02611 3.55703 0 0 0 128 128 0 255
3.97742 1.82312 3.55933 0 0 0 128 128 0 255
3.991 1.02509 3.57028 0 0 0 128 128 0 255
3.98947 1.02203 3.57143 0 0 0 128 128 0 255
3.98954 1.02003 3.57143 0 0 0 128 128 0 255
3.98005 1.10074 3.57603 0 0 0 128 128 0 255
3.9439 2.00202 3.57834 0 0 0 128 128 0 255
3.97099 1.10241 3.58237 0 0 0 128 128 0 255
3.9348 2.00469 3.58467 0 0 0 128 128 0 255
3.95948 1.03694 3.59216 0 0 0 128 128 0 255
3.95307 1.12277 3.59446 0 0 0 128 128 0 255
3.95314 1.00869 3.59734 0 0 0 128 128 0 255
3.95325 1.0057 3.59734 0 0 0 128 128 0 255
3.95306 0.988678 3.59792 0 0 0 128 128 0 255
3.95107 1.02063 3.59849 0 0 0 128 128 0 255
3.96883 0.53395 3.59849 0 0 0 128 128 0 255
3.89869 2.32158 3.60195 0 0 0 128 128 0 255
3.8995 2.2996 3.60195 0 0 0 128 128 0 255
3.94247 1.09937 3.60252 0 0 0 128 128 0 255
3.89859 2.27955 3.6031 0 0 0 128 128 0 255
3.93706 1.11318 3.60598 0 0 0 128 128 0 255
3.88627 2.34815 3.61001 0 0 0 128 128 0 255
3.92979 1.13293 3.61059 0 0 0 128 128 0 255
3.95182 0.529327 3.61059 0 0 0 128 128 0 255
3.92293 1.14168 3.61519 0 0 0 128 128 0 255
3.92192 1.12463 3.61634 0 0 0 128 128 0 255
3.92611 1.00971 3.61634 0 0 0 128 128 0 255
3.91547 1.03234 3.62325 0 0 0 128 128 0 255
3.91017 1.11019 3.62498 0 0 0 128 128 0 255
3.87838 1.82451 3.62901 0 0 0 128 128 0 255
3.86414 1.96809 3.63535 0 0 0 128 128 0 255
3.89705 0.976627 3.63765 0 0 0 128 128 0 255
3.89708 0.975628 3.63765 0 0 0 128 128 0 255
3.89467 0.974539 3.63938 0 0 0 128 128 0 255
3.85772 1.96485 3.63995 0 0 0 128 128 0 255
3.85686 1.96582 3.64053 0 0 0 128 128 0 255
3.85719 1.95683 3.64053 0 0 0 128 128 0 255
3.89921 0.603458 3.64571 0 0 0 128 128 0 255
3.84208 2.12439 3.64686 0 0 0 128 128 0 255
3.84475 1.96138 3.64917 0 0 0 128 128 0 255
3.87262 1.10782 3.65147 0 0 0 128 128 0 255
3.83386 2.10307 3.6532 0 0 0 128 128 0 255
3.87043 1.10074 3.6532 0 0 0 128 128 0 255
3.86934 1.08569 3.65435 0 0 0 128 128 0 255
3.83192 2.08899 3.65493 0 0 0 128 128 0 255
3.82983 2.07891 3.65665 0 0 0 128 128 0 255
3.8283 2.07585 3.6578 0 0 0 128 128 0 255
3.82661 2.09981 3.65838 0 0 0 128 128 0 255
3.82669 2.09781 3.65838 0 0 0 128 128 0 255
3.83748 1.1966 3.67393 0 0 0 128 128 0 255
3.83267 1.17141 3.67796 0 0 0 128 128 0 255
3.84762 0.761682 3.67796 0 0 0 128 128 0 255
3.84602 0.760623 3.67911 0 0 0 128 128 0 255
3.84606 0.759624 3.67911 0 0 0 128 128 0 255
3.82025 1.42212 3.68026 0 0 0 128 128 0 255
3.83517 1.0134 3.68026 0 0 0 128 128 0 255
3.83323 0.954286 3.68314 0 0 0 128 128 0 255
3.83341 0.949289 3.68314 0 0 0 128 128 0 255
3.82998 0.976182 3.68487 0 0 0 128 128 0 255
3.82107 1.198 3.68545 0 0 0 128 128 0 255
3.82032 1.19598 3.68602 0 0 0 128 128 0 255
3.8212 1.17199 3.68602 0 0 0 128 128 0 255
3.82999 0.886122 3.68717 0 0 0 128 128 0 255
3.81397 1.19074 3.69063 0 0 0 128 128 0 255
3.82494 0.889941 3.69063 0 0 0 128 128 0 255
3.82138 0.897816 3.69293 0 0 0 128 128 0 255
3.82419 0.820867 3.69293 0 0 0 128 128 0 255
3.8243 0.817869 3.69293 0 0 0 128 128 0 255
3.80726 1.21751 3.69466 0 0 0 128 128 0 255
3.80982 1.14756 3.69466 0 0 0 128 128 0 255
3.81179 1.0936 3.69466 0 0 0 128 128 0 255
3.8119 1.0906 3.69466 0 0 0 128 128 0 255
3.81609 0.975675 3.69466 0 0 0 128 128 0 255
3.82353 0.77181 3.69466 0 0 0 128 128 0 255
3.805 1.21243 3.69639 0 0 0 128 128 0 255
3.81335 0.98358 3.69639 0 0 0 128 128 0 255
3.76371 2.32166 3.69696 0 0 0 128 128 0 255
3.80443 1.2054 3.69696 0 0 0 128 128 0 255
3.78947 1.59311 3.69754 0 0 0 128 128 0 255
3.78869 1.59209 3.69811 0 0 0 128 128 0 255
3.78762 1.59905 3.69869 0 0 0 128 128 0 255
3.80238 1.19432 3.69869 0 0 0 128 128 0 255
3.75874 2.34549 3.69984 0 0 0 128 128 0 255
3.80925 0.961416 3.69984 0 0 0 128 128 0 255
3.81481 0.786502 3.70042 0 0 0 128 128 0 255
3.7982 1.21918 3.70099 0 0 0 128 128 0 255
3.81089 0.871416 3.70099 0 0 0 128 128 0 255
3.81363 0.796466 3.70099 0 0 0 128 128 0 255
3.81139 0.83541 3.70157 0 0 0 128 128 0 255
3.75679 2.3094 3.70214 0 0 0 128 128 0 255
3.81338 0.758432 3.70214 0 0 0 128 128 0 255
3.81171 0.759371 3.7033 0 0 0 128 128 0 255
3.7969 1.09806 3.70502 0 0 0 128 128 0 255
3.75167 2.31522 3.7056 0 0 0 128 128 0 255
3.79342 1.17098 3.7056 0 0 0 128 128 0 255
3.80421 0.875175 3.7056 0 0 0 128 128 0 255
3.80443 0.869179 3.7056 0 0 0 128 128 0 255
3.77692 1.60066 3.70618 0 0 0 128 128 0 255
3.79169 1.19593 3.70618 0 0 0 128 128 0 255
3.79554 1.06799 3.70675 0 0 0 128 128 0 255
3.77451 1.59957 3.7079 0 0 0 128 128 0 255
3.78901 1.17982 3.70848 0 0 0 128 128 0 255
3.79218 1.09288 3.70848 0 0 0 128 128 0 255
3.78764 1.19478 3.70905 0 0 0 128 128 0 255
3.80071 0.746962 3.71136 0 0 0 128 128 0 255
3.80078 0.744963 3.71136 0 0 0 128 128 0 255
3.74301 2.30589 3.71193 0 0 0 128 128 0 255
3.79103 0.98977 3.71193 0 0 0 128 128 0 255
3.79116 0.963758 3.71251 0 0 0 128 128 0 255
3.76595 1.63228 3.71309 0 0 0 128 128 0 255
3.79115 0.941743 3.71309 0 0 0 128 128 0 255
3.78067 1.20654 3.71366 0 0 0 128 128 0 255
3.75858 1.72207 3.71597 0 0 0 128 128 0 255
3.77686 1.17638 3.71712 0 0 0 128 128 0 255
3.78686 0.85753 3.71827 0 0 0 128 128 0 255
3.75443 1.72392 3.71884 0 0 0 128 128 0 255
3.7545 1.72193 3.71884 0 0 0 128 128 0 255
3.77525 1.1533 3.71884 0 0 0 128 128 0 255
3.7741 1.05019 3.7223 0 0 0 128 128 0 255
3.77937 0.883274 3.72288 0 0 0 128 128 0 255
3.77177 1.06912 3.72345 0 0 0 128 128 0 255
3.76988 1.07606 3.7246 0 0 0 128 128 0 255
3.72689 1.91805 3.73324 0 0 0 128 128 0 255
3.76963 0.746828 3.73324 0 0 0 128 128 0 255
3.72662 1.90303 3.73382 0 0 0 128 128 0 255
3.7683 0.760789 3.73382 0 0 0 128 128 0 255
3.74169 1.44527 3.73497 0 0 0 128 128 0 255
3.75981 0.948605 3.73497 0 0 0 128 128 0 255
3.75972 0.928588 3.73554 0 0 0 128 128 0 255
3.76128 0.818572 3.73727 0 0 0 128 128 0 255
3.76235 0.744561 3.73842 0 0 0 128 128 0 255
3.7432 1.15714 3.7413 0 0 0 128 128 0 255
3.71529 1.89961 3.74188 0 0 0 128 128 0 255
3.71333 1.90855 3.74303 0 0 0 128 128 0 255
3.7406 1.16105 3.74303 0 0 0 128 128 0 255
3.75091 0.856219 3.74361 0 0 0 128 128 0 255
3.75226 0.819243 3.74361 0 0 0 128 128 0 255
3.74924 0.812129 3.74591 0 0 0 128 128 0 255
3.72531 1.44568 3.74648 0 0 0 128 128 0 255
3.73402 1.13979 3.74821 0 0 0 128 128 0 255
3.74089 0.861857 3.75052 0 0 0 128 128 0 255
3.73577 0.934719 3.75224 0 0 0 128 128 0 255
3.71866 1.38139 3.75282 0 0 0 128 128 0 255
3.72776 1.06451 3.75455 0 0 0 128 128 0 255
3.73229 0.940596 3.75455 0 0 0 128 128 0 255
3.73107 0.906529 3.75627 0 0 0 128 128 0 255
3.7364 0.760626 3.75627 0 0 0 128 128 0 255
3.72534 1.04141 3.75685 0 0 0 128 128 0 255
3.71758 1.16421 3.75915 0 0 0 128 128 0 255
3.72832 0.847389 3.75973 0 0 0 128 128 0 255
3.71889 1.06119 3.76088 0 0 0 128 128 0 255
3.73395 0.648462 3.76088 0 0 0 128 128 0 255
3.71555 1.06307 3.76318 0 0 0 128 128 0 255
3.71919 0.963133 3.76318 0 0 0 128 128 0 255
3.71749 0.965072 3.76434 0 0 0 128 128 0 255
3.72155 0.831132 3.76491 0 0 0 128 128 0 255
3.68438 1.82744 3.76549 0 0 0 128 128 0 255
3.72734 0.650222 3.76549 0 0 0 128 128 0 255
3.71969 0.815053 3.76664 0 0 0 128 128 0 255
3.71364 0.935913 3.76779 0 0 0 128 128 0 255
3.7052 1.14474 3.76837 0 0 0 128 128 0 255
3.70137 1.1376 3.77125 0 0 0 128 128 0 255
3.70396 1.06665 3.77125 0 0 0 128 128 0 255
3.70391 1.04563 3.77182 0 0 0 128 128 0 255
3.71746 0.651863 3.7724 0 0 0 128 128 0 255
3.70512 0.967623 3.77297 0 0 0 128 128 0 255
3.71368 0.665734 3.7747 0 0 0 128 128 0 255
3.71412 0.653742 3.7747 0 0 0 128 128 0 255
3.6869 1.37723 3.77528 0 0 0 128 128 0 255
3.7113 0.663646 3.77643 0 0 0 128 128 0 255
3.69696 0.922295 3.77988 0 0 0 128 128 0 255
3.6975 0.907305 3.77988 0 0 0 128 128 0 255
3.6883 1.13712 3.78046 0 0 0 128 128 0 255
3.68837 1.13512 3.78046 0 0 0 128 128 0 255
3.69719 0.82624 3.78219 0 0 0 128 128 0 255
3.68425 1.13597 3.78334 0 0 0 128 128 0 255
3.65418 1.87037 3.78564 0 0 0 128 128 0 255
3.67997 1.11881 3.78679 0 0 0 128 128 0 255
3.67632 1.1517 3.78852 0 0 0 128 128 0 255
3.65067 1.83221 3.7891 0 0 0 128 128 0 255
3.67532 1.15666 3.7891 0 0 0 128 128 0 255
3.69224 0.647941 3.79025 0 0 0 128 128 0 255
3.69117 0.654906 3.79082 0 0 0 128 128 0 255
3.69175 0.638917 3.79082 0 0 0 128 128 0 255
3.66649 1.17435 3.79486 0 0 0 128 128 0 255
3.64172 1.83089 3.79543 0 0 0 128 128 0 255
3.67224 0.994442 3.79543 0 0 0 128 128 0 255
3.68433 0.640648 3.79601 0 0 0 128 128 0 255
3.68538 0.611667 3.79601 0 0 0 128 128 0 255
3.67288 0.909409 3.79716 0 0 0 128 128 0 255
3.67287 0.887394 3.79773 0 0 0 128 128 0 255
3.63767 1.82974 3.79831 0 0 0 128 128 0 255
3.66167 1.12714 3.79946 0 0 0 128 128 0 255
3.66027 1.1431 3.80004 0 0 0 128 128 0 255
3.66865 0.913257 3.80004 0 0 0 128 128 0 255
3.67839 0.646435 3.80004 0 0 0 128 128 0 255
3.66319 1.01813 3.80119 0 0 0 128 128 0 255
3.66148 1.02007 3.80234 0 0 0 128 128 0 255
3.66622 0.890153 3.80234 0 0 0 128 128 0 255
3.63153 1.81851 3.80292 0 0 0 128 128 0 255
3.65901 1.04299 3.80349 0 0 0 128 128 0 255
3.65463 1.09587 3.80522 0 0 0 128 128 0 255
3.65816 0.998932 3.80522 0 0 0 128 128 0 255
3.67095 0.62615 3.8058 0 0 0 128 128 0 255
3.67197 0.598169 3.8058 0 0 0 128 128 0 255
3.67052 0.593112 3.80695 0 0 0 128 128 0 255
3.66077 0.83792 3.80752 0 0 0 128 128 0 255
3.66002 0.835891 3.8081 0 0 0 128 128 0 255
3.61366 2.08403 3.80868 0 0 0 128 128 0 255
3.64856 1.12767 3.80868 0 0 0 128 128 0 255
3.63211 1.51132 3.8104 0 0 0 128 128 0 255
3.66357 0.648896 3.8104 0 0 0 128 128 0 255
3.65173 0.92865 3.81156 0 0 0 128 128 0 255
3.65135 0.916629 3.81213 0 0 0 128 128 0 255
3.60784 2.08682 3.81271 0 0 0 128 128 0 255
3.62866 1.5162 3.81271 0 0 0 128 128 0 255
3.64835 0.976559 3.81271 0 0 0 128 128 0 255
3.64891 0.938554 3.81328 0 0 0 128 128 0 255
3.65694 0.718701 3.81328 0 0 0 128 128 0 255
3.65752 0.702711 3.81328 0 0 0 128 128 0 255
3.60638 2.08176 3.81386 0 0 0 128 128 0 255
3.64104 1.10938 3.81443 0 0 0 128 128 0 255
3.63972 1.07831 3.81616 0 0 0 128 128 0 255
3.64979 0.802496 3.81616 0 0 0 128 128 0 255
3.6439 0.941374 3.81674 0 0 0 128 128 0 255
3.65583 0.614591 3.81674 0 0 0 128 128 0 255
3.63218 1.12807 3.82019 0 0 0 128 128 0 255
3.64556 0.761314 3.82019 0 0 0 128 128 0 255
3.63625 0.99413 3.82077 0 0 0 128 128 0 255
3.62956 1.15499 3.82134 0 0 0 128 128 0 255
3.63458 0.995069 3.82192 0 0 0 128 128 0 255
3.63106 1.00195 3.82422 0 0 0 128 128 0 255
3.63473 0.878997 3.8248 0 0 0 128 128 0 255
3.62501 1.12281 3.82538 0 0 0 128 128 0 255
3.64246 0.622109 3.82595 0 0 0 128 128 0 255
3.64305 0.606119 3.82595 0 0 0 128 128 0 255
3.62595 1.02978 3.8271 0 0 0 128 128 0 255
3.63259 0.802869 3.82825 0 0 0 128 128 0 255
3.59512 1.78516 3.82941 0 0 0 128 128 0 255
3.63029 0.798782 3.82998 0 0 0 128 128 0 255
3.61956 1.02554 3.83171 0 0 0 128 128 0 255
3.57998 2.08781 3.83229 0 0 0 128 128 0 255
3.62251 0.877551 3.83344 0 0 0 128 128 0 255
3.61349 1.10237 3.83401 0 0 0 128 128 0 255
3.6179 0.936422 3.83517 0 0 0 128 128 0 255
3.59298 1.59695 3.83574 0 0 0 128 128 0 255
3.629 0.587595 3.83632 0 0 0 128 128 0 255
3.62494 0.631476 3.83804 0 0 0 128 128 0 255
3.58901 1.59381 3.83862 0 0 0 128 128 0 255
3.60819 1.06816 3.83862 0 0 0 128 128 0 255
3.60743 1.04411 3.83977 0 0 0 128 128 0 255
3.61305 0.890214 3.83977 0 0 0 128 128 0 255
3.62234 0.635384 3.83977 0 0 0 128 128 0 255
3.6057 1.06907 3.84035 0 0 0 128 128 0 255
3.62328 0.587386 3.84035 0 0 0 128 128 0 255
3.5682 2.07437 3.84092 0 0 0 128 128 0 255
3.57757 1.81754 3.84092 0 0 0 128 128 0 255
3.60959 0.940121 3.84092 0 0 0 128 128 0 255
3.60224 1.11897 3.8415 0 0 0 128 128 0 255
3.57525 1.83647 3.84208 0 0 0 128 128 0 255
3.60716 0.917018 3.84323 0 0 0 128 128 0 255
3.6076 0.905025 3.84323 0 0 0 128 128 0 255
3.60899 0.822021 3.84438 0 0 0 128 128 0 255
3.6048 0.891915 3.84553 0 0 0 128 128 0 255
3.59569 1.09672 3.84668 0 0 0 128 128 0 255
3.60129 0.920806 3.84726 0 0 0 128 128 0 255
3.61303 0.59902 3.84726 0 0 0 128 128 0 255
3.56648 1.83014 3.84841 0 0 0 128 128 0 255
3.59835 0.956723 3.84841 0 0 0 128 128 0 255
3.60886 0.578855 3.85071 0 0 0 128 128 0 255
3.55335 2.07783 3.85129 0 0 0 128 128 0 255
3.58887 1.10448 3.85129 0 0 0 128 128 0 255
3.54517 2.27966 3.85186 0 0 0 128 128 0 255
3.5519 2.07277 3.85244 0 0 0 128 128 0 255
3.59252 0.959512 3.85244 0 0 0 128 128 0 255
3.59409 0.871511 3.85359 0 0 0 128 128 0 255
3.59339 0.868483 3.85417 0 0 0 128 128 0 255
3.58811 0.923327 3.85647 0 0 0 128 128 0 255
3.57806 1.10908 3.85877 0 0 0 128 128 0 255
3.58111 1.00312 3.85935 0 0 0 128 128 0 255
3.58844 0.802259 3.85935 0 0 0 128 128 0 255
3.57592 1.12302 3.85993 0 0 0 128 128 0 255
3.57587 1.102 3.8605 0 0 0 128 128 0 255
3.57501 1.10297 3.86108 0 0 0 128 128 0 255
3.57545 1.09098 3.86108 0 0 0 128 128 0 255
3.57445 1.09594 3.86165 0 0 0 128 128 0 255
3.57719 1.02099 3.86165 0 0 0 128 128 0 255
3.547 1.80341 3.86281 0 0 0 128 128 0 255
3.57267 1.09988 3.86281 0 0 0 128 128 0 255
3.57185 1.09985 3.86338 0 0 0 128 128 0 255
3.5851 0.692063 3.86453 0 0 0 128 128 0 255
3.55529 1.4865 3.86511 0 0 0 128 128 0 255
3.57753 0.876911 3.86511 0 0 0 128 128 0 255
3.58049 0.795965 3.86511 0 0 0 128 128 0 255
3.52481 2.20987 3.86799 0 0 0 128 128 0 255
3.54034 1.78416 3.86799 0 0 0 128 128 0 255
3.5509 1.47234 3.86856 0 0 0 128 128 0 255
3.56633 1.00459 3.86972 0 0 0 128 128 0 255
3.56644 1.00159 3.86972 0 0 0 128 128 0 255
3.56691 0.988598 3.86972 0 0 0 128 128 0 255
3.5739 0.77471 3.87029 0 0 0 128 128 0 255
3.54547 1.50916 3.87144 0 0 0 128 128 0 255
3.5754 0.688708 3.87144 0 0 0 128 128 0 255
3.57355 0.694644 3.8726 0 0 0 128 128 0 255
3.5581 1.07333 3.87375 0 0 0 128 128 0 255
3.53957 1.46892 3.87663 0 0 0 128 128 0 255
3.55303 1.10017 3.87663 0 0 0 128 128 0 255
3.56469 0.780378 3.87663 0 0 0 128 128 0 255
3.56003 0.863263 3.87778 0 0 0 128 128 0 255
3.52602 1.75061 3.87893 0 0 0 128 128 0 255
3.50896 2.0612 3.88296 0 0 0 128 128 0 255
3.52773 1.4795 3.88469 0 0 0 128 128 0 255
3.54362 0.97674 3.88642 0 0 0 128 128 0 255
3.54973 0.786837 3.88699 0 0 0 128 128 0 255
3.52481 1.44737 3.88757 0 0 0 128 128 0 255
3.55042 0.700805 3.88872 0 0 0 128 128 0 255
3.53549 1.08752 3.88929 0 0 0 128 128 0 255
3.54695 0.728697 3.89045 0 0 0 128 128 0 255
3.54552 0.700626 3.89217 0 0 0 128 128 0 255
3.51728 1.4521 3.89275 0 0 0 128 128 0 255
3.53419 0.92136 3.89448 0 0 0 128 128 0 255
3.50489 1.70181 3.89505 0 0 0 128 128 0 255
3.52487 1.08713 3.89678 0 0 0 128 128 0 255
3.52506 0.992074 3.89908 0 0 0 128 128 0 255
3.52875 0.891141 3.89908 0 0 0 128 128 0 255
3.52999 0.857164 3.89908 0 0 0 128 128 0 255
3.52421 0.993044 3.89966 0 0 0 128 128 0 255
3.52906 0.860132 3.89966 0 0 0 128 128 0 255
3.49479 1.75448 3.90081 0 0 0 128 128 0 255
3.52367 0.963004 3.90081 0 0 0 128 128 0 255
3.4966 1.6825 3.90139 0 0 0 128 128 0 255
3.50221 1.41652 3.90427 0 0 0 128 128 0 255
3.51866 0.965823 3.90427 0 0 0 128 128 0 255
3.52176 0.83585 3.90542 0 0 0 128 128 0 255
3.5165 0.957739 3.90599 0 0 0 128 128 0 255
3.50588 0.845277 3.91636 0 0 0 128 128 0 255
3.49246 1.10096 3.91924 0 0 0 128 128 0 255
3.47167 1.5585 3.92212 0 0 0 128 128 0 255
3.46907 1.49537 3.92557 0 0 0 128 128 0 255
3.48117 1.05151 3.92845 0 0 0 128 128 0 255
3.48595 0.9206 3.92845 0 0 0 128 128 0 255
3.4836 0.962542 3.92903 0 0 0 128 128 0 255
3.48364 0.916513 3.93018 0 0 0 128 128 0 255
3.48381 0.889502 3.93076 0 0 0 128 128 0 255
3.4718 0.927089 3.93824 0 0 0 128 128 0 255
3.46434 1.04189 3.94054 0 0 0 128 128 0 255
3.47171 0.840027 3.94054 0 0 0 128 128 0 255
3.46186 1.0428 3.94227 0 0 0 128 128 0 255
3.46523 0.92785 3.94285 0 0 0 128 128 0 255
3.46844 0.839908 3.94285 0 0 0 128 128 0 255
3.46011 1.04574 3.94342 0 0 0 128 128 0 255
3.46174 0.933726 3.94515 0 0 0 128 128 0 255
3.45677 1.04762 3.94573 0 0 0 128 128 0 255
3.46323 0.825709 3.94688 0 0 0 128 128 0 255
3.43338 1.44203 3.95206 0 0 0 128 128 0 255
3.45026 0.912293 3.95379 0 0 0 128 128 0 255
3.447 0.934189 3.95552 0 0 0 128 128 0 255
3.44502 0.921108 3.95724 0 0 0 128 128 0 255
3.44022 1.00799 3.9584 0 0 0 128 128 0 255
3.44026 1.00699 3.9584 0 0 0 128 128 0 255
3.43688 1.00987 3.9607 0 0 0 128 128 0 255
3.43015 1.05966 3.96415 0 0 0 128 128 0 255
3.42858 1.03558 3.96588 0 0 0 128 128 0 255
3.41405 1.4113 3.96646 0 0 0 128 128 0 255
3.42605 1.03749 3.96761 0 0 0 128 128 0 255
3.43206 0.805559 3.96934 0 0 0 128 128 0 255
3.40734 1.37103 3.97222 0 0 0 128 128 0 255
3.40758 1.34202 3.97279 0 0 0 128 128 0 255
3.40571 1.32594 3.97452 0 0 0 128 128 0 255
3.40303 1.37688 3.9751 0 0 0 128 128 0 255
3.40946 1.04389 3.97913 0 0 0 128 128 0 255
3.40716 0.837672 3.98604 0 0 0 128 128 0 255
3.38039 1.27999 3.99352 0 0 0 128 128 0 255
3.38838 1.01611 3.99467 0 0 0 128 128 0 255
3.388 1.00408 3.99525 0 0 0 128 128 0 255
3.37652 1.27385 3.9964 0 0 0 128 128 0 255
3.38903 0.931073 3.9964 0 0 0 128 128 0 255
3.37611 1.26282 3.99698 0 0 0 128 128 0 255
3.38669 0.927986 3.99813 0 0 0 128 128 0 255
3.36779 1.42363 3.99871 0 0 0 128 128 0 255
3.36301 1.44246 4.00158 0 0 0 128 128 0 255
3.37815 0.982711 4.00274 0 0 0 128 128 0 255
3.35985 1.43935 4.00389 0 0 0 128 128 0 255
3.37961 0.785633 4.00677 0 0 0 128 128 0 255
3.34714 1.58598 4.00907 0 0 0 128 128 0 255
3.37345 0.797416 4.0108 0 0 0 128 128 0 255
3.37227 0.80738 4.01137 0 0 0 128 128 0 255
3.36916 0.870308 4.01195 0 0 0 128 128 0 255
3.36144 1.03714 4.0131 0 0 0 128 128 0 255
3.36628 0.837181 4.01483 0 0 0 128 128 0 255
3.36501 0.827128 4.01598 0 0 0 128 128 0 255
3.36658 0.784157 4.01598 0 0 0 128 128 0 255
3.35624 1.04495 4.01656 0 0 0 128 128 0 255
3.35514 0.783739 4.02404 0 0 0 128 128 0 255
3.34913 0.9036 4.02519 0 0 0 128 128 0 255
3.34837 0.879556 4.02635 0 0 0 128 128 0 255
3.34415 0.90542 4.02865 0 0 0 128 128 0 255
3.34776 0.806486 4.02865 0 0 0 128 128 0 255
3.34304 0.913385 4.02922 0 0 0 128 128 0 255
3.33885 0.916234 4.0321 0 0 0 128 128 0 255
3.32427 0.889684 4.04305 0 0 0 128 128 0 255
3.32233 0.808559 4.0465 0 0 0 128 128 0 255
3.31734 0.788364 4.05053 0 0 0 128 128 0 255
3.31509 0.760264 4.05283 0 0 0 128 128 0 255
3.30584 0.924035 4.05514 0 0 0 128 128 0 255
3.309 0.815078 4.05571 0 0 0 128 128 0 255
3.30339 0.923946 4.05687 0 0 0 128 128 0 255
3.30835 0.788036 4.05687 0 0 0 128 128 0 255
3.30826 0.76802 4.05744 0 0 0 128 128 0 255
3.3041 0.814899 4.05917 0 0 0 128 128 0 255
3.3039 0.797881 4.05974 0 0 0 128 128 0 255
3.2945 0.78653 4.06666 0 0 0 128 128 0 255
3.28938 0.859392 4.06838 0 0 0 128 128 0 255
3.29175 0.794435 4.06838 0 0 0 128 128 0 255
3.28061 0.853068 4.07472 0 0 0 128 128 0 255
3.28323 0.759101 4.07529 0 0 0 128 128 0 255
3.2716 0.76368 4.08335 0 0 0 128 128 0 255
3.25962 0.890327 4.08854 0 0 0 128 128 0 255
3.26054 0.66321 4.09372 0 0 0 128 128 0 255
3.21466 0.911702 4.11963 0 0 0 128 128 0 255
3.20009 0.885153 4.13057 0 0 0 128 128 0 255
3.19006 0.935821 4.13633 0 0 0 128 128 0 255
3.18469 0.903604 4.14094 0 0 0 128 128 0 255
3.16846 1.01208 4.14958 0 0 0 128 128 0 255
3.10177 0.799511 4.20198 0 0 0 128 128 0 255
