ply
format ascii 1.0
comment VCGLIB generated
element vertex 16
property float x
property float y
property float z
property float nx
property float ny
property float nz
property uchar red
property uchar green
property uchar blue
property uchar alpha
element face 0
property list uchar int vertex_indices
end_header
-0.60322 1.38009 4.03727 0 0 0 128 0 128 255
-0.618071 1.37979 4.03936 0 0 0 128 0 128 255
-0.672924 1.39556 4.04376 0 0 0 128 0 128 255
-0.615859 1.19434 4.07532 0 0 0 128 0 128 255
-0.623531 1.19733 4.07579 0 0 0 128 0 128 255
-0.624383 1.19436 4.07648 0 0 0 128 0 128 255
-0.580005 1.14438 4.08019 0 0 0 128 0 128 255
-0.630077 1.17224 4.08159 0 0 0 128 0 128 255
-0.629551 1.1695 4.08205 0 0 0 128 0 128 255
-0.580098 1.13377 4.08228 0 0 0 128 0 128 255
-0.630234 1.15455 4.08507 0 0 0 128 0 128 255
-0.861984 1.31522 4.0853 0 0 0 128 0 128 255
-0.86391 1.22165 4.10386 0 0 0 128 0 128 255
-0.869886 1.16769 4.11523 0 0 0 128 0 128 255
-0.639362 0.961597 4.12405 0 0 0 128 0 128 255
-0.792143 0.910505 4.15491 0 0 0 128 0 128 255
