ply
format ascii 1.0
comment VCGLIB generated
element vertex 79
property float x
property float y
property float z
property float nx
property float ny
property float nz
property uchar red
property uchar green
property uchar blue
property uchar alpha
element face 0
property list uchar int vertex_indices
end_header
-2.49158 1.38839 4.83525 0 0 0 0 255 255 255
-2.4962 1.38337 4.84028 0 0 0 0 255 255 255
-2.70213 0.586524 4.84951 0 0 0 0 255 255 255
-2.51333 1.38663 4.86713 0 0 0 0 255 255 255
-2.67476 0.767294 4.87636 0 0 0 0 255 255 255
-2.69025 0.74128 4.88979 0 0 0 0 255 255 255
-2.69233 0.75314 4.89734 0 0 0 0 255 255 255
-2.68868 0.76769 4.89734 0 0 0 0 255 255 255
-2.69967 0.75292 4.90825 0 0 0 0 255 255 255
-2.61679 1.19091 4.94853 0 0 0 0 255 255 255
-2.78571 0.64459 4.99636 0 0 0 0 255 255 255
-2.79151 0.632641 5.00055 0 0 0 0 255 255 255
-2.91149 0.212196 5.02237 0 0 0 0 255 255 255
-2.66776 1.20678 5.03076 0 0 0 0 255 255 255
-2.771 0.841937 5.04838 0 0 0 0 255 255 255
-2.77721 0.850711 5.06097 0 0 0 0 255 255 255
-2.75724 0.941581 5.06517 0 0 0 0 255 255 255
-2.75801 0.940743 5.06601 0 0 0 0 255 255 255
-2.76519 0.945637 5.07859 0 0 0 0 255 255 255
-2.76731 0.972973 5.09202 0 0 0 0 255 255 255
-2.77117 0.968784 5.09621 0 0 0 0 255 255 255
-2.76845 0.990785 5.10041 0 0 0 0 255 255 255
-2.76441 1.02482 5.10712 0 0 0 0 255 255 255
-2.77057 1.00472 5.1088 0 0 0 0 255 255 255
-2.76826 1.02063 5.11132 0 0 0 0 255 255 255
-2.77406 1.00869 5.11551 0 0 0 0 255 255 255
-2.7836 1.02654 5.13649 0 0 0 0 255 255 255
-2.69757 1.38539 5.14237 0 0 0 0 255 255 255
-2.7845 1.04532 5.14488 0 0 0 0 255 255 255
-2.70419 1.40149 5.15831 0 0 0 0 255 255 255
-2.78497 1.10833 5.16922 0 0 0 0 255 255 255
-2.70854 1.42216 5.17258 0 0 0 0 255 255 255
-2.73608 1.38164 5.19859 0 0 0 0 255 255 255
-2.73819 1.38217 5.20195 0 0 0 0 255 255 255
-2.80616 1.11776 5.20446 0 0 0 0 255 255 255
-2.74964 1.3902 5.22208 0 0 0 0 255 255 255
-2.81849 1.11776 5.22292 0 0 0 0 255 255 255
-2.75329 1.38905 5.22712 0 0 0 0 255 255 255
-2.81068 1.18694 5.23719 0 0 0 0 255 255 255
-2.76477 1.37234 5.23803 0 0 0 0 255 255 255
-2.75866 1.42133 5.24726 0 0 0 0 255 255 255
-2.76599 1.3943 5.2481 0 0 0 0 255 255 255
-2.80827 1.23685 5.25229 0 0 0 0 255 255 255
-2.83285 1.2059 5.27747 0 0 0 0 255 255 255
-2.97762 0.646307 5.28418 0 0 0 0 255 255 255
-2.7875 1.40691 5.28502 0 0 0 0 255 255 255
-2.84904 1.21511 5.30516 0 0 0 0 255 255 255
-2.91187 0.982406 5.31187 0 0 0 0 255 255 255
-2.90952 0.996251 5.31355 0 0 0 0 255 255 255
-2.85238 1.2376 5.31858 0 0 0 0 255 255 255
-2.96377 0.860364 5.34376 0 0 0 0 255 255 255
-2.969 0.846211 5.34628 0 0 0 0 255 255 255
-2.92102 1.05996 5.35467 0 0 0 0 255 255 255
-3.02076 0.664339 5.35551 0 0 0 0 255 255 255
-2.85817 1.33081 5.36222 0 0 0 0 255 255 255
-3.01761 0.703756 5.36558 0 0 0 0 255 255 255
-2.92116 1.09298 5.36725 0 0 0 0 255 255 255
-2.91813 1.15202 5.38488 0 0 0 0 255 255 255
-2.94565 1.04448 5.38572 0 0 0 0 255 255 255
-2.94938 1.03408 5.38739 0 0 0 0 255 255 255
-2.94197 1.07037 5.38991 0 0 0 0 255 255 255
-2.94825 1.05648 5.39411 0 0 0 0 255 255 255
-2.9652 1.01124 5.4025 0 0 0 0 255 255 255
-2.94259 1.10145 5.4025 0 0 0 0 255 255 255
-2.94502 1.10515 5.40753 0 0 0 0 255 255 255
-2.93012 1.20039 5.42096 0 0 0 0 255 255 255
-2.93369 1.1951 5.42431 0 0 0 0 255 255 255
-2.90254 1.35739 5.43858 0 0 0 0 255 255 255
-2.92503 1.27437 5.4411 0 0 0 0 255 255 255
-2.92937 1.26824 5.44529 0 0 0 0 255 255 255
-2.91033 1.36656 5.45368 0 0 0 0 255 255 255
-2.96635 1.17442 5.46543 0 0 0 0 255 255 255
-2.92938 1.4002 5.4948 0 0 0 0 255 255 255
-2.94519 1.37737 5.50991 0 0 0 0 255 255 255
-3.01864 1.48031 5.65843 0 0 0 0 255 255 255
-3.11525 1.17772 5.68948 0 0 0 0 255 255 255
-3.0498 1.44998 5.69368 0 0 0 0 255 255 255
-3.05239 1.44857 5.69703 0 0 0 0 255 255 255
-3.04129 1.49733 5.69871 0 0 0 0 255 255 255
