ply
format ascii 1.0
comment VCGLIB generated
element vertex 65
property float x
property float y
property float z
property float nx
property float ny
property float nz
property uchar red
property uchar green
property uchar blue
property uchar alpha
element face 0
property list uchar int vertex_indices
end_header
2.45338 0.408566 3.74637 0 0 0 0 0 128 255
2.38615 0.285417 3.7937 0 0 0 0 0 128 255
2.34279 -0.0511222 3.85978 0 0 0 0 0 128 255
2.38455 -0.205671 3.86234 0 0 0 0 0 128 255
2.33511 -0.0754446 3.8666 0 0 0 0 0 128 255
2.35277 -0.142203 3.86788 0 0 0 0 0 128 255
2.37215 -0.208431 3.86831 0 0 0 0 0 128 255
2.33862 -0.142361 3.87427 0 0 0 0 0 128 255
2.3519 -0.201047 3.87641 0 0 0 0 0 128 255
2.35428 -0.214961 3.87726 0 0 0 0 0 128 255
2.34058 -0.188831 3.87982 0 0 0 0 0 128 255
2.32894 -0.169392 3.88238 0 0 0 0 0 128 255
2.3232 -0.175339 3.88579 0 0 0 0 0 128 255
2.31421 -0.167637 3.88877 0 0 0 0 0 128 255
2.19926 0.132862 3.899 0 0 0 0 0 128 255
2.19695 0.134243 3.89986 0 0 0 0 0 128 255
2.19549 0.135889 3.90028 0 0 0 0 0 128 255
2.19817 0.121019 3.90113 0 0 0 0 0 128 255
2.22465 0.0193138 3.90327 0 0 0 0 0 128 255
2.2194 0.0302547 3.90412 0 0 0 0 0 128 255
2.21281 0.0209085 3.90838 0 0 0 0 0 128 255
2.21636 0.00317004 3.90923 0 0 0 0 0 128 255
2.21139 0.0162883 3.90966 0 0 0 0 0 128 255
2.20995 0.0148015 3.91051 0 0 0 0 0 128 255
2.20209 0.0280794 3.91222 0 0 0 0 0 128 255
2.19459 0.027868 3.91563 0 0 0 0 0 128 255
2.14346 0.0341411 3.9378 0 0 0 0 0 128 255
2.16235 -0.0489751 3.94078 0 0 0 0 0 128 255
2.12999 0.0132714 3.94675 0 0 0 0 0 128 255
2.12091 0.0397734 3.94718 0 0 0 0 0 128 255
2.1952 -0.211489 3.94846 0 0 0 0 0 128 255
2.14678 -0.0537528 3.94846 0 0 0 0 0 128 255
2.17149 -0.146589 3.95016 0 0 0 0 0 128 255
2.1369 -0.0400497 3.95102 0 0 0 0 0 128 255
2.14132 -0.0575228 3.95144 0 0 0 0 0 128 255
2.11177 0.0202309 3.954 0 0 0 0 0 128 255
2.13275 -0.0758439 3.95784 0 0 0 0 0 128 255
2.12893 -0.0634162 3.95784 0 0 0 0 0 128 255
2.14368 -0.126882 3.95997 0 0 0 0 0 128 255
2.13812 -0.111852 3.9604 0 0 0 0 0 128 255
2.12816 -0.0824819 3.96082 0 0 0 0 0 128 255
2.11877 -0.0518905 3.96082 0 0 0 0 0 128 255
2.1182 -0.0531119 3.96125 0 0 0 0 0 128 255
2.12322 -0.0756303 3.9621 0 0 0 0 0 128 255
2.11242 -0.0527926 3.96381 0 0 0 0 0 128 255
2.09809 -0.0153497 3.96509 0 0 0 0 0 128 255
2.15099 -0.203093 3.96722 0 0 0 0 0 128 255
2.12788 -0.143237 3.96935 0 0 0 0 0 128 255
2.10447 -0.0792924 3.97105 0 0 0 0 0 128 255
2.09743 -0.0563489 3.97105 0 0 0 0 0 128 255
2.12473 -0.148388 3.97148 0 0 0 0 0 128 255
2.11712 -0.126666 3.97191 0 0 0 0 0 128 255
2.1365 -0.192894 3.97233 0 0 0 0 0 128 255
2.14151 -0.212279 3.97276 0 0 0 0 0 128 255
2.10807 -0.106431 3.97319 0 0 0 0 0 128 255
2.12745 -0.172659 3.97361 0 0 0 0 0 128 255
2.12189 -0.157629 3.97404 0 0 0 0 0 128 255
2.09437 -0.0803002 3.97574 0 0 0 0 0 128 255
2.10847 -0.129321 3.97617 0 0 0 0 0 128 255
2.12759 -0.200859 3.97745 0 0 0 0 0 128 255
2.11359 -0.170639 3.97958 0 0 0 0 0 128 255
2.12917 -0.227573 3.98043 0 0 0 0 0 128 255
2.11691 -0.199955 3.98214 0 0 0 0 0 128 255
2.11019 -0.184234 3.98299 0 0 0 0 0 128 255
2.09933 -0.148863 3.98299 0 0 0 0 0 128 255
