ply
format ascii 1.0
comment VCGLIB generated
element vertex 122
property float x
property float y
property float z
property float nx
property float ny
property float nz
property uchar red
property uchar green
property uchar blue
property uchar alpha
element face 0
property list uchar int vertex_indices
end_header
-1.79313 -0.500856 -8.25013 0 0 0 255 255 255 255
-3.13003 0.355085 4.50343 0 0 0 255 255 255 255
-3.06732 0.355817 4.49279 0 0 0 255 255 255 255
-3.11678 0.516335 4.4903 0 0 0 255 255 255 255
-2.94257 0.54886 4.53224 0 0 0 255 255 255 255
-3.02244 0.565215 4.51569 0 0 0 255 255 255 255
-3.05036 0.559201 4.3669 0 0 0 255 255 255 255
-3.07986 0.577438 4.50927 0 0 0 255 255 255 255
-3.04404 0.565637 4.40803 0 0 0 255 255 255 255
-2.93765 0.558101 4.54052 0 0 0 255 255 255 255
-3.04943 0.515526 4.50448 0 0 0 255 255 255 255
-3.17174 0.521869 4.51833 0 0 0 255 255 255 255
-2.93066 0.548914 4.57799 0 0 0 255 255 255 255
-2.9373 0.532323 4.54971 0 0 0 255 255 255 255
-3.04195 0.513736 4.51107 0 0 0 255 255 255 255
-2.95785 0.543147 4.52706 0 0 0 255 255 255 255
-2.9517 0.515385 4.52717 0 0 0 255 255 255 255
-2.94456 0.485513 4.5175 0 0 0 255 255 255 255
-3.06384 0.504864 4.48888 0 0 0 255 255 255 255
-2.93163 0.528829 4.57266 0 0 0 255 255 255 255
-2.95723 1.33857 6.01224 0 0 0 255 255 255 255
-3.04551 1.18822 6.04543 0 0 0 255 255 255 255
-2.94562 1.34096 5.92177 0 0 0 255 255 255 255
-3.0017 1.25541 6.03285 0 0 0 255 255 255 255
-3.17726 0.145177 6.40498 0 0 0 255 255 255 255
-3.17196 0.146033 6.42214 0 0 0 255 255 255 255
-3.19475 0.155623 6.52642 0 0 0 255 255 255 255
-3.52457 0.146639 6.21467 0 0 0 255 255 255 255
-3.58852 0.237756 6.33499 0 0 0 255 255 255 255
-3.07321 0.16236 6.4312 0 0 0 255 255 255 255
-3.51627 0.143227 6.21288 0 0 0 255 255 255 255
-3.04343 0.149502 6.19931 0 0 0 255 255 255 255
-3.59007 0.241433 6.34024 0 0 0 255 255 255 255
-3.25698 0.092628 6.10355 0 0 0 255 255 255 255
-0.818381 0.87584 3.99262 0 0 0 255 255 255 255
-0.671318 1.36942 3.83394 0 0 0 255 255 255 255
-0.573214 1.26982 3.99498 0 0 0 255 255 255 255
-0.572618 1.27756 3.99856 0 0 0 255 255 255 255
-0.688692 1.36337 3.83216 0 0 0 255 255 255 255
-2.83102 0.424123 4.49494 0 0 0 255 255 255 255
-2.82735 0.441001 4.5 0 0 0 255 255 255 255
-2.82796 0.398487 4.52276 0 0 0 255 255 255 255
-2.75157 0.0122815 5.11657 0 0 0 255 255 255 255
-2.21182 0.145973 5.2157 0 0 0 255 255 255 255
-2.75848 0.00727444 5.12585 0 0 0 255 255 255 255
-2.80639 0.198618 5.30386 0 0 0 255 255 255 255
-2.84891 0.107029 5.28984 0 0 0 255 255 255 255
-2.87153 1.43429 4.88767 0 0 0 255 255 255 255
-2.76688 1.36595 5.59905 0 0 0 255 255 255 255
-2.8049 1.37991 5.6288 0 0 0 255 255 255 255
-2.90508 1.38669 5.96597 0 0 0 255 255 255 255
-2.9175 1.45966 5.58586 0 0 0 255 255 255 255
-2.80409 1.36536 5.70554 0 0 0 255 255 255 255
-2.90817 1.3342 5.98229 0 0 0 255 255 255 255
-2.8489 1.4288 5.91075 0 0 0 255 255 255 255
-1.31901 -0.0721732 4.38723 0 0 0 255 255 255 255
-0.881209 1.18732 4.14894 0 0 0 255 255 255 255
-0.906378 1.36907 4.2021 0 0 0 255 255 255 255
-1.31827 1.00572 4.42875 0 0 0 255 255 255 255
-1.68523 1.0944 4.71784 0 0 0 255 255 255 255
-2.81992 1.58434 4.97615 0 0 0 255 255 255 255
-2.79934 1.57314 4.96999 0 0 0 255 255 255 255
-0.583773 -0.133172 4.29087 0 0 0 255 255 255 255
-0.761882 1.18095 4.01336 0 0 0 255 255 255 255
-0.845129 1.36198 4.16715 0 0 0 255 255 255 255
-0.757818 1.16725 4.01355 0 0 0 255 255 255 255
-0.815624 1.22754 4.23627 0 0 0 255 255 255 255
0.825204 -0.216734 4.80152 0 0 0 255 255 255 255
0.806859 -0.223172 4.7702 0 0 0 255 255 255 255
0.916058 -0.246956 4.90144 0 0 0 255 255 255 255
0.822693 -0.195163 4.78894 0 0 0 255 255 255 255
0.539117 1.35228 5.81752 0 0 0 255 255 255 255
0.591818 1.37845 6.09418 0 0 0 255 255 255 255
4.21525 -2.57809 7.95942 0 0 0 255 255 255 255
4.22009 -2.59892 7.97944 0 0 0 255 255 255 255
4.21365 -2.59725 7.95765 0 0 0 255 255 255 255
4.31818 -2.79779 8.09582 0 0 0 255 255 255 255
4.30911 -2.77424 8.08714 0 0 0 255 255 255 255
4.2342 -2.64038 7.97375 0 0 0 255 255 255 255
2.29061 -0.215085 3.88698 0 0 0 255 255 255 255
2.34079 1.08713 3.70701 0 0 0 255 255 255 255
2.38769 1.18283 3.75321 0 0 0 255 255 255 255
2.39535 1.62889 3.98083 0 0 0 255 255 255 255
2.39289 1.62949 3.9852 0 0 0 255 255 255 255
2.38519 1.63083 3.98878 0 0 0 255 255 255 255
2.18116 -0.179767 4.15299 0 0 0 255 255 255 255
2.171 -0.185972 4.07753 0 0 0 255 255 255 255
2.14817 -0.0877558 4.0455 0 0 0 255 255 255 255
1.30502 1.28269 5.78469 0 0 0 255 255 255 255
1.66572 1.18719 5.7839 0 0 0 255 255 255 255
1.62416 1.19657 5.46153 0 0 0 255 255 255 255
1.31121 1.29001 5.84213 0 0 0 255 255 255 255
2.34999 0.239252 4.75785 0 0 0 255 255 255 255
2.31234 0.25699 4.65086 0 0 0 255 255 255 255
2.74333 0.547812 6.03376 0 0 0 255 255 255 255
2.9688 0.572902 6.34057 0 0 0 255 255 255 255
2.8778 0.545696 6.21473 0 0 0 255 255 255 255
2.43232 1.71535 4.02964 0 0 0 255 255 255 255
2.72818 1.71072 4.12142 0 0 0 255 255 255 255
4.30037 0.892826 5.86752 0 0 0 255 255 255 255
4.0493 0.688728 7.85661 0 0 0 255 255 255 255
3.69035 0.641548 7.35895 0 0 0 255 255 255 255
3.8204 0.792153 7.52703 0 0 0 255 255 255 255
3.72958 0.711492 7.473 0 0 0 255 255 255 255
3.68662 0.659287 7.35471 0 0 0 255 255 255 255
4.02179 0.6588 7.82023 0 0 0 255 255 255 255
3.61197 1.25692 7.10184 0 0 0 255 255 255 255
3.85083 0.719499 7.54304 0 0 0 255 255 255 255
3.58103 0.740633 7.19935 0 0 0 255 255 255 255
3.58149 0.772144 7.19945 0 0 0 255 255 255 255
3.68303 0.6553 7.36245 0 0 0 255 255 255 255
3.82669 0.783081 7.53842 0 0 0 255 255 255 255
3.89591 0.798523 7.65057 0 0 0 255 255 255 255
3.84237 1.29207 7.37299 0 0 0 255 255 255 255
3.96374 1.24184 7.55872 0 0 0 255 255 255 255
3.57937 0.77088 7.19774 0 0 0 255 255 255 255
3.6017 1.27009 7.10588 0 0 0 255 255 255 255
5.92241 1.08849 7.87832 0 0 0 255 255 255 255
5.84216 0.909459 7.85973 0 0 0 255 255 255 255
5.59573 0.751697 7.62275 0 0 0 255 255 255 255
5.91097 0.906233 7.8056 0 0 0 255 255 255 255
5.88232 0.919297 7.84876 0 0 0 255 255 255 255
