ply
format ascii 1.0
comment VCGLIB generated
element vertex 385
property float x
property float y
property float z
property float nx
property float ny
property float nz
property uchar red
property uchar green
property uchar blue
property uchar alpha
element face 0
property list uchar int vertex_indices
end_header
-0.910227 1.02215 4.0748 0 0 0 128 128 128 255
-0.893411 1.41475 4.0809 0 0 0 128 128 128 255
-0.893445 1.36172 4.07969 0 0 0 128 128 128 255
-0.877901 1.43321 4.07878 0 0 0 128 128 128 255
-0.909902 0.58693 4.06487 0 0 0 128 128 128 255
-0.872907 1.38201 4.07693 0 0 0 128 128 128 255
-0.901538 0.362522 4.05886 0 0 0 128 128 128 255
-0.892159 0.584298 4.06238 0 0 0 128 128 128 255
-0.897892 0.406414 4.05933 0 0 0 128 128 128 255
-0.899819 0.355457 4.0585 0 0 0 128 128 128 255
-0.883034 0.773067 4.06524 0 0 0 128 128 128 255
-0.881427 0.763004 4.06484 0 0 0 128 128 128 255
-0.873923 0.724715 4.06323 0 0 0 128 128 128 255
-0.873961 0.723716 4.06321 0 0 0 128 128 128 255
-0.845766 1.36403 4.07334 0 0 0 128 128 128 255
-0.845841 1.36203 4.07331 0 0 0 128 128 128 255
-0.870248 0.716578 4.0627 0 0 0 128 128 128 255
-0.868674 0.705515 4.06233 0 0 0 128 128 128 255
-0.857137 0.905201 4.06525 0 0 0 128 128 128 255
-0.865751 0.677394 4.06151 0 0 0 128 128 128 255
-0.862688 0.679284 4.06128 0 0 0 128 128 128 255
-0.874551 0.36555 4.05613 0 0 0 128 128 128 255
-0.851477 0.923004 4.06513 0 0 0 128 128 128 255
-0.856399 0.740086 4.06197 0 0 0 128 128 128 255
-0.845617 0.99883 4.06614 0 0 0 128 128 128 255
-0.849093 0.906908 4.06463 0 0 0 128 128 128 255
-0.862127 0.562201 4.05897 0 0 0 128 128 128 255
-0.867751 0.334285 4.05501 0 0 0 128 128 128 255
-0.830568 1.23841 4.06966 0 0 0 128 128 128 255
-0.830251 1.22039 4.0693 0 0 0 128 128 128 255
-0.830516 1.21339 4.06919 0 0 0 128 128 128 255
-0.817767 1.39202 4.07177 0 0 0 128 128 128 255
-0.859667 0.283961 4.05356 0 0 0 128 128 128 255
-0.843833 0.570533 4.05802 0 0 0 128 128 128 255
-0.852507 0.314713 4.05377 0 0 0 128 128 128 255
-0.853263 0.29473 4.05344 0 0 0 128 128 128 255
-0.847504 0.420586 4.05546 0 0 0 128 128 128 255
-0.84745 0.39557 4.05501 0 0 0 128 128 128 255
-0.851175 0.270639 4.05292 0 0 0 128 128 128 255
-0.850441 0.263608 4.05276 0 0 0 128 128 128 255
-0.819676 0.997873 4.06472 0 0 0 128 128 128 255
-0.8199 0.806774 4.06138 0 0 0 128 128 128 255
-0.825982 0.64591 4.05873 0 0 0 128 128 128 255
-0.797747 1.31323 4.06964 0 0 0 128 128 128 255
-0.824085 0.563793 4.05729 0 0 0 128 128 128 255
-0.821763 0.598726 4.05785 0 0 0 128 128 128 255
-0.834118 0.272003 4.05248 0 0 0 128 128 128 255
-0.829705 0.282843 4.05261 0 0 0 128 128 128 255
-0.790056 1.30494 4.0694 0 0 0 128 128 128 255
-0.792289 1.19296 4.06756 0 0 0 128 128 128 255
-0.79916 0.826004 4.06154 0 0 0 128 128 128 255
-0.784446 1.18866 4.06751 0 0 0 128 128 128 255
-0.784672 1.18266 4.06741 0 0 0 128 128 128 255
-0.796972 0.830924 4.06164 0 0 0 128 128 128 255
-0.816186 0.29634 4.05287 0 0 0 128 128 128 255
-0.794734 0.757796 4.06051 0 0 0 128 128 128 255
-0.76917 1.27513 4.06916 0 0 0 128 128 128 255
-0.780391 0.978379 4.06428 0 0 0 128 128 128 255
-0.785782 0.756453 4.06072 0 0 0 128 128 128 255
-0.791243 0.58556 4.05795 0 0 0 128 128 128 255
-0.802956 0.275823 4.05286 0 0 0 128 128 128 255
-0.799809 0.279704 4.05303 0 0 0 128 128 128 255
-0.8003 0.266715 4.05282 0 0 0 128 128 128 255
-0.771797 0.676866 4.0602 0 0 0 128 128 128 255
-0.783441 0.316095 4.05439 0 0 0 128 128 128 255
-0.757947 0.937489 4.06473 0 0 0 128 128 128 255
-0.780397 0.290961 4.05424 0 0 0 128 128 128 255
-0.772601 0.259637 4.0544 0 0 0 128 128 128 255
-0.734679 1.20975 4.07019 0 0 0 128 128 128 255
-0.767132 0.27243 4.05505 0 0 0 128 128 128 255
-0.739689 0.971797 4.06663 0 0 0 128 128 128 255
-0.738619 0.973756 4.06675 0 0 0 128 128 128 255
-0.76086 0.359239 4.05675 0 0 0 128 128 128 255
-0.723179 1.32938 4.07279 0 0 0 128 128 128 255
-0.737009 0.884636 4.06578 0 0 0 128 128 128 255
-0.741833 0.730727 4.06335 0 0 0 128 128 128 255
-0.741167 0.695679 4.06298 0 0 0 128 128 128 255
-0.72185 1.18023 4.07105 0 0 0 128 128 128 255
-0.731257 0.931439 4.06696 0 0 0 128 128 128 255
-0.721007 1.17619 4.07109 0 0 0 128 128 128 255
-0.737696 0.70855 4.06352 0 0 0 128 128 128 255
-0.740983 0.621623 4.06209 0 0 0 128 128 128 255
-0.739375 0.611553 4.06215 0 0 0 128 128 128 255
-0.739488 0.608556 4.0621 0 0 0 128 128 128 255
-0.73604 0.673461 4.06328 0 0 0 128 128 128 255
-0.733498 0.714387 4.06406 0 0 0 128 128 128 255
-0.728727 0.814263 4.06582 0 0 0 128 128 128 255
-0.735792 0.627421 4.06275 0 0 0 128 128 128 255
-0.724816 0.86514 4.0669 0 0 0 128 128 128 255
-0.707352 1.30073 4.07418 0 0 0 128 128 128 255
-0.740968 0.385469 4.05926 0 0 0 128 128 128 255
-0.730115 0.646208 4.06367 0 0 0 128 128 128 255
-0.717403 0.929887 4.06859 0 0 0 128 128 128 255
-0.732847 0.495217 4.06157 0 0 0 128 128 128 255
-0.737659 0.289273 4.05859 0 0 0 128 128 128 255
-0.730208 0.460088 4.06153 0 0 0 128 128 128 255
-0.73042 0.402058 4.06085 0 0 0 128 128 128 255
-0.710616 0.899596 4.06917 0 0 0 128 128 128 255
-0.729733 0.394025 4.06086 0 0 0 128 128 128 255
-0.707208 0.963502 4.07036 0 0 0 128 128 128 255
-0.730739 0.315013 4.05985 0 0 0 128 128 128 255
-0.731602 0.266015 4.05919 0 0 0 128 128 128 255
-0.703783 0.949355 4.07071 0 0 0 128 128 128 255
-0.71861 0.452617 4.06316 0 0 0 128 128 128 255
-0.725864 0.26078 4.06 0 0 0 128 128 128 255
-0.683218 1.2057 4.07665 0 0 0 128 128 128 255
-0.716651 0.295431 4.06186 0 0 0 128 128 128 255
-0.688917 1.00279 4.07365 0 0 0 128 128 128 255
-0.697637 0.693932 4.06909 0 0 0 128 128 128 255
-0.68354 0.962543 4.07421 0 0 0 128 128 128 255
-0.691247 0.758717 4.07086 0 0 0 128 128 128 255
-0.689017 0.76563 4.07134 0 0 0 128 128 128 255
-0.693853 0.637739 4.06924 0 0 0 128 128 128 255
-0.707228 0.28404 4.06342 0 0 0 128 128 128 255
-0.669411 1.1541 4.07865 0 0 0 128 128 128 255
-0.699039 0.266692 4.06484 0 0 0 128 128 128 255
-0.671915 0.958064 4.0764 0 0 0 128 128 128 255
-0.678829 0.77522 4.0734 0 0 0 128 128 128 255
-0.677547 0.783173 4.07373 0 0 0 128 128 128 255
-0.689062 0.297303 4.06717 0 0 0 128 128 128 255
-0.660637 0.94559 4.07868 0 0 0 128 128 128 255
-0.651085 1.17236 4.08262 0 0 0 128 128 128 255
-0.666809 0.730692 4.07558 0 0 0 128 128 128 255
-0.675733 0.468874 4.0715 0 0 0 128 128 128 255
-0.676413 0.450889 4.0712 0 0 0 128 128 128 255
-0.632666 1.29868 4.08789 0 0 0 128 128 128 255
-0.637615 1.16779 4.08574 0 0 0 128 128 128 255
-0.635864 1.16272 4.08614 0 0 0 128 128 128 255
-0.62924 1.28653 4.08866 0 0 0 128 128 128 255
-0.658685 0.482172 4.07569 0 0 0 128 128 128 255
-0.662123 0.39125 4.07419 0 0 0 128 128 128 255
-0.632517 1.14857 4.08689 0 0 0 128 128 128 255
-0.647795 0.71889 4.08007 0 0 0 128 128 128 255
-0.663021 0.316232 4.07345 0 0 0 128 128 128 255
-0.628844 1.19445 4.08814 0 0 0 128 128 128 255
-0.627061 1.19037 4.08858 0 0 0 128 128 128 255
-0.644343 0.707736 4.0809 0 0 0 128 128 128 255
-0.660778 0.273106 4.07375 0 0 0 128 128 128 255
-0.659224 0.263033 4.0741 0 0 0 128 128 128 255
-0.646584 0.57173 4.07944 0 0 0 128 128 128 255
-0.638345 0.687468 4.08239 0 0 0 128 128 128 255
-0.642576 0.575563 4.08055 0 0 0 128 128 128 255
-0.642614 0.574564 4.08053 0 0 0 128 128 128 255
-0.649925 0.355709 4.0772 0 0 0 128 128 128 255
-0.637288 0.664406 4.08254 0 0 0 128 128 128 255
-0.651192 0.296718 4.0765 0 0 0 128 128 128 255
-0.628241 0.878184 4.08633 0 0 0 128 128 128 255
-0.646905 0.384603 4.07822 0 0 0 128 128 128 255
-0.628848 0.811159 4.08577 0 0 0 128 128 128 255
-0.615042 1.15083 4.09163 0 0 0 128 128 128 255
-0.617951 1.07389 4.09036 0 0 0 128 128 128 255
-0.624789 0.893048 4.08739 0 0 0 128 128 128 255
-0.644927 0.360501 4.07864 0 0 0 128 128 128 255
-0.621675 0.949959 4.0886 0 0 0 128 128 128 255
-0.636969 0.469245 4.08153 0 0 0 128 128 128 255
-0.623051 0.811913 4.08745 0 0 0 128 128 128 255
-0.619599 0.877816 4.08881 0 0 0 128 128 128 255
-0.61257 0.9876 4.09148 0 0 0 128 128 128 255
-0.627645 0.588939 4.08492 0 0 0 128 128 128 255
-0.612395 0.941557 4.0913 0 0 0 128 128 128 255
-0.610814 0.907463 4.09162 0 0 0 128 128 128 255
-0.612211 0.870495 4.09101 0 0 0 128 128 128 255
-0.613675 0.806508 4.09026 0 0 0 128 128 128 255
-0.632301 0.313926 4.08216 0 0 0 128 128 128 255
-0.633926 0.270963 4.08145 0 0 0 128 128 128 255
-0.634266 0.261971 4.08131 0 0 0 128 128 128 255
-0.617313 0.634531 4.08833 0 0 0 128 128 128 255
-0.619318 0.455478 4.08691 0 0 0 128 128 128 255
-0.621396 0.400525 4.08601 0 0 0 128 128 128 255
-0.591425 1.14281 4.09883 0 0 0 128 128 128 255
-0.619147 0.359396 4.08658 0 0 0 128 128 128 255
-0.620312 0.278382 4.08588 0 0 0 128 128 128 255
-0.585699 1.14356 4.10074 0 0 0 128 128 128 255
-0.617775 0.295286 4.0868 0 0 0 128 128 128 255
-0.612181 0.39312 4.08905 0 0 0 128 128 128 255
-0.590531 0.940614 4.09837 0 0 0 128 128 128 255
-0.607873 0.456984 4.09075 0 0 0 128 128 128 255
-0.604894 0.410818 4.09164 0 0 0 128 128 128 255
-0.603159 0.431759 4.09232 0 0 0 128 128 128 255
-0.57783 0.97709 4.10298 0 0 0 128 128 128 255
-0.598459 0.431553 4.09401 0 0 0 128 128 128 255
-0.596416 0.361407 4.09459 0 0 0 128 128 128 255
-0.559626 1.30956 4.11053 0 0 0 128 128 128 255
-0.573804 0.909859 4.10431 0 0 0 128 128 128 255
-0.58205 0.667024 4.10067 0 0 0 128 128 128 255
-0.582071 0.616984 4.10056 0 0 0 128 128 128 255
-0.5877 0.46811 4.09811 0 0 0 128 128 128 255
-0.568304 0.931634 4.10645 0 0 0 128 128 128 255
-0.567372 0.931593 4.10681 0 0 0 128 128 128 255
-0.576377 0.668775 4.10285 0 0 0 128 128 128 255
-0.586163 0.409995 4.0986 0 0 0 128 128 128 255
-0.588495 0.299007 4.0975 0 0 0 128 128 128 255
-0.572539 0.622567 4.1043 0 0 0 128 128 128 255
-0.561769 0.760203 4.10882 0 0 0 128 128 128 255
-0.551768 0.926896 4.11309 0 0 0 128 128 128 255
-0.558493 0.749047 4.11017 0 0 0 128 128 128 255
-0.569057 0.445264 4.10556 0 0 0 128 128 128 255
-0.575706 0.269414 4.10267 0 0 0 128 128 128 255
-0.575857 0.265417 4.1026 0 0 0 128 128 128 255
-0.570441 0.384275 4.10495 0 0 0 128 128 128 255
-0.533313 1.3174 4.12106 0 0 0 128 128 128 255
-0.569484 0.312171 4.10533 0 0 0 128 128 128 255
-0.536177 1.14438 4.1198 0 0 0 128 128 128 255
-0.559053 0.490854 4.10986 0 0 0 128 128 128 255
-0.561584 0.423911 4.10876 0 0 0 128 128 128 255
-0.56124 0.28778 4.10895 0 0 0 128 128 128 255
-0.553754 0.461591 4.11221 0 0 0 128 128 128 255
-0.560819 0.274749 4.10914 0 0 0 128 128 128 255
-0.554835 0.312511 4.11183 0 0 0 128 128 128 255
-0.511423 1.43652 4.13072 0 0 0 128 128 128 255
-0.547315 0.43928 4.11517 0 0 0 128 128 128 255
-0.547844 0.425292 4.11494 0 0 0 128 128 128 255
-0.543893 0.386078 4.11686 0 0 0 128 128 128 255
-0.541599 0.398984 4.11793 0 0 0 128 128 128 255
-0.519405 0.914423 4.12771 0 0 0 128 128 128 255
-0.538937 0.397862 4.11922 0 0 0 128 128 128 255
-0.524853 0.746524 4.12538 0 0 0 128 128 128 255
-0.526761 0.648525 4.12465 0 0 0 128 128 128 255
-0.514957 0.913218 4.12989 0 0 0 128 128 128 255
-0.523469 0.664388 4.12625 0 0 0 128 128 128 255
-0.530339 0.364437 4.12356 0 0 0 128 128 128 255
-0.525103 0.479298 4.1259 0 0 0 128 128 128 255
-0.503018 1.03978 4.13557 0 0 0 128 128 128 255
-0.523021 0.487209 4.12694 0 0 0 128 128 128 255
-0.506642 0.89682 4.13413 0 0 0 128 128 128 255
-0.498614 1.08562 4.13769 0 0 0 128 128 128 255
-0.500049 1.04765 4.13707 0 0 0 128 128 128 255
-0.523889 0.417187 4.12671 0 0 0 128 128 128 255
-0.524916 0.296125 4.12657 0 0 0 128 128 128 255
-0.526314 0.259156 4.12596 0 0 0 128 128 128 255
-0.510468 0.654779 4.13293 0 0 0 128 128 128 255
-0.512281 0.60682 4.13214 0 0 0 128 128 128 255
-0.509633 0.606697 4.13354 0 0 0 128 128 128 255
-0.516836 0.392837 4.1305 0 0 0 128 128 128 255
-0.514142 0.440756 4.13176 0 0 0 128 128 128 255
-0.492597 0.894165 4.14159 0 0 0 128 128 128 255
-0.485091 0.999911 4.14526 0 0 0 128 128 128 255
-0.4818 1.06382 4.1468 0 0 0 128 128 128 255
-0.468724 1.3865 4.15259 0 0 0 128 128 128 255
-0.50688 0.354336 4.13611 0 0 0 128 128 128 255
-0.504989 0.381272 4.13704 0 0 0 128 128 128 255
-0.508916 0.254339 4.13545 0 0 0 128 128 128 255
-0.479787 1.00166 4.14822 0 0 0 128 128 128 255
-0.506725 0.289268 4.13652 0 0 0 128 128 128 255
-0.463239 1.41627 4.15553 0 0 0 128 128 128 255
-0.475526 0.99946 4.15067 0 0 0 128 128 128 255
-0.49861 0.388979 4.14064 0 0 0 128 128 128 255
-0.500881 0.306008 4.13978 0 0 0 128 128 128 255
-0.495231 0.386817 4.14262 0 0 0 128 128 128 255
-0.497031 0.270793 4.14223 0 0 0 128 128 128 255
-0.490428 0.422623 4.14524 0 0 0 128 128 128 255
-0.491071 0.405637 4.14496 0 0 0 128 128 128 255
-0.488134 0.46055 4.14637 0 0 0 128 128 128 255
-0.465312 0.995972 4.15671 0 0 0 128 128 128 255
-0.493422 0.252604 4.1445 0 0 0 128 128 128 255
-0.452518 1.31166 4.16242 0 0 0 128 128 128 255
-0.481164 0.486242 4.15041 0 0 0 128 128 128 255
-0.481823 0.446235 4.15028 0 0 0 128 128 128 255
-0.483334 0.406269 4.14962 0 0 0 128 128 128 255
-0.487961 0.261351 4.14776 0 0 0 128 128 128 255
-0.465917 0.776791 4.15781 0 0 0 128 128 128 255
-0.461032 0.838616 4.16042 0 0 0 128 128 128 255
-0.456193 0.899442 4.16302 0 0 0 128 128 128 255
-0.456964 0.834416 4.16303 0 0 0 128 128 128 255
-0.465993 0.595619 4.1591 0 0 0 128 128 128 255
-0.453603 0.834253 4.16519 0 0 0 128 128 128 255
-0.455869 0.774304 4.16421 0 0 0 128 128 128 255
-0.462897 0.588462 4.16115 0 0 0 128 128 128 255
-0.468179 0.426559 4.15904 0 0 0 128 128 128 255
-0.465939 0.441465 4.16037 0 0 0 128 128 128 255
-0.459395 0.570274 4.16359 0 0 0 128 128 128 255
-0.455727 0.64517 4.16537 0 0 0 128 128 128 255
-0.46623 0.257297 4.16177 0 0 0 128 128 128 255
-0.422557 1.39029 4.18095 0 0 0 128 128 128 255
-0.436517 0.93352 4.17569 0 0 0 128 128 128 255
-0.454017 0.448891 4.16829 0 0 0 128 128 128 255
-0.444239 0.685649 4.17275 0 0 0 128 128 128 255
-0.448924 0.561755 4.17071 0 0 0 128 128 128 255
-0.454486 0.392858 4.16851 0 0 0 128 128 128 255
-0.440803 0.689484 4.17509 0 0 0 128 128 128 255
-0.441559 0.669501 4.17476 0 0 0 128 128 128 255
-0.451004 0.419713 4.17066 0 0 0 128 128 128 255
-0.448512 0.420591 4.1724 0 0 0 128 128 128 255
-0.444726 0.34833 4.17586 0 0 0 128 128 128 255
-0.437177 0.505117 4.17961 0 0 0 128 128 128 255
-0.434132 0.478938 4.18214 0 0 0 128 128 128 255
-0.431545 0.504835 4.18376 0 0 0 128 128 128 255
-0.433623 0.449882 4.18286 0 0 0 128 128 128 255
-0.416678 0.834435 4.19097 0 0 0 128 128 128 255
-0.421698 0.680526 4.18905 0 0 0 128 128 128 255
-0.412246 0.888269 4.19367 0 0 0 128 128 128 255
-0.408429 0.905095 4.19637 0 0 0 128 128 128 255
-0.408544 0.881075 4.19659 0 0 0 128 128 128 255
-0.417501 0.623254 4.19296 0 0 0 128 128 128 255
-0.412707 0.729124 4.19532 0 0 0 128 128 128 255
-0.425817 0.382419 4.18962 0 0 0 128 128 128 255
-0.413668 0.641079 4.19572 0 0 0 128 128 128 255
-0.38432 1.3964 4.20875 0 0 0 128 128 128 255
-0.410332 0.666938 4.198 0 0 0 128 128 128 255
-0.40732 0.725848 4.19959 0 0 0 128 128 128 255
-0.39208 1.08746 4.20678 0 0 0 128 128 128 255
-0.407962 0.646796 4.20016 0 0 0 128 128 128 255
-0.404425 0.719694 4.20199 0 0 0 128 128 128 255
-0.411595 0.447766 4.20004 0 0 0 128 128 128 255
-0.385772 1.11016 4.21155 0 0 0 128 128 128 255
-0.412143 0.412756 4.20009 0 0 0 128 128 128 255
-0.393651 0.881318 4.20843 0 0 0 128 128 128 255
-0.372145 1.38877 4.21867 0 0 0 128 128 128 255
-0.372371 1.38277 4.21858 0 0 0 128 128 128 255
-0.381401 1.14398 4.21465 0 0 0 128 128 128 255
-0.40575 0.398412 4.2056 0 0 0 128 128 128 255
-0.405825 0.396414 4.20557 0 0 0 128 128 128 255
-0.401911 0.439259 4.20821 0 0 0 128 128 128 255
-0.404513 0.350295 4.2074 0 0 0 128 128 128 255
-0.397666 0.491096 4.21101 0 0 0 128 128 128 255
-0.372048 1.1485 4.22247 0 0 0 128 128 128 255
-0.368608 1.2194 4.22428 0 0 0 128 128 128 255
-0.38425 0.80575 4.21749 0 0 0 128 128 128 255
-0.381907 0.827653 4.21915 0 0 0 128 128 128 255
-0.36967 1.11133 4.22513 0 0 0 128 128 128 255
-0.376636 0.867423 4.2231 0 0 0 128 128 128 255
-0.369162 0.907076 4.22908 0 0 0 128 128 128 255
-0.359656 1.13884 4.23356 0 0 0 128 128 128 255
-0.363661 1.03293 4.23182 0 0 0 128 128 128 255
-0.390636 0.319536 4.2201 0 0 0 128 128 128 255
-0.358271 1.11674 4.23522 0 0 0 128 128 128 255
-0.371625 0.646907 4.23157 0 0 0 128 128 128 255
-0.356614 1.02455 4.23846 0 0 0 128 128 128 255
-0.356149 1.01751 4.23903 0 0 0 128 128 128 255
-0.36873 0.684797 4.23356 0 0 0 128 128 128 255
-0.379913 0.389048 4.2287 0 0 0 128 128 128 255
-0.35561 1.01248 4.23963 0 0 0 128 128 128 255
-0.361041 0.84958 4.23764 0 0 0 128 128 128 255
-0.366882 0.656666 4.23585 0 0 0 128 128 128 255
-0.366007 0.660624 4.2366 0 0 0 128 128 128 255
-0.342956 1.25108 4.24699 0 0 0 128 128 128 255
-0.375441 0.353769 4.23363 0 0 0 128 128 128 255
-0.344043 1.14602 4.24804 0 0 0 128 128 128 255
-0.338074 1.28486 4.25102 0 0 0 128 128 128 255
-0.366731 0.432393 4.24051 0 0 0 128 128 128 255
-0.368438 0.368409 4.24016 0 0 0 128 128 128 255
-0.365735 0.402303 4.24213 0 0 0 128 128 128 255
-0.368164 0.319336 4.24147 0 0 0 128 128 128 255
-0.330684 1.25443 4.25896 0 0 0 128 128 128 255
-0.332347 1.21046 4.25824 0 0 0 128 128 128 255
-0.360607 0.463098 4.24596 0 0 0 128 128 128 255
-0.331279 1.16435 4.26033 0 0 0 128 128 128 255
-0.354892 0.53988 4.25007 0 0 0 128 128 128 255
-0.332091 1.12435 4.26039 0 0 0 128 128 128 255
-0.348093 0.682683 4.25385 0 0 0 128 128 128 255
-0.345394 0.735599 4.25543 0 0 0 128 128 128 255
-0.323766 1.23402 4.2665 0 0 0 128 128 128 255
-0.338141 0.817302 4.2611 0 0 0 128 128 128 255
-0.339161 0.790325 4.26066 0 0 0 128 128 128 255
-0.339236 0.788326 4.26062 0 0 0 128 128 128 255
-0.320918 1.1818 4.27073 0 0 0 128 128 128 255
-0.346377 0.454307 4.26096 0 0 0 128 128 128 255
-0.349551 0.370378 4.25958 0 0 0 128 128 128 255
-0.316172 1.14549 4.27674 0 0 0 128 128 128 255
-0.34059 0.41093 4.26837 0 0 0 128 128 128 255
-0.317864 0.819172 4.28333 0 0 0 128 128 128 255
-0.317437 0.81314 4.28399 0 0 0 128 128 128 255
-0.329138 0.486381 4.27938 0 0 0 128 128 128 255
-0.325329 0.365003 4.28731 0 0 0 128 128 128 255
-0.304117 0.875459 4.29802 0 0 0 128 128 128 255
-0.322752 0.365856 4.29042 0 0 0 128 128 128 255
-0.321063 0.393795 4.29165 0 0 0 128 128 128 255
-0.313179 0.585596 4.29558 0 0 0 128 128 128 255
-0.314511 0.401424 4.29958 0 0 0 128 128 128 255
-0.311916 0.437321 4.30175 0 0 0 128 128 128 255
-0.310006 0.455233 4.30362 0 0 0 128 128 128 255
-0.294379 0.819815 4.31198 0 0 0 128 128 128 255
-0.29577 0.654667 4.31563 0 0 0 128 128 128 255
-0.301124 0.449698 4.31547 0 0 0 128 128 128 255
-0.290906 0.688424 4.321 0 0 0 128 128 128 255
-0.287177 0.771318 4.32317 0 0 0 128 128 128 255
-0.286162 0.720184 4.32637 0 0 0 128 128 128 255
-0.286602 0.662127 4.32785 0 0 0 128 128 128 255
-0.279963 0.806933 4.33186 0 0 0 128 128 128 255
-0.284988 0.674046 4.32967 0 0 0 128 128 128 255
-0.278836 0.790841 4.33404 0 0 0 128 128 128 255
-0.276127 0.786669 4.33807 0 0 0 128 128 128 255
-0.274693 0.764548 4.34101 0 0 0 128 128 128 255
-0.278101 0.64458 4.34069 0 0 0 128 128 128 255
-0.270711 0.635103 4.3522 0 0 0 128 128 128 255
