ply
format ascii 1.0
comment VCGLIB generated
element vertex 287
property float x
property float y
property float z
property float nx
property float ny
property float nz
property uchar red
property uchar green
property uchar blue
property uchar alpha
element face 0
property list uchar int vertex_indices
end_header
0.361063 0.315025 4.7458 0 0 0 128 0 0 255
0.380971 0.591664 4.76498 0 0 0 128 0 0 255
0.384939 0.6057 4.76211 0 0 0 128 0 0 255
0.384288 0.595752 4.76134 0 0 0 128 0 0 255
0.394481 0.365603 4.71368 0 0 0 128 0 0 255
0.410632 0.41057 4.70353 0 0 0 128 0 0 255
0.41247 0.340001 4.69175 0 0 0 128 0 0 255
0.435629 0.604677 4.70693 0 0 0 128 0 0 255
0.425934 0.422631 4.69071 0 0 0 128 0 0 255
0.444731 0.618642 4.70067 0 0 0 128 0 0 255
0.45532 0.569896 4.68529 0 0 0 128 0 0 255
0.447636 0.428621 4.67302 0 0 0 128 0 0 255
0.446553 0.340061 4.6624 0 0 0 128 0 0 255
0.458134 0.407669 4.66221 0 0 0 128 0 0 255
0.458046 0.381791 4.659 0 0 0 128 0 0 255
0.460022 0.399692 4.6598 0 0 0 128 0 0 255
0.46712 0.421528 4.6574 0 0 0 128 0 0 255
0.462693 0.353878 4.65212 0 0 0 128 0 0 255
0.458669 0.24242 4.64112 0 0 0 128 0 0 255
0.48708 0.626399 4.66879 0 0 0 128 0 0 255
0.467343 0.274178 4.63907 0 0 0 128 0 0 255
0.466172 0.256271 4.63768 0 0 0 128 0 0 255
0.467544 0.226381 4.63313 0 0 0 128 0 0 255
0.478318 0.352692 4.64133 0 0 0 128 0 0 255
0.497364 0.592403 4.65786 0 0 0 128 0 0 255
0.485577 0.38644 4.64073 0 0 0 128 0 0 255
0.497227 0.551573 4.65307 0 0 0 128 0 0 255
0.495795 0.529686 4.65136 0 0 0 128 0 0 255
0.475942 0.226254 4.6277 0 0 0 128 0 0 255
0.498984 0.565487 4.65362 0 0 0 128 0 0 255
0.495925 0.518729 4.64998 0 0 0 128 0 0 255
0.479005 0.234171 4.62673 0 0 0 128 0 0 255
0.479464 0.228188 4.62574 0 0 0 128 0 0 255
0.494622 0.368355 4.63304 0 0 0 128 0 0 255
0.492306 0.253845 4.62107 0 0 0 128 0 0 255
0.504908 0.419951 4.63303 0 0 0 128 0 0 255
0.504683 0.269517 4.61596 0 0 0 128 0 0 255
0.532367 0.611623 4.63982 0 0 0 128 0 0 255
0.513762 0.259332 4.61005 0 0 0 128 0 0 255
0.52381 0.385633 4.619 0 0 0 128 0 0 255
0.514762 0.247348 4.60822 0 0 0 128 0 0 255
0.546118 0.712918 4.64408 0 0 0 128 0 0 255
0.523102 0.265063 4.60606 0 0 0 128 0 0 255
0.535691 0.402252 4.61504 0 0 0 128 0 0 255
0.549933 0.592218 4.62901 0 0 0 128 0 0 255
0.535677 0.374344 4.61202 0 0 0 128 0 0 255
0.526109 0.2281 4.60062 0 0 0 128 0 0 255
0.552075 0.611094 4.63006 0 0 0 128 0 0 255
0.558059 0.688667 4.63569 0 0 0 128 0 0 255
0.556233 0.646856 4.63202 0 0 0 128 0 0 255
0.560524 0.670651 4.63264 0 0 0 128 0 0 255
0.535398 0.27268 4.60119 0 0 0 128 0 0 255
0.55121 0.35991 4.60363 0 0 0 128 0 0 255
0.573612 0.688183 4.62885 0 0 0 128 0 0 255
0.556217 0.365726 4.60219 0 0 0 128 0 0 255
0.554214 0.320926 4.59832 0 0 0 128 0 0 255
0.567401 0.394255 4.60076 0 0 0 128 0 0 255
0.574291 0.427911 4.60164 0 0 0 128 0 0 255
0.577421 0.374938 4.59516 0 0 0 128 0 0 255
0.576867 0.352021 4.59304 0 0 0 128 0 0 255
0.648423 1.25686 4.65953 0 0 0 128 0 0 255
0.581312 0.231158 4.57954 0 0 0 128 0 0 255
0.602323 0.405856 4.59027 0 0 0 128 0 0 255
0.592364 0.253642 4.5784 0 0 0 128 0 0 255
0.599637 0.350103 4.58564 0 0 0 128 0 0 255
0.593046 0.234658 4.57636 0 0 0 128 0 0 255
0.606965 0.37373 4.58586 0 0 0 128 0 0 255
0.603151 0.271132 4.57708 0 0 0 128 0 0 255
0.608856 0.328748 4.58106 0 0 0 128 0 0 255
0.616564 0.387271 4.58463 0 0 0 128 0 0 255
0.637581 0.425199 4.58333 0 0 0 128 0 0 255
0.634782 0.38242 4.57999 0 0 0 128 0 0 255
0.63713 0.373322 4.57868 0 0 0 128 0 0 255
0.640783 0.384119 4.57894 0 0 0 128 0 0 255
0.639546 0.365217 4.57747 0 0 0 128 0 0 255
0.635597 0.229669 4.56597 0 0 0 128 0 0 255
0.7013 1.17359 4.63889 0 0 0 128 0 0 255
0.649682 0.384666 4.57736 0 0 0 128 0 0 255
0.654838 0.433312 4.58082 0 0 0 128 0 0 255
0.654057 0.421374 4.57989 0 0 0 128 0 0 255
0.642926 0.251253 4.56662 0 0 0 128 0 0 255
0.657866 0.419178 4.57906 0 0 0 128 0 0 255
0.65132 0.273772 4.56726 0 0 0 128 0 0 255
0.721154 1.26538 4.64387 0 0 0 128 0 0 255
0.714136 1.14296 4.63418 0 0 0 128 0 0 255
0.667593 0.355757 4.57212 0 0 0 128 0 0 255
0.684284 0.580486 4.5894 0 0 0 128 0 0 255
0.669053 0.347689 4.57124 0 0 0 128 0 0 255
0.683712 0.556554 4.58741 0 0 0 128 0 0 255
0.683452 0.552575 4.5871 0 0 0 128 0 0 255
0.669342 0.321713 4.56898 0 0 0 128 0 0 255
0.67567 0.403236 4.57522 0 0 0 128 0 0 255
0.667384 0.230958 4.56144 0 0 0 128 0 0 255
0.690784 0.558154 4.58674 0 0 0 128 0 0 255
0.670475 0.247758 4.56254 0 0 0 128 0 0 255
0.683656 0.418761 4.57567 0 0 0 128 0 0 255
0.686813 0.436554 4.57686 0 0 0 128 0 0 255
0.689196 0.381491 4.57202 0 0 0 128 0 0 255
0.687113 0.349656 4.56954 0 0 0 128 0 0 255
0.746049 1.1741 4.63345 0 0 0 128 0 0 255
0.693995 0.363231 4.57014 0 0 0 128 0 0 255
0.699761 0.420814 4.5745 0 0 0 128 0 0 255
0.713919 0.560788 4.58511 0 0 0 128 0 0 255
0.739147 0.869884 4.60897 0 0 0 128 0 0 255
0.740945 0.866776 4.60865 0 0 0 128 0 0 255
0.737907 0.805033 4.6038 0 0 0 128 0 0 255
0.743633 0.84663 4.60694 0 0 0 128 0 0 255
0.704512 0.248721 4.56031 0 0 0 128 0 0 255
0.707245 0.244553 4.5599 0 0 0 128 0 0 255
0.747428 0.843394 4.60658 0 0 0 128 0 0 255
0.721584 0.356526 4.56853 0 0 0 128 0 0 255
0.724665 0.388297 4.571 0 0 0 128 0 0 255
0.754108 0.822986 4.60489 0 0 0 128 0 0 255
0.719023 0.286757 4.56307 0 0 0 128 0 0 255
0.719782 0.267725 4.56159 0 0 0 128 0 0 255
0.719391 0.215797 4.55755 0 0 0 128 0 0 255
0.749419 0.613477 4.58861 0 0 0 128 0 0 255
0.750872 0.620375 4.58917 0 0 0 128 0 0 255
0.765995 0.836193 4.60602 0 0 0 128 0 0 255
0.73041 0.231052 4.55892 0 0 0 128 0 0 255
0.798994 1.24866 4.63835 0 0 0 128 0 0 255
0.755749 0.557095 4.58449 0 0 0 128 0 0 255
0.755684 0.5561 4.58441 0 0 0 128 0 0 255
0.78341 0.933942 4.614 0 0 0 128 0 0 255
0.761124 0.562723 4.58514 0 0 0 128 0 0 255
0.749343 0.382654 4.5711 0 0 0 128 0 0 255
0.771514 0.690922 4.59525 0 0 0 128 0 0 255
0.752267 0.381452 4.57117 0 0 0 128 0 0 255
0.785022 0.820902 4.60568 0 0 0 128 0 0 255
0.771157 0.608997 4.58915 0 0 0 128 0 0 255
0.763032 0.423673 4.57498 0 0 0 128 0 0 255
0.759815 0.343943 4.56891 0 0 0 128 0 0 255
0.759703 0.326959 4.56767 0 0 0 128 0 0 255
0.790936 0.758514 4.60157 0 0 0 128 0 0 255
0.77958 0.554425 4.58584 0 0 0 128 0 0 255
0.76884 0.390274 4.57303 0 0 0 128 0 0 255
0.783112 0.593153 4.58895 0 0 0 128 0 0 255
0.764547 0.263639 4.56354 0 0 0 128 0 0 255
0.806025 0.821391 4.60757 0 0 0 128 0 0 255
0.80706 0.776328 4.60452 0 0 0 128 0 0 255
0.795293 0.581262 4.58942 0 0 0 128 0 0 255
0.781819 0.375327 4.57336 0 0 0 128 0 0 255
0.795711 0.557238 4.5878 0 0 0 128 0 0 255
0.779034 0.24157 4.5637 0 0 0 128 0 0 255
0.782715 0.252288 4.56496 0 0 0 128 0 0 255
0.782726 0.23729 4.56393 0 0 0 128 0 0 255
0.824266 0.857011 4.61241 0 0 0 128 0 0 255
0.823235 0.826095 4.61014 0 0 0 128 0 0 255
0.786879 0.224973 4.56372 0 0 0 128 0 0 255
0.822884 0.76013 4.60561 0 0 0 128 0 0 255
0.789752 0.253747 4.56612 0 0 0 128 0 0 255
0.801998 0.425781 4.57969 0 0 0 128 0 0 255
0.80064 0.38989 4.57705 0 0 0 128 0 0 255
0.816336 0.614651 4.59475 0 0 0 128 0 0 255
0.799998 0.364942 4.57527 0 0 0 128 0 0 255
0.827409 0.768778 4.60693 0 0 0 128 0 0 255
0.792194 0.230559 4.56496 0 0 0 128 0 0 255
0.858226 1.17935 4.63963 0 0 0 128 0 0 255
0.81852 0.572482 4.5923 0 0 0 128 0 0 255
0.856474 1.13748 4.63654 0 0 0 128 0 0 255
0.823538 0.634085 4.59728 0 0 0 128 0 0 255
0.804401 0.341597 4.57447 0 0 0 128 0 0 255
0.862414 1.18301 4.64063 0 0 0 128 0 0 255
0.838934 0.748864 4.60772 0 0 0 128 0 0 255
0.859896 1.05421 4.63173 0 0 0 128 0 0 255
0.813224 0.340893 4.5761 0 0 0 128 0 0 255
0.83295 0.627333 4.59863 0 0 0 128 0 0 255
0.848833 0.855077 4.6166 0 0 0 128 0 0 255
0.833799 0.59526 4.59674 0 0 0 128 0 0 255
0.833669 0.563266 4.59466 0 0 0 128 0 0 255
0.85313 0.845726 4.6169 0 0 0 128 0 0 255
0.85365 0.838682 4.61656 0 0 0 128 0 0 255
0.822275 0.35916 4.57916 0 0 0 128 0 0 255
0.880711 1.16252 4.64314 0 0 0 128 0 0 255
0.834746 0.430146 4.58648 0 0 0 128 0 0 255
0.886411 1.17505 4.64528 0 0 0 128 0 0 255
0.824443 0.227946 4.57141 0 0 0 128 0 0 255
0.836153 0.392016 4.58445 0 0 0 128 0 0 255
0.846234 0.531214 4.59554 0 0 0 128 0 0 255
0.868023 0.834482 4.61968 0 0 0 128 0 0 255
0.842368 0.427503 4.58819 0 0 0 128 0 0 255
0.833755 0.266172 4.57611 0 0 0 128 0 0 255
0.854367 0.551531 4.59887 0 0 0 128 0 0 255
0.852188 0.414654 4.59005 0 0 0 128 0 0 255
0.847111 0.337055 4.584 0 0 0 128 0 0 255
0.906016 1.17837 4.65071 0 0 0 128 0 0 255
0.867633 0.430299 4.59558 0 0 0 128 0 0 255
0.862465 0.336697 4.58859 0 0 0 128 0 0 255
0.876694 0.539563 4.60472 0 0 0 128 0 0 255
0.868557 0.415205 4.59502 0 0 0 128 0 0 255
0.862297 0.246645 4.58344 0 0 0 128 0 0 255
0.876068 0.384498 4.59581 0 0 0 128 0 0 255
0.92651 1.12649 4.65434 0 0 0 128 0 0 255
0.877366 0.37537 4.59576 0 0 0 128 0 0 255
0.924392 1.07964 4.65102 0 0 0 128 0 0 255
0.912756 0.786454 4.6309 0 0 0 128 0 0 255
0.888239 0.397376 4.60091 0 0 0 128 0 0 255
0.914883 0.790257 4.6319 0 0 0 128 0 0 255
0.938378 1.10636 4.65763 0 0 0 128 0 0 255
0.940089 1.11821 4.65892 0 0 0 128 0 0 255
0.925918 0.88731 4.64128 0 0 0 128 0 0 255
0.922403 0.833588 4.63709 0 0 0 128 0 0 255
0.888684 0.261188 4.59393 0 0 0 128 0 0 255
0.941683 1.05699 4.65636 0 0 0 128 0 0 255
0.911962 0.574301 4.61948 0 0 0 128 0 0 255
0.932182 0.826635 4.6407 0 0 0 128 0 0 255
0.931669 0.804659 4.63937 0 0 0 128 0 0 255
0.903036 0.352903 4.60453 0 0 0 128 0 0 255
0.952187 1.09 4.66241 0 0 0 128 0 0 255
0.901299 0.269968 4.59965 0 0 0 128 0 0 255
0.962816 1.18207 4.67159 0 0 0 128 0 0 255
0.958455 1.11542 4.66639 0 0 0 128 0 0 255
0.922849 0.571229 4.62395 0 0 0 128 0 0 255
0.921484 0.536318 4.62163 0 0 0 128 0 0 255
0.91172 0.387089 4.61 0 0 0 128 0 0 255
0.92207 0.531253 4.62165 0 0 0 128 0 0 255
0.902933 0.238764 4.59884 0 0 0 128 0 0 255
0.96607 1.17574 4.67273 0 0 0 128 0 0 255
0.912172 0.337977 4.60781 0 0 0 128 0 0 255
0.964754 1.09976 4.66847 0 0 0 128 0 0 255
0.920621 0.42525 4.61587 0 0 0 128 0 0 255
0.908969 0.247171 4.60198 0 0 0 128 0 0 255
0.94535 0.789277 4.64468 0 0 0 128 0 0 255
0.908768 0.230167 4.60108 0 0 0 128 0 0 255
0.916572 0.33553 4.60972 0 0 0 128 0 0 255
0.910762 0.218948 4.60148 0 0 0 128 0 0 255
0.933144 0.547159 4.62751 0 0 0 128 0 0 255
0.948223 0.749926 4.64419 0 0 0 128 0 0 255
0.970053 1.04214 4.66829 0 0 0 128 0 0 255
0.94525 0.608009 4.63621 0 0 0 128 0 0 255
0.943688 0.584132 4.63435 0 0 0 128 0 0 255
0.923425 0.26071 4.60958 0 0 0 128 0 0 255
0.933689 0.403877 4.6212 0 0 0 128 0 0 255
0.933361 0.357834 4.61897 0 0 0 128 0 0 255
0.954031 0.56501 4.63886 0 0 0 128 0 0 255
0.950315 0.387076 4.62934 0 0 0 128 0 0 255
0.951376 0.349887 4.62842 0 0 0 128 0 0 255
0.949264 0.291 4.62483 0 0 0 128 0 0 255
0.959659 0.410098 4.63564 0 0 0 128 0 0 255
0.951568 0.233626 4.62393 0 0 0 128 0 0 255
0.956938 0.23703 4.62733 0 0 0 128 0 0 255
0.96755 0.360103 4.63852 0 0 0 128 0 0 255
0.961626 0.269571 4.63146 0 0 0 128 0 0 255
1.01784 0.935669 4.69162 0 0 0 128 0 0 255
0.986029 0.38602 4.65159 0 0 0 128 0 0 255
1.02265 0.933094 4.69483 0 0 0 128 0 0 255
0.99047 0.353402 4.65367 0 0 0 128 0 0 255
1.0014 0.421261 4.6637 0 0 0 128 0 0 255
1.00069 0.410317 4.66285 0 0 0 128 0 0 255
0.99906 0.336303 4.65949 0 0 0 128 0 0 255
1.00697 0.42057 4.66789 0 0 0 128 0 0 255
1.00876 0.339095 4.66711 0 0 0 128 0 0 255
1.03811 0.763701 4.70148 0 0 0 128 0 0 255
1.03888 0.763601 4.70211 0 0 0 128 0 0 255
1.01398 0.335414 4.67126 0 0 0 128 0 0 255
1.03397 0.593679 4.69397 0 0 0 128 0 0 255
1.03345 0.58572 4.69335 0 0 0 128 0 0 255
1.0328 0.575771 4.69257 0 0 0 128 0 0 255
1.02317 0.393413 4.6803 0 0 0 128 0 0 255
1.03144 0.415395 4.68794 0 0 0 128 0 0 255
1.05057 0.650675 4.70964 0 0 0 128 0 0 255
1.02636 0.280588 4.68078 0 0 0 128 0 0 255
1.04981 0.627693 4.70853 0 0 0 128 0 0 255
1.03298 0.358981 4.68825 0 0 0 128 0 0 255
1.06492 0.81333 4.72572 0 0 0 128 0 0 255
1.04679 0.513676 4.70372 0 0 0 128 0 0 255
1.05116 0.569288 4.70875 0 0 0 128 0 0 255
1.06582 0.771043 4.72586 0 0 0 128 0 0 255
1.0823 1.00065 4.74515 0 0 0 128 0 0 255
1.03928 0.30992 4.69337 0 0 0 128 0 0 255
1.04589 0.334086 4.70019 0 0 0 128 0 0 255
1.05073 0.375567 4.70556 0 0 0 128 0 0 255
1.05586 0.410978 4.71119 0 0 0 128 0 0 255
1.0817 0.73161 4.74128 0 0 0 128 0 0 255
1.07047 0.54945 4.7278 0 0 0 128 0 0 255
1.08032 0.534898 4.73859 0 0 0 128 0 0 255
1.09595 0.753564 4.75716 0 0 0 128 0 0 255
1.09777 0.77137 4.75931 0 0 0 128 0 0 255
1.08839 0.597961 4.74807 0 0 0 128 0 0 255
1.08779 0.578958 4.74735 0 0 0 128 0 0 255
1.10065 0.706585 4.76271 0 0 0 128 0 0 255
1.10281 0.522199 4.76655 0 0 0 128 0 0 255
1.1198 0.736583 4.78733 0 0 0 128 0 0 255
1.09784 0.365097 4.76162 0 0 0 128 0 0 255
1.11766 0.589027 4.78651 0 0 0 128 0 0 255
1.12867 0.573883 4.8039 0 0 0 128 0 0 255
1.14388 0.543541 4.83221 0 0 0 128 0 0 255
