ply
format ascii 1.0
comment VCGLIB generated
element vertex 139
property float x
property float y
property float z
property float nx
property float ny
property float nz
property uchar red
property uchar green
property uchar blue
property uchar alpha
element face 0
property list uchar int vertex_indices
end_header
0.492551 1.71154 3.05483 0 0 0 255 255 0 255
0.487746 1.71293 3.05483 0 0 0 255 255 0 255
0.465734 1.71599 3.0927 0 0 0 255 255 0 255
0.458106 1.7112 3.17342 0 0 0 255 255 0 255
0.349434 1.73857 3.21926 0 0 0 255 255 0 255
0.288902 1.75603 3.21926 0 0 0 255 255 0 255
0.287918 1.75622 3.22025 0 0 0 255 255 0 255
0.337766 1.74141 3.22524 0 0 0 255 255 0 255
0.332939 1.74272 3.22623 0 0 0 255 255 0 255
0.40976 1.72039 3.22823 0 0 0 255 255 0 255
0.365561 1.73314 3.22823 0 0 0 255 255 0 255
0.274259 1.75939 3.22922 0 0 0 255 255 0 255
0.390497 1.72577 3.23022 0 0 0 255 255 0 255
0.373202 1.73076 3.23022 0 0 0 255 255 0 255
0.356868 1.73547 3.23022 0 0 0 255 255 0 255
0.388529 1.72617 3.23221 0 0 0 255 255 0 255
0.405801 1.7211 3.23321 0 0 0 255 255 0 255
0.504721 1.69239 3.2352 0 0 0 255 255 0 255
0.517166 1.68863 3.2372 0 0 0 255 255 0 255
0.42488 1.71508 3.23919 0 0 0 255 255 0 255
0.515175 1.68895 3.24019 0 0 0 255 255 0 255
0.421951 1.71575 3.24118 0 0 0 255 255 0 255
0.493991 1.69489 3.24218 0 0 0 255 255 0 255
0.348905 1.73673 3.24218 0 0 0 255 255 0 255
0.168246 1.78875 3.24318 0 0 0 255 255 0 255
0.21432 1.77529 3.24517 0 0 0 255 255 0 255
0.433366 1.71203 3.24616 0 0 0 255 255 0 255
0.428562 1.71341 3.24616 0 0 0 255 255 0 255
0.447664 1.70747 3.25115 0 0 0 255 255 0 255
0.450523 1.70656 3.25214 0 0 0 255 255 0 255
0.412067 1.71756 3.25314 0 0 0 255 255 0 255
0.401498 1.72061 3.25314 0 0 0 255 255 0 255
0.423574 1.71416 3.25414 0 0 0 255 255 0 255
0.316876 1.74476 3.25613 0 0 0 255 255 0 255
0.199654 1.77857 3.25613 0 0 0 255 255 0 255
0.385964 1.72449 3.26012 0 0 0 255 255 0 255
0.516591 1.68664 3.26211 0 0 0 255 255 0 255
0.57607 1.66914 3.2661 0 0 0 255 255 0 255
0.318544 1.74333 3.26709 0 0 0 255 255 0 255
0.329044 1.74004 3.27008 0 0 0 255 255 0 255
0.579729 1.66739 3.27407 0 0 0 255 255 0 255
0.584396 1.66553 3.28005 0 0 0 255 255 0 255
0.586294 1.66489 3.28104 0 0 0 255 255 0 255
0.303626 1.74573 3.28902 0 0 0 255 255 0 255
0.220856 1.76909 3.295 0 0 0 255 255 0 255
0.583021 1.66437 3.29799 0 0 0 255 255 0 255
0.560807 1.67034 3.30297 0 0 0 255 255 0 255
0.324258 1.73788 3.31094 0 0 0 255 255 0 255
0.600885 1.65775 3.31493 0 0 0 255 255 0 255
0.131907 1.79267 3.31891 0 0 0 255 255 0 255
0.618865 1.65152 3.32689 0 0 0 255 255 0 255
0.589994 1.65968 3.32888 0 0 0 255 255 0 255
0.334413 1.7334 3.32888 0 0 0 255 255 0 255
0.0787396 1.80679 3.33286 0 0 0 255 255 0 255
0.592739 1.65837 3.33486 0 0 0 255 255 0 255
0.578303 1.66245 3.33585 0 0 0 255 255 0 255
0.317872 1.73739 3.33785 0 0 0 255 255 0 255
0.609781 1.6525 3.34582 0 0 0 255 255 0 255
0.319287 1.73508 3.35977 0 0 0 255 255 0 255
0.150135 1.7837 3.36176 0 0 0 255 255 0 255
0.308626 1.73781 3.36376 0 0 0 255 255 0 255
0.430445 1.7019 3.37273 0 0 0 255 255 0 255
0.636978 1.64215 3.37472 0 0 0 255 255 0 255
0.142126 1.7848 3.37572 0 0 0 255 255 0 255
0.624372 1.64536 3.3797 0 0 0 255 255 0 255
0.051716 1.81053 3.3797 0 0 0 255 255 0 255
0.594448 1.65347 3.38568 0 0 0 255 255 0 255
0.332049 1.72881 3.38967 0 0 0 255 255 0 255
0.0445991 1.81111 3.39664 0 0 0 255 255 0 255
0.631529 1.64131 3.40262 0 0 0 255 255 0 255
0.560382 1.66165 3.40462 0 0 0 255 255 0 255
0.157517 1.77682 3.41657 0 0 0 255 255 0 255
0.639809 1.63754 3.41857 0 0 0 255 255 0 255
0.582136 1.65408 3.41956 0 0 0 255 255 0 255
0.603251 1.64791 3.42056 0 0 0 255 255 0 255
0.515769 1.67297 3.42255 0 0 0 255 255 0 255
0.638733 1.63741 3.42355 0 0 0 255 255 0 255
0.632945 1.639 3.42455 0 0 0 255 255 0 255
0.559715 1.65934 3.43352 0 0 0 255 255 0 255
0.64493 1.63364 3.44647 0 0 0 255 255 0 255
0.0498526 1.80407 3.46042 0 0 0 255 255 0 255
0.0353711 1.80799 3.46341 0 0 0 255 255 0 255
0.576981 1.65065 3.47637 0 0 0 255 255 0 255
0.0446573 1.8041 3.47736 0 0 0 255 255 0 255
0.649889 1.62918 3.48135 0 0 0 255 255 0 255
0.0329434 1.80678 3.48534 0 0 0 255 255 0 255
0.653503 1.62728 3.49132 0 0 0 255 255 0 255
0.0394852 1.80421 3.49331 0 0 0 255 255 0 255
0.0834533 1.79066 3.50327 0 0 0 255 255 0 255
0.625293 1.63412 3.50626 0 0 0 255 255 0 255
0.623689 1.63216 3.53417 0 0 0 255 255 0 255
0.613942 1.63446 3.54015 0 0 0 255 255 0 255
0.633821 1.6276 3.5531 0 0 0 255 255 0 255
0.606894 1.63528 3.5541 0 0 0 255 255 0 255
0.0802665 1.78683 3.55808 0 0 0 255 255 0 255
0.0675686 1.78971 3.56705 0 0 0 255 255 0 255
0.017784 1.80114 3.60094 0 0 0 255 255 0 255
0.692973 1.60535 3.61289 0 0 0 255 255 0 255
0.0806468 1.78093 3.62485 0 0 0 255 255 0 255
0.634949 1.61708 3.67069 0 0 0 255 255 0 255
0.0434397 1.78544 3.6966 0 0 0 255 255 0 255
0.540754 1.6369 3.7554 0 0 0 255 255 0 255
0.57413 1.62633 3.76636 0 0 0 255 255 0 255
0.618259 1.61334 3.76935 0 0 0 255 255 0 255
0.581426 1.62275 3.7833 0 0 0 255 255 0 255
0.611114 1.61022 3.82915 0 0 0 255 255 0 255
0.546692 1.62863 3.83114 0 0 0 255 255 0 255
0.615803 1.60843 3.83413 0 0 0 255 255 0 255
0.578372 1.61577 3.87399 0 0 0 255 255 0 255
0.523489 1.63117 3.87897 0 0 0 255 255 0 255
0.52987 1.62804 3.89392 0 0 0 255 255 0 255
0.534007 1.62434 3.92282 0 0 0 255 255 0 255
0.541487 1.6214 3.93179 0 0 0 255 255 0 255
0.584742 1.60538 3.97265 0 0 0 255 255 0 255
0.528783 1.62066 3.98261 0 0 0 255 255 0 255
0.633992 1.5885 4.00354 0 0 0 255 255 0 255
0.514457 1.62151 4.02048 0 0 0 255 255 0 255
0.524889 1.61798 4.02646 0 0 0 255 255 0 255
0.521063 1.61554 4.06732 0 0 0 255 255 0 255
0.519918 1.61518 4.07529 0 0 0 255 255 0 255
0.516782 1.61514 4.08626 0 0 0 255 255 0 255
0.644315 1.57377 4.13907 0 0 0 255 255 0 255
0.48358 1.6191 4.15103 0 0 0 255 255 0 255
0.457466 1.61877 4.24172 0 0 0 255 255 0 255
0.444354 1.62022 4.26862 0 0 0 255 255 0 255
0.417486 1.62088 4.35034 0 0 0 255 255 0 255
0.38113 1.62834 4.38522 0 0 0 255 255 0 255
0.434131 1.61003 4.4201 0 0 0 255 255 0 255
0.396567 1.62052 4.42409 0 0 0 255 255 0 255
0.393569 1.62096 4.42907 0 0 0 255 255 0 255
0.399311 1.61921 4.43007 0 0 0 255 255 0 255
0.422049 1.61144 4.44402 0 0 0 255 255 0 255
0.431289 1.6074 4.45996 0 0 0 255 255 0 255
0.480792 1.59139 4.47989 0 0 0 255 255 0 255
0.378944 1.62077 4.47989 0 0 0 255 255 0 255
0.471547 1.59181 4.5058 0 0 0 255 255 0 255
0.420255 1.60522 4.52175 0 0 0 255 255 0 255
0.408495 1.60775 4.53171 0 0 0 255 255 0 255
0.400458 1.60515 4.58852 0 0 0 255 255 0 255
