ply
format ascii 1.0
comment VCGLIB generated
element vertex 357
property float x
property float y
property float z
property float nx
property float ny
property float nz
property uchar red
property uchar green
property uchar blue
property uchar alpha
element face 0
property list uchar int vertex_indices
end_header
0.368139 0.243521 4.32745 0 0 0 128 128 0 255
0.384458 1.29814 4.35095 0 0 0 128 128 0 255
0.368325 0.169655 4.32077 0 0 0 128 128 0 255
0.370742 0.240751 4.3167 0 0 0 128 128 0 255
0.375623 0.557638 4.32366 0 0 0 128 128 0 255
0.383917 0.9847 4.32353 0 0 0 128 128 0 255
0.375411 0.36805 4.30413 0 0 0 128 128 0 255
0.371375 0.0851921 4.29606 0 0 0 128 128 0 255
0.371401 0.078218 4.2949 0 0 0 128 128 0 255
0.375501 0.348127 4.30066 0 0 0 128 128 0 255
0.371465 0.0662691 4.29261 0 0 0 128 128 0 255
0.374132 0.225272 4.29361 0 0 0 128 128 0 255
0.373809 0.18436 4.2896 0 0 0 128 128 0 255
0.381733 0.722133 4.30306 0 0 0 128 128 0 255
0.372689 0.0835218 4.28208 0 0 0 128 128 0 255
0.386152 0.997136 4.30495 0 0 0 128 128 0 255
0.3783 0.450464 4.28727 0 0 0 128 128 0 255
0.374381 0.179627 4.27849 0 0 0 128 128 0 255
0.376384 0.313595 4.28085 0 0 0 128 128 0 255
0.376708 0.335586 4.2814 0 0 0 128 128 0 255
0.378549 0.460533 4.28453 0 0 0 128 128 0 255
0.376293 0.303674 4.2776 0 0 0 128 128 0 255
0.377848 0.410779 4.27428 0 0 0 128 128 0 255
0.378997 0.488746 4.27623 0 0 0 128 128 0 255
0.376708 0.334836 4.27138 0 0 0 128 128 0 255
0.375487 0.255921 4.2674 0 0 0 128 128 0 255
0.378271 0.444841 4.27213 0 0 0 128 128 0 255
0.384638 0.896805 4.27745 0 0 0 128 128 0 255
0.37621 0.334094 4.26137 0 0 0 128 128 0 255
0.378402 0.488055 4.26423 0 0 0 128 128 0 255
0.384407 0.906931 4.27272 0 0 0 128 128 0 255
0.384626 0.927948 4.27224 0 0 0 128 128 0 255
0.390083 1.30482 4.28068 0 0 0 128 128 0 255
0.373158 0.356754 4.23717 0 0 0 128 128 0 255
0.380287 0.84055 4.24928 0 0 0 128 128 0 255
0.381178 0.914546 4.25015 0 0 0 128 128 0 255
0.382798 1.0245 4.25291 0 0 0 128 128 0 255
0.373801 0.427779 4.23699 0 0 0 128 128 0 255
0.379433 0.838661 4.24532 0 0 0 128 128 0 255
0.386048 1.30249 4.25595 0 0 0 128 128 0 255
0.372341 0.434969 4.23035 0 0 0 128 128 0 255
0.369256 0.242079 4.22455 0 0 0 128 128 0 255
0.377769 0.819835 4.23901 0 0 0 128 128 0 255
0.38305 1.30283 4.24434 0 0 0 128 128 0 255
0.368954 0.840649 4.21202 0 0 0 128 128 0 255
0.368364 0.826684 4.21074 0 0 0 128 128 0 255
0.365313 0.672806 4.20505 0 0 0 128 128 0 255
0.35811 0.21103 4.19257 0 0 0 128 128 0 255
0.361993 0.501936 4.19894 0 0 0 128 128 0 255
0.360891 0.657102 4.19557 0 0 0 128 128 0 255
0.35321 0.450479 4.18154 0 0 0 128 128 0 255
0.352443 0.431516 4.18019 0 0 0 128 128 0 255
0.358909 0.870331 4.19117 0 0 0 128 128 0 255
0.350292 0.386622 4.17646 0 0 0 128 128 0 255
0.352904 0.667591 4.18091 0 0 0 128 128 0 255
0.348733 0.419724 4.17385 0 0 0 128 128 0 255
0.340069 0.59423 4.16167 0 0 0 128 128 0 255
0.33598 0.482392 4.1557 0 0 0 128 128 0 255
0.346629 1.20509 4.17379 0 0 0 128 128 0 255
0.336892 0.586377 4.15752 0 0 0 128 128 0 255
0.333675 0.582523 4.15355 0 0 0 128 128 0 255
0.333343 0.647552 4.15365 0 0 0 128 128 0 255
0.3414 1.19432 4.16733 0 0 0 128 128 0 255
0.329761 0.448665 4.14791 0 0 0 128 128 0 255
0.330321 0.486649 4.14886 0 0 0 128 128 0 255
0.329274 0.504698 4.1478 0 0 0 128 128 0 255
0.329147 0.63173 4.14874 0 0 0 128 128 0 255
0.333787 0.946597 4.15662 0 0 0 128 128 0 255
0.326854 0.521805 4.14525 0 0 0 128 128 0 255
0.327268 0.595802 4.14637 0 0 0 128 128 0 255
0.327385 0.603799 4.14657 0 0 0 128 128 0 255
0.325402 0.561873 4.14405 0 0 0 128 128 0 255
0.326095 0.608853 4.14523 0 0 0 128 128 0 255
0.325466 0.61288 4.1446 0 0 0 128 128 0 255
0.325644 0.671883 4.14536 0 0 0 128 128 0 255
0.323373 0.564957 4.14196 0 0 0 128 128 0 255
0.317804 0.378148 4.13444 0 0 0 128 128 0 255
0.318609 0.481133 4.13632 0 0 0 128 128 0 255
0.317805 0.573178 4.13654 0 0 0 128 128 0 255
0.314541 0.500292 4.13266 0 0 0 128 128 0 255
0.314467 0.545301 4.13311 0 0 0 128 128 0 255
0.313978 0.562322 4.13287 0 0 0 128 128 0 255
0.311193 0.52542 4.12995 0 0 0 128 128 0 255
0.307451 0.425545 4.12548 0 0 0 128 128 0 255
0.309236 0.598499 4.12917 0 0 0 128 128 0 255
0.306478 0.515589 4.12581 0 0 0 128 128 0 255
0.305652 0.564623 4.12577 0 0 0 128 128 0 255
0.302928 0.48571 4.12254 0 0 0 128 128 0 255
0.302349 0.499731 4.12228 0 0 0 128 128 0 255
0.30285 0.533717 4.12313 0 0 0 128 128 0 255
0.303734 0.593692 4.12463 0 0 0 128 128 0 255
0.299474 0.411823 4.11885 0 0 0 128 128 0 255
0.29868 0.411849 4.11824 0 0 0 128 128 0 255
0.300563 0.593799 4.12219 0 0 0 128 128 0 255
0.298238 0.544874 4.11977 0 0 0 128 128 0 255
0.298651 0.572862 4.12047 0 0 0 128 128 0 255
0.298988 0.815866 4.12421 0 0 0 128 128 0 255
0.297645 0.947916 4.12524 0 0 0 128 128 0 255
0.297762 0.955912 4.12544 0 0 0 128 128 0 255
0.287489 0.599219 4.11322 0 0 0 128 128 0 255
0.289644 0.918162 4.11961 0 0 0 128 128 0 255
0.280397 0.52343 4.10767 0 0 0 128 128 0 255
0.277194 0.541524 4.10613 0 0 0 128 128 0 255
0.276512 0.554543 4.10597 0 0 0 128 128 0 255
0.281374 1.1834 4.11934 0 0 0 128 128 0 255
0.268697 0.443763 4.09991 0 0 0 128 128 0 255
0.270538 0.56871 4.10304 0 0 0 128 128 0 255
0.270848 0.589702 4.10356 0 0 0 128 128 0 255
0.268468 0.488769 4.10058 0 0 0 128 128 0 255
0.271638 0.947672 4.11031 0 0 0 128 128 0 255
0.275085 1.18157 4.11616 0 0 0 128 128 0 255
0.263886 0.482892 4.09824 0 0 0 128 128 0 255
0.274094 1.1756 4.11558 0 0 0 128 128 0 255
0.269418 0.919732 4.10875 0 0 0 128 128 0 255
0.262048 0.542938 4.09848 0 0 0 128 128 0 255
0.267132 0.949791 4.10826 0 0 0 128 128 0 255
0.258395 0.481036 4.09571 0 0 0 128 128 0 255
0.2644 0.950861 4.10708 0 0 0 128 128 0 255
0.267862 1.18576 4.11296 0 0 0 128 128 0 255
0.255038 0.50312 4.0947 0 0 0 128 128 0 255
0.255479 0.533107 4.09545 0 0 0 128 128 0 255
0.252478 0.392189 4.09155 0 0 0 128 128 0 255
0.25454 0.595127 4.09625 0 0 0 128 128 0 255
0.253317 0.575158 4.09538 0 0 0 128 128 0 255
0.252033 0.551191 4.09442 0 0 0 128 128 0 255
0.2614 1.18692 4.11033 0 0 0 128 128 0 255
0.250408 0.504234 4.09288 0 0 0 128 128 0 255
0.250475 0.572228 4.09423 0 0 0 128 128 0 255
0.247909 0.525293 4.09235 0 0 0 128 128 0 255
0.249043 0.60226 4.09428 0 0 0 128 128 0 255
0.246676 0.569319 4.09277 0 0 0 128 128 0 255
0.254291 1.0861 4.10571 0 0 0 128 128 0 255
0.249705 0.967217 4.10175 0 0 0 128 128 0 255
0.239795 0.423491 4.08751 0 0 0 128 128 0 255
0.246548 0.946292 4.10028 0 0 0 128 128 0 255
0.237144 0.43755 4.08695 0 0 0 128 128 0 255
0.23766 0.472535 4.08782 0 0 0 128 128 0 255
0.240858 0.754437 4.09458 0 0 0 128 128 0 255
0.235968 0.487571 4.08761 0 0 0 128 128 0 255
0.233846 0.408626 4.08535 0 0 0 128 128 0 255
0.235216 0.501587 4.08768 0 0 0 128 128 0 255
0.235908 0.548567 4.08885 0 0 0 128 128 0 255
0.234477 0.516601 4.08777 0 0 0 128 128 0 255
0.24013 0.965433 4.09873 0 0 0 128 128 0 255
0.243341 1.18334 4.10418 0 0 0 128 128 0 255
0.238372 0.911477 4.09711 0 0 0 128 128 0 255
0.234079 0.685593 4.09119 0 0 0 128 128 0 255
0.237511 0.918495 4.09702 0 0 0 128 128 0 255
0.231494 0.57566 4.08818 0 0 0 128 128 0 255
0.235918 0.941527 4.09708 0 0 0 128 128 0 255
0.228903 0.728698 4.09077 0 0 0 128 128 0 255
0.223379 0.419848 4.08281 0 0 0 128 128 0 255
0.221136 0.399897 4.08186 0 0 0 128 128 0 255
0.221471 0.488879 4.08387 0 0 0 128 128 0 255
0.231664 1.18059 4.10118 0 0 0 128 128 0 255
0.221851 0.713843 4.08887 0 0 0 128 128 0 255
0.222278 0.742831 4.0896 0 0 0 128 128 0 255
0.218152 0.595931 4.08553 0 0 0 128 128 0 255
0.219213 0.667901 4.08733 0 0 0 128 128 0 255
0.218191 0.731912 4.08856 0 0 0 128 128 0 255
0.214143 0.524019 4.08318 0 0 0 128 128 0 255
0.214028 0.583013 4.08448 0 0 0 128 128 0 255
0.220965 1.05381 4.09627 0 0 0 128 128 0 255
0.221377 1.0818 4.09697 0 0 0 128 128 0 255
0.211982 0.511062 4.08251 0 0 0 128 128 0 255
0.207326 0.396166 4.07916 0 0 0 128 128 0 255
0.21039 0.604079 4.08436 0 0 0 128 128 0 255
0.21258 0.886996 4.09115 0 0 0 128 128 0 255
0.209127 0.787074 4.08837 0 0 0 128 128 0 255
0.20187 0.42926 4.07916 0 0 0 128 128 0 255
0.206171 0.721137 4.08647 0 0 0 128 128 0 255
0.20975 0.964035 4.09255 0 0 0 128 128 0 255
0.206415 0.80512 4.08845 0 0 0 128 128 0 255
0.206505 0.946095 4.09176 0 0 0 128 128 0 255
0.200311 0.593261 4.08282 0 0 0 128 128 0 255
0.198536 0.5403 4.08139 0 0 0 128 128 0 255
0.201541 0.744214 4.0865 0 0 0 128 128 0 255
0.196966 0.501334 4.08032 0 0 0 128 128 0 255
0.197835 0.560309 4.0818 0 0 0 128 128 0 255
0.198155 0.717277 4.08555 0 0 0 128 128 0 255
0.194331 0.525374 4.08067 0 0 0 128 128 0 255
0.192384 0.596394 4.08224 0 0 0 128 128 0 255
0.187678 0.412503 4.07752 0 0 0 128 128 0 255
0.189975 0.568438 4.08142 0 0 0 128 128 0 255
0.186566 0.540497 4.08059 0 0 0 128 128 0 255
0.191164 0.920352 4.09006 0 0 0 128 128 0 255
0.178919 0.428636 4.07765 0 0 0 128 128 0 255
0.184281 0.792483 4.08676 0 0 0 128 128 0 255
0.179775 0.554598 4.0808 0 0 0 128 128 0 255
0.17239 0.392738 4.07679 0 0 0 128 128 0 255
0.172615 0.543703 4.08063 0 0 0 128 128 0 255
0.176788 0.962554 4.09118 0 0 0 128 128 0 255
0.175598 0.949573 4.0909 0 0 0 128 128 0 255
0.165871 0.492806 4.07963 0 0 0 128 128 0 255
0.162442 0.530841 4.08087 0 0 0 128 128 0 255
0.16365 0.612807 4.08292 0 0 0 128 128 0 255
0.165432 0.733756 4.08595 0 0 0 128 128 0 255
0.164097 0.710778 4.08546 0 0 0 128 128 0 255
0.160832 0.556855 4.0817 0 0 0 128 128 0 255
0.161377 0.59384 4.08262 0 0 0 128 128 0 255
0.159012 0.500891 4.08039 0 0 0 128 128 0 255
0.157237 0.582893 4.08275 0 0 0 128 128 0 255
0.154814 0.485945 4.08044 0 0 0 128 128 0 255
0.155639 0.541922 4.08184 0 0 0 128 128 0 255
0.156096 0.572909 4.08262 0 0 0 128 128 0 255
0.161767 0.957746 4.09225 0 0 0 128 128 0 255
0.152673 0.40799 4.07861 0 0 0 128 128 0 255
0.159133 0.913788 4.09139 0 0 0 128 128 0 255
0.154845 0.958825 4.09321 0 0 0 128 128 0 255
0.145933 0.421062 4.07991 0 0 0 128 128 0 255
0.150352 0.720936 4.08741 0 0 0 128 128 0 255
0.150469 0.728932 4.08761 0 0 0 128 128 0 255
0.149453 0.726944 4.08772 0 0 0 128 128 0 255
0.147436 0.723966 4.08798 0 0 0 128 128 0 255
0.150397 0.924881 4.09301 0 0 0 128 128 0 255
0.140637 0.396124 4.08012 0 0 0 128 128 0 255
0.142964 0.554058 4.08408 0 0 0 128 128 0 255
0.144426 0.719998 4.08841 0 0 0 128 128 0 255
0.136376 0.705078 4.08968 0 0 0 128 128 0 255
0.137935 0.942995 4.09609 0 0 0 128 128 0 255
0.138273 0.965986 4.09667 0 0 0 128 128 0 255
0.127085 0.404247 4.08333 0 0 0 128 128 0 255
0.129824 0.590169 4.08798 0 0 0 128 128 0 255
0.129018 0.601172 4.08851 0 0 0 128 128 0 255
0.131825 1.18397 4.1047 0 0 0 128 128 0 255
0.118627 0.418308 4.08611 0 0 0 128 128 0 255
0.117355 0.526282 4.08971 0 0 0 128 128 0 255
0.114326 0.578285 4.09228 0 0 0 128 128 0 255
0.112438 0.578296 4.09294 0 0 0 128 128 0 255
0.108992 0.408373 4.08902 0 0 0 128 128 0 255
0.111098 0.551313 4.0926 0 0 0 128 128 0 255
0.111894 0.60529 4.09395 0 0 0 128 128 0 255
0.110321 0.562313 4.09321 0 0 0 128 128 0 255
0.115682 0.92616 4.10232 0 0 0 128 128 0 255
0.109515 0.571315 4.09379 0 0 0 128 128 0 255
0.113506 0.969157 4.10445 0 0 0 128 128 0 255
0.103202 0.396408 4.09084 0 0 0 128 128 0 255
0.103291 0.402405 4.09099 0 0 0 128 128 0 255
0.101544 0.535366 4.09582 0 0 0 128 128 0 255
0.0989432 0.421418 4.09336 0 0 0 128 128 0 255
0.106249 0.917209 4.10577 0 0 0 128 128 0 255
0.0971498 0.424424 4.09422 0 0 0 128 128 0 255
0.0907646 0.484422 4.09906 0 0 0 128 128 0 255
0.0873141 0.493427 4.10107 0 0 0 128 128 0 255
0.0874025 0.499424 4.10122 0 0 0 128 128 0 255
0.0879852 0.599384 4.10417 0 0 0 128 128 0 255
0.0780243 0.577402 4.10892 0 0 0 128 128 0 255
0.0755087 0.523425 4.10859 0 0 0 128 128 0 255
0.0734158 0.497435 4.10898 0 0 0 128 128 0 255
0.0669319 0.514419 4.11372 0 0 0 128 128 0 255
0.0673296 0.541408 4.1144 0 0 0 128 128 0 255
0.0673591 0.543407 4.11445 0 0 0 128 128 0 255
0.0627041 0.562386 4.11834 0 0 0 128 128 0 255
0.059948 0.485413 4.11758 0 0 0 128 128 0 255
0.0545852 0.500383 4.12218 0 0 0 128 128 0 255
0.0601479 0.931198 4.13358 0 0 0 128 128 0 255
0.053652 0.596331 4.12645 0 0 0 128 128 0 255
0.046589 0.532319 4.13 0 0 0 128 128 0 255
0.0451021 0.482335 4.12941 0 0 0 128 128 0 255
0.0444433 0.488327 4.13022 0 0 0 128 128 0 255
0.0514102 0.961127 4.14205 0 0 0 128 128 0 255
0.0442551 0.576278 4.13376 0 0 0 128 128 0 255
0.0434296 0.570274 4.13429 0 0 0 128 128 0 255
0.0439009 0.602261 4.13509 0 0 0 128 128 0 255
0.0417531 0.506295 4.13337 0 0 0 128 128 0 255
0.0401927 0.499285 4.13456 0 0 0 128 128 0 255
0.040502 0.520276 4.13509 0 0 0 128 128 0 255
0.0396181 0.558247 4.13742 0 0 0 128 128 0 255
0.0365074 0.540226 4.13978 0 0 0 128 128 0 255
0.0345728 0.598171 4.1441 0 0 0 128 128 0 255
0.0321022 0.477214 4.1418 0 0 0 128 128 0 255
0.0338992 0.599163 4.14485 0 0 0 128 128 0 255
0.0261143 0.568078 4.15228 0 0 0 128 128 0 255
0.0237555 0.49509 4.15198 0 0 0 128 128 0 255
0.0237981 0.584032 4.15576 0 0 0 128 128 0 255
0.0227368 0.597006 4.15764 0 0 0 128 128 0 255
0.0208643 0.512032 4.1563 0 0 0 128 128 0 255
0.0157864 0.841694 4.17834 0 0 0 128 128 0 255
0.00858957 0.8475 4.19044 0 0 0 128 128 0 255
-0.0168921 0.361867 4.22253 0 0 0 128 128 0 255
-0.0125495 0.674715 4.23133 0 0 0 128 128 0 255
-0.0194909 0.38161 4.23467 0 0 0 128 128 0 255
-0.0216717 0.536693 4.27524 0 0 0 128 128 0 255
-0.0208174 0.594668 4.27669 0 0 0 128 128 0 255
-0.0205189 0.620533 4.28234 0 0 0 128 128 0 255
-0.0205031 0.621483 4.28437 0 0 0 128 128 0 255
-0.0207668 0.597367 4.28876 0 0 0 128 128 0 255
-0.0233227 0.405293 4.28995 0 0 0 128 128 0 255
-0.0203464 0.588112 4.29852 0 0 0 128 128 0 255
-0.0202785 0.587087 4.29949 0 0 0 128 128 0 255
-0.0163319 0.84895 4.30704 0 0 0 128 128 0 255
-0.0163172 0.84995 4.30707 0 0 0 128 128 0 255
-0.0232062 0.376123 4.2962 0 0 0 128 128 0 255
-0.0201776 0.575013 4.30218 0 0 0 128 128 0 255
-0.014356 0.955799 4.3137 0 0 0 128 128 0 255
-0.0201646 0.553942 4.30463 0 0 0 128 128 0 255
-0.0195465 0.587901 4.30647 0 0 0 128 128 0 255
-0.0158009 0.833771 4.31362 0 0 0 128 128 0 255
-0.0205342 0.503883 4.30636 0 0 0 128 128 0 255
-0.0204123 0.493834 4.30809 0 0 0 128 128 0 255
-0.0222734 0.357865 4.30567 0 0 0 128 128 0 255
-0.0202955 0.471763 4.3105 0 0 0 128 128 0 255
-0.0190635 0.544705 4.31332 0 0 0 128 128 0 255
-0.0211863 0.329632 4.31384 0 0 0 128 128 0 255
-0.0183145 0.511528 4.31938 0 0 0 128 128 0 255
-0.0183541 0.495508 4.31996 0 0 0 128 128 0 255
-0.0191548 0.427509 4.31924 0 0 0 128 128 0 255
-0.0152199 0.621289 4.32897 0 0 0 128 128 0 255
-0.0179355 0.421346 4.32494 0 0 0 128 128 0 255
-0.0118385 0.81915 4.33587 0 0 0 128 128 0 255
-0.0151586 0.491121 4.33347 0 0 0 128 128 0 255
-0.0143632 0.545098 4.33482 0 0 0 128 128 0 255
-0.00974946 0.839946 4.34316 0 0 0 128 128 0 255
-0.0144102 0.505059 4.33574 0 0 0 128 128 0 255
-0.0140344 0.452968 4.33827 0 0 0 128 128 0 255
-0.0151658 0.35598 4.3368 0 0 0 128 128 0 255
-0.0151608 0.314941 4.33768 0 0 0 128 128 0 255
-0.0150135 0.324937 4.33793 0 0 0 128 128 0 255
-0.0133196 0.439888 4.34081 0 0 0 128 128 0 255
-0.0134018 0.369833 4.3419 0 0 0 128 128 0 255
-0.0138567 0.316827 4.34152 0 0 0 128 128 0 255
-0.0116179 0.468763 4.34532 0 0 0 128 128 0 255
-0.0114789 0.45574 4.34594 0 0 0 128 128 0 255
-0.0131174 0.321768 4.34353 0 0 0 128 128 0 255
-0.0119539 0.400734 4.3455 0 0 0 128 128 0 255
-0.0114089 0.437719 4.34643 0 0 0 128 128 0 255
-0.0105841 0.493695 4.34783 0 0 0 128 128 0 255
-0.010745 0.459681 4.34792 0 0 0 128 128 0 255
-0.008633 0.579602 4.35186 0 0 0 128 128 0 255
-0.0116568 0.35067 4.34707 0 0 0 128 128 0 255
-0.00897576 0.459538 4.35259 0 0 0 128 128 0 255
-0.00790764 0.3774 4.35609 0 0 0 128 128 0 255
0.000653446 0.849086 4.37156 0 0 0 128 128 0 255
-0.00797075 0.207299 4.35732 0 0 0 128 128 0 255
-0.00927135 0.0613022 4.35547 0 0 0 128 128 0 255
-0.00692487 0.191218 4.35963 0 0 0 128 128 0 255
-0.00652719 0.218207 4.3603 0 0 0 128 128 0 255
-0.000679776 0.61504 4.37024 0 0 0 128 128 0 255
-0.00301062 0.367057 4.36672 0 0 0 128 128 0 255
-0.00388923 0.24605 4.36548 0 0 0 128 128 0 255
-0.00340128 0.248021 4.36642 0 0 0 128 128 0 255
-0.00235553 0.318991 4.36819 0 0 0 128 128 0 255
-0.00200203 0.342981 4.36879 0 0 0 128 128 0 255
0.00611582 0.830717 4.38277 0 0 0 128 128 0 255
-0.00186218 0.224914 4.36937 0 0 0 128 128 0 255
0.00770475 0.80861 4.38573 0 0 0 128 128 0 255
0.00143778 0.282745 4.37518 0 0 0 128 128 0 255
0.00968602 0.842509 4.38919 0 0 0 128 128 0 255
0.00227869 0.305706 4.37662 0 0 0 128 128 0 255
0.0020045 0.252699 4.37616 0 0 0 128 128 0 255
0.00774404 0.607521 4.3859 0 0 0 128 128 0 255
0.00612037 0.391525 4.38306 0 0 0 128 128 0 255
0.0100501 0.401317 4.38919 0 0 0 128 128 0 255
0.029018 0.836528 4.41692 0 0 0 128 128 0 255
0.0259529 0.318546 4.40926 0 0 0 128 128 0 255
0.0271208 0.352503 4.41086 0 0 0 128 128 0 255
0.0346655 0.253178 4.41775 0 0 0 128 128 0 255
