ply
format ascii 1.0
comment VCGLIB generated
element vertex 20
property float x
property float y
property float z
property float nx
property float ny
property float nz
property uchar red
property uchar green
property uchar blue
property uchar alpha
element face 0
property list uchar int vertex_indices
end_header
2.60083 1.45857 5.89364 0 0 0 255 255 0 255
2.64826 1.4553 5.89909 0 0 0 255 255 0 255
2.55326 1.09872 5.86227 0 0 0 255 255 0 255
2.69153 1.0674 5.87491 0 0 0 255 255 0 255
2.69467 1.05873 5.87455 0 0 0 255 255 0 255
2.81994 1.24784 5.90252 0 0 0 255 255 0 255
2.80997 1.09221 5.88896 0 0 0 255 255 0 255
2.95052 1.31034 5.92072 0 0 0 255 255 0 255
2.99955 1.32804 5.92695 0 0 0 255 255 0 255
3.011 1.33408 5.92855 0 0 0 255 255 0 255
3.12283 1.40396 5.94497 0 0 0 255 255 0 255
2.98909 1.16133 5.91185 0 0 0 255 255 0 255
3.1879 1.44798 5.95469 0 0 0 255 255 0 255
3.23819 1.42728 5.9573 0 0 0 255 255 0 255
3.24851 1.4374 5.95909 0 0 0 255 255 0 255
3.25865 1.41675 5.95811 0 0 0 255 255 0 255
3.30919 1.43709 5.9642 0 0 0 255 255 0 255
3.31478 1.3962 5.96093 0 0 0 255 255 0 255
3.32369 1.3957 5.96161 0 0 0 255 255 0 255
3.35518 1.38234 5.96289 0 0 0 255 255 0 255
