ply
format ascii 1.0
comment VCGLIB generated
element vertex 170
property float x
property float y
property float z
property float nx
property float ny
property float nz
property uchar red
property uchar green
property uchar blue
property uchar alpha
element face 0
property list uchar int vertex_indices
end_header
-1.81184 -0.775116 4.75289 0 0 0 255 255 255 255
-1.71501 -0.705696 4.371 0 0 0 255 255 255 255
-1.59773 -0.582927 4.99901 0 0 0 255 255 255 255
-1.58002 -0.508711 5.04534 0 0 0 255 255 255 255
-1.55812 -0.543616 5.03415 0 0 0 255 255 255 255
-2.59323 -0.760735 7.7154 0 0 0 255 255 255 255
-7.31533 -1.12386 16.1497 0 0 0 255 255 255 255
-1.61225 -0.00589801 5.13105 0 0 0 255 255 255 255
-1.65711 -0.000918139 5.10412 0 0 0 255 255 255 255
-0.854467 -0.589204 5.19546 0 0 0 255 255 255 255
-0.947051 -0.598245 5.14507 0 0 0 255 255 255 255
-0.948168 -0.580265 5.15282 0 0 0 255 255 255 255
-0.942813 -0.586628 5.15323 0 0 0 255 255 255 255
-0.819906 -0.589906 5.43246 0 0 0 255 255 255 255
-0.815199 -0.587656 5.47118 0 0 0 255 255 255 255
-0.782584 -0.595753 5.36532 0 0 0 255 255 255 255
-0.813274 -0.578513 5.45875 0 0 0 255 255 255 255
-0.966287 -0.59364 5.26736 0 0 0 255 255 255 255
-0.750191 -0.60088 5.37164 0 0 0 255 255 255 255
-0.753047 -0.601372 5.36965 0 0 0 255 255 255 255
-0.806922 -0.457603 5.1208 0 0 0 255 255 255 255
-0.827576 -0.512336 5.49184 0 0 0 255 255 255 255
-0.454221 -0.913354 5.48493 0 0 0 255 255 255 255
-0.260755 -0.666077 5.44827 0 0 0 255 255 255 255
-0.440581 -0.873762 5.3301 0 0 0 255 255 255 255
-0.375462 -0.672076 5.55068 0 0 0 255 255 255 255
-0.424271 -0.649164 5.55543 0 0 0 255 255 255 255
-0.480167 -0.888242 5.4852 0 0 0 255 255 255 255
-0.377849 -0.671685 5.54599 0 0 0 255 255 255 255
-0.49596 -0.886019 5.81022 0 0 0 255 255 255 255
-0.483985 -0.926087 5.76258 0 0 0 255 255 255 255
-0.469048 -0.933034 5.84394 0 0 0 255 255 255 255
-0.476561 -0.922583 5.76566 0 0 0 255 255 255 255
-0.355676 -0.672491 5.65056 0 0 0 255 255 255 255
-0.431231 -0.741272 5.82464 0 0 0 255 255 255 255
-0.497997 -0.899386 5.79453 0 0 0 255 255 255 255
-0.497021 -0.903964 5.70788 0 0 0 255 255 255 255
-0.485344 -0.754113 5.78559 0 0 0 255 255 255 255
-0.500483 -0.89108 5.80425 0 0 0 255 255 255 255
-0.462659 -0.722181 5.73614 0 0 0 255 255 255 255
-0.456813 -0.688476 5.65211 0 0 0 255 255 255 255
-0.490469 -0.923563 5.74442 0 0 0 255 255 255 255
-0.428262 -0.74745 5.85293 0 0 0 255 255 255 255
-0.404472 -0.750694 5.83438 0 0 0 255 255 255 255
-0.354071 -0.766868 5.82667 0 0 0 255 255 255 255
-0.367399 -0.676042 5.62619 0 0 0 255 255 255 255
-0.504342 -0.961207 5.85813 0 0 0 255 255 255 255
-0.528303 -0.904735 6.49539 0 0 0 255 255 255 255
1.24448 -0.45425 5.91601 0 0 0 255 255 255 255
1.49753 -0.241643 5.67359 0 0 0 255 255 255 255
1.85522 -0.955199 6.14902 0 0 0 255 255 255 255
1.82245 -0.962312 6.09226 0 0 0 255 255 255 255
1.85948 -0.964652 5.91182 0 0 0 255 255 255 255
1.85601 -0.93404 5.9399 0 0 0 255 255 255 255
1.85236 -0.785762 5.87707 0 0 0 255 255 255 255
1.86027 -0.684612 5.62542 0 0 0 255 255 255 255
1.89146 -0.740339 5.75766 0 0 0 255 255 255 255
1.85661 -0.793048 5.85457 0 0 0 255 255 255 255
1.86141 -0.705483 5.67853 0 0 0 255 255 255 255
1.84599 -0.702409 5.91985 0 0 0 255 255 255 255
1.79209 -0.669248 5.65986 0 0 0 255 255 255 255
1.85014 -0.703697 5.69581 0 0 0 255 255 255 255
1.85111 -0.952183 5.92725 0 0 0 255 255 255 255
1.89307 -0.905452 5.8803 0 0 0 255 255 255 255
1.85179 -0.943563 5.91719 0 0 0 255 255 255 255
1.84848 -0.947967 5.898 0 0 0 255 255 255 255
1.89677 -0.924044 5.85676 0 0 0 255 255 255 255
1.8648 -0.88153 5.82169 0 0 0 255 255 255 255
1.85918 -0.911871 5.82205 0 0 0 255 255 255 255
1.81301 -0.80934 6.13891 0 0 0 255 255 255 255
1.86804 -0.939112 6.1566 0 0 0 255 255 255 255
1.78313 -0.84596 6.05251 0 0 0 255 255 255 255
1.80998 -0.823279 6.00291 0 0 0 255 255 255 255
1.78027 -0.882741 6.05195 0 0 0 255 255 255 255
1.82571 -0.942759 6.10375 0 0 0 255 255 255 255
1.78719 -0.797377 6.14842 0 0 0 255 255 255 255
1.83558 -0.940767 5.96014 0 0 0 255 255 255 255
1.79967 -0.832323 6.02863 0 0 0 255 255 255 255
1.80565 -0.821802 6.15057 0 0 0 255 255 255 255
1.86212 -0.894581 5.9708 0 0 0 255 255 255 255
1.76322 -0.837802 6.13567 0 0 0 255 255 255 255
1.80814 -0.809277 6.14376 0 0 0 255 255 255 255
1.84127 -0.88753 6.55893 0 0 0 255 255 255 255
3.87339 -0.391374 6.57307 0 0 0 255 255 255 255
3.69035 -2.18662 8.49045 0 0 0 255 255 255 255
3.68316 -2.16768 8.48828 0 0 0 255 255 255 255
3.68897 -2.30572 8.48086 0 0 0 255 255 255 255
4.04224 -0.340183 8.08922 0 0 0 255 255 255 255
3.87478 -0.342508 7.88807 0 0 0 255 255 255 255
3.69226 -0.42065 7.0916 0 0 0 255 255 255 255
4.15192 -0.500516 7.86381 0 0 0 255 255 255 255
3.69905 -0.419834 7.10166 0 0 0 255 255 255 255
4.09631 -0.51965 7.74843 0 0 0 255 255 255 255
4.15546 -0.56314 7.80919 0 0 0 255 255 255 255
3.82121 -0.221938 7.81593 0 0 0 255 255 255 255
3.55248 -0.476889 7.09189 0 0 0 255 255 255 255
4.15405 -0.502797 7.82619 0 0 0 255 255 255 255
4.38489 -0.376037 8.48913 0 0 0 255 255 255 255
4.13067 -0.499801 7.82289 0 0 0 255 255 255 255
3.86575 -0.299847 7.88746 0 0 0 255 255 255 255
3.87319 -0.299897 7.88287 0 0 0 255 255 255 255
4.43706 -0.265333 9.13176 0 0 0 255 255 255 255
4.32808 -0.366644 9.26368 0 0 0 255 255 255 255
4.3102 -0.376718 8.98844 0 0 0 255 255 255 255
4.13155 -0.638683 9.24675 0 0 0 255 255 255 255
4.47434 -0.409475 9.84948 0 0 0 255 255 255 255
-0.797108 0.208487 5.57522 0 0 0 255 255 255 255
-0.829468 0.00467929 5.47627 0 0 0 255 255 255 255
-0.827439 -0.00567128 5.53923 0 0 0 255 255 255 255
-0.839302 -0.0130361 5.52964 0 0 0 255 255 255 255
-0.831803 -0.0353729 5.48978 0 0 0 255 255 255 255
-0.762684 0.155748 5.11439 0 0 0 255 255 255 255
-0.788436 0.17398 5.24564 0 0 0 255 255 255 255
-0.816145 -0.0343422 5.50551 0 0 0 255 255 255 255
-0.768531 0.174005 5.12886 0 0 0 255 255 255 255
-0.803088 0.839659 5.5871 0 0 0 255 255 255 255
0.0087698 0.554315 5.58065 0 0 0 255 255 255 255
-0.675753 0.851583 5.63527 0 0 0 255 255 255 255
-0.785421 1.02336 5.58937 0 0 0 255 255 255 255
-0.330132 1.83804 5.32396 0 0 0 255 255 255 255
-1.29799 1.68191 5.27699 0 0 0 255 255 255 255
-0.587855 1.59765 5.65077 0 0 0 255 255 255 255
-0.306773 1.33101 5.70169 0 0 0 255 255 255 255
-0.625955 1.62554 5.65892 0 0 0 255 255 255 255
-0.64817 1.85971 5.67883 0 0 0 255 255 255 255
-0.721912 1.48834 5.62008 0 0 0 255 255 255 255
-0.610312 1.61342 5.65547 0 0 0 255 255 255 255
1.51208 1.01996 5.57124 0 0 0 255 255 255 255
1.53552 0.974787 5.55837 0 0 0 255 255 255 255
1.53823 0.898838 5.5682 0 0 0 255 255 255 255
1.44714 0.982846 5.55505 0 0 0 255 255 255 255
0.768118 1.23809 4.06504 0 0 0 255 255 255 255
1.40748 1.06205 5.67017 0 0 0 255 255 255 255
1.31396 1.08439 5.70382 0 0 0 255 255 255 255
0.362561 0.5284 5.57725 0 0 0 255 255 255 255
0.352933 0.510082 5.60453 0 0 0 255 255 255 255
0.391423 0.509767 5.62513 0 0 0 255 255 255 255
1.29284 1.0643 5.6663 0 0 0 255 255 255 255
1.27786 1.11596 5.70832 0 0 0 255 255 255 255
1.26675 1.12828 5.59357 0 0 0 255 255 255 255
1.39127 1.13846 5.58711 0 0 0 255 255 255 255
1.49623 1.07184 5.71025 0 0 0 255 255 255 255
1.42091 1.10815 5.66895 0 0 0 255 255 255 255
1.46211 1.19747 5.61578 0 0 0 255 255 255 255
1.48138 1.21753 5.74029 0 0 0 255 255 255 255
2.02155 1.19897 5.31074 0 0 0 255 255 255 255
2.31737 0.359236 5.8144 0 0 0 255 255 255 255
2.26439 0.351741 5.83608 0 0 0 255 255 255 255
2.30765 0.365971 5.81753 0 0 0 255 255 255 255
1.7094 0.490488 5.78468 0 0 0 255 255 255 255
1.64841 1.17574 5.61041 0 0 0 255 255 255 255
1.6919 1.12193 5.62221 0 0 0 255 255 255 255
1.63489 1.17993 5.6105 0 0 0 255 255 255 255
2.95175 1.27478 5.62403 0 0 0 255 255 255 255
2.85663 1.33435 5.55433 0 0 0 255 255 255 255
2.84633 1.33818 5.55316 0 0 0 255 255 255 255
2.85981 1.37052 5.56397 0 0 0 255 255 255 255
2.7686 1.41546 5.83108 0 0 0 255 255 255 255
2.9704 1.41692 5.79801 0 0 0 255 255 255 255
2.75101 1.43955 5.92922 0 0 0 255 255 255 255
2.84011 1.37918 5.58294 0 0 0 255 255 255 255
2.98148 1.38901 5.80316 0 0 0 255 255 255 255
2.25917 1.43021 5.73165 0 0 0 255 255 255 255
2.21665 1.44132 5.91063 0 0 0 255 255 255 255
1.91368 1.85125 5.91576 0 0 0 255 255 255 255
3.57216 1.37056 5.76928 0 0 0 255 255 255 255
3.64871 1.40529 5.81535 0 0 0 255 255 255 255
3.84417 -0.165413 7.85053 0 0 0 255 255 255 255
3.86633 -0.165735 7.84383 0 0 0 255 255 255 255
3.93593 -0.187685 7.99453 0 0 0 255 255 255 255
