ply
format ascii 1.0
comment VCGLIB generated
element vertex 458
property float x
property float y
property float z
property float nx
property float ny
property float nz
property uchar red
property uchar green
property uchar blue
property uchar alpha
element face 0
property list uchar int vertex_indices
end_header
2.6491 0.79137 4.03188 0 0 0 128 128 0 255
2.64913 0.791317 4.02888 0 0 0 128 128 0 255
2.63359 1.0346 3.95392 0 0 0 128 128 0 255
2.64394 0.729754 3.95549 0 0 0 128 128 0 255
2.63818 0.752187 3.93467 0 0 0 128 128 0 255
2.63099 0.872812 3.92289 0 0 0 128 128 0 255
2.62529 0.89134 3.90736 0 0 0 128 128 0 255
2.624 0.908267 3.90517 0 0 0 128 128 0 255
2.62252 0.901125 3.90061 0 0 0 128 128 0 255
2.62246 0.893102 3.89982 0 0 0 128 128 0 255
2.61004 0.907159 3.87202 0 0 0 128 128 0 255
2.55679 1.07098 3.79623 0 0 0 128 128 0 255
2.56884 0.544007 3.79742 0 0 0 128 128 0 255
2.57511 0.262014 3.79807 0 0 0 128 128 0 255
2.56741 0.378726 3.79233 0 0 0 128 128 0 255
2.56149 0.521569 3.78903 0 0 0 128 128 0 255
2.56072 0.542551 3.78865 0 0 0 128 128 0 255
2.54288 1.03015 3.77986 0 0 0 128 128 0 255
2.53865 1.03091 3.77556 0 0 0 128 128 0 255
2.55075 0.544009 3.77873 0 0 0 128 128 0 255
2.52595 1.04224 3.7636 0 0 0 128 128 0 255
2.52426 1.06818 3.76246 0 0 0 128 128 0 255
2.54661 0.375602 3.77227 0 0 0 128 128 0 255
2.54279 0.459493 3.7701 0 0 0 128 128 0 255
2.54438 0.395506 3.77059 0 0 0 128 128 0 255
2.5418 0.445425 3.76903 0 0 0 128 128 0 255
2.54101 0.446385 3.76836 0 0 0 128 128 0 255
2.54176 0.384358 3.76817 0 0 0 128 128 0 255
2.51691 1.04277 3.75565 0 0 0 128 128 0 255
2.53809 0.401186 3.76529 0 0 0 128 128 0 255
2.50058 1.40531 3.74654 0 0 0 128 128 0 255
2.53531 0.435078 3.7634 0 0 0 128 128 0 255
2.51213 1.06855 3.75198 0 0 0 128 128 0 255
2.52186 0.502464 3.75348 0 0 0 128 128 0 255
2.52022 0.525405 3.75246 0 0 0 128 128 0 255
2.51889 0.496309 3.75119 0 0 0 128 128 0 255
2.52002 0.399269 3.75116 0 0 0 128 128 0 255
2.52099 0.306226 3.75108 0 0 0 128 128 0 255
2.517 0.415135 3.74911 0 0 0 128 128 0 255
2.51263 0.422927 3.74609 0 0 0 128 128 0 255
2.50738 0.543786 3.74334 0 0 0 128 128 0 255
2.50702 0.553778 3.74316 0 0 0 128 128 0 255
2.50868 0.485794 3.74382 0 0 0 128 128 0 255
2.48576 1.06723 3.73221 0 0 0 128 128 0 255
2.5092 0.403741 3.74361 0 0 0 128 128 0 255
2.50891 0.411735 3.74347 0 0 0 128 128 0 255
2.48348 1.08414 3.73079 0 0 0 128 128 0 255
2.50663 0.42864 3.74205 0 0 0 128 128 0 255
2.48455 1.03214 3.73117 0 0 0 128 128 0 255
2.5044 0.466568 3.74081 0 0 0 128 128 0 255
2.4775 1.20196 3.72755 0 0 0 128 128 0 255
2.50423 0.425521 3.74045 0 0 0 128 128 0 255
2.50222 0.480475 3.73946 0 0 0 128 128 0 255
2.50259 0.447462 3.73951 0 0 0 128 128 0 255
2.47938 1.08193 3.72807 0 0 0 128 128 0 255
2.50756 0.288554 3.74183 0 0 0 128 128 0 255
2.50405 0.384474 3.7401 0 0 0 128 128 0 255
2.49546 0.550215 3.7355 0 0 0 128 128 0 255
2.49585 0.493181 3.73546 0 0 0 128 128 0 255
2.47291 1.0506 3.72383 0 0 0 128 128 0 255
2.49451 0.390023 3.73419 0 0 0 128 128 0 255
2.4929 0.433986 3.73339 0 0 0 128 128 0 255
2.48791 0.546852 3.73084 0 0 0 128 128 0 255
2.4921 0.408926 3.73282 0 0 0 128 128 0 255
2.46951 1.02641 3.72169 0 0 0 128 128 0 255
2.46817 1.03936 3.72094 0 0 0 128 128 0 255
2.49399 0.309927 3.73359 0 0 0 128 128 0 255
2.48859 0.386741 3.7307 0 0 0 128 128 0 255
2.48259 0.550605 3.72774 0 0 0 128 128 0 255
2.48768 0.387699 3.73018 0 0 0 128 128 0 255
2.48928 0.272673 3.73078 0 0 0 128 128 0 255
2.48427 0.385538 3.72826 0 0 0 128 128 0 255
2.45679 1.08887 3.71461 0 0 0 128 128 0 255
2.48011 0.427381 3.72606 0 0 0 128 128 0 255
2.45345 1.08371 3.7128 0 0 0 128 128 0 255
2.47813 0.288171 3.72482 0 0 0 128 128 0 255
2.47575 0.280055 3.72361 0 0 0 128 128 0 255
2.44181 1.08518 3.70687 0 0 0 128 128 0 255
2.42973 1.36587 3.70094 0 0 0 128 128 0 255
2.45965 0.523527 3.7157 0 0 0 128 128 0 255
2.45646 0.536394 3.71419 0 0 0 128 128 0 255
2.43513 1.04485 3.70377 0 0 0 128 128 0 255
2.45228 0.551218 3.71226 0 0 0 128 128 0 255
2.45557 0.411253 3.71396 0 0 0 128 128 0 255
2.45488 0.430237 3.71362 0 0 0 128 128 0 255
2.45422 0.398182 3.71339 0 0 0 128 128 0 255
2.44965 0.498059 3.71119 0 0 0 128 128 0 255
2.4473 0.536986 3.71009 0 0 0 128 128 0 255
2.44584 0.551932 3.70943 0 0 0 128 128 0 255
2.42591 1.07146 3.69967 0 0 0 128 128 0 255
2.45025 0.380993 3.71173 0 0 0 128 128 0 255
2.44652 0.38183 3.71018 0 0 0 128 128 0 255
2.4195 1.04416 3.69712 0 0 0 128 128 0 255
2.441 0.405607 3.7079 0 0 0 128 128 0 255
2.43636 0.532501 3.70561 0 0 0 128 128 0 255
2.40869 1.23783 3.69218 0 0 0 128 128 0 255
2.43276 0.554361 3.70414 0 0 0 128 128 0 255
2.41219 1.09087 3.69411 0 0 0 128 128 0 255
2.40886 1.1818 3.69247 0 0 0 128 128 0 255
2.40824 1.19878 3.69217 0 0 0 128 128 0 255
2.43699 0.387419 3.70644 0 0 0 128 128 0 255
2.43334 0.410278 3.70499 0 0 0 128 128 0 255
2.40351 1.2256 3.69029 0 0 0 128 128 0 255
2.40951 1.03572 3.69338 0 0 0 128 128 0 255
2.40908 1.04771 3.69316 0 0 0 128 128 0 255
2.43241 0.384218 3.70478 0 0 0 128 128 0 255
2.42623 0.553078 3.70174 0 0 0 128 128 0 255
2.40682 1.08364 3.69217 0 0 0 128 128 0 255
2.40414 1.0535 3.69139 0 0 0 128 128 0 255
2.42159 0.550878 3.70013 0 0 0 128 128 0 255
2.4138 0.763701 3.69629 0 0 0 128 128 0 255
2.42221 0.507873 3.70058 0 0 0 128 128 0 255
2.42155 0.525858 3.70026 0 0 0 128 128 0 255
2.41951 0.529774 3.69955 0 0 0 128 128 0 255
2.4012 1.03036 3.69052 0 0 0 128 128 0 255
2.39944 1.07832 3.68966 0 0 0 128 128 0 255
2.42269 0.416827 3.70127 0 0 0 128 128 0 255
2.42076 0.469783 3.70032 0 0 0 128 128 0 255
2.41601 0.547638 3.69829 0 0 0 128 128 0 255
2.40665 0.777406 3.69385 0 0 0 128 128 0 255
2.41915 0.409672 3.70017 0 0 0 128 128 0 255
2.41779 0.420622 3.69967 0 0 0 128 128 0 255
2.41658 0.453595 3.69908 0 0 0 128 128 0 255
2.41629 0.461588 3.69894 0 0 0 128 128 0 255
2.41819 0.383613 3.70004 0 0 0 128 128 0 255
2.39329 1.03803 3.68795 0 0 0 128 128 0 255
2.41215 0.496439 3.69742 0 0 0 128 128 0 255
2.41025 0.548395 3.69649 0 0 0 128 128 0 255
2.3841 1.23678 3.68379 0 0 0 128 128 0 255
2.41239 0.437407 3.69791 0 0 0 128 128 0 255
2.41002 0.502353 3.69674 0 0 0 128 128 0 255
2.40229 0.687159 3.69313 0 0 0 128 128 0 255
2.38961 1.03387 3.68687 0 0 0 128 128 0 255
2.41194 0.39736 3.69807 0 0 0 128 128 0 255
2.38316 1.15769 3.68408 0 0 0 128 128 0 255
2.38973 0.951819 3.68752 0 0 0 128 128 0 255
2.40498 0.482129 3.69544 0 0 0 128 128 0 255
2.41236 0.254279 3.69928 0 0 0 128 128 0 255
2.37678 1.20045 3.68196 0 0 0 128 128 0 255
2.39961 0.549953 3.69343 0 0 0 128 128 0 255
2.40449 0.390046 3.69605 0 0 0 128 128 0 255
2.40259 0.442002 3.69511 0 0 0 128 128 0 255
2.394 0.676807 3.69088 0 0 0 128 128 0 255
2.38854 0.799665 3.68841 0 0 0 128 128 0 255
2.40757 0.253079 3.69801 0 0 0 128 128 0 255
2.39729 0.533846 3.69295 0 0 0 128 128 0 255
2.39997 0.407871 3.69472 0 0 0 128 128 0 255
2.40208 0.296883 3.69623 0 0 0 128 128 0 255
2.38494 0.765494 3.68779 0 0 0 128 128 0 255
2.39336 0.455632 3.69266 0 0 0 128 128 0 255
2.38371 0.719413 3.68791 0 0 0 128 128 0 255
2.39353 0.397601 3.69325 0 0 0 128 128 0 255
2.36737 1.08599 3.68061 0 0 0 128 128 0 255
2.39652 0.262634 3.69523 0 0 0 128 128 0 255
2.39366 0.287534 3.69435 0 0 0 128 128 0 255
2.38448 0.538325 3.68983 0 0 0 128 128 0 255
2.39053 0.319428 3.69335 0 0 0 128 128 0 255
2.38929 0.3534 3.69273 0 0 0 128 128 0 255
2.38242 0.541244 3.68935 0 0 0 128 128 0 255
2.35758 1.16664 3.67766 0 0 0 128 128 0 255
2.38826 0.301325 3.69305 0 0 0 128 128 0 255
2.37214 0.741958 3.68511 0 0 0 128 128 0 255
2.38834 0.272309 3.69338 0 0 0 128 128 0 255
2.37709 0.553036 3.68812 0 0 0 128 128 0 255
2.35801 1.0746 3.67872 0 0 0 128 128 0 255
2.38605 0.281223 3.69282 0 0 0 128 128 0 255
2.35717 1.07057 3.67859 0 0 0 128 128 0 255
2.38511 0.280184 3.69265 0 0 0 128 128 0 255
2.38098 0.393091 3.69062 0 0 0 128 128 0 255
2.37988 0.423066 3.69008 0 0 0 128 128 0 255
2.37813 0.444009 3.68951 0 0 0 128 128 0 255
2.36804 0.71978 3.68454 0 0 0 128 128 0 255
2.36768 0.729771 3.68436 0 0 0 128 128 0 255
2.38384 0.261122 3.69262 0 0 0 128 128 0 255
2.35438 1.06645 3.6781 0 0 0 128 128 0 255
2.38337 0.247094 3.69269 0 0 0 128 128 0 255
2.36451 0.762665 3.68339 0 0 0 128 128 0 255
2.364 0.749637 3.68345 0 0 0 128 128 0 255
2.34737 1.20426 3.67525 0 0 0 128 128 0 255
2.37895 0.31396 3.69112 0 0 0 128 128 0 255
2.36854 0.54469 3.68662 0 0 0 128 128 0 255
2.37658 0.297856 3.6909 0 0 0 128 128 0 255
2.3669 0.562636 3.68612 0 0 0 128 128 0 255
2.35736 0.823419 3.68142 0 0 0 128 128 0 255
2.34796 1.05319 3.67711 0 0 0 128 128 0 255
2.34478 1.08608 3.6762 0 0 0 128 128 0 255
2.36734 0.44258 3.68764 0 0 0 128 128 0 255
2.35652 0.738334 3.68231 0 0 0 128 128 0 255
2.36204 0.560443 3.68536 0 0 0 128 128 0 255
2.35608 0.723307 3.68242 0 0 0 128 128 0 255
2.36109 0.532388 3.68556 0 0 0 128 128 0 255
2.35275 0.760199 3.68146 0 0 0 128 128 0 255
2.36079 0.513365 3.68576 0 0 0 128 128 0 255
2.36313 0.422402 3.68726 0 0 0 128 128 0 255
2.33831 1.07382 3.67537 0 0 0 128 128 0 255
2.35614 0.559211 3.68451 0 0 0 128 128 0 255
2.33421 1.15871 3.6737 0 0 0 128 128 0 255
2.36451 0.303385 3.68899 0 0 0 128 128 0 255
2.34733 0.745978 3.68088 0 0 0 128 128 0 255
2.36406 0.261343 3.68948 0 0 0 128 128 0 255
2.35682 0.432162 3.68628 0 0 0 128 128 0 255
2.36153 0.249237 3.68933 0 0 0 128 128 0 255
2.32962 1.12151 3.6736 0 0 0 128 128 0 255
2.3562 0.286053 3.68821 0 0 0 128 128 0 255
2.33693 0.758583 3.67948 0 0 0 128 128 0 255
2.34343 0.553716 3.68307 0 0 0 128 128 0 255
2.34373 0.463676 3.68441 0 0 0 128 128 0 255
2.32928 0.831332 3.67769 0 0 0 128 128 0 255
2.33253 0.715391 3.67969 0 0 0 128 128 0 255
2.34663 0.302696 3.68705 0 0 0 128 128 0 255
2.34673 0.272683 3.68751 0 0 0 128 128 0 255
2.3407 0.437546 3.68454 0 0 0 128 128 0 255
2.34106 0.400539 3.68513 0 0 0 128 128 0 255
2.33809 0.481471 3.68367 0 0 0 128 128 0 255
2.31631 1.07698 3.67293 0 0 0 128 128 0 255
2.31612 1.05496 3.67325 0 0 0 128 128 0 255
2.31556 1.04293 3.6734 0 0 0 128 128 0 255
2.33733 0.420409 3.68455 0 0 0 128 128 0 255
2.33159 0.550263 3.68214 0 0 0 128 128 0 255
2.31203 1.08482 3.6725 0 0 0 128 128 0 255
2.34045 0.253435 3.68737 0 0 0 128 128 0 255
2.33264 0.412227 3.68439 0 0 0 128 128 0 255
2.30914 1.05469 3.67281 0 0 0 128 128 0 255
2.32906 0.428102 3.68396 0 0 0 128 128 0 255
2.30358 1.04248 3.67276 0 0 0 128 128 0 255
2.32024 0.559843 3.68142 0 0 0 128 128 0 255
2.30022 1.05236 3.67248 0 0 0 128 128 0 255
2.32759 0.276967 3.68643 0 0 0 128 128 0 255
2.32459 0.276856 3.68637 0 0 0 128 128 0 255
2.32311 0.262795 3.6866 0 0 0 128 128 0 255
2.28717 1.24498 3.66889 0 0 0 128 128 0 255
2.31684 0.406638 3.68399 0 0 0 128 128 0 255
2.3195 0.306685 3.68579 0 0 0 128 128 0 255
2.30272 0.765303 3.67752 0 0 0 128 128 0 255
2.28939 1.07497 3.67193 0 0 0 128 128 0 255
2.28863 1.04093 3.67255 0 0 0 128 128 0 255
2.30741 0.500341 3.68231 0 0 0 128 128 0 255
2.29852 0.716125 3.67843 0 0 0 128 128 0 255
2.28587 1.06184 3.67219 0 0 0 128 128 0 255
2.28458 1.06979 3.67206 0 0 0 128 128 0 255
2.31359 0.24944 3.68687 0 0 0 128 128 0 255
2.31245 0.280415 3.68631 0 0 0 128 128 0 255
2.28332 1.07675 3.67195 0 0 0 128 128 0 255
2.31023 0.259324 3.68676 0 0 0 128 128 0 255
2.30945 0.253293 3.68689 0 0 0 128 128 0 255
2.29131 0.748881 3.67796 0 0 0 128 128 0 255
2.27365 1.20447 3.66978 0 0 0 128 128 0 255
2.3061 0.29019 3.68629 0 0 0 128 128 0 255
2.30148 0.389072 3.68455 0 0 0 128 128 0 255
2.30359 0.304107 3.68612 0 0 0 128 128 0 255
2.30251 0.306069 3.68612 0 0 0 128 128 0 255
2.29674 0.463938 3.68328 0 0 0 128 128 0 255
2.2952 0.505903 3.68252 0 0 0 128 128 0 255
2.29116 0.561785 3.68161 0 0 0 128 128 0 255
2.28363 0.767614 3.67789 0 0 0 128 128 0 255
2.28539 0.555578 3.68206 0 0 0 128 128 0 255
2.28893 0.431645 3.68437 0 0 0 128 128 0 255
2.28553 0.524568 3.68269 0 0 0 128 128 0 255
2.28972 0.382651 3.68532 0 0 0 128 128 0 255
2.28928 0.394641 3.6851 0 0 0 128 128 0 255
2.28402 0.538521 3.68251 0 0 0 128 128 0 255
2.27586 0.734323 3.67905 0 0 0 128 128 0 255
2.2874 0.391573 3.68531 0 0 0 128 128 0 255
2.28073 0.519397 3.68317 0 0 0 128 128 0 255
2.28394 0.404458 3.68532 0 0 0 128 128 0 255
2.28145 0.472401 3.6841 0 0 0 128 128 0 255
2.28788 0.269535 3.68784 0 0 0 128 128 0 255
2.28119 0.452383 3.68455 0 0 0 128 128 0 255
2.27402 0.64822 3.68102 0 0 0 128 128 0 255
2.28534 0.284453 3.68776 0 0 0 128 128 0 255
2.28448 0.253409 3.68851 0 0 0 128 128 0 255
2.25074 1.17564 3.67189 0 0 0 128 128 0 255
2.27424 0.506165 3.68406 0 0 0 128 128 0 255
2.26635 0.721985 3.68017 0 0 0 128 128 0 255
2.27949 0.30826 3.68784 0 0 0 128 128 0 255
2.27565 0.386161 3.68654 0 0 0 128 128 0 255
2.27019 0.508026 3.68446 0 0 0 128 128 0 255
2.24939 1.04954 3.67482 0 0 0 128 128 0 255
2.24822 1.08151 3.67424 0 0 0 128 128 0 255
2.26788 0.489938 3.68514 0 0 0 128 128 0 255
2.25639 0.722643 3.68133 0 0 0 128 128 0 255
2.27053 0.281942 3.68955 0 0 0 128 128 0 255
2.2547 0.714582 3.68175 0 0 0 128 128 0 255
2.24902 0.761409 3.68148 0 0 0 128 128 0 255
2.25008 0.678411 3.68328 0 0 0 128 128 0 255
2.26445 0.258726 3.691 0 0 0 128 128 0 255
2.22855 1.23991 3.67331 0 0 0 128 128 0 255
2.24398 0.737229 3.68286 0 0 0 128 128 0 255
2.21898 1.39365 3.67119 0 0 0 128 128 0 255
2.25773 0.30752 3.69094 0 0 0 128 128 0 255
2.22951 1.05187 3.6777 0 0 0 128 128 0 255
2.22794 1.06782 3.67758 0 0 0 128 128 0 255
2.25245 0.290338 3.69233 0 0 0 128 128 0 255
2.24309 0.546125 3.68772 0 0 0 128 128 0 255
2.24167 0.558083 3.68769 0 0 0 128 128 0 255
2.23405 0.712889 3.68529 0 0 0 128 128 0 255
2.2321 0.685815 3.68638 0 0 0 128 128 0 255
2.22947 0.757756 3.68509 0 0 0 128 128 0 255
2.23576 0.558889 3.68888 0 0 0 128 128 0 255
2.2273 0.736677 3.6861 0 0 0 128 128 0 255
2.21456 1.05838 3.68051 0 0 0 128 128 0 255
2.21064 1.16529 3.67858 0 0 0 128 128 0 255
2.23337 0.490786 3.69118 0 0 0 128 128 0 255
2.22551 0.705608 3.68731 0 0 0 128 128 0 255
2.21075 1.08226 3.68074 0 0 0 128 128 0 255
2.21042 1.03824 3.68199 0 0 0 128 128 0 255
2.22776 0.537621 3.69125 0 0 0 128 128 0 255
2.2063 1.12413 3.68068 0 0 0 128 128 0 255
2.23497 0.313776 3.69552 0 0 0 128 128 0 255
2.23168 0.297665 3.69678 0 0 0 128 128 0 255
2.21457 0.765276 3.68835 0 0 0 128 128 0 255
2.2028 1.08701 3.68255 0 0 0 128 128 0 255
2.23122 0.283646 3.69728 0 0 0 128 128 0 255
2.20257 1.06699 3.68316 0 0 0 128 128 0 255
2.21935 0.555358 3.69289 0 0 0 128 128 0 255
2.20122 1.05095 3.68395 0 0 0 128 128 0 255
2.2006 1.06793 3.68365 0 0 0 128 128 0 255
2.18919 1.37967 3.67803 0 0 0 128 128 0 255
2.22281 0.434428 3.69532 0 0 0 128 128 0 255
2.21961 0.495347 3.69448 0 0 0 128 128 0 255
2.2187 0.520326 3.69403 0 0 0 128 128 0 255
2.21826 0.532316 3.69382 0 0 0 128 128 0 255
2.22694 0.268505 3.69884 0 0 0 128 128 0 255
2.21732 0.505277 3.69483 0 0 0 128 128 0 255
2.21551 0.528228 3.69469 0 0 0 128 128 0 255
2.21516 0.485203 3.69601 0 0 0 128 128 0 255
2.22062 0.257302 3.70095 0 0 0 128 128 0 255
2.21027 0.540067 3.69586 0 0 0 128 128 0 255
2.20839 0.513 3.69721 0 0 0 128 128 0 255
2.20505 0.551908 3.69709 0 0 0 128 128 0 255
2.21342 0.297091 3.70199 0 0 0 128 128 0 255
2.21265 0.266058 3.70315 0 0 0 128 128 0 255
2.21093 0.287011 3.70308 0 0 0 128 128 0 255
2.20921 0.255949 3.70457 0 0 0 128 128 0 255
2.2075 0.30291 3.70373 0 0 0 128 128 0 255
2.19537 0.556613 3.70011 0 0 0 128 128 0 255
2.20111 0.270708 3.70692 0 0 0 128 128 0 255
2.19586 0.388581 3.70514 0 0 0 128 128 0 255
2.19454 0.424552 3.70449 0 0 0 128 128 0 255
2.16482 1.15986 3.69227 0 0 0 128 128 0 255
2.18905 0.39538 3.70746 0 0 0 128 128 0 255
2.18839 0.413365 3.70714 0 0 0 128 128 0 255
2.14698 1.36738 3.69252 0 0 0 128 128 0 255
2.17559 0.560025 3.70746 0 0 0 128 128 0 255
2.17602 0.523029 3.7085 0 0 0 128 128 0 255
2.17896 0.392084 3.71164 0 0 0 128 128 0 255
2.1552 1.04154 3.69993 0 0 0 128 128 0 255
2.15399 1.04951 3.70017 0 0 0 128 128 0 255
2.15168 1.08745 3.69988 0 0 0 128 128 0 255
2.15061 1.06642 3.70105 0 0 0 128 128 0 255
2.16171 0.538623 3.71427 0 0 0 128 128 0 255
2.16157 0.394591 3.71945 0 0 0 128 128 0 255
2.15745 0.482493 3.7183 0 0 0 128 128 0 255
2.15489 0.552435 3.71704 0 0 0 128 128 0 255
2.15389 0.555407 3.71743 0 0 0 128 128 0 255
2.13022 1.17787 3.70665 0 0 0 128 128 0 255
2.15438 0.468406 3.72034 0 0 0 128 128 0 255
2.15285 0.510371 3.71958 0 0 0 128 128 0 255
2.15478 0.384402 3.72322 0 0 0 128 128 0 255
2.14825 0.466238 3.7236 0 0 0 128 128 0 255
2.14736 0.466214 3.72407 0 0 0 128 128 0 255
2.12246 1.05063 3.71544 0 0 0 128 128 0 255
2.14262 0.428082 3.72812 0 0 0 128 128 0 255
2.1398 0.505018 3.72673 0 0 0 128 128 0 255
2.13856 0.53899 3.72612 0 0 0 128 128 0 255
2.13879 0.41398 3.73084 0 0 0 128 128 0 255
2.13818 0.406963 3.73147 0 0 0 128 128 0 255
2.11449 1.05442 3.7198 0 0 0 128 128 0 255
2.10906 1.13229 3.71992 0 0 0 128 128 0 255
2.10819 1.06226 3.72325 0 0 0 128 128 0 255
2.12606 0.550666 3.73299 0 0 0 128 128 0 255
2.12722 0.49569 3.73451 0 0 0 128 128 0 255
2.13024 0.389757 3.73695 0 0 0 128 128 0 255
2.12273 0.52558 3.73609 0 0 0 128 128 0 255
2.12598 0.413652 3.73865 0 0 0 128 128 0 255
2.10018 1.05006 3.7288 0 0 0 128 128 0 255
2.12376 0.382594 3.74138 0 0 0 128 128 0 255
2.11394 0.514362 3.74233 0 0 0 128 128 0 255
2.11378 0.451354 3.74517 0 0 0 128 128 0 255
2.11358 0.434349 3.74604 0 0 0 128 128 0 255
2.11116 0.500294 3.74485 0 0 0 128 128 0 255
2.11086 0.486286 3.74568 0 0 0 128 128 0 255
2.10854 0.527232 3.74552 0 0 0 128 128 0 255
2.11269 0.391326 3.74854 0 0 0 128 128 0 255
2.11189 0.413307 3.74815 0 0 0 128 128 0 255
2.11167 0.419302 3.74804 0 0 0 128 128 0 255
2.08595 1.05572 3.73831 0 0 0 128 128 0 255
2.101 0.556056 3.74968 0 0 0 128 128 0 255
2.1001 0.428034 3.75621 0 0 0 128 128 0 255
2.09782 0.446982 3.75709 0 0 0 128 128 0 255
2.08774 0.551757 3.7602 0 0 0 128 128 0 255
2.087 0.508742 3.76289 0 0 0 128 128 0 255
2.08796 0.398768 3.76745 0 0 0 128 128 0 255
2.08724 0.397753 3.76811 0 0 0 128 128 0 255
2.05832 1.0851 3.759 0 0 0 128 128 0 255
2.07612 0.557511 3.76984 0 0 0 128 128 0 255
2.08163 0.386637 3.77359 0 0 0 128 128 0 255
2.04781 1.16988 3.7642 0 0 0 128 128 0 255
2.05009 1.04794 3.76845 0 0 0 128 128 0 255
2.04001 1.20573 3.76978 0 0 0 128 128 0 255
2.02106 0.169831 3.86172 0 0 0 128 128 0 255
2.01348 0.140823 3.87803 0 0 0 128 128 0 255
1.98279 0.918175 3.86848 0 0 0 128 128 0 255
1.98787 0.550502 3.89327 0 0 0 128 128 0 255
1.98861 0.477575 3.8992 0 0 0 128 128 0 255
1.98511 0.54253 3.90081 0 0 0 128 128 0 255
1.98057 0.656439 3.89968 0 0 0 128 128 0 255
1.98332 0.512584 3.90881 0 0 0 128 128 0 255
1.99176 0.225849 3.91962 0 0 0 128 128 0 255
1.98675 0.362735 3.91715 0 0 0 128 128 0 255
1.97805 0.538626 3.9206 0 0 0 128 128 0 255
1.97969 0.44374 3.92802 0 0 0 128 128 0 255
1.98165 0.373811 3.9312 0 0 0 128 128 0 255
1.97643 0.508706 3.92972 0 0 0 128 128 0 255
1.97841 0.415817 3.93619 0 0 0 128 128 0 255
1.97428 0.528724 3.93416 0 0 0 128 128 0 255
1.97896 0.385857 3.93865 0 0 0 128 128 0 255
1.98501 0.213008 3.94273 0 0 0 128 128 0 255
1.98617 0.174048 3.9444 0 0 0 128 128 0 255
1.97875 0.37688 3.94074 0 0 0 128 128 0 255
1.98609 0.162074 3.94655 0 0 0 128 128 0 255
1.97786 0.379901 3.94359 0 0 0 128 128 0 255
1.97553 0.38996 3.95116 0 0 0 128 128 0 255
1.95607 0.915532 3.94266 0 0 0 128 128 0 255
1.95566 0.926523 3.94246 0 0 0 128 128 0 255
1.96523 0.658755 3.94826 0 0 0 128 128 0 255
1.9534 0.934602 3.95109 0 0 0 128 128 0 255
1.97505 0.337109 3.96284 0 0 0 128 128 0 255
1.96904 0.495988 3.96096 0 0 0 128 128 0 255
1.97182 0.409081 3.96449 0 0 0 128 128 0 255
1.97283 0.376119 3.96606 0 0 0 128 128 0 255
1.97189 0.362219 3.97418 0 0 0 128 128 0 255
1.96725 0.471175 3.97616 0 0 0 128 128 0 255
1.96536 0.476323 3.98795 0 0 0 128 128 0 255
1.96237 0.548304 3.98963 0 0 0 128 128 0 255
1.96898 0.358503 3.99603 0 0 0 128 128 0 255
1.95966 0.599374 3.99667 0 0 0 128 128 0 255
1.95974 0.592409 3.99878 0 0 0 128 128 0 255
1.96285 0.498547 4.00446 0 0 0 128 128 0 255
1.96805 0.348733 4.01116 0 0 0 128 128 0 255
1.97584 0.133927 4.01603 0 0 0 128 128 0 255
1.97064 0.269878 4.01757 0 0 0 128 128 0 255
1.94928 0.84455 4.0162 0 0 0 128 128 0 255
1.96779 0.337988 4.02634 0 0 0 128 128 0 255
1.97365 0.176193 4.03325 0 0 0 128 128 0 255
1.95188 0.770734 4.02453 0 0 0 128 128 0 255
1.97549 0.125306 4.03817 0 0 0 128 128 0 255
1.95919 0.570954 4.03114 0 0 0 128 128 0 255
1.95905 0.574951 4.03106 0 0 0 128 128 0 255
1.95832 0.596007 4.03469 0 0 0 128 128 0 255
1.95801 0.605018 4.03552 0 0 0 128 128 0 255
1.94837 0.872909 4.03669 0 0 0 128 128 0 255
1.95044 0.825087 4.04455 0 0 0 128 128 0 255
1.95046 0.837219 4.05132 0 0 0 128 128 0 255
1.94956 0.88941 4.06133 0 0 0 128 128 0 255
1.95597 0.766851 4.07842 0 0 0 128 128 0 255
1.95264 0.902975 4.08583 0 0 0 128 128 0 255
1.95436 0.881116 4.09114 0 0 0 128 128 0 255
