ply
format ascii 1.0
comment VCGLIB generated
element vertex 212
property float x
property float y
property float z
property float nx
property float ny
property float nz
property uchar red
property uchar green
property uchar blue
property uchar alpha
element face 0
property list uchar int vertex_indices
end_header
-2.98693 0.64836 5.27987 0 0 0 255 255 255 255
-2.21425 0.14586 5.2219 0 0 0 255 255 255 255
-1.32005 -0.0723144 4.39012 0 0 0 255 255 255 255
-1.03108 -0.12832 4.23762 0 0 0 255 255 255 255
-1.02984 -0.148052 4.2136 0 0 0 255 255 255 255
-1.00846 -0.149398 4.20715 0 0 0 255 255 255 255
-0.865066 -0.152596 4.24327 0 0 0 255 255 255 255
-1.20588 0.0729484 4.30467 0 0 0 255 255 255 255
-1.20823 0.421391 4.3734 0 0 0 255 255 255 255
-0.832241 0.214552 4.10961 0 0 0 255 255 255 255
-3.52996 0.146624 6.22572 0 0 0 255 255 255 255
-3.08271 0.162294 6.44786 0 0 0 255 255 255 255
-3.26167 0.0925483 6.11373 0 0 0 255 255 255 255
-3.52164 0.143207 6.22391 0 0 0 255 255 255 255
-2.93298 0.682941 5.42476 0 0 0 255 255 255 255
-3.59554 0.241537 6.35162 0 0 0 255 255 255 255
-2.91419 0.637728 5.43222 0 0 0 255 255 255 255
-3.59399 0.237855 6.34635 0 0 0 255 255 255 255
-2.72776 1.39301 5.12453 0 0 0 255 255 255 255
-2.72351 1.41204 5.27568 0 0 0 255 255 255 255
-2.77084 1.39059 5.18038 0 0 0 255 255 255 255
-2.81883 1.58399 4.97922 0 0 0 255 255 255 255
-2.95618 1.00833 5.28497 0 0 0 255 255 255 255
-2.73721 1.42907 5.15773 0 0 0 255 255 255 255
-2.96564 0.996407 5.27869 0 0 0 255 255 255 255
-2.79826 1.57279 4.97304 0 0 0 255 255 255 255
-1.26516 1.03882 4.39059 0 0 0 255 255 255 255
-1.31765 1.00543 4.43025 0 0 0 255 255 255 255
-1.68436 1.0941 4.71974 0 0 0 255 255 255 255
-0.889012 1.03472 4.11773 0 0 0 255 255 255 255
-0.906353 1.36879 4.20341 0 0 0 255 255 255 255
-0.796279 0.972134 3.97145 0 0 0 255 255 255 255
-0.725634 1.17479 4.11207 0 0 0 255 255 255 255
-0.713641 1.19652 4.01362 0 0 0 255 255 255 255
-0.676647 1.12101 4.00132 0 0 0 255 255 255 255
-0.760926 1.17501 4.01344 0 0 0 255 255 255 255
-0.624653 1.16479 4.04332 0 0 0 255 255 255 255
-0.611273 1.18584 4.03213 0 0 0 255 255 255 255
-0.591458 1.09882 4.00947 0 0 0 255 255 255 255
-0.624492 1.27172 3.94924 0 0 0 255 255 255 255
-0.509201 1.13384 4.11231 0 0 0 255 255 255 255
-0.573501 1.27774 4.00054 0 0 0 255 255 255 255
-0.586182 1.14436 4.07624 0 0 0 255 255 255 255
-0.615283 1.18972 4.03299 0 0 0 255 255 255 255
-0.625615 1.16193 4.04861 0 0 0 255 255 255 255
-0.574098 1.26999 3.99695 0 0 0 255 255 255 255
-0.631317 1.20227 4.09286 0 0 0 255 255 255 255
-0.632173 1.20383 4.09022 0 0 0 255 255 255 255
-0.532684 1.14352 4.10551 0 0 0 255 255 255 255
-0.623831 1.19555 4.06204 0 0 0 255 255 255 255
-0.626404 1.27058 3.94843 0 0 0 255 255 255 255
-0.626199 1.27603 3.94823 0 0 0 255 255 255 255
-0.616452 1.18907 4.04902 0 0 0 255 255 255 255
-0.526026 1.12238 4.00414 0 0 0 255 255 255 255
-0.793835 1.21134 4.22572 0 0 0 255 255 255 255
-0.844136 1.25264 4.26463 0 0 0 255 255 255 255
-0.817101 1.22799 4.23955 0 0 0 255 255 255 255
-0.804982 1.21515 4.23461 0 0 0 255 255 255 255
-0.838415 1.1869 4.15063 0 0 0 255 255 255 255
-1.21418 1.58849 4.69882 0 0 0 255 255 255 255
-1.14576 1.49505 4.59614 0 0 0 255 255 255 255
-2.93474 0.853149 5.36513 0 0 0 255 255 255 255
-2.99936 1.08444 5.35646 0 0 0 255 255 255 255
-3.00775 1.02201 5.37948 0 0 0 255 255 255 255
-2.94494 1.06605 5.34128 0 0 0 255 255 255 255
-3.01069 1.04888 5.35138 0 0 0 255 255 255 255
-2.88403 0.82507 5.40804 0 0 0 255 255 255 255
-3.00967 1.07138 5.35795 0 0 0 255 255 255 255
-3.00983 1.06041 5.34819 0 0 0 255 255 255 255
-2.99547 1.11113 5.32273 0 0 0 255 255 255 255
-2.90526 1.39469 5.51299 0 0 0 255 255 255 255
-2.912 1.2638 5.46143 0 0 0 255 255 255 255
-2.98721 1.11545 5.38467 0 0 0 255 255 255 255
-3.04348 1.19387 5.41912 0 0 0 255 255 255 255
-2.92288 1.37133 5.53012 0 0 0 255 255 255 255
-2.91774 1.45982 5.59067 0 0 0 255 255 255 255
-2.91312 1.27117 5.4536 0 0 0 255 255 255 255
-2.99938 1.17285 5.33306 0 0 0 255 255 255 255
-2.98334 1.11118 5.38012 0 0 0 255 255 255 255
-3.00437 1.25618 6.04075 0 0 0 255 255 255 255
-2.96042 1.33951 6.02062 0 0 0 255 255 255 255
-3.04832 1.18895 6.05352 0 0 0 255 255 255 255
-2.9073 1.38744 5.97326 0 0 0 255 255 255 255
-2.90832 1.41453 5.79715 0 0 0 255 255 255 255
-2.89911 1.41065 5.80762 0 0 0 255 255 255 255
-2.94802 1.3417 5.92919 0 0 0 255 255 255 255
-2.92394 1.45717 5.7263 0 0 0 255 255 255 255
-2.85105 1.42956 5.91787 0 0 0 255 255 255 255
-2.91053 1.33496 5.98977 0 0 0 255 255 255 255
-3.0209 1.49259 5.71701 0 0 0 255 255 255 255
-2.80503 1.38005 5.63348 0 0 0 255 255 255 255
-2.74711 1.39661 5.31601 0 0 0 255 255 255 255
-2.76699 1.36607 5.60366 0 0 0 255 255 255 255
1.0713 0.10877 4.93353 0 0 0 255 255 255 255
0.94881 -0.243399 4.71183 0 0 0 255 255 255 255
-0.351045 0.136616 4.49334 0 0 0 255 255 255 255
-0.344854 -0.18643 4.49122 0 0 0 255 255 255 255
-0.316315 -0.188236 4.51432 0 0 0 255 255 255 255
0.825252 -0.216813 4.80232 0 0 0 255 255 255 255
0.945799 -0.242058 4.71734 0 0 0 255 255 255 255
2.2305 -0.141901 3.84059 0 0 0 255 255 255 255
2.23953 -0.203178 3.82821 0 0 0 255 255 255 255
2.34871 0.0718942 3.93398 0 0 0 255 255 255 255
2.35113 0.0900734 3.9286 0 0 0 255 255 255 255
2.37615 0.0177496 3.94485 0 0 0 255 255 255 255
2.41131 0.103476 3.97766 0 0 0 255 255 255 255
2.35608 0.115577 3.92092 0 0 0 255 255 255 255
2.35984 0.115301 3.91832 0 0 0 255 255 255 255
2.35434 0.136316 3.94273 0 0 0 255 255 255 255
2.35377 0.117981 3.94977 0 0 0 255 255 255 255
2.34814 0.107845 3.94455 0 0 0 255 255 255 255
2.40057 0.110306 3.961 0 0 0 255 255 255 255
2.35736 0.134325 3.95544 0 0 0 255 255 255 255
2.65022 0.459267 4.03047 0 0 0 255 255 255 255
2.64802 0.454374 4.02415 0 0 0 255 255 255 255
2.64256 0.383582 3.98559 0 0 0 255 255 255 255
2.64834 0.443974 4.01291 0 0 0 255 255 255 255
2.65877 0.439271 4.01762 0 0 0 255 255 255 255
2.63071 0.352779 4.11359 0 0 0 255 255 255 255
2.65356 0.35068 4.05174 0 0 0 255 255 255 255
2.64297 0.421701 3.99763 0 0 0 255 255 255 255
2.64709 0.333818 4.03685 0 0 0 255 255 255 255
2.65113 0.398585 3.9789 0 0 0 255 255 255 255
2.63246 0.415671 3.94688 0 0 0 255 255 255 255
2.65617 0.45321 4.01638 0 0 0 255 255 255 255
2.64836 0.334231 4.03114 0 0 0 255 255 255 255
2.63074 0.380967 3.94461 0 0 0 255 255 255 255
2.64081 0.407526 3.97835 0 0 0 255 255 255 255
2.64236 0.386916 3.97116 0 0 0 255 255 255 255
2.63425 0.422494 3.96279 0 0 0 255 255 255 255
1.11244 1.40737 5.09938 0 0 0 255 255 255 255
1.11137 1.37239 5.10831 0 0 0 255 255 255 255
1.10809 0.952046 5.08075 0 0 0 255 255 255 255
-0.30397 1.47291 4.65708 0 0 0 255 255 255 255
-0.31062 1.44868 4.62297 0 0 0 255 255 255 255
-0.304528 1.0959 4.63339 0 0 0 255 255 255 255
-0.3124 1.00294 4.59836 0 0 0 255 255 255 255
-0.272275 1.38956 4.65152 0 0 0 255 255 255 255
-0.287505 1.36781 4.60738 0 0 0 255 255 255 255
-0.311666 0.997514 4.60239 0 0 0 255 255 255 255
-0.450545 1.41889 4.07517 0 0 0 255 255 255 255
-0.320664 1.4066 4.67914 0 0 0 255 255 255 255
-0.294996 1.46103 4.65304 0 0 0 255 255 255 255
-0.292446 1.42927 4.66387 0 0 0 255 255 255 255
-0.335438 1.44315 4.63277 0 0 0 255 255 255 255
-0.281848 1.07981 4.56744 0 0 0 255 255 255 255
-0.302491 1.20291 4.63526 0 0 0 255 255 255 255
1.10344 1.31905 4.68816 0 0 0 255 255 255 255
1.0737 1.39472 5.09029 0 0 0 255 255 255 255
1.13728 1.37286 5.10012 0 0 0 255 255 255 255
1.20437 1.17634 5.07695 0 0 0 255 255 255 255
1.15393 1.36453 5.02461 0 0 0 255 255 255 255
1.12188 1.32702 5.09355 0 0 0 255 255 255 255
1.17937 1.14007 5.06139 0 0 0 255 255 255 255
1.18911 1.22403 5.07266 0 0 0 255 255 255 255
1.18612 1.12189 5.06007 0 0 0 255 255 255 255
1.14089 1.39755 5.09002 0 0 0 255 255 255 255
2.28746 1.06761 3.75125 0 0 0 255 255 255 255
2.25145 1.41287 3.79984 0 0 0 255 255 255 255
2.23229 1.40016 3.75655 0 0 0 255 255 255 255
2.28202 1.2641 3.74566 0 0 0 255 255 255 255
2.1707 1.43021 3.83099 0 0 0 255 255 255 255
2.38596 1.41694 3.78241 0 0 0 255 255 255 255
2.4102 1.41273 3.7808 0 0 0 255 255 255 255
2.31051 1.41643 3.77491 0 0 0 255 255 255 255
2.3959 1.42117 3.79415 0 0 0 255 255 255 255
2.39948 1.41094 3.78612 0 0 0 255 255 255 255
2.39835 1.41493 3.79426 0 0 0 255 255 255 255
1.99539 1.57706 4.10218 0 0 0 255 255 255 255
2.39289 1.62949 3.9852 0 0 0 255 255 255 255
2.38519 1.63083 3.98878 0 0 0 255 255 255 255
2.39535 1.62889 3.98083 0 0 0 255 255 255 255
1.11797 1.41787 6.38079 0 0 0 255 255 255 255
1.11064 1.42519 6.37058 0 0 0 255 255 255 255
1.0889 1.42763 6.37323 0 0 0 255 255 255 255
1.10125 1.42542 6.3952 0 0 0 255 255 255 255
1.10407 1.35741 6.34024 0 0 0 255 255 255 255
1.31047 1.29336 5.85806 0 0 0 255 255 255 255
1.6249 1.19687 5.46247 0 0 0 255 255 255 255
1.3043 1.28586 5.79977 0 0 0 255 255 255 255
1.16378 1.25131 5.4417 0 0 0 255 255 255 255
1.85982 1.47748 6.77915 0 0 0 255 255 255 255
1.31194 1.42707 6.74143 0 0 0 255 255 255 255
1.89804 1.35891 6.50343 0 0 0 255 255 255 255
1.87378 1.39885 6.36062 0 0 0 255 255 255 255
1.88685 1.37697 6.64312 0 0 0 255 255 255 255
1.24597 1.40746 6.64576 0 0 0 255 255 255 255
1.7595 1.46279 6.70047 0 0 0 255 255 255 255
1.89223 1.46999 6.74426 0 0 0 255 255 255 255
1.87136 1.39197 6.76969 0 0 0 255 255 255 255
1.89045 1.39347 6.71627 0 0 0 255 255 255 255
1.89755 1.36047 6.5169 0 0 0 255 255 255 255
1.23888 1.37525 6.44469 0 0 0 255 255 255 255
1.87653 1.40923 6.77976 0 0 0 255 255 255 255
1.86682 1.39398 6.74862 0 0 0 255 255 255 255
1.73465 1.45062 6.71405 0 0 0 255 255 255 255
1.87709 1.39718 6.34671 0 0 0 255 255 255 255
1.13589 1.40325 6.3256 0 0 0 255 255 255 255
1.32216 1.39435 6.59374 0 0 0 255 255 255 255
1.72516 1.45866 6.7137 0 0 0 255 255 255 255
1.2211 1.50113 6.71449 0 0 0 255 255 255 255
1.85676 1.48186 6.78149 0 0 0 255 255 255 255
1.45599 1.49172 6.69386 0 0 0 255 255 255 255
1.72439 1.48131 6.75991 0 0 0 255 255 255 255
1.46736 1.48003 6.69468 0 0 0 255 255 255 255
2.1425 1.36871 6.2847 0 0 0 255 255 255 255
2.14078 1.37002 6.2844 0 0 0 255 255 255 255
2.16591 1.37303 6.29175 0 0 0 255 255 255 255
2.10862 1.38253 6.43098 0 0 0 255 255 255 255
2.08027 1.40671 6.47381 0 0 0 255 255 255 255
1.93009 1.37659 6.59636 0 0 0 255 255 255 255
1.88492 1.43576 6.97589 0 0 0 255 255 255 255
