ply
format ascii 1.0
comment VCGLIB generated
element vertex 11
property float x
property float y
property float z
property float nx
property float ny
property float nz
property uchar red
property uchar green
property uchar blue
property uchar alpha
element face 0
property list uchar int vertex_indices
end_header
-1.03143 -0.00978667 5.30944 0 0 0 255 255 0 255
-1.05792 0.176475 5.33711 0 0 0 255 255 0 255
-0.974652 0.0409389 5.36604 0 0 0 255 255 0 255
-0.989879 0.188789 5.39245 0 0 0 255 255 0 255
-0.988224 0.200949 5.39685 0 0 0 255 255 0 255
-0.824613 0.00695708 5.47232 0 0 0 255 255 0 255
-0.80201 -0.0139316 5.48426 0 0 0 255 255 0 255
-0.843808 0.13976 5.49181 0 0 0 255 255 0 255
-0.843745 0.15666 5.49621 0 0 0 255 255 0 255
-0.830834 0.176822 5.51131 0 0 0 255 255 0 255
-0.827548 0.169486 5.51193 0 0 0 255 255 0 255
