ply
format ascii 1.0
comment VCGLIB generated
element vertex 39
property float x
property float y
property float z
property float nx
property float ny
property float nz
property uchar red
property uchar green
property uchar blue
property uchar alpha
element face 0
property list uchar int vertex_indices
end_header
-0.919499 1.19144 5.19473 0 0 0 0 128 0 255
-0.909753 1.17794 5.20246 0 0 0 0 128 0 255
-0.899691 1.1772 5.20777 0 0 0 0 128 0 255
-0.975629 0.95777 5.21308 0 0 0 0 128 0 255
-0.887171 1.10136 5.2295 0 0 0 0 128 0 255
-0.922106 0.964661 5.23915 0 0 0 0 128 0 255
-0.925883 0.947879 5.2406 0 0 0 0 128 0 255
-0.983074 0.773728 5.2464 0 0 0 0 128 0 255
-0.913744 0.892603 5.25799 0 0 0 0 128 0 255
-0.751145 1.26063 5.26716 0 0 0 0 128 0 255
-0.704668 1.37882 5.26716 0 0 0 0 128 0 255
-0.741082 1.25989 5.27247 0 0 0 0 128 0 255
-0.638613 1.52047 5.27247 0 0 0 0 128 0 255
-0.637267 1.51672 5.27392 0 0 0 0 128 0 255
-0.781424 1.10706 5.28261 0 0 0 0 128 0 255
-0.775802 1.10699 5.28551 0 0 0 0 128 0 255
-0.766106 1.10533 5.29082 0 0 0 0 128 0 255
-0.479427 1.81999 5.29372 0 0 0 0 128 0 255
-0.463875 1.83322 5.29903 0 0 0 0 128 0 255
-0.545035 1.62444 5.29951 0 0 0 0 128 0 255
-0.746513 1.1073 5.30048 0 0 0 0 128 0 255
-0.541044 1.62502 5.30144 0 0 0 0 128 0 255
-0.687744 1.23999 5.30386 0 0 0 0 128 0 255
-0.681126 1.21375 5.31255 0 0 0 0 128 0 255
-0.676153 1.20965 5.31593 0 0 0 0 128 0 255
-0.454865 1.7652 5.31738 0 0 0 0 128 0 255
-0.587859 1.41025 5.32076 0 0 0 0 128 0 255
-0.483302 1.54214 5.3478 0 0 0 0 128 0 255
-0.468433 1.54166 5.35552 0 0 0 0 128 0 255
-0.347051 1.84315 5.35697 0 0 0 0 128 0 255
-0.34321 1.8266 5.36228 0 0 0 0 128 0 255
-0.323965 1.85879 5.36566 0 0 0 0 128 0 255
-0.316879 1.86245 5.36856 0 0 0 0 128 0 255
-0.393251 1.62277 5.37773 0 0 0 0 128 0 255
-0.245745 1.84952 5.40767 0 0 0 0 128 0 255
-0.2431 1.85386 5.40815 0 0 0 0 128 0 255
-0.253248 1.80412 5.41298 0 0 0 0 128 0 255
-0.219632 1.84892 5.42119 0 0 0 0 128 0 255
-0.214044 1.83921 5.42602 0 0 0 0 128 0 255
