ply
format ascii 1.0
comment VCGLIB generated
element vertex 5
property float x
property float y
property float z
property float nx
property float ny
property float nz
property uchar red
property uchar green
property uchar blue
property uchar alpha
element face 0
property list uchar int vertex_indices
end_header
2.71954 1.71822 4.08124 0 0 0 0 0 128 255
2.4374 1.60262 4.13721 0 0 0 0 0 128 255
2.43364 1.60381 4.13841 0 0 0 0 0 128 255
2.42558 1.60532 4.14082 0 0 0 0 0 128 255
2.46561 1.69591 4.14534 0 0 0 0 0 128 255
