ply
format ascii 1.0
comment VCGLIB generated
element vertex 358
property float x
property float y
property float z
property float nx
property float ny
property float nz
property uchar red
property uchar green
property uchar blue
property uchar alpha
element face 0
property list uchar int vertex_indices
end_header
1.51275 0.965603 3.44936 0 0 0 128 128 0 255
1.51202 0.961655 3.44839 0 0 0 128 128 0 255
1.45992 1.12647 3.46137 0 0 0 128 128 0 255
1.41556 1.25065 3.55091 0 0 0 128 128 0 255
1.40671 1.2792 3.59468 0 0 0 128 128 0 255
1.35237 1.15544 3.41984 0 0 0 128 128 0 255
1.33832 1.22166 3.46858 0 0 0 128 128 0 255
1.34707 1.12901 3.40224 0 0 0 128 128 0 255
1.33226 1.19077 3.43868 0 0 0 128 128 0 255
1.35002 1.11504 3.39598 0 0 0 128 128 0 255
1.32943 1.1672 3.42023 0 0 0 128 128 0 255
1.31706 1.19931 3.44122 0 0 0 128 128 0 255
1.34444 1.0952 3.38511 0 0 0 128 128 0 255
1.31479 1.19267 3.43516 0 0 0 128 128 0 255
1.31517 1.18949 3.43273 0 0 0 128 128 0 255
1.32643 1.1257 3.3944 0 0 0 128 128 0 255
1.32157 1.12647 3.39356 0 0 0 128 128 0 255
1.30983 1.12816 3.39173 0 0 0 128 128 0 255
1.30418 1.10271 3.37838 0 0 0 128 128 0 255
1.28293 1.09576 3.37201 0 0 0 128 128 0 255
1.31847 1.02822 3.35696 0 0 0 128 128 0 255
1.29194 1.0705 3.36386 0 0 0 128 128 0 255
1.29269 1.06566 3.36238 0 0 0 128 128 0 255
1.2921 1.05998 3.3605 0 0 0 128 128 0 255
1.26342 1.1045 3.37366 0 0 0 128 128 0 255
1.27035 1.08087 3.36482 0 0 0 128 128 0 255
1.2764 1.06623 3.36042 0 0 0 128 128 0 255
1.25206 1.09762 3.37001 0 0 0 128 128 0 255
1.2549 1.09196 3.36786 0 0 0 128 128 0 255
1.27536 1.05483 3.35681 0 0 0 128 128 0 255
1.25288 1.09017 3.36705 0 0 0 128 128 0 255
1.28511 1.03264 3.35218 0 0 0 128 128 0 255
1.23452 1.12519 3.38217 0 0 0 128 128 0 255
1.27389 1.03558 3.35157 0 0 0 128 128 0 255
1.23003 1.11257 3.3761 0 0 0 128 128 0 255
1.23071 1.10893 3.37444 0 0 0 128 128 0 255
1.24982 1.07052 3.3598 0 0 0 128 128 0 255
1.26967 1.02318 3.34842 0 0 0 128 128 0 255
1.34916 0.894072 3.35799 0 0 0 128 128 0 255
1.34339 0.881212 3.35809 0 0 0 128 128 0 255
1.3834 0.806607 3.39144 0 0 0 128 128 0 255
1.38037 0.810672 3.38869 0 0 0 128 128 0 255
1.36857 0.816949 3.3819 0 0 0 128 128 0 255
1.23319 0.996846 3.34231 0 0 0 128 128 0 255
1.35761 0.828537 3.37435 0 0 0 128 128 0 255
1.38223 0.777735 3.40322 0 0 0 128 128 0 255
1.36474 0.811104 3.38254 0 0 0 128 128 0 255
1.26196 0.947125 3.33954 0 0 0 128 128 0 255
1.36896 0.799992 3.38824 0 0 0 128 128 0 255
1.37068 0.788769 3.39352 0 0 0 128 128 0 255
1.36366 0.796109 3.38784 0 0 0 128 128 0 255
1.28731 0.900469 3.3441 0 0 0 128 128 0 255
1.29029 0.890997 3.34557 0 0 0 128 128 0 255
1.34054 0.806806 3.37627 0 0 0 128 128 0 255
1.22884 0.934993 3.33859 0 0 0 128 128 0 255
1.21651 0.942689 3.33888 0 0 0 128 128 0 255
1.17025 0.986753 3.34602 0 0 0 128 128 0 255
1.35353 0.765808 3.39795 0 0 0 128 128 0 255
1.13825 1.01646 3.35695 0 0 0 128 128 0 255
1.34236 0.784809 3.38551 0 0 0 128 128 0 255
1.16669 0.978252 3.34572 0 0 0 128 128 0 255
1.16855 0.972488 3.34493 0 0 0 128 128 0 255
1.19312 0.946186 3.34055 0 0 0 128 128 0 255
1.21983 0.914808 3.3396 0 0 0 128 128 0 255
1.35543 0.745988 3.40928 0 0 0 128 128 0 255
1.33246 0.786998 3.38176 0 0 0 128 128 0 255
1.16252 0.964554 3.34541 0 0 0 128 128 0 255
1.34391 0.764541 3.39543 0 0 0 128 128 0 255
1.35185 0.645849 3.49018 0 0 0 128 128 0 255
1.31277 0.802042 3.37111 0 0 0 128 128 0 255
1.2383 0.87824 3.34341 0 0 0 128 128 0 255
1.11362 1.00103 3.36109 0 0 0 128 128 0 255
1.33671 0.75962 3.39575 0 0 0 128 128 0 255
1.35282 0.721809 3.42344 0 0 0 128 128 0 255
1.18424 0.917111 3.34222 0 0 0 128 128 0 255
1.35511 0.700509 3.4398 0 0 0 128 128 0 255
1.3275 0.76615 3.38992 0 0 0 128 128 0 255
1.23407 0.866441 3.3454 0 0 0 128 128 0 255
1.16411 0.923326 3.34486 0 0 0 128 128 0 255
1.35068 0.698129 3.43995 0 0 0 128 128 0 255
1.30433 0.787562 3.37508 0 0 0 128 128 0 255
1.1033 0.966641 3.36064 0 0 0 128 128 0 255
1.03599 1.0569 3.40853 0 0 0 128 128 0 255
1.34091 0.660688 3.46964 0 0 0 128 128 0 255
1.12111 0.937561 3.35429 0 0 0 128 128 0 255
1.10173 0.955839 3.36061 0 0 0 128 128 0 255
1.22209 0.845703 3.34998 0 0 0 128 128 0 255
1.29099 0.782241 3.37502 0 0 0 128 128 0 255
1.29495 0.775466 3.37861 0 0 0 128 128 0 255
1.22382 0.83993 3.35136 0 0 0 128 128 0 255
1.1092 0.935232 3.35792 0 0 0 128 128 0 255
1.26643 0.793274 3.36758 0 0 0 128 128 0 255
1.30135 0.755122 3.38958 0 0 0 128 128 0 255
1.06503 0.964965 3.37559 0 0 0 128 128 0 255
1.0918 0.936957 3.36388 0 0 0 128 128 0 255
1.24228 0.806439 3.36143 0 0 0 128 128 0 255
1.25217 0.796531 3.36537 0 0 0 128 128 0 255
0.976197 1.19939 3.56154 0 0 0 128 128 0 255
1.29019 0.759453 3.38545 0 0 0 128 128 0 255
1.06134 0.956075 3.37682 0 0 0 128 128 0 255
0.973716 1.1974 3.56224 0 0 0 128 128 0 255
1.29753 0.748623 3.39232 0 0 0 128 128 0 255
1.08341 0.928645 3.36727 0 0 0 128 128 0 255
1.08479 0.923846 3.36692 0 0 0 128 128 0 255
1.25642 0.785906 3.36979 0 0 0 128 128 0 255
1.25883 0.783814 3.37081 0 0 0 128 128 0 255
1.246 0.793142 3.36642 0 0 0 128 128 0 255
0.96442 1.18533 3.55925 0 0 0 128 128 0 255
1.29294 0.746262 3.39281 0 0 0 128 128 0 255
1.22229 0.806344 3.36153 0 0 0 128 128 0 255
0.95626 1.08659 3.48415 0 0 0 128 128 0 255
1.19639 0.815622 3.36003 0 0 0 128 128 0 255
1.31843 0.660002 3.46267 0 0 0 128 128 0 255
0.950708 1.10036 3.49837 0 0 0 128 128 0 255
1.20304 0.806817 3.36241 0 0 0 128 128 0 255
1.2444 0.774719 3.37404 0 0 0 128 128 0 255
0.945872 1.09626 3.50134 0 0 0 128 128 0 255
1.31161 0.647447 3.47358 0 0 0 128 128 0 255
1.04463 0.921356 3.38528 0 0 0 128 128 0 255
0.940559 1.16231 3.56657 0 0 0 128 128 0 255
0.941529 1.09411 3.50512 0 0 0 128 128 0 255
1.21227 0.791631 3.36741 0 0 0 128 128 0 255
1.25917 0.755333 3.38403 0 0 0 128 128 0 255
1.15364 0.829988 3.36211 0 0 0 128 128 0 255
0.942487 1.18274 3.59117 0 0 0 128 128 0 255
0.937647 1.10392 3.51647 0 0 0 128 128 0 255
1.30352 0.641013 3.47841 0 0 0 128 128 0 255
1.28777 0.719528 3.40799 0 0 0 128 128 0 255
1.30157 0.640939 3.47799 0 0 0 128 128 0 255
1.30276 0.643687 3.47527 0 0 0 128 128 0 255
1.14721 0.82111 3.36618 0 0 0 128 128 0 255
1.19474 0.788653 3.36999 0 0 0 128 128 0 255
0.924605 1.1517 3.58099 0 0 0 128 128 0 255
1.06422 0.874449 3.38123 0 0 0 128 128 0 255
1.17674 0.792972 3.37055 0 0 0 128 128 0 255
0.918904 1.13134 3.56774 0 0 0 128 128 0 255
1.07142 0.86241 3.38036 0 0 0 128 128 0 255
1.15303 0.803618 3.37084 0 0 0 128 128 0 255
1.1654 0.795134 3.37159 0 0 0 128 128 0 255
1.14614 0.804509 3.37205 0 0 0 128 128 0 255
1.18015 0.782156 3.37448 0 0 0 128 128 0 255
1.14344 0.803618 3.37302 0 0 0 128 128 0 255
1.17498 0.7829 3.37494 0 0 0 128 128 0 255
1.12487 0.808171 3.37631 0 0 0 128 128 0 255
1.14528 0.794039 3.37623 0 0 0 128 128 0 255
1.1723 0.777398 3.37775 0 0 0 128 128 0 255
1.25742 0.716818 3.4063 0 0 0 128 128 0 255
0.901357 1.14258 3.61861 0 0 0 128 128 0 255
1.19435 0.751331 3.38733 0 0 0 128 128 0 255
0.904315 1.16195 3.64541 0 0 0 128 128 0 255
1.14439 0.776342 3.38395 0 0 0 128 128 0 255
1.06396 0.824822 3.39396 0 0 0 128 128 0 255
1.15995 0.763914 3.38632 0 0 0 128 128 0 255
0.932451 0.948357 3.47065 0 0 0 128 128 0 255
0.949005 0.92432 3.45408 0 0 0 128 128 0 255
1.15777 0.761156 3.38813 0 0 0 128 128 0 255
0.936061 0.939908 3.46669 0 0 0 128 128 0 255
1.05873 0.817764 3.39893 0 0 0 128 128 0 255
1.14532 0.761305 3.39091 0 0 0 128 128 0 255
0.941694 0.920908 3.46156 0 0 0 128 128 0 255
0.941137 0.920344 3.46217 0 0 0 128 128 0 255
0.934796 0.923848 3.46857 0 0 0 128 128 0 255
1.17276 0.742885 3.39495 0 0 0 128 128 0 255
1.06878 0.782998 3.40818 0 0 0 128 128 0 255
1.22618 0.70362 3.41457 0 0 0 128 128 0 255
1.05878 0.786462 3.41161 0 0 0 128 128 0 255
1.06594 0.782 3.41005 0 0 0 128 128 0 255
0.948187 0.877985 3.46128 0 0 0 128 128 0 255
0.951812 0.873847 3.45865 0 0 0 128 128 0 255
1.15447 0.730441 3.40596 0 0 0 128 128 0 255
0.94953 0.868361 3.46223 0 0 0 128 128 0 255
0.977533 0.836594 3.44609 0 0 0 128 128 0 255
0.86562 1.09349 3.65273 0 0 0 128 128 0 255
0.941948 0.869001 3.46981 0 0 0 128 128 0 255
0.937956 0.872545 3.47314 0 0 0 128 128 0 255
1.20854 0.6987 3.419 0 0 0 128 128 0 255
0.863601 1.08889 3.65331 0 0 0 128 128 0 255
1.04602 0.776105 3.42362 0 0 0 128 128 0 255
1.07814 0.757007 3.41698 0 0 0 128 128 0 255
0.917613 0.894044 3.49189 0 0 0 128 128 0 255
1.02614 0.788482 3.42972 0 0 0 128 128 0 255
0.945962 0.856584 3.46913 0 0 0 128 128 0 255
0.898568 0.918347 3.5137 0 0 0 128 128 0 255
1.1324 0.726165 3.41455 0 0 0 128 128 0 255
0.864557 1.10281 3.67472 0 0 0 128 128 0 255
1.04649 0.7694 3.42685 0 0 0 128 128 0 255
1.16094 0.71198 3.41656 0 0 0 128 128 0 255
1.25988 0.654415 3.4569 0 0 0 128 128 0 255
0.917228 0.884881 3.49422 0 0 0 128 128 0 255
0.918935 0.875526 3.49435 0 0 0 128 128 0 255
1.0599 0.751488 3.4294 0 0 0 128 128 0 255
0.944833 0.836258 3.47732 0 0 0 128 128 0 255
1.05463 0.748398 3.43421 0 0 0 128 128 0 255
0.856916 1.0963 3.70635 0 0 0 128 128 0 255
1.09532 0.716084 3.43516 0 0 0 128 128 0 255
1.09574 0.711799 3.4381 0 0 0 128 128 0 255
1.2299 0.661875 3.4486 0 0 0 128 128 0 255
0.858328 1.10416 3.73076 0 0 0 128 128 0 255
0.901174 0.86245 3.52226 0 0 0 128 128 0 255
1.03706 0.737163 3.45235 0 0 0 128 128 0 255
1.05766 0.725228 3.44788 0 0 0 128 128 0 255
1.1029 0.701305 3.44298 0 0 0 128 128 0 255
1.11654 0.694746 3.44267 0 0 0 128 128 0 255
0.847611 0.967919 3.61395 0 0 0 128 128 0 255
0.984725 0.768157 3.47271 0 0 0 128 128 0 255
0.85014 0.956016 3.60514 0 0 0 128 128 0 255
0.943829 0.797681 3.4968 0 0 0 128 128 0 255
1.10139 0.69322 3.45018 0 0 0 128 128 0 255
1.06785 0.706659 3.45613 0 0 0 128 128 0 255
1.10462 0.688693 3.45258 0 0 0 128 128 0 255
1.11484 0.684481 3.45193 0 0 0 128 128 0 255
0.945866 0.789254 3.49943 0 0 0 128 128 0 255
1.20102 0.651058 3.46089 0 0 0 128 128 0 255
0.945421 0.783379 3.50364 0 0 0 128 128 0 255
0.909894 0.820562 3.52817 0 0 0 128 128 0 255
0.872196 1.12583 3.80266 0 0 0 128 128 0 255
0.943804 0.78138 3.50688 0 0 0 128 128 0 255
0.889918 1.14686 3.83331 0 0 0 128 128 0 255
0.931798 0.789741 3.5164 0 0 0 128 128 0 255
0.928411 0.792365 3.51915 0 0 0 128 128 0 255
1.07056 0.685775 3.4726 0 0 0 128 128 0 255
0.923435 0.792352 3.52595 0 0 0 128 128 0 255
1.14165 0.655985 3.46895 0 0 0 128 128 0 255
1.14058 0.655628 3.46967 0 0 0 128 128 0 255
1.12989 0.657879 3.47115 0 0 0 128 128 0 255
1.12789 0.65788 3.47191 0 0 0 128 128 0 255
0.916567 0.790353 3.53729 0 0 0 128 128 0 255
0.915199 0.791028 3.53887 0 0 0 128 128 0 255
1.09715 0.66417 3.4791 0 0 0 128 128 0 255
1.08507 0.668709 3.48087 0 0 0 128 128 0 255
1.19549 0.632915 3.4812 0 0 0 128 128 0 255
1.15386 0.642519 3.47948 0 0 0 128 128 0 255
0.859374 0.868595 3.5985 0 0 0 128 128 0 255
1.06847 0.674327 3.48498 0 0 0 128 128 0 255
1.07027 0.673453 3.48474 0 0 0 128 128 0 255
1.14802 0.642966 3.48078 0 0 0 128 128 0 255
1.14954 0.639287 3.48446 0 0 0 128 128 0 255
1.0828 0.662754 3.48839 0 0 0 128 128 0 255
0.947356 0.749125 3.52701 0 0 0 128 128 0 255
1.10927 0.651073 3.48716 0 0 0 128 128 0 255
1.18349 0.628995 3.48782 0 0 0 128 128 0 255
0.906273 0.790429 3.5536 0 0 0 128 128 0 255
0.909079 0.78635 3.55211 0 0 0 128 128 0 255
1.1152 0.647523 3.48837 0 0 0 128 128 0 255
0.910743 0.783642 3.55152 0 0 0 128 128 0 255
0.937333 0.75529 3.53509 0 0 0 128 128 0 255
1.06712 0.665949 3.49464 0 0 0 128 128 0 255
1.05264 0.672502 3.49756 0 0 0 128 128 0 255
1.17584 0.626714 3.49219 0 0 0 128 128 0 255
0.89779 0.792622 3.56683 0 0 0 128 128 0 255
1.10754 0.643406 3.49681 0 0 0 128 128 0 255
1.05385 0.663897 3.50621 0 0 0 128 128 0 255
1.07616 0.653239 3.50313 0 0 0 128 128 0 255
0.957368 0.726374 3.53537 0 0 0 128 128 0 255
0.95081 0.731229 3.53918 0 0 0 128 128 0 255
0.94509 0.735539 3.54274 0 0 0 128 128 0 255
0.955109 0.726852 3.53785 0 0 0 128 128 0 255
1.17703 0.618933 3.50179 0 0 0 128 128 0 255
1.13019 0.629704 3.50316 0 0 0 128 128 0 255
0.894023 0.787295 3.57869 0 0 0 128 128 0 255
0.955761 0.724203 3.53971 0 0 0 128 128 0 255
1.12014 0.631808 3.50495 0 0 0 128 128 0 255
1.1951 0.615513 3.5028 0 0 0 128 128 0 255
0.941434 0.735297 3.54823 0 0 0 128 128 0 255
1.03992 0.666051 3.51466 0 0 0 128 128 0 255
0.940021 0.735886 3.5497 0 0 0 128 128 0 255
0.952074 0.725241 3.54362 0 0 0 128 128 0 255
1.18597 0.614157 3.50624 0 0 0 128 128 0 255
1.18319 0.613594 3.50757 0 0 0 128 128 0 255
1.03914 0.660271 3.52232 0 0 0 128 128 0 255
1.17699 0.612187 3.51089 0 0 0 128 128 0 255
1.04168 0.655942 3.5256 0 0 0 128 128 0 255
0.880685 0.790624 3.60501 0 0 0 128 128 0 255
1.17417 0.60917 3.51584 0 0 0 128 128 0 255
0.927224 0.734541 3.57167 0 0 0 128 128 0 255
0.931271 0.730642 3.56931 0 0 0 128 128 0 255
1.04949 0.647932 3.52944 0 0 0 128 128 0 255
1.19301 0.606156 3.51611 0 0 0 128 128 0 255
1.07843 0.633659 3.52661 0 0 0 128 128 0 255
1.20573 0.605614 3.51502 0 0 0 128 128 0 255
1.08209 0.631106 3.52764 0 0 0 128 128 0 255
1.19861 0.605021 3.51684 0 0 0 128 128 0 255
1.05058 0.64462 3.53303 0 0 0 128 128 0 255
1.19171 0.604707 3.51845 0 0 0 128 128 0 255
0.92355 0.733724 3.57921 0 0 0 128 128 0 255
1.07655 0.632333 3.52981 0 0 0 128 128 0 255
1.21516 0.605457 3.51431 0 0 0 128 128 0 255
0.929238 0.725105 3.57968 0 0 0 128 128 0 255
1.11988 0.613142 3.53093 0 0 0 128 128 0 255
1.15122 0.60529 3.52879 0 0 0 128 128 0 255
0.917291 0.732208 3.59328 0 0 0 128 128 0 255
1.12963 0.608315 3.53341 0 0 0 128 128 0 255
1.09649 0.617803 3.53756 0 0 0 128 128 0 255
1.20315 0.599654 3.52418 0 0 0 128 128 0 255
1.09652 0.613273 3.54467 0 0 0 128 128 0 255
1.11509 0.607513 3.54238 0 0 0 128 128 0 255
1.12356 0.605229 3.54139 0 0 0 128 128 0 255
1.04725 0.632901 3.55334 0 0 0 128 128 0 255
1.11367 0.606246 3.54528 0 0 0 128 128 0 255
0.94542 0.695394 3.59244 0 0 0 128 128 0 255
1.11349 0.604663 3.54803 0 0 0 128 128 0 255
1.19834 0.593512 3.53458 0 0 0 128 128 0 255
1.20755 0.59388 3.53267 0 0 0 128 128 0 255
0.921843 0.716068 3.60732 0 0 0 128 128 0 255
1.10971 0.604122 3.55127 0 0 0 128 128 0 255
1.219 0.594556 3.53051 0 0 0 128 128 0 255
1.13674 0.59566 3.55078 0 0 0 128 128 0 255
1.012 0.641685 3.57813 0 0 0 128 128 0 255
1.24775 0.599449 3.52287 0 0 0 128 128 0 255
1.0314 0.628558 3.57759 0 0 0 128 128 0 255
0.831308 0.945659 3.82431 0 0 0 128 128 0 255
1.03028 0.626228 3.5833 0 0 0 128 128 0 255
1.01083 0.635925 3.59036 0 0 0 128 128 0 255
1.16251 0.584278 3.56031 0 0 0 128 128 0 255
1.02829 0.624455 3.58928 0 0 0 128 128 0 255
1.02929 0.623948 3.58901 0 0 0 128 128 0 255
0.962114 0.662195 3.62103 0 0 0 128 128 0 255
1.07032 0.602132 3.58662 0 0 0 128 128 0 255
1.0159 0.62647 3.60232 0 0 0 128 128 0 255
1.06638 0.601911 3.59118 0 0 0 128 128 0 255
1.07493 0.59839 3.58995 0 0 0 128 128 0 255
0.851501 0.975393 3.89125 0 0 0 128 128 0 255
1.07733 0.596219 3.5923 0 0 0 128 128 0 255
0.971787 0.650963 3.62599 0 0 0 128 128 0 255
0.953408 0.663206 3.639 0 0 0 128 128 0 255
0.903483 0.7111 3.67219 0 0 0 128 128 0 255
0.838498 0.925837 3.8545 0 0 0 128 128 0 255
1.0432 0.604136 3.61456 0 0 0 128 128 0 255
1.03433 0.607342 3.61955 0 0 0 128 128 0 255
0.903519 0.705828 3.6904 0 0 0 128 128 0 255
1.03256 0.605842 3.62638 0 0 0 128 128 0 255
1.01905 0.611266 3.63493 0 0 0 128 128 0 255
0.921663 0.683579 3.68477 0 0 0 128 128 0 255
1.0153 0.612186 3.63953 0 0 0 128 128 0 255
1.01498 0.61156 3.64209 0 0 0 128 128 0 255
0.852523 0.901443 3.89252 0 0 0 128 128 0 255
0.976977 0.631513 3.67112 0 0 0 128 128 0 255
0.98925 0.6232 3.66529 0 0 0 128 128 0 255
0.853861 0.898884 3.89529 0 0 0 128 128 0 255
0.930226 0.669147 3.7077 0 0 0 128 128 0 255
0.851043 0.854587 3.86561 0 0 0 128 128 0 255
0.853765 0.874176 3.88555 0 0 0 128 128 0 255
0.853907 0.854522 3.87451 0 0 0 128 128 0 255
0.958312 0.640831 3.70716 0 0 0 128 128 0 255
0.858257 0.849078 3.88334 0 0 0 128 128 0 255
0.881061 0.891863 3.95042 0 0 0 128 128 0 255
1.32348 0.617957 3.51322 0 0 0 128 128 0 255
0.906096 0.876754 3.98524 0 0 0 128 128 0 255
0.912814 0.876354 3.99414 0 0 0 128 128 0 255
0.934764 0.875559 4.02019 0 0 0 128 128 0 255
1.3468 0.63105 3.50577 0 0 0 128 128 0 255
1.35359 0.63219 3.50758 0 0 0 128 128 0 255
1.06927 0.569538 3.79848 0 0 0 128 128 0 255
1.05913 0.575573 3.80769 0 0 0 128 128 0 255
1.30094 0.547795 3.65641 0 0 0 128 128 0 255
1.12283 0.551012 3.8043 0 0 0 128 128 0 255
1.32879 0.548336 3.68251 0 0 0 128 128 0 255
1.35929 0.552812 3.7805 0 0 0 128 128 0 255
