ply
format ascii 1.0
comment VCGLIB generated
element vertex 335
property float x
property float y
property float z
property float nx
property float ny
property float nz
property uchar red
property uchar green
property uchar blue
property uchar alpha
element face 0
property list uchar int vertex_indices
end_header
-0.76904 0.179899 5.34982 0 0 0 128 0 0 255
-0.767516 0.169726 5.34939 0 0 0 128 0 0 255
-0.76812 0.152804 5.34758 0 0 0 128 0 0 255
-0.873545 0.19179 5.31395 0 0 0 128 0 0 255
-0.88623 0.174051 5.30729 0 0 0 128 0 0 255
-0.89327 0.17096 5.30431 0 0 0 128 0 0 255
-0.901768 0.166699 5.30062 0 0 0 128 0 0 255
-0.90631 0.161791 5.29832 0 0 0 128 0 0 255
-0.794207 -0.0036211 5.32116 0 0 0 128 0 0 255
-0.79217 -0.00960851 5.32121 0 0 0 128 0 0 255
-0.831406 0.0237058 5.31023 0 0 0 128 0 0 255
-0.794665 -0.0268539 5.31815 0 0 0 128 0 0 255
-0.795684 -0.0429229 5.31575 0 0 0 128 0 0 255
-0.84438 0.0209123 5.30485 0 0 0 128 0 0 255
-0.965098 0.180685 5.27802 0 0 0 128 0 0 255
-0.956343 0.162294 5.2791 0 0 0 128 0 0 255
-0.834303 -0.0103998 5.3048 0 0 0 128 0 0 255
-0.976891 0.182644 5.27365 0 0 0 128 0 0 255
-0.830755 -0.040616 5.30227 0 0 0 128 0 0 255
-0.977281 0.159434 5.27047 0 0 0 128 0 0 255
-0.881035 0.0206671 5.29039 0 0 0 128 0 0 255
-0.853907 -0.0198252 5.29582 0 0 0 128 0 0 255
-0.836552 -0.0452871 5.29935 0 0 0 128 0 0 255
-1.04146 0.181484 5.24759 0 0 0 128 0 0 255
-0.916068 0.00893909 5.27463 0 0 0 128 0 0 255
-0.911503 -0.00520831 5.27451 0 0 0 128 0 0 255
-1.03528 0.163544 5.24759 0 0 0 128 0 0 255
-0.901917 -0.0356868 5.2741 0 0 0 128 0 0 255
-0.96925 0.0334364 5.25615 0 0 0 128 0 0 255
-0.964267 0.0234463 5.25676 0 0 0 128 0 0 255
-0.970024 -0.00930452 5.2494 0 0 0 128 0 0 255
-1.01408 0.0263619 5.23603 0 0 0 128 0 0 255
-0.971438 -0.0385524 5.24425 0 0 0 128 0 0 255
-0.972988 -0.0410924 5.24317 0 0 0 128 0 0 255
-0.909692 -0.153076 5.25284 0 0 0 128 0 0 255
-0.919355 -0.158408 5.24772 0 0 0 128 0 0 255
-1.04582 0.00941914 5.21943 0 0 0 128 0 0 255
-1.04886 0.0120513 5.21852 0 0 0 128 0 0 255
-0.920803 -0.167266 5.24562 0 0 0 128 0 0 255
-0.934126 -0.15513 5.24171 0 0 0 128 0 0 255
-1.02593 -0.0318918 5.2214 0 0 0 128 0 0 255
-1.18483 0.175938 5.18532 0 0 0 128 0 0 255
-1.19222 0.173732 5.18163 0 0 0 128 0 0 255
-1.19105 0.172127 5.18188 0 0 0 128 0 0 255
-1.06628 -0.0150089 5.20614 0 0 0 128 0 0 255
-1.09674 0.0176498 5.19797 0 0 0 128 0 0 255
-1.06758 -0.0224769 5.20426 0 0 0 128 0 0 255
-0.989212 -0.158028 5.21628 0 0 0 128 0 0 255
-0.924594 -0.248487 5.22994 0 0 0 128 0 0 255
-0.99294 -0.163656 5.21355 0 0 0 128 0 0 255
-0.984192 -0.175694 5.21544 0 0 0 128 0 0 255
-1.08812 -0.0342199 5.19275 0 0 0 128 0 0 255
-0.995505 -0.1632 5.21245 0 0 0 128 0 0 255
-0.927615 -0.261227 5.22626 0 0 0 128 0 0 255
-0.934831 -0.262036 5.22276 0 0 0 128 0 0 255
-1.14606 0.0271052 5.17693 0 0 0 128 0 0 255
-0.786812 -0.467256 5.2544 0 0 0 128 0 0 255
-0.959424 -0.23739 5.21577 0 0 0 128 0 0 255
-1.14674 0.0188472 5.1751 0 0 0 128 0 0 255
-0.949962 -0.256538 5.21669 0 0 0 128 0 0 255
-0.933632 -0.279009 5.22021 0 0 0 128 0 0 255
-1.14264 0.00554699 5.17457 0 0 0 128 0 0 255
-1.13901 -0.00557417 5.17422 0 0 0 128 0 0 255
-1.16723 0.0301963 5.16757 0 0 0 128 0 0 255
-0.792091 -0.492138 5.24732 0 0 0 128 0 0 255
-0.996544 -0.215376 5.20237 0 0 0 128 0 0 255
-0.979457 -0.25263 5.20347 0 0 0 128 0 0 255
-1.17574 0.012897 5.16027 0 0 0 128 0 0 255
-1.14559 -0.0392585 5.16473 0 0 0 128 0 0 255
-0.824833 -0.480652 5.2339 0 0 0 128 0 0 255
-1.00171 -0.247905 5.19371 0 0 0 128 0 0 255
-1.07526 -0.155831 5.17608 0 0 0 128 0 0 255
-1.05447 -0.187469 5.17996 0 0 0 128 0 0 255
-1.32063 0.175739 5.12198 0 0 0 128 0 0 255
-1.20674 0.0129498 5.14534 0 0 0 128 0 0 255
-1.00225 -0.271486 5.18884 0 0 0 128 0 0 255
-1.00167 -0.272289 5.18897 0 0 0 128 0 0 255
-1.20764 0.00963271 5.14425 0 0 0 128 0 0 255
-1.04758 -0.215183 5.17787 0 0 0 128 0 0 255
-1.10854 -0.135837 5.16382 0 0 0 128 0 0 255
-1.33551 0.174976 5.11457 0 0 0 128 0 0 255
-1.18971 -0.0256581 5.14602 0 0 0 128 0 0 255
-1.33932 0.175673 5.11285 0 0 0 128 0 0 255
-1.00176 -0.290366 5.18534 0 0 0 128 0 0 255
-0.860245 -0.488127 5.21525 0 0 0 128 0 0 255
-0.82004 -0.552537 5.22209 0 0 0 128 0 0 255
-0.851154 -0.512747 5.21477 0 0 0 128 0 0 255
-1.0513 -0.23885 5.17131 0 0 0 128 0 0 255
-0.830466 -0.545753 5.21831 0 0 0 128 0 0 255
-0.867133 -0.502854 5.20887 0 0 0 128 0 0 255
-0.880267 -0.489313 5.20511 0 0 0 128 0 0 255
-1.10267 -0.186289 5.15653 0 0 0 128 0 0 255
-1.26278 0.0204641 5.11921 0 0 0 128 0 0 255
-1.0955 -0.211234 5.15497 0 0 0 128 0 0 255
-0.871654 -0.520778 5.20293 0 0 0 128 0 0 255
-1.08405 -0.23905 5.15493 0 0 0 128 0 0 255
-1.38576 0.17312 5.08924 0 0 0 128 0 0 255
-0.925711 -0.46145 5.18813 0 0 0 128 0 0 255
-0.850771 -0.569086 5.20334 0 0 0 128 0 0 255
-0.940779 -0.448236 5.18329 0 0 0 128 0 0 255
-1.38771 0.163766 5.08629 0 0 0 128 0 0 255
-0.942526 -0.454848 5.18101 0 0 0 128 0 0 255
-1.25813 -0.0220462 5.11263 0 0 0 128 0 0 255
-0.940091 -0.465706 5.17993 0 0 0 128 0 0 255
-1.10115 -0.245577 5.14488 0 0 0 128 0 0 255
-0.855421 -0.589722 5.19659 0 0 0 128 0 0 255
-0.935509 -0.482512 5.17867 0 0 0 128 0 0 255
-1.2932 0.00670403 5.10089 0 0 0 128 0 0 255
-0.937636 -0.485578 5.17692 0 0 0 128 0 0 255
-1.31623 0.0338973 5.09496 0 0 0 128 0 0 255
-1.11092 -0.257606 5.13728 0 0 0 128 0 0 255
-0.925066 -0.516351 5.1767 0 0 0 128 0 0 255
-1.19527 -0.147513 5.11778 0 0 0 128 0 0 255
-1.19177 -0.152328 5.11854 0 0 0 128 0 0 255
-1.14862 -0.211716 5.12784 0 0 0 128 0 0 255
-1.29402 -0.0146202 5.09584 0 0 0 128 0 0 255
-1.1004 -0.281062 5.13759 0 0 0 128 0 0 255
-1.14257 -0.226015 5.12784 0 0 0 128 0 0 255
-1.29089 -0.0249062 5.0952 0 0 0 128 0 0 255
-1.4463 0.184466 5.0607 0 0 0 128 0 0 255
-1.44052 0.166069 5.05963 0 0 0 128 0 0 255
-1.13259 -0.25767 5.12603 0 0 0 128 0 0 255
-1.21442 -0.148049 5.10772 0 0 0 128 0 0 255
-1.45048 0.169342 5.05515 0 0 0 128 0 0 255
-1.32626 -0.00159788 5.08194 0 0 0 128 0 0 255
-1.34793 0.0267296 5.07693 0 0 0 128 0 0 255
-0.997422 -0.455593 5.15251 0 0 0 128 0 0 255
-1.32011 -0.0145245 5.08226 0 0 0 128 0 0 255
-1.34038 0.0059306 5.07621 0 0 0 128 0 0 255
-0.934069 -0.556167 5.16316 0 0 0 128 0 0 255
-0.917244 -0.580807 5.16645 0 0 0 128 0 0 255
-0.99449 -0.47897 5.14878 0 0 0 128 0 0 255
-1.34593 -0.00130618 5.07164 0 0 0 128 0 0 255
-1.68552 0.463038 4.99773 0 0 0 128 0 0 255
-1.37835 0.0373724 5.06329 0 0 0 128 0 0 255
-1.37602 0.0341623 5.06379 0 0 0 128 0 0 255
-1.20648 -0.202106 5.09967 0 0 0 128 0 0 255
-1.69788 0.468168 4.99234 0 0 0 128 0 0 255
-1.25123 -0.147938 5.08831 0 0 0 128 0 0 255
-0.934638 -0.585078 5.15624 0 0 0 128 0 0 255
-1.49926 0.19041 5.03414 0 0 0 128 0 0 255
-1.3383 -0.0310897 5.06885 0 0 0 128 0 0 255
-0.969058 -0.548083 5.14641 0 0 0 128 0 0 255
-1.48294 0.157586 5.03525 0 0 0 128 0 0 255
-0.946981 -0.579943 5.15083 0 0 0 128 0 0 255
-0.942315 -0.586364 5.15183 0 0 0 128 0 0 255
-1.26991 -0.142962 5.07946 0 0 0 128 0 0 255
-0.94915 -0.584356 5.14863 0 0 0 128 0 0 255
-1.70914 0.459983 4.9844 0 0 0 128 0 0 255
-1.249 -0.173217 5.08363 0 0 0 128 0 0 255
-1.25283 -0.173857 5.08141 0 0 0 128 0 0 255
-0.947481 -0.598475 5.14621 0 0 0 128 0 0 255
-1.5041 0.163052 5.02514 0 0 0 128 0 0 255
-1.06204 -0.445269 5.12046 0 0 0 128 0 0 255
-0.950061 -0.599355 5.14461 0 0 0 128 0 0 255
-0.967639 -0.576642 5.14047 0 0 0 128 0 0 255
-1.06286 -0.448555 5.11923 0 0 0 128 0 0 255
-1.2619 -0.177617 5.07561 0 0 0 128 0 0 255
-1.19783 -0.267258 5.08908 0 0 0 128 0 0 255
-1.06544 -0.449433 5.11762 0 0 0 128 0 0 255
-1.20082 -0.264609 5.08808 0 0 0 128 0 0 255
-1.27397 -0.16838 5.07125 0 0 0 128 0 0 255
-1.26355 -0.184188 5.07314 0 0 0 128 0 0 255
-1.7751 0.518272 4.96248 0 0 0 128 0 0 255
-1.05368 -0.474463 5.11805 0 0 0 128 0 0 255
-1.38268 -0.0231959 5.04675 0 0 0 128 0 0 255
-1.38168 -0.0275258 5.04626 0 0 0 128 0 0 255
-1.77865 0.511387 4.95888 0 0 0 128 0 0 255
-1.29809 -0.149901 5.06251 0 0 0 128 0 0 255
-1.5257 0.160363 5.01271 0 0 0 128 0 0 255
-1.05272 -0.490492 5.11471 0 0 0 128 0 0 255
-1.43962 0.037503 5.03021 0 0 0 128 0 0 255
-1.30724 -0.144672 5.05875 0 0 0 128 0 0 255
-1.66439 0.342394 4.98067 0 0 0 128 0 0 255
-1.28764 -0.176043 5.06191 0 0 0 128 0 0 255
-1.44409 0.0363135 5.02745 0 0 0 128 0 0 255
-1.00825 -0.570788 5.11964 0 0 0 128 0 0 255
-1.02473 -0.551039 5.11537 0 0 0 128 0 0 255
-1.56457 0.184502 4.99715 0 0 0 128 0 0 255
-1.43452 0.00553656 5.0252 0 0 0 128 0 0 255
-1.3103 -0.165403 5.05198 0 0 0 128 0 0 255
-1.5594 0.175919 4.9979 0 0 0 128 0 0 255
-1.42024 -0.0199682 5.02682 0 0 0 128 0 0 255
-1.25053 -0.253506 5.06342 0 0 0 128 0 0 255
-1.02265 -0.570018 5.11183 0 0 0 128 0 0 255
-1.19368 -0.337595 5.07423 0 0 0 128 0 0 255
-1.19492 -0.33735 5.07359 0 0 0 128 0 0 255
-1.46735 0.0360739 5.01448 0 0 0 128 0 0 255
-1.34802 -0.144203 5.03618 0 0 0 128 0 0 255
-1.26061 -0.265943 5.05466 0 0 0 128 0 0 255
-1.66667 0.289903 4.96637 0 0 0 128 0 0 255
-1.5665 0.149149 4.98723 0 0 0 128 0 0 255
-1.28131 -0.24329 5.04872 0 0 0 128 0 0 255
-1.44074 -0.0282744 5.01324 0 0 0 128 0 0 255
-1.48747 0.0345699 5.00279 0 0 0 128 0 0 255
-1.44271 -0.0299425 5.0117 0 0 0 128 0 0 255
-1.49119 0.0353092 5.00087 0 0 0 128 0 0 255
-1.36113 -0.143656 5.02892 0 0 0 128 0 0 255
-1.34487 -0.167485 5.03205 0 0 0 128 0 0 255
-1.35894 -0.149582 5.02865 0 0 0 128 0 0 255
-1.49898 0.0416674 4.99808 0 0 0 128 0 0 255
-1.78372 0.430588 4.93593 0 0 0 128 0 0 255
-1.19236 -0.383182 5.06345 0 0 0 128 0 0 255
-1.30265 -0.232861 5.0393 0 0 0 128 0 0 255
-1.60016 0.175074 4.97477 0 0 0 128 0 0 255
-1.36804 -0.144335 5.02482 0 0 0 128 0 0 255
-1.30228 -0.237738 5.03825 0 0 0 128 0 0 255
-1.15181 -0.444792 5.0707 0 0 0 128 0 0 255
-1.18461 -0.402565 5.06288 0 0 0 128 0 0 255
-1.58709 0.149826 4.97571 0 0 0 128 0 0 255
-1.20334 -0.378241 5.05847 0 0 0 128 0 0 255
-1.18191 -0.41065 5.06234 0 0 0 128 0 0 255
-1.14232 -0.46658 5.0705 0 0 0 128 0 0 255
-1.29052 -0.264094 5.03816 0 0 0 128 0 0 255
-1.61018 0.174338 4.96886 0 0 0 128 0 0 255
-1.46321 -0.0279004 5.00055 0 0 0 128 0 0 255
-1.28942 -0.267056 5.03802 0 0 0 128 0 0 255
-1.13079 -0.485345 5.07223 0 0 0 128 0 0 255
-1.19909 -0.392806 5.05713 0 0 0 128 0 0 255
-1.1829 -0.417992 5.05986 0 0 0 128 0 0 255
-1.08033 -0.560594 5.08161 0 0 0 128 0 0 255
-1.29158 -0.272791 5.0353 0 0 0 128 0 0 255
-1.62524 0.184902 4.96297 0 0 0 128 0 0 255
-1.62589 0.184348 4.96245 0 0 0 128 0 0 255
-1.49584 0.00538254 4.99049 0 0 0 128 0 0 255
-1.21072 -0.388413 5.0516 0 0 0 128 0 0 255
-1.08183 -0.565773 5.07939 0 0 0 128 0 0 255
-1.2231 -0.374273 5.04817 0 0 0 128 0 0 255
-1.20385 -0.400757 5.05232 0 0 0 128 0 0 255
-1.73113 0.323378 4.93824 0 0 0 128 0 0 255
-1.62637 0.161846 4.95625 0 0 0 128 0 0 255
-1.49119 -0.0270535 4.98463 0 0 0 128 0 0 255
-1.22059 -0.399429 5.04298 0 0 0 128 0 0 255
-1.18455 -0.464895 5.04651 0 0 0 128 0 0 255
-1.52929 0.00804764 4.97179 0 0 0 128 0 0 255
-1.16362 -0.495141 5.05064 0 0 0 128 0 0 255
-1.54016 0.0143665 4.96711 0 0 0 128 0 0 255
-1.71945 0.255328 4.92689 0 0 0 128 0 0 255
-1.6689 0.181446 4.93662 0 0 0 128 0 0 255
-1.5634 0.0348333 4.95898 0 0 0 128 0 0 255
-1.55962 0.0224472 4.95783 0 0 0 128 0 0 255
-1.35206 -0.264608 5.0022 0 0 0 128 0 0 255
-1.74654 0.272492 4.91556 0 0 0 128 0 0 255
-1.6772 0.175638 4.93012 0 0 0 128 0 0 255
-1.16631 -0.527382 5.04028 0 0 0 128 0 0 255
-1.53846 -0.0167183 4.95964 0 0 0 128 0 0 255
-1.45465 -0.136342 4.97653 0 0 0 128 0 0 255
-1.1508 -0.554462 5.04205 0 0 0 128 0 0 255
-1.67516 0.165664 4.92858 0 0 0 128 0 0 255
-1.15961 -0.543777 5.03975 0 0 0 128 0 0 255
-1.14701 -0.566842 5.04088 0 0 0 128 0 0 255
-1.18031 -0.52245 5.0333 0 0 0 128 0 0 255
-1.14771 -0.568744 5.03994 0 0 0 128 0 0 255
-1.45926 -0.142895 4.97196 0 0 0 128 0 0 255
-1.24598 -0.440678 5.01675 0 0 0 128 0 0 255
-1.58895 0.02986 4.9424 0 0 0 128 0 0 255
-1.56072 -0.017574 4.94608 0 0 0 128 0 0 255
-1.45999 -0.160466 4.9666 0 0 0 128 0 0 255
-1.25359 -0.445914 5.0107 0 0 0 128 0 0 255
-1.26436 -0.438223 5.00636 0 0 0 128 0 0 255
-1.17338 -0.563418 5.02598 0 0 0 128 0 0 255
-1.25922 -0.448147 5.00667 0 0 0 128 0 0 255
-1.5812 -0.00649852 4.93683 0 0 0 128 0 0 255
-1.34803 -0.330213 4.9863 0 0 0 128 0 0 255
-1.76163 0.236083 4.8963 0 0 0 128 0 0 255
-1.58274 -0.0143447 4.93366 0 0 0 128 0 0 255
-1.19878 -0.552663 5.0136 0 0 0 128 0 0 255
-1.45311 -0.204108 4.95835 0 0 0 128 0 0 255
-1.2677 -0.460663 4.99792 0 0 0 128 0 0 255
-1.20677 -0.553024 5.0086 0 0 0 128 0 0 255
-1.45245 -0.219203 4.95439 0 0 0 128 0 0 255
-1.63587 0.024702 4.91236 0 0 0 128 0 0 255
-1.46854 -0.206974 4.94803 0 0 0 128 0 0 255
-1.31584 -0.419934 4.98013 0 0 0 128 0 0 255
-1.30841 -0.434411 4.98049 0 0 0 128 0 0 255
-1.38859 -0.332549 4.9607 0 0 0 128 0 0 255
-1.31399 -0.436621 4.97637 0 0 0 128 0 0 255
-1.64368 0.0114228 4.90361 0 0 0 128 0 0 255
-1.31889 -0.436936 4.97323 0 0 0 128 0 0 255
-1.24837 -0.535389 4.98801 0 0 0 128 0 0 255
-1.2485 -0.539429 4.98673 0 0 0 128 0 0 255
-1.32791 -0.432978 4.96876 0 0 0 128 0 0 255
-1.4075 -0.331911 4.94907 0 0 0 128 0 0 255
-1.28507 -0.501789 4.97505 0 0 0 128 0 0 255
-1.66653 0.0217227 4.89237 0 0 0 128 0 0 255
-1.28842 -0.511231 4.97009 0 0 0 128 0 0 255
-1.27388 -0.53264 4.9728 0 0 0 128 0 0 255
-1.64834 -0.0187582 4.89163 0 0 0 128 0 0 255
-1.26418 -0.553008 4.97276 0 0 0 128 0 0 255
-1.27384 -0.550922 4.96726 0 0 0 128 0 0 255
-1.37039 -0.429255 4.943 0 0 0 128 0 0 255
-1.29014 -0.548064 4.95771 0 0 0 128 0 0 255
-1.33418 -0.498616 4.94474 0 0 0 128 0 0 255
-1.38506 -0.434165 4.93202 0 0 0 128 0 0 255
-1.30867 -0.539297 4.9485 0 0 0 128 0 0 255
-1.47841 -0.307101 4.91145 0 0 0 128 0 0 255
-1.39275 -0.427758 4.92905 0 0 0 128 0 0 255
-1.37777 -0.455332 4.93009 0 0 0 128 0 0 255
-1.49692 -0.298322 4.9022 0 0 0 128 0 0 255
-1.33945 -0.515006 4.93616 0 0 0 128 0 0 255
-1.33674 -0.527064 4.9341 0 0 0 128 0 0 255
-1.48555 -0.326439 4.90068 0 0 0 128 0 0 255
-1.4956 -0.318157 4.89674 0 0 0 128 0 0 255
-1.32537 -0.555177 4.93256 0 0 0 128 0 0 255
-1.3599 -0.513187 4.92334 0 0 0 128 0 0 255
-1.42657 -0.429734 4.90628 0 0 0 128 0 0 255
-1.44564 -0.422793 4.89588 0 0 0 128 0 0 255
-1.45514 -0.417979 4.89113 0 0 0 128 0 0 255
-1.36769 -0.539697 4.90953 0 0 0 128 0 0 255
-1.40984 -0.489938 4.89772 0 0 0 128 0 0 255
-1.37429 -0.54023 4.90493 0 0 0 128 0 0 255
-1.38328 -0.541557 4.89843 0 0 0 128 0 0 255
-1.41842 -0.50142 4.8881 0 0 0 128 0 0 255
-1.46301 -0.456448 4.87295 0 0 0 128 0 0 255
-1.45953 -0.462598 4.87324 0 0 0 128 0 0 255
-1.45816 -0.49168 4.86422 0 0 0 128 0 0 255
-1.45902 -0.513525 4.85603 0 0 0 128 0 0 255
-1.49696 -0.464023 4.8469 0 0 0 128 0 0 255
-1.53088 -0.426793 4.83626 0 0 0 128 0 0 255
-1.52973 -0.429728 4.83603 0 0 0 128 0 0 255
-1.54204 -0.419528 4.831 0 0 0 128 0 0 255
-1.45106 -0.544723 4.85061 0 0 0 128 0 0 255
-1.52867 -0.443306 4.83197 0 0 0 128 0 0 255
-1.50361 -0.479144 4.83689 0 0 0 128 0 0 255
-1.48037 -0.521882 4.83807 0 0 0 128 0 0 255
-1.47695 -0.538655 4.83446 0 0 0 128 0 0 255
-1.60138 -0.422104 4.78758 0 0 0 128 0 0 255
-1.56347 -0.499423 4.78631 0 0 0 128 0 0 255
-1.51389 -0.575576 4.794 0 0 0 128 0 0 255
-1.51619 -0.582943 4.78948 0 0 0 128 0 0 255
-1.51558 -0.591675 4.78659 0 0 0 128 0 0 255
-1.63318 -0.466524 4.74698 0 0 0 128 0 0 255
-1.53986 -0.59493 4.7671 0 0 0 128 0 0 255
-1.61287 -0.541227 4.73272 0 0 0 128 0 0 255
-1.59095 -0.595898 4.72747 0 0 0 128 0 0 255
