ply
format ascii 1.0
comment VCGLIB generated
element vertex 22
property float x
property float y
property float z
property float nx
property float ny
property float nz
property uchar red
property uchar green
property uchar blue
property uchar alpha
element face 0
property list uchar int vertex_indices
end_header
-1.63873 0.439112 4.91637 0 0 0 255 255 0 255
-1.62827 0.385595 4.90183 0 0 0 255 255 0 255
-1.6009 0.390642 4.85286 0 0 0 255 255 0 255
-1.71322 0.260651 5.05714 0 0 0 255 255 0 255
-1.70306 0.257689 5.03878 0 0 0 255 255 0 255
-1.84302 0.184029 5.29067 0 0 0 255 255 0 255
-1.69964 0.235718 5.03218 0 0 0 255 255 0 255
-1.71549 0.213002 5.06019 0 0 0 255 255 0 255
-1.87676 0.126638 5.34984 0 0 0 255 255 0 255
-1.77992 0.156262 5.17478 0 0 0 255 255 0 255
-1.75994 0.150345 5.13787 0 0 0 255 255 0 255
-1.87472 -0.0194734 5.33054 0 0 0 255 255 0 255
-1.98006 -0.100137 5.51377 0 0 0 255 255 0 255
-1.99705 -0.11693 5.54249 0 0 0 255 255 0 255
-1.8188 -0.0771106 5.21436 0 0 0 255 255 0 255
-2.00348 -0.165518 5.54419 0 0 0 255 255 0 255
-2.0354 -0.188341 5.59941 0 0 0 255 255 0 255
-1.79505 -0.0907481 5.16613 0 0 0 255 255 0 255
-2.08309 -0.220524 5.68223 0 0 0 255 255 0 255
-1.87009 -0.151578 5.29372 0 0 0 255 255 0 255
-2.05727 -0.236069 5.62889 0 0 0 255 255 0 255
-1.63224 -0.127032 4.84359 0 0 0 255 255 0 255
