ply
format ascii 1.0
comment VCGLIB generated
element vertex 133
property float x
property float y
property float z
property float nx
property float ny
property float nz
property uchar red
property uchar green
property uchar blue
property uchar alpha
element face 0
property list uchar int vertex_indices
end_header
3.19048 0.87086 4.12194 0 0 0 255 255 0 255
3.19128 0.882451 4.12294 0 0 0 255 255 0 255
3.19396 0.89154 4.12345 0 0 0 255 255 0 255
3.19459 0.920253 4.12611 0 0 0 255 255 0 255
3.18784 0.938264 4.12878 0 0 0 255 255 0 255
3.17833 0.967897 4.13296 0 0 0 255 255 0 255
3.0606 0.798854 4.13312 0 0 0 255 255 0 255
3.04908 0.79951 4.13479 0 0 0 255 255 0 255
3.01954 0.793149 4.13829 0 0 0 255 255 0 255
3.02156 0.809976 4.13963 0 0 0 255 255 0 255
3.01678 0.804772 4.1398 0 0 0 255 255 0 255
3.01077 0.818634 4.14196 0 0 0 255 255 0 255
2.99227 0.802232 4.14297 0 0 0 255 255 0 255
3.1681 1.12677 4.14964 0 0 0 255 255 0 255
3.02994 0.928091 4.14981 0 0 0 255 255 0 255
3.02872 0.935006 4.15064 0 0 0 255 255 0 255
2.88292 0.739153 4.15214 0 0 0 255 255 0 255
2.89799 0.774916 4.15348 0 0 0 255 255 0 255
3.15113 1.15427 4.15465 0 0 0 255 255 0 255
3.1461 1.15045 4.15498 0 0 0 255 255 0 255
3.15931 1.17656 4.15565 0 0 0 255 255 0 255
3.00015 0.947415 4.15581 0 0 0 255 255 0 255
2.98798 0.931508 4.15598 0 0 0 255 255 0 255
2.88386 0.806525 4.15848 0 0 0 255 255 0 255
2.81379 0.730941 4.16099 0 0 0 255 255 0 255
2.95275 0.965516 4.16416 0 0 0 255 255 0 255
2.82488 0.785242 4.16466 0 0 0 255 255 0 255
2.81652 0.780071 4.16532 0 0 0 255 255 0 255
2.96441 0.996339 4.16549 0 0 0 255 255 0 255
3.13923 1.24992 4.16549 0 0 0 255 255 0 255
3.14205 1.27834 4.16783 0 0 0 255 255 0 255
2.86653 0.880413 4.16799 0 0 0 255 255 0 255
2.94834 1.00256 4.16833 0 0 0 255 255 0 255
2.86069 0.877152 4.16849 0 0 0 255 255 0 255
2.85931 0.876888 4.16866 0 0 0 255 255 0 255
2.89936 0.948877 4.17 0 0 0 255 255 0 255
2.75422 0.745286 4.17066 0 0 0 255 255 0 255
2.89587 0.952499 4.17083 0 0 0 255 255 0 255
2.89449 0.952235 4.171 0 0 0 255 255 0 255
2.7431 0.739587 4.17166 0 0 0 255 255 0 255
3.13871 1.31344 4.17166 0 0 0 255 255 0 255
2.6972 0.700789 4.17433 0 0 0 255 255 0 255
3.10731 1.29743 4.1745 0 0 0 255 255 0 255
2.695 0.701085 4.17467 0 0 0 255 255 0 255
2.84986 0.946563 4.17667 0 0 0 255 255 0 255
2.73099 0.775872 4.17684 0 0 0 255 255 0 255
2.83875 0.940864 4.17767 0 0 0 255 255 0 255
2.77515 0.909405 4.18351 0 0 0 255 255 0 255
2.78722 0.933873 4.18418 0 0 0 255 255 0 255
2.73046 0.863692 4.18535 0 0 0 255 255 0 255
2.77481 0.9315 4.18568 0 0 0 255 255 0 255
2.77627 0.935353 4.18585 0 0 0 255 255 0 255
2.63697 0.735023 4.18601 0 0 0 255 255 0 255
2.71942 0.861582 4.18668 0 0 0 255 255 0 255
2.70546 0.876068 4.19002 0 0 0 255 255 0 255
2.60944 0.757639 4.19202 0 0 0 255 255 0 255
2.7082 0.913047 4.19319 0 0 0 255 255 0 255
3.00901 1.36156 4.19436 0 0 0 255 255 0 255
2.55016 0.697699 4.19452 0 0 0 255 255 0 255
2.6014 0.778975 4.19519 0 0 0 255 255 0 255
3.00665 1.36682 4.19519 0 0 0 255 255 0 255
2.51901 0.668156 4.19602 0 0 0 255 255 0 255
2.65191 0.864401 4.19636 0 0 0 255 255 0 255
2.95135 1.3005 4.19652 0 0 0 255 255 0 255
3.05975 1.4699 4.19769 0 0 0 255 255 0 255
2.65968 0.905201 4.19919 0 0 0 255 255 0 255
2.65975 0.90879 4.19953 0 0 0 255 255 0 255
2.97881 1.37508 4.19986 0 0 0 255 255 0 255
2.61286 0.899825 4.2052 0 0 0 255 255 0 255
2.56412 0.832609 4.20553 0 0 0 255 255 0 255
2.93621 1.37409 4.2057 0 0 0 255 255 0 255
2.56006 0.847557 4.20754 0 0 0 255 255 0 255
2.92396 1.37889 4.20787 0 0 0 255 255 0 255
2.54877 0.858981 4.21021 0 0 0 255 255 0 255
2.40979 0.660858 4.21054 0 0 0 255 255 0 255
3.06138 1.60603 4.21054 0 0 0 255 255 0 255
2.54576 0.871987 4.21187 0 0 0 255 255 0 255
2.81674 1.27548 4.21287 0 0 0 255 255 0 255
2.5434 0.889406 4.21388 0 0 0 255 255 0 255
2.48461 0.814549 4.21488 0 0 0 255 255 0 255
2.49572 0.832398 4.21504 0 0 0 255 255 0 255
2.79109 1.28344 4.21721 0 0 0 255 255 0 255
2.39784 0.716471 4.21755 0 0 0 255 255 0 255
2.47503 0.828443 4.21755 0 0 0 255 255 0 255
2.34813 0.654787 4.21855 0 0 0 255 255 0 255
2.35185 0.661933 4.21871 0 0 0 255 255 0 255
2.6778 1.15385 4.22055 0 0 0 255 255 0 255
2.35411 0.689528 4.22105 0 0 0 255 255 0 255
3.03748 1.6808 4.22105 0 0 0 255 255 0 255
3.03918 1.68327 4.22105 0 0 0 255 255 0 255
3.01453 1.64925 4.22122 0 0 0 255 255 0 255
2.4073 0.771892 4.22155 0 0 0 255 255 0 255
3.0138 1.6534 4.22172 0 0 0 255 255 0 255
2.40097 0.771396 4.22239 0 0 0 255 255 0 255
2.4583 0.854551 4.22239 0 0 0 255 255 0 255
2.47419 0.877604 4.22239 0 0 0 255 255 0 255
2.46259 0.874671 4.22372 0 0 0 255 255 0 255
2.76965 1.32009 4.22372 0 0 0 255 255 0 255
2.74613 1.28771 4.22389 0 0 0 255 255 0 255
2.33512 0.700193 4.22472 0 0 0 255 255 0 255
2.33211 0.701048 4.22522 0 0 0 255 255 0 255
2.75699 1.3191 4.22539 0 0 0 255 255 0 255
2.76445 1.33339 4.22572 0 0 0 255 255 0 255
2.69698 1.239 4.22606 0 0 0 255 255 0 255
2.39364 0.825035 4.22856 0 0 0 255 255 0 255
2.38861 0.821215 4.22889 0 0 0 255 255 0 255
2.37829 0.839257 4.23206 0 0 0 255 255 0 255
2.91417 1.62006 4.2324 0 0 0 255 255 0 255
2.76724 1.41041 4.23273 0 0 0 255 255 0 255
2.31972 0.811619 4.23757 0 0 0 255 255 0 255
2.68013 1.33443 4.23757 0 0 0 255 255 0 255
2.31437 0.805592 4.23774 0 0 0 255 255 0 255
2.31534 0.812211 4.23824 0 0 0 255 255 0 255
2.67501 1.35132 4.2399 0 0 0 255 255 0 255
2.67201 1.35217 4.2404 0 0 0 255 255 0 255
2.64622 1.31651 4.24057 0 0 0 255 255 0 255
2.6154 1.28917 4.24224 0 0 0 255 255 0 255
2.57129 1.23213 4.24291 0 0 0 255 255 0 255
2.60979 1.30883 4.24491 0 0 0 255 255 0 255
2.59147 1.28745 4.24541 0 0 0 255 255 0 255
2.56941 1.25893 4.24574 0 0 0 255 255 0 255
2.61911 1.33277 4.24591 0 0 0 255 255 0 255
2.57409 1.30915 4.24992 0 0 0 255 255 0 255
2.52312 1.32728 4.25876 0 0 0 255 255 0 255
2.47226 1.28825 4.26209 0 0 0 255 255 0 255
2.48194 1.40304 4.27177 0 0 0 255 255 0 255
2.46392 1.39603 4.27361 0 0 0 255 255 0 255
2.43 1.40241 4.27895 0 0 0 255 255 0 255
2.38148 1.39456 4.28495 0 0 0 255 255 0 255
2.4365 1.53518 4.29079 0 0 0 255 255 0 255
2.37772 1.59756 4.30497 0 0 0 255 255 0 255
2.32321 1.55498 4.30848 0 0 0 255 255 0 255
2.29043 1.55085 4.31265 0 0 0 255 255 0 255
