ply
format ascii 1.0
comment VCGLIB generated
element vertex 26
property float x
property float y
property float z
property float nx
property float ny
property float nz
property uchar red
property uchar green
property uchar blue
property uchar alpha
element face 0
property list uchar int vertex_indices
end_header
3.22617 2.37854 3.372 0 0 0 0 128 128 255
3.07191 2.39212 3.28982 0 0 0 0 128 128 255
3.14545 2.39951 3.27349 0 0 0 0 128 128 255
2.89014 2.39235 3.25392 0 0 0 0 128 128 255
3.05901 2.3994 3.25718 0 0 0 0 128 128 255
3.05721 2.40073 3.25126 0 0 0 0 128 128 255
2.95073 2.39939 3.23604 0 0 0 0 128 128 255
3.13761 2.40731 3.23908 0 0 0 0 128 128 255
2.95838 2.40419 3.21687 0 0 0 0 128 128 255
2.93199 2.40702 3.19918 0 0 0 0 128 128 255
2.84838 2.40575 3.18783 0 0 0 0 128 128 255
2.88842 2.40786 3.18659 0 0 0 0 128 128 255
2.88083 2.4102 3.17455 0 0 0 0 128 128 255
2.93781 2.4127 3.17501 0 0 0 0 128 128 255
2.92883 2.41237 3.17463 0 0 0 0 128 128 255
2.92799 2.41342 3.16971 0 0 0 0 128 128 255
2.9077 2.41695 3.1493 0 0 0 0 128 128 255
2.9047 2.41684 3.14917 0 0 0 0 128 128 255
2.79191 2.41295 3.14342 0 0 0 0 128 128 255
2.80264 2.41794 3.12235 0 0 0 0 128 128 255
2.85765 2.42055 3.12174 0 0 0 0 128 128 255
2.86568 2.42105 3.1211 0 0 0 0 128 128 255
2.79492 2.41931 3.11419 0 0 0 0 128 128 255
2.8428 2.42671 3.08878 0 0 0 0 128 128 255
2.82183 2.42595 3.08789 0 0 0 0 128 128 255
2.82125 2.42831 3.0761 0 0 0 0 128 128 255
