ply
format ascii 1.0
comment VCGLIB generated
element vertex 11
property float x
property float y
property float z
property float nx
property float ny
property float nz
property uchar red
property uchar green
property uchar blue
property uchar alpha
element face 0
property list uchar int vertex_indices
end_header
0.840011 1.5525 3.62747 0 0 0 128 128 0 255
0.866424 1.55433 3.63079 0 0 0 128 128 0 255
0.866611 1.54924 3.63091 0 0 0 128 128 0 255
0.868886 1.5509 3.63117 0 0 0 128 128 0 255
0.901148 1.55787 3.63512 0 0 0 128 128 0 255
0.901652 1.55475 3.63524 0 0 0 128 128 0 255
0.905755 1.54903 3.63588 0 0 0 128 128 0 255
0.92701 1.53751 3.63881 0 0 0 128 128 0 255
0.938837 1.55485 3.63996 0 0 0 128 128 0 255
0.946803 1.56066 3.64085 0 0 0 128 128 0 255
0.966865 1.56048 3.64339 0 0 0 128 128 0 255
