ply
format ascii 1.0
comment VCGLIB generated
element vertex 387
property float x
property float y
property float z
property float nx
property float ny
property float nz
property uchar red
property uchar green
property uchar blue
property uchar alpha
element face 0
property list uchar int vertex_indices
end_header
-1.05323 -0.907189 3.72891 0 0 0 128 0 0 255
-0.997944 -0.211549 3.67967 0 0 0 128 0 0 255
-0.978549 0.0248782 3.66872 0 0 0 128 0 0 255
-0.983714 -0.061961 3.66759 0 0 0 128 0 0 255
-1.0253 -0.793662 3.6535 0 0 0 128 0 0 255
-0.976247 0.0108131 3.66118 0 0 0 128 0 0 255
-0.974258 -0.0412518 3.64963 0 0 0 128 0 0 255
-1.00854 -0.785227 3.62151 0 0 0 128 0 0 255
-0.966012 -0.104564 3.62689 0 0 0 128 0 0 255
-0.957611 0.0191671 3.62679 0 0 0 128 0 0 255
-0.95371 0.0310212 3.62186 0 0 0 128 0 0 255
-0.959462 -0.0748043 3.61965 0 0 0 128 0 0 255
-0.953961 -0.00998952 3.61798 0 0 0 128 0 0 255
-0.957208 -0.0738934 3.61632 0 0 0 128 0 0 255
-0.950218 0.0058685 3.61404 0 0 0 128 0 0 255
-0.948575 -0.0642415 3.60499 0 0 0 128 0 0 255
-0.978912 -0.574297 3.59838 0 0 0 128 0 0 255
-0.95326 -0.163109 3.60211 0 0 0 128 0 0 255
-0.953616 -0.169098 3.60203 0 0 0 128 0 0 255
-0.950997 -0.135186 3.60167 0 0 0 128 0 0 255
-0.952897 -0.167127 3.60126 0 0 0 128 0 0 255
-0.976347 -0.561397 3.59615 0 0 0 128 0 0 255
-0.996759 -0.914768 3.59077 0 0 0 128 0 0 255
-0.94277 -0.079499 3.59608 0 0 0 128 0 0 255
-0.942976 -0.0935002 3.59512 0 0 0 128 0 0 255
-0.94915 -0.197308 3.59377 0 0 0 128 0 0 255
-0.970073 -0.559665 3.5883 0 0 0 128 0 0 255
-0.945003 -0.159461 3.59194 0 0 0 128 0 0 255
-0.953213 -0.308213 3.58924 0 0 0 128 0 0 255
-0.945095 -0.182474 3.5901 0 0 0 128 0 0 255
-0.946935 -0.213417 3.5897 0 0 0 128 0 0 255
-0.974206 -0.693584 3.58194 0 0 0 128 0 0 255
-0.976165 -0.726523 3.58152 0 0 0 128 0 0 255
-0.975862 -0.798594 3.57529 0 0 0 128 0 0 255
-0.929601 -0.12312 3.57741 0 0 0 128 0 0 255
-0.957622 -0.594248 3.57131 0 0 0 128 0 0 255
-0.929211 -0.128142 3.57662 0 0 0 128 0 0 255
-0.974293 -0.897749 3.56592 0 0 0 128 0 0 255
-0.93905 -0.316856 3.57273 0 0 0 128 0 0 255
-0.925571 -0.137318 3.5722 0 0 0 128 0 0 255
-0.954194 -0.630438 3.5651 0 0 0 128 0 0 255
-0.961679 -0.81626 3.55918 0 0 0 128 0 0 255
-0.94423 -0.583861 3.55875 0 0 0 128 0 0 255
-0.950938 -0.696652 3.55729 0 0 0 128 0 0 255
-0.948011 -0.659755 3.55708 0 0 0 128 0 0 255
-0.941164 -0.556981 3.55774 0 0 0 128 0 0 255
-0.937732 -0.524112 3.55681 0 0 0 128 0 0 255
-0.947171 -0.682818 3.55476 0 0 0 128 0 0 255
-0.940849 -0.614052 3.55364 0 0 0 128 0 0 255
-0.946217 -0.716897 3.55164 0 0 0 128 0 0 255
-0.934782 -0.537266 3.55331 0 0 0 128 0 0 255
-0.9069 -0.0811462 3.55856 0 0 0 128 0 0 255
-0.934821 -0.56329 3.55166 0 0 0 128 0 0 255
-0.91995 -0.338779 3.55326 0 0 0 128 0 0 255
-0.935777 -0.669353 3.54576 0 0 0 128 0 0 255
-0.904074 -0.162367 3.55107 0 0 0 128 0 0 255
-0.926159 -0.53368 3.54625 0 0 0 128 0 0 255
-0.902403 -0.160447 3.54984 0 0 0 128 0 0 255
-0.940754 -0.805253 3.54148 0 0 0 128 0 0 255
-0.931996 -0.697568 3.54101 0 0 0 128 0 0 255
-0.936596 -0.801454 3.53843 0 0 0 128 0 0 255
-0.917322 -0.504083 3.54107 0 0 0 128 0 0 255
-0.926627 -0.700837 3.53671 0 0 0 128 0 0 255
-0.924303 -0.71597 3.53414 0 0 0 128 0 0 255
-0.928481 -0.799855 3.53247 0 0 0 128 0 0 255
-0.924973 -0.782011 3.53096 0 0 0 128 0 0 255
-0.909611 -0.537505 3.53355 0 0 0 128 0 0 255
-0.908981 -0.554556 3.53219 0 0 0 128 0 0 255
-0.908752 -0.564579 3.53149 0 0 0 128 0 0 255
-0.890956 -0.321198 3.53241 0 0 0 128 0 0 255
-0.918677 -0.815368 3.5249 0 0 0 128 0 0 255
-0.872172 -0.0758656 3.53286 0 0 0 128 0 0 255
-0.885826 -0.305441 3.52988 0 0 0 128 0 0 255
-0.887667 -0.336383 3.52948 0 0 0 128 0 0 255
-0.913718 -0.788589 3.52308 0 0 0 128 0 0 255
-0.907354 -0.695805 3.52375 0 0 0 128 0 0 255
-0.883203 -0.332608 3.52687 0 0 0 128 0 0 255
-0.891276 -0.468356 3.52511 0 0 0 128 0 0 255
-0.872675 -0.169953 3.52846 0 0 0 128 0 0 255
-0.871941 -0.171993 3.52791 0 0 0 128 0 0 255
-0.890475 -0.512451 3.52247 0 0 0 128 0 0 255
-0.887214 -0.486588 3.52178 0 0 0 128 0 0 255
-0.883319 -0.464763 3.52056 0 0 0 128 0 0 255
-0.860546 -0.0964901 3.52483 0 0 0 128 0 0 255
-0.88289 -0.486813 3.51928 0 0 0 128 0 0 255
-0.883959 -0.50478 3.51905 0 0 0 128 0 0 255
-0.873293 -0.34013 3.52069 0 0 0 128 0 0 255
-0.895615 -0.715435 3.51583 0 0 0 128 0 0 255
-0.894405 -0.72451 3.51474 0 0 0 128 0 0 255
-0.869486 -0.320304 3.51949 0 0 0 128 0 0 255
-0.897462 -0.805452 3.51273 0 0 0 128 0 0 255
-0.867731 -0.320396 3.51854 0 0 0 128 0 0 255
-0.887986 -0.675784 3.51346 0 0 0 128 0 0 255
-0.890777 -0.722697 3.51285 0 0 0 128 0 0 255
-0.865627 -0.344537 3.51635 0 0 0 128 0 0 255
-0.874532 -0.49426 3.51441 0 0 0 128 0 0 255
-0.885104 -0.68695 3.51146 0 0 0 128 0 0 255
-0.841949 -0.127509 3.51385 0 0 0 128 0 0 255
-0.880135 -0.815382 3.50367 0 0 0 128 0 0 255
-0.850948 -0.355331 3.50881 0 0 0 128 0 0 255
-0.873271 -0.730636 3.50394 0 0 0 128 0 0 255
-0.873415 -0.794714 3.5015 0 0 0 128 0 0 255
-0.833553 -0.139976 3.50959 0 0 0 128 0 0 255
-0.865287 -0.689009 3.50208 0 0 0 128 0 0 255
-0.862465 -0.68816 3.50094 0 0 0 128 0 0 255
-0.868104 -0.782985 3.49971 0 0 0 128 0 0 255
-0.868665 -0.807988 3.49901 0 0 0 128 0 0 255
-0.858447 -0.714414 3.49837 0 0 0 128 0 0 255
-0.818426 -0.088725 3.50541 0 0 0 128 0 0 255
-0.815439 -0.085884 3.50441 0 0 0 128 0 0 255
-0.81931 -0.166786 3.50302 0 0 0 128 0 0 255
-0.815247 -0.162002 3.50175 0 0 0 128 0 0 255
-0.846722 -0.723067 3.49383 0 0 0 128 0 0 255
-0.845182 -0.713138 3.49364 0 0 0 128 0 0 255
-0.843049 -0.725273 3.49255 0 0 0 128 0 0 255
-0.838237 -0.676469 3.49258 0 0 0 128 0 0 255
-0.841247 -0.791468 3.48991 0 0 0 128 0 0 255
-0.822681 -0.690356 3.48777 0 0 0 128 0 0 255
-0.830458 -0.821114 3.48608 0 0 0 128 0 0 255
-0.82288 -0.726398 3.48682 0 0 0 128 0 0 255
-0.822563 -0.737433 3.48644 0 0 0 128 0 0 255
-0.820027 -0.727561 3.48611 0 0 0 128 0 0 255
-0.810245 -0.595914 3.48737 0 0 0 128 0 0 255
-0.780044 -0.153954 3.49224 0 0 0 128 0 0 255
-0.814002 -0.724897 3.48484 0 0 0 128 0 0 255
-0.80163 -0.566357 3.48629 0 0 0 128 0 0 255
-0.802076 -0.590369 3.48579 0 0 0 128 0 0 255
-0.807894 -0.688188 3.48452 0 0 0 128 0 0 255
-0.809704 -0.735157 3.48372 0 0 0 128 0 0 255
-0.799462 -0.579501 3.48555 0 0 0 128 0 0 255
-0.80718 -0.70926 3.48387 0 0 0 128 0 0 255
-0.76469 -0.0777104 3.49116 0 0 0 128 0 0 255
-0.763018 -0.082814 3.49076 0 0 0 128 0 0 255
-0.793295 -0.591872 3.48416 0 0 0 128 0 0 255
-0.806237 -0.809469 3.48134 0 0 0 128 0 0 255
-0.767043 -0.18374 3.48913 0 0 0 128 0 0 255
-0.76337 -0.171933 3.48883 0 0 0 128 0 0 255
-0.799389 -0.810864 3.48027 0 0 0 128 0 0 255
-0.795531 -0.796063 3.48006 0 0 0 128 0 0 255
-0.789198 -0.706287 3.48109 0 0 0 128 0 0 255
-0.794897 -0.802109 3.47985 0 0 0 128 0 0 255
-0.751993 -0.0974709 3.48886 0 0 0 128 0 0 255
-0.789988 -0.736288 3.48058 0 0 0 128 0 0 255
-0.761961 -0.31524 3.48569 0 0 0 128 0 0 255
-0.763571 -0.409297 3.48405 0 0 0 128 0 0 255
-0.788149 -0.822533 3.47869 0 0 0 128 0 0 255
-0.759965 -0.365437 3.48452 0 0 0 128 0 0 255
-0.746326 -0.152888 3.48718 0 0 0 128 0 0 255
-0.757458 -0.373596 3.48414 0 0 0 128 0 0 255
-0.765679 -0.545394 3.48175 0 0 0 128 0 0 255
-0.757322 -0.421681 3.48328 0 0 0 128 0 0 255
-0.762368 -0.506524 3.48218 0 0 0 128 0 0 255
-0.763807 -0.547507 3.48158 0 0 0 128 0 0 255
-0.752138 -0.384925 3.48355 0 0 0 128 0 0 255
-0.764071 -0.585553 3.48095 0 0 0 128 0 0 255
-0.750751 -0.41205 3.48302 0 0 0 128 0 0 255
-0.769808 -0.732457 3.47887 0 0 0 128 0 0 255
-0.767683 -0.713551 3.47906 0 0 0 128 0 0 255
-0.765202 -0.688656 3.47934 0 0 0 128 0 0 255
-0.771792 -0.799451 3.4779 0 0 0 128 0 0 255
-0.758921 -0.599879 3.48044 0 0 0 128 0 0 255
-0.763813 -0.715782 3.47886 0 0 0 128 0 0 255
-0.765297 -0.740736 3.47854 0 0 0 128 0 0 255
-0.760975 -0.684898 3.47923 0 0 0 128 0 0 255
-0.762697 -0.713845 3.47885 0 0 0 128 0 0 255
-0.740468 -0.39062 3.48296 0 0 0 128 0 0 255
-0.750382 -0.557312 3.4808 0 0 0 128 0 0 255
-0.736632 -0.359796 3.48332 0 0 0 128 0 0 255
-0.75754 -0.728173 3.47853 0 0 0 128 0 0 255
-0.761874 -0.801038 3.47758 0 0 0 128 0 0 255
-0.761005 -0.820122 3.47732 0 0 0 128 0 0 255
-0.7298 -0.329149 3.48368 0 0 0 128 0 0 255
-0.709508 -0.00480938 3.48788 0 0 0 128 0 0 255
-0.744712 -0.596714 3.48021 0 0 0 128 0 0 255
-0.75712 -0.805328 3.47751 0 0 0 128 0 0 255
-0.732256 -0.40413 3.48272 0 0 0 128 0 0 255
-0.706213 -0.0841401 3.487 0 0 0 128 0 0 255
-0.703054 -0.0983536 3.48698 0 0 0 128 0 0 255
-0.703233 -0.101348 3.48694 0 0 0 128 0 0 255
-0.706213 -0.168284 3.48612 0 0 0 128 0 0 255
-0.726873 -0.515641 3.48162 0 0 0 128 0 0 255
-0.742796 -0.800175 3.47798 0 0 0 128 0 0 255
-0.743805 -0.817143 3.47776 0 0 0 128 0 0 255
-0.743461 -0.828183 3.47767 0 0 0 128 0 0 255
-0.727695 -0.596731 3.48079 0 0 0 128 0 0 255
-0.696006 -0.0807468 3.48754 0 0 0 128 0 0 255
-0.733526 -0.711579 3.47937 0 0 0 128 0 0 255
-0.730229 -0.68974 3.47979 0 0 0 128 0 0 255
-0.737293 -0.80852 3.47825 0 0 0 128 0 0 255
-0.731385 -0.742762 3.47926 0 0 0 128 0 0 255
-0.719362 -0.574195 3.48161 0 0 0 128 0 0 255
-0.708572 -0.40956 3.48383 0 0 0 128 0 0 255
-0.708543 -0.44262 3.48359 0 0 0 128 0 0 255
-0.726472 -0.744062 3.47968 0 0 0 128 0 0 255
-0.696689 -0.377225 3.48533 0 0 0 128 0 0 255
-0.707691 -0.578913 3.48284 0 0 0 128 0 0 255
-0.716834 -0.732628 3.48085 0 0 0 128 0 0 255
-0.697816 -0.446279 3.48482 0 0 0 128 0 0 255
-0.702526 -0.542163 3.48371 0 0 0 128 0 0 255
-0.705435 -0.591072 3.48308 0 0 0 128 0 0 255
-0.679653 -0.190934 3.48855 0 0 0 128 0 0 255
-0.701856 -0.564243 3.48371 0 0 0 128 0 0 255
-0.715317 -0.823884 3.48064 0 0 0 128 0 0 255
-0.69759 -0.542466 3.48444 0 0 0 128 0 0 255
-0.712395 -0.808035 3.48116 0 0 0 128 0 0 255
-0.702767 -0.679395 3.48315 0 0 0 128 0 0 255
-0.684744 -0.392986 3.48703 0 0 0 128 0 0 255
-0.703089 -0.701415 3.48303 0 0 0 128 0 0 255
-0.699487 -0.690617 3.4837 0 0 0 128 0 0 255
-0.700674 -0.71058 3.48344 0 0 0 128 0 0 255
-0.667009 -0.177688 3.49071 0 0 0 128 0 0 255
-0.664366 -0.182861 3.49121 0 0 0 128 0 0 255
-0.660629 -0.153038 3.492 0 0 0 128 0 0 255
-0.660688 -0.154036 3.49199 0 0 0 128 0 0 255
-0.674461 -0.385608 3.48898 0 0 0 128 0 0 255
-0.687107 -0.598214 3.48623 0 0 0 128 0 0 255
-0.695893 -0.745941 3.48431 0 0 0 128 0 0 255
-0.664995 -0.242933 3.49104 0 0 0 128 0 0 255
-0.688224 -0.699331 3.48597 0 0 0 128 0 0 255
-0.695111 -0.815117 3.48447 0 0 0 128 0 0 255
-0.659467 -0.232257 3.49225 0 0 0 128 0 0 255
-0.689543 -0.754351 3.48571 0 0 0 128 0 0 255
-0.682474 -0.684663 3.4873 0 0 0 128 0 0 255
-0.684038 -0.743675 3.48702 0 0 0 128 0 0 255
-0.681705 -0.720779 3.48756 0 0 0 128 0 0 255
-0.647432 -0.160876 3.49506 0 0 0 128 0 0 255
-0.654319 -0.276661 3.49356 0 0 0 128 0 0 255
-0.6805 -0.716847 3.48786 0 0 0 128 0 0 255
-0.678822 -0.70493 3.48826 0 0 0 128 0 0 255
-0.682828 -0.804866 3.48748 0 0 0 128 0 0 255
-0.668969 -0.604359 3.49061 0 0 0 128 0 0 255
-0.644646 -0.260239 3.49616 0 0 0 128 0 0 255
-0.667897 -0.699608 3.49132 0 0 0 128 0 0 255
-0.642957 -0.296415 3.49683 0 0 0 128 0 0 255
-0.631549 -0.152862 3.49959 0 0 0 128 0 0 255
-0.670316 -0.804656 3.49114 0 0 0 128 0 0 255
-0.621516 -0.0322674 3.50207 0 0 0 128 0 0 255
-0.632321 -0.213931 3.49972 0 0 0 128 0 0 255
-0.619203 -0.00937037 3.50268 0 0 0 128 0 0 255
-0.66735 -0.818872 3.49219 0 0 0 128 0 0 255
-0.619384 -0.0283957 3.50275 0 0 0 128 0 0 255
-0.61826 -0.0254616 3.50311 0 0 0 128 0 0 255
-0.659877 -0.725166 3.49404 0 0 0 128 0 0 255
-0.657937 -0.74032 3.49483 0 0 0 128 0 0 255
-0.660261 -0.795278 3.49445 0 0 0 128 0 0 255
-0.661686 -0.819234 3.49414 0 0 0 128 0 0 255
-0.624128 -0.219465 3.50259 0 0 0 128 0 0 255
-0.660342 -0.828338 3.4947 0 0 0 128 0 0 255
-0.658988 -0.821411 3.49513 0 0 0 128 0 0 255
-0.634661 -0.428199 3.50057 0 0 0 128 0 0 255
-0.619359 -0.186706 3.50405 0 0 0 128 0 0 255
-0.633845 -0.430256 3.50089 0 0 0 128 0 0 255
-0.650765 -0.714729 3.49721 0 0 0 128 0 0 255
-0.642231 -0.587026 3.49921 0 0 0 128 0 0 255
-0.651433 -0.741739 3.49721 0 0 0 128 0 0 255
-0.618561 -0.204793 3.50452 0 0 0 128 0 0 255
-0.631859 -0.42838 3.50163 0 0 0 128 0 0 255
-0.618817 -0.224817 3.50462 0 0 0 128 0 0 255
-0.613434 -0.150015 3.50596 0 0 0 128 0 0 255
-0.639183 -0.614276 3.50067 0 0 0 128 0 0 255
-0.6379 -0.608347 3.50112 0 0 0 128 0 0 255
-0.646389 -0.751083 3.49927 0 0 0 128 0 0 255
-0.623583 -0.398855 3.50459 0 0 0 128 0 0 255
-0.639818 -0.68738 3.50123 0 0 0 128 0 0 255
-0.619365 -0.359048 3.50587 0 0 0 128 0 0 255
-0.631386 -0.576705 3.50344 0 0 0 128 0 0 255
-0.640885 -0.736409 3.50137 0 0 0 128 0 0 255
-0.607314 -0.187485 3.50888 0 0 0 128 0 0 255
-0.620613 -0.411072 3.50598 0 0 0 128 0 0 255
-0.644181 -0.807338 3.50084 0 0 0 128 0 0 255
-0.604603 -0.203694 3.51026 0 0 0 128 0 0 255
-0.625894 -0.577063 3.50583 0 0 0 128 0 0 255
-0.634918 -0.728782 3.50386 0 0 0 128 0 0 255
-0.605452 -0.24873 3.5105 0 0 0 128 0 0 255
-0.632464 -0.702889 3.50461 0 0 0 128 0 0 255
-0.614873 -0.422468 3.50866 0 0 0 128 0 0 255
-0.625381 -0.599141 3.50637 0 0 0 128 0 0 255
-0.622633 -0.568258 3.50718 0 0 0 128 0 0 255
-0.633675 -0.753914 3.50478 0 0 0 128 0 0 255
-0.620347 -0.560391 3.50813 0 0 0 128 0 0 255
-0.62734 -0.693204 3.50683 0 0 0 128 0 0 255
-0.584684 -0.0216254 3.51683 0 0 0 128 0 0 255
-0.59537 -0.201293 3.5145 0 0 0 128 0 0 255
-0.595786 -0.20828 3.51441 0 0 0 128 0 0 255
-0.615721 -0.573722 3.51055 0 0 0 128 0 0 255
-0.596482 -0.265352 3.515 0 0 0 128 0 0 255
-0.604435 -0.414135 3.51351 0 0 0 128 0 0 255
-0.62652 -0.785448 3.5087 0 0 0 128 0 0 255
-0.612806 -0.584937 3.5122 0 0 0 128 0 0 255
-0.621357 -0.743702 3.5106 0 0 0 128 0 0 255
-0.618867 -0.71681 3.51141 0 0 0 128 0 0 255
-0.582793 -0.155026 3.52009 0 0 0 128 0 0 255
-0.582971 -0.158021 3.52005 0 0 0 128 0 0 255
-0.58594 -0.207928 3.5194 0 0 0 128 0 0 255
-0.589512 -0.282848 3.5189 0 0 0 128 0 0 255
-0.598774 -0.43856 3.51689 0 0 0 128 0 0 255
-0.614268 -0.699078 3.51351 0 0 0 128 0 0 255
-0.585619 -0.247031 3.52032 0 0 0 128 0 0 255
-0.618999 -0.823024 3.51334 0 0 0 128 0 0 255
-0.581021 -0.199237 3.52191 0 0 0 128 0 0 255
-0.564563 -0.0249658 3.52763 0 0 0 128 0 0 255
-0.579791 -0.295523 3.52464 0 0 0 128 0 0 255
-0.604376 -0.73782 3.51993 0 0 0 128 0 0 255
-0.600612 -0.688968 3.52108 0 0 0 128 0 0 255
-0.601028 -0.695955 3.52099 0 0 0 128 0 0 255
-0.581305 -0.492846 3.5284 0 0 0 128 0 0 255
-0.594722 -0.718429 3.52548 0 0 0 128 0 0 255
-0.552028 -0.0288189 3.53551 0 0 0 128 0 0 255
-0.594298 -0.739503 3.5263 0 0 0 128 0 0 255
-0.550305 -0.0139033 3.53625 0 0 0 128 0 0 255
-0.551671 -0.0368608 3.53595 0 0 0 128 0 0 255
-0.560875 -0.219636 3.5347 0 0 0 128 0 0 255
-0.561231 -0.225625 3.53462 0 0 0 128 0 0 255
-0.592577 -0.752649 3.52779 0 0 0 128 0 0 255
-0.554813 -0.201008 3.53834 0 0 0 128 0 0 255
-0.581701 -0.694263 3.53369 0 0 0 128 0 0 255
-0.583444 -0.73724 3.53372 0 0 0 128 0 0 255
-0.55325 -0.24321 3.54071 0 0 0 128 0 0 255
-0.55761 -0.330105 3.54017 0 0 0 128 0 0 255
-0.560281 -0.375021 3.53959 0 0 0 128 0 0 255
-0.576553 -0.702637 3.53773 0 0 0 128 0 0 255
-0.54364 -0.162691 3.54534 0 0 0 128 0 0 255
-0.565962 -0.537997 3.54047 0 0 0 128 0 0 255
-0.575758 -0.702692 3.53834 0 0 0 128 0 0 255
-0.576767 -0.71966 3.53812 0 0 0 128 0 0 255
-0.548838 -0.316681 3.54641 0 0 0 128 0 0 255
-0.573357 -0.728918 3.54106 0 0 0 128 0 0 255
-0.54781 -0.325774 3.54753 0 0 0 128 0 0 255
-0.568103 -0.693202 3.54403 0 0 0 128 0 0 255
-0.571665 -0.753092 3.54325 0 0 0 128 0 0 255
-0.545719 -0.329929 3.54937 0 0 0 128 0 0 255
-0.525121 -0.00963035 3.55479 0 0 0 128 0 0 255
-0.541269 -0.281128 3.55127 0 0 0 128 0 0 255
-0.566916 -0.71233 3.54568 0 0 0 128 0 0 255
-0.558074 -0.576635 3.54808 0 0 0 128 0 0 255
-0.557784 -0.584674 3.54862 0 0 0 128 0 0 255
-0.565333 -0.724469 3.54745 0 0 0 128 0 0 255
-0.564007 -0.7406 3.54919 0 0 0 128 0 0 255
-0.519084 0.00197209 3.55947 0 0 0 128 0 0 255
-0.54646 -0.496265 3.555 0 0 0 128 0 0 255
-0.546546 -0.510292 3.55548 0 0 0 128 0 0 255
-0.547733 -0.530255 3.55522 0 0 0 128 0 0 255
-0.558134 -0.75505 3.555 0 0 0 128 0 0 255
-0.549802 -0.627339 3.55733 0 0 0 128 0 0 255
-0.52001 -0.163355 3.56539 0 0 0 128 0 0 255
-0.516776 -0.145544 3.5677 0 0 0 128 0 0 255
-0.517187 -0.16456 3.56815 0 0 0 128 0 0 255
-0.542418 -0.588775 3.56265 0 0 0 128 0 0 255
-0.512385 -0.131827 3.57138 0 0 0 128 0 0 255
-0.548124 -0.732715 3.56359 0 0 0 128 0 0 255
-0.51542 -0.194762 3.57127 0 0 0 128 0 0 255
-0.548606 -0.752729 3.56404 0 0 0 128 0 0 255
-0.529619 -0.445349 3.56873 0 0 0 128 0 0 255
-0.529275 -0.451389 3.56937 0 0 0 128 0 0 255
-0.54566 -0.726879 3.5658 0 0 0 128 0 0 255
-0.541876 -0.675025 3.56719 0 0 0 128 0 0 255
-0.543182 -0.696985 3.5669 0 0 0 128 0 0 255
-0.534729 -0.578306 3.56988 0 0 0 128 0 0 255
-0.508299 -0.157186 3.57678 0 0 0 128 0 0 255
-0.506842 -0.14426 3.57768 0 0 0 128 0 0 255
-0.529298 -0.567677 3.57512 0 0 0 128 0 0 255
-0.500442 -0.127689 3.5838 0 0 0 128 0 0 255
-0.509288 -0.276414 3.58187 0 0 0 128 0 0 255
-0.50815 -0.268477 3.58272 0 0 0 128 0 0 255
-0.508625 -0.276463 3.58262 0 0 0 128 0 0 255
-0.524529 -0.554996 3.57976 0 0 0 128 0 0 255
-0.518469 -0.464213 3.58169 0 0 0 128 0 0 255
-0.518646 -0.478236 3.58226 0 0 0 128 0 0 255
-0.50418 -0.278799 3.58789 0 0 0 128 0 0 255
-0.518488 -0.519354 3.58477 0 0 0 128 0 0 255
-0.508332 -0.454949 3.59336 0 0 0 128 0 0 255
-0.512942 -0.542833 3.59301 0 0 0 128 0 0 255
-0.513251 -0.578906 3.59492 0 0 0 128 0 0 255
-0.508491 -0.509082 3.59662 0 0 0 128 0 0 255
-0.50956 -0.527048 3.59639 0 0 0 128 0 0 255
-0.519579 -0.735846 3.59689 0 0 0 128 0 0 255
-0.501296 -0.487577 3.60498 0 0 0 128 0 0 255
-0.497032 -0.463844 3.6094 0 0 0 128 0 0 255
-0.497329 -0.468834 3.60933 0 0 0 128 0 0 255
-0.499881 -0.511755 3.60877 0 0 0 128 0 0 255
-0.5038 -0.577633 3.60792 0 0 0 128 0 0 255
-0.497363 -0.47886 3.61003 0 0 0 128 0 0 255
-0.498966 -0.50581 3.60968 0 0 0 128 0 0 255
-0.502409 -0.563703 3.60893 0 0 0 128 0 0 255
-0.499102 -0.526859 3.61107 0 0 0 128 0 0 255
-0.500117 -0.589959 3.61444 0 0 0 128 0 0 255
-0.497447 -0.57212 3.61721 0 0 0 128 0 0 255
