ply
format ascii 1.0
comment VCGLIB generated
element vertex 10
property float x
property float y
property float z
property float nx
property float ny
property float nz
property uchar red
property uchar green
property uchar blue
property uchar alpha
element face 0
property list uchar int vertex_indices
end_header
0.891408 0.867115 4.06233 0 0 0 0 255 255 255
0.871319 0.867717 4.0259 0 0 0 0 255 255 255
0.865489 0.867687 4.01359 0 0 0 0 255 255 255
0.843269 0.884742 3.96903 0 0 0 0 255 255 255
0.807859 0.943538 3.82561 0 0 0 0 255 255 255
0.812611 0.921049 3.85724 0 0 0 0 255 255 255
0.812695 0.9202 3.85672 0 0 0 0 255 255 255
0.847264 0.858183 3.95923 0 0 0 0 255 255 255
0.82815 0.866495 3.88912 0 0 0 0 255 255 255
0.830697 0.847042 3.86586 0 0 0 0 255 255 255
