ply
format ascii 1.0
comment VCGLIB generated
element vertex 161
property float x
property float y
property float z
property float nx
property float ny
property float nz
property uchar red
property uchar green
property uchar blue
property uchar alpha
element face 0
property list uchar int vertex_indices
end_header
-0.563352 0.55081 3.77597 0 0 0 0 128 0 255
-0.559202 0.543542 3.77738 0 0 0 0 128 0 255
-0.62297 0.549774 3.78018 0 0 0 0 128 0 255
-0.622817 0.546694 3.78088 0 0 0 0 128 0 255
-0.623355 0.544825 3.78135 0 0 0 0 128 0 255
-0.627853 0.54005 3.78275 0 0 0 0 128 0 255
-0.62082 0.531952 3.78415 0 0 0 0 128 0 255
-0.672017 0.545692 3.78438 0 0 0 0 128 0 255
-0.672825 0.542889 3.78508 0 0 0 0 128 0 255
-0.6297 0.526415 3.78602 0 0 0 0 128 0 255
-0.734402 0.549501 3.78765 0 0 0 0 128 0 255
-0.692507 0.53237 3.78882 0 0 0 0 128 0 255
-0.733366 0.535036 3.79092 0 0 0 0 128 0 255
-0.751201 0.538151 3.79139 0 0 0 0 128 0 255
-0.768767 0.5422 3.79162 0 0 0 0 128 0 255
-0.769653 0.528289 3.79489 0 0 0 0 128 0 255
-0.818775 0.538395 3.79583 0 0 0 0 128 0 255
-0.816008 0.533551 3.79676 0 0 0 0 128 0 255
-0.808168 0.528256 3.79746 0 0 0 0 128 0 255
-0.551648 0.436127 3.80166 0 0 0 0 128 0 255
-0.880124 0.527739 3.80236 0 0 0 0 128 0 255
-0.577671 0.432494 3.80423 0 0 0 0 128 0 255
-0.946236 0.53667 3.8047 0 0 0 0 128 0 255
-0.620758 0.441874 3.80493 0 0 0 0 128 0 255
-0.622949 0.441493 3.80517 0 0 0 0 128 0 255
-0.946774 0.534801 3.80517 0 0 0 0 128 0 255
-0.58313 0.427996 3.80563 0 0 0 0 128 0 255
-0.583209 0.416888 3.8082 0 0 0 0 128 0 255
-0.58513 0.417441 3.8082 0 0 0 0 128 0 255
-0.575368 0.411593 3.8089 0 0 0 0 128 0 255
-0.648935 0.430767 3.80937 0 0 0 0 128 0 255
-0.621608 0.420869 3.80984 0 0 0 0 128 0 255
-0.576023 0.40571 3.8103 0 0 0 0 128 0 255
-0.577522 0.404118 3.81077 0 0 0 0 128 0 255
-0.672076 0.426303 3.81194 0 0 0 0 128 0 255
-0.695792 0.427066 3.81334 0 0 0 0 128 0 255
-0.68453 0.422809 3.81357 0 0 0 0 128 0 255
-0.740263 0.438868 3.81357 0 0 0 0 128 0 255
-0.757638 0.432743 3.81614 0 0 0 0 128 0 255
-0.638332 0.39533 3.81684 0 0 0 0 128 0 255
-0.639832 0.393739 3.81731 0 0 0 0 128 0 255
-0.646521 0.388583 3.81894 0 0 0 0 128 0 255
-0.655554 0.386126 3.82011 0 0 0 0 128 0 255
-0.696181 0.39682 3.82035 0 0 0 0 128 0 255
-0.818063 0.428904 3.82105 0 0 0 0 128 0 255
-0.757795 0.410526 3.82128 0 0 0 0 128 0 255
-0.7626 0.411911 3.82128 0 0 0 0 128 0 255
-0.879946 0.441676 3.82221 0 0 0 0 128 0 255
-0.852618 0.431778 3.82268 0 0 0 0 128 0 255
-0.764832 0.393328 3.82572 0 0 0 0 128 0 255
-0.847855 0.412191 3.82688 0 0 0 0 128 0 255
-0.770407 0.384815 3.82805 0 0 0 0 128 0 255
-0.919348 0.427731 3.82805 0 0 0 0 128 0 255
-0.834365 0.40122 3.82852 0 0 0 0 128 0 255
-0.775866 0.380317 3.82945 0 0 0 0 128 0 255
-0.81757 0.387274 3.83062 0 0 0 0 128 0 255
-0.911586 0.411328 3.83132 0 0 0 0 128 0 255
-0.940682 0.4187 3.83156 0 0 0 0 128 0 255
-0.958939 0.423961 3.83156 0 0 0 0 128 0 255
-0.996415 0.434759 3.83156 0 0 0 0 128 0 255
-0.946025 0.418216 3.83202 0 0 0 0 128 0 255
-0.962017 0.409669 3.83506 0 0 0 0 128 0 255
-0.905709 0.388384 3.83623 0 0 0 0 128 0 255
-0.883877 0.381082 3.83646 0 0 0 0 128 0 255
-0.968362 0.391259 3.83973 0 0 0 0 128 0 255
-1.01406 0.402403 3.8402 0 0 0 0 128 0 255
-0.938537 0.375582 3.84136 0 0 0 0 128 0 255
-1.03843 0.397283 3.843 0 0 0 0 128 0 255
-1.04351 0.397733 3.84323 0 0 0 0 128 0 255
-0.729946 0.301311 3.84463 0 0 0 0 128 0 255
-0.729793 0.298231 3.84533 0 0 0 0 128 0 255
-0.784643 0.302905 3.8479 0 0 0 0 128 0 255
-0.790371 0.297472 3.84954 0 0 0 0 128 0 255
-0.812704 0.295812 3.85141 0 0 0 0 128 0 255
-0.863943 0.291349 3.85584 0 0 0 0 128 0 255
-0.880932 0.290173 3.85724 0 0 0 0 128 0 255
-0.816821 0.270688 3.85748 0 0 0 0 128 0 255
-0.963839 0.313051 3.85748 0 0 0 0 128 0 255
-0.955307 0.306544 3.85841 0 0 0 0 128 0 255
-0.755133 0.242794 3.85981 0 0 0 0 128 0 255
-0.763089 0.244075 3.86005 0 0 0 0 128 0 255
-0.96953 0.300524 3.86075 0 0 0 0 128 0 255
-0.85722 0.264115 3.86168 0 0 0 0 128 0 255
-0.895657 0.27519 3.86168 0 0 0 0 128 0 255
-0.772238 0.237604 3.86215 0 0 0 0 128 0 255
-0.761938 0.233624 3.86238 0 0 0 0 128 0 255
-1.04275 0.306444 3.86425 0 0 0 0 128 0 255
-0.761325 0.221304 3.86518 0 0 0 0 128 0 255
-1.0496 0.304368 3.86518 0 0 0 0 128 0 255
-0.762555 0.220647 3.86542 0 0 0 0 128 0 255
-1.01497 0.287306 3.86682 0 0 0 0 128 0 255
-0.745221 0.208569 3.86705 0 0 0 0 128 0 255
-1.02715 0.284746 3.86822 0 0 0 0 128 0 255
-0.756562 0.201718 3.86939 0 0 0 0 128 0 255
-0.884362 0.238542 3.86939 0 0 0 0 128 0 255
-0.815947 0.20871 3.87172 0 0 0 0 128 0 255
-1.04806 0.273569 3.87219 0 0 0 0 128 0 255
-0.815794 0.20563 3.87242 0 0 0 0 128 0 255
-0.898432 0.229442 3.87242 0 0 0 0 128 0 255
-0.927416 0.215531 3.87756 0 0 0 0 128 0 255
-1.01344 0.231211 3.87966 0 0 0 0 128 0 255
-0.990994 0.211589 3.8827 0 0 0 0 128 0 255
-0.994953 0.208682 3.88363 0 0 0 0 128 0 255
-0.603674 0.0858187 3.88597 0 0 0 0 128 0 255
-0.593643 0.0809043 3.88644 0 0 0 0 128 0 255
-0.615669 0.0730843 3.88971 0 0 0 0 128 0 255
-0.589033 0.0643974 3.88994 0 0 0 0 128 0 255
-0.619629 0.0701776 3.89064 0 0 0 0 128 0 255
-0.682204 0.0841604 3.89157 0 0 0 0 128 0 255
-0.967592 0.166393 3.89157 0 0 0 0 128 0 255
-0.58796 0.0428382 3.89484 0 0 0 0 128 0 255
-0.729292 0.0724309 3.89741 0 0 0 0 128 0 255
-0.741784 0.0760304 3.89741 0 0 0 0 128 0 255
-0.774533 0.0743358 3.89998 0 0 0 0 128 0 255
-0.581661 0.0177491 3.90021 0 0 0 0 128 0 255
-0.976439 0.128466 3.90091 0 0 0 0 128 0 255
-0.686515 0.0439145 3.90115 0 0 0 0 128 0 255
-0.779723 0.0707717 3.90115 0 0 0 0 128 0 255
-0.97863 0.128085 3.90115 0 0 0 0 128 0 255
-0.599342 0.0177843 3.90138 0 0 0 0 128 0 255
-0.695971 0.0436035 3.90185 0 0 0 0 128 0 255
-0.990663 0.122445 3.90325 0 0 0 0 128 0 255
-0.697972 0.0330489 3.90442 0 0 0 0 128 0 255
-0.838226 0.0663789 3.90605 0 0 0 0 128 0 255
-0.674181 0.0180985 3.90629 0 0 0 0 128 0 255
-1.00377 0.113068 3.90629 0 0 0 0 128 0 255
-0.88927 0.0770392 3.90699 0 0 0 0 128 0 255
-0.610877 -0.00418961 3.90722 0 0 0 0 128 0 255
-0.591928 -0.0106616 3.90745 0 0 0 0 128 0 255
-0.623216 -0.00367013 3.90792 0 0 0 0 128 0 255
-0.680178 0.0117313 3.90815 0 0 0 0 128 0 255
-0.632249 -0.00612676 3.90909 0 0 0 0 128 0 255
-0.859023 0.0592164 3.90909 0 0 0 0 128 0 255
-0.738872 0.0175125 3.91072 0 0 0 0 128 0 255
-0.763243 0.0123918 3.91353 0 0 0 0 128 0 255
-0.707088 -0.00581264 3.91399 0 0 0 0 128 0 255
-0.765127 0.00585148 3.91516 0 0 0 0 128 0 255
-0.973221 0.0637884 3.91563 0 0 0 0 128 0 255
-0.693983 -0.0217316 3.91679 0 0 0 0 128 0 255
-0.867485 0.0262377 3.91726 0 0 0 0 128 0 255
-0.977989 0.0580787 3.91726 0 0 0 0 128 0 255
-1.0496 0.0696048 3.91936 0 0 0 0 128 0 255
-0.712435 -0.0315934 3.9203 0 0 0 0 128 0 255
-0.720392 -0.0303128 3.92053 0 0 0 0 128 0 255
-0.725465 -0.0298627 3.92076 0 0 0 0 128 0 255
-0.719663 -0.0386181 3.9224 0 0 0 0 128 0 255
-0.915265 0.0157194 3.92287 0 0 0 0 128 0 255
-0.765633 -0.0284078 3.9231 0 0 0 0 128 0 255
-0.98841 0.0327479 3.9238 0 0 0 0 128 0 255
-0.892166 0.0019803 3.9245 0 0 0 0 128 0 255
-0.836972 -0.0159473 3.92497 0 0 0 0 128 0 255
-0.81222 -0.0311746 3.92684 0 0 0 0 128 0 255
-0.847774 -0.0209301 3.92684 0 0 0 0 128 0 255
-0.848043 -0.0218644 3.92707 0 0 0 0 128 0 255
-0.811106 -0.0345313 3.92754 0 0 0 0 128 0 255
-0.792273 -0.0450174 3.9287 0 0 0 0 128 0 255
-0.904393 -0.0187825 3.93011 0 0 0 0 128 0 255
-1.00198 0.00731349 3.93057 0 0 0 0 128 0 255
-0.955669 -0.0161506 3.93291 0 0 0 0 128 0 255
-0.988919 -0.0268079 3.93758 0 0 0 0 128 0 255
-0.98573 -0.0337983 3.93898 0 0 0 0 128 0 255
