ply
format ascii 1.0
comment VCGLIB generated
element vertex 293
property float x
property float y
property float z
property float nx
property float ny
property float nz
property uchar red
property uchar green
property uchar blue
property uchar alpha
element face 0
property list uchar int vertex_indices
end_header
-1.38808 0.250263 4.51333 0 0 0 255 255 255 255
-1.39069 0.187223 4.50392 0 0 0 255 255 255 255
-1.3695 0.0135997 4.48484 0 0 0 255 255 255 255
-1.45815 0.00189393 4.55055 0 0 0 255 255 255 255
-1.42636 -0.077285 4.55877 0 0 0 255 255 255 255
-1.4847 -0.0237858 4.57925 0 0 0 255 255 255 255
-1.3723 0.280773 4.45635 0 0 0 255 255 255 255
-1.40455 -0.099211 4.54404 0 0 0 255 255 255 255
-1.39417 0.1843 4.50867 0 0 0 255 255 255 255
-1.38898 0.196535 4.45492 0 0 0 255 255 255 255
-1.42076 -0.115927 4.5727 0 0 0 255 255 255 255
-1.46352 0.00330483 4.52575 0 0 0 255 255 255 255
-1.31043 0.178804 4.32962 0 0 0 255 255 255 255
-1.35574 0.256645 4.37755 0 0 0 255 255 255 255
-1.39453 0.247615 4.50342 0 0 0 255 255 255 255
-1.47806 0.409573 4.54705 0 0 0 255 255 255 255
-1.47246 -0.00122217 4.5506 0 0 0 255 255 255 255
-1.41787 -0.0653284 4.53722 0 0 0 255 255 255 255
-0.128528 0.0423683 3.41955 0 0 0 255 255 255 255
-0.0276465 0.186955 3.5006 0 0 0 255 255 255 255
-0.148793 0.0740537 3.47998 0 0 0 255 255 255 255
-0.0305683 0.184777 3.49099 0 0 0 255 255 255 255
-0.198203 -0.128093 3.51124 0 0 0 255 255 255 255
-0.127486 0.0459722 3.41532 0 0 0 255 255 255 255
-1.00079 0.0779494 3.80467 0 0 0 255 255 255 255
-0.935028 0.0071929 3.8269 0 0 0 255 255 255 255
-0.96129 0.0925413 3.81209 0 0 0 255 255 255 255
-0.934575 0.0108257 3.80969 0 0 0 255 255 255 255
-0.996489 0.0800854 3.79847 0 0 0 255 255 255 255
-0.976385 -0.011374 3.83705 0 0 0 255 255 255 255
-0.95383 -0.00180727 3.79533 0 0 0 255 255 255 255
-0.959157 0.0608588 3.84607 0 0 0 255 255 255 255
-0.947637 0.014369 3.84711 0 0 0 255 255 255 255
-0.932955 0.10558 3.79232 0 0 0 255 255 255 255
-0.979274 0.127295 3.82075 0 0 0 255 255 255 255
-0.862094 -0.00556293 3.83805 0 0 0 255 255 255 255
-0.658841 0.0850036 3.82139 0 0 0 255 255 255 255
-0.630796 0.0235583 3.81958 0 0 0 255 255 255 255
-0.628659 0.0716155 3.82302 0 0 0 255 255 255 255
-0.657513 0.0669898 3.82296 0 0 0 255 255 255 255
-0.845321 0.0606983 3.85374 0 0 0 255 255 255 255
-0.839469 0.0510113 3.84676 0 0 0 255 255 255 255
-0.66248 0.275393 3.7116 0 0 0 255 255 255 255
-0.651354 0.39105 3.67711 0 0 0 255 255 255 255
-0.528211 0.0825439 3.649 0 0 0 255 255 255 255
-0.227068 -0.127924 3.66814 0 0 0 255 255 255 255
-0.270279 -0.120753 3.77543 0 0 0 255 255 255 255
-0.265592 -0.168836 3.68848 0 0 0 255 255 255 255
-0.269383 -0.106947 3.82682 0 0 0 255 255 255 255
-0.241056 -0.0157867 3.75642 0 0 0 255 255 255 255
-0.237911 -0.0131501 3.75064 0 0 0 255 255 255 255
-0.23281 -0.0401149 3.82834 0 0 0 255 255 255 255
-0.250469 -0.0364993 3.8225 0 0 0 255 255 255 255
-0.2847 -0.1639 3.90525 0 0 0 255 255 255 255
-0.289179 -0.168891 3.89909 0 0 0 255 255 255 255
-0.247548 -0.132834 3.85244 0 0 0 255 255 255 255
-0.274179 -0.163315 3.92357 0 0 0 255 255 255 255
-0.285031 -0.131849 3.87634 0 0 0 255 255 255 255
-0.229332 -0.0392749 3.8768 0 0 0 255 255 255 255
-0.299713 -0.0666626 4.13836 0 0 0 255 255 255 255
-0.330808 -0.203838 4.03979 0 0 0 255 255 255 255
-0.197111 -0.132287 3.52666 0 0 0 255 255 255 255
-0.215382 -0.147985 3.57974 0 0 0 255 255 255 255
-0.21109 -0.126335 3.66803 0 0 0 255 255 255 255
-0.207614 -0.126872 3.67392 0 0 0 255 255 255 255
-0.217445 -0.105348 3.71749 0 0 0 255 255 255 255
-0.200078 -0.128306 3.75194 0 0 0 255 255 255 255
-0.212548 -0.148675 3.7552 0 0 0 255 255 255 255
-0.207281 -0.125561 3.74859 0 0 0 255 255 255 255
-0.224657 -0.141786 3.76612 0 0 0 255 255 255 255
-0.192656 0.0936024 3.62216 0 0 0 255 255 255 255
-0.164663 0.0514535 3.53019 0 0 0 255 255 255 255
-0.188119 0.0427949 3.60341 0 0 0 255 255 255 255
-0.219394 0.0157943 3.64682 0 0 0 255 255 255 255
-0.142595 0.0655454 3.54502 0 0 0 255 255 255 255
-0.178477 0.0265229 3.5775 0 0 0 255 255 255 255
-0.158525 0.0474311 3.60818 0 0 0 255 255 255 255
-0.204208 -0.00985418 3.69322 0 0 0 255 255 255 255
-0.219639 -0.0286931 3.80317 0 0 0 255 255 255 255
-0.176776 -0.0118763 3.73909 0 0 0 255 255 255 255
-0.145357 -0.0152298 3.72048 0 0 0 255 255 255 255
-0.217774 0.0413004 3.71943 0 0 0 255 255 255 255
-0.123617 -0.0171376 3.70889 0 0 0 255 255 255 255
-0.0666567 0.134627 3.58778 0 0 0 255 255 255 255
-0.075742 0.166544 3.57708 0 0 0 255 255 255 255
-0.0914485 0.160425 3.58559 0 0 0 255 255 255 255
-0.0512152 0.190859 3.54904 0 0 0 255 255 255 255
-0.0483166 0.19851 3.56044 0 0 0 255 255 255 255
-2.06977 -0.214033 5.53407 0 0 0 255 255 255 255
-1.91291 0.127792 5.3297 0 0 0 255 255 255 255
-1.7403 0.149636 5.14849 0 0 0 255 255 255 255
-2.12662 0.425426 5.68653 0 0 0 255 255 255 255
-1.84134 0.418735 5.11826 0 0 0 255 255 255 255
-1.73727 0.257816 5.02031 0 0 0 255 255 255 255
-1.72834 0.235785 5.01602 0 0 0 255 255 255 255
-2.06779 -0.184503 5.582 0 0 0 255 255 255 255
-2.1449 -0.228897 5.76437 0 0 0 255 255 255 255
-2.18695 0.401996 5.9484 0 0 0 255 255 255 255
-1.74922 0.213637 5.04209 0 0 0 255 255 255 255
-2.02084 -0.163779 5.53536 0 0 0 255 255 255 255
-1.75995 0.155985 5.1863 0 0 0 255 255 255 255
-1.62766 0.390362 4.83781 0 0 0 255 255 255 255
-2.16295 -0.213719 5.77575 0 0 0 255 255 255 255
-2.04206 -0.0941164 5.48121 0 0 0 255 255 255 255
-1.64979 0.384769 4.88923 0 0 0 255 255 255 255
-2.04742 -0.11191 5.51523 0 0 0 255 255 255 255
-2.0558 -0.235918 5.63003 0 0 0 255 255 255 255
-1.75831 0.260385 5.03257 0 0 0 255 255 255 255
-2.51899 0.362235 6.41816 0 0 0 255 255 255 255
-1.45228 0.560048 4.51 0 0 0 255 255 255 255
-1.41321 0.558449 4.46653 0 0 0 255 255 255 255
-1.43094 0.556293 4.49216 0 0 0 255 255 255 255
-0.55575 1.51696 3.48709 0 0 0 255 255 255 255
-0.714557 1.46634 3.43923 0 0 0 255 255 255 255
-0.563129 1.5273 3.50702 0 0 0 255 255 255 255
-0.706646 1.45534 3.41222 0 0 0 255 255 255 255
0.0133692 0.47858 3.51148 0 0 0 255 255 255 255
0.0801793 0.629998 3.48723 0 0 0 255 255 255 255
0.0104456 0.537432 3.50756 0 0 0 255 255 255 255
-0.212864 0.999472 3.49743 0 0 0 255 255 255 255
-0.387894 0.518942 3.4324 0 0 0 255 255 255 255
0.00786026 0.472801 3.49621 0 0 0 255 255 255 255
-0.000164314 0.598263 3.49979 0 0 0 255 255 255 255
0.057102 0.524341 3.50711 0 0 0 255 255 255 255
-0.00045517 0.462642 3.48672 0 0 0 255 255 255 255
-0.211116 0.464824 3.48354 0 0 0 255 255 255 255
-0.163757 1.01341 3.50991 0 0 0 255 255 255 255
0.0844499 0.432876 3.49012 0 0 0 255 255 255 255
-0.423947 0.513604 3.47693 0 0 0 255 255 255 255
-0.095722 0.963571 3.48455 0 0 0 255 255 255 255
-0.495873 1.40698 3.48234 0 0 0 255 255 255 255
-0.503279 1.4055 3.477 0 0 0 255 255 255 255
-0.235434 1.35746 3.4991 0 0 0 255 255 255 255
-0.328529 1.4221 3.46175 0 0 0 255 255 255 255
-0.530492 1.51032 3.50539 0 0 0 255 255 255 255
-0.225873 1.33286 3.5052 0 0 0 255 255 255 255
-0.135012 1.14486 3.50219 0 0 0 255 255 255 255
-0.123387 1.11855 3.50666 0 0 0 255 255 255 255
-0.150767 1.18009 3.47782 0 0 0 255 255 255 255
-0.186359 1.32799 3.43442 0 0 0 255 255 255 255
-0.142266 1.22567 3.47215 0 0 0 255 255 255 255
-0.928557 0.908797 3.64682 0 0 0 255 255 255 255
-0.961002 0.863072 3.70075 0 0 0 255 255 255 255
-0.923544 0.898635 3.66241 0 0 0 255 255 255 255
-0.890149 1.03855 3.66906 0 0 0 255 255 255 255
-0.908418 1.00503 3.61031 0 0 0 255 255 255 255
-0.906891 1.00398 3.62368 0 0 0 255 255 255 255
-0.912534 0.978365 3.66806 0 0 0 255 255 255 255
-0.912201 1.00078 3.62284 0 0 0 255 255 255 255
-0.931666 0.970778 3.6572 0 0 0 255 255 255 255
-0.959786 0.854221 3.71135 0 0 0 255 255 255 255
-0.95587 0.839984 3.68602 0 0 0 255 255 255 255
-0.927687 0.878841 3.68984 0 0 0 255 255 255 255
-0.934631 0.90724 3.66888 0 0 0 255 255 255 255
-0.838736 0.5377 3.73223 0 0 0 255 255 255 255
-0.839643 1.08446 3.64674 0 0 0 255 255 255 255
-0.720341 0.941834 3.78666 0 0 0 255 255 255 255
-0.849082 1.11157 3.59992 0 0 0 255 255 255 255
-0.704078 1.32915 3.55131 0 0 0 255 255 255 255
-0.696586 1.32891 3.53934 0 0 0 255 255 255 255
-0.666467 1.33813 3.53719 0 0 0 255 255 255 255
-0.721145 1.31342 3.52746 0 0 0 255 255 255 255
-0.733654 1.30799 3.59014 0 0 0 255 255 255 255
-0.832455 1.1211 3.65252 0 0 0 255 255 255 255
-0.821466 1.10865 3.65616 0 0 0 255 255 255 255
-0.858624 1.10965 3.61418 0 0 0 255 255 255 255
-0.601053 1.42824 3.53466 0 0 0 255 255 255 255
-0.59881 1.42462 3.53331 0 0 0 255 255 255 255
-0.622076 1.42386 3.54304 0 0 0 255 255 255 255
-0.234846 0.58583 3.51665 0 0 0 255 255 255 255
-0.534172 0.5283 3.65358 0 0 0 255 255 255 255
-0.503788 0.533207 3.68803 0 0 0 255 255 255 255
-0.534754 0.431257 3.64789 0 0 0 255 255 255 255
-0.227512 0.854485 3.51985 0 0 0 255 255 255 255
-0.2306 0.872456 3.51719 0 0 0 255 255 255 255
-0.207258 0.478809 3.52425 0 0 0 255 255 255 255
-0.0583768 0.561129 3.51451 0 0 0 255 255 255 255
-0.471185 1.40743 3.53462 0 0 0 255 255 255 255
-0.47209 1.4012 3.5324 0 0 0 255 255 255 255
-2.11219 0.432204 5.66358 0 0 0 255 255 255 255
0.364536 0.277938 3.66318 0 0 0 255 255 255 255
0.74627 0.390339 3.55133 0 0 0 255 255 255 255
1.00951 0.186353 3.74493 0 0 0 255 255 255 255
1.00291 0.193264 3.73231 0 0 0 255 255 255 255
0.762506 0.352511 3.55573 0 0 0 255 255 255 255
0.797764 0.391375 3.67309 0 0 0 255 255 255 255
1.01505 0.180021 3.75599 0 0 0 255 255 255 255
1.21008 0.0720236 3.75486 0 0 0 255 255 255 255
1.20241 -0.0115045 3.79371 0 0 0 255 255 255 255
1.24587 0.0435773 3.73773 0 0 0 255 255 255 255
1.23695 0.0547364 3.79836 0 0 0 255 255 255 255
1.23917 -0.0629534 3.78773 0 0 0 255 255 255 255
1.20274 0.0532127 3.75979 0 0 0 255 255 255 255
1.14967 0.00247466 3.72325 0 0 0 255 255 255 255
1.23454 0.0102738 3.80053 0 0 0 255 255 255 255
1.25264 -0.0632671 3.78011 0 0 0 255 255 255 255
1.19847 -0.0887997 3.6638 0 0 0 255 255 255 255
1.15277 -0.00526674 3.70847 0 0 0 255 255 255 255
1.22697 0.0718113 3.59936 0 0 0 255 255 255 255
1.23601 0.0576825 3.67328 0 0 0 255 255 255 255
1.2165 -0.112276 4.02017 0 0 0 255 255 255 255
1.17807 -0.0168769 4.01851 0 0 0 255 255 255 255
1.20036 -0.0137705 3.98816 0 0 0 255 255 255 255
1.21658 -0.102353 4.03266 0 0 0 255 255 255 255
1.24738 -0.0891343 3.96815 0 0 0 255 255 255 255
1.26286 -0.0835449 4.04711 0 0 0 255 255 255 255
1.1975 -0.0301105 4.16647 0 0 0 255 255 255 255
1.25104 0.028327 3.8939 0 0 0 255 255 255 255
1.14468 -0.0167648 3.84216 0 0 0 255 255 255 255
1.19234 0.0889147 3.85876 0 0 0 255 255 255 255
1.22955 -0.115576 4.08889 0 0 0 255 255 255 255
1.23979 -0.0162631 4.09014 0 0 0 255 255 255 255
1.19869 -0.0238896 4.15894 0 0 0 255 255 255 255
1.24186 -0.0723134 3.84121 0 0 0 255 255 255 255
1.21469 -0.0987734 4.00637 0 0 0 255 255 255 255
1.24477 -0.125242 4.14387 0 0 0 255 255 255 255
1.17564 -0.0392624 4.1627 0 0 0 255 255 255 255
1.17966 -0.0228002 4.06883 0 0 0 255 255 255 255
1.24208 -0.109449 3.96487 0 0 0 255 255 255 255
1.1919 0.359039 3.7374 0 0 0 255 255 255 255
1.21836 -0.112289 4.19223 0 0 0 255 255 255 255
1.87242 0.303127 3.85094 0 0 0 255 255 255 255
1.90573 0.3123 3.86091 0 0 0 255 255 255 255
2.30259 -0.689581 5.5217 0 0 0 255 255 255 255
2.29989 -0.760837 5.48911 0 0 0 255 255 255 255
2.30127 -0.776563 5.49764 0 0 0 255 255 255 255
2.30152 -0.683759 5.51767 0 0 0 255 255 255 255
2.30056 -0.769934 5.50034 0 0 0 255 255 255 255
2.30089 -0.711592 5.5323 0 0 0 255 255 255 255
0.125955 0.603791 3.48898 0 0 0 255 255 255 255
0.108239 0.58676 3.48722 0 0 0 255 255 255 255
0.16211 0.789505 3.48045 0 0 0 255 255 255 255
0.132387 0.652942 3.50299 0 0 0 255 255 255 255
0.111607 0.471748 3.50587 0 0 0 255 255 255 255
0.434208 0.462498 3.46546 0 0 0 255 255 255 255
0.104323 0.612087 3.45941 0 0 0 255 255 255 255
0.451611 0.636773 3.63157 0 0 0 255 255 255 255
0.315345 0.784002 3.57472 0 0 0 255 255 255 255
0.324557 1.40083 3.57693 0 0 0 255 255 255 255
1.25675 0.758628 3.81345 0 0 0 255 255 255 255
1.25696 0.766337 3.81315 0 0 0 255 255 255 255
1.13204 0.798186 3.68009 0 0 0 255 255 255 255
1.14978 0.81693 3.6832 0 0 0 255 255 255 255
1.11267 0.805348 3.72787 0 0 0 255 255 255 255
1.14845 0.818891 3.68136 0 0 0 255 255 255 255
1.12025 0.801182 3.62283 0 0 0 255 255 255 255
1.33626 0.703603 3.70797 0 0 0 255 255 255 255
1.32669 0.70611 3.72166 0 0 0 255 255 255 255
0.891702 0.486773 3.68296 0 0 0 255 255 255 255
1.25701 0.692033 3.81543 0 0 0 255 255 255 255
1.31214 0.68609 3.68467 0 0 0 255 255 255 255
1.30601 0.705954 3.7051 0 0 0 255 255 255 255
1.27947 0.712897 3.66833 0 0 0 255 255 255 255
1.31496 0.704532 3.84182 0 0 0 255 255 255 255
1.13119 0.82248 3.64605 0 0 0 255 255 255 255
1.10925 0.815603 3.61206 0 0 0 255 255 255 255
1.14527 0.804974 3.62301 0 0 0 255 255 255 255
1.15419 0.797641 3.68822 0 0 0 255 255 255 255
1.26781 0.796723 3.82815 0 0 0 255 255 255 255
1.02704 1.10779 3.6016 0 0 0 255 255 255 255
1.3838 1.3034 3.63257 0 0 0 255 255 255 255
1.28353 1.35889 3.79391 0 0 0 255 255 255 255
1.08523 1.08676 3.61483 0 0 0 255 255 255 255
1.11669 1.28145 3.62206 0 0 0 255 255 255 255
1.13593 1.29549 3.63231 0 0 0 255 255 255 255
1.29991 1.37063 3.80304 0 0 0 255 255 255 255
1.40727 1.20302 3.8403 0 0 0 255 255 255 255
1.40991 1.20294 3.84391 0 0 0 255 255 255 255
1.20656 1.63657 3.69007 0 0 0 255 255 255 255
2.25483 1.47269 3.23475 0 0 0 255 255 255 255
2.67492 1.23595 4.81039 0 0 0 255 255 255 255
2.3165 1.31429 3.70532 0 0 0 255 255 255 255
2.24085 1.40028 3.69978 0 0 0 255 255 255 255
2.48345 1.34624 4.08973 0 0 0 255 255 255 255
2.25948 1.16473 3.79098 0 0 0 255 255 255 255
2.25345 1.16912 3.78596 0 0 0 255 255 255 255
2.42089 1.08443 3.95811 0 0 0 255 255 255 255
2.24124 1.31211 3.70052 0 0 0 255 255 255 255
1.44428 0.998329 3.83238 0 0 0 255 255 255 255
1.99903 1.15222 3.73272 0 0 0 255 255 255 255
1.86215 1.35574 3.8468 0 0 0 255 255 255 255
2.36125 1.2267 3.75112 0 0 0 255 255 255 255
2.26963 1.40192 3.72068 0 0 0 255 255 255 255
2.37797 1.22888 3.7763 0 0 0 255 255 255 255
2.25475 1.38065 3.64672 0 0 0 255 255 255 255
2.2582 1.37524 3.64712 0 0 0 255 255 255 255
2.48643 1.34969 4.08343 0 0 0 255 255 255 255
2.71983 1.25607 4.8935 0 0 0 255 255 255 255
2.7091 1.32327 4.88182 0 0 0 255 255 255 255
2.71371 1.27498 4.87418 0 0 0 255 255 255 255
2.70694 1.31791 4.87647 0 0 0 255 255 255 255
2.6842 1.23862 4.833 0 0 0 255 255 255 255
2.68152 1.23524 4.82735 0 0 0 255 255 255 255
