ply
format ascii 1.0
comment VCGLIB generated
element vertex 343
property float x
property float y
property float z
property float nx
property float ny
property float nz
property uchar red
property uchar green
property uchar blue
property uchar alpha
element face 0
property list uchar int vertex_indices
end_header
3.99789 0.43209 4.03594 0 0 0 0 0 128 255
3.99915 0.464907 4.0378 0 0 0 0 0 128 255
3.80187 0.383496 4.06409 0 0 0 0 0 128 255
3.80406 0.399828 4.06477 0 0 0 0 0 128 255
3.78114 0.387353 4.06763 0 0 0 0 0 128 255
3.78096 0.389575 4.0678 0 0 0 0 0 128 255
3.77345 0.373187 4.06797 0 0 0 0 0 128 255
3.77491 0.382283 4.06831 0 0 0 0 0 128 255
3.7782 0.396033 4.06865 0 0 0 0 0 128 255
3.77857 0.402338 4.06898 0 0 0 0 0 128 255
3.76574 0.380518 4.06966 0 0 0 0 0 128 255
3.76152 0.388628 4.07084 0 0 0 0 0 128 255
3.71491 0.431688 4.08095 0 0 0 0 0 128 255
3.62837 0.677449 4.11011 0 0 0 0 0 128 255
3.49506 0.354856 4.11113 0 0 0 0 0 128 255
3.62689 0.68985 4.11113 0 0 0 0 0 128 255
3.5829 0.658804 4.11618 0 0 0 0 0 128 255
3.573 0.655178 4.11753 0 0 0 0 0 128 255
3.61363 0.774592 4.11854 0 0 0 0 0 128 255
3.63354 0.897863 4.1231 0 0 0 0 0 128 255
3.60166 0.849154 4.12512 0 0 0 0 0 128 255
3.58354 0.80578 4.12529 0 0 0 0 0 128 255
3.5676 0.773363 4.12579 0 0 0 0 0 128 255
3.57565 0.804584 4.12647 0 0 0 0 0 128 255
3.56594 0.782612 4.12664 0 0 0 0 0 128 255
3.59065 0.869609 4.12815 0 0 0 0 0 128 255
3.62598 0.972843 4.12899 0 0 0 0 0 128 255
3.58642 0.877719 4.12933 0 0 0 0 0 128 255
3.53458 0.786357 4.13186 0 0 0 0 0 128 255
3.53311 0.78801 4.1322 0 0 0 0 0 128 255
3.65926 1.11127 4.13237 0 0 0 0 0 128 255
3.54774 0.857479 4.13422 0 0 0 0 0 128 255
3.64222 1.09756 4.13422 0 0 0 0 0 128 255
3.5946 0.998086 4.13557 0 0 0 0 0 128 255
3.64586 1.12836 4.13557 0 0 0 0 0 128 255
3.58983 0.996739 4.13624 0 0 0 0 0 128 255
3.54131 0.876129 4.13641 0 0 0 0 0 128 255
3.3551 0.405637 4.13658 0 0 0 0 0 128 255
3.6345 1.11564 4.13658 0 0 0 0 0 128 255
3.53947 0.887601 4.13742 0 0 0 0 0 128 255
3.62113 1.09511 4.13742 0 0 0 0 0 128 255
3.33915 0.389345 4.1381 0 0 0 0 0 128 255
3.56656 0.96721 4.1381 0 0 0 0 0 128 255
3.49753 0.79449 4.13827 0 0 0 0 0 128 255
3.49991 0.803226 4.13843 0 0 0 0 0 128 255
3.56233 0.986069 4.13995 0 0 0 0 0 128 255
3.49806 0.830821 4.14046 0 0 0 0 0 128 255
3.4856 0.809932 4.14113 0 0 0 0 0 128 255
3.50994 0.890624 4.14231 0 0 0 0 0 128 255
3.3164 0.401521 4.14248 0 0 0 0 0 128 255
3.48558 0.836805 4.14282 0 0 0 0 0 128 255
3.54307 0.9829 4.14282 0 0 0 0 0 128 255
3.46397 0.792652 4.14349 0 0 0 0 0 128 255
3.52183 0.939677 4.14349 0 0 0 0 0 128 255
3.47477 0.82279 4.14366 0 0 0 0 0 128 255
3.53427 0.97669 4.14383 0 0 0 0 0 128 255
3.47916 0.839332 4.144 0 0 0 0 0 128 255
3.47824 0.845067 4.1445 0 0 0 0 0 128 255
3.51412 0.947009 4.14518 0 0 0 0 0 128 255
3.57289 1.09905 4.14535 0 0 0 0 0 128 255
3.57326 1.09998 4.14535 0 0 0 0 0 128 255
3.46999 0.842941 4.14568 0 0 0 0 0 128 255
3.26675 0.337241 4.14636 0 0 0 0 0 128 255
3.44911 0.80065 4.14636 0 0 0 0 0 128 255
3.44233 0.786122 4.14653 0 0 0 0 0 128 255
3.51136 0.964216 4.1467 0 0 0 0 0 128 255
3.43427 0.776399 4.1472 0 0 0 0 0 128 255
3.45807 0.836884 4.1472 0 0 0 0 0 128 255
3.44214 0.804468 4.14771 0 0 0 0 0 128 255
3.5368 1.0477 4.14788 0 0 0 0 0 128 255
3.46117 0.863605 4.14838 0 0 0 0 0 128 255
3.54594 1.08171 4.14855 0 0 0 0 0 128 255
3.42308 0.772203 4.14872 0 0 0 0 0 128 255
3.42748 0.78337 4.14872 0 0 0 0 0 128 255
3.44396 0.825244 4.14872 0 0 0 0 0 128 255
3.55089 1.09696 4.14872 0 0 0 0 0 128 255
3.24914 0.335572 4.14906 0 0 0 0 0 128 255
3.46721 0.892395 4.14922 0 0 0 0 0 128 255
3.4683 0.895187 4.14922 0 0 0 0 0 128 255
3.48679 0.944866 4.14939 0 0 0 0 0 128 255
3.4661 0.894978 4.14956 0 0 0 0 0 128 255
3.44889 0.856618 4.1499 0 0 0 0 0 128 255
3.44998 0.864784 4.15024 0 0 0 0 0 128 255
3.48294 0.948532 4.15024 0 0 0 0 0 128 255
3.41941 0.789771 4.1504 0 0 0 0 0 128 255
3.24491 0.349056 4.15057 0 0 0 0 0 128 255
3.25333 0.375833 4.15091 0 0 0 0 0 128 255
3.45803 0.896005 4.15091 0 0 0 0 0 128 255
3.46389 0.910893 4.15091 0 0 0 0 0 128 255
3.5082 1.02349 4.15091 0 0 0 0 0 128 255
3.51516 1.04117 4.15091 0 0 0 0 0 128 255
3.40951 0.775396 4.15108 0 0 0 0 0 128 255
3.4161 0.792145 4.15108 0 0 0 0 0 128 255
3.44411 0.866019 4.15125 0 0 0 0 0 128 255
3.4844 0.968378 4.15125 0 0 0 0 0 128 255
3.2374 0.343417 4.15141 0 0 0 0 0 128 255
3.48018 0.960364 4.15141 0 0 0 0 0 128 255
3.41628 0.800672 4.15158 0 0 0 0 0 128 255
3.43752 0.854644 4.15158 0 0 0 0 0 128 255
3.27804 0.452081 4.15175 0 0 0 0 0 128 255
3.41756 0.806617 4.15175 0 0 0 0 0 128 255
3.26028 0.409637 4.15192 0 0 0 0 0 128 255
3.27859 0.456164 4.15192 0 0 0 0 0 128 255
3.43642 0.857227 4.15192 0 0 0 0 0 128 255
3.40144 0.771048 4.15209 0 0 0 0 0 128 255
3.42488 0.830602 4.15209 0 0 0 0 0 128 255
3.43641 0.862601 4.15226 0 0 0 0 0 128 255
3.49354 1.00777 4.15226 0 0 0 0 0 128 255
3.26228 0.428192 4.15276 0 0 0 0 0 128 255
3.41462 0.820671 4.1531 0 0 0 0 0 128 255
3.41461 0.826045 4.15344 0 0 0 0 0 128 255
3.51495 1.08639 4.15378 0 0 0 0 0 128 255
3.25477 0.427927 4.15394 0 0 0 0 0 128 255
3.40124 0.800143 4.15394 0 0 0 0 0 128 255
3.39263 0.780962 4.15411 0 0 0 0 0 128 255
3.43768 0.895419 4.15411 0 0 0 0 0 128 255
3.46844 0.973584 4.15411 0 0 0 0 0 128 255
3.43199 0.899806 4.15529 0 0 0 0 0 128 255
3.45561 0.962513 4.15546 0 0 0 0 0 128 255
3.47135 1.00253 4.15546 0 0 0 0 0 128 255
3.43143 0.906472 4.1558 0 0 0 0 0 128 255
3.43986 0.927875 4.1558 0 0 0 0 0 128 255
3.41312 0.86532 4.15614 0 0 0 0 0 128 255
3.44534 0.952582 4.15647 0 0 0 0 0 128 255
3.43271 0.923166 4.15664 0 0 0 0 0 128 255
3.46749 1.01157 4.15664 0 0 0 0 0 128 255
3.40872 0.864903 4.15681 0 0 0 0 0 128 255
3.47445 1.03462 4.15698 0 0 0 0 0 128 255
3.28128 0.54645 4.15715 0 0 0 0 0 128 255
3.36221 0.752099 4.15715 0 0 0 0 0 128 255
3.47152 1.03255 4.15732 0 0 0 0 0 128 255
3.37026 0.777945 4.15748 0 0 0 0 0 128 255
3.42666 0.921248 4.15748 0 0 0 0 0 128 255
3.48488 1.0692 4.15748 0 0 0 0 0 128 255
3.40853 0.877874 4.15765 0 0 0 0 0 128 255
3.44936 0.984316 4.15782 0 0 0 0 0 128 255
3.27596 0.546393 4.15799 0 0 0 0 0 128 255
3.40523 0.874874 4.15799 0 0 0 0 0 128 255
3.19192 0.335522 4.15816 0 0 0 0 0 128 255
3.36147 0.766362 4.15816 0 0 0 0 0 128 255
3.44532 0.98483 4.15849 0 0 0 0 0 128 255
3.46015 1.0252 4.15866 0 0 0 0 0 128 255
3.22414 0.428158 4.15883 0 0 0 0 0 128 255
3.37281 0.805957 4.15883 0 0 0 0 0 128 255
3.44512 1.01392 4.16035 0 0 0 0 0 128 255
3.36327 0.808636 4.16052 0 0 0 0 0 128 255
3.34679 0.772137 4.16086 0 0 0 0 0 128 255
3.36455 0.82533 4.16136 0 0 0 0 0 128 255
3.34715 0.783817 4.16153 0 0 0 0 0 128 255
3.34971 0.79033 4.16153 0 0 0 0 0 128 255
3.44639 1.03599 4.16153 0 0 0 0 0 128 255
3.39713 0.913522 4.1617 0 0 0 0 0 128 255
3.60989 1.45417 4.1617 0 0 0 0 0 128 255
3.3444 0.784899 4.16203 0 0 0 0 0 128 255
3.33066 0.752691 4.1622 0 0 0 0 0 128 255
3.38266 0.890203 4.16254 0 0 0 0 0 128 255
3.43796 1.03071 4.16254 0 0 0 0 0 128 255
3.35538 0.823565 4.16271 0 0 0 0 0 128 255
3.38467 0.903382 4.16305 0 0 0 0 0 128 255
3.35409 0.82837 4.16322 0 0 0 0 0 128 255
3.39584 0.934451 4.16322 0 0 0 0 0 128 255
3.34402 0.810842 4.16372 0 0 0 0 0 128 255
3.41634 0.997311 4.16389 0 0 0 0 0 128 255
3.33558 0.810938 4.16507 0 0 0 0 0 128 255
3.34638 0.841076 4.16524 0 0 0 0 0 128 255
3.26965 0.659564 4.16608 0 0 0 0 0 128 255
3.34802 0.8587 4.16608 0 0 0 0 0 128 255
3.35295 0.884699 4.16692 0 0 0 0 0 128 255
3.33702 0.846908 4.16709 0 0 0 0 0 128 255
3.33409 0.844838 4.16743 0 0 0 0 0 128 255
3.32585 0.831963 4.16794 0 0 0 0 0 128 255
3.33408 0.855587 4.1681 0 0 0 0 0 128 255
3.30424 0.782435 4.16827 0 0 0 0 0 128 255
3.4064 1.04206 4.16827 0 0 0 0 0 128 255
3.51864 1.32995 4.16844 0 0 0 0 0 128 255
3.35678 0.92403 4.16878 0 0 0 0 0 128 255
3.51113 1.31894 4.16895 0 0 0 0 0 128 255
3.35494 0.924752 4.16912 0 0 0 0 0 128 255
3.33406 0.88246 4.16979 0 0 0 0 0 128 255
3.59277 1.54795 4.1703 0 0 0 0 0 128 255
3.32966 0.882043 4.17046 0 0 0 0 0 128 255
3.27784 0.763808 4.17131 0 0 0 0 0 128 255
3.32305 0.892166 4.17215 0 0 0 0 0 128 255
3.52043 1.3991 4.17249 0 0 0 0 0 128 255
3.31335 0.875569 4.17266 0 0 0 0 0 128 255
3.51036 1.3762 4.17266 0 0 0 0 0 128 255
3.30584 0.85918 4.17282 0 0 0 0 0 128 255
3.51969 1.40261 4.17282 0 0 0 0 0 128 255
3.30656 0.882539 4.17417 0 0 0 0 0 128 255
3.28641 0.836734 4.17451 0 0 0 0 0 128 255
3.31717 0.9149 4.17451 0 0 0 0 0 128 255
3.30343 0.888066 4.17502 0 0 0 0 0 128 255
3.29922 0.880052 4.17518 0 0 0 0 0 128 255
3.29775 0.881705 4.17552 0 0 0 0 0 128 255
3.4781 1.34806 4.17603 0 0 0 0 0 128 255
3.43104 1.23117 4.1762 0 0 0 0 0 128 255
3.45777 1.30447 4.17653 0 0 0 0 0 128 255
3.27632 0.846079 4.1767 0 0 0 0 0 128 255
3.42554 1.22796 4.17687 0 0 0 0 0 128 255
3.42315 1.23535 4.17771 0 0 0 0 0 128 255
3.26641 0.847828 4.17839 0 0 0 0 0 128 255
3.43448 1.29644 4.17974 0 0 0 0 0 128 255
3.40481 1.23182 4.18041 0 0 0 0 0 128 255
3.47328 1.42733 4.18176 0 0 0 0 0 128 255
3.47016 1.42748 4.18226 0 0 0 0 0 128 255
3.25648 0.887198 4.18243 0 0 0 0 0 128 255
3.3815 1.26141 4.18597 0 0 0 0 0 128 255
3.22769 0.886708 4.18698 0 0 0 0 0 128 255
3.24087 0.925582 4.18732 0 0 0 0 0 128 255
3.44429 1.44518 4.18749 0 0 0 0 0 128 255
3.23152 0.926039 4.18884 0 0 0 0 0 128 255
3.41077 1.38423 4.18901 0 0 0 0 0 128 255
3.20184 0.877539 4.19052 0 0 0 0 0 128 255
3.48545 1.60093 4.19069 0 0 0 0 0 128 255
3.48251 1.60961 4.1917 0 0 0 0 0 128 255
3.48086 1.60811 4.19187 0 0 0 0 0 128 255
3.2053 0.915939 4.19238 0 0 0 0 0 128 255
3.18588 0.877369 4.19305 0 0 0 0 0 128 255
3.1932 0.901355 4.19339 0 0 0 0 0 128 255
3.4673 1.60055 4.19356 0 0 0 0 0 128 255
3.182 0.929407 4.19693 0 0 0 0 0 128 255
3.18602 0.950392 4.1976 0 0 0 0 0 128 255
3.18307 0.969821 4.19929 0 0 0 0 0 128 255
3.38683 1.53335 4.20216 0 0 0 0 0 128 255
3.40037 1.57853 4.20283 0 0 0 0 0 128 255
3.41153 1.62035 4.20367 0 0 0 0 0 128 255
3.38018 1.59722 4.20721 0 0 0 0 0 128 255
3.21501 1.20442 4.2089 0 0 0 0 0 128 255
3.35672 1.58066 4.20991 0 0 0 0 0 128 255
3.36147 1.61426 4.21126 0 0 0 0 0 128 255
3.52094 2.02219 4.21143 0 0 0 0 0 128 255
3.36384 1.62837 4.21176 0 0 0 0 0 128 255
3.35448 1.63957 4.21396 0 0 0 0 0 128 255
3.34659 1.64375 4.21547 0 0 0 0 0 128 255
3.38118 1.75587 4.21699 0 0 0 0 0 128 255
3.2098 1.32576 4.21733 0 0 0 0 0 128 255
3.16769 1.22412 4.21766 0 0 0 0 0 128 255
3.36412 1.75829 4.21986 0 0 0 0 0 128 255
3.34727 1.72623 4.22053 0 0 0 0 0 128 255
3.3502 1.73905 4.22087 0 0 0 0 0 128 255
3.16655 1.27507 4.22104 0 0 0 0 0 128 255
3.17644 1.3002 4.22104 0 0 0 0 0 128 255
3.16307 1.26892 4.2212 0 0 0 0 0 128 255
3.34451 1.73806 4.22171 0 0 0 0 0 128 255
3.1691 1.30309 4.22238 0 0 0 0 0 128 255
3.32363 1.69577 4.22238 0 0 0 0 0 128 255
3.34817 1.75812 4.22238 0 0 0 0 0 128 255
3.41463 1.9297 4.22255 0 0 0 0 0 128 255
3.1312 1.21484 4.22289 0 0 0 0 0 128 255
3.34359 1.75455 4.22289 0 0 0 0 0 128 255
3.12918 1.21241 4.22306 0 0 0 0 0 128 255
3.33058 1.7242 4.22306 0 0 0 0 0 128 255
3.41225 1.93171 4.22306 0 0 0 0 0 128 255
3.14546 1.27263 4.22424 0 0 0 0 0 128 255
3.15571 1.30406 4.22458 0 0 0 0 0 128 255
3.42193 1.98593 4.22491 0 0 0 0 0 128 255
3.41021 1.96153 4.22525 0 0 0 0 0 128 255
3.41277 1.96804 4.22525 0 0 0 0 0 128 255
3.3214 1.74931 4.22609 0 0 0 0 0 128 255
3.12968 1.29173 4.22795 0 0 0 0 0 128 255
3.09286 1.21703 4.22913 0 0 0 0 0 128 255
3.37079 1.93943 4.23014 0 0 0 0 0 128 255
3.35027 1.90882 4.23149 0 0 0 0 0 128 255
3.37059 1.96315 4.23166 0 0 0 0 0 128 255
3.34679 1.90804 4.23199 0 0 0 0 0 128 255
3.34587 1.91377 4.2325 0 0 0 0 0 128 255
3.35483 1.95538 4.23368 0 0 0 0 0 128 255
3.3561 1.9667 4.23418 0 0 0 0 0 128 255
3.41486 2.14024 4.2357 0 0 0 0 0 128 255
3.32748 1.98549 4.23992 0 0 0 0 0 128 255
3.05522 1.29632 4.24008 0 0 0 0 0 128 255
3.04741 1.44877 4.25087 0 0 0 0 0 128 255
3.00163 1.34857 4.25188 0 0 0 0 0 128 255
3.05318 1.61414 4.26031 0 0 0 0 0 128 255
3.05093 1.67843 4.2647 0 0 0 0 0 128 255
3.04507 1.67429 4.26537 0 0 0 0 0 128 255
3.03627 1.66808 4.26638 0 0 0 0 0 128 255
2.83534 1.26248 4.27296 0 0 0 0 0 128 255
3.11181 1.97042 4.27329 0 0 0 0 0 128 255
2.83002 1.27318 4.27447 0 0 0 0 0 128 255
3.08923 2.00724 4.27919 0 0 0 0 0 128 255
3.07879 1.99416 4.28004 0 0 0 0 0 128 255
3.06961 2.00852 4.2824 0 0 0 0 0 128 255
3.05441 1.97259 4.28256 0 0 0 0 0 128 255
3.06008 2.00045 4.28341 0 0 0 0 0 128 255
3.04835 1.98142 4.28408 0 0 0 0 0 128 255
3.06501 2.02645 4.28425 0 0 0 0 0 128 255
3.06098 2.02696 4.28492 0 0 0 0 0 128 255
2.78578 1.33572 4.28543 0 0 0 0 0 128 255
2.70374 1.13803 4.2861 0 0 0 0 0 128 255
2.72771 1.22317 4.28762 0 0 0 0 0 128 255
3.05434 2.08008 4.28931 0 0 0 0 0 128 255
2.71213 1.21318 4.28948 0 0 0 0 0 128 255
2.71359 1.22765 4.29015 0 0 0 0 0 128 255
2.9245 1.78514 4.2915 0 0 0 0 0 128 255
2.92578 1.80183 4.29234 0 0 0 0 0 128 255
2.92559 1.80405 4.29251 0 0 0 0 0 128 255
2.91881 1.7949 4.29302 0 0 0 0 0 128 255
2.89992 1.79266 4.29588 0 0 0 0 0 128 255
2.92775 1.87413 4.29656 0 0 0 0 0 128 255
2.92335 1.86834 4.29689 0 0 0 0 0 128 255
2.71663 1.35111 4.2974 0 0 0 0 0 128 255
2.92151 1.87444 4.29757 0 0 0 0 0 128 255
2.67066 1.24777 4.29824 0 0 0 0 0 128 255
2.90757 1.88207 4.30026 0 0 0 0 0 128 255
2.90097 1.8707 4.3006 0 0 0 0 0 128 255
2.90866 1.89024 4.3006 0 0 0 0 0 128 255
2.90024 1.87421 4.30094 0 0 0 0 0 128 255
2.65099 1.32429 4.30616 0 0 0 0 0 128 255
2.60753 1.31345 4.3124 0 0 0 0 0 128 255
2.68132 1.50364 4.31257 0 0 0 0 0 128 255
2.55477 1.22782 4.31544 0 0 0 0 0 128 255
2.65436 1.49168 4.31611 0 0 0 0 0 128 255
2.65344 1.49741 4.31662 0 0 0 0 0 128 255
2.56811 1.3021 4.31797 0 0 0 0 0 128 255
2.649 1.56149 4.32134 0 0 0 0 0 128 255
2.64296 1.54882 4.32151 0 0 0 0 0 128 255
2.64662 1.55813 4.32151 0 0 0 0 0 128 255
2.65009 1.57503 4.32201 0 0 0 0 0 128 255
2.65082 1.58227 4.32235 0 0 0 0 0 128 255
2.62628 1.53067 4.32302 0 0 0 0 0 128 255
2.50854 1.23956 4.32353 0 0 0 0 0 128 255
2.6334 1.573 4.32454 0 0 0 0 0 128 255
2.62534 1.5579 4.32488 0 0 0 0 0 128 255
2.6171 1.54503 4.32538 0 0 0 0 0 128 255
2.62204 1.56028 4.32555 0 0 0 0 0 128 255
2.61379 1.55815 4.32673 0 0 0 0 0 128 255
2.49475 1.29335 4.32909 0 0 0 0 0 128 255
2.48431 1.28564 4.33027 0 0 0 0 0 128 255
2.47389 1.51219 4.34612 0 0 0 0 0 128 255
2.45977 1.50055 4.34763 0 0 0 0 0 128 255
2.45571 1.54944 4.35134 0 0 0 0 0 128 255
2.52638 1.7344 4.35168 0 0 0 0 0 128 255
2.51648 1.73078 4.35303 0 0 0 0 0 128 255
2.51812 1.74303 4.35353 0 0 0 0 0 128 255
2.50639 1.72937 4.35455 0 0 0 0 0 128 255
2.50108 1.72394 4.35505 0 0 0 0 0 128 255
2.43461 1.56311 4.35556 0 0 0 0 0 128 255
2.44284 1.59749 4.3564 0 0 0 0 0 128 255
2.43292 1.62073 4.35943 0 0 0 0 0 128 255
2.41936 1.59705 4.36011 0 0 0 0 0 128 255
2.40853 1.62066 4.36331 0 0 0 0 0 128 255
2.34548 1.55198 4.36904 0 0 0 0 0 128 255
