ply
format ascii 1.0
comment VCGLIB generated
element vertex 191
property float x
property float y
property float z
property float nx
property float ny
property float nz
property uchar red
property uchar green
property uchar blue
property uchar alpha
element face 0
property list uchar int vertex_indices
end_header
3.85332 1.09777 3.15484 0 0 0 255 0 255 255
3.85868 1.15205 3.18176 0 0 0 255 0 255 255
3.82867 1.08011 3.22407 0 0 0 255 0 255 255
3.81642 1.03576 3.22888 0 0 0 255 0 255 255
3.86025 1.26593 3.2712 0 0 0 255 0 255 255
3.79521 1.01829 3.28658 0 0 0 255 0 255 255
3.90054 1.45271 3.28947 0 0 0 255 0 255 255
3.89675 1.45569 3.30485 0 0 0 255 0 255 255
3.90866 1.52175 3.31928 0 0 0 255 0 255 255
3.90859 1.54339 3.33755 0 0 0 255 0 255 255
3.90616 1.54501 3.34717 0 0 0 255 0 255 255
3.75297 0.92979 3.35678 0 0 0 255 0 255 255
3.71806 0.81582 3.38082 0 0 0 255 0 255 255
3.69411 0.725935 3.38756 0 0 0 255 0 255 255
3.66736 0.707766 3.46353 0 0 0 255 0 255 255
3.66259 0.689374 3.46449 0 0 0 255 0 255 255
3.66992 0.720525 3.46545 0 0 0 255 0 255 255
3.65869 0.705769 3.49141 0 0 0 255 0 255 255
3.74527 1.07271 3.50199 0 0 0 255 0 255 255
3.73394 1.04253 3.51545 0 0 0 255 0 255 255
3.72014 0.987227 3.51642 0 0 0 255 0 255 255
3.72201 0.996035 3.51738 0 0 0 255 0 255 255
3.90787 1.79577 3.55007 0 0 0 255 0 255 255
3.6655 0.812195 3.55681 0 0 0 255 0 255 255
3.65182 0.762007 3.56161 0 0 0 255 0 255 255
3.67937 0.883954 3.56931 0 0 0 255 0 255 255
3.9051 1.80983 3.57123 0 0 0 255 0 255 255
3.65103 0.771466 3.57219 0 0 0 255 0 255 255
3.90382 1.80809 3.57412 0 0 0 255 0 255 255
3.64718 0.76726 3.58181 0 0 0 255 0 255 255
3.61599 0.652379 3.59239 0 0 0 255 0 255 255
3.71488 1.0616 3.59623 0 0 0 255 0 255 255
3.6539 0.820177 3.60297 0 0 0 255 0 255 255
3.65919 0.858002 3.61643 0 0 0 255 0 255 255
3.60479 0.636587 3.61739 0 0 0 255 0 255 255
3.67923 0.945755 3.62124 0 0 0 255 0 255 255
3.705 1.07431 3.64047 0 0 0 255 0 255 255
3.67604 0.965063 3.64816 0 0 0 255 0 255 255
3.68005 0.982614 3.64912 0 0 0 255 0 255 255
3.7246 1.16835 3.65201 0 0 0 255 0 255 255
3.73314 1.20332 3.65201 0 0 0 255 0 255 255
3.60126 0.668334 3.65586 0 0 0 255 0 255 255
3.60016 0.669631 3.66066 0 0 0 255 0 255 255
3.69543 1.06636 3.66643 0 0 0 255 0 255 255
3.72131 1.17224 3.66643 0 0 0 255 0 255 255
3.71597 1.15501 3.67028 0 0 0 255 0 255 255
3.78308 1.43303 3.67317 0 0 0 255 0 255 255
3.82054 1.59785 3.68278 0 0 0 255 0 255 255
3.78148 1.44269 3.68663 0 0 0 255 0 255 255
3.61131 0.753378 3.6924 0 0 0 255 0 255 255
3.63188 0.841 3.69528 0 0 0 255 0 255 255
3.69213 1.08981 3.69721 0 0 0 255 0 255 255
3.7849 1.4717 3.69913 0 0 0 255 0 255 255
3.68584 1.0687 3.70105 0 0 0 255 0 255 255
3.70602 1.15127 3.70105 0 0 0 255 0 255 255
3.68154 1.05225 3.70202 0 0 0 255 0 255 255
3.70671 1.15522 3.70202 0 0 0 255 0 255 255
3.70166 1.13689 3.70394 0 0 0 255 0 255 255
3.81206 1.5886 3.70394 0 0 0 255 0 255 255
3.81156 1.58769 3.7049 0 0 0 255 0 255 255
3.81275 1.59255 3.7049 0 0 0 255 0 255 255
3.76951 1.41679 3.70586 0 0 0 255 0 255 255
3.77019 1.42074 3.70682 0 0 0 255 0 255 255
3.76945 1.41886 3.70779 0 0 0 255 0 255 255
3.61379 0.787773 3.71259 0 0 0 255 0 255 255
3.68217 1.06754 3.71259 0 0 0 255 0 255 255
3.70033 1.14648 3.71644 0 0 0 255 0 255 255
3.77889 1.46905 3.7174 0 0 0 255 0 255 255
3.77524 1.45759 3.72029 0 0 0 255 0 255 255
3.81406 1.62105 3.72413 0 0 0 255 0 255 255
3.79237 1.53576 3.72702 0 0 0 255 0 255 255
3.80733 1.59696 3.72702 0 0 0 255 0 255 255
3.68737 1.10847 3.72894 0 0 0 255 0 255 255
3.70129 1.1689 3.73183 0 0 0 255 0 255 255
3.7015 1.1709 3.73279 0 0 0 255 0 255 255
3.80644 1.60027 3.73279 0 0 0 255 0 255 255
3.68343 1.09811 3.73375 0 0 0 255 0 255 255
3.67319 1.05738 3.73471 0 0 0 255 0 255 255
3.68245 1.09526 3.73471 0 0 0 255 0 255 255
3.76507 1.43331 3.73471 0 0 0 255 0 255 255
3.69519 1.15083 3.7376 0 0 0 255 0 255 255
3.7619 1.42379 3.7376 0 0 0 255 0 255 255
3.76271 1.43286 3.7424 0 0 0 255 0 255 255
3.76458 1.44167 3.74337 0 0 0 255 0 255 255
3.82939 1.70686 3.74337 0 0 0 255 0 255 255
3.67551 1.07843 3.74433 0 0 0 255 0 255 255
3.67311 1.06975 3.74529 0 0 0 255 0 255 255
3.70181 1.18833 3.74625 0 0 0 255 0 255 255
3.6722 1.07409 3.75202 0 0 0 255 0 255 255
3.56485 0.636054 3.75298 0 0 0 255 0 255 255
3.67145 1.07222 3.75298 0 0 0 255 0 255 255
3.82839 1.71432 3.75298 0 0 0 255 0 255 255
3.74906 1.3909 3.75394 0 0 0 255 0 255 255
3.81958 1.67941 3.75394 0 0 0 255 0 255 255
3.75639 1.42205 3.75491 0 0 0 255 0 255 255
3.74604 1.38546 3.75971 0 0 0 255 0 255 255
3.827 1.71671 3.75971 0 0 0 255 0 255 255
3.6308 0.917442 3.7626 0 0 0 255 0 255 255
3.68844 1.15557 3.76452 0 0 0 255 0 255 255
3.74824 1.4014 3.76548 0 0 0 255 0 255 255
3.68909 1.16055 3.76645 0 0 0 255 0 255 255
3.74818 1.40347 3.76741 0 0 0 255 0 255 255
3.68138 1.13362 3.77029 0 0 0 255 0 255 255
3.74065 1.37958 3.77318 0 0 0 255 0 255 255
3.68049 1.13692 3.77606 0 0 0 255 0 255 255
3.74602 1.40503 3.77606 0 0 0 255 0 255 255
3.6807 1.13893 3.77702 0 0 0 255 0 255 255
3.67943 1.13718 3.77991 0 0 0 255 0 255 255
3.68459 1.16062 3.78183 0 0 0 255 0 255 255
3.67379 1.12106 3.78568 0 0 0 255 0 255 255
3.68089 1.15124 3.78664 0 0 0 255 0 255 255
3.73666 1.38982 3.7953 0 0 0 255 0 255 255
3.73684 1.39286 3.79722 0 0 0 255 0 255 255
3.61896 0.924453 3.80876 0 0 0 255 0 255 255
3.66858 1.12748 3.80876 0 0 0 255 0 255 255
3.66989 1.13745 3.81261 0 0 0 255 0 255 255
3.67037 1.13939 3.81261 0 0 0 255 0 255 255
3.75038 1.46676 3.81261 0 0 0 255 0 255 255
3.66963 1.13752 3.81357 0 0 0 255 0 255 255
3.727 1.38497 3.82415 0 0 0 255 0 255 255
3.72623 1.38413 3.82607 0 0 0 255 0 255 255
3.58176 0.79766 3.82992 0 0 0 255 0 255 255
3.66053 1.12224 3.83184 0 0 0 255 0 255 255
3.64927 1.10852 3.85876 0 0 0 255 0 255 255
3.57202 0.795923 3.86165 0 0 0 255 0 255 255
3.59741 0.976046 3.92512 0 0 0 255 0 255 255
3.56619 0.852938 3.92897 0 0 0 255 0 255 255
3.55996 0.829754 3.93089 0 0 0 255 0 255 255
3.5586 0.831116 3.93666 0 0 0 255 0 255 255
3.58479 1.02031 4.00494 0 0 0 255 0 255 255
3.52672 0.79773 4.01744 0 0 0 255 0 255 255
3.60363 1.14129 4.04148 0 0 0 255 0 255 255
3.53245 0.867362 4.0559 0 0 0 255 0 255 255
3.54524 0.920854 4.05687 0 0 0 255 0 255 255
3.59605 1.12874 4.05687 0 0 0 255 0 255 255
3.59371 1.12725 4.0636 0 0 0 255 0 255 255
3.5597 0.99041 4.06552 0 0 0 255 0 255 255
3.51711 0.819638 4.06841 0 0 0 255 0 255 255
3.59048 1.1198 4.06841 0 0 0 255 0 255 255
3.55433 0.974222 4.07033 0 0 0 255 0 255 255
3.58846 1.11618 4.07225 0 0 0 255 0 255 255
3.58674 1.11145 4.07417 0 0 0 255 0 255 255
3.56027 1.00777 4.07802 0 0 0 255 0 255 255
3.50848 0.79704 4.07898 0 0 0 255 0 255 255
3.58241 1.1053 4.08379 0 0 0 255 0 255 255
3.55793 1.00628 4.08475 0 0 0 255 0 255 255
3.50448 0.788754 4.08571 0 0 0 255 0 255 255
3.52716 0.886155 4.08956 0 0 0 255 0 255 255
3.52858 0.891983 4.08956 0 0 0 255 0 255 255
3.50238 0.788238 4.09245 0 0 0 255 0 255 255
3.47369 0.678925 4.09918 0 0 0 255 0 255 255
3.54509 0.973391 4.1011 0 0 0 255 0 255 255
3.54646 0.990556 4.11072 0 0 0 255 0 255 255
3.57329 1.10033 4.11072 0 0 0 255 0 255 255
3.53837 0.977092 4.12707 0 0 0 255 0 255 255
3.5666 1.09373 4.12803 0 0 0 255 0 255 255
3.52488 0.939213 4.14149 0 0 0 255 0 255 255
3.50388 0.867139 4.15303 0 0 0 255 0 255 255
3.55563 1.07891 4.15303 0 0 0 255 0 255 255
3.50999 0.894468 4.15495 0 0 0 255 0 255 255
3.55356 1.07735 4.1588 0 0 0 255 0 255 255
3.50581 0.883137 4.15976 0 0 0 255 0 255 255
3.54651 1.06467 4.17226 0 0 0 255 0 255 255
3.51407 0.937737 4.17707 0 0 0 255 0 255 255
3.53883 1.04595 4.18284 0 0 0 255 0 255 255
3.50907 0.936901 4.19342 0 0 0 255 0 255 255
3.53249 1.03618 4.1963 0 0 0 255 0 255 255
3.49655 0.892607 4.19919 0 0 0 255 0 255 255
3.53643 1.0558 4.19919 0 0 0 255 0 255 255
3.49379 0.887104 4.204 0 0 0 255 0 255 255
3.4797 0.832901 4.20688 0 0 0 255 0 255 255
3.47941 0.843266 4.2165 0 0 0 255 0 255 255
3.47795 0.838474 4.21746 0 0 0 255 0 255 255
3.47745 0.837568 4.21842 0 0 0 255 0 255 255
3.52161 1.01825 4.21842 0 0 0 255 0 255 255
3.52725 1.04364 4.22035 0 0 0 255 0 255 255
3.49206 0.911205 4.22996 0 0 0 255 0 255 255
3.49155 0.910298 4.23092 0 0 0 255 0 255 255
3.49076 0.910494 4.23381 0 0 0 255 0 255 255
3.48544 0.892232 4.23669 0 0 0 255 0 255 255
3.48853 0.90486 4.23669 0 0 0 255 0 255 255
3.51655 1.01949 4.23669 0 0 0 255 0 255 255
3.51673 1.02253 4.23862 0 0 0 255 0 255 255
3.47586 0.856485 4.23958 0 0 0 255 0 255 255
3.47263 0.84904 4.24439 0 0 0 255 0 255 255
3.46809 0.83162 4.24535 0 0 0 255 0 255 255
3.45413 0.810325 4.27516 0 0 0 255 0 255 255
3.57472 1.3141 4.28381 0 0 0 255 0 255 255
3.56956 1.30918 4.29728 0 0 0 255 0 255 255
3.444 0.803535 4.30401 0 0 0 255 0 255 255
3.4413 0.795959 4.30689 0 0 0 255 0 255 255
