ply
format ascii 1.0
comment VCGLIB generated
element vertex 81
property float x
property float y
property float z
property float nx
property float ny
property float nz
property uchar red
property uchar green
property uchar blue
property uchar alpha
element face 0
property list uchar int vertex_indices
end_header
0.966946 1.46396 4.42767 0 0 0 0 128 128 255
0.987959 1.44672 4.38453 0 0 0 0 128 128 255
1.00636 1.43243 4.3292 0 0 0 0 128 128 255
1.01114 1.42809 4.32631 0 0 0 0 128 128 255
0.97012 1.45906 4.46618 0 0 0 0 128 128 255
0.971734 1.45753 4.46596 0 0 0 0 128 128 255
0.999292 1.43558 4.39056 0 0 0 0 128 128 255
1.00279 1.43275 4.38158 0 0 0 0 128 128 255
0.974715 1.45348 4.48386 0 0 0 0 128 128 255
1.01394 1.41999 4.40185 0 0 0 0 128 128 255
0.995243 1.43403 4.46571 0 0 0 0 128 128 255
1.02636 1.40881 4.38039 0 0 0 0 128 128 255
1.01476 1.41743 4.4209 0 0 0 0 128 128 255
1.00322 1.42578 4.46363 0 0 0 0 128 128 255
1.02795 1.40693 4.38237 0 0 0 0 128 128 255
1.01815 1.41371 4.42172 0 0 0 0 128 128 255
1.04605 1.38638 4.38623 0 0 0 0 128 128 255
1.05511 1.37173 4.41487 0 0 0 0 128 128 255
1.13154 1.29148 4.2865 0 0 0 0 128 128 255
1.08776 1.31739 4.46311 0 0 0 0 128 128 255
1.18554 1.17384 4.34307 0 0 0 0 128 128 255
1.19371 1.16231 4.32682 0 0 0 0 128 128 255
1.19722 1.15627 4.32179 0 0 0 0 128 128 255
1.18612 1.14804 4.38778 0 0 0 0 128 128 255
1.18748 1.14486 4.38679 0 0 0 0 128 128 255
1.18376 1.14697 4.40016 0 0 0 0 128 128 255
1.20821 1.11589 4.33879 0 0 0 0 128 128 255
1.19817 1.12205 4.37392 0 0 0 0 128 128 255
0.0287868 1.42985 4.24644 0 0 0 0 128 128 255
0.0389048 1.44206 4.25097 0 0 0 0 128 128 255
0.0858072 1.45455 4.19275 0 0 0 0 128 128 255
0.0253952 1.5092 4.40902 0 0 0 0 128 128 255
0.0375242 1.51588 4.40259 0 0 0 0 128 128 255
0.308031 1.50805 3.99421 0 0 0 0 128 128 255
0.291261 1.57859 4.21472 0 0 0 0 128 128 255
0.289399 1.60215 4.28792 0 0 0 0 128 128 255
0.32051 1.58053 4.19212 0 0 0 0 128 128 255
0.373371 1.569 4.10917 0 0 0 0 128 128 255
0.434065 1.52476 3.91626 0 0 0 0 128 128 255
0.381253 1.57306 4.11598 0 0 0 0 128 128 255
0.34598 1.61681 4.28782 0 0 0 0 128 128 255
0.345332 1.62609 4.31973 0 0 0 0 128 128 255
0.425429 1.57374 4.08643 0 0 0 0 128 128 255
0.370611 1.63638 4.34003 0 0 0 0 128 128 255
0.372506 1.6368 4.34051 0 0 0 0 128 128 255
0.388811 1.63087 4.31044 0 0 0 0 128 128 255
0.363431 1.65482 4.41066 0 0 0 0 128 128 255
0.389217 1.63974 4.34277 0 0 0 0 128 128 255
0.532228 1.53888 3.90324 0 0 0 0 128 128 255
0.419587 1.62653 4.28013 0 0 0 0 128 128 255
0.404155 1.64009 4.3376 0 0 0 0 128 128 255
0.523693 1.55785 3.97869 0 0 0 0 128 128 255
0.37439 1.67342 4.47607 0 0 0 0 128 128 255
0.401779 1.65342 4.38946 0 0 0 0 128 128 255
0.439866 1.62439 4.26431 0 0 0 0 128 128 255
0.374698 1.67581 4.48524 0 0 0 0 128 128 255
0.380667 1.67126 4.46563 0 0 0 0 128 128 255
0.501671 1.58078 4.07481 0 0 0 0 128 128 255
0.454126 1.61876 4.23784 0 0 0 0 128 128 255
0.514359 1.57976 4.06713 0 0 0 0 128 128 255
0.526581 1.57045 4.02697 0 0 0 0 128 128 255
0.518934 1.57885 4.06231 0 0 0 0 128 128 255
0.369531 1.69358 4.55664 0 0 0 0 128 128 255
0.433768 1.64462 4.34556 0 0 0 0 128 128 255
0.375244 1.69178 4.54809 0 0 0 0 128 128 255
0.415919 1.66332 4.42466 0 0 0 0 128 128 255
0.50643 1.60438 4.16822 0 0 0 0 128 128 255
0.396107 1.6926 4.54782 0 0 0 0 128 128 255
0.574322 1.55676 3.96223 0 0 0 0 128 128 255
0.398592 1.69235 4.54649 0 0 0 0 128 128 255
0.592068 1.56571 3.99982 0 0 0 0 128 128 255
0.601159 1.61468 4.23428 0 0 0 0 128 128 255
0.649707 1.5888 4.133 0 0 0 0 128 128 255
0.602488 1.6379 4.35992 0 0 0 0 128 128 255
0.614994 1.62837 4.31883 0 0 0 0 128 128 255
0.611285 1.63301 4.34125 0 0 0 0 128 128 255
0.810749 1.56463 4.3086 0 0 0 0 128 128 255
0.770839 1.60337 4.54337 0 0 0 0 128 128 255
0.77758 1.59932 4.53673 0 0 0 0 128 128 255
0.789234 1.59044 4.49843 0 0 0 0 128 128 255
0.809494 1.58135 4.53883 0 0 0 0 128 128 255
