ply
format ascii 1.0
comment VCGLIB generated
element vertex 331
property float x
property float y
property float z
property float nx
property float ny
property float nz
property uchar red
property uchar green
property uchar blue
property uchar alpha
element face 0
property list uchar int vertex_indices
end_header
-1.06598 -0.907984 3.72344 0 0 0 128 0 0 255
-1.027 -0.795008 3.65033 0 0 0 128 0 0 255
-1.02226 -0.793994 3.64389 0 0 0 128 0 0 255
-1.0291 -0.0630723 3.63426 0 0 0 128 0 0 255
-0.985729 -0.914815 3.60499 0 0 0 128 0 0 255
-0.98649 -0.805824 3.60345 0 0 0 128 0 0 255
-0.991134 0.0181154 3.59085 0 0 0 128 0 0 255
-0.981478 -0.695798 3.59637 0 0 0 128 0 0 255
-0.986136 0.0301472 3.58603 0 0 0 128 0 0 255
-0.973134 -0.598746 3.58692 0 0 0 128 0 0 255
-0.97673 0.0042119 3.57836 0 0 0 128 0 0 255
-0.97169 -0.311744 3.58016 0 0 0 128 0 0 255
-0.96224 -0.896663 3.5834 0 0 0 128 0 0 255
-0.971761 -0.135749 3.57688 0 0 0 128 0 0 255
-0.969767 -0.168734 3.57587 0 0 0 128 0 0 255
-0.97018 -0.0807392 3.57456 0 0 0 128 0 0 255
-0.969605 -0.0657353 3.57381 0 0 0 128 0 0 255
-0.966156 -0.320704 3.57579 0 0 0 128 0 0 255
-0.963902 -0.19769 3.57173 0 0 0 128 0 0 255
-0.958033 -0.631638 3.57508 0 0 0 128 0 0 255
-0.961315 -0.213671 3.57001 0 0 0 128 0 0 255
-0.960132 -0.183662 3.56857 0 0 0 128 0 0 255
-0.951585 -0.815585 3.57345 0 0 0 128 0 0 255
-0.951734 -0.686589 3.57125 0 0 0 128 0 0 255
-0.943431 -0.582525 3.5634 0 0 0 128 0 0 255
-0.942985 -0.615521 3.56365 0 0 0 128 0 0 255
-0.941605 -0.717508 3.56444 0 0 0 128 0 0 255
-0.939289 -0.523491 3.55953 0 0 0 128 0 0 255
-0.937906 -0.564479 3.55929 0 0 0 128 0 0 255
-0.934118 -0.536448 3.55631 0 0 0 128 0 0 255
-0.925727 -0.532376 3.55093 0 0 0 128 0 0 255
-0.921249 -0.800336 3.55248 0 0 0 128 0 0 255
-0.920138 -0.819326 3.5521 0 0 0 128 0 0 255
-0.919164 -0.701317 3.54964 0 0 0 128 0 0 255
-0.919219 -0.506318 3.54661 0 0 0 128 0 0 255
-0.905828 -0.788196 3.54338 0 0 0 128 0 0 255
-0.908345 -0.537218 3.54096 0 0 0 128 0 0 255
-0.907221 -0.555208 3.54063 0 0 0 128 0 0 255
-0.906205 -0.565198 3.54023 0 0 0 128 0 0 255
-0.899133 -0.695132 3.53845 0 0 0 128 0 0 255
-0.887787 -0.805023 3.53442 0 0 0 128 0 0 255
-0.887979 -0.724024 3.53337 0 0 0 128 0 0 255
-0.891606 -0.322055 3.52941 0 0 0 128 0 0 255
-0.884381 -0.721988 3.53166 0 0 0 128 0 0 255
-0.887263 -0.307011 3.52721 0 0 0 128 0 0 255
-0.884842 -0.48599 3.52859 0 0 0 128 0 0 255
-0.88136 -0.675957 3.52965 0 0 0 128 0 0 255
-0.885099 -0.33199 3.52659 0 0 0 128 0 0 255
-0.882385 -0.464965 3.52721 0 0 0 128 0 0 255
-0.87237 -0.797868 3.52742 0 0 0 128 0 0 255
-0.872313 -0.733866 3.52654 0 0 0 128 0 0 255
-0.87808 -0.170915 3.52142 0 0 0 128 0 0 255
-0.868458 -0.813828 3.52601 0 0 0 128 0 0 255
-0.8762 -0.172896 3.52068 0 0 0 128 0 0 255
-0.876571 -0.076898 3.51956 0 0 0 128 0 0 255
-0.871143 -0.340847 3.52086 0 0 0 128 0 0 255
-0.862681 -0.690765 3.52212 0 0 0 128 0 0 255
-0.860177 -0.806741 3.52266 0 0 0 128 0 0 255
-0.866018 -0.097787 3.51578 0 0 0 128 0 0 255
-0.858025 -0.688715 3.52035 0 0 0 128 0 0 255
-0.855855 -0.779694 3.52072 0 0 0 128 0 0 255
-0.852968 -0.714661 3.51887 0 0 0 128 0 0 255
-0.850247 -0.355622 3.51352 0 0 0 128 0 0 255
-0.841461 -0.723536 3.51515 0 0 0 128 0 0 255
-0.847612 -0.127587 3.50995 0 0 0 128 0 0 255
-0.839687 -0.713516 3.51448 0 0 0 128 0 0 255
-0.838568 -0.725504 3.51428 0 0 0 128 0 0 255
-0.835762 -0.791474 3.51421 0 0 0 128 0 0 255
-0.83444 -0.676456 3.51247 0 0 0 128 0 0 255
-0.826677 -0.823372 3.51198 0 0 0 128 0 0 255
-0.818794 -0.690277 3.50845 0 0 0 128 0 0 255
-0.818307 -0.726273 3.50873 0 0 0 128 0 0 255
-0.816336 -0.72825 3.50828 0 0 0 128 0 0 255
-0.820988 -0.168283 3.50326 0 0 0 128 0 0 255
-0.82012 -0.0882701 3.5022 0 0 0 128 0 0 255
-0.810528 -0.725181 3.50691 0 0 0 128 0 0 255
-0.817166 -0.162238 3.50235 0 0 0 128 0 0 255
-0.81723 -0.0852358 3.50154 0 0 0 128 0 0 255
-0.80418 -0.688104 3.50518 0 0 0 128 0 0 255
-0.803896 -0.709102 3.50535 0 0 0 128 0 0 255
-0.797648 -0.808031 3.50516 0 0 0 128 0 0 255
-0.798629 -0.590033 3.50312 0 0 0 128 0 0 255
-0.798602 -0.592033 3.50313 0 0 0 128 0 0 255
-0.79467 -0.809995 3.50464 0 0 0 128 0 0 255
-0.796809 -0.579011 3.50268 0 0 0 128 0 0 255
-0.796027 -0.564001 3.50239 0 0 0 128 0 0 255
-0.792889 -0.795972 3.50419 0 0 0 128 0 0 255
-0.790836 -0.801948 3.5039 0 0 0 128 0 0 255
-0.790729 -0.590937 3.50179 0 0 0 128 0 0 255
-0.788741 -0.737919 3.50293 0 0 0 128 0 0 255
-0.787591 -0.822909 3.50358 0 0 0 128 0 0 255
-0.787184 -0.706898 3.50238 0 0 0 128 0 0 255
-0.779793 -0.153779 3.49615 0 0 0 128 0 0 255
-0.769068 -0.799676 3.50093 0 0 0 128 0 0 255
-0.768979 -0.732671 3.50031 0 0 0 128 0 0 255
-0.766237 -0.714635 3.49988 0 0 0 128 0 0 255
-0.764877 -0.741619 3.49999 0 0 0 128 0 0 255
-0.764598 -0.688613 3.49949 0 0 0 128 0 0 255
-0.762253 -0.714584 3.49952 0 0 0 128 0 0 255
-0.76224 -0.715584 3.49953 0 0 0 128 0 0 255
-0.768438 -0.183636 3.49534 0 0 0 128 0 0 255
-0.764056 -0.507597 3.49784 0 0 0 128 0 0 255
-0.763542 -0.545592 3.49813 0 0 0 128 0 0 255
-0.763001 -0.585587 3.49844 0 0 0 128 0 0 255
-0.760094 -0.800561 3.50011 0 0 0 128 0 0 255
-0.762518 -0.547579 3.49807 0 0 0 128 0 0 255
-0.760652 -0.685562 3.49914 0 0 0 128 0 0 255
-0.75884 -0.819546 3.50017 0 0 0 128 0 0 255
-0.762391 -0.40957 3.49686 0 0 0 128 0 0 255
-0.758076 -0.728531 3.49932 0 0 0 128 0 0 255
-0.764612 -0.171586 3.49494 0 0 0 128 0 0 255
-0.756051 -0.804509 3.49984 0 0 0 128 0 0 255
-0.757826 -0.599521 3.49819 0 0 0 128 0 0 255
-0.763888 -0.0775711 3.49409 0 0 0 128 0 0 255
-0.759685 -0.314529 3.49586 0 0 0 128 0 0 255
-0.758995 -0.365523 3.49625 0 0 0 128 0 0 255
-0.757226 -0.422503 3.49663 0 0 0 128 0 0 255
-0.760812 -0.0835312 3.49395 0 0 0 128 0 0 255
-0.755892 -0.373483 3.49614 0 0 0 128 0 0 255
-0.751734 -0.385429 3.49605 0 0 0 128 0 0 255
-0.749408 -0.557408 3.49738 0 0 0 128 0 0 255
-0.75037 -0.412412 3.49621 0 0 0 128 0 0 255
-0.744879 -0.818363 3.49935 0 0 0 128 0 0 255
-0.742745 -0.828335 3.49936 0 0 0 128 0 0 255
-0.742125 -0.800326 3.49911 0 0 0 128 0 0 255
-0.750619 -0.0983975 3.49365 0 0 0 128 0 0 255
-0.743884 -0.596337 3.4975 0 0 0 128 0 0 255
-0.74689 -0.152351 3.494 0 0 0 128 0 0 255
-0.737018 -0.808258 3.49905 0 0 0 128 0 0 255
-0.739659 -0.391268 3.49579 0 0 0 128 0 0 255
-0.733317 -0.712202 3.49826 0 0 0 128 0 0 255
-0.731898 -0.743185 3.4985 0 0 0 128 0 0 255
-0.736078 -0.360218 3.49554 0 0 0 128 0 0 255
-0.730615 -0.690164 3.49809 0 0 0 128 0 0 255
-0.731484 -0.404158 3.49591 0 0 0 128 0 0 255
-0.726885 -0.744117 3.49854 0 0 0 128 0 0 255
-0.730499 -0.32914 3.49536 0 0 0 128 0 0 255
-0.726915 -0.594108 3.49741 0 0 0 128 0 0 255
-0.726997 -0.514104 3.49681 0 0 0 128 0 0 255
-0.720188 -0.574014 3.49745 0 0 0 128 0 0 255
-0.718038 -0.732995 3.49868 0 0 0 128 0 0 255
-0.716807 -0.823984 3.49938 0 0 0 128 0 0 255
-0.714027 -0.807944 3.49939 0 0 0 128 0 0 255
-0.710426 -0.409867 3.49683 0 0 0 128 0 0 255
-0.709979 -0.442863 3.49709 0 0 0 128 0 0 255
-0.707156 -0.577833 3.4982 0 0 0 128 0 0 255
-0.713895 -0.00588801 3.49386 0 0 0 128 0 0 255
-0.705983 -0.590817 3.49838 0 0 0 128 0 0 255
-0.704496 -0.700804 3.49923 0 0 0 128 0 0 255
-0.703797 -0.678792 3.49914 0 0 0 128 0 0 255
-0.70238 -0.709774 3.49946 0 0 0 128 0 0 255
-0.703656 -0.541781 3.49824 0 0 0 128 0 0 255
-0.701641 -0.690763 3.49939 0 0 0 128 0 0 255
-0.702362 -0.563764 3.4985 0 0 0 128 0 0 255
-0.706709 -0.168798 3.49553 0 0 0 128 0 0 255
-0.697896 -0.746713 3.50009 0 0 0 128 0 0 255
-0.696976 -0.814705 3.50062 0 0 0 128 0 0 255
-0.698677 -0.54171 3.4987 0 0 0 128 0 0 255
-0.703688 -0.0977495 3.49536 0 0 0 128 0 0 255
-0.703647 -0.100749 3.49539 0 0 0 128 0 0 255
-0.698967 -0.446707 3.49806 0 0 0 128 0 0 255
-0.697925 -0.376687 3.49773 0 0 0 128 0 0 255
-0.691819 -0.754627 3.50076 0 0 0 128 0 0 255
-0.690589 -0.698605 3.50055 0 0 0 128 0 0 255
-0.695982 -0.0796372 3.49612 0 0 0 128 0 0 255
-0.687984 -0.59756 3.50024 0 0 0 128 0 0 255
-0.686009 -0.743542 3.50137 0 0 0 128 0 0 255
-0.685184 -0.804535 3.50185 0 0 0 128 0 0 255
-0.684824 -0.684521 3.50117 0 0 0 128 0 0 255
-0.683346 -0.720502 3.50158 0 0 0 128 0 0 255
-0.682409 -0.716488 3.50169 0 0 0 128 0 0 255
-0.685801 -0.392513 3.49932 0 0 0 128 0 0 255
-0.681597 -0.191435 3.4988 0 0 0 128 0 0 255
-0.67232 -0.804347 3.5037 0 0 0 128 0 0 255
-0.677 -0.385383 3.50062 0 0 0 128 0 0 255
-0.672066 -0.604327 3.50265 0 0 0 128 0 0 255
-0.670767 -0.700315 3.50339 0 0 0 128 0 0 255
-0.669158 -0.819301 3.50431 0 0 0 128 0 0 255
-0.663253 -0.819213 3.50537 0 0 0 128 0 0 255
-0.662149 -0.828197 3.50563 0 0 0 128 0 0 255
-0.66256 -0.725195 3.50502 0 0 0 128 0 0 255
-0.661613 -0.795186 3.50556 0 0 0 128 0 0 255
-0.661261 -0.821183 3.50576 0 0 0 128 0 0 255
-0.66899 -0.177246 3.50097 0 0 0 128 0 0 255
-0.667116 -0.243224 3.50168 0 0 0 128 0 0 255
-0.660395 -0.740163 3.50552 0 0 0 128 0 0 255
-0.665968 -0.183201 3.50161 0 0 0 128 0 0 255
-0.662369 -0.232151 3.5026 0 0 0 128 0 0 255
-0.66246 -0.153146 3.5022 0 0 0 128 0 0 255
-0.65353 -0.741059 3.50696 0 0 0 128 0 0 255
-0.652919 -0.714048 3.50697 0 0 0 128 0 0 255
-0.656878 -0.277071 3.50403 0 0 0 128 0 0 255
-0.648519 -0.750984 3.50814 0 0 0 128 0 0 255
-0.645816 -0.806947 3.50904 0 0 0 128 0 0 255
-0.643862 -0.735911 3.5092 0 0 0 128 0 0 255
-0.644907 -0.586914 3.50829 0 0 0 128 0 0 255
-0.649699 -0.160951 3.50524 0 0 0 128 0 0 255
-0.647391 -0.259924 3.50625 0 0 0 128 0 0 255
-0.641616 -0.686872 3.50955 0 0 0 128 0 0 255
-0.645923 -0.296904 3.50679 0 0 0 128 0 0 255
-0.641622 -0.614865 3.50925 0 0 0 128 0 0 255
-0.639783 -0.607836 3.5097 0 0 0 128 0 0 255
-0.637194 -0.727807 3.51089 0 0 0 128 0 0 255
-0.635877 -0.753788 3.51135 0 0 0 128 0 0 255
-0.634638 -0.702764 3.51149 0 0 0 128 0 0 255
-0.637394 -0.427783 3.50963 0 0 0 128 0 0 255
-0.636392 -0.430767 3.50992 0 0 0 128 0 0 255
-0.633455 -0.576734 3.51132 0 0 0 128 0 0 255
-0.63451 -0.427737 3.51045 0 0 0 128 0 0 255
-0.635471 -0.214733 3.50936 0 0 0 128 0 0 255
-0.629006 -0.692675 3.51306 0 0 0 128 0 0 255
-0.627762 -0.784664 3.51377 0 0 0 128 0 0 255
-0.634393 -0.15271 3.50946 0 0 0 128 0 0 255
-0.627702 -0.576643 3.51302 0 0 0 128 0 0 255
-0.627404 -0.598641 3.51319 0 0 0 128 0 0 255
-0.627243 -0.398619 3.51253 0 0 0 128 0 0 255
-0.624957 -0.567599 3.51384 0 0 0 128 0 0 255
-0.622577 -0.743577 3.5152 0 0 0 128 0 0 255
-0.620568 -0.821553 3.5161 0 0 0 128 0 0 255
-0.623159 -0.559569 3.51438 0 0 0 128 0 0 255
-0.621035 -0.71655 3.51559 0 0 0 128 0 0 255
-0.626805 -0.219595 3.51206 0 0 0 128 0 0 255
-0.623271 -0.410557 3.51384 0 0 0 128 0 0 255
-0.623024 -0.358548 3.51375 0 0 0 128 0 0 255
-0.625534 -0.032557 3.51186 0 0 0 128 0 0 255
-0.618218 -0.573491 3.51604 0 0 0 128 0 0 255
-0.622504 -0.186523 3.51337 0 0 0 128 0 0 255
-0.62199 -0.224518 3.51366 0 0 0 128 0 0 255
-0.615566 -0.699461 3.51734 0 0 0 128 0 0 255
-0.621313 -0.204506 3.51383 0 0 0 128 0 0 255
-0.618365 -0.422479 3.51551 0 0 0 128 0 0 255
-0.623005 -0.0095139 3.51264 0 0 0 128 0 0 255
-0.622761 -0.0275117 3.51278 0 0 0 128 0 0 255
-0.614269 -0.585429 3.51742 0 0 0 128 0 0 255
-0.620899 -0.0254813 3.51342 0 0 0 128 0 0 255
-0.604685 -0.737288 3.5213 0 0 0 128 0 0 255
-0.611187 -0.187339 3.5174 0 0 0 128 0 0 255
-0.608491 -0.248301 3.51858 0 0 0 128 0 0 255
-0.608152 -0.204291 3.51859 0 0 0 128 0 0 255
-0.601512 -0.695231 3.52239 0 0 0 128 0 0 255
-0.600673 -0.688217 3.5227 0 0 0 128 0 0 255
-0.602192 -0.438216 3.52149 0 0 0 128 0 0 255
-0.594678 -0.71912 3.52515 0 0 0 128 0 0 255
-0.594407 -0.739118 3.5253 0 0 0 128 0 0 255
-0.599892 -0.26516 3.52202 0 0 0 128 0 0 255
-0.598909 -0.201137 3.52228 0 0 0 128 0 0 255
-0.598814 -0.208136 3.52234 0 0 0 128 0 0 255
-0.591443 -0.75307 3.52655 0 0 0 128 0 0 255
-0.592293 -0.282034 3.52526 0 0 0 128 0 0 255
-0.587622 -0.491978 3.52769 0 0 0 128 0 0 255
-0.588724 -0.207966 3.52671 0 0 0 128 0 0 255
-0.588196 -0.246961 3.52701 0 0 0 128 0 0 255
-0.589419 -0.0219571 3.5261 0 0 0 128 0 0 255
-0.580331 -0.693876 3.5313 0 0 0 128 0 0 255
-0.586712 -0.154925 3.52755 0 0 0 128 0 0 255
-0.586671 -0.157925 3.52757 0 0 0 128 0 0 255
-0.585209 -0.198905 3.52831 0 0 0 128 0 0 255
-0.583005 -0.294877 3.52947 0 0 0 128 0 0 255
-0.574789 -0.701781 3.5339 0 0 0 128 0 0 255
-0.574546 -0.719779 3.53404 0 0 0 128 0 0 255
-0.573874 -0.702766 3.53435 0 0 0 128 0 0 255
-0.570825 -0.728716 3.53586 0 0 0 128 0 0 255
-0.568695 -0.753682 3.53694 0 0 0 128 0 0 255
-0.565951 -0.692627 3.53827 0 0 0 128 0 0 255
-0.566257 -0.538615 3.538 0 0 0 128 0 0 255
-0.563917 -0.711594 3.53934 0 0 0 128 0 0 255
-0.561098 -0.723545 3.54082 0 0 0 128 0 0 255
-0.569669 -0.0246147 3.53589 0 0 0 128 0 0 255
-0.559985 -0.740528 3.54142 0 0 0 128 0 0 255
-0.563513 -0.219529 3.5393 0 0 0 128 0 0 255
-0.563432 -0.225528 3.53934 0 0 0 128 0 0 255
-0.561403 -0.37551 3.5405 0 0 0 128 0 0 255
-0.559387 -0.330469 3.54161 0 0 0 128 0 0 255
-0.555187 -0.576423 3.544 0 0 0 128 0 0 255
-0.552766 -0.755401 3.54538 0 0 0 128 0 0 255
-0.554208 -0.584407 3.54455 0 0 0 128 0 0 255
-0.557663 -0.200422 3.54257 0 0 0 128 0 0 255
-0.555363 -0.242386 3.54389 0 0 0 128 0 0 255
-0.557379 -0.029396 3.54275 0 0 0 128 0 0 255
-0.556422 -0.0363795 3.54331 0 0 0 128 0 0 255
-0.555871 -0.0133668 3.54364 0 0 0 128 0 0 255
-0.545849 -0.627261 3.54941 0 0 0 128 0 0 255
-0.549197 -0.316283 3.54752 0 0 0 128 0 0 255
-0.548206 -0.326266 3.54811 0 0 0 128 0 0 255
-0.545447 -0.530242 3.54969 0 0 0 128 0 0 255
-0.546445 -0.330235 3.54918 0 0 0 128 0 0 255
-0.543997 -0.511213 3.55058 0 0 0 128 0 0 255
-0.540994 -0.733186 3.5523 0 0 0 128 0 0 255
-0.540724 -0.753184 3.55245 0 0 0 128 0 0 255
-0.536832 -0.727109 3.5549 0 0 0 128 0 0 255
-0.54202 -0.281147 3.55198 0 0 0 128 0 0 255
-0.535551 -0.697081 3.55574 0 0 0 128 0 0 255
-0.53617 -0.589079 3.55544 0 0 0 128 0 0 255
-0.534181 -0.674053 3.55664 0 0 0 128 0 0 255
-0.527163 -0.577909 3.56145 0 0 0 128 0 0 255
-0.526511 -0.443879 3.56213 0 0 0 128 0 0 255
-0.525598 -0.450863 3.56275 0 0 0 128 0 0 255
-0.52993 -0.0098851 3.5605 0 0 0 128 0 0 255
-0.521569 -0.567802 3.5654 0 0 0 128 0 0 255
-0.520757 -0.567786 3.56598 0 0 0 128 0 0 255
-0.516094 -0.554695 3.56942 0 0 0 128 0 0 255
-0.518446 -0.144683 3.56866 0 0 0 128 0 0 255
-0.518189 -0.163681 3.56881 0 0 0 128 0 0 255
-0.512545 -0.463613 3.57235 0 0 0 128 0 0 255
-0.515393 -0.194631 3.57088 0 0 0 128 0 0 255
-0.511552 -0.478596 3.57307 0 0 0 128 0 0 255
-0.510997 -0.519591 3.57339 0 0 0 128 0 0 255
-0.513882 -0.131592 3.57224 0 0 0 128 0 0 255
-0.502588 -0.735457 3.5794 0 0 0 128 0 0 255
-0.508866 -0.156497 3.57619 0 0 0 128 0 0 255
-0.502858 -0.543434 3.57981 0 0 0 128 0 0 255
-0.507482 -0.144467 3.57736 0 0 0 128 0 0 255
-0.505697 -0.276451 3.57838 0 0 0 128 0 0 255
-0.505035 -0.268437 3.57896 0 0 0 128 0 0 255
-0.504927 -0.276436 3.57902 0 0 0 128 0 0 255
-0.500842 -0.578399 3.58136 0 0 0 128 0 0 255
-0.499456 -0.454353 3.58297 0 0 0 128 0 0 255
-0.49795 -0.509331 3.58404 0 0 0 128 0 0 255
-0.497707 -0.527329 3.58418 0 0 0 128 0 0 255
-0.499544 -0.279328 3.58357 0 0 0 128 0 0 255
-0.488034 -0.57714 3.59251 0 0 0 128 0 0 255
-0.488499 -0.488135 3.59249 0 0 0 128 0 0 255
-0.487485 -0.563126 3.59307 0 0 0 128 0 0 255
-0.485972 -0.512087 3.59471 0 0 0 128 0 0 255
-0.484581 -0.507057 3.59604 0 0 0 128 0 0 255
-0.48431 -0.527055 3.5962 0 0 0 128 0 0 255
-0.482732 -0.590032 3.59737 0 0 0 128 0 0 255
-0.483724 -0.463032 3.59708 0 0 0 128 0 0 255
-0.483643 -0.469032 3.59713 0 0 0 128 0 0 255
-0.482785 -0.479015 3.59789 0 0 0 128 0 0 255
-0.47937 -0.571959 3.6007 0 0 0 128 0 0 255
