ply
format ascii 1.0
comment VCGLIB generated
element vertex 104
property float x
property float y
property float z
property float nx
property float ny
property float nz
property uchar red
property uchar green
property uchar blue
property uchar alpha
element face 0
property list uchar int vertex_indices
end_header
0.0323122 0.213326 4.31102 0 0 0 0 128 0 255
0.0368698 0.20004 4.30419 0 0 0 0 128 0 255
0.0161425 0.152424 4.30685 0 0 0 0 128 0 255
0.0521682 0.173995 4.28948 0 0 0 0 128 0 255
0.0258599 0.104739 4.29136 0 0 0 0 128 0 255
0.0682053 0.184134 4.28316 0 0 0 0 128 0 255
0.0575349 0.150562 4.28324 0 0 0 0 128 0 255
0.119375 0.288067 4.27469 0 0 0 0 128 0 255
0.0337392 0.0867617 4.28507 0 0 0 0 128 0 255
0.0509135 0.123921 4.28257 0 0 0 0 128 0 255
0.0383132 0.0857504 4.28305 0 0 0 0 128 0 255
0.0867746 0.185454 4.27552 0 0 0 0 128 0 255
0.0734916 0.143213 4.27601 0 0 0 0 128 0 255
0.0475824 0.0836921 4.27933 0 0 0 0 128 0 255
0.0964543 0.186514 4.27218 0 0 0 0 128 0 255
0.0665591 0.117837 4.27601 0 0 0 0 128 0 255
0.0965839 0.182065 4.27175 0 0 0 0 128 0 255
0.0468255 0.0653776 4.27792 0 0 0 0 128 0 255
0.148936 0.297571 4.26463 0 0 0 0 128 0 255
0.102369 0.188209 4.27041 0 0 0 0 128 0 255
0.142699 0.278468 4.26505 0 0 0 0 128 0 255
0.0960624 0.171332 4.27103 0 0 0 0 128 0 255
0.064645 0.0967648 4.27487 0 0 0 0 128 0 255
0.148576 0.282381 4.26358 0 0 0 0 128 0 255
0.0746714 0.105377 4.27256 0 0 0 0 128 0 255
0.0970971 0.142365 4.26883 0 0 0 0 128 0 255
0.0689726 0.0728901 4.27218 0 0 0 0 128 0 255
0.102501 0.127896 4.26698 0 0 0 0 128 0 255
0.0965224 0.114161 4.26774 0 0 0 0 128 0 255
0.17953 0.302395 4.25703 0 0 0 0 128 0 255
0.150436 0.225703 4.26049 0 0 0 0 128 0 255
0.0959295 0.0980198 4.26742 0 0 0 0 128 0 255
0.161906 0.244645 4.25886 0 0 0 0 128 0 255
0.179948 0.283618 4.25651 0 0 0 0 128 0 255
0.0975432 0.0918355 4.26703 0 0 0 0 128 0 255
0.15744 0.226957 4.25932 0 0 0 0 128 0 255
0.190159 0.292196 4.25503 0 0 0 0 128 0 255
0.173399 0.236273 4.2572 0 0 0 0 128 0 255
0.171633 0.227228 4.25747 0 0 0 0 128 0 255
0.18809 0.262539 4.25539 0 0 0 0 128 0 255
0.103985 0.0693261 4.26616 0 0 0 0 128 0 255
0.176362 0.230602 4.25696 0 0 0 0 128 0 255
0.184988 0.227907 4.2564 0 0 0 0 128 0 255
0.225086 0.315014 4.25143 0 0 0 0 128 0 255
0.134722 0.104918 4.2631 0 0 0 0 128 0 255
0.216674 0.288174 4.25279 0 0 0 0 128 0 255
0.226958 0.296767 4.25217 0 0 0 0 128 0 255
0.223571 0.276464 4.25331 0 0 0 0 128 0 255
0.205435 0.222286 4.25645 0 0 0 0 128 0 255
0.148275 0.0859711 4.26413 0 0 0 0 128 0 255
0.158359 0.106637 4.26302 0 0 0 0 128 0 255
0.157282 0.101664 4.26335 0 0 0 0 128 0 255
0.244369 0.289245 4.2532 0 0 0 0 128 0 255
0.250582 0.298533 4.25284 0 0 0 0 128 0 255
0.220687 0.229856 4.25667 0 0 0 0 128 0 255
0.216701 0.220699 4.25718 0 0 0 0 128 0 255
0.154918 0.0787653 4.2651 0 0 0 0 128 0 255
0.252808 0.298666 4.253 0 0 0 0 128 0 255
0.23977 0.266225 4.25491 0 0 0 0 128 0 255
0.250648 0.288727 4.25375 0 0 0 0 128 0 255
0.176281 0.105472 4.26453 0 0 0 0 128 0 255
0.232311 0.229232 4.25788 0 0 0 0 128 0 255
0.180492 0.110191 4.26453 0 0 0 0 128 0 255
0.206513 0.167493 4.26146 0 0 0 0 128 0 255
0.178324 0.100261 4.26535 0 0 0 0 128 0 255
0.218294 0.189613 4.26051 0 0 0 0 128 0 255
0.216659 0.168612 4.2628 0 0 0 0 128 0 255
0.21626 0.167696 4.26286 0 0 0 0 128 0 255
0.210197 0.146407 4.26459 0 0 0 0 128 0 255
0.183499 0.0752975 4.26935 0 0 0 0 128 0 255
0.20911 0.131693 4.26641 0 0 0 0 128 0 255
0.191571 0.0914024 4.26866 0 0 0 0 128 0 255
0.20532 0.11812 4.2676 0 0 0 0 128 0 255
0.197446 0.0975988 4.26896 0 0 0 0 128 0 255
0.192429 0.0715494 4.27184 0 0 0 0 128 0 255
0.230476 0.154136 4.26774 0 0 0 0 128 0 255
0.240218 0.171712 4.26728 0 0 0 0 128 0 255
0.245655 0.177018 4.26781 0 0 0 0 128 0 255
0.22134 0.121161 4.27092 0 0 0 0 128 0 255
0.210105 0.0858195 4.27405 0 0 0 0 128 0 255
0.257769 0.188206 4.26925 0 0 0 0 128 0 255
0.239832 0.147 4.27154 0 0 0 0 128 0 255
0.285891 0.245731 4.26698 0 0 0 0 128 0 255
0.227037 0.105828 4.27544 0 0 0 0 128 0 255
0.28736 0.239723 4.26864 0 0 0 0 128 0 255
0.267223 0.186465 4.27265 0 0 0 0 128 0 255
0.269276 0.18886 4.27287 0 0 0 0 128 0 255
0.279415 0.205205 4.27304 0 0 0 0 128 0 255
0.261478 0.163999 4.27534 0 0 0 0 128 0 255
0.224009 0.0779229 4.28014 0 0 0 0 128 0 255
0.257174 0.131245 4.28106 0 0 0 0 128 0 255
0.243223 0.0991957 4.28285 0 0 0 0 128 0 255
0.250038 0.112591 4.28251 0 0 0 0 128 0 255
0.239276 0.0878673 4.28389 0 0 0 0 128 0 255
0.273992 0.165363 4.27998 0 0 0 0 128 0 255
0.28366 0.180834 4.28039 0 0 0 0 128 0 255
0.266121 0.140543 4.28264 0 0 0 0 128 0 255
0.304047 0.223203 4.27889 0 0 0 0 128 0 255
0.247144 0.0836053 4.28846 0 0 0 0 128 0 255
0.266344 0.118923 4.28834 0 0 0 0 128 0 255
0.256391 0.0938742 4.29021 0 0 0 0 128 0 255
0.302968 0.168796 4.29356 0 0 0 0 128 0 255
0.264606 0.0723406 4.3011 0 0 0 0 128 0 255
0.278926 0.103172 4.29992 0 0 0 0 128 0 255
