ply
format ascii 1.0
comment VCGLIB generated
element vertex 35
property float x
property float y
property float z
property float nx
property float ny
property float nz
property uchar red
property uchar green
property uchar blue
property uchar alpha
element face 0
property list uchar int vertex_indices
end_header
4.31008 1.79418 3.85213 0 0 0 128 128 128 255
4.29989 1.73029 3.8233 0 0 0 128 128 128 255
4.27497 1.71086 3.79535 0 0 0 128 128 128 255
4.2579 1.72744 3.7859 0 0 0 128 128 128 255
4.21531 1.95011 3.81436 0 0 0 128 128 128 255
4.22484 1.82918 3.78848 0 0 0 128 128 128 255
4.21105 1.92795 3.80521 0 0 0 128 128 128 255
4.21833 1.84599 3.78829 0 0 0 128 128 128 255
4.21478 1.816 3.77767 0 0 0 128 128 128 255
4.20453 1.86988 3.78496 0 0 0 128 128 128 255
4.20126 1.86124 3.78041 0 0 0 128 128 128 255
4.1984 1.81464 3.7661 0 0 0 128 128 128 255
4.18949 1.45541 3.66743 0 0 0 128 128 128 255
4.19391 1.40173 3.65625 0 0 0 128 128 128 255
4.18845 1.39496 3.65152 0 0 0 128 128 128 255
4.15321 1.71614 3.71361 0 0 0 128 128 128 255
4.14163 1.77085 3.72123 0 0 0 128 128 128 255
4.16798 1.47704 3.6613 0 0 0 128 128 128 255
4.14905 1.6147 3.68599 0 0 0 128 128 128 255
4.11478 1.94366 3.75064 0 0 0 128 128 128 255
4.13955 1.65668 3.69166 0 0 0 128 128 128 255
4.13727 1.66156 3.69175 0 0 0 128 128 128 255
4.10745 1.9544 3.74966 0 0 0 128 128 128 255
4.09933 2.02762 3.76381 0 0 0 128 128 128 255
4.13031 1.69572 3.69679 0 0 0 128 128 128 255
4.11003 1.86459 3.7287 0 0 0 128 128 128 255
4.09602 1.99734 3.75473 0 0 0 128 128 128 255
4.09582 1.99929 3.75511 0 0 0 128 128 128 255
4.098 1.96805 3.74846 0 0 0 128 128 128 255
4.09511 1.99734 3.75429 0 0 0 128 128 128 255
4.11151 1.73958 3.6987 0 0 0 128 128 128 255
4.12581 1.53943 3.65635 0 0 0 128 128 128 255
4.06146 2.05175 3.75245 0 0 0 128 128 128 255
4.07807 1.8555 3.71219 0 0 0 128 128 128 255
4.07705 1.85646 3.71199 0 0 0 128 128 128 255
