ply
format ascii 1.0
comment VCGLIB generated
element vertex 134
property float x
property float y
property float z
property float nx
property float ny
property float nz
property uchar red
property uchar green
property uchar blue
property uchar alpha
element face 0
property list uchar int vertex_indices
end_header
3.60095 0.761199 3.9593 0 0 0 128 0 128 255
3.65357 0.814483 3.96432 0 0 0 128 0 128 255
3.59657 0.782004 4.03736 0 0 0 128 0 128 255
3.60569 0.792569 4.03374 0 0 0 128 0 128 255
3.64066 0.817118 3.9958 0 0 0 128 0 128 255
3.60995 0.79912 4.03375 0 0 0 128 0 128 255
3.56049 0.77641 4.10141 0 0 0 128 0 128 255
3.55211 0.771142 4.11132 0 0 0 128 0 128 255
3.56627 0.782269 4.0967 0 0 0 128 0 128 255
3.58807 0.802142 4.07623 0 0 0 128 0 128 255
3.55096 0.778813 4.12008 0 0 0 128 0 128 255
3.55053 0.780136 4.12183 0 0 0 128 0 128 255
3.58017 0.802859 4.08973 0 0 0 128 0 128 255
3.60144 0.851112 4.07966 0 0 0 128 0 128 255
3.6538 0.90048 4.02016 0 0 0 128 0 128 255
3.58343 0.871303 4.10344 0 0 0 128 0 128 255
3.49764 0.825097 4.20421 0 0 0 128 0 128 255
3.61284 0.898644 4.06794 0 0 0 128 0 128 255
3.58172 0.879077 4.10472 0 0 0 128 0 128 255
3.53892 0.853284 4.15516 0 0 0 128 0 128 255
3.48781 0.830167 4.21414 0 0 0 128 0 128 255
3.44711 0.804579 4.26224 0 0 0 128 0 128 255
3.48579 0.833454 4.2156 0 0 0 128 0 128 255
3.5332 0.870153 4.15789 0 0 0 128 0 128 255
3.48472 0.839674 4.21518 0 0 0 128 0 128 255
3.46518 0.82854 4.23796 0 0 0 128 0 128 255
3.39376 0.78595 4.32171 0 0 0 128 0 128 255
3.53345 0.883078 4.15366 0 0 0 128 0 128 255
3.40568 0.80977 4.30205 0 0 0 128 0 128 255
3.45899 0.849165 4.23663 0 0 0 128 0 128 255
3.5016 0.877132 4.18576 0 0 0 128 0 128 255
3.40488 0.818671 4.29903 0 0 0 128 0 128 255
3.45974 0.857882 4.232 0 0 0 128 0 128 255
3.59832 0.961551 4.05943 0 0 0 128 0 128 255
3.47643 0.891983 4.19922 0 0 0 128 0 128 255
3.662 1.01219 3.97766 0 0 0 128 0 128 255
3.39629 0.846304 4.29092 0 0 0 128 0 128 255
3.65962 1.01774 3.97577 0 0 0 128 0 128 255
3.51885 0.937398 4.13627 0 0 0 128 0 128 255
3.55353 0.960366 4.09442 0 0 0 128 0 128 255
3.61861 1.00592 4.01396 0 0 0 128 0 128 255
3.44001 0.899393 4.22042 0 0 0 128 0 128 255
3.57221 0.983663 4.06324 0 0 0 128 0 128 255
3.56742 0.980653 4.0689 0 0 0 128 0 128 255
3.51117 0.945282 4.13538 0 0 0 128 0 128 255
3.54448 0.969665 4.09313 0 0 0 128 0 128 255
3.48442 0.935316 4.16117 0 0 0 128 0 128 255
3.62969 1.02892 3.9875 0 0 0 128 0 128 255
3.49127 0.944153 4.14905 0 0 0 128 0 128 255
3.52152 0.966547 4.11021 0 0 0 128 0 128 255
3.43295 0.910857 4.21489 0 0 0 128 0 128 255
3.39934 0.890845 4.25357 0 0 0 128 0 128 255
3.50507 0.959557 4.1265 0 0 0 128 0 128 255
3.37275 0.883008 4.27639 0 0 0 128 0 128 255
3.62624 1.05002 3.96894 0 0 0 128 0 128 255
3.4526 0.946216 4.16833 0 0 0 128 0 128 255
3.44605 0.94633 4.17133 0 0 0 128 0 128 255
3.52699 1.00037 4.07204 0 0 0 128 0 128 255
3.53355 1.00864 4.05936 0 0 0 128 0 128 255
3.40286 0.931574 4.20753 0 0 0 128 0 128 255
3.46485 0.975561 4.12786 0 0 0 128 0 128 255
3.39962 0.934546 4.20495 0 0 0 128 0 128 255
3.39867 0.935927 4.20347 0 0 0 128 0 128 255
3.33907 0.900414 4.27129 0 0 0 128 0 128 255
3.47839 0.991886 4.10134 0 0 0 128 0 128 255
3.53626 1.02923 4.03161 0 0 0 128 0 128 255
3.33222 0.903793 4.2687 0 0 0 128 0 128 255
3.47349 0.995429 4.09767 0 0 0 128 0 128 255
3.74447 1.18011 3.75503 0 0 0 128 0 128 255
3.33908 0.933538 4.21964 0 0 0 128 0 128 255
3.60498 1.10699 3.8936 0 0 0 128 0 128 255
3.53036 1.07223 3.95619 0 0 0 128 0 128 255
3.29922 0.933271 4.21405 0 0 0 128 0 128 255
3.64872 1.16575 3.76393 0 0 0 128 0 128 255
3.49475 1.0694 3.94434 0 0 0 128 0 128 255
3.47201 1.0551 3.97122 0 0 0 128 0 128 255
3.24399 0.911733 4.24069 0 0 0 128 0 128 255
3.24876 0.916467 4.22886 0 0 0 128 0 128 255
3.59718 1.1417 3.79094 0 0 0 128 0 128 255
3.67415 1.19069 3.69692 0 0 0 128 0 128 255
3.66338 1.18392 3.70965 0 0 0 128 0 128 255
3.45669 1.05453 3.95088 0 0 0 128 0 128 255
3.70334 1.21091 3.65179 0 0 0 128 0 128 255
3.46461 1.06214 3.92487 0 0 0 128 0 128 255
3.66263 1.18684 3.68936 0 0 0 128 0 128 255
3.73796 1.23439 3.59884 0 0 0 128 0 128 255
3.68308 1.20088 3.65476 0 0 0 128 0 128 255
3.66332 1.18987 3.65338 0 0 0 128 0 128 255
3.44972 1.05544 3.89174 0 0 0 128 0 128 255
3.45034 1.05578 3.88962 0 0 0 128 0 128 255
3.45475 1.05809 3.87619 0 0 0 128 0 128 255
3.21037 0.902364 4.14646 0 0 0 128 0 128 255
3.58006 1.13274 3.69817 0 0 0 128 0 128 255
3.19731 0.891555 4.14804 0 0 0 128 0 128 255
3.18814 0.882698 4.14687 0 0 0 128 0 128 255
3.19169 0.882748 4.13576 0 0 0 128 0 128 255
3.54845 1.09199 3.68226 0 0 0 128 0 128 255
3.19317 0.866221 4.09853 0 0 0 128 0 128 255
3.61996 1.11971 3.57655 0 0 0 128 0 128 255
3.56132 1.07438 3.63854 0 0 0 128 0 128 255
3.66625 1.13547 3.51099 0 0 0 128 0 128 255
3.10419 0.780414 4.17412 0 0 0 128 0 128 255
3.10408 0.777806 4.17264 0 0 0 128 0 128 255
3.53199 1.00392 3.65259 0 0 0 128 0 128 255
3.5645 1.02017 3.6138 0 0 0 128 0 128 255
3.59671 1.0351 3.57548 0 0 0 128 0 128 255
3.51812 0.973741 3.66862 0 0 0 128 0 128 255
3.52258 0.968777 3.6641 0 0 0 128 0 128 255
3.71673 1.08183 3.43609 0 0 0 128 0 128 255
3.71204 1.07661 3.44207 0 0 0 128 0 128 255
3.71827 1.04215 3.44739 0 0 0 128 0 128 255
3.5902 0.961623 3.59874 0 0 0 128 0 128 255
3.72764 1.04568 3.4374 0 0 0 128 0 128 255
3.49767 0.890465 3.71447 0 0 0 128 0 128 255
3.20478 0.701587 4.06319 0 0 0 128 0 128 255
3.62512 0.943516 3.58049 0 0 0 128 0 128 255
3.45906 0.826299 3.78622 0 0 0 128 0 128 255
3.23309 0.678461 4.05787 0 0 0 128 0 128 255
3.75243 0.976896 3.46985 0 0 0 128 0 128 255
3.66798 0.909811 3.58468 0 0 0 128 0 128 255
3.25152 0.635527 4.09163 0 0 0 128 0 128 255
3.81182 0.96458 3.46124 0 0 0 128 0 128 255
3.71802 0.89666 3.58609 0 0 0 128 0 128 255
3.71841 0.895179 3.58847 0 0 0 128 0 128 255
3.71823 0.888331 3.60022 0 0 0 128 0 128 255
3.72083 0.886726 3.60298 0 0 0 128 0 128 255
3.72325 0.881263 3.61343 0 0 0 128 0 128 255
3.73263 0.885669 3.60534 0 0 0 128 0 128 255
3.85732 0.963325 3.45948 0 0 0 128 0 128 255
3.80844 0.931864 3.51874 0 0 0 128 0 128 255
3.87387 0.965992 3.45653 0 0 0 128 0 128 255
3.5896 0.787257 3.79249 0 0 0 128 0 128 255
3.82319 0.931482 3.52253 0 0 0 128 0 128 255
3.87112 0.953706 3.48584 0 0 0 128 0 128 255
