ply
format ascii 1.0
comment VCGLIB generated
element vertex 42
property float x
property float y
property float z
property float nx
property float ny
property float nz
property uchar red
property uchar green
property uchar blue
property uchar alpha
element face 0
property list uchar int vertex_indices
end_header
0.139898 0.304855 4.23386 0 0 0 0 128 128 255
0.13945 0.295654 4.23916 0 0 0 0 128 128 255
0.180618 0.294438 4.2374 0 0 0 0 128 128 255
0.190663 0.283793 4.24082 0 0 0 0 128 128 255
0.222908 0.302547 4.22906 0 0 0 0 128 128 255
0.22182 0.288691 4.23433 0 0 0 0 128 128 255
0.212291 0.280903 4.23864 0 0 0 0 128 128 255
0.16534 0.247229 4.25822 0 0 0 0 128 128 255
0.153296 0.236499 4.26395 0 0 0 0 128 128 255
0.162476 0.241649 4.2606 0 0 0 0 128 128 255
0.188983 0.259984 4.24978 0 0 0 0 128 128 255
0.244404 0.293513 4.2287 0 0 0 0 128 128 255
0.219513 0.271477 4.24035 0 0 0 0 128 128 255
0.107479 0.190358 4.28718 0 0 0 0 128 128 255
0.176494 0.235681 4.25969 0 0 0 0 128 128 255
0.188626 0.23196 4.25797 0 0 0 0 128 128 255
0.21828 0.229385 4.25084 0 0 0 0 128 128 255
0.220658 0.222522 4.25132 0 0 0 0 128 128 255
0.24192 0.229942 4.24371 0 0 0 0 128 128 255
0.269203 0.236698 4.23402 0 0 0 0 128 128 255
0.22161 0.167804 4.2552 0 0 0 0 128 128 255
0.22239 0.168343 4.25488 0 0 0 0 128 128 255
0.254278 0.186849 4.24181 0 0 0 0 128 128 255
0.238107 0.173301 4.24837 0 0 0 0 128 128 255
0.235964 0.169461 4.24918 0 0 0 0 128 128 255
0.244026 0.14717 4.24373 0 0 0 0 128 128 255
0.233219 0.137412 4.24785 0 0 0 0 128 128 255
0.180306 0.098535 4.26915 0 0 0 0 128 128 255
0.184297 0.0990273 4.26719 0 0 0 0 128 128 255
0.178925 0.0930502 4.26904 0 0 0 0 128 128 255
0.191049 0.100309 4.26391 0 0 0 0 128 128 255
0.214513 0.114289 4.25396 0 0 0 0 128 128 255
0.25554 0.139307 4.23662 0 0 0 0 128 128 255
0.244078 0.11593 4.23805 0 0 0 0 128 128 255
0.178203 0.0692743 4.26469 0 0 0 0 128 128 255
0.192181 0.0703223 4.25672 0 0 0 0 128 128 255
0.215126 0.0829991 4.24644 0 0 0 0 128 128 255
0.240441 0.0994503 4.23578 0 0 0 0 128 128 255
0.199071 0.0687205 4.25204 0 0 0 0 128 128 255
0.246927 0.0986724 4.2315 0 0 0 0 128 128 255
0.239328 0.088214 4.23287 0 0 0 0 128 128 255
0.228221 0.0764158 4.23594 0 0 0 0 128 128 255
