ply
format ascii 1.0
comment VCGLIB generated
element vertex 227
property float x
property float y
property float z
property float nx
property float ny
property float nz
property uchar red
property uchar green
property uchar blue
property uchar alpha
element face 0
property list uchar int vertex_indices
end_header
-0.458342 -0.347409 3.77842 0 0 0 255 255 255 255
-0.442878 -0.336241 3.78648 0 0 0 255 255 255 255
-0.458392 -0.347326 3.7782 0 0 0 255 255 255 255
-0.458985 -0.35133 3.77754 0 0 0 255 255 255 255
-0.461648 -0.35251 3.77417 0 0 0 255 255 255 255
-0.485555 -0.960433 3.73083 0 0 0 255 255 255 255
-2.62944 -1.55604 5.26631 0 0 0 255 255 255 255
-2.69719 -1.52539 5.19438 0 0 0 255 255 255 255
-2.69571 -1.54317 5.18674 0 0 0 255 255 255 255
-2.6916 -1.54853 5.20827 0 0 0 255 255 255 255
-0.461159 -0.0209189 3.77866 0 0 0 255 255 255 255
-0.617182 0.132282 3.71537 0 0 0 255 255 255 255
-0.782966 1.12501 3.50489 0 0 0 255 255 255 255
-2.51472 0.365295 4.6513 0 0 0 255 255 255 255
-2.3105 1.28839 4.54731 0 0 0 255 255 255 255
-0.472276 -0.0317638 3.76053 0 0 0 255 255 255 255
-0.444401 -0.0218713 3.81275 0 0 0 255 255 255 255
-0.46182 -0.0342184 3.75548 0 0 0 255 255 255 255
-2.44347 1.23854 4.59723 0 0 0 255 255 255 255
-2.35365 1.20839 4.45329 0 0 0 255 255 255 255
-0.463947 1.17399e-06 3.84794 0 0 0 255 255 255 255
-0.561736 0.101914 3.62976 0 0 0 255 255 255 255
-0.466837 0.112786 3.83676 0 0 0 255 255 255 255
-0.468706 0.0956809 3.84469 0 0 0 255 255 255 255
-2.88944 0.314453 5.2774 0 0 0 255 255 255 255
-2.81459 0.332439 5.14175 0 0 0 255 255 255 255
-2.59754 0.99829 4.72116 0 0 0 255 255 255 255
-2.72849 0.371589 5.59813 0 0 0 255 255 255 255
-2.89655 0.313293 5.36528 0 0 0 255 255 255 255
-2.84483 0.287555 5.19878 0 0 0 255 255 255 255
-2.88473 0.303696 5.30124 0 0 0 255 255 255 255
-2.60019 1.00512 4.7236 0 0 0 255 255 255 255
-2.58971 0.984938 4.73829 0 0 0 255 255 255 255
-2.90579 0.403732 5.8837 0 0 0 255 255 255 255
-3.01714 0.384955 5.69022 0 0 0 255 255 255 255
-2.62637 0.902285 4.91089 0 0 0 255 255 255 255
-2.59064 0.979563 4.72786 0 0 0 255 255 255 255
-2.56786 0.726977 4.80599 0 0 0 255 255 255 255
-2.92811 0.37287 5.59717 0 0 0 255 255 255 255
-2.85018 0.289031 5.21048 0 0 0 255 255 255 255
-2.89685 0.308336 5.36361 0 0 0 255 255 255 255
-2.54405 1.26319 4.97045 0 0 0 255 255 255 255
-2.68688 1.23886 5.21034 0 0 0 255 255 255 255
-2.5363 1.23742 5.11476 0 0 0 255 255 255 255
-2.55911 1.26147 4.94752 0 0 0 255 255 255 255
-2.50968 1.22061 4.74152 0 0 0 255 255 255 255
-2.68744 1.23869 5.21117 0 0 0 255 255 255 255
-2.59762 1.097 4.74331 0 0 0 255 255 255 255
-2.5706 1.22325 4.88466 0 0 0 255 255 255 255
-2.59852 1.06177 4.7781 0 0 0 255 255 255 255
-2.52576 1.27901 4.84069 0 0 0 255 255 255 255
-2.6065 1.0432 4.72245 0 0 0 255 255 255 255
-2.53883 1.28159 4.91147 0 0 0 255 255 255 255
-2.53495 1.28719 4.9137 0 0 0 255 255 255 255
-2.66838 1.1646 5.2396 0 0 0 255 255 255 255
-2.70575 1.11707 5.26996 0 0 0 255 255 255 255
-2.50325 1.15511 4.73493 0 0 0 255 255 255 255
-2.6517 1.27728 5.12544 0 0 0 255 255 255 255
-2.6022 1.02582 4.73964 0 0 0 255 255 255 255
1.57689 -1.74428 5.82606 0 0 0 255 255 255 255
1.62418 -1.60924 5.80391 0 0 0 255 255 255 255
2.03303 -1.66353 5.8406 0 0 0 255 255 255 255
2.03284 -1.5688 5.8435 0 0 0 255 255 255 255
2.03186 -1.43207 5.83985 0 0 0 255 255 255 255
1.95345 -1.74155 5.69148 0 0 0 255 255 255 255
1.54354 -1.74237 5.7446 0 0 0 255 255 255 255
1.95312 -1.73096 5.67604 0 0 0 255 255 255 255
1.78712 -1.62828 5.81813 0 0 0 255 255 255 255
1.8676 -1.73125 5.74592 0 0 0 255 255 255 255
1.98324 -1.85281 5.74311 0 0 0 255 255 255 255
2.02782 -1.34318 5.83045 0 0 0 255 255 255 255
2.03473 -1.44528 5.84428 0 0 0 255 255 255 255
2.0363 -1.5789 5.84519 0 0 0 255 255 255 255
2.03293 -1.56411 5.83843 0 0 0 255 255 255 255
1.64897 -1.63501 5.79429 0 0 0 255 255 255 255
2.03188 -1.65978 5.83593 0 0 0 255 255 255 255
2.03327 -1.3558 5.8362 0 0 0 255 255 255 255
1.94978 -1.7639 5.68474 0 0 0 255 255 255 255
-0.437337 -0.0743527 3.78956 0 0 0 255 255 255 255
-0.419485 -0.0056394 3.82166 0 0 0 255 255 255 255
-0.431523 -0.0126908 3.82019 0 0 0 255 255 255 255
-0.437131 -0.0686228 3.79049 0 0 0 255 255 255 255
-0.439363 -0.0786873 3.7896 0 0 0 255 255 255 255
0.134182 0.102943 4.19827 0 0 0 255 255 255 255
0.322612 0.0844425 4.298 0 0 0 255 255 255 255
0.285633 0.0994527 4.29367 0 0 0 255 255 255 255
0.293597 0.135919 4.30633 0 0 0 255 255 255 255
0.297806 0.0688151 4.29834 0 0 0 255 255 255 255
0.294575 0.0870523 4.29984 0 0 0 255 255 255 255
0.295841 0.0807931 4.29938 0 0 0 255 255 255 255
0.292351 0.174521 4.30751 0 0 0 255 255 255 255
0.318731 0.156199 4.29827 0 0 0 255 255 255 255
0.326352 0.181914 4.29773 0 0 0 255 255 255 255
0.310576 0.187213 4.29874 0 0 0 255 255 255 255
0.289091 0.207446 4.29778 0 0 0 255 255 255 255
0.355569 0.33714 4.30177 0 0 0 255 255 255 255
0.314295 0.258139 4.29113 0 0 0 255 255 255 255
0.357991 0.304416 4.30205 0 0 0 255 255 255 255
0.297535 0.228224 4.30101 0 0 0 255 255 255 255
0.33867 0.356171 4.28683 0 0 0 255 255 255 255
0.318581 0.333577 4.2849 0 0 0 255 255 255 255
0.304911 0.24602 4.31261 0 0 0 255 255 255 255
0.304863 0.244266 4.31274 0 0 0 255 255 255 255
0.353284 0.314167 4.30201 0 0 0 255 255 255 255
0.343774 0.369246 4.29964 0 0 0 255 255 255 255
0.339032 0.348797 4.29457 0 0 0 255 255 255 255
0.839202 0.924816 3.85442 0 0 0 255 255 255 255
0.838519 0.924923 3.85452 0 0 0 255 255 255 255
0.827623 0.945364 3.8251 0 0 0 255 255 255 255
0.460859 0.897446 4.27624 0 0 0 255 255 255 255
0.443416 1.02274 4.23367 0 0 0 255 255 255 255
0.453062 0.995372 4.30117 0 0 0 255 255 255 255
0.463602 0.98282 4.32961 0 0 0 255 255 255 255
0.446173 0.906296 4.26693 0 0 0 255 255 255 255
0.464012 1.00548 4.44521 0 0 0 255 255 255 255
0.496668 0.995052 4.38536 0 0 0 255 255 255 255
0.4558 1.01096 4.41518 0 0 0 255 255 255 255
0.52457 0.929743 4.50772 0 0 0 255 255 255 255
0.253136 1.32598 4.24928 0 0 0 255 255 255 255
0.504562 1.06146 4.44431 0 0 0 255 255 255 255
0.413959 1.3063 4.29151 0 0 0 255 255 255 255
0.42357 1.29771 4.36157 0 0 0 255 255 255 255
0.46614 1.03328 4.37056 0 0 0 255 255 255 255
0.269681 1.32654 4.2629 0 0 0 255 255 255 255
0.517981 1.0486 4.66022 0 0 0 255 255 255 255
0.269874 1.18094 4.12778 0 0 0 255 255 255 255
0.41393 1.30715 4.29145 0 0 0 255 255 255 255
0.231653 1.18198 4.1086 0 0 0 255 255 255 255
0.514326 1.04875 4.64023 0 0 0 255 255 255 255
0.271672 1.17426 4.11356 0 0 0 255 255 255 255
1.06911 0.675401 3.34731 0 0 0 255 255 255 255
1.03956 0.756407 3.21641 0 0 0 255 255 255 255
1.25506 1.02188 3.27535 0 0 0 255 255 255 255
1.33903 1.00563 3.21927 0 0 0 255 255 255 255
1.15383 0.643027 3.48021 0 0 0 255 255 255 255
1.15032 0.681605 3.49387 0 0 0 255 255 255 255
1.15412 0.685577 3.52442 0 0 0 255 255 255 255
1.16069 0.66401 3.51276 0 0 0 255 255 255 255
1.14299 0.685203 3.54919 0 0 0 255 255 255 255
0.962849 0.751412 3.68865 0 0 0 255 255 255 255
0.851966 0.959651 3.59682 0 0 0 255 255 255 255
0.85567 0.94902 3.59 0 0 0 255 255 255 255
0.95538 0.909736 3.60949 0 0 0 255 255 255 255
0.934773 0.882905 3.63075 0 0 0 255 255 255 255
1.1391 0.724509 3.51899 0 0 0 255 255 255 255
1.10354 0.833162 3.46998 0 0 0 255 255 255 255
1.14041 0.726293 3.50991 0 0 0 255 255 255 255
1.13324 0.703095 3.54413 0 0 0 255 255 255 255
1.09309 0.964451 3.43161 0 0 0 255 255 255 255
1.11097 0.87875 3.45993 0 0 0 255 255 255 255
1.14426 0.943072 3.40785 0 0 0 255 255 255 255
0.8636 0.857793 3.86185 0 0 0 255 255 255 255
0.860298 0.875308 3.8835 0 0 0 255 255 255 255
0.857131 0.851429 3.8948 0 0 0 255 255 255 255
0.858922 0.859625 3.87832 0 0 0 255 255 255 255
0.858667 0.888542 3.96287 0 0 0 255 255 255 255
0.874384 0.868644 4.02368 0 0 0 255 255 255 255
0.872488 0.869957 4.01005 0 0 0 255 255 255 255
1.21476 0.60151 3.51148 0 0 0 255 255 255 255
1.19161 0.682235 3.53185 0 0 0 255 255 255 255
1.18638 0.620184 3.5104 0 0 0 255 255 255 255
1.23694 0.678293 3.5308 0 0 0 255 255 255 255
1.20538 0.595255 3.50798 0 0 0 255 255 255 255
1.2544 0.624488 3.61689 0 0 0 255 255 255 255
1.26021 0.663712 3.66512 0 0 0 255 255 255 255
1.25843 0.66167 3.6628 0 0 0 255 255 255 255
1.20911 0.584427 3.63466 0 0 0 255 255 255 255
1.2032 0.682212 3.55331 0 0 0 255 255 255 255
1.26015 0.649015 3.6511 0 0 0 255 255 255 255
1.2631 0.695585 3.65694 0 0 0 255 255 255 255
1.35395 0.571508 3.77852 0 0 0 255 255 255 255
1.24208 0.726811 3.52527 0 0 0 255 255 255 255
1.20407 0.809809 3.45455 0 0 0 255 255 255 255
1.25527 0.759998 3.48864 0 0 0 255 255 255 255
1.24092 0.73104 3.51138 0 0 0 255 255 255 255
1.24561 0.731925 3.51926 0 0 0 255 255 255 255
1.1892 0.77269 3.45486 0 0 0 255 255 255 255
1.24554 0.748116 3.49775 0 0 0 255 255 255 255
1.33292 0.743824 3.49625 0 0 0 255 255 255 255
0.88224 0.864494 4.0679 0 0 0 255 255 255 255
1.2693 1.04143 3.26986 0 0 0 255 255 255 255
1.29967 1.09558 3.25538 0 0 0 255 255 255 255
1.27162 1.08861 3.25444 0 0 0 255 255 255 255
0.960184 1.14668 3.57833 0 0 0 255 255 255 255
0.907717 1.13755 3.83237 0 0 0 255 255 255 255
1.0309 1.0597 3.40117 0 0 0 255 255 255 255
0.888295 1.09235 3.67916 0 0 0 255 255 255 255
0.858714 1.09505 3.70652 0 0 0 255 255 255 255
0.862759 1.09846 3.72212 0 0 0 255 255 255 255
0.928399 1.13692 3.64279 0 0 0 255 255 255 255
0.89601 1.0964 3.6869 0 0 0 255 255 255 255
0.950043 1.08966 3.51667 0 0 0 255 255 255 255
0.941548 1.09155 3.46679 0 0 0 255 255 255 255
0.71216 1.28829 5.66347 0 0 0 255 255 255 255
0.771642 1.0935 4.99732 0 0 0 255 255 255 255
-0.0946262 1.21498 5.01458 0 0 0 255 255 255 255
0.739727 1.30041 5.69247 0 0 0 255 255 255 255
0.767767 1.11481 4.86562 0 0 0 255 255 255 255
0.768086 1.11341 4.87493 0 0 0 255 255 255 255
0.770074 1.10694 5.05646 0 0 0 255 255 255 255
0.809652 1.15886 5.33235 0 0 0 255 255 255 255
0.829995 1.22134 5.61672 0 0 0 255 255 255 255
0.759408 1.14842 5.26135 0 0 0 255 255 255 255
0.730398 1.29715 5.69489 0 0 0 255 255 255 255
0.715831 1.29372 5.67684 0 0 0 255 255 255 255
0.468546 1.11452 4.77564 0 0 0 255 255 255 255
0.46826 1.08918 4.86494 0 0 0 255 255 255 255
0.71009 1.281 5.65471 0 0 0 255 255 255 255
2.0424 0.784019 5.8928 0 0 0 255 255 255 255
2.07152 0.693358 5.94741 0 0 0 255 255 255 255
2.06942 0.703207 5.9478 0 0 0 255 255 255 255
2.04195 0.766399 5.89425 0 0 0 255 255 255 255
1.94465 0.795535 5.58097 0 0 0 255 255 255 255
2.06964 0.711332 5.9482 0 0 0 255 255 255 255
2.13049 0.718854 6.11759 0 0 0 255 255 255 255
2.12915 0.815459 6.10818 0 0 0 255 255 255 255
2.13411 0.710571 6.11987 0 0 0 255 255 255 255
2.13348 0.766738 6.11187 0 0 0 255 255 255 255
1.0181 1.25637 5.62855 0 0 0 255 255 255 255
0.99868 1.23075 5.4797 0 0 0 255 255 255 255
0.888864 1.24314 5.70393 0 0 0 255 255 255 255
0.98378 1.2466 5.51547 0 0 0 255 255 255 255
1.02174 1.24947 5.6196 0 0 0 255 255 255 255
1.03138 1.21888 5.38715 0 0 0 255 255 255 255
0.866806 1.24859 5.49183 0 0 0 255 255 255 255
1.02328 1.2224 5.42786 0 0 0 255 255 255 255
0.880256 1.23797 5.42665 0 0 0 255 255 255 255
