ply
format ascii 1.0
comment VCGLIB generated
element vertex 61
property float x
property float y
property float z
property float nx
property float ny
property float nz
property uchar red
property uchar green
property uchar blue
property uchar alpha
element face 0
property list uchar int vertex_indices
end_header
2.40244 -0.211318 3.89066 0 0 0 255 255 0 255
2.40367 -0.199987 3.888 0 0 0 255 255 0 255
2.40887 -0.185056 3.88484 0 0 0 255 255 0 255
2.41893 -0.164766 3.88082 0 0 0 255 255 0 255
2.40358 -0.191294 3.88589 0 0 0 255 255 0 255
2.38852 -0.201698 3.88723 0 0 0 255 255 0 255
2.37381 -0.204626 3.88714 0 0 0 255 255 0 255
2.34207 -0.0507249 3.86361 0 0 0 255 255 0 255
2.3021 0.00178283 3.86841 0 0 0 255 255 0 255
2.22572 -0.106571 3.8971 0 0 0 255 255 0 255
2.13508 -0.204188 3.93286 0 0 0 255 255 0 255
2.12502 -0.21195 3.93716 0 0 0 255 255 0 255
2.15483 -0.149728 3.9253 0 0 0 255 255 0 255
2.11157 -0.224538 3.94296 0 0 0 255 255 0 255
2.12048 -0.192139 3.93995 0 0 0 255 255 0 255
2.11097 -0.199028 3.94432 0 0 0 255 255 0 255
2.09982 -0.199171 3.95005 0 0 0 255 255 0 255
2.1125 -0.173589 3.94498 0 0 0 255 255 0 255
2.13316 -0.129895 3.93686 0 0 0 255 255 0 255
2.10957 -0.161447 3.94742 0 0 0 255 255 0 255
2.09744 -0.183917 3.95242 0 0 0 255 255 0 255
2.09505 -0.184749 3.95369 0 0 0 255 255 0 255
2.11179 -0.148997 3.94716 0 0 0 255 255 0 255
2.11497 -0.140592 3.94605 0 0 0 255 255 0 255
2.12715 -0.110085 3.94169 0 0 0 255 255 0 255
2.19462 0.0279981 3.9149 0 0 0 255 255 0 255
2.15595 -0.046057 3.9307 0 0 0 255 255 0 255
2.09407 -0.161065 3.95635 0 0 0 255 255 0 255
2.13952 -0.0635197 3.93877 0 0 0 255 255 0 255
2.10407 -0.12338 3.95417 0 0 0 255 255 0 255
2.09767 -0.128592 3.9576 0 0 0 255 255 0 255
2.1344 -0.05449 3.94292 0 0 0 255 255 0 255
2.12449 -0.0725549 3.94711 0 0 0 255 255 0 255
2.0866 -0.147079 3.96247 0 0 0 255 255 0 255
2.11911 -0.0795739 3.94971 0 0 0 255 255 0 255
2.12367 -0.0627384 3.94883 0 0 0 255 255 0 255
2.10065 -0.10727 3.95826 0 0 0 255 255 0 255
2.11639 -0.0755118 3.95197 0 0 0 255 255 0 255
2.1329 -0.0384256 3.94587 0 0 0 255 255 0 255
2.20773 0.11821 3.91671 0 0 0 255 255 0 255
2.21086 0.130168 3.91623 0 0 0 255 255 0 255
2.11631 -0.0568205 3.95455 0 0 0 255 255 0 255
2.20945 0.131081 3.91732 0 0 0 255 255 0 255
2.20805 0.131993 3.91842 0 0 0 255 255 0 255
2.10108 -0.0819176 3.96144 0 0 0 255 255 0 255
2.11194 -0.0563063 3.95765 0 0 0 255 255 0 255
2.11404 -0.0483396 3.95737 0 0 0 255 255 0 255
2.1463 0.0369187 3.94773 0 0 0 255 255 0 255
2.13199 0.0171165 3.95502 0 0 0 255 255 0 255
2.09502 -0.055654 3.97012 0 0 0 255 255 0 255
2.12779 0.0423588 3.96322 0 0 0 255 255 0 255
2.09855 -0.00968432 3.97638 0 0 0 255 255 0 255
2.06768 -0.0582122 3.99179 0 0 0 255 255 0 255
2.10635 0.0383317 3.9808 0 0 0 255 255 0 255
2.09324 0.120877 4.02135 0 0 0 255 255 0 255
2.10121 0.162744 4.02945 0 0 0 255 255 0 255
2.07834 0.125741 4.04293 0 0 0 255 255 0 255
2.0783 0.132057 4.04611 0 0 0 255 255 0 255
2.0888 0.158271 4.04448 0 0 0 255 255 0 255
2.06956 0.120714 4.05282 0 0 0 255 255 0 255
2.08402 0.153598 4.04899 0 0 0 255 255 0 255
