ply
format ascii 1.0
comment VCGLIB generated
element vertex 10
property float x
property float y
property float z
property float nx
property float ny
property float nz
property uchar red
property uchar green
property uchar blue
property uchar alpha
element face 0
property list uchar int vertex_indices
end_header
-0.815364 0.962949 3.97597 0 0 0 0 255 255 255
-0.655418 0.968607 3.99967 0 0 0 0 255 255 255
-0.966445 0.969204 4.02533 0 0 0 0 255 255 255
-0.776481 0.97345 4.03817 0 0 0 0 255 255 255
-0.755493 0.974648 4.04409 0 0 0 0 255 255 255
-0.580583 0.98351 4.08654 0 0 0 0 255 255 255
-0.628611 0.985676 4.10332 0 0 0 0 255 255 255
-0.795635 0.9868 4.12208 0 0 0 0 255 255 255
-0.582709 0.994501 4.15465 0 0 0 0 255 255 255
-0.878735 0.99511 4.17933 0 0 0 0 255 255 255
