ply
format ascii 1.0
comment VCGLIB generated
element vertex 6
property float x
property float y
property float z
property float nx
property float ny
property float nz
property uchar red
property uchar green
property uchar blue
property uchar alpha
element face 0
property list uchar int vertex_indices
end_header
1.25186 0.685376 3.48013 0 0 0 0 128 128 255
1.2478 0.678999 3.48735 0 0 0 0 128 128 255
1.20592 0.64481 3.53539 0 0 0 0 128 128 255
1.14792 0.771733 3.40721 0 0 0 0 128 128 255
1.06356 0.957922 3.37232 0 0 0 0 128 128 255
1.05987 0.95609 3.374 0 0 0 0 128 128 255
