ply
format ascii 1.0
comment VCGLIB generated
element vertex 403
property float x
property float y
property float z
property float nx
property float ny
property float nz
property uchar red
property uchar green
property uchar blue
property uchar alpha
element face 0
property list uchar int vertex_indices
end_header
-2.95617 -0.895203 4.4176 0 0 0 255 255 255 255
-2.95949 -0.869215 4.41279 0 0 0 255 255 255 255
-2.94022 -0.917318 4.43005 0 0 0 255 255 255 255
-3.00777 -0.952475 4.40593 0 0 0 255 255 255 255
-3.01169 -1.04149 4.43664 0 0 0 255 255 255 255
-0.870349 -1.16763 3.57664 0 0 0 255 255 255 255
-0.888257 -1.16338 3.58493 0 0 0 255 255 255 255
-0.863291 -1.15849 3.55507 0 0 0 255 255 255 255
-1.27266 -1.89849 6.31257 0 0 0 255 255 255 255
-2.74143 -1.54716 5.26108 0 0 0 255 255 255 255
-0.409976 -1.85321 6.17106 0 0 0 255 255 255 255
-0.36637 -1.87605 6.2109 0 0 0 255 255 255 255
-2.67291 -1.57832 5.33419 0 0 0 255 255 255 255
-2.74 -1.56522 5.25344 0 0 0 255 255 255 255
-2.73604 -1.57076 5.27558 0 0 0 255 255 255 255
-2.93959 -0.541461 4.36402 0 0 0 255 255 255 255
-2.95296 -0.665193 4.38388 0 0 0 255 255 255 255
-2.94739 -0.422801 4.35805 0 0 0 255 255 255 255
-2.95062 -0.665573 4.38285 0 0 0 255 255 255 255
-2.96771 -0.57848 4.36718 0 0 0 255 255 255 255
-2.96757 -0.577107 4.36729 0 0 0 255 255 255 255
-2.95189 -0.416349 4.35514 0 0 0 255 255 255 255
-3.00222 -0.784155 4.37621 0 0 0 255 255 255 255
-2.99019 -0.786774 4.39 0 0 0 255 255 255 255
-2.96375 -0.583829 4.37171 0 0 0 255 255 255 255
-2.91377 -0.504041 4.37886 0 0 0 255 255 255 255
-2.91646 -0.502792 4.37776 0 0 0 255 255 255 255
-2.70132 0.520597 4.23509 0 0 0 255 255 255 255
-2.60101 0.579541 4.24469 0 0 0 255 255 255 255
-2.53079 0.548104 4.24028 0 0 0 255 255 255 255
-2.70504 0.533113 4.23695 0 0 0 255 255 255 255
-2.57768 0.575608 4.24109 0 0 0 255 255 255 255
-2.52554 0.551628 4.24398 0 0 0 255 255 255 255
-2.58013 0.577622 4.24243 0 0 0 255 255 255 255
-2.59431 0.57229 4.24805 0 0 0 255 255 255 255
-2.53712 0.367888 4.68331 0 0 0 255 255 255 255
-2.39387 0.806889 4.47682 0 0 0 255 255 255 255
-2.69268 0.676055 4.19577 0 0 0 255 255 255 255
-2.58623 0.657379 4.24208 0 0 0 255 255 255 255
-2.64532 0.671478 4.20939 0 0 0 255 255 255 255
-2.58005 0.637769 4.24393 0 0 0 255 255 255 255
-2.60382 0.663104 4.23235 0 0 0 255 255 255 255
-2.58916 0.65058 4.23764 0 0 0 255 255 255 255
-2.5799 0.64657 4.24475 0 0 0 255 255 255 255
-2.68241 0.675102 4.19541 0 0 0 255 255 255 255
-2.69956 0.676019 4.19582 0 0 0 255 255 255 255
-2.6449 0.67127 4.21177 0 0 0 255 255 255 255
-2.62152 0.61948 4.22013 0 0 0 255 255 255 255
-2.65848 0.631364 4.20701 0 0 0 255 255 255 255
-2.67753 0.684697 4.19174 0 0 0 255 255 255 255
-2.39754 0.820721 4.47153 0 0 0 255 255 255 255
-2.62445 1.00712 4.76021 0 0 0 255 255 255 255
-2.6272 1.01405 4.7628 0 0 0 255 255 255 255
-2.62949 1.03501 4.7794 0 0 0 255 255 255 255
-2.40556 0.712779 4.50897 0 0 0 255 255 255 255
-2.39785 0.731645 4.5101 0 0 0 255 255 255 255
-2.59386 0.732994 4.84428 0 0 0 255 255 255 255
-2.49636 0.9979 4.62517 0 0 0 255 255 255 255
-2.49965 0.975344 4.61996 0 0 0 255 255 255 255
-2.51406 0.982934 4.60891 0 0 0 255 255 255 255
-2.51548 0.953003 4.60167 0 0 0 255 255 255 255
-2.48244 1.01336 4.63816 0 0 0 255 255 255 255
-2.46225 0.82991 4.66605 0 0 0 255 255 255 255
-2.48807 1.01433 4.63274 0 0 0 255 255 255 255
-2.50729 1.0155 4.61606 0 0 0 255 255 255 255
-2.48776 1.00473 4.63278 0 0 0 255 255 255 255
-2.5063 1.01771 4.61686 0 0 0 255 255 255 255
-2.49978 0.969785 4.6192 0 0 0 255 255 255 255
-2.49108 0.954507 4.62281 0 0 0 255 255 255 255
-2.48128 1.01913 4.63962 0 0 0 255 255 255 255
-2.51608 1.01838 4.60139 0 0 0 255 255 255 255
-2.51071 0.931493 4.59058 0 0 0 255 255 255 255
-2.49973 0.992256 4.62119 0 0 0 255 255 255 255
-2.54796 0.887717 4.8491 0 0 0 255 255 255 255
-2.61736 0.988169 4.76675 0 0 0 255 255 255 255
-2.61652 0.993618 4.77742 0 0 0 255 255 255 255
-2.55847 0.896847 4.86611 0 0 0 255 255 255 255
-2.06857 0.98727 4.62612 0 0 0 255 255 255 255
-1.62527 0.776001 4.14341 0 0 0 255 255 255 255
-2.3913 0.787129 4.48226 0 0 0 255 255 255 255
-2.06586 0.988366 4.64362 0 0 0 255 255 255 255
-2.39539 1.25913 4.01444 0 0 0 255 255 255 255
-2.45372 1.25494 4.8634 0 0 0 255 255 255 255
-2.52744 1.22698 4.76727 0 0 0 255 255 255 255
-2.59923 1.235 4.92847 0 0 0 255 255 255 255
-2.62515 1.10699 4.78363 0 0 0 255 255 255 255
-2.4775 1.14676 4.7428 0 0 0 255 255 255 255
-2.48364 1.26423 4.60923 0 0 0 255 255 255 255
-2.54456 1.28603 4.8684 0 0 0 255 255 255 255
-2.45865 1.2442 4.61897 0 0 0 255 255 255 255
-2.48645 1.06568 4.63044 0 0 0 255 255 255 255
-2.52087 1.16107 4.76046 0 0 0 255 255 255 255
-2.49269 1.14418 4.78309 0 0 0 255 255 255 255
-2.49423 1.04522 4.62751 0 0 0 255 255 255 255
-2.63381 1.05258 4.76207 0 0 0 255 255 255 255
-2.62622 1.07142 4.81888 0 0 0 255 255 255 255
-2.20771 1.26579 4.30508 0 0 0 255 255 255 255
-2.3246 1.28864 4.14002 0 0 0 255 255 255 255
-2.33001 1.20803 4.51541 0 0 0 255 255 255 255
-2.37376 1.21798 4.48386 0 0 0 255 255 255 255
-2.33381 1.21135 4.49486 0 0 0 255 255 255 255
-2.20834 1.25635 4.29947 0 0 0 255 255 255 255
-2.35397 1.21795 4.48832 0 0 0 255 255 255 255
-2.34365 1.21306 4.48439 0 0 0 255 255 255 255
-2.25865 1.28712 4.25146 0 0 0 255 255 255 255
-2.31816 1.29566 4.1922 0 0 0 255 255 255 255
-2.23256 1.25611 4.28436 0 0 0 255 255 255 255
-2.29912 1.29767 4.21643 0 0 0 255 255 255 255
-2.3228 1.29334 4.56539 0 0 0 255 255 255 255
-2.20928 1.27299 4.30132 0 0 0 255 255 255 255
-2.24472 1.27998 4.27201 0 0 0 255 255 255 255
-2.31106 1.22465 4.50731 0 0 0 255 255 255 255
-2.31166 1.22321 4.50239 0 0 0 255 255 255 255
-1.149 -0.0919025 3.78615 0 0 0 255 255 255 255
-1.14681 -0.108014 3.78153 0 0 0 255 255 255 255
-0.62712 0.116228 3.70811 0 0 0 255 255 255 255
-1.14711 -0.104325 3.78216 0 0 0 255 255 255 255
-0.624454 0.115864 3.7072 0 0 0 255 255 255 255
-1.31218 0.304071 3.94823 0 0 0 255 255 255 255
-0.803722 0.124329 3.62485 0 0 0 255 255 255 255
-0.616986 0.132778 3.70809 0 0 0 255 255 255 255
-1.41388 0.307729 4.03968 0 0 0 255 255 255 255
-0.50946 0.11209 3.45473 0 0 0 255 255 255 255
0.048665 0.0972627 4.3386 0 0 0 255 255 255 255
0.0626236 0.0608886 4.33021 0 0 0 255 255 255 255
0.0741654 0.1079 4.24784 0 0 0 255 255 255 255
0.054998 0.0802501 4.33736 0 0 0 255 255 255 255
0.0576131 0.079679 4.33403 0 0 0 255 255 255 255
0.0786532 0.0934261 4.32312 0 0 0 255 255 255 255
0.0636307 0.0797266 4.32478 0 0 0 255 255 255 255
0.166173 0.107422 4.18748 0 0 0 255 255 255 255
0.206437 0.0801036 4.19271 0 0 0 255 255 255 255
0.155156 0.11172 4.20998 0 0 0 255 255 255 255
0.184644 0.0790546 4.16771 0 0 0 255 255 255 255
0.257629 0.108489 4.26555 0 0 0 255 255 255 255
0.257728 0.0780796 4.26487 0 0 0 255 255 255 255
0.265248 0.0894904 4.27455 0 0 0 255 255 255 255
0.274659 0.0668017 4.28639 0 0 0 255 255 255 255
-0.190465 0.46929 4.11738 0 0 0 255 255 255 255
-0.103116 0.973484 4.28536 0 0 0 255 255 255 255
-0.108781 0.973979 4.27494 0 0 0 255 255 255 255
-0.0902029 0.956404 4.32924 0 0 0 255 255 255 255
-0.250969 0.618856 4.05512 0 0 0 255 255 255 255
-0.111108 0.897595 4.27366 0 0 0 255 255 255 255
0.141495 0.315121 4.21066 0 0 0 255 255 255 255
0.139864 0.285004 4.23618 0 0 0 255 255 255 255
0.0487233 0.207967 4.33081 0 0 0 255 255 255 255
0.0326372 0.253513 4.36724 0 0 0 255 255 255 255
0.0346294 0.24667 4.35876 0 0 0 255 255 255 255
0.0832409 0.186742 4.26654 0 0 0 255 255 255 255
0.103053 0.187732 4.27607 0 0 0 255 255 255 255
0.0475793 0.218574 4.34346 0 0 0 255 255 255 255
0.0428921 0.224958 4.35467 0 0 0 255 255 255 255
0.217049 0.166839 4.2569 0 0 0 255 255 255 255
0.217963 0.16745 4.25638 0 0 0 255 255 255 255
0.302837 0.244028 4.33292 0 0 0 255 255 255 255
0.283995 0.241373 4.2808 0 0 0 255 255 255 255
-0.764801 1.11152 3.52081 0 0 0 255 255 255 255
-0.805247 1.2222 3.55649 0 0 0 255 255 255 255
-0.618172 1.05539 3.61447 0 0 0 255 255 255 255
-0.655315 1.0646 3.61178 0 0 0 255 255 255 255
0.252988 1.32612 4.25266 0 0 0 255 255 255 255
0.258354 1.32711 4.27185 0 0 0 255 255 255 255
-0.17306 1.2423 4.10311 0 0 0 255 255 255 255
0.332058 1.20693 4.19657 0 0 0 255 255 255 255
0.268327 1.3221 4.28009 0 0 0 255 255 255 255
0.269681 1.32654 4.2629 0 0 0 255 255 255 255
-0.740523 1.08196 3.54981 0 0 0 255 255 255 255
-0.735307 1.08041 3.55123 0 0 0 255 255 255 255
-0.783319 1.13987 3.53103 0 0 0 255 255 255 255
-0.810285 1.2138 3.5498 0 0 0 255 255 255 255
-0.782966 1.12501 3.50489 0 0 0 255 255 255 255
-2.92597 0.317136 5.33038 0 0 0 255 255 255 255
-2.92134 0.306251 5.35466 0 0 0 255 255 255 255
-2.88492 0.291474 5.26079 0 0 0 255 255 255 255
-2.87931 0.289971 5.24867 0 0 0 255 255 255 255
-2.93581 0.303541 5.2802 0 0 0 255 255 255 255
-2.93229 0.315494 5.41768 0 0 0 255 255 255 255
-3.31674 0.40541 5.58704 0 0 0 255 255 255 255
-2.87147 0.507324 5.50307 0 0 0 255 255 255 255
-3.30587 0.403239 5.56752 0 0 0 255 255 255 255
-3.06175 0.388887 5.75799 0 0 0 255 255 255 255
-3.22751 0.333403 5.46627 0 0 0 255 255 255 255
-2.93261 0.310488 5.41601 0 0 0 255 255 255 255
-2.96723 0.375864 5.65664 0 0 0 255 255 255 255
-3.3074 0.407421 5.57538 0 0 0 255 255 255 255
-2.85166 0.31242 5.22192 0 0 0 255 255 255 255
-2.66788 0.394825 4.98993 0 0 0 255 255 255 255
-2.84799 0.335183 5.18994 0 0 0 255 255 255 255
-2.75011 0.385507 5.18283 0 0 0 255 255 255 255
-2.79169 0.334504 5.20635 0 0 0 255 255 255 255
-2.71229 0.397777 5.55904 0 0 0 255 255 255 255
-2.72996 0.390979 5.54246 0 0 0 255 255 255 255
-2.76388 0.374403 5.65516 0 0 0 255 255 255 255
-2.8335 0.386813 5.47785 0 0 0 255 255 255 255
-2.70599 0.395606 5.56229 0 0 0 255 255 255 255
-2.83812 0.385455 5.46242 0 0 0 255 255 255 255
-2.47937 1.03331 4.95823 0 0 0 255 255 255 255
-2.65529 0.910549 4.95395 0 0 0 255 255 255 255
-2.94963 0.407822 5.95483 0 0 0 255 255 255 255
-2.94321 1.30812 5.2621 0 0 0 255 255 255 255
-2.71246 1.24759 5.2491 0 0 0 255 255 255 255
-2.73283 1.12528 5.31124 0 0 0 255 255 255 255
-2.69444 1.17296 5.27954 0 0 0 255 255 255 255
-2.65642 1.17428 5.24792 0 0 0 255 255 255 255
-2.6726 1.11198 5.22356 0 0 0 255 255 255 255
-2.67465 1.10841 5.18341 0 0 0 255 255 255 255
-2.71303 1.24742 5.24995 0 0 0 255 255 255 255
-2.82894 1.27284 5.29505 0 0 0 255 255 255 255
-2.6706 1.10596 5.24164 0 0 0 255 255 255 255
-2.66872 1.12873 5.24168 0 0 0 255 255 255 255
-2.68439 1.29056 5.17646 0 0 0 255 255 255 255
-2.60926 1.22247 5.1133 0 0 0 255 255 255 255
-2.54656 1.2586 5.03871 0 0 0 255 255 255 255
-2.57978 1.26898 4.97838 0 0 0 255 255 255 255
-2.56495 1.27084 5.00198 0 0 0 255 255 255 255
-2.55886 1.24548 5.14993 0 0 0 255 255 255 255
-2.6083 1.22578 5.11989 0 0 0 255 255 255 255
-2.55914 1.18204 5.00955 0 0 0 255 255 255 255
-2.50922 1.10315 5.00854 0 0 0 255 255 255 255
-2.52446 1.28518 5.08053 0 0 0 255 255 255 255
-2.55872 1.28899 4.94113 0 0 0 255 255 255 255
-2.55481 1.29462 4.94338 0 0 0 255 255 255 255
0.193189 1.16602 5.05668 0 0 0 255 255 255 255
-0.0977861 1.21885 5.03253 0 0 0 255 255 255 255
2.23293 -2.85881 6.1926 0 0 0 255 255 255 255
2.23213 -2.83679 6.19011 0 0 0 255 255 255 255
1.6846 -1.85414 6.10856 0 0 0 255 255 255 255
1.66715 -1.82013 6.08414 0 0 0 255 255 255 255
2.14565 -2.32763 6.07961 0 0 0 255 255 255 255
2.15562 -2.32112 6.08183 0 0 0 255 255 255 255
2.18001 -2.20532 6.12491 0 0 0 255 255 255 255
2.2269 -2.60017 6.1833 0 0 0 255 255 255 255
2.07082 -1.98101 6.31121 0 0 0 255 255 255 255
2.21849 -1.9514 6.1552 0 0 0 255 255 255 255
2.15117 -1.898 6.08152 0 0 0 255 255 255 255
1.91118 -1.94017 6.27391 0 0 0 255 255 255 255
2.01155 -1.85272 6.14104 0 0 0 255 255 255 255
2.02055 -1.86224 6.13825 0 0 0 255 255 255 255
2.1801 -2.19467 6.1226 0 0 0 255 255 255 255
2.04096 -1.90919 6.11245 0 0 0 255 255 255 255
2.14746 -2.12565 6.07235 0 0 0 255 255 255 255
2.12085 -1.84961 6.04109 0 0 0 255 255 255 255
2.09516 -1.86891 6.01079 0 0 0 255 255 255 255
2.11868 -1.94312 6.04315 0 0 0 255 255 255 255
2.17615 -2.17241 6.11793 0 0 0 255 255 255 255
1.99682 -1.80976 6.10186 0 0 0 255 255 255 255
2.09806 -1.84474 6.01595 0 0 0 255 255 255 255
1.91962 -1.95246 6.1206 0 0 0 255 255 255 255
2.00875 -1.83521 6.07331 0 0 0 255 255 255 255
2.14406 -2.09018 6.0737 0 0 0 255 255 255 255
2.10961 -1.48582 6.03207 0 0 0 255 255 255 255
2.10126 -1.62053 6.01957 0 0 0 255 255 255 255
1.69445 -1.66387 6.00809 0 0 0 255 255 255 255
2.10439 -1.39085 6.02203 0 0 0 255 255 255 255
2.1094 -1.7112 6.03178 0 0 0 255 255 255 255
1.8608 -1.68557 6.01894 0 0 0 255 255 255 255
2.10946 -1.47297 6.03296 0 0 0 255 255 255 255
2.15268 -1.68269 6.08318 0 0 0 255 255 255 255
2.11004 -1.70832 6.03064 0 0 0 255 255 255 255
1.71554 -1.68862 5.98672 0 0 0 255 255 255 255
2.0952 -1.61025 6.00162 0 0 0 255 255 255 255
2.12804 -1.4561 6.0764 0 0 0 255 255 255 255
2.13716 -1.42225 6.06224 0 0 0 255 255 255 255
2.09262 -1.39591 5.99474 0 0 0 255 255 255 255
2.09718 -1.62555 6.00549 0 0 0 255 255 255 255
2.24346 -2.69429 6.22282 0 0 0 255 255 255 255
2.24134 -2.94231 6.20491 0 0 0 255 255 255 255
2.24556 -2.70441 6.22025 0 0 0 255 255 255 255
2.24917 -2.71177 6.21448 0 0 0 255 255 255 255
2.24005 -2.92575 6.20335 0 0 0 255 255 255 255
2.26478 -2.46024 6.23456 0 0 0 255 255 255 255
2.2558 -2.4258 6.20382 0 0 0 255 255 255 255
2.2725 -2.48454 6.24672 0 0 0 255 255 255 255
0.828822 0.853924 3.40492 0 0 0 255 255 255 255
0.840587 0.839256 3.34953 0 0 0 255 255 255 255
0.769046 0.884446 3.98656 0 0 0 255 255 255 255
0.765901 0.921507 3.97217 0 0 0 255 255 255 255
1.03951 0.75634 3.21605 0 0 0 255 255 255 255
0.977041 0.790609 3.30496 0 0 0 255 255 255 255
1.06921 0.675578 3.34818 0 0 0 255 255 255 255
0.883907 0.776138 3.44067 0 0 0 255 255 255 255
0.934104 0.796686 3.53512 0 0 0 255 255 255 255
0.901512 0.784329 3.53266 0 0 0 255 255 255 255
1.06036 0.955773 3.37501 0 0 0 255 255 255 255
0.937578 0.92392 3.44501 0 0 0 255 255 255 255
0.96965 0.925806 3.48037 0 0 0 255 255 255 255
0.964759 0.927056 3.48088 0 0 0 255 255 255 255
0.852047 0.835201 3.47295 0 0 0 255 255 255 255
1.10998 0.620207 3.44481 0 0 0 255 255 255 255
1.24561 0.731925 3.51926 0 0 0 255 255 255 255
1.21712 0.719888 3.46683 0 0 0 255 255 255 255
1.20277 0.766236 3.43294 0 0 0 255 255 255 255
1.27611 0.600162 3.37564 0 0 0 255 255 255 255
1.11448 0.598963 3.4319 0 0 0 255 255 255 255
1.24092 0.73104 3.51138 0 0 0 255 255 255 255
1.27344 0.719916 3.47001 0 0 0 255 255 255 255
1.18328 0.668433 3.52608 0 0 0 255 255 255 255
1.27244 0.738539 3.45765 0 0 0 255 255 255 255
1.18801 0.80172 3.43709 0 0 0 255 255 255 255
1.29006 0.604788 3.38914 0 0 0 255 255 255 255
1.24208 0.726811 3.52527 0 0 0 255 255 255 255
1.25506 1.02188 3.27535 0 0 0 255 255 255 255
1.2693 1.04143 3.26986 0 0 0 255 255 255 255
1.09048 0.960603 3.43549 0 0 0 255 255 255 255
1.2544 0.624488 3.61689 0 0 0 255 255 255 255
1.2631 0.695585 3.65694 0 0 0 255 255 255 255
1.26021 0.663712 3.66512 0 0 0 255 255 255 255
1.26744 0.681934 3.64071 0 0 0 255 255 255 255
1.29827 0.734488 3.63052 0 0 0 255 255 255 255
1.30647 0.724185 3.60574 0 0 0 255 255 255 255
1.28508 0.702142 3.63689 0 0 0 255 255 255 255
1.26015 0.649015 3.6511 0 0 0 255 255 255 255
1.25843 0.66167 3.6628 0 0 0 255 255 255 255
1.30723 0.723369 3.61902 0 0 0 255 255 255 255
1.27001 0.693981 3.64678 0 0 0 255 255 255 255
1.24642 0.615912 3.60443 0 0 0 255 255 255 255
0.957095 0.909972 3.61829 0 0 0 255 255 255 255
0.527093 0.933367 4.53335 0 0 0 255 255 255 255
0.705994 0.965886 4.17655 0 0 0 255 255 255 255
1.33292 0.743824 3.49625 0 0 0 255 255 255 255
1.33903 1.00563 3.21927 0 0 0 255 255 255 255
1.36412 0.753924 3.57074 0 0 0 255 255 255 255
1.33453 0.718896 3.55688 0 0 0 255 255 255 255
1.32559 0.667346 3.5612 0 0 0 255 255 255 255
1.32168 0.679626 3.5798 0 0 0 255 255 255 255
1.91504 0.754144 4.06758 0 0 0 255 255 255 255
1.87158 0.746312 4.02445 0 0 0 255 255 255 255
1.67735 0.649602 4.3887 0 0 0 255 255 255 255
1.9686 0.743818 4.20178 0 0 0 255 255 255 255
1.81467 0.705462 4.15595 0 0 0 255 255 255 255
1.87894 0.737908 4.06512 0 0 0 255 255 255 255
1.68078 0.644119 4.39322 0 0 0 255 255 255 255
1.65691 0.641318 4.36738 0 0 0 255 255 255 255
1.27162 1.08861 3.25444 0 0 0 255 255 255 255
1.0309 1.0597 3.40117 0 0 0 255 255 255 255
0.571954 1.065 4.59444 0 0 0 255 255 255 255
0.387782 1.30506 4.26793 0 0 0 255 255 255 255
0.517392 1.05104 4.6756 0 0 0 255 255 255 255
0.468546 1.11452 4.77564 0 0 0 255 255 255 255
0.46826 1.08918 4.86494 0 0 0 255 255 255 255
0.767767 1.11481 4.86562 0 0 0 255 255 255 255
1.06106 1.19279 4.07825 0 0 0 255 255 255 255
0.513737 1.05114 4.65524 0 0 0 255 255 255 255
0.43237 1.11116 4.79063 0 0 0 255 255 255 255
0.768086 1.11341 4.87493 0 0 0 255 255 255 255
1.02025 1.18395 3.97916 0 0 0 255 255 255 255
1.24192 1.26839 3.3702 0 0 0 255 255 255 255
1.29958 1.0959 3.25537 0 0 0 255 255 255 255
2.08006 0.743379 6.01613 0 0 0 255 255 255 255
2.09824 0.796923 6.03902 0 0 0 255 255 255 255
2.13348 0.766738 6.11187 0 0 0 255 255 255 255
2.11227 0.719797 6.06581 0 0 0 255 255 255 255
2.11138 0.727412 6.06402 0 0 0 255 255 255 255
2.13411 0.710571 6.11987 0 0 0 255 255 255 255
2.12915 0.815459 6.10818 0 0 0 255 255 255 255
2.11345 0.709398 6.06351 0 0 0 255 255 255 255
0.916026 1.04188 5.1644 0 0 0 255 255 255 255
2.08134 0.775369 6.00935 0 0 0 255 255 255 255
1.97954 0.807782 5.68129 0 0 0 255 255 255 255
2.11859 0.758117 6.12592 0 0 0 255 255 255 255
2.16495 0.770666 6.13396 0 0 0 255 255 255 255
2.13049 0.718854 6.11759 0 0 0 255 255 255 255
0.771642 1.0935 4.99732 0 0 0 255 255 255 255
0.816342 1.16892 5.38516 0 0 0 255 255 255 255
0.472473 1.10264 4.9599 0 0 0 255 255 255 255
0.769348 1.11012 5.07464 0 0 0 255 255 255 255
0.75855 1.15224 5.28201 0 0 0 255 255 255 255
0.712061 1.2927 5.68568 0 0 0 255 255 255 255
0.730617 1.30393 5.7328 0 0 0 255 255 255 255
0.715953 1.30041 5.71424 0 0 0 255 255 255 255
0.740002 1.30719 5.73032 0 0 0 255 255 255 255
0.710173 1.28753 5.69156 0 0 0 255 255 255 255
0.830602 1.22731 5.65124 0 0 0 255 255 255 255
0.977428 1.18838 5.40025 0 0 0 255 255 255 255
0.938928 1.06689 5.18786 0 0 0 255 255 255 255
0.878851 1.09912 5.28388 0 0 0 255 255 255 255
0.869035 1.25579 5.53099 0 0 0 255 255 255 255
1.02361 1.25576 5.65558 0 0 0 255 255 255 255
1.01995 1.26273 5.66467 0 0 0 255 255 255 255
0.882814 1.2483 5.47628 0 0 0 255 255 255 255
1.03651 1.22715 5.43185 0 0 0 255 255 255 255
1.02899 1.23105 5.47586 0 0 0 255 255 255 255
0.985848 1.22481 5.46098 0 0 0 255 255 255 255
0.988578 1.2553 5.56287 0 0 0 255 255 255 255
0.891841 1.2549 5.76302 0 0 0 255 255 255 255
3.38587 0.604809 5.95912 0 0 0 255 255 255 255
3.29078 0.694834 5.98659 0 0 0 255 255 255 255
3.03969 0.633221 5.68092 0 0 0 255 255 255 255
3.35366 0.791337 5.9889 0 0 0 255 255 255 255
3.43751 0.793714 6.0249 0 0 0 255 255 255 255
3.4342 0.765036 6.00957 0 0 0 255 255 255 255
3.54995 0.989048 6.05831 0 0 0 255 255 255 255
3.37556 0.887826 5.99324 0 0 0 255 255 255 255
3.75455 0.665837 6.34648 0 0 0 255 255 255 255
3.04248 0.820616 5.66987 0 0 0 255 255 255 255
3.40578 0.835704 6.06651 0 0 0 255 255 255 255
4.03054 0.669953 6.60354 0 0 0 255 255 255 255
4.08433 0.647895 6.66471 0 0 0 255 255 255 255
3.44064 0.796194 6.02066 0 0 0 255 255 255 255
2.30986 1.04682 6.23688 0 0 0 255 255 255 255
2.29984 1.10365 6.17758 0 0 0 255 255 255 255
2.29787 1.10037 6.20991 0 0 0 255 255 255 255
