ply
format ascii 1.0
comment VCGLIB generated
element vertex 302
property float x
property float y
property float z
property float nx
property float ny
property float nz
property uchar red
property uchar green
property uchar blue
property uchar alpha
element face 0
property list uchar int vertex_indices
end_header
-2.6388 -0.782894 5.62338 0 0 0 255 255 255 255
-2.8922 -1.01583 6.3963 0 0 0 255 255 255 255
-2.6198 -0.802574 5.67807 0 0 0 255 255 255 255
-2.34578 -0.802391 5.6581 0 0 0 255 255 255 255
-2.31835 -0.809886 5.68542 0 0 0 255 255 255 255
-2.32546 -0.814877 5.68078 0 0 0 255 255 255 255
-2.34864 -0.80508 5.65484 0 0 0 255 255 255 255
-2.89349 -1.03494 6.42174 0 0 0 255 255 255 255
-2.62562 -0.779493 5.62026 0 0 0 255 255 255 255
-2.64811 -0.70994 5.74948 0 0 0 255 255 255 255
-2.6486 -0.482076 5.75813 0 0 0 255 255 255 255
-2.64507 -0.409066 5.71853 0 0 0 255 255 255 255
-2.65641 -0.607221 5.6923 0 0 0 255 255 255 255
-2.65094 -0.453884 5.72255 0 0 0 255 255 255 255
-2.66601 -0.662118 5.69831 0 0 0 255 255 255 255
-2.61955 -0.421094 5.77296 0 0 0 255 255 255 255
-2.67898 -0.731076 5.74528 0 0 0 255 255 255 255
-2.64588 -0.384093 5.71552 0 0 0 255 255 255 255
-2.64217 -0.402084 5.73098 0 0 0 255 255 255 255
-2.65458 -0.595587 5.69214 0 0 0 255 255 255 255
-2.6638 -0.689039 5.71753 0 0 0 255 255 255 255
-2.66915 -0.182613 5.84208 0 0 0 255 255 255 255
-2.66801 -0.162684 5.81139 0 0 0 255 255 255 255
-2.64405 -0.17663 5.85707 0 0 0 255 255 255 255
-2.59181 0.0754186 5.87492 0 0 0 255 255 255 255
-2.58846 0.0874429 5.87163 0 0 0 255 255 255 255
-2.59742 0.072286 5.87641 0 0 0 255 255 255 255
-2.33999 -0.763357 5.63123 0 0 0 255 255 255 255
-2.35643 -0.764583 5.61631 0 0 0 255 255 255 255
-2.07515 0.0984358 5.80622 0 0 0 255 255 255 255
-2.07016 0.178616 5.78913 0 0 0 255 255 255 255
-1.96356 0.188195 5.77035 0 0 0 255 255 255 255
-2.07005 0.158005 5.79564 0 0 0 255 255 255 255
-2.02602 0.194434 5.78699 0 0 0 255 255 255 255
-2.36508 0.00818531 5.96995 0 0 0 255 255 255 255
-2.36996 0.0390155 5.89924 0 0 0 255 255 255 255
-2.38286 0.027414 5.89825 0 0 0 255 255 255 255
-2.31485 -0.023946 5.96144 0 0 0 255 255 255 255
-2.38926 0.00610049 5.91054 0 0 0 255 255 255 255
-2.36452 -0.0138799 5.98724 0 0 0 255 255 255 255
-2.36111 0.0195565 5.94916 0 0 0 255 255 255 255
-2.34459 0.0439214 5.96404 0 0 0 255 255 255 255
-2.36489 0.0278241 5.94793 0 0 0 255 255 255 255
-2.3823 0.161012 5.88831 0 0 0 255 255 255 255
-2.36218 0.16154 5.93221 0 0 0 255 255 255 255
-2.36687 0.16074 5.92346 0 0 0 255 255 255 255
-2.34626 0.0593356 5.91917 0 0 0 255 255 255 255
-2.33461 0.0749594 6.03482 0 0 0 255 255 255 255
-2.3327 0.0588832 5.95351 0 0 0 255 255 255 255
-2.32514 0.0689445 5.9486 0 0 0 255 255 255 255
-2.11909 0.0574326 5.92631 0 0 0 255 255 255 255
-2.19834 0.100909 5.8757 0 0 0 255 255 255 255
-1.91889 -0.663508 5.74527 0 0 0 255 255 255 255
-1.71583 -0.507964 5.71385 0 0 0 255 255 255 255
-1.76661 -0.622212 5.85023 0 0 0 255 255 255 255
-1.70634 -0.636787 5.84043 0 0 0 255 255 255 255
-1.76658 -0.62304 5.84687 0 0 0 255 255 255 255
-1.70886 -0.608324 5.84982 0 0 0 255 255 255 255
-1.76139 -0.417308 5.86438 0 0 0 255 255 255 255
-1.75611 -0.416706 5.86198 0 0 0 255 255 255 255
-1.75223 -0.41677 5.86398 0 0 0 255 255 255 255
-1.75572 -0.239303 5.71093 0 0 0 255 255 255 255
-1.75264 -0.232994 5.70384 0 0 0 255 255 255 255
-1.76222 -0.253549 5.74197 0 0 0 255 255 255 255
-1.55724 -0.519309 5.71954 0 0 0 255 255 255 255
-1.54799 -0.63643 5.84823 0 0 0 255 255 255 255
-1.55311 -0.633966 5.85641 0 0 0 255 255 255 255
-1.62664 -0.637556 5.84739 0 0 0 255 255 255 255
-1.52836 -0.615198 5.83081 0 0 0 255 255 255 255
-1.4988 -0.638621 5.84204 0 0 0 255 255 255 255
-1.50691 -0.606791 5.82203 0 0 0 255 255 255 255
-1.49381 -0.641512 5.84994 0 0 0 255 255 255 255
-1.49633 -0.596165 5.82744 0 0 0 255 255 255 255
-1.40075 -0.255878 5.75893 0 0 0 255 255 255 255
-1.47384 -0.250186 5.74851 0 0 0 255 255 255 255
-1.45783 -0.247384 5.72923 0 0 0 255 255 255 255
-1.42527 -0.374682 5.8757 0 0 0 255 255 255 255
-1.53031 -0.363257 5.91901 0 0 0 255 255 255 255
-1.57228 -0.349326 5.8835 0 0 0 255 255 255 255
-1.40873 -0.611833 5.88642 0 0 0 255 255 255 255
-1.42482 -0.635241 5.9002 0 0 0 255 255 255 255
-1.42745 -0.650584 5.91033 0 0 0 255 255 255 255
-1.71893 -0.426656 5.9421 0 0 0 255 255 255 255
-1.60599 -0.337183 5.87934 0 0 0 255 255 255 255
-1.41951 -0.367115 5.86661 0 0 0 255 255 255 255
-1.53164 -0.36242 5.91792 0 0 0 255 255 255 255
-1.70386 -0.418401 5.86687 0 0 0 255 255 255 255
-1.46037 -0.346391 5.89617 0 0 0 255 255 255 255
-1.80255 -0.0632892 5.78303 0 0 0 255 255 255 255
-1.91696 0.210363 5.81507 0 0 0 255 255 255 255
-1.65536 -0.107086 5.93322 0 0 0 255 255 255 255
-1.90115 -0.116442 5.92914 0 0 0 255 255 255 255
-1.78074 -0.132216 5.92282 0 0 0 255 255 255 255
-1.6566 -0.130166 5.90341 0 0 0 255 255 255 255
-1.55387 -0.127811 5.88903 0 0 0 255 255 255 255
-1.37524 -0.153437 5.89256 0 0 0 255 255 255 255
-1.59574 -0.131292 5.89217 0 0 0 255 255 255 255
-1.15319 -0.620893 5.84951 0 0 0 255 255 255 255
-1.34132 0.0138129 5.90333 0 0 0 255 255 255 255
-1.02826 -0.164485 5.93991 0 0 0 255 255 255 255
-1.11516 -0.16993 5.94911 0 0 0 255 255 255 255
-0.874182 -0.07747 6.05175 0 0 0 255 255 255 255
-1.02573 -0.154689 5.9276 0 0 0 255 255 255 255
-0.856302 -0.0686672 6.0276 0 0 0 255 255 255 255
-1.11912 -0.176618 5.97297 0 0 0 255 255 255 255
-1.17731 -0.162687 5.96331 0 0 0 255 255 255 255
-1.37038 -0.117404 5.89442 0 0 0 255 255 255 255
-0.870308 -0.0734653 6.05131 0 0 0 255 255 255 255
-0.948013 0.961431 5.22371 0 0 0 255 255 255 255
-0.895921 0.902606 5.05785 0 0 0 255 255 255 255
-2.61669 0.505303 5.99813 0 0 0 255 255 255 255
-2.61484 0.507675 5.98501 0 0 0 255 255 255 255
-2.62355 0.481364 6.01848 0 0 0 255 255 255 255
-2.6233 0.482712 6.01799 0 0 0 255 255 255 255
-2.64057 0.430297 6.08497 0 0 0 255 255 255 255
-2.60959 1.13631 6.11594 0 0 0 255 255 255 255
-2.61342 1.13083 6.12397 0 0 0 255 255 255 255
-2.59005 1.2337 6.08158 0 0 0 255 255 255 255
-2.11622 0.594311 5.74857 0 0 0 255 255 255 255
-2.12288 0.342339 5.82043 0 0 0 255 255 255 255
-2.13746 0.580158 5.77572 0 0 0 255 255 255 255
-2.07594 0.411555 5.7926 0 0 0 255 255 255 255
-2.31048 0.547751 6.03065 0 0 0 255 255 255 255
-2.28062 0.6476 6.03708 0 0 0 255 255 255 255
-2.00304 0.57295 6.05434 0 0 0 255 255 255 255
-1.98305 0.563938 6.05985 0 0 0 255 255 255 255
-2.13524 0.511245 6.0765 0 0 0 255 255 255 255
-2.03318 0.35129 5.89803 0 0 0 255 255 255 255
-2.001 0.35042 5.877 0 0 0 255 255 255 255
-2.01001 0.350279 5.88244 0 0 0 255 255 255 255
-2.06607 0.337406 5.89568 0 0 0 255 255 255 255
-2.06145 0.580152 6.01979 0 0 0 255 255 255 255
-2.07836 0.541474 5.98792 0 0 0 255 255 255 255
-2.18958 0.499854 6.1868 0 0 0 255 255 255 255
-1.94104 0.614039 6.07593 0 0 0 255 255 255 255
-2.00273 0.621076 6.01624 0 0 0 255 255 255 255
-2.20117 1.3408 6.18914 0 0 0 255 255 255 255
-2.4188 1.17612 6.19548 0 0 0 255 255 255 255
-2.18281 1.14329 6.12491 0 0 0 255 255 255 255
-2.26256 1.18446 6.1564 0 0 0 255 255 255 255
-2.3049 1.33532 6.19491 0 0 0 255 255 255 255
-2.13169 0.894573 6.10717 0 0 0 255 255 255 255
-2.30846 1.30528 6.21163 0 0 0 255 255 255 255
-2.19258 1.146 6.13729 0 0 0 255 255 255 255
-2.06588 1.14523 6.16223 0 0 0 255 255 255 255
-3.03742 1.08778 6.7252 0 0 0 255 255 255 255
-3.02788 1.09804 6.71503 0 0 0 255 255 255 255
-2.56658 1.68969 6.04889 0 0 0 255 255 255 255
-2.54543 1.57981 6.07671 0 0 0 255 255 255 255
-2.54361 1.59081 6.08487 0 0 0 255 255 255 255
-2.65116 1.59279 6.01644 0 0 0 255 255 255 255
-2.65331 1.58884 6.03883 0 0 0 255 255 255 255
-2.64967 1.59108 6.02464 0 0 0 255 255 255 255
-2.65683 1.55087 6.04162 0 0 0 255 255 255 255
-1.82771 0.488806 6.02306 0 0 0 255 255 255 255
-1.77616 0.469682 5.86754 0 0 0 255 255 255 255
-1.69248 0.841499 6.1161 0 0 0 255 255 255 255
-1.65331 0.679847 6.11515 0 0 0 255 255 255 255
-1.68539 0.819087 6.07886 0 0 0 255 255 255 255
-1.72852 0.758853 5.91305 0 0 0 255 255 255 255
-1.57786 0.437654 6.07188 0 0 0 255 255 255 255
-1.53215 0.420901 5.91755 0 0 0 255 255 255 255
-1.79908 0.901229 6.10452 0 0 0 255 255 255 255
-1.65267 0.894194 6.09314 0 0 0 255 255 255 255
-1.89147 0.982734 6.10971 0 0 0 255 255 255 255
-1.50809 0.914013 5.94945 0 0 0 255 255 255 255
-1.57771 0.974394 6.11314 0 0 0 255 255 255 255
-1.27181 0.607765 6.06369 0 0 0 255 255 255 255
-1.02402 1.2447 5.55949 0 0 0 255 255 255 255
-0.904814 1.22255 5.55322 0 0 0 255 255 255 255
-1.09775 1.02707 5.94979 0 0 0 255 255 255 255
-1.25034 1.1434 6.20701 0 0 0 255 255 255 255
-1.30047 1.09577 6.15666 0 0 0 255 255 255 255
-1.3006 1.10012 6.16711 0 0 0 255 255 255 255
-1.34584 1.35688 6.09061 0 0 0 255 255 255 255
-1.34718 1.35424 6.08885 0 0 0 255 255 255 255
-1.35074 1.36007 6.18564 0 0 0 255 255 255 255
-0.893713 1.12195 6.01081 0 0 0 255 255 255 255
-1.08248 1.39494 6.1037 0 0 0 255 255 255 255
-1.0835 1.38913 6.10607 0 0 0 255 255 255 255
-1.19121 1.30455 6.4484 0 0 0 255 255 255 255
-1.62165 1.6291 6.32874 0 0 0 255 255 255 255
-1.18526 1.54217 6.11669 0 0 0 255 255 255 255
-1.48578 1.52679 6.17123 0 0 0 255 255 255 255
-1.21499 1.60284 6.36938 0 0 0 255 255 255 255
-1.63825 1.65977 6.33489 0 0 0 255 255 255 255
-1.67838 1.67887 6.62453 0 0 0 255 255 255 255
-1.30113 1.67206 6.80435 0 0 0 255 255 255 255
-1.27156 1.66818 6.66808 0 0 0 255 255 255 255
-1.29475 1.66942 6.80868 0 0 0 255 255 255 255
-0.423371 -0.319375 4.19675 0 0 0 255 255 255 255
-0.407168 0.287374 4.37808 0 0 0 255 255 255 255
-0.413814 0.253544 4.46853 0 0 0 255 255 255 255
-0.434642 -0.03954 4.34679 0 0 0 255 255 255 255
-0.43115 -0.0462907 4.34929 0 0 0 255 255 255 255
-0.457629 -0.342852 4.21854 0 0 0 255 255 255 255
-0.606891 -0.521574 4.26233 0 0 0 255 255 255 255
-0.44164 -0.32608 4.23598 0 0 0 255 255 255 255
-0.469565 -0.344608 4.22147 0 0 0 255 255 255 255
-0.614107 -0.527507 4.26851 0 0 0 255 255 255 255
-0.598146 -0.504587 4.25013 0 0 0 255 255 255 255
-0.40395 0.243694 4.45981 0 0 0 255 255 255 255
-0.616667 -0.515577 4.26377 0 0 0 255 255 255 255
-0.447154 -0.345287 4.2402 0 0 0 255 255 255 255
-0.752831 0.0648463 4.95342 0 0 0 255 255 255 255
-0.633626 0.144076 4.63917 0 0 0 255 255 255 255
-0.447378 -0.345466 4.24044 0 0 0 255 255 255 255
0.789624 -0.412681 4.28261 0 0 0 255 255 255 255
0.767571 -0.393479 4.25909 0 0 0 255 255 255 255
0.786278 -0.417188 4.28534 0 0 0 255 255 255 255
0.766862 -0.390347 4.25643 0 0 0 255 255 255 255
0.714541 -0.719284 4.56127 0 0 0 255 255 255 255
0.795521 -0.422049 4.29347 0 0 0 255 255 255 255
0.791855 -0.0604758 4.29208 0 0 0 255 255 255 255
0.681399 0.288954 4.47047 0 0 0 255 255 255 255
0.658493 0.29764 4.44803 0 0 0 255 255 255 255
0.548655 0.180606 4.3124 0 0 0 255 255 255 255
0.359074 0.08449 4.27536 0 0 0 255 255 255 255
0.35717 0.0932019 4.26098 0 0 0 255 255 255 255
0.356668 0.185398 4.60846 0 0 0 255 255 255 255
0.545326 0.191348 4.30752 0 0 0 255 255 255 255
0.305537 0.210244 4.41389 0 0 0 255 255 255 255
0.921993 -0.377358 4.35221 0 0 0 255 255 255 255
0.95244 -0.440685 4.34815 0 0 0 255 255 255 255
0.875822 -0.399822 4.35848 0 0 0 255 255 255 255
0.875836 -0.399826 4.35852 0 0 0 255 255 255 255
0.914197 -0.378558 4.35719 0 0 0 255 255 255 255
0.948338 -0.440769 4.34568 0 0 0 255 255 255 255
0.947157 -0.431798 4.34378 0 0 0 255 255 255 255
1.39719 0.304396 5.27609 0 0 0 255 255 255 255
1.26975 0.320933 4.87366 0 0 0 255 255 255 255
-0.570339 0.470464 4.51923 0 0 0 255 255 255 255
-0.581315 0.869958 4.70536 0 0 0 255 255 255 255
-0.291373 0.379581 4.41201 0 0 0 255 255 255 255
-0.313786 0.373025 4.38364 0 0 0 255 255 255 255
-0.534899 0.802058 4.44345 0 0 0 255 255 255 255
-0.45648 0.842596 4.4334 0 0 0 255 255 255 255
-0.523011 0.78081 4.43668 0 0 0 255 255 255 255
-0.578883 0.463266 4.52583 0 0 0 255 255 255 255
-0.571569 0.759758 4.67864 0 0 0 255 255 255 255
-0.53971 0.833038 4.45815 0 0 0 255 255 255 255
-0.368595 0.613329 4.29529 0 0 0 255 255 255 255
-0.52632 0.980173 4.53477 0 0 0 255 255 255 255
-0.325722 1.00661 4.46208 0 0 0 255 255 255 255
-0.586144 0.889488 4.7477 0 0 0 255 255 255 255
-0.610653 1.02419 4.68614 0 0 0 255 255 255 255
-0.396093 1.09638 4.47713 0 0 0 255 255 255 255
-0.325112 0.936402 4.46761 0 0 0 255 255 255 255
-0.379624 0.945757 4.48484 0 0 0 255 255 255 255
-0.537351 0.97677 4.5426 0 0 0 255 255 255 255
-0.393141 1.15204 4.4971 0 0 0 255 255 255 255
-0.581845 0.94336 4.55286 0 0 0 255 255 255 255
-0.53486 0.96419 4.5828 0 0 0 255 255 255 255
-0.371713 1.03981 4.45818 0 0 0 255 255 255 255
-0.379757 0.939463 4.49172 0 0 0 255 255 255 255
-0.313358 0.930137 4.45131 0 0 0 255 255 255 255
-0.560067 0.985041 4.82228 0 0 0 255 255 255 255
-0.649163 1.14508 5.08533 0 0 0 255 255 255 255
-0.678313 1.31638 5.18865 0 0 0 255 255 255 255
-0.713338 1.00123 5.1205 0 0 0 255 255 255 255
-0.627652 0.971151 4.77724 0 0 0 255 255 255 255
-0.627633 1.12992 5.01472 0 0 0 255 255 255 255
-0.22956 0.383931 4.41045 0 0 0 255 255 255 255
-0.185041 0.336339 4.38383 0 0 0 255 255 255 255
0.218941 0.553033 4.32396 0 0 0 255 255 255 255
0.195073 0.558773 4.31351 0 0 0 255 255 255 255
0.195015 0.67362 4.4616 0 0 0 255 255 255 255
-0.22741 1.13244 4.45599 0 0 0 255 255 255 255
-0.154941 1.01268 4.4686 0 0 0 255 255 255 255
-0.108939 0.902707 4.48255 0 0 0 255 255 255 255
-0.0339135 1.24496 4.4628 0 0 0 255 255 255 255
0.242569 1.06402 4.52032 0 0 0 255 255 255 255
0.234876 1.0717 4.51848 0 0 0 255 255 255 255
-0.112144 0.902487 4.47768 0 0 0 255 255 255 255
0.178317 1.23791 4.49041 0 0 0 255 255 255 255
-0.261212 0.918212 4.47228 0 0 0 255 255 255 255
0.167624 1.22468 4.47769 0 0 0 255 255 255 255
0.169293 1.23125 4.47859 0 0 0 255 255 255 255
-0.227411 1.13244 4.456 0 0 0 255 255 255 255
-0.0944224 0.895588 4.47807 0 0 0 255 255 255 255
-0.213489 0.949853 4.46558 0 0 0 255 255 255 255
0.598464 1.1934 3.81574 0 0 0 255 255 255 255
0.546589 0.957969 4.53933 0 0 0 255 255 255 255
0.737624 1.35474 4.5114 0 0 0 255 255 255 255
0.720856 1.36328 4.5053 0 0 0 255 255 255 255
1.26731 0.337978 4.91696 0 0 0 255 255 255 255
0.721099 1.36161 4.50495 0 0 0 255 255 255 255
0.706128 1.36097 4.49813 0 0 0 255 255 255 255
0.645217 0.606637 4.53673 0 0 0 255 255 255 255
0.718983 0.357597 4.34623 0 0 0 255 255 255 255
0.703137 1.35699 4.50294 0 0 0 255 255 255 255
0.426395 0.447386 4.33339 0 0 0 255 255 255 255
0.310005 0.736157 4.35975 0 0 0 255 255 255 255
0.727471 0.39209 4.37123 0 0 0 255 255 255 255
0.737177 1.353 4.51065 0 0 0 255 255 255 255
0.411506 1.362 4.50038 0 0 0 255 255 255 255
-0.758136 1.10066 5.84911 0 0 0 255 255 255 255
-0.74855 1.55339 6.15369 0 0 0 255 255 255 255
-0.750133 1.54287 6.15171 0 0 0 255 255 255 255
-0.753162 1.5563 6.15339 0 0 0 255 255 255 255
-0.801953 0.521407 5.89796 0 0 0 255 255 255 255
-0.762511 1.56471 6.15715 0 0 0 255 255 255 255
