ply
format ascii 1.0
comment VCGLIB generated
element vertex 20
property float x
property float y
property float z
property float nx
property float ny
property float nz
property uchar red
property uchar green
property uchar blue
property uchar alpha
element face 0
property list uchar int vertex_indices
end_header
-0.665788 1.37747 3.8548 0 0 0 0 128 128 255
-0.682306 1.37448 3.85857 0 0 0 0 128 128 255
-0.625324 1.34498 3.86046 0 0 0 0 128 128 255
-0.64038 1.3454 3.86272 0 0 0 0 128 128 255
-0.69568 1.36108 3.86574 0 0 0 0 128 128 255
-0.709567 1.16144 3.94271 0 0 0 0 128 128 255
-0.737488 1.16738 3.94498 0 0 0 0 128 128 255
-0.573904 1.08707 3.94875 0 0 0 0 128 128 255
-0.769417 1.15892 3.95328 0 0 0 0 128 128 255
-0.7648 1.14686 3.95705 0 0 0 0 128 128 255
-0.731167 1.13141 3.95743 0 0 0 0 128 128 255
-0.73337 1.13135 3.95781 0 0 0 0 128 128 255
-0.784994 1.14545 3.96083 0 0 0 0 128 128 255
-0.746921 1.11499 3.96611 0 0 0 0 128 128 255
-0.633644 1.03411 3.97818 0 0 0 0 128 128 255
-0.651438 0.941973 4.01554 0 0 0 0 128 128 255
-0.899992 1.00434 4.03214 0 0 0 0 128 128 255
-0.910066 0.993553 4.0378 0 0 0 0 128 128 255
-0.892785 0.98311 4.03893 0 0 0 0 128 128 255
-0.958924 0.917778 4.07402 0 0 0 0 128 128 255
