ply
format ascii 1.0
comment VCGLIB generated
element vertex 541
property float x
property float y
property float z
property float nx
property float ny
property float nz
property uchar red
property uchar green
property uchar blue
property uchar alpha
element face 0
property list uchar int vertex_indices
end_header
1.12967 0.0774913 4.98797 0 0 0 128 0 0 255
1.17633 1.36315 5.024 0 0 0 128 0 0 255
1.12974 0.0813698 4.99307 0 0 0 128 0 0 255
1.13022 0.0953332 4.99441 0 0 0 128 0 0 255
1.12868 0.0592072 5.00053 0 0 0 128 0 0 255
1.16489 1.12254 5.05709 0 0 0 128 0 0 255
1.16531 1.14048 5.05951 0 0 0 128 0 0 255
1.16734 1.22525 5.06949 0 0 0 128 0 0 255
1.16534 1.17826 5.07034 0 0 0 128 0 0 255
1.17008 1.39671 5.09434 0 0 0 128 0 0 255
1.15266 0.95004 5.08944 0 0 0 128 0 0 255
1.16547 1.32562 5.10241 0 0 0 128 0 0 255
1.16648 1.37153 5.10645 0 0 0 128 0 0 255
1.16677 1.40444 5.11114 0 0 0 128 0 0 255
1.16626 1.39045 5.1108 0 0 0 128 0 0 255
1.16283 1.37031 5.12098 0 0 0 128 0 0 255
1.11322 0.103343 5.10291 0 0 0 128 0 0 255
1.10681 0.0711736 5.11831 0 0 0 128 0 0 255
1.09652 0.0439523 5.14193 0 0 0 128 0 0 255
1.09201 0.086801 5.15668 0 0 0 128 0 0 255
1.09074 0.158678 5.16654 0 0 0 128 0 0 255
1.06732 0.134554 5.20602 0 0 0 128 0 0 255
1.04384 1.25795 5.31068 0 0 0 128 0 0 255
0.310443 0.0835312 4.97628 0 0 0 128 0 0 255
0.310334 0.080534 4.97621 0 0 0 128 0 0 255
0.310812 0.0925692 4.9745 0 0 0 128 0 0 255
0.312054 0.120703 4.96818 0 0 0 128 0 0 255
0.358336 1.39154 4.99685 0 0 0 128 0 0 255
0.358783 1.40255 4.99611 0 0 0 128 0 0 255
0.359318 1.38791 4.97979 0 0 0 128 0 0 255
0.359481 1.38498 4.97673 0 0 0 128 0 0 255
0.315846 0.103663 4.922 0 0 0 128 0 0 255
0.317639 0.126749 4.91663 0 0 0 128 0 0 255
0.354218 1.0342 4.91987 0 0 0 128 0 0 255
0.368012 1.40189 4.92678 0 0 0 128 0 0 255
0.320693 0.0632526 4.88863 0 0 0 128 0 0 255
0.357228 1.04238 4.90837 0 0 0 128 0 0 255
0.32681 0.0915071 4.86998 0 0 0 128 0 0 255
0.375555 1.38535 4.89544 0 0 0 128 0 0 255
0.329904 0.129547 4.86514 0 0 0 128 0 0 255
0.371067 0.972091 4.85526 0 0 0 128 0 0 255
0.372894 1.00208 4.85413 0 0 0 128 0 0 255
0.37392 1.02007 4.85363 0 0 0 128 0 0 255
0.388378 1.38675 4.8597 0 0 0 128 0 0 255
0.39298 1.11025 4.82125 0 0 0 128 0 0 255
0.35861 0.152163 4.79725 0 0 0 128 0 0 255
0.358319 0.144171 4.79705 0 0 0 128 0 0 255
0.357339 0.117196 4.7964 0 0 0 128 0 0 255
0.359034 0.151169 4.79634 0 0 0 128 0 0 255
0.358153 0.114208 4.79456 0 0 0 128 0 0 255
0.40797 1.407 4.82046 0 0 0 128 0 0 255
0.411853 1.40703 4.81346 0 0 0 128 0 0 255
0.364845 0.100277 4.78106 0 0 0 128 0 0 255
0.367134 0.0942965 4.77659 0 0 0 128 0 0 255
0.368513 0.118276 4.77631 0 0 0 128 0 0 255
0.373049 0.12928 4.76973 0 0 0 128 0 0 255
0.422858 1.35213 4.79079 0 0 0 128 0 0 255
0.420809 1.23524 4.78463 0 0 0 128 0 0 255
0.421086 1.21226 4.78241 0 0 0 128 0 0 255
0.381878 0.1183 4.75519 0 0 0 128 0 0 255
0.42257 1.22225 4.781 0 0 0 128 0 0 255
0.392248 0.310113 4.75487 0 0 0 128 0 0 255
0.403099 0.592843 4.76087 0 0 0 128 0 0 255
0.428004 1.24622 4.775 0 0 0 128 0 0 255
0.40476 0.606827 4.75957 0 0 0 128 0 0 255
0.38849 0.159253 4.74877 0 0 0 128 0 0 255
0.405013 0.597835 4.75854 0 0 0 128 0 0 255
0.431918 1.24121 4.76921 0 0 0 128 0 0 255
0.408724 0.586832 4.75261 0 0 0 128 0 0 255
0.392744 0.14725 4.742 0 0 0 128 0 0 255
0.414047 0.600798 4.74656 0 0 0 128 0 0 255
0.435169 1.13128 4.75699 0 0 0 128 0 0 255
0.407931 0.381997 4.73891 0 0 0 128 0 0 255
0.405353 0.311064 4.7372 0 0 0 128 0 0 255
0.437639 1.16524 4.75624 0 0 0 128 0 0 255
0.443246 1.26814 4.75637 0 0 0 128 0 0 255
0.439415 1.12826 4.75144 0 0 0 128 0 0 255
0.441766 1.15822 4.75061 0 0 0 128 0 0 255
0.411841 0.335007 4.73074 0 0 0 128 0 0 255
0.449282 1.33005 4.75321 0 0 0 128 0 0 255
0.446358 1.17918 4.7465 0 0 0 128 0 0 255
0.44545 1.1542 4.74589 0 0 0 128 0 0 255
0.451963 1.26208 4.74545 0 0 0 128 0 0 255
0.421528 0.406885 4.72405 0 0 0 128 0 0 255
0.423364 0.366894 4.71932 0 0 0 128 0 0 255
0.45814 1.28701 4.74003 0 0 0 128 0 0 255
0.427247 0.418826 4.71834 0 0 0 128 0 0 255
0.461139 1.24001 4.73372 0 0 0 128 0 0 255
0.460958 1.23501 4.7336 0 0 0 128 0 0 255
0.435826 0.543667 4.71691 0 0 0 128 0 0 255
0.460568 1.16805 4.72979 0 0 0 128 0 0 255
0.436761 0.341769 4.70335 0 0 0 128 0 0 255
0.460732 0.943171 4.71573 0 0 0 128 0 0 255
0.470881 1.16394 4.71894 0 0 0 128 0 0 255
0.47279 1.1969 4.71903 0 0 0 128 0 0 255
0.451145 0.601462 4.70466 0 0 0 128 0 0 255
0.454305 0.629408 4.70324 0 0 0 128 0 0 255
0.476402 1.17786 4.71439 0 0 0 128 0 0 255
0.470405 0.953042 4.7069 0 0 0 128 0 0 255
0.469787 0.936058 4.70649 0 0 0 128 0 0 255
0.45872 0.571375 4.69564 0 0 0 128 0 0 255
0.452698 0.385542 4.69047 0 0 0 128 0 0 255
0.462522 0.615302 4.69466 0 0 0 128 0 0 255
0.473865 0.907014 4.70103 0 0 0 128 0 0 255
0.457027 0.423464 4.68869 0 0 0 128 0 0 255
0.477106 0.934955 4.69969 0 0 0 128 0 0 255
0.478109 0.900955 4.69687 0 0 0 128 0 0 255
0.479028 0.884947 4.69517 0 0 0 128 0 0 255
0.456429 0.242547 4.67901 0 0 0 128 0 0 255
0.46458 0.404358 4.68095 0 0 0 128 0 0 255
0.4624 0.344415 4.6795 0 0 0 128 0 0 255
0.459205 0.256499 4.67738 0 0 0 128 0 0 255
0.492068 1.13965 4.69804 0 0 0 128 0 0 255
0.483933 0.915859 4.69264 0 0 0 128 0 0 255
0.484657 0.893856 4.69081 0 0 0 128 0 0 255
0.461197 0.227478 4.67409 0 0 0 128 0 0 255
0.4681 0.396305 4.67752 0 0 0 128 0 0 255
0.502663 1.26243 4.69586 0 0 0 128 0 0 255
0.466709 0.273372 4.672 0 0 0 128 0 0 255
0.471308 0.357266 4.67276 0 0 0 128 0 0 255
0.502513 1.15147 4.69003 0 0 0 128 0 0 255
0.49387 0.913698 4.6843 0 0 0 128 0 0 255
0.477346 0.416144 4.67104 0 0 0 128 0 0 255
0.496216 0.913657 4.68243 0 0 0 128 0 0 255
0.473917 0.235262 4.66421 0 0 0 128 0 0 255
0.499904 0.906595 4.67918 0 0 0 128 0 0 255
0.492588 0.617813 4.66979 0 0 0 128 0 0 255
0.488883 0.515909 4.66733 0 0 0 128 0 0 255
0.48013 0.253145 4.66039 0 0 0 128 0 0 255
0.480788 0.22714 4.65857 0 0 0 128 0 0 255
0.499532 0.720656 4.66988 0 0 0 128 0 0 255
0.487293 0.383976 4.66176 0 0 0 128 0 0 255
0.50898 0.958415 4.67502 0 0 0 128 0 0 255
0.486572 0.342001 4.66015 0 0 0 128 0 0 255
0.488694 0.355958 4.65931 0 0 0 128 0 0 255
0.502631 0.627622 4.66294 0 0 0 128 0 0 255
0.488067 0.227003 4.65328 0 0 0 128 0 0 255
0.505753 0.668552 4.66278 0 0 0 128 0 0 255
0.502884 0.589627 4.66087 0 0 0 128 0 0 255
0.504073 0.554612 4.65831 0 0 0 128 0 0 255
0.505332 0.566584 4.65804 0 0 0 128 0 0 255
0.504206 0.535614 4.65729 0 0 0 128 0 0 255
0.50308 0.504643 4.65654 0 0 0 128 0 0 255
0.505493 0.525591 4.65592 0 0 0 128 0 0 255
0.5338 1.23587 4.67138 0 0 0 128 0 0 255
0.522215 0.917168 4.66369 0 0 0 128 0 0 255
0.498822 0.250785 4.64705 0 0 0 128 0 0 255
0.506957 0.359596 4.64693 0 0 0 128 0 0 255
0.51574 0.415401 4.64399 0 0 0 128 0 0 255
0.545658 1.14463 4.65949 0 0 0 128 0 0 255
0.518294 0.368354 4.64024 0 0 0 128 0 0 255
0.514626 0.26745 4.63781 0 0 0 128 0 0 255
0.515746 0.227432 4.6353 0 0 0 128 0 0 255
0.530842 0.61904 4.64424 0 0 0 128 0 0 255
0.517695 0.257384 4.63551 0 0 0 128 0 0 255
0.532956 0.605995 4.64241 0 0 0 128 0 0 255
0.519845 0.245338 4.63371 0 0 0 128 0 0 255
0.544789 0.907689 4.64919 0 0 0 128 0 0 255
0.52594 0.389182 4.63667 0 0 0 128 0 0 255
0.546304 0.901656 4.64804 0 0 0 128 0 0 255
0.561782 1.13527 4.64978 0 0 0 128 0 0 255
0.568478 1.2711 4.6521 0 0 0 128 0 0 255
0.555376 0.886449 4.64235 0 0 0 128 0 0 255
0.538643 0.401889 4.63018 0 0 0 128 0 0 255
0.533595 0.263022 4.62683 0 0 0 128 0 0 255
0.550857 0.713572 4.63724 0 0 0 128 0 0 255
0.547697 0.626655 4.63514 0 0 0 128 0 0 255
0.535824 0.226972 4.6241 0 0 0 128 0 0 255
0.542413 0.383802 4.62742 0 0 0 128 0 0 255
0.563566 0.94125 4.64041 0 0 0 128 0 0 255
0.553615 0.667511 4.63381 0 0 0 128 0 0 255
0.552962 0.649528 4.63337 0 0 0 128 0 0 255
0.572082 1.15103 4.64502 0 0 0 128 0 0 255
0.557158 0.691424 4.63302 0 0 0 128 0 0 255
0.555415 0.643469 4.63187 0 0 0 128 0 0 255
0.554107 0.607504 4.631 0 0 0 128 0 0 255
0.553454 0.589521 4.63056 0 0 0 128 0 0 255
0.569705 0.938102 4.63719 0 0 0 128 0 0 255
0.550675 0.4146 4.62456 0 0 0 128 0 0 255
0.545445 0.270737 4.62109 0 0 0 128 0 0 255
0.572754 0.923028 4.63507 0 0 0 128 0 0 255
0.552954 0.353548 4.6209 0 0 0 128 0 0 255
0.554583 0.373506 4.62095 0 0 0 128 0 0 255
0.57814 0.896895 4.63146 0 0 0 128 0 0 255
0.579993 0.922847 4.63167 0 0 0 128 0 0 255
0.574956 0.683982 4.62426 0 0 0 128 0 0 255
0.559273 0.227393 4.61284 0 0 0 128 0 0 255
0.566143 0.391213 4.61639 0 0 0 128 0 0 255
0.563456 0.317283 4.6146 0 0 0 128 0 0 255
0.560768 0.243354 4.61282 0 0 0 128 0 0 255
0.567104 0.367189 4.61501 0 0 0 128 0 0 255
0.570524 0.3601 4.61326 0 0 0 128 0 0 255
0.578353 0.422894 4.61249 0 0 0 128 0 0 255
0.574542 0.266993 4.60798 0 0 0 128 0 0 255
0.584947 0.373716 4.60801 0 0 0 128 0 0 255
0.586091 0.353684 4.60682 0 0 0 128 0 0 255
0.587255 0.230646 4.60179 0 0 0 128 0 0 255
0.588196 0.23062 4.60146 0 0 0 128 0 0 255
0.60395 0.351185 4.60052 0 0 0 128 0 0 255
0.599738 0.235295 4.59772 0 0 0 128 0 0 255
0.606754 0.402109 4.60144 0 0 0 128 0 0 255
0.640665 1.25621 4.62115 0 0 0 128 0 0 255
0.607649 0.26907 4.59645 0 0 0 128 0 0 255
0.612419 0.373943 4.59869 0 0 0 128 0 0 255
0.615579 0.328845 4.59619 0 0 0 128 0 0 255
0.61861 0.385763 4.59729 0 0 0 128 0 0 255
0.615522 0.247837 4.59342 0 0 0 128 0 0 255
0.620996 0.265677 4.59254 0 0 0 128 0 0 255
0.638293 0.421176 4.59337 0 0 0 128 0 0 255
0.638787 0.381154 4.59195 0 0 0 128 0 0 255
0.635216 0.229239 4.58784 0 0 0 128 0 0 255
0.641385 0.372073 4.59107 0 0 0 128 0 0 255
0.642724 0.382033 4.59109 0 0 0 128 0 0 255
0.643083 0.365019 4.59047 0 0 0 128 0 0 255
0.650585 0.382787 4.58947 0 0 0 128 0 0 255
0.654762 0.416662 4.58971 0 0 0 128 0 0 255
0.648624 0.247823 4.58564 0 0 0 128 0 0 255
0.656216 0.429618 4.58984 0 0 0 128 0 0 255
0.658655 0.415538 4.58895 0 0 0 128 0 0 255
0.668073 0.403231 4.58699 0 0 0 128 0 0 255
0.664157 0.268328 4.58358 0 0 0 128 0 0 255
0.700026 1.17337 4.60497 0 0 0 128 0 0 255
0.670282 0.355148 4.58523 0 0 0 128 0 0 255
0.671969 0.347091 4.58475 0 0 0 128 0 0 255
0.680549 0.555859 4.58965 0 0 0 128 0 0 255
0.681721 0.560822 4.58963 0 0 0 128 0 0 255
0.672859 0.317054 4.58375 0 0 0 128 0 0 255
0.669664 0.229138 4.58163 0 0 0 128 0 0 255
0.68351 0.582768 4.59003 0 0 0 128 0 0 255
0.682976 0.540775 4.58888 0 0 0 128 0 0 255
0.671608 0.228073 4.58134 0 0 0 128 0 0 255
0.684039 0.542741 4.5888 0 0 0 128 0 0 255
0.714336 1.26692 4.60578 0 0 0 128 0 0 255
0.683394 0.415729 4.58524 0 0 0 128 0 0 255
0.690645 0.560525 4.58851 0 0 0 128 0 0 255
0.67906 0.241828 4.58081 0 0 0 128 0 0 255
0.688056 0.434578 4.58524 0 0 0 128 0 0 255
0.715828 1.14384 4.60215 0 0 0 128 0 0 255
0.691028 0.379462 4.5834 0 0 0 128 0 0 255
0.690897 0.348457 4.58256 0 0 0 128 0 0 255
0.725319 1.24054 4.6039 0 0 0 128 0 0 255
0.698417 0.418221 4.5838 0 0 0 128 0 0 255
0.696383 0.362274 4.58245 0 0 0 128 0 0 255
0.731461 1.27234 4.60425 0 0 0 128 0 0 255
0.710078 0.546857 4.58639 0 0 0 128 0 0 255
0.714649 0.562703 4.58653 0 0 0 128 0 0 255
0.707129 0.245864 4.57869 0 0 0 128 0 0 255
0.745933 1.1758 4.60093 0 0 0 128 0 0 255
0.711977 0.241691 4.57839 0 0 0 128 0 0 255
0.73878 0.868951 4.59341 0 0 0 128 0 0 255
0.737073 0.821996 4.59228 0 0 0 128 0 0 255
0.718533 0.284472 4.57929 0 0 0 128 0 0 255
0.740705 0.866882 4.59332 0 0 0 128 0 0 255
0.738381 0.802943 4.59178 0 0 0 128 0 0 255
0.724272 0.387302 4.58173 0 0 0 128 0 0 255
0.719842 0.265418 4.57879 0 0 0 128 0 0 255
0.736203 0.68798 4.58897 0 0 0 128 0 0 255
0.724109 0.355296 4.58095 0 0 0 128 0 0 255
0.720061 0.216393 4.57758 0 0 0 128 0 0 255
0.743903 0.844759 4.59274 0 0 0 128 0 0 255
0.748791 0.84158 4.59265 0 0 0 128 0 0 255
0.730489 0.228018 4.57787 0 0 0 128 0 0 255
0.757021 0.82027 4.59226 0 0 0 128 0 0 255
0.750466 0.612431 4.58727 0 0 0 128 0 0 255
0.751683 0.618388 4.58745 0 0 0 128 0 0 255
0.746199 0.357488 4.58129 0 0 0 128 0 0 255
0.748069 0.381428 4.58191 0 0 0 128 0 0 255
0.75003 0.380354 4.58198 0 0 0 128 0 0 255
0.75742 0.556149 4.58627 0 0 0 128 0 0 255
0.768514 0.833848 4.59302 0 0 0 128 0 0 255
0.766532 0.696865 4.58988 0 0 0 128 0 0 255
0.762626 0.561956 4.58669 0 0 0 128 0 0 255
0.760497 0.420976 4.58348 0 0 0 128 0 0 255
0.770392 0.665706 4.58946 0 0 0 128 0 0 255
0.759658 0.342975 4.58174 0 0 0 128 0 0 255
0.773111 0.685611 4.59009 0 0 0 128 0 0 255
0.759928 0.322956 4.58134 0 0 0 128 0 0 255
0.772235 0.606609 4.58834 0 0 0 128 0 0 255
0.761697 0.261861 4.58019 0 0 0 128 0 0 255
0.767268 0.387703 4.58331 0 0 0 128 0 0 255
0.800187 1.26583 4.60459 0 0 0 128 0 0 255
0.78802 0.931147 4.59652 0 0 0 128 0 0 255
0.763484 0.228777 4.57966 0 0 0 128 0 0 255
0.801523 1.24777 4.60434 0 0 0 128 0 0 255
0.78701 0.821137 4.59415 0 0 0 128 0 0 255
0.799916 1.14879 4.60215 0 0 0 128 0 0 255
0.780754 0.594275 4.58887 0 0 0 128 0 0 255
0.780259 0.553276 4.58799 0 0 0 128 0 0 255
0.802244 1.13069 4.60203 0 0 0 128 0 0 255
0.79072 0.758964 4.59328 0 0 0 128 0 0 255
0.776048 0.355348 4.58354 0 0 0 128 0 0 255
0.78819 0.662017 4.59106 0 0 0 128 0 0 255
0.780707 0.374174 4.58447 0 0 0 128 0 0 255
0.819008 1.37315 4.60882 0 0 0 128 0 0 255
0.777824 0.240223 4.58149 0 0 0 128 0 0 255
0.801705 0.842572 4.59628 0 0 0 128 0 0 255
0.780169 0.250136 4.58199 0 0 0 128 0 0 255
0.780651 0.23611 4.58178 0 0 0 128 0 0 255
0.796077 0.578666 4.59046 0 0 0 128 0 0 255
0.806109 0.82739 4.59661 0 0 0 128 0 0 255
0.805282 0.777398 4.59555 0 0 0 128 0 0 255
0.797255 0.556608 4.59022 0 0 0 128 0 0 255
0.787167 0.251858 4.58302 0 0 0 128 0 0 255
0.786114 0.222886 4.58232 0 0 0 128 0 0 255
0.79177 0.269683 4.58406 0 0 0 128 0 0 255
0.790317 0.229721 4.5831 0 0 0 128 0 0 255
0.799335 0.423457 4.5881 0 0 0 128 0 0 255
0.798064 0.38849 4.58725 0 0 0 128 0 0 255
0.798214 0.365472 4.58686 0 0 0 128 0 0 255
0.803211 0.340256 4.5873 0 0 0 128 0 0 255
0.826061 0.8606 4.6006 0 0 0 128 0 0 255
0.824862 0.827632 4.5998 0 0 0 128 0 0 255
0.822429 0.760696 4.59819 0 0 0 128 0 0 255
0.817163 0.615833 4.59469 0 0 0 128 0 0 255
0.817635 0.574792 4.59408 0 0 0 128 0 0 255
0.81807 0.559766 4.59392 0 0 0 128 0 0 255
0.81106 0.339934 4.58881 0 0 0 128 0 0 255
0.828634 0.769445 4.59958 0 0 0 128 0 0 255
0.823803 0.636571 4.59638 0 0 0 128 0 0 255
0.819567 0.358592 4.59094 0 0 0 128 0 0 255
0.84014 0.844008 4.60332 0 0 0 128 0 0 255
0.833341 0.63017 4.59839 0 0 0 128 0 0 255
0.833043 0.595163 4.59777 0 0 0 128 0 0 255
0.826179 0.406342 4.59322 0 0 0 128 0 0 255
0.862705 1.38437 4.61705 0 0 0 128 0 0 255
0.839571 0.747976 4.60169 0 0 0 128 0 0 255
0.832998 0.567148 4.59733 0 0 0 128 0 0 255
0.820686 0.228471 4.58916 0 0 0 128 0 0 255
0.832765 0.427076 4.59515 0 0 0 128 0 0 255
0.82785 0.265189 4.59149 0 0 0 128 0 0 255
0.861563 1.13928 4.61308 0 0 0 128 0 0 255
0.851358 0.858542 4.60631 0 0 0 128 0 0 255
0.834325 0.389988 4.595 0 0 0 128 0 0 255
0.86391 1.1772 4.61425 0 0 0 128 0 0 255
0.839459 0.42479 4.59687 0 0 0 128 0 0 255
0.867952 1.18203 4.6154 0 0 0 128 0 0 255
0.855822 0.848345 4.60735 0 0 0 128 0 0 255
0.863686 1.03812 4.6122 0 0 0 128 0 0 255
0.856531 0.84131 4.60745 0 0 0 128 0 0 255
0.865193 1.05307 4.61282 0 0 0 128 0 0 255
0.847234 0.532521 4.60053 0 0 0 128 0 0 255
0.845875 0.336458 4.59747 0 0 0 128 0 0 255
0.854677 0.552211 4.60296 0 0 0 128 0 0 255
0.849593 0.412344 4.59959 0 0 0 128 0 0 255
0.876285 1.0676 4.61627 0 0 0 128 0 0 255
0.86954 0.855755 4.61146 0 0 0 128 0 0 255
0.871674 0.835648 4.61187 0 0 0 128 0 0 255
0.886366 1.16121 4.62065 0 0 0 128 0 0 255
0.858402 0.391944 4.60209 0 0 0 128 0 0 255
0.860197 0.336829 4.60202 0 0 0 128 0 0 255
0.856892 0.245915 4.59983 0 0 0 128 0 0 255
0.864412 0.426701 4.60451 0 0 0 128 0 0 255
0.893541 1.1759 4.62324 0 0 0 128 0 0 255
0.865794 0.41263 4.60482 0 0 0 128 0 0 255
0.878232 0.573181 4.61104 0 0 0 128 0 0 255
0.877034 0.540212 4.61025 0 0 0 128 0 0 255
0.872234 0.38232 4.60678 0 0 0 128 0 0 255
0.867694 0.257439 4.60377 0 0 0 128 0 0 255
0.873853 0.375242 4.60731 0 0 0 128 0 0 255
0.880834 0.41295 4.61036 0 0 0 128 0 0 255
0.917886 1.38094 4.63445 0 0 0 128 0 0 255
0.917434 1.34294 4.6339 0 0 0 128 0 0 255
0.912406 1.17905 4.63032 0 0 0 128 0 0 255
0.883861 0.393798 4.61137 0 0 0 128 0 0 255
0.922645 1.35871 4.63616 0 0 0 128 0 0 255
0.882696 0.259754 4.60965 0 0 0 128 0 0 255
0.917264 1.08376 4.63147 0 0 0 128 0 0 255
0.891116 0.364441 4.61411 0 0 0 128 0 0 255
0.928134 1.35745 4.63847 0 0 0 128 0 0 255
0.912192 0.792775 4.62685 0 0 0 128 0 0 255
0.895896 0.269144 4.61544 0 0 0 128 0 0 255
0.915545 0.784611 4.62829 0 0 0 128 0 0 255
0.89982 0.352022 4.61786 0 0 0 128 0 0 255
0.931852 1.18315 4.63875 0 0 0 128 0 0 255
0.928692 1.09623 4.63665 0 0 0 128 0 0 255
0.917506 0.788521 4.62922 0 0 0 128 0 0 255
0.898402 0.238001 4.61636 0 0 0 128 0 0 255
0.91151 0.573639 4.62488 0 0 0 128 0 0 255
0.904101 0.369833 4.61997 0 0 0 128 0 0 255
0.933152 1.14405 4.63907 0 0 0 128 0 0 255
0.930791 1.07911 4.63751 0 0 0 128 0 0 255
0.883578 -0.219649 4.60617 0 0 0 128 0 0 255
0.933873 1.13901 4.63938 0 0 0 128 0 0 255
0.933438 1.12703 4.63909 0 0 0 128 0 0 255
0.923699 0.834261 4.63245 0 0 0 128 0 0 255
0.903652 0.282786 4.61915 0 0 0 128 0 0 255
0.908257 0.384646 4.62204 0 0 0 128 0 0 255
0.903209 0.245778 4.61869 0 0 0 128 0 0 255
0.903492 0.228751 4.61871 0 0 0 128 0 0 255
0.928215 0.884084 4.63496 0 0 0 128 0 0 255
0.90835 0.337604 4.62177 0 0 0 128 0 0 255
0.905823 0.218631 4.61978 0 0 0 128 0 0 255
0.92222 0.571122 4.63007 0 0 0 128 0 0 255
0.920985 0.537155 4.62925 0 0 0 128 0 0 255
0.920804 0.53216 4.62913 0 0 0 128 0 0 255
0.913649 0.335347 4.62438 0 0 0 128 0 0 255
0.917737 0.42322 4.62696 0 0 0 128 0 0 255
0.934116 0.824751 4.63756 0 0 0 128 0 0 255
0.945282 1.10744 4.64484 0 0 0 128 0 0 255
0.934242 0.803728 4.63751 0 0 0 128 0 0 255
0.933588 0.785745 4.63707 0 0 0 128 0 0 255
0.946605 1.11938 4.64558 0 0 0 128 0 0 255
0.9153 0.258203 4.6248 0 0 0 128 0 0 255
0.918401 0.319102 4.62674 0 0 0 128 0 0 255
0.951241 1.12516 4.64806 0 0 0 128 0 0 255
0.949652 1.05718 4.64689 0 0 0 128 0 0 255
0.932046 0.548623 4.6351 0 0 0 128 0 0 255
0.95047 1.0071 4.64712 0 0 0 128 0 0 255
0.929337 0.401633 4.63299 0 0 0 128 0 0 255
0.929487 0.357588 4.6329 0 0 0 128 0 0 255
0.946883 0.788091 4.64427 0 0 0 128 0 0 255
0.958793 1.09176 4.65209 0 0 0 128 0 0 255
0.941143 0.60622 4.64037 0 0 0 128 0 0 255
0.940307 0.583242 4.63981 0 0 0 128 0 0 255
0.930167 0.256466 4.63292 0 0 0 128 0 0 255
0.94901 0.750952 4.64535 0 0 0 128 0 0 255
0.963167 1.11656 4.65468 0 0 0 128 0 0 255
0.935594 0.334261 4.6363 0 0 0 128 0 0 255
0.969011 1.18232 4.65829 0 0 0 128 0 0 255
0.97311 1.17711 4.66074 0 0 0 128 0 0 255
0.971202 1.10114 4.65943 0 0 0 128 0 0 255
0.95929 0.773451 4.65153 0 0 0 128 0 0 255
0.945199 0.38582 4.64217 0 0 0 128 0 0 255
0.952587 0.565606 4.64703 0 0 0 128 0 0 255
0.945592 0.349767 4.64235 0 0 0 128 0 0 255
0.944334 0.291779 4.64148 0 0 0 128 0 0 255
0.945573 0.232661 4.64219 0 0 0 128 0 0 255
0.976672 1.0418 4.66279 0 0 0 128 0 0 255
0.954486 0.408363 4.64805 0 0 0 128 0 0 255
0.982564 1.11156 4.66666 0 0 0 128 0 0 255
0.951912 0.268365 4.64632 0 0 0 128 0 0 255
0.95075 0.236395 4.64554 0 0 0 128 0 0 255
0.996736 1.36406 4.67609 0 0 0 128 0 0 255
0.963568 0.360841 4.65415 0 0 0 128 0 0 255
1.00773 1.35146 4.68386 0 0 0 128 0 0 255
0.968882 0.260456 4.65812 0 0 0 128 0 0 255
0.977248 0.42417 4.66386 0 0 0 128 0 0 255
1.0124 1.3472 4.68733 0 0 0 128 0 0 255
1.01407 1.37114 4.68851 0 0 0 128 0 0 255
0.983017 0.385815 4.66839 0 0 0 128 0 0 255
0.984794 0.326653 4.67007 0 0 0 128 0 0 255
0.98659 0.354583 4.67137 0 0 0 128 0 0 255
0.996296 0.409098 4.67905 0 0 0 128 0 0 255
1.0199 1.03746 4.69486 0 0 0 128 0 0 255
0.998255 0.421 4.68063 0 0 0 128 0 0 255
0.997738 0.364966 4.68058 0 0 0 128 0 0 255
0.996758 0.337992 4.67993 0 0 0 128 0 0 255
1.00346 0.418699 4.68517 0 0 0 128 0 0 255
1.02313 0.939161 4.69839 0 0 0 128 0 0 255
0.995332 0.112817 4.68045 0 0 0 128 0 0 255
1.00506 0.339515 4.68727 0 0 0 128 0 0 255
0.983847 -0.24393 4.67319 0 0 0 128 0 0 255
1.02829 0.93786 4.70305 0 0 0 128 0 0 255
1.00945 0.379305 4.69093 0 0 0 128 0 0 255
0.987558 -0.243146 4.6766 0 0 0 128 0 0 255
1.01008 0.336217 4.69194 0 0 0 128 0 0 255
1.02286 0.647834 4.70084 0 0 0 128 0 0 255
1.03702 0.997416 4.71066 0 0 0 128 0 0 255
1.01645 0.391906 4.69744 0 0 0 128 0 0 255
1.03067 0.76351 4.7071 0 0 0 128 0 0 255
1.02088 0.415669 4.70151 0 0 0 128 0 0 255
1.02804 0.573434 4.70674 0 0 0 128 0 0 255
1.0291 0.583381 4.70768 0 0 0 128 0 0 255
1.03017 0.593329 4.70864 0 0 0 128 0 0 255
1.02229 0.376536 4.7034 0 0 0 128 0 0 255
1.02241 0.360508 4.70373 0 0 0 128 0 0 255
1.03873 0.771032 4.71507 0 0 0 128 0 0 255
1.03674 0.69706 4.714 0 0 0 128 0 0 255
1.06009 1.32042 4.72976 0 0 0 128 0 0 255
1.02236 0.282412 4.70472 0 0 0 128 0 0 255
1.05748 1.17239 4.72909 0 0 0 128 0 0 255
1.02617 0.311214 4.70831 0 0 0 128 0 0 255
1.04161 0.660712 4.71966 0 0 0 128 0 0 255
1.04222 0.658671 4.72035 0 0 0 128 0 0 255
1.04173 0.62666 4.72031 0 0 0 128 0 0 255
1.04313 0.646598 4.72153 0 0 0 128 0 0 255
1.04294 0.51243 4.72351 0 0 0 128 0 0 255
1.03931 0.376475 4.72173 0 0 0 128 0 0 255
1.04698 0.56925 4.72714 0 0 0 128 0 0 255
1.0391 0.352456 4.72191 0 0 0 128 0 0 255
1.03975 0.334389 4.72299 0 0 0 128 0 0 255
1.05685 0.768892 4.73499 0 0 0 128 0 0 255
1.05379 0.666947 4.73329 0 0 0 128 0 0 255
1.04514 0.411148 4.72788 0 0 0 128 0 0 255
1.07186 1.12842 4.74596 0 0 0 128 0 0 255
1.07599 1.22429 4.74904 0 0 0 128 0 0 255
1.06159 0.810643 4.73983 0 0 0 128 0 0 255
1.07944 1.19703 4.75379 0 0 0 128 0 0 255
1.05902 0.583484 4.74133 0 0 0 128 0 0 255
1.05019 0.340715 4.73548 0 0 0 128 0 0 255
1.06029 0.55035 4.74368 0 0 0 128 0 0 255
1.07735 1.00288 4.75539 0 0 0 128 0 0 255
1.05297 0.298466 4.73998 0 0 0 128 0 0 255
1.08266 1.04859 4.76126 0 0 0 128 0 0 255
1.06686 0.614001 4.75078 0 0 0 128 0 0 255
1.0729 0.730766 4.756 0 0 0 128 0 0 255
1.05914 0.352126 4.74687 0 0 0 128 0 0 255
1.07297 0.667662 4.75771 0 0 0 128 0 0 255
1.08664 0.995228 4.76805 0 0 0 128 0 0 255
1.06997 0.536665 4.75698 0 0 0 128 0 0 255
1.06834 0.365503 4.75941 0 0 0 128 0 0 255
1.08267 0.698025 4.77075 0 0 0 128 0 0 255
1.07987 0.621098 4.76889 0 0 0 128 0 0 255
1.07953 0.581056 4.76959 0 0 0 128 0 0 255
1.08698 0.770835 4.775 0 0 0 128 0 0 255
1.0864 0.75485 4.77462 0 0 0 128 0 0 255
1.08077 0.599997 4.77088 0 0 0 128 0 0 255
1.06534 0.160375 4.76111 0 0 0 128 0 0 255
1.08554 0.67077 4.77594 0 0 0 128 0 0 255
1.11168 1.37506 4.79378 0 0 0 128 0 0 255
1.08621 0.644675 4.77784 0 0 0 128 0 0 255
1.07959 0.447822 4.77393 0 0 0 128 0 0 255
1.09231 0.710334 4.78536 0 0 0 128 0 0 255
1.09225 0.69431 4.78583 0 0 0 128 0 0 255
1.08015 0.361626 4.7778 0 0 0 128 0 0 255
1.09096 0.630292 4.786 0 0 0 128 0 0 255
1.08381 0.377375 4.78333 0 0 0 128 0 0 255
1.09698 0.656875 4.79527 0 0 0 128 0 0 255
1.09219 0.525 4.79209 0 0 0 128 0 0 255
1.09615 0.606844 4.79581 0 0 0 128 0 0 255
1.10205 0.755664 4.80027 0 0 0 128 0 0 255
1.1014 0.737681 4.79984 0 0 0 128 0 0 255
1.10419 0.594165 4.81138 0 0 0 128 0 0 255
1.1058 0.576992 4.81545 0 0 0 128 0 0 255
1.09091 0.0721729 4.81048 0 0 0 128 0 0 255
1.09313 0.110062 4.81321 0 0 0 128 0 0 255
1.09806 0.0795409 4.82621 0 0 0 128 0 0 255
1.11915 0.546701 4.8477 0 0 0 128 0 0 255
1.10459 0.146082 4.83803 0 0 0 128 0 0 255
1.12013 0.111192 4.89164 0 0 0 128 0 0 255
1.15562 1.01695 4.92522 0 0 0 128 0 0 255
1.15637 1.01081 4.92998 0 0 0 128 0 0 255
1.16359 1.15231 4.94522 0 0 0 128 0 0 255
1.16326 1.12219 4.94944 0 0 0 128 0 0 255
1.1275 0.104902 4.93381 0 0 0 128 0 0 255
1.12695 0.0899163 4.93345 0 0 0 128 0 0 255
1.12804 0.0946867 4.94152 0 0 0 128 0 0 255
1.16185 1.0036 4.97141 0 0 0 128 0 0 255
1.1285 0.0753507 4.954 0 0 0 128 0 0 255
1.13208 0.149863 4.97178 0 0 0 128 0 0 255
1.13022 0.0926684 4.9804 0 0 0 128 0 0 255
