ply
format ascii 1.0
comment VCGLIB generated
element vertex 890
property float x
property float y
property float z
property float nx
property float ny
property float nz
property uchar red
property uchar green
property uchar blue
property uchar alpha
element face 0
property list uchar int vertex_indices
end_header
-1.09972 1.49347 4.57939 0 0 0 128 128 128 255
-1.08398 1.58819 4.64628 0 0 0 128 128 128 255
-0.350997 0.175727 4.68197 0 0 0 128 128 128 255
-0.339939 0.118631 4.66243 0 0 0 128 128 128 255
-0.318792 0.129493 4.62551 0 0 0 128 128 128 255
-0.314461 0.110969 4.61555 0 0 0 128 128 128 255
-0.314409 0.155911 4.61783 0 0 0 128 128 128 255
-0.312141 1.40639 4.67949 0 0 0 128 128 128 255
-0.311964 0.101255 4.6096 0 0 0 128 128 128 255
-0.308763 0.0846447 4.60143 0 0 0 128 128 128 255
-0.306425 0.0979058 4.59656 0 0 0 128 128 128 255
-0.304205 0.0782111 4.58999 0 0 0 128 128 128 255
-0.301574 1.42961 4.65579 0 0 0 128 128 128 255
-0.299417 1.46085 4.65176 0 0 0 128 128 128 255
-0.299404 1.47184 4.65231 0 0 0 128 128 128 255
-0.299144 1.09542 4.63133 0 0 0 128 128 128 255
-0.297732 1.44211 4.6461 0 0 0 128 128 128 255
-0.298544 0.143881 4.57831 0 0 0 128 128 128 255
-0.297338 1.20252 4.63205 0 0 0 128 128 128 255
-0.296467 1.39037 4.63969 0 0 0 128 128 128 255
-0.294449 0.129521 4.56523 0 0 0 128 128 128 255
-0.291694 0.996693 4.60351 0 0 0 128 128 128 255
-0.290327 1.44826 4.62355 0 0 0 128 128 128 255
-0.290556 1.00188 4.59993 0 0 0 128 128 128 255
-0.286223 1.36814 4.60403 0 0 0 128 128 128 255
-0.286871 0.166833 4.54013 0 0 0 128 128 128 255
-0.285532 0.133171 4.53258 0 0 0 128 128 128 255
-0.283011 -0.187724 4.50257 0 0 0 128 128 128 255
-0.282636 -0.187624 4.50061 0 0 0 128 128 128 255
-0.281009 1.07979 4.56396 0 0 0 128 128 128 255
-0.279612 0.135757 4.50123 0 0 0 128 128 128 255
-0.275236 1.18382 4.52658 0 0 0 128 128 128 255
-0.274519 1.07661 4.50815 0 0 0 128 128 128 255
-0.274475 1.07267 4.50695 0 0 0 128 128 128 255
-0.274061 1.17694 4.50424 0 0 0 128 128 128 255
-0.275229 0.0923498 4.42916 0 0 0 128 128 128 255
-0.276163 0.118382 4.40948 0 0 0 128 128 128 255
-0.276232 0.186396 4.41093 0 0 0 128 128 128 255
-0.275685 1.43829 4.4645 0 0 0 128 128 128 255
-0.278411 0.135524 4.38743 0 0 0 128 128 128 255
-0.280683 0.620856 4.39326 0 0 0 128 128 128 255
-0.284475 0.147317 4.35251 0 0 0 128 128 128 255
-0.286916 0.589393 4.36227 0 0 0 128 128 128 255
-0.293037 0.636464 4.34248 0 0 0 128 128 128 255
-0.293754 0.793408 4.34758 0 0 0 128 128 128 255
-0.293975 0.865364 4.35028 0 0 0 128 128 128 255
-0.29576 0.382181 4.32194 0 0 0 128 128 128 255
-0.296059 0.673903 4.33485 0 0 0 128 128 128 255
-0.296409 0.646986 4.33254 0 0 0 128 128 128 255
-0.297355 0.382423 4.31721 0 0 0 128 128 128 255
-0.297641 0.417427 4.31804 0 0 0 128 128 128 255
-0.297172 0.828897 4.33893 0 0 0 128 128 128 255
-0.299247 0.765268 4.33003 0 0 0 128 128 128 255
-0.300256 0.785386 4.32824 0 0 0 128 128 128 255
-0.301004 0.742537 4.32418 0 0 0 128 128 128 255
-0.301638 0.807549 4.32561 0 0 0 128 128 128 255
-0.302016 0.78962 4.32377 0 0 0 128 128 128 255
-0.302868 0.675862 4.31612 0 0 0 128 128 128 255
-0.303245 0.663925 4.31459 0 0 0 128 128 128 255
-0.304285 0.721993 4.31474 0 0 0 128 128 128 255
-0.305958 0.241754 4.28758 0 0 0 128 128 128 255
-0.306125 0.428561 4.29614 0 0 0 128 128 128 255
-0.306484 0.448583 4.29623 0 0 0 128 128 128 255
-0.306888 0.771262 4.31076 0 0 0 128 128 128 255
-0.308084 0.75043 4.30694 0 0 0 128 128 128 255
-0.308986 0.654647 4.30023 0 0 0 128 128 128 255
-0.308947 0.688604 4.30196 0 0 0 128 128 128 255
-0.310576 0.67381 4.29754 0 0 0 128 128 128 255
-0.31206 0.453235 4.28361 0 0 0 128 128 128 255
-0.312913 0.434352 4.28083 0 0 0 128 128 128 255
-0.312923 0.793936 4.29817 0 0 0 128 128 128 255
-0.312895 0.818904 4.29944 0 0 0 128 128 128 255
-0.313795 0.398492 4.27719 0 0 0 128 128 128 255
-0.314718 0.334667 4.27214 0 0 0 128 128 128 255
-0.315319 0.182909 4.26353 0 0 0 128 128 128 255
-0.315122 0.355686 4.2723 0 0 0 128 128 128 255
-0.315097 0.377658 4.27341 0 0 0 128 128 128 255
-0.315594 0.31878 4.26952 0 0 0 128 128 128 255
-0.316245 0.89218 4.29592 0 0 0 128 128 128 255
-0.31691 0.693482 4.28494 0 0 0 128 128 128 255
-0.318409 0.154269 4.25577 0 0 0 128 128 128 255
-0.318586 0.390011 4.26684 0 0 0 128 128 128 255
-0.31889 0.515895 4.27233 0 0 0 128 128 128 255
-0.318932 0.874479 4.28964 0 0 0 128 128 128 255
-0.320419 0.364227 4.26196 0 0 0 128 128 128 255
-0.32186 0.711962 4.27605 0 0 0 128 128 128 255
-0.322722 0.363456 4.25747 0 0 0 128 128 128 255
-0.322471 0.583173 4.26863 0 0 0 128 128 128 255
-0.322162 0.854823 4.28241 0 0 0 128 128 128 255
-0.322694 0.797942 4.27864 0 0 0 128 128 128 255
-0.32399 0.485435 4.26101 0 0 0 128 128 128 255
-0.323966 0.506408 4.26208 0 0 0 128 128 128 255
-0.326814 0.526653 4.25783 0 0 0 128 128 128 255
-0.326488 0.812285 4.27233 0 0 0 128 128 128 255
-0.326968 0.817323 4.27171 0 0 0 128 128 128 255
-0.329308 0.487927 4.2515 0 0 0 128 128 128 255
-0.329991 0.324182 4.24232 0 0 0 128 128 128 255
-0.330461 0.349195 4.24272 0 0 0 128 128 128 255
-0.329553 1.14617 4.28317 0 0 0 128 128 128 255
-0.330615 0.652848 4.25727 0 0 0 128 128 128 255
-0.330465 0.784678 4.26396 0 0 0 128 128 128 255
-0.332435 0.384327 4.24104 0 0 0 128 128 128 255
-0.332399 0.416286 4.24266 0 0 0 128 128 128 255
-0.332287 0.51416 4.24763 0 0 0 128 128 128 255
-0.332818 0.495229 4.24581 0 0 0 128 128 128 255
-0.332472 0.798837 4.26122 0 0 0 128 128 128 255
-0.333088 0.706001 4.25565 0 0 0 128 128 128 255
-0.333083 1.16146 4.27791 0 0 0 128 128 128 255
-0.335374 1.42834 4.28718 0 0 0 128 128 128 255
-0.33671 1.17974 4.27285 0 0 0 128 128 128 255
-0.338651 0.406826 4.23192 0 0 0 128 128 128 255
-0.339228 0.367919 4.2291 0 0 0 128 128 128 255
-0.338811 1.20488 4.27074 0 0 0 128 128 128 255
-0.340206 0.451898 4.23167 0 0 0 128 128 128 255
-0.341416 0.338131 4.22421 0 0 0 128 128 128 255
-0.341911 0.381119 4.22555 0 0 0 128 128 128 255
-0.341451 0.784599 4.24604 0 0 0 128 128 128 255
-0.341996 0.785641 4.24525 0 0 0 128 128 128 255
-0.341563 1.16515 4.26451 0 0 0 128 128 128 255
-0.342897 0.475084 4.22865 0 0 0 128 128 128 255
-0.34306 0.81469 4.24505 0 0 0 128 128 128 255
-0.344319 0.67895 4.23649 0 0 0 128 128 128 255
-0.343689 1.23224 4.26458 0 0 0 128 128 128 255
-0.344025 1.42503 4.27353 0 0 0 128 128 128 255
-0.345371 0.732967 4.23757 0 0 0 128 128 128 255
-0.345489 1.12051 4.25641 0 0 0 128 128 128 255
-0.346349 1.3533 4.26657 0 0 0 128 128 128 255
-0.347983 0.415546 4.21814 0 0 0 128 128 128 255
-0.349569 0.522535 4.22111 0 0 0 128 128 128 255
-0.350235 0.441682 4.21618 0 0 0 128 128 128 255
-0.350125 0.538557 4.2211 0 0 0 128 128 128 255
-0.349404 1.17074 4.25319 0 0 0 128 128 128 255
-0.349364 1.2067 4.25501 0 0 0 128 128 128 255
-0.350466 1.25072 4.25561 0 0 0 128 128 128 255
-0.351942 0.463779 4.21485 0 0 0 128 128 128 255
-0.352488 0.494781 4.21561 0 0 0 128 128 128 255
-0.353408 1.22796 4.25039 0 0 0 128 128 128 255
-0.35616 0.368195 4.20432 0 0 0 128 128 128 255
-0.355279 1.1422 4.24361 0 0 0 128 128 128 255
-0.356812 0.318301 4.20099 0 0 0 128 128 128 255
-0.358039 0.290419 4.19797 0 0 0 128 128 128 255
-0.357878 0.432237 4.20516 0 0 0 128 128 128 255
-0.357785 0.514131 4.20932 0 0 0 128 128 128 255
-0.358118 1.27823 4.24651 0 0 0 128 128 128 255
-0.359722 0.400401 4.20115 0 0 0 128 128 128 255
-0.359432 0.655073 4.21408 0 0 0 128 128 128 255
-0.360381 0.354501 4.19802 0 0 0 128 128 128 255
-0.360152 0.555243 4.20821 0 0 0 128 128 128 255
-0.360652 0.650162 4.21224 0 0 0 128 128 128 255
-0.360851 1.01174 4.2298 0 0 0 128 128 128 255
-0.361195 1.24648 4.24092 0 0 0 128 128 128 255
-0.362455 0.679247 4.21134 0 0 0 128 128 128 255
-0.362071 1.01681 4.22847 0 0 0 128 128 128 255
-0.362679 1.02384 4.22804 0 0 0 128 128 128 255
-0.362447 1.22758 4.23838 0 0 0 128 128 128 255
-0.363538 0.812157 4.21651 0 0 0 128 128 128 255
-0.365263 0.387784 4.1934 0 0 0 128 128 128 255
-0.364975 0.640459 4.20622 0 0 0 128 128 128 255
-0.36474 0.846194 4.21667 0 0 0 128 128 128 255
-0.366631 0.833331 4.21367 0 0 0 128 128 128 255
-0.366285 1.13694 4.22908 0 0 0 128 128 128 255
-0.368263 0.506832 4.19554 0 0 0 128 128 128 255
-0.369096 0.331099 4.18585 0 0 0 128 128 128 255
-0.368206 1.11209 4.22549 0 0 0 128 128 128 255
-0.368933 1.03124 4.22061 0 0 0 128 128 128 255
-0.37048 1.35494 4.23473 0 0 0 128 128 128 255
-0.371636 0.90356 4.21105 0 0 0 128 128 128 255
-0.372847 0.405242 4.18499 0 0 0 128 128 128 255
-0.372995 1.41103 4.23452 0 0 0 128 128 128 255
-0.375469 0.380431 4.18068 0 0 0 128 128 128 255
-0.375663 0.783951 4.20041 0 0 0 128 128 128 255
-0.379483 0.320742 4.17312 0 0 0 128 128 128 255
-0.378863 0.865041 4.20075 0 0 0 128 128 128 255
-0.378694 1.01385 4.20831 0 0 0 128 128 128 255
-0.378587 1.10773 4.21307 0 0 0 128 128 128 255
-0.378907 1.40938 4.22764 0 0 0 128 128 128 255
-0.37979 1.21866 4.21721 0 0 0 128 128 128 255
-0.380271 1.38249 4.22478 0 0 0 128 128 128 255
-0.381577 0.823249 4.19565 0 0 0 128 128 128 255
-0.380934 1.38752 4.22429 0 0 0 128 128 128 255
-0.382947 0.800355 4.193 0 0 0 128 128 128 255
-0.382558 1.14192 4.21034 0 0 0 128 128 128 255
-0.384133 0.350972 4.16945 0 0 0 128 128 128 255
-0.383688 0.742468 4.18932 0 0 0 128 128 128 255
-0.383652 0.773428 4.1909 0 0 0 128 128 128 255
-0.384033 1.03313 4.20334 0 0 0 128 128 128 255
-0.386009 0.490906 4.17435 0 0 0 128 128 128 255
-0.387483 0.395106 4.16802 0 0 0 128 128 128 255
-0.387481 0.397103 4.16812 0 0 0 128 128 128 255
-0.387433 0.439049 4.17025 0 0 0 128 128 128 255
-0.389015 0.85962 4.18942 0 0 0 128 128 128 255
-0.389972 0.62496 4.17678 0 0 0 128 128 128 255
-0.389387 1.1393 4.20289 0 0 0 128 128 128 255
-0.392688 0.681037 4.17675 0 0 0 128 128 128 255
-0.394395 0.411458 4.16163 0 0 0 128 128 128 255
-0.393862 0.878856 4.18536 0 0 0 128 128 128 255
-0.39431 1.10261 4.196 0 0 0 128 128 128 255
-0.395888 0.33563 4.15636 0 0 0 128 128 128 255
-0.396467 0.446524 4.16128 0 0 0 128 128 128 255
-0.396096 1.39334 4.20863 0 0 0 128 128 128 255
-0.397572 0.720244 4.17376 0 0 0 128 128 128 255
-0.399086 0.641419 4.16835 0 0 0 128 128 128 255
-0.399375 1.01497 4.18661 0 0 0 128 128 128 255
-0.3993 1.08089 4.18996 0 0 0 128 128 128 255
-0.40042 0.726382 4.17127 0 0 0 128 128 128 255
-0.403369 0.666603 4.16545 0 0 0 128 128 128 255
-0.402912 1.06709 4.18578 0 0 0 128 128 128 255
-0.40487 0.621732 4.1618 0 0 0 128 128 128 255
-0.40485 0.639709 4.16271 0 0 0 128 128 128 255
-0.405751 0.486942 4.15427 0 0 0 128 128 128 255
-0.406598 0.38411 4.14836 0 0 0 128 128 128 255
-0.406204 0.729665 4.1659 0 0 0 128 128 128 255
-0.407279 0.428089 4.14991 0 0 0 128 128 128 255
-0.407498 0.878544 4.17209 0 0 0 128 128 128 255
-0.408205 0.902548 4.17263 0 0 0 128 128 128 255
-0.411411 0.680974 4.15868 0 0 0 128 128 128 255
-0.411178 0.88571 4.16908 0 0 0 128 128 128 255
-0.413621 0.700054 4.15765 0 0 0 128 128 128 255
-0.414696 0.412459 4.14238 0 0 0 128 128 128 255
-0.415555 0.315618 4.1368 0 0 0 128 128 128 255
-0.416842 0.504443 4.14507 0 0 0 128 128 128 255
-0.416467 0.834019 4.16179 0 0 0 128 128 128 255
-0.416439 0.857988 4.16301 0 0 0 128 128 128 255
-0.417842 0.287757 4.13341 0 0 0 128 128 128 255
-0.418249 0.593397 4.14827 0 0 0 128 128 128 255
-0.419928 0.44965 4.13966 0 0 0 128 128 128 255
-0.420656 0.477648 4.14043 0 0 0 128 128 128 255
-0.419928 1.11682 4.17288 0 0 0 128 128 128 255
-0.42037 1.3975 4.18647 0 0 0 128 128 128 255
-0.422915 0.503716 4.13981 0 0 0 128 128 128 255
-0.422356 0.995083 4.16476 0 0 0 128 128 128 255
-0.423857 0.348948 4.13131 0 0 0 128 128 128 255
-0.425482 0.272114 4.12613 0 0 0 128 128 128 255
-0.428602 0.928434 4.15627 0 0 0 128 128 128 255
-0.430738 0.421153 4.12927 0 0 0 128 128 128 255
-0.430238 0.860587 4.15157 0 0 0 128 128 128 255
-0.431239 0.667868 4.14117 0 0 0 128 128 128 255
-0.431216 0.687842 4.14218 0 0 0 128 128 128 255
-0.431073 0.81368 4.14857 0 0 0 128 128 128 255
-0.433088 0.420251 4.12735 0 0 0 128 128 128 255
-0.433713 0.561102 4.13388 0 0 0 128 128 128 255
-0.434689 0.395348 4.12485 0 0 0 128 128 128 255
-0.43436 0.683976 4.1395 0 0 0 128 128 128 255
-0.437793 0.447409 4.12504 0 0 0 128 128 128 255
-0.438894 0.877918 4.14568 0 0 0 128 128 128 255
-0.441143 0.304719 4.11538 0 0 0 128 128 128 255
-0.441993 0.260807 4.11255 0 0 0 128 128 128 255
-0.441973 0.278784 4.11346 0 0 0 128 128 128 255
-0.44382 0.772241 4.13672 0 0 0 128 128 128 255
-0.443754 0.830167 4.13966 0 0 0 128 128 128 255
-0.445665 0.569564 4.12525 0 0 0 128 128 128 255
-0.447195 0.647525 4.12803 0 0 0 128 128 128 255
-0.448241 0.441821 4.11701 0 0 0 128 128 128 255
-0.448837 0.632606 4.12611 0 0 0 128 128 128 255
-0.448613 0.829352 4.1361 0 0 0 128 128 128 255
-0.448539 0.894269 4.13939 0 0 0 128 128 128 255
-0.450702 0.426931 4.11451 0 0 0 128 128 128 255
-0.450519 0.587724 4.12267 0 0 0 128 128 128 255
-0.452695 0.833498 4.13342 0 0 0 128 128 128 255
-0.45251 0.996288 4.14168 0 0 0 128 128 128 255
-0.452154 1.30889 4.15755 0 0 0 128 128 128 255
-0.454972 0.278273 4.1041 0 0 0 128 128 128 255
-0.454915 0.328208 4.10663 0 0 0 128 128 128 255
-0.45461 0.595864 4.12022 0 0 0 128 128 128 255
-0.454205 0.951406 4.13827 0 0 0 128 128 128 255
-0.455229 0.775662 4.12878 0 0 0 128 128 128 255
-0.457374 0.343278 4.1057 0 0 0 128 128 128 255
-0.459831 0.371329 4.10545 0 0 0 128 128 128 255
-0.461496 0.372386 4.10439 0 0 0 128 128 128 255
-0.460306 1.41704 4.15742 0 0 0 128 128 128 255
-0.463127 0.407399 4.10507 0 0 0 128 128 128 255
-0.463085 0.444351 4.10695 0 0 0 128 128 128 255
-0.464128 0.263613 4.09722 0 0 0 128 128 128 255
-0.464261 0.883842 4.12816 0 0 0 128 128 128 255
-0.463675 1.39818 4.15427 0 0 0 128 128 128 255
-0.466396 0.485412 4.10685 0 0 0 128 128 128 255
-0.465909 0.912862 4.12855 0 0 0 128 128 128 255
-0.465369 1.38725 4.15263 0 0 0 128 128 128 255
-0.466658 0.995783 4.13222 0 0 0 128 128 128 255
-0.469191 0.254794 4.09354 0 0 0 128 128 128 255
-0.470715 0.404657 4.10008 0 0 0 128 128 128 255
-0.470696 0.421635 4.10094 0 0 0 128 128 128 255
-0.471502 0.459614 4.10234 0 0 0 128 128 128 255
-0.47089 0.996922 4.12962 0 0 0 128 128 128 255
-0.474271 0.271938 4.09124 0 0 0 128 128 128 255
-0.47414 0.38679 4.09707 0 0 0 128 128 128 255
-0.476871 0.995116 4.12588 0 0 0 128 128 128 255
-0.476795 1.06203 4.12928 0 0 0 128 128 128 255
-0.478421 0.388923 4.0946 0 0 0 128 128 128 255
-0.479566 0.895325 4.11928 0 0 0 128 128 128 255
-0.4811 0.30611 4.08887 0 0 0 128 128 128 255
-0.484478 0.381119 4.09067 0 0 0 128 128 128 255
-0.48545 0.290262 4.08556 0 0 0 128 128 128 255
-0.48636 0.255333 4.0833 0 0 0 128 128 128 255
-0.486248 0.354206 4.08832 0 0 0 128 128 128 255
-0.485903 0.656816 4.10368 0 0 0 128 128 128 255
-0.487657 1.41492 4.14069 0 0 0 128 128 128 255
-0.489399 0.652924 4.10153 0 0 0 128 128 128 255
-0.490198 0.720862 4.10449 0 0 0 128 128 128 255
-0.491362 0.469212 4.09124 0 0 0 128 128 128 255
-0.491143 0.660965 4.10097 0 0 0 128 128 128 255
-0.492082 0.608058 4.0978 0 0 0 128 128 128 255
-0.491739 0.908671 4.11306 0 0 0 128 128 128 255
-0.494748 0.586161 4.09527 0 0 0 128 128 128 255
-0.494398 0.893765 4.11088 0 0 0 128 128 128 255
-0.495444 0.749975 4.10311 0 0 0 128 128 128 255
-0.49511 1.0436 4.11802 0 0 0 128 128 128 255
-0.495064 1.08355 4.12005 0 0 0 128 128 128 255
-0.494696 1.40713 4.13647 0 0 0 128 128 128 255
-0.496735 0.392461 4.0845 0 0 0 128 128 128 255
-0.496682 0.4394 4.08688 0 0 0 128 128 128 255
-0.498266 0.603238 4.09427 0 0 0 128 128 128 255
-0.498214 0.649179 4.0966 0 0 0 128 128 128 255
-0.497774 1.03568 4.11622 0 0 0 128 128 128 255
-0.497739 1.06664 4.11779 0 0 0 128 128 128 255
-0.499086 0.662187 4.0968 0 0 0 128 128 128 255
-0.501821 0.604334 4.09249 0 0 0 128 128 128 255
-0.504891 0.259849 4.07365 0 0 0 128 128 128 255
-0.504149 0.912009 4.10675 0 0 0 128 128 128 255
-0.506261 -0.156591 4.05206 0 0 0 128 128 128 255
-0.505609 0.415672 4.08111 0 0 0 128 128 128 255
-0.506641 0.29585 4.07458 0 0 0 128 128 128 255
-0.508218 0.48765 4.08344 0 0 0 128 128 128 255
-0.508634 0.912126 4.10454 0 0 0 128 128 128 255
-0.508057 1.41847 4.13025 0 0 0 128 128 128 255
-0.510026 0.479707 4.08216 0 0 0 128 128 128 255
-0.510625 0.745387 4.09521 0 0 0 128 128 128 255
-0.512864 0.364923 4.07504 0 0 0 128 128 128 255
-0.511988 1.13393 4.11407 0 0 0 128 128 128 255
-0.511644 1.43554 4.12938 0 0 0 128 128 128 255
-0.515262 0.643632 4.08791 0 0 0 128 128 128 255
-0.515243 0.66061 4.08877 0 0 0 128 128 128 255
-0.516413 0.42993 4.07664 0 0 0 128 128 128 255
-0.51821 0.447951 4.07672 0 0 0 128 128 128 255
-0.519619 0.810528 4.0943 0 0 0 128 128 128 255
-0.520982 0.415059 4.07381 0 0 0 128 128 128 255
-0.521914 0.398103 4.07254 0 0 0 128 128 128 255
-0.522459 0.722706 4.08862 0 0 0 128 128 128 255
-0.525576 0.399187 4.07099 0 0 0 128 128 128 255
-0.527427 0.387244 4.06959 0 0 0 128 128 128 255
-0.52712 0.656897 4.08328 0 0 0 128 128 128 255
-0.529761 0.763822 4.08754 0 0 0 128 128 128 255
-0.530981 1.31415 4.1147 0 0 0 128 128 128 255
-0.532918 0.425319 4.0692 0 0 0 128 128 128 255
-0.532902 0.439301 4.06991 0 0 0 128 128 128 255
-0.533951 1.14443 4.10495 0 0 0 128 128 128 255
-0.537684 0.312565 4.06161 0 0 0 128 128 128 255
-0.540366 0.409499 4.06543 0 0 0 128 128 128 255
-0.540307 0.461432 4.06807 0 0 0 128 128 128 255
-0.541451 0.27569 4.05828 0 0 0 128 128 128 255
-0.543305 0.288712 4.05822 0 0 0 128 128 128 255
-0.543451 0.981838 4.09305 0 0 0 128 128 128 255
-0.545023 0.423576 4.06436 0 0 0 128 128 128 255
-0.545883 0.490509 4.06741 0 0 0 128 128 128 255
-0.545388 0.924949 4.08946 0 0 0 128 128 128 255
-0.548406 0.748233 4.07946 0 0 0 128 128 128 255
-0.551644 0.383757 4.05994 0 0 0 128 128 128 255
-0.552299 0.636449 4.07243 0 0 0 128 128 128 255
-0.552158 0.76029 4.07872 0 0 0 128 128 128 255
-0.553611 0.312884 4.05568 0 0 0 128 128 128 255
-0.55346 0.445713 4.06242 0 0 0 128 128 128 255
-0.557447 0.266015 4.05199 0 0 0 128 128 128 255
-0.557442 0.27001 4.0522 0 0 0 128 128 128 255
-0.557083 0.585603 4.06822 0 0 0 128 128 128 255
-0.556477 1.11692 4.09519 0 0 0 128 128 128 255
-0.556262 1.30568 4.10477 0 0 0 128 128 128 255
-0.557203 1.31169 4.10475 0 0 0 128 128 128 255
-0.560175 0.367935 4.05621 0 0 0 128 128 128 255
-0.560834 0.623623 4.06888 0 0 0 128 128 128 255
-0.562756 0.60568 4.06735 0 0 0 128 128 128 255
-0.562386 0.930261 4.08382 0 0 0 128 128 128 255
-0.563518 0.772481 4.07551 0 0 0 128 128 128 255
-0.564291 0.930295 4.08321 0 0 0 128 128 128 255
-0.565866 0.384014 4.05518 0 0 0 128 128 128 255
-0.566558 0.614734 4.06659 0 0 0 128 128 128 255
-0.566501 0.664669 4.06913 0 0 0 128 128 128 255
-0.566495 0.669663 4.06938 0 0 0 128 128 128 255
-0.569366 0.665716 4.0683 0 0 0 128 128 128 255
-0.570613 0.41106 4.05508 0 0 0 128 128 128 255
-0.570579 0.441021 4.0566 0 0 0 128 128 128 255
-0.570043 0.911416 4.08048 0 0 0 128 128 128 255
-0.572657 0.299235 4.04883 0 0 0 128 128 128 255
-0.571885 0.976363 4.0832 0 0 0 128 128 128 255
-0.573598 0.31523 4.04936 0 0 0 128 128 128 255
-0.574383 0.468049 4.05683 0 0 0 128 128 128 255
-0.573605 1.15117 4.09151 0 0 0 128 128 128 255
-0.574348 1.34194 4.10091 0 0 0 128 128 128 255
-0.579391 1.13927 4.08927 0 0 0 128 128 128 255
-0.581241 0.36129 4.04951 0 0 0 128 128 128 255
-0.585025 0.431257 4.05202 0 0 0 128 128 128 255
-0.584447 0.938604 4.07778 0 0 0 128 128 128 255
-0.588091 0.289481 4.04407 0 0 0 128 128 128 255
-0.587102 1.15736 4.08813 0 0 0 128 128 128 255
-0.588089 1.1424 4.08712 0 0 0 128 128 128 255
-0.589869 0.430327 4.05073 0 0 0 128 128 128 255
-0.589063 1.13841 4.08667 0 0 0 128 128 128 255
-0.590863 0.410366 4.04948 0 0 0 128 128 128 255
-0.595671 0.456372 4.05064 0 0 0 128 128 128 255
-0.594741 1.27232 4.09206 0 0 0 128 128 128 255
-0.595918 1.09456 4.0828 0 0 0 128 128 128 255
-0.595724 1.26434 4.09142 0 0 0 128 128 128 255
-0.597691 0.392479 4.04694 0 0 0 128 128 128 255
-0.596632 1.32228 4.09414 0 0 0 128 128 128 255
-0.601949 0.938837 4.07358 0 0 0 128 128 128 255
-0.603659 0.295677 4.04072 0 0 0 128 128 128 255
-0.603586 0.359595 4.04397 0 0 0 128 128 128 255
-0.603306 0.605278 4.05644 0 0 0 128 128 128 255
-0.603038 0.840975 4.0684 0 0 0 128 128 128 255
-0.604656 0.27871 4.03965 0 0 0 128 128 128 255
-0.603939 0.9079 4.07159 0 0 0 128 128 128 255
-0.604963 0.867963 4.06936 0 0 0 128 128 128 255
-0.606014 0.805056 4.06596 0 0 0 128 128 128 255
-0.605807 0.986822 4.07519 0 0 0 128 128 128 255
-0.605685 1.09368 4.08061 0 0 0 128 128 128 255
-0.607455 0.399589 4.04518 0 0 0 128 128 128 255
-0.607393 0.454518 4.04796 0 0 0 128 128 128 255
-0.607187 0.635286 4.05714 0 0 0 128 128 128 255
-0.61378 0.878049 4.06812 0 0 0 128 128 128 255
-0.6137 0.947959 4.07166 0 0 0 128 128 128 255
-0.615093 0.588432 4.05323 0 0 0 128 128 128 255
-0.614711 0.924 4.07026 0 0 0 128 128 128 255
-0.614447 1.1557 4.08203 0 0 0 128 128 128 255
-0.61779 0.812175 4.06405 0 0 0 128 128 128 255
-0.620374 0.272889 4.03633 0 0 0 128 128 128 255
-0.620328 0.313836 4.03841 0 0 0 128 128 128 255
-0.621371 0.262912 4.03566 0 0 0 128 128 128 255
-0.622385 1.10485 4.07806 0 0 0 128 128 128 255
-0.624069 0.492644 4.04683 0 0 0 128 128 128 255
-0.623707 0.810235 4.06295 0 0 0 128 128 128 255
-0.623629 0.879146 4.06645 0 0 0 128 128 128 255
-0.623608 0.897123 4.06736 0 0 0 128 128 128 255
-0.625084 0.468684 4.04545 0 0 0 128 128 128 255
-0.624267 1.18576 4.08185 0 0 0 128 128 128 255
-0.625393 1.06393 4.07551 0 0 0 128 128 128 255
-0.626236 1.19177 4.08184 0 0 0 128 128 128 255
-0.6279 0.598544 4.05158 0 0 0 128 128 128 255
-0.627108 1.29365 4.08686 0 0 0 128 128 128 255
-0.629806 0.66148 4.05448 0 0 0 128 128 128 255
-0.629776 0.687447 4.05579 0 0 0 128 128 128 255
-0.629238 1.15984 4.07977 0 0 0 128 128 128 255
-0.629203 1.1908 4.08135 0 0 0 128 128 128 255
-0.629189 1.20278 4.08195 0 0 0 128 128 128 255
-0.630895 0.573602 4.04987 0 0 0 128 128 128 255
-0.630894 0.5746 4.04992 0 0 0 128 128 128 255
-0.630178 1.20379 4.08186 0 0 0 128 128 128 255
-0.631227 1.15187 4.07908 0 0 0 128 128 128 255
-0.631174 1.19781 4.08141 0 0 0 128 128 128 255
-0.633119 0.359894 4.03874 0 0 0 128 128 128 255
-0.63206 1.2897 4.08594 0 0 0 128 128 128 255
-0.632044 1.30368 4.08665 0 0 0 128 128 128 255
-0.635074 0.38288 4.03963 0 0 0 128 128 128 255
-0.634182 1.16587 4.07938 0 0 0 128 128 128 255
-0.635852 0.569647 4.04898 0 0 0 128 128 128 255
-0.63519 1.1509 4.07849 0 0 0 128 128 128 255
-0.635178 1.16188 4.07904 0 0 0 128 128 128 255
-0.63808 0.354939 4.03782 0 0 0 128 128 128 255
-0.637969 0.452813 4.04279 0 0 0 128 128 128 255
-0.63768 0.706487 4.05567 0 0 0 128 128 128 255
-0.638998 0.419863 4.04099 0 0 0 128 128 128 255
-0.64013 0.297029 4.03463 0 0 0 128 128 128 255
-0.640691 0.676547 4.05378 0 0 0 128 128 128 255
-0.640644 0.717495 4.05585 0 0 0 128 128 128 255
-0.640198 1.10899 4.07573 0 0 0 128 128 128 255
-0.640022 1.26379 4.08359 0 0 0 128 128 128 255
-0.641016 1.2628 4.08342 0 0 0 128 128 128 255
-0.641009 1.26879 4.08372 0 0 0 128 128 128 255
-0.644379 0.927252 4.06604 0 0 0 128 128 128 255
-0.647121 0.265118 4.03221 0 0 0 128 128 128 255
-0.64795 0.410937 4.03951 0 0 0 128 128 128 255
-0.64787 0.480847 4.04306 0 0 0 128 128 128 255
-0.650095 0.274126 4.03236 0 0 0 128 128 128 255
-0.650959 0.389982 4.03815 0 0 0 128 128 128 255
-0.653034 0.31609 4.03421 0 0 0 128 128 128 255
-0.654047 1.17599 4.07768 0 0 0 128 128 128 255
-0.655014 1.20097 4.07886 0 0 0 128 128 128 255
-0.656229 1.00922 4.06905 0 0 0 128 128 128 255
-0.66228 0.950324 4.06561 0 0 0 128 128 128 255
-0.663528 0.730612 4.05439 0 0 0 128 128 128 255
-0.666823 0.466964 4.04082 0 0 0 128 128 128 255
-0.66784 0.44999 4.03991 0 0 0 128 128 128 255
-0.667424 0.815519 4.05846 0 0 0 128 128 128 255
-0.669039 0.27422 4.03093 0 0 0 128 128 128 255
-0.670536 0.713662 4.05314 0 0 0 128 128 128 255
-0.671305 0.915405 4.06333 0 0 0 128 128 128 255
-0.672032 1.1541 4.0754 0 0 0 128 128 128 255
-0.67425 0.961356 4.06554 0 0 0 128 128 128 255
-0.675461 0.775598 4.05607 0 0 0 128 128 128 255
-0.677071 1.11716 4.07334 0 0 0 128 128 128 255
-0.678439 0.793583 4.05688 0 0 0 128 128 128 255
-0.677871 1.29194 4.08218 0 0 0 128 128 128 255
-0.682002 0.298229 4.03166 0 0 0 128 128 128 255
-0.681512 0.728674 4.05351 0 0 0 128 128 128 255
-0.681914 1.253 4.08011 0 0 0 128 128 128 255
-0.683444 0.787602 4.05647 0 0 0 128 128 128 255
-0.682844 1.31492 4.08323 0 0 0 128 128 128 255
-0.683919 1.24901 4.07987 0 0 0 128 128 128 255
-0.686575 0.672756 4.0506 0 0 0 128 128 128 255
-0.686242 0.965379 4.06545 0 0 0 128 128 128 255
-0.687468 0.766636 4.05535 0 0 0 128 128 128 255
-0.690036 0.268281 4.03005 0 0 0 128 128 128 255
-0.689616 0.636806 4.04875 0 0 0 128 128 128 255
-0.689476 0.759648 4.05499 0 0 0 128 128 128 255
-0.690533 0.709714 4.05245 0 0 0 128 128 128 255
-0.692594 0.655785 4.04972 0 0 0 128 128 128 255
-0.693297 0.91645 4.06296 0 0 0 128 128 128 255
-0.694195 1.00634 4.06753 0 0 0 128 128 128 255
-0.694002 1.17612 4.07615 0 0 0 128 128 128 255
-0.693871 1.29097 4.08198 0 0 0 128 128 128 255
-0.697551 0.693739 4.0517 0 0 0 128 128 128 255
-0.699017 0.284267 4.03093 0 0 0 128 128 128 255
-0.699866 1.29397 4.08223 0 0 0 128 128 128 255
-0.701811 0.464035 4.04013 0 0 0 128 128 128 255
-0.702865 1.29397 4.08231 0 0 0 128 128 128 255
-0.704899 0.386135 4.03626 0 0 0 128 128 128 255
-0.705015 1.16114 4.07564 0 0 0 128 128 128 255
-0.707254 0.950406 4.06502 0 0 0 128 128 128 255
-0.708998 0.296247 4.03185 0 0 0 128 128 128 255
-0.709822 0.450048 4.0397 0 0 0 128 128 128 255
-0.711233 0.965382 4.06596 0 0 0 128 128 128 255
-0.710844 1.30694 4.0833 0 0 0 128 128 128 255
-0.712836 1.31093 4.08361 0 0 0 128 128 128 255
-0.71501 0.27926 4.03129 0 0 0 128 128 128 255
-0.714301 0.901459 4.06288 0 0 0 128 128 128 255
-0.718814 1.31991 4.08444 0 0 0 128 128 128 255
-0.721016 0.262269 4.03082 0 0 0 128 128 128 255
-0.720858 0.401091 4.03787 0 0 0 128 128 128 255
-0.721865 0.393098 4.03753 0 0 0 128 128 128 255
-0.721792 0.457016 4.04078 0 0 0 128 128 128 255
-0.720885 1.25299 4.08118 0 0 0 128 128 128 255
-0.72225 0.930404 4.06488 0 0 0 128 128 128 255
-0.723347 0.842514 4.0605 0 0 0 128 128 128 255
-0.72294 1.20005 4.07865 0 0 0 128 128 128 255
-0.723868 1.25997 4.08177 0 0 0 128 128 128 255
-0.725997 0.26625 4.03141 0 0 0 128 128 128 255
-0.725293 0.884454 4.06279 0 0 0 128 128 128 255
-0.727364 0.815536 4.05947 0 0 0 128 128 128 255
-0.728929 0.315177 4.03416 0 0 0 128 128 128 255
-0.728726 0.493947 4.04323 0 0 0 128 128 128 255
-0.729549 0.645748 4.05103 0 0 0 128 128 128 255
-0.729302 0.862469 4.06203 0 0 0 128 128 128 255
-0.728945 1.17606 4.07795 0 0 0 128 128 128 255
-0.731837 0.384077 4.03794 0 0 0 128 128 128 255
-0.732862 0.358107 4.03672 0 0 0 128 128 128 255
-0.732555 0.62776 4.05041 0 0 0 128 128 128 255
-0.733934 0.29019 4.03338 0 0 0 128 128 128 255
-0.733451 0.714644 4.05492 0 0 0 128 128 128 255
-0.735561 0.607773 4.04971 0 0 0 128 128 128 255
-0.735558 0.610769 4.04986 0 0 0 128 128 128 255
-0.734878 1.208 4.08018 0 0 0 128 128 128 255
-0.73654 0.620752 4.05048 0 0 0 128 128 128 255
-0.736357 0.781545 4.05864 0 0 0 128 128 128 255
-0.736187 0.931352 4.06624 0 0 0 128 128 128 255
-0.735869 1.20999 4.08039 0 0 0 128 128 128 255
-0.737434 0.708634 4.05505 0 0 0 128 128 128 255
-0.741445 0.674658 4.0538 0 0 0 128 128 128 255
-0.74142 0.69663 4.05491 0 0 0 128 128 128 255
-0.741382 0.729588 4.05658 0 0 0 128 128 128 255
-0.741208 0.882391 4.06434 0 0 0 128 128 128 255
-0.744466 0.635693 4.0522 0 0 0 128 128 128 255
-0.744077 0.977253 4.06953 0 0 0 128 128 128 255
-0.745072 0.974251 4.06951 0 0 0 128 128 128 255
-0.746427 0.654657 4.05342 0 0 0 128 128 128 255
-0.745716 1.27885 4.08511 0 0 0 128 128 128 255
-0.750661 1.28382 4.08606 0 0 0 128 128 128 255
-0.752012 0.96622 4.07009 0 0 0 128 128 128 255
-0.755671 0.356985 4.03962 0 0 0 128 128 128 255
-0.76264 0.301006 4.03792 0 0 0 128 128 128 255
-0.763656 0.273035 4.03668 0 0 0 128 128 128 255
-0.763219 0.656541 4.05614 0 0 0 128 128 128 255
-0.762896 0.940176 4.07054 0 0 0 128 128 128 255
-0.764477 1.28072 4.08818 0 0 0 128 128 128 255
-0.769571 0.260003 4.03711 0 0 0 128 128 128 255
-0.770955 0.768331 4.06329 0 0 0 128 128 128 255
-0.771711 0.966068 4.07352 0 0 0 128 128 128 255
-0.773156 0.558584 4.05304 0 0 0 128 128 128 255
-0.774002 0.675424 4.05917 0 0 0 128 128 128 255
-0.773429 1.17878 4.08472 0 0 0 128 128 128 255
-0.773319 1.27565 4.08964 0 0 0 128 128 128 255
-0.774893 0.753315 4.06332 0 0 0 128 128 128 255
-0.775771 0.842191 4.06804 0 0 0 128 128 128 255
-0.777377 0.290892 4.04026 0 0 0 128 128 128 255
-0.776369 1.17575 4.08518 0 0 0 128 128 128 255
-0.782234 0.315811 4.04259 0 0 0 128 128 128 255
-0.781525 0.93801 4.07418 0 0 0 128 128 128 255
-0.785627 0.759199 4.066 0 0 0 128 128 128 255
-0.785136 1.19064 4.0879 0 0 0 128 128 128 255
-0.789034 1.18261 4.08843 0 0 0 128 128 128 255
-0.789027 1.1886 4.08873 0 0 0 128 128 128 255
-0.788895 1.30445 4.09461 0 0 0 128 128 128 255
-0.790358 0.872998 4.07295 0 0 0 128 128 128 255
-0.792894 1.20054 4.09031 0 0 0 128 128 128 255
-0.792768 1.3114 4.09594 0 0 0 128 128 128 255
-0.794238 0.870956 4.07383 0 0 0 128 128 128 255
-0.795884 0.275711 4.04386 0 0 0 128 128 128 255
-0.797828 0.267697 4.04396 0 0 0 128 128 128 255
-0.797814 0.279682 4.04457 0 0 0 128 128 128 255
-0.801837 0.983714 4.08162 0 0 0 128 128 128 255
-0.802967 0.836891 4.07444 0 0 0 128 128 128 255
-0.805864 0.826865 4.07476 0 0 0 128 128 128 255
-0.807096 0.588159 4.06292 0 0 0 128 128 128 255
-0.806442 1.16242 4.09207 0 0 0 128 128 128 255
-0.806435 1.16841 4.09237 0 0 0 128 128 128 255
-0.808736 0.832818 4.0759 0 0 0 128 128 128 255
-0.808369 1.1554 4.09228 0 0 0 128 128 128 255
-0.810651 0.83379 4.07652 0 0 0 128 128 128 255
-0.81265 0.758859 4.0733 0 0 0 128 128 128 255
-0.814132 0.296441 4.05013 0 0 0 128 128 128 255
-0.813827 0.564096 4.06371 0 0 0 128 128 128 255
-0.815725 0.574055 4.06482 0 0 0 128 128 128 255
-0.816245 0.954551 4.08443 0 0 0 128 128 128 255
-0.815748 1.39099 4.10659 0 0 0 128 128 128 255
-0.819325 0.757761 4.07536 0 0 0 128 128 128 255
-0.81883 1.1922 4.09741 0 0 0 128 128 128 255
-0.821379 0.622905 4.06914 0 0 0 128 128 128 255
-0.823342 0.56495 4.06683 0 0 0 128 128 128 255
-0.822616 1.20213 4.09918 0 0 0 128 128 128 255
-0.825559 0.281284 4.05308 0 0 0 128 128 128 255
-0.826697 0.942402 4.08729 0 0 0 128 128 128 255
-0.828406 0.271251 4.05355 0 0 0 128 128 128 255
-0.827795 0.80756 4.08077 0 0 0 128 128 128 255
-0.827425 1.13214 4.09725 0 0 0 128 128 128 255
-0.828336 1.16109 4.09905 0 0 0 128 128 128 255
-0.828249 1.23699 4.1029 0 0 0 128 128 128 255
-0.829763 0.735621 4.07779 0 0 0 128 128 128 255
-0.829687 0.802535 4.08118 0 0 0 128 128 128 255
-0.830161 1.21299 4.10235 0 0 0 128 128 128 255
-0.833124 0.263181 4.05482 0 0 0 128 128 128 255
-0.832956 1.23591 4.10454 0 0 0 128 128 128 255
-0.833917 1.21592 4.10387 0 0 0 128 128 128 255
-0.835377 0.757495 4.08095 0 0 0 128 128 128 255
-0.836059 0.981191 4.09265 0 0 0 128 128 128 255
-0.839298 0.601629 4.07445 0 0 0 128 128 128 255
-0.839572 1.18087 4.10421 0 0 0 128 128 128 255
-0.842136 0.566622 4.07375 0 0 0 128 128 128 255
-0.841669 0.976095 4.09454 0 0 0 128 128 128 255
-0.841387 1.22378 4.10711 0 0 0 128 128 128 255
-0.843502 1.00103 4.09654 0 0 0 128 128 128 255
-0.844833 0.648464 4.07901 0 0 0 128 128 128 255
-0.844017 1.36454 4.11536 0 0 0 128 128 128 255
-0.845718 0.686397 4.08131 0 0 0 128 128 128 255
-0.847073 0.310863 4.06262 0 0 0 128 128 128 255
-0.846319 0.97301 4.09623 0 0 0 128 128 128 255
-0.845874 1.36351 4.11606 0 0 0 128 128 128 255
-0.847797 1.30155 4.11367 0 0 0 128 128 128 255
-0.849957 0.21693 4.05899 0 0 0 128 128 128 255
-0.850911 1.00088 4.09955 0 0 0 128 128 128 255
-0.851619 1.18862 4.10947 0 0 0 128 128 128 255
-0.851583 1.22058 4.11109 0 0 0 128 128 128 255
-0.853562 0.29076 4.06429 0 0 0 128 128 128 255
-0.852745 1.00884 4.10074 0 0 0 128 128 128 255
-0.854586 1.0068 4.10142 0 0 0 128 128 128 255
-0.854564 1.02578 4.10238 0 0 0 128 128 128 255
-0.856916 0.572322 4.08016 0 0 0 128 128 128 255
-0.857684 0.703134 4.0872 0 0 0 128 128 128 255
-0.857432 0.92385 4.0984 0 0 0 128 128 128 255
-0.856976 1.32433 4.11873 0 0 0 128 128 128 255
-0.860014 0.263661 4.0657 0 0 0 128 128 128 255
-0.860007 0.269653 4.06601 0 0 0 128 128 128 255
-0.85913 1.03966 4.10509 0 0 0 128 128 128 255
-0.858808 1.3223 4.11944 0 0 0 128 128 128 255
-0.860406 0.721052 4.08933 0 0 0 128 128 128 255
-0.860951 1.04362 4.10611 0 0 0 128 128 128 255
-0.862228 0.72301 4.09025 0 0 0 128 128 128 255
-0.861901 1.00964 4.1048 0 0 0 128 128 128 255
-0.861856 1.04959 4.10683 0 0 0 128 128 128 255
-0.861497 1.36418 4.12279 0 0 0 128 128 128 255
-0.86356 0.352467 4.07185 0 0 0 128 128 128 255
-0.865462 0.278522 4.06893 0 0 0 128 128 128 255
-0.865344 0.382389 4.07421 0 0 0 128 128 128 255
-0.865056 1.43202 4.12791 0 0 0 128 128 128 255
-0.867109 0.425293 4.07723 0 0 0 128 128 128 255
-0.866546 0.919656 4.10232 0 0 0 128 128 128 255
-0.867423 0.944603 4.10401 0 0 0 128 128 128 255
-0.86716 1.17531 4.11573 0 0 0 128 128 128 255
-0.86894 0.406276 4.07712 0 0 0 128 128 128 255
-0.868053 1.18527 4.11666 0 0 0 128 128 128 255
-0.871677 1.17021 4.11763 0 0 0 128 128 128 255
-0.871411 1.40391 4.12949 0 0 0 128 128 128 255
-0.872892 0.892545 4.10397 0 0 0 128 128 128 255
-0.872838 0.940483 4.1064 0 0 0 128 128 128 255
-0.874416 0.343231 4.07653 0 0 0 128 128 128 255
-0.874034 0.678799 4.09356 0 0 0 128 128 128 255
-0.875385 0.280291 4.07377 0 0 0 128 128 128 255
-0.875063 0.562927 4.08812 0 0 0 128 128 128 255
-0.876461 0.90744 4.1065 0 0 0 128 128 128 255
-0.876443 0.923419 4.10731 0 0 0 128 128 128 255
-0.876137 1.19207 4.12095 0 0 0 128 128 128 255
-0.878235 0.918382 4.10795 0 0 0 128 128 128 255
-0.879135 0.911369 4.10805 0 0 0 128 128 128 255
-0.881168 0.68961 4.09771 0 0 0 128 128 128 255
-0.88291 0.718529 4.1001 0 0 0 128 128 128 255
-0.882639 0.956222 4.11216 0 0 0 128 128 128 255
-0.885085 0.36394 4.08303 0 0 0 128 128 128 255
-0.885047 0.397896 4.08475 0 0 0 128 128 128 255
-0.886006 0.331959 4.08187 0 0 0 128 128 128 255
-0.886257 0.886222 4.11048 0 0 0 128 128 128 255
-0.888211 0.717393 4.10286 0 0 0 128 128 128 255
-0.887952 0.9451 4.11441 0 0 0 128 128 128 255
-0.889041 0.761314 4.10556 0 0 0 128 128 128 255
-0.888242 1.46241 4.14115 0 0 0 128 128 128 255
-0.890015 0.6764 4.10173 0 0 0 128 128 128 255
-0.889433 1.18774 4.12769 0 0 0 128 128 128 255
-0.891194 0.411717 4.08878 0 0 0 128 128 128 255
-0.890832 0.729308 4.1049 0 0 0 128 128 128 255
-0.890218 1.26861 4.13227 0 0 0 128 128 128 255
-0.892132 0.357763 4.08652 0 0 0 128 128 128 255
-0.892038 1.20764 4.13015 0 0 0 128 128 128 255
-0.89186 1.36444 4.13811 0 0 0 128 128 128 255
-0.891799 1.41737 4.14079 0 0 0 128 128 128 255
-0.893565 0.63436 4.10153 0 0 0 128 128 128 255
-0.893458 0.728239 4.1063 0 0 0 128 128 128 255
-0.89562 0.360664 4.08862 0 0 0 128 128 128 255
-0.89515 0.773133 4.10956 0 0 0 128 128 128 255
-0.894939 0.958894 4.11899 0 0 0 128 128 128 255
-0.896499 0.352651 4.08871 0 0 0 128 128 128 255
-0.896517 1.09966 4.12712 0 0 0 128 128 128 255
-0.898223 0.363588 4.09026 0 0 0 128 128 128 255
-0.898634 0.764048 4.11108 0 0 0 128 128 128 255
-0.898621 0.775034 4.11164 0 0 0 128 128 128 255
-0.899777 1.27834 4.1382 0 0 0 128 128 128 255
-0.90132 0.681081 4.10838 0 0 0 128 128 128 255
-0.900933 1.02064 4.12562 0 0 0 128 128 128 255
-0.902586 0.326513 4.09089 0 0 0 128 128 128 255
-0.90137 1.39414 4.14509 0 0 0 128 128 128 255
-0.902369 1.27227 4.13941 0 0 0 128 128 128 255
-0.90385 0.725949 4.11219 0 0 0 128 128 128 255
-0.903516 1.01957 4.1271 0 0 0 128 128 128 255
-0.904695 0.737908 4.11331 0 0 0 128 128 128 255
-0.905985 0.357373 4.09451 0 0 0 128 128 128 255
-0.905724 0.586079 4.10612 0 0 0 128 128 128 255
-0.906876 0.326388 4.09346 0 0 0 128 128 128 255
-0.910323 1.03834 4.13222 0 0 0 128 128 128 255
-0.913731 1.01727 4.13329 0 0 0 128 128 128 255
-0.913498 1.222 4.14368 0 0 0 128 128 128 255
-0.913442 1.27094 4.14616 0 0 0 128 128 128 255
-0.915173 0.490917 4.10711 0 0 0 128 128 128 255
-0.914564 1.02623 4.13428 0 0 0 128 128 128 255
-0.916115 0.403004 4.10319 0 0 0 128 128 128 255
-0.915365 1.06116 4.1366 0 0 0 128 128 128 255
-0.916695 0.631683 4.11534 0 0 0 128 128 128 255
-0.916254 1.01918 4.13501 0 0 0 128 128 128 255
-0.918593 1.17091 4.14435 0 0 0 128 128 128 255
-0.922888 0.325888 4.10367 0 0 0 128 128 128 255
-0.922856 0.353852 4.10509 0 0 0 128 128 128 255
-0.922719 0.473697 4.11118 0 0 0 128 128 128 255
-0.923532 0.488651 4.11249 0 0 0 128 128 128 255
-0.923768 1.00895 4.13947 0 0 0 128 128 128 255
-0.925378 0.320812 4.1051 0 0 0 128 128 128 255
-0.925535 0.908028 4.13547 0 0 0 128 128 128 255
-0.927881 0.293763 4.10543 0 0 0 128 128 128 255
-0.927523 0.608358 4.1214 0 0 0 128 128 128 255
-0.927999 0.911939 4.13738 0 0 0 128 128 128 255
-0.929404 0.398572 4.11189 0 0 0 128 128 128 255
-0.928825 0.906917 4.13769 0 0 0 128 128 128 255
-0.92848 1.20953 4.15306 0 0 0 128 128 128 255
-0.930007 0.587301 4.12205 0 0 0 128 128 128 255
-0.929933 1.37026 4.16237 0 0 0 128 128 128 255
-0.9317 0.535311 4.12056 0 0 0 128 128 128 255
-0.932585 0.473362 4.118 0 0 0 128 128 128 255
-0.934094 0.575174 4.12433 0 0 0 128 128 128 255
-0.934891 0.587129 4.12553 0 0 0 128 128 128 255
-0.934308 1.09847 4.15148 0 0 0 128 128 128 255
-0.936365 0.711911 4.13304 0 0 0 128 128 128 255
-0.936822 1.01849 4.1492 0 0 0 128 128 128 255
-0.938273 0.451188 4.12099 0 0 0 128 128 128 255
-0.939616 0.680834 4.13384 0 0 0 128 128 128 255
-0.940481 0.623878 4.13155 0 0 0 128 128 128 255
-0.942019 0.675751 4.13539 0 0 0 128 128 128 255
-0.947566 0.670547 4.13941 0 0 0 128 128 128 255
-0.948042 0.942167 4.15382 0 0 0 128 128 128 255
-0.948886 0.890203 4.1518 0 0 0 128 128 128 255
-0.948821 0.94713 4.15469 0 0 0 128 128 128 255
-0.948729 1.02803 4.1588 0 0 0 128 128 128 255
-0.951437 0.708345 4.14444 0 0 0 128 128 128 255
-0.954802 0.478517 4.1353 0 0 0 128 128 128 255
-0.955332 0.691211 4.14674 0 0 0 128 128 128 255
-0.956047 1.41522 4.18477 0 0 0 128 128 128 255
-0.960388 0.291536 4.13031 0 0 0 128 128 128 255
-0.959942 0.683032 4.15018 0 0 0 128 128 128 255
-0.961201 0.91367 4.16319 0 0 0 128 128 128 255
-0.962216 0.687929 4.15238 0 0 0 128 128 128 255
-0.962214 0.689926 4.15248 0 0 0 128 128 128 255
-0.961961 0.911641 4.16374 0 0 0 128 128 128 255
-0.964127 0.337316 4.13589 0 0 0 128 128 128 255
-0.964272 0.871595 4.16367 0 0 0 128 128 128 255
-0.964209 0.927523 4.16651 0 0 0 128 128 128 255
-0.965969 0.70075 4.15632 0 0 0 128 128 128 255
-0.965745 0.897496 4.16631 0 0 0 128 128 128 255
-0.968248 0.667694 4.15664 0 0 0 128 128 128 255
-0.9696 0.134348 4.13024 0 0 0 128 128 128 255
-0.969216 0.470914 4.14732 0 0 0 128 128 128 255
-0.969077 0.593756 4.15356 0 0 0 128 128 128 255
-0.971187 0.69153 4.16054 0 0 0 128 128 128 255
-0.972879 -0.146424 4.11868 0 0 0 128 128 128 255
-0.973585 0.524645 4.1541 0 0 0 128 128 128 255
-0.974661 0.865139 4.17275 0 0 0 128 128 128 255
-0.977052 0.682272 4.16553 0 0 0 128 128 128 255
-0.97978 0.190802 4.14265 0 0 0 128 128 128 255
-0.980549 0.147823 4.14117 0 0 0 128 128 128 255
-0.981285 0.131809 4.14105 0 0 0 128 128 128 255
-0.983 0.507222 4.16221 0 0 0 128 128 128 255
-0.982778 0.701971 4.1721 0 0 0 128 128 128 255
-0.982773 0.706964 4.17235 0 0 0 128 128 128 255
-0.983907 0.335408 4.15419 0 0 0 128 128 128 255
-0.984749 0.839689 4.1812 0 0 0 128 128 128 255
-0.986237 0.153537 4.14708 0 0 0 128 128 128 255
-0.985983 0.37625 4.15839 0 0 0 128 128 128 255
-0.985437 0.855633 4.18272 0 0 0 128 128 128 255
-0.987278 0.474054 4.16478 0 0 0 128 128 128 255
-0.98848 0.647759 4.17502 0 0 0 128 128 128 255
-0.989331 0.512897 4.1689 0 0 0 128 128 128 255
-0.989287 0.551847 4.17087 0 0 0 128 128 128 255
-0.99021 0.352069 4.16145 0 0 0 128 128 128 255
-0.989976 0.557804 4.1719 0 0 0 128 128 128 255
-0.989777 0.732579 4.18077 0 0 0 128 128 128 255
-0.990633 0.589727 4.17424 0 0 0 128 128 128 255
-0.990371 0.82043 4.18595 0 0 0 128 128 128 255
-0.992142 0.478798 4.17005 0 0 0 128 128 128 255
-0.993581 0.423797 4.16871 0 0 0 128 128 128 255
-0.994369 0.332878 4.16483 0 0 0 128 128 128 255
-0.994184 0.495668 4.17309 0 0 0 128 128 128 255
-0.993564 1.03997 4.20072 0 0 0 128 128 128 255
-0.99491 0.458679 4.17194 0 0 0 128 128 128 255
-0.997352 0.105025 4.1562 0 0 0 128 128 128 255
-0.998079 0.653246 4.1855 0 0 0 128 128 128 255
-0.999559 0.533327 4.1809 0 0 0 128 128 128 255
-1.00001 0.723045 4.19127 0 0 0 128 128 128 255
-1.0007 0.702036 4.19095 0 0 0 128 128 128 255
-1.00029 1.06856 4.20955 0 0 0 128 128 128 255
-1.00198 0.163692 4.16437 0 0 0 128 128 128 255
-1.00294 0.484205 4.18214 0 0 0 128 128 128 255
-1.00294 0.485203 4.18219 0 0 0 128 128 128 255
-1.00342 0.641964 4.1909 0 0 0 128 128 128 255
-1.00415 0.582004 4.18861 0 0 0 128 128 128 255
-1.00529 0.736729 4.19797 0 0 0 128 128 128 255
-1.00673 0.613812 4.19325 0 0 0 128 128 128 255
-1.0085 0.765503 4.20324 0 0 0 128 128 128 255
-1.0098 0.749447 4.20396 0 0 0 128 128 128 255
-1.0098 0.750446 4.20401 0 0 0 128 128 128 255
-1.00972 0.827347 4.20791 0 0 0 128 128 128 255
-1.01104 0.229079 4.17831 0 0 0 128 128 128 255
-1.01015 1.00808 4.21786 0 0 0 128 128 128 255
-1.01203 1.03792 4.22169 0 0 0 128 128 128 255
-1.01306 0.688334 4.20472 0 0 0 128 128 128 255
-1.01354 0.820125 4.21219 0 0 0 128 128 128 255
-1.01421 0.783134 4.21109 0 0 0 128 128 128 255
-1.01417 0.816092 4.21276 0 0 0 128 128 128 255
-1.01728 0.823887 4.21707 0 0 0 128 128 128 255
-1.0189 0.485245 4.20146 0 0 0 128 128 128 255
-1.01855 0.795845 4.21722 0 0 0 128 128 128 255
-1.02243 0.596864 4.21188 0 0 0 128 128 128 255
-1.0261 1.04401 4.24021 0 0 0 128 128 128 255
-1.03096 -0.1487 4.18454 0 0 0 128 128 128 255
-1.03535 0.499096 4.22483 0 0 0 128 128 128 255
-1.0358 0.589938 4.23027 0 0 0 128 128 128 255
-1.03872 0.455902 4.22763 0 0 0 128 128 128 255
-1.0405 -0.147404 4.19869 0 0 0 128 128 128 255
-1.04024 0.0832985 4.2104 0 0 0 128 128 128 255
-1.04185 0.101149 4.21383 0 0 0 128 128 128 255
-1.04319 0.329728 4.22797 0 0 0 128 128 128 255
-1.05197 -0.127369 4.21849 0 0 0 128 128 128 255
-1.05067 1.01516 4.27648 0 0 0 128 128 128 255
-1.05259 0.199123 4.2368 0 0 0 128 128 128 255
-1.05216 0.573641 4.25581 0 0 0 128 128 128 255
-1.05456 0.196951 4.24018 0 0 0 128 128 128 255
-1.05764 0.84876 4.2803 0 0 0 128 128 128 255
-1.06472 -0.156526 4.24085 0 0 0 128 128 128 255
-1.06573 0.494455 4.2775 0 0 0 128 128 128 255
-1.06908 1.25901 4.32538 0 0 0 128 128 128 255
-1.06908 1.26001 4.32543 0 0 0 128 128 128 255
-1.07279 0.143176 4.27423 0 0 0 128 128 128 255
-1.07149 1.28471 4.33218 0 0 0 128 128 128 255
-1.07318 0.14313 4.27515 0 0 0 128 128 128 255
-1.07357 0.155069 4.27667 0 0 0 128 128 128 255
-1.07589 0.151795 4.28204 0 0 0 128 128 128 255
-1.08165 0.194989 4.29916 0 0 0 128 128 128 255
-1.08307 0.143866 4.30033 0 0 0 128 128 128 255
-1.08408 0.134735 4.3027 0 0 0 128 128 128 255
-1.08509 0.10563 4.30407 0 0 0 128 128 128 255
-1.08932 0.159888 4.32016 0 0 0 128 128 128 255
-1.08969 0.0909288 4.31762 0 0 0 128 128 128 255
-1.09038 0.234599 4.32779 0 0 0 128 128 128 255
-1.0916 0.130539 4.32636 0 0 0 128 128 128 255
-1.09274 0.0714206 4.32722 0 0 0 128 128 128 255
-1.093 0.0753669 4.32838 0 0 0 128 128 128 255
-1.09372 0.116168 4.33336 0 0 0 128 128 128 255
-1.0927 1.23568 4.39116 0 0 0 128 128 128 255
-1.09422 0.117069 4.33534 0 0 0 128 128 128 255
-1.09994 1.0373 4.41336 0 0 0 128 128 128 255
-1.10098 0.42 4.384 0 0 0 128 128 128 255
